<svg width="22" height="22" viewBox="0 0 22 22" fill="none" xmlns="http://www.w3.org/2000/svg">
<path fill-rule="evenodd" clip-rule="evenodd" d="M11.116 8.98835C11.8243 8.98835 12.3985 8.41416 12.3985 7.70585C12.3985 6.99754 11.8243 6.42334 11.116 6.42334C10.4077 6.42334 9.8335 6.99754 9.8335 7.70585C9.8335 8.41416 10.4077 8.98835 11.116 8.98835ZM11.116 10.9884C12.9289 10.9884 14.3985 9.51872 14.3985 7.70585C14.3985 5.89297 12.9289 4.42334 11.116 4.42334C9.30312 4.42334 7.8335 5.89297 7.8335 7.70585C7.8335 9.51872 9.30312 10.9884 11.116 10.9884Z" fill="#383838"/>
<path fill-rule="evenodd" clip-rule="evenodd" d="M2.99427 17.3174C3.43373 17.8973 3.93386 18.4286 4.48521 18.902C6.26689 20.4316 8.58342 21.3559 11.1158 21.3559C13.6485 21.3559 15.9653 20.4314 17.747 18.9015C18.2983 18.4281 18.7984 17.8967 19.2379 17.3168C20.5321 15.6088 21.3 13.48 21.3 11.1717C21.3 5.54717 16.7404 0.987549 11.1158 0.987549C5.49126 0.987549 0.931641 5.54717 0.931641 11.1717C0.931641 13.4802 1.69972 15.6093 2.99427 17.3174ZM18.0537 15.5152C18.8434 14.2564 19.3 12.7674 19.3 11.1717C19.3 6.65174 15.6358 2.98755 11.1158 2.98755C6.59583 2.98755 2.93164 6.65174 2.93164 11.1717C2.93164 12.7676 3.3884 14.2568 4.17832 15.5157C5.84185 13.5415 8.33256 12.2874 11.1162 12.2874C13.8996 12.2874 16.3901 13.5413 18.0537 15.5152ZM5.47256 17.0992C6.94088 18.4975 8.92811 19.3559 11.1158 19.3559C13.3038 19.3559 15.2912 18.4974 16.7595 17.0988C15.4692 15.391 13.4216 14.2874 11.1162 14.2874C8.81063 14.2874 6.76287 15.3912 5.47256 17.0992Z" fill="#383838"/>
</svg>
