<svg width="21" height="20" viewBox="0 0 21 20" fill="none" xmlns="http://www.w3.org/2000/svg">
<path fill-rule="evenodd" clip-rule="evenodd" d="M0.516602 2.64038C0.516602 2.0881 0.964317 1.64038 1.5166 1.64038H5.78501C6.33729 1.64038 6.78501 2.0881 6.78501 2.64038C6.78501 3.19267 6.33729 3.64038 5.78501 3.64038H1.5166C0.964317 3.64038 0.516602 3.19267 0.516602 2.64038Z" fill="#383838"/>
<path fill-rule="evenodd" clip-rule="evenodd" d="M13.3541 8.51922C15.1477 8.51922 16.6017 7.0652 16.6017 5.27157C16.6017 3.47795 15.1477 2.02393 13.3541 2.02393C11.5605 2.02393 10.1064 3.47795 10.1064 5.27157C10.1064 7.0652 11.5605 8.51922 13.3541 8.51922ZM13.3541 10.5192C16.2523 10.5192 18.6017 8.16976 18.6017 5.27157C18.6017 2.37338 16.2523 0.0239258 13.3541 0.0239258C10.4559 0.0239258 8.10645 2.37338 8.10645 5.27157C8.10645 8.16976 10.4559 10.5192 13.3541 10.5192Z" fill="#383838"/>
<path fill-rule="evenodd" clip-rule="evenodd" d="M16.3867 7.97573C16.7772 7.58522 17.4104 7.58524 17.8009 7.97578L20.5579 10.733C20.9484 11.1235 20.9484 11.7567 20.5579 12.1472C20.1673 12.5377 19.5342 12.5377 19.1437 12.1471L16.3866 9.38995C15.9961 8.99941 15.9961 8.36625 16.3867 7.97573Z" fill="#383838"/>
<path fill-rule="evenodd" clip-rule="evenodd" d="M0.516602 10.5364C0.516602 9.98409 0.964317 9.53638 1.5166 9.53638H7.42169C7.97397 9.53638 8.42169 9.98409 8.42169 10.5364C8.42169 11.0887 7.97397 11.5364 7.42169 11.5364H1.5166C0.964317 11.5364 0.516602 11.0887 0.516602 10.5364Z" fill="#383838"/>
<path fill-rule="evenodd" clip-rule="evenodd" d="M0.516602 18.4324C0.516602 17.8801 0.964317 17.4324 1.5166 17.4324H17.9719C18.5242 17.4324 18.9719 17.8801 18.9719 18.4324C18.9719 18.9847 18.5242 19.4324 17.9719 19.4324H1.5166C0.964317 19.4324 0.516602 18.9847 0.516602 18.4324Z" fill="#383838"/>
</svg>
