<svg width="23" height="22" viewBox="0 0 23 22" fill="none" xmlns="http://www.w3.org/2000/svg">
<path fill-rule="evenodd" clip-rule="evenodd" d="M9.89329 17.1718C13.9563 17.1718 17.25 13.8781 17.25 9.81516C17.25 5.75219 13.9563 2.4585 9.89329 2.4585C5.83031 2.4585 2.53662 5.75219 2.53662 9.81516C2.53662 13.8781 5.83031 17.1718 9.89329 17.1718ZM9.89329 19.1718C15.0608 19.1718 19.25 14.9827 19.25 9.81516C19.25 4.64762 15.0608 0.458496 9.89329 0.458496C4.72574 0.458496 0.536621 4.64762 0.536621 9.81516C0.536621 14.9827 4.72574 19.1718 9.89329 19.1718Z" fill="#383838"/>
<path fill-rule="evenodd" clip-rule="evenodd" d="M15.8539 15.1906C16.2445 14.8001 16.8776 14.8001 17.2682 15.1906L22.184 20.1068C22.5745 20.4973 22.5745 21.1305 22.184 21.521C21.7934 21.9115 21.1603 21.9115 20.7698 21.5209L15.8539 16.6048C15.4634 16.2143 15.4634 15.5811 15.8539 15.1906Z" fill="#383838"/>
</svg>
