<svg width="19" height="13" viewBox="0 0 19 13" fill="none" xmlns="http://www.w3.org/2000/svg">
<path d="M9.41711 12.0271C12.1093 12.0271 11.1493 10.3938 11.3571 9.92417C11.354 9.57343 11.3509 9.23607 11.3633 9.03098C11.5339 9.07705 11.9364 9.27248 12.7676 10.0468C14.0508 11.2877 14.3788 12.0271 15.4155 12.0271H17.3238C17.9286 12.0271 18.2434 11.7871 18.4008 11.5857C18.5528 11.391 18.7016 11.0492 18.5388 10.5171C18.1131 9.23607 15.6303 7.02392 15.476 6.79059C15.4993 6.74749 15.5365 6.69028 15.5559 6.66055H15.5543C16.0444 6.04008 17.9146 3.35458 18.1899 2.28008C18.1907 2.2786 18.1914 2.27637 18.1914 2.27414C18.3403 1.7837 18.2038 1.46567 18.0627 1.28584C17.8503 1.01684 17.5122 0.880859 17.0555 0.880859H15.1472C14.5083 0.880859 14.0237 1.18924 13.7787 1.75175C13.3685 2.7512 12.2163 4.80656 11.3525 5.53404C11.3261 4.50338 11.344 3.71646 11.3579 3.13165C11.3858 1.99102 11.4758 0.880859 10.2406 0.880859H7.24137C6.46753 0.880859 5.72703 1.69082 6.52878 2.65237C7.22974 3.49502 6.78079 3.96465 6.93199 6.30239C6.34269 5.69677 5.29436 4.06125 4.55309 1.97096C4.34529 1.40548 4.03048 0.881602 3.14421 0.881602H1.23597C0.462132 0.881602 0 1.28584 0 1.96279C0 3.48313 3.51174 12.0271 9.41711 12.0271ZM3.14421 1.99623C3.31247 1.99623 3.32952 1.99623 3.45436 2.33581C4.21347 4.47812 5.91623 7.64811 7.15995 7.64811C8.0943 7.64811 8.0943 6.7304 8.0943 6.38487L8.09352 3.63398C8.04235 2.7237 7.69652 2.27042 7.46933 1.99548L10.1894 1.99846C10.191 2.01109 10.1739 5.04138 10.1972 5.77554C10.1972 6.81809 11.0609 7.41552 12.4093 6.1077C13.8322 4.56878 14.8162 2.26819 14.8557 2.17457C14.9139 2.04081 14.9643 1.99548 15.1472 1.99548H17.0555H17.0632C17.0625 1.99771 17.0625 1.99994 17.0617 2.00217C16.8872 2.78241 15.1651 5.26876 14.589 6.04082C14.5797 6.05271 14.5711 6.06534 14.5626 6.07798C14.309 6.47478 14.1028 6.9132 14.5975 7.52996H14.5983C14.6432 7.58197 14.7603 7.70384 14.9309 7.87326C15.4613 8.39788 17.2803 10.1917 17.4416 10.905C17.3346 10.9214 17.2183 10.9095 15.4155 10.9132C15.0317 10.9132 14.7316 10.3633 13.5864 9.25614C12.5567 8.29608 11.8883 7.90373 11.2796 7.90373C10.0979 7.90373 10.184 8.82292 10.1948 9.93457C10.1987 11.1399 10.191 10.7586 10.1995 10.8344C10.1305 10.8605 9.93275 10.9125 9.41711 10.9125C4.49726 10.9125 1.29335 3.42889 1.17006 1.99846C1.21271 1.99474 1.79968 1.99697 3.14421 1.99623Z" fill="#FDA9A4"/>
</svg>
