<svg width="13" height="13" viewBox="0 0 13 13" fill="none" xmlns="http://www.w3.org/2000/svg">
<path d="M10.8964 1.02501H10.3236V0.0703125H9.36894V1.02501H3.06795V0.0703125H2.11326V1.02501H1.54044C0.750813 1.02501 0.108398 1.66742 0.108398 2.45705V10.8584C0.108398 11.648 0.750813 12.2904 1.54044 12.2904H10.8964C11.6861 12.2904 12.3285 11.648 12.3285 10.8584V2.45705C12.3285 1.66742 11.6861 1.02501 10.8964 1.02501ZM11.3738 10.8584C11.3738 11.1216 11.1597 11.3357 10.8964 11.3357H1.54044C1.27723 11.3357 1.06309 11.1216 1.06309 10.8584V4.55738H11.3738V10.8584ZM11.3738 3.60268H1.06309V2.45705C1.06309 2.19384 1.27723 1.9797 1.54044 1.9797H2.11326V2.9344H3.06795V1.9797H9.36894V2.9344H10.3236V1.9797H10.8964C11.1597 1.9797 11.3738 2.19384 11.3738 2.45705V3.60268Z" fill="#8E8E8E"/>
<path d="M3.00841 5.55957H2.05371V6.51427H3.00841V5.55957Z" fill="#8E8E8E"/>
<path d="M4.91759 5.55957H3.96289V6.51427H4.91759V5.55957Z" fill="#8E8E8E"/>
<path d="M6.82677 5.55957H5.87207V6.51427H6.82677V5.55957Z" fill="#8E8E8E"/>
<path d="M8.73692 5.55957H7.78223V6.51427H8.73692V5.55957Z" fill="#8E8E8E"/>
<path d="M10.5143 5.56006H9.55957V6.51475H10.5143V5.56006Z" fill="#8E8E8E"/>
<path d="M3.00841 7.46924H2.05371V8.42393H3.00841V7.46924Z" fill="#8E8E8E"/>
<path d="M4.91759 7.46924H3.96289V8.42393H4.91759V7.46924Z" fill="#8E8E8E"/>
<path d="M6.82677 7.46924H5.87207V8.42393H6.82677V7.46924Z" fill="#8E8E8E"/>
<path d="M8.73692 7.46924H7.78223V8.42393H8.73692V7.46924Z" fill="#8E8E8E"/>
<path d="M3.00841 9.37842H2.05371V10.3331H3.00841V9.37842Z" fill="#8E8E8E"/>
<path d="M4.91759 9.37842H3.96289V10.3331H4.91759V9.37842Z" fill="#8E8E8E"/>
<path d="M6.82677 9.37842H5.87207V10.3331H6.82677V9.37842Z" fill="#8E8E8E"/>
<path d="M8.73692 9.37842H7.78223V10.3331H8.73692V9.37842Z" fill="#8E8E8E"/>
<path d="M10.5143 7.46924H9.55957V8.42393H10.5143V7.46924Z" fill="#8E8E8E"/>
</svg>
