<svg width="17" height="16" viewBox="0 0 17 16" fill="none" xmlns="http://www.w3.org/2000/svg">
<path d="M15.3375 11.5548C14.818 11.099 14.1659 10.8961 13.5019 10.9832L6.40865 11.9142L6.12868 9.19913C5.99877 7.69925 5.64977 6.22993 5.0913 4.83193L4.84096 4.20527C4.64414 3.71258 4.26949 3.32896 3.80727 3.11642C4.01092 2.6642 4.04052 2.15233 3.88295 1.67414C3.88145 1.66955 3.8798 1.66498 3.87798 1.66048C3.48377 0.673669 2.54264 0.0219804 1.48029 0.000167858C1.22029 -0.00495715 0.975041 0.107481 0.809729 0.309262C0.644385 0.511075 0.582009 0.772888 0.638541 1.02761L2.99367 11.3047C3.02192 11.4315 3.14758 11.5116 3.27461 11.4833C3.40148 11.4551 3.48145 11.3293 3.45323 11.2024L1.84282 3.96755C1.81095 3.82399 1.84614 3.67643 1.93932 3.56268C2.03254 3.44893 2.17051 3.38611 2.31729 3.38843L2.99198 3.40227C3.1313 3.40511 3.26701 3.42649 3.39648 3.46424C3.40283 3.46646 3.40923 3.46846 3.41567 3.47011C3.85889 3.60555 4.22592 3.93468 4.40377 4.37986L4.65411 5.00652C5.19567 6.36221 5.53405 7.78709 5.65983 9.24159C5.65993 9.24288 5.66005 9.24416 5.66018 9.24547L5.94164 11.9755L5.49461 12.0342C5.19214 11.6276 4.66861 11.413 4.14302 11.5302C3.43073 11.6892 2.9802 12.398 3.13876 13.1104C3.13908 13.1116 3.13939 13.1129 3.13967 13.1143L3.71608 15.5093C3.78558 15.7983 4.04167 16 4.33883 16H13.3863C14.0543 16 14.5986 15.461 14.6075 14.795H15.1571C15.7586 14.795 16.248 14.2695 16.248 13.6237C16.248 12.8165 15.9162 12.0624 15.3375 11.5548ZM3.35645 2.97036C3.24092 2.94742 3.12236 2.93411 3.0017 2.93164L2.32701 2.9178C2.07198 2.91208 1.82932 3.00858 1.64845 3.18455L1.09767 0.923482C1.07342 0.81142 1.10114 0.696388 1.17385 0.607638C1.24701 0.518325 1.35607 0.468981 1.47064 0.470825C2.34111 0.488731 3.11255 1.02126 3.43808 1.82823C3.5613 2.20817 3.5307 2.61567 3.35645 2.97036ZM4.33886 15.5293C4.26008 15.5293 4.19224 15.4758 4.17383 15.3992L3.59792 13.0063C3.49692 12.5478 3.78711 12.092 4.24555 11.9898C4.70464 11.8873 5.1618 12.1776 5.26477 12.6389L5.93696 15.5293H4.33886ZM15.1572 14.3243H12.5024C12.3724 14.3243 12.2671 14.4296 12.2671 14.5596C12.2671 14.6896 12.3724 14.795 12.5024 14.795H14.1368C14.1279 15.2014 13.7948 15.5293 13.3863 15.5293H6.42027L6.24952 14.795H11.4072C11.5372 14.795 11.6426 14.6896 11.6426 14.5596C11.6426 14.4296 11.5372 14.3243 11.4072 14.3243H6.14002L5.72374 12.5344C5.71971 12.5163 5.71508 12.4984 5.71033 12.4807L13.5631 11.45C14.091 11.3806 14.6109 11.5436 15.027 11.9086C15.5038 12.3269 15.7773 12.9521 15.7773 13.6237C15.7773 14.01 15.4991 14.3243 15.1572 14.3243Z" fill="#8E8E8E"/>
</svg>
