<svg width="151" height="41" viewBox="0 0 151 41" fill="none" xmlns="http://www.w3.org/2000/svg">
<path fill-rule="evenodd" clip-rule="evenodd" d="M10.7932 3.07654C10.2713 3.07654 9.75451 3.48916 9.63897 3.99815L9.04652 6.60794H6.69934L7.40682 3.49143C7.759 1.94004 9.20239 0.787598 10.7932 0.787598H141.913C144.665 0.787598 147.091 1.89097 148.656 3.85184C149.31 4.67122 149.785 5.6039 150.072 6.60794H147.651C146.769 4.48681 144.67 3.07654 141.913 3.07654H10.7932ZM3.13392 32.6534L2.92929 33.5548C2.87949 33.7742 3.02147 33.952 3.24642 33.952H19.5862C19.4244 34.2377 19.3026 34.5432 19.2305 34.8607C19.117 35.3608 19.1404 35.8311 19.2764 36.2409C19.5732 37.1356 20.4064 37.7425 21.5222 37.7425C23.1492 37.7425 24.7611 36.4523 25.1224 34.8607C25.1484 34.7459 25.1673 34.6327 25.1792 34.5214C25.2002 34.3249 25.1997 34.1344 25.1792 33.952H32.1529C31.991 34.2377 31.8692 34.5432 31.7971 34.8607C31.6836 35.3608 31.707 35.8311 31.843 36.2409C32.1399 37.1356 32.9731 37.7425 34.0889 37.7425C35.7159 37.7425 37.3277 36.4523 37.689 34.8607C37.7151 34.7459 37.7339 34.6327 37.7458 34.5214C37.7669 34.3249 37.7663 34.1344 37.7458 33.952H123.665C123.503 34.2377 123.381 34.5432 123.309 34.8607C123.196 35.3608 123.219 35.8311 123.355 36.2409C123.652 37.1356 124.485 37.7425 125.601 37.7425C127.228 37.7425 128.84 36.4523 129.201 34.8607C129.227 34.7459 129.246 34.6327 129.258 34.5214C129.279 34.3248 129.278 34.1344 129.258 33.952H142.392C142.517 33.952 142.641 33.8532 142.668 33.7313L142.913 32.6534H145.26L144.9 34.238C144.636 35.4024 143.586 36.2409 142.392 36.2409H131.156C130.257 38.434 127.994 40.0314 125.601 40.0314C124.163 40.0314 122.81 39.4454 121.918 38.3231C121.428 37.707 121.127 36.9921 121.007 36.2409H39.6443C38.7445 38.434 36.4819 40.0314 34.0889 40.0314C32.6508 40.0314 31.2984 39.4454 30.4059 38.3231C29.9159 37.707 29.6145 36.9921 29.4952 36.2409H27.0776C26.1779 38.434 23.9152 40.0314 21.5222 40.0314C20.0842 40.0314 18.7318 39.4454 17.8393 38.3231C17.3492 37.707 17.0479 36.9921 16.9285 36.2409H3.24642C2.51203 36.2409 1.73209 35.9352 1.19608 35.2638C0.660076 34.5925 0.534566 33.7642 0.697139 33.0481L0.786737 32.6534H3.13392Z" fill="white"/>
</svg>
