<svg width="16" height="7" viewBox="0 0 16 7" fill="none" xmlns="http://www.w3.org/2000/svg">
<path d="M15.5701 2.67917L14.7622 0.987345C14.4709 0.386449 13.8381 0.000969042 13.141 0H1.55049C0.69451 0.000872145 0.000919203 0.65894 0 1.47118V5.14749C0 5.59276 0.380448 5.95372 0.849753 5.95372H2.11785C2.24163 6.53194 2.77722 6.94727 3.39901 6.94727C4.0208 6.94727 4.55639 6.53194 4.68018 5.95372H11.0076C11.1314 6.53194 11.6669 6.94727 12.2887 6.94727C12.9105 6.94727 13.4461 6.53194 13.5699 5.95372H14.961C15.2838 5.95362 15.568 5.75158 15.659 5.45758C15.6779 5.39459 15.6875 5.32957 15.6877 5.26416V3.19276C15.6876 3.01552 15.6475 2.84042 15.5701 2.67917ZM1.30731 2.97686C1.16289 2.97686 1.04585 2.86581 1.04585 2.72879V0.744215C1.04585 0.607291 1.16289 0.496143 1.30731 0.496143H3.13755C3.28197 0.496143 3.39901 0.607291 3.39901 0.744215V2.72879C3.39901 2.86581 3.28197 2.97686 3.13755 2.97686H1.30731ZM3.39901 6.44986C2.96586 6.44986 2.61462 6.11671 2.61462 5.70565C2.61462 5.29468 2.96586 4.96143 3.39901 4.96143C3.83216 4.96143 4.1834 5.29468 4.1834 5.70565C4.18217 6.11623 3.83165 6.4487 3.39901 6.44986ZM6.2751 2.72879C6.2751 2.86581 6.15805 2.97686 6.01364 2.97686H4.1834C4.03898 2.97686 3.92194 2.86581 3.92194 2.72879V0.744215C3.92194 0.607291 4.03898 0.496143 4.1834 0.496143H6.01364C6.15805 0.496143 6.2751 0.607291 6.2751 0.744215V2.72879ZM9.15118 2.72879C9.15118 2.86581 9.03414 2.97686 8.88972 2.97686H7.05948C6.91507 2.97686 6.79802 2.86581 6.79802 2.72879V0.744215C6.79802 0.607291 6.91507 0.496143 7.05948 0.496143H8.88972C9.03414 0.496143 9.15118 0.607291 9.15118 0.744215V2.72879ZM9.93557 2.97686C9.79115 2.97686 9.67411 2.86581 9.67411 2.72879V0.744215C9.67411 0.607291 9.79115 0.496143 9.93557 0.496143H11.7658C11.9102 0.496143 12.0273 0.607291 12.0273 0.744215V2.72879C12.0273 2.86581 11.9102 2.97686 11.7658 2.97686H9.93557ZM12.2887 6.44986C11.8556 6.44986 11.5043 6.11671 11.5043 5.70565C11.5043 5.29468 11.8556 4.96143 12.2887 4.96143C12.7219 4.96143 13.0731 5.29468 13.0731 5.70565C13.0719 6.11623 12.7214 6.4487 12.2887 6.44986ZM12.7907 2.97686C12.6552 2.96543 12.551 2.85796 12.5502 2.72879V0.742083C12.5502 0.606322 12.6662 0.496143 12.8094 0.496143H13.141C13.6332 0.497403 14.0801 0.769313 14.2864 1.19326L15.0942 2.88509C15.1364 2.97327 15.1596 3.06863 15.1623 3.16534L12.7907 2.97686Z" fill="#696969"/>
</svg>
