<svg width="13" height="13" viewBox="0 0 13 13" fill="none" xmlns="http://www.w3.org/2000/svg">
<path d="M6.43079 0.6828C2.97031 0.6828 0.165039 3.34442 0.165039 6.62769C0.165039 9.91095 2.97031 12.5726 6.43079 12.5726C9.89126 12.5726 12.6965 9.91095 12.6965 6.62769C12.6929 3.34589 9.88974 0.686309 6.43079 0.6828ZM6.87835 6.62769C6.87835 6.86221 6.67797 7.05233 6.43079 7.05233H2.85036C2.60318 7.05233 2.4028 6.86221 2.4028 6.62769C2.4028 6.39316 2.60318 6.20304 2.85036 6.20304H5.98325V3.23061C5.98325 2.99608 6.18363 2.80597 6.43081 2.80597C6.678 2.80597 6.87835 2.99608 6.87835 3.23061V6.62769Z" fill="#696969"/>
</svg>
