<svg width="15" height="12" viewBox="0 0 15 12" fill="none" xmlns="http://www.w3.org/2000/svg">
<path d="M12.4183 6.30676H11.2959C11.4103 6.60395 11.4728 6.92467 11.4728 7.25894V11.2837C11.4728 11.4231 11.4472 11.5569 11.4007 11.6813H13.2564C13.9495 11.6813 14.5134 11.1462 14.5134 10.4886V8.29452C14.5135 7.19848 13.5736 6.30676 12.4183 6.30676Z" fill="#696969"/>
<path d="M3.0405 7.25893C3.0405 6.92464 3.103 6.60395 3.21741 6.30676H2.09503C0.93983 6.30676 0 7.19848 0 8.29453V10.4886C0 11.1462 0.563881 11.6813 1.25702 11.6813H3.11258C3.06607 11.5568 3.0405 11.4231 3.0405 11.2837V7.25893Z" fill="#696969"/>
<path d="M8.53994 5.27039H5.97398C4.81875 5.27039 3.87891 6.16208 3.87891 7.25812V11.2828C3.87891 11.5023 4.0665 11.6804 4.29792 11.6804H10.216C10.4474 11.6804 10.635 11.5024 10.635 11.2828V7.25812C10.635 6.16208 9.69516 5.27039 8.53994 5.27039Z" fill="#696969"/>
<path d="M7.25726 0C5.86795 0 4.73767 1.07239 4.73767 2.39058C4.73767 3.28469 5.2578 4.06557 6.02593 4.47555C6.39026 4.67 6.8103 4.78113 7.25726 4.78113C7.70423 4.78113 8.12426 4.67 8.4886 4.47555C9.25676 4.06557 9.77686 3.28466 9.77686 2.39058C9.77686 1.07242 8.64657 0 7.25726 0Z" fill="#696969"/>
<path d="M2.83258 2.229C1.79354 2.229 0.948242 3.03098 0.948242 4.01678C0.948242 5.00259 1.79354 5.80457 2.83258 5.80457C3.09615 5.80457 3.34713 5.75277 3.57512 5.65966C3.96931 5.49865 4.29433 5.21362 4.49545 4.8566C4.63661 4.60603 4.71692 4.32018 4.71692 4.01678C4.71692 3.03101 3.87162 2.229 2.83258 2.229Z" fill="#696969"/>
<path d="M11.6812 2.229C10.6421 2.229 9.79688 3.03098 9.79688 4.01678C9.79688 4.3202 9.87718 4.60606 10.0183 4.8566C10.2195 5.21365 10.5445 5.49867 10.9386 5.65966C11.1666 5.75277 11.4176 5.80457 11.6812 5.80457C12.7202 5.80457 13.5654 5.00259 13.5654 4.01678C13.5654 3.03098 12.7202 2.229 11.6812 2.229Z" fill="#696969"/>
</svg>
