<svg width="61" height="61" viewBox="0 0 61 61" fill="none" xmlns="http://www.w3.org/2000/svg">
<path d="M14.45 60.6501C14.9 60.6501 15.2 60.3501 15.2 59.9001C15.2 59.4501 14.9 59.1501 14.45 59.1501H10.175V43.4001C12.65 43.2501 14.675 42.2751 16.025 40.4001C20.6 34.3251 16.925 21.2751 16.775 20.7501C16.7 20.4501 16.4 20.2251 16.025 20.2251H2.82496C2.52496 20.2251 2.22496 20.4501 2.07496 20.7501C1.92496 21.2751 -1.67504 34.3251 2.89995 40.4001C4.24995 42.2001 6.19995 43.1751 8.67495 43.4001V59.1501H4.39995C3.94995 59.1501 3.64995 59.4501 3.64995 59.9001C3.64995 60.3501 3.94995 60.6501 4.39995 60.6501H14.45ZM3.42495 21.7251H15.5C15.725 22.7001 16.25 24.8001 16.55 27.2751C15.875 27.5001 15.125 27.6501 13.925 27.6501C12.2 27.6501 11.3 27.2751 10.325 26.8251C9.27495 26.3751 8.14995 25.9251 6.12495 25.9251C4.47495 25.9251 3.42495 26.2251 2.52495 26.6001C2.74995 24.4251 3.19995 22.6251 3.42495 21.7251ZM4.09995 39.5751C1.99996 36.8751 1.92496 32.3001 2.22496 28.4001L2.37495 28.3251C3.34995 27.8751 4.24995 27.5001 5.97495 27.5001C7.69995 27.5001 8.59996 27.8751 9.57495 28.3251C10.625 28.7751 11.75 29.2251 13.775 29.2251C14.975 29.2251 15.875 29.0751 16.55 28.8501C16.85 32.6001 16.7 36.9501 14.75 39.5751C13.55 41.2251 11.75 41.9751 9.34995 41.9751C7.09995 41.9751 5.29995 41.1501 4.09995 39.5751Z" fill="#F39090"/>
<path d="M58.325 20.2251H45.125C44.825 20.2251 44.525 20.4501 44.375 20.7501C44.225 21.2751 40.625 34.3251 45.2 40.4001C46.55 42.2001 48.5 43.1751 50.975 43.4001V59.1501H46.7C46.25 59.1501 45.95 59.4501 45.95 59.9001C45.95 60.3501 46.25 60.6501 46.7 60.6501H56.75C57.2 60.6501 57.5 60.3501 57.5 59.9001C57.5 59.4501 57.2 59.1501 56.75 59.1501H52.475V43.4001C54.95 43.2501 56.975 42.2751 58.325 40.4001C62.9 34.3251 59.225 21.2751 59.075 20.7501C58.925 20.4501 58.7 20.2251 58.325 20.2251ZM45.65 21.7251H57.725C57.95 22.7001 58.475 24.8001 58.775 27.2751C58.1 27.5001 57.35 27.6501 56.15 27.6501C54.425 27.6501 53.525 27.2751 52.55 26.8251C51.5 26.4501 50.375 26.0001 48.35 26.0001C46.7 26.0001 45.65 26.3001 44.75 26.6751C45.05 24.4251 45.5 22.6251 45.65 21.7251ZM57.125 39.5751C55.925 41.2251 54.125 41.9751 51.725 41.9751C49.325 41.9751 47.6 41.1501 46.325 39.5751C44.225 36.8751 44.15 32.3001 44.45 28.4001L44.6 28.3251C45.575 27.9501 46.475 27.5001 48.2 27.5001C49.925 27.5001 50.825 27.8751 51.8 28.3251C52.85 28.7751 53.975 29.2251 56 29.2251C57.2 29.2251 58.1 29.0751 58.775 28.8501C59.3 32.6001 59.075 36.9501 57.125 39.5751Z" fill="#F39090"/>
<path d="M39.6499 58.1749V27.6499C39.6499 24.8749 38.5999 22.1749 36.7249 20.2999C34.9999 18.4999 34.0249 16.2499 34.0249 13.7749V7.0249C34.4749 6.7249 34.8499 6.2749 34.8499 5.6749V2.2249C34.8499 1.3999 34.1749 0.649902 33.2749 0.649902H27.6499C26.8249 0.649902 26.0749 1.3249 26.0749 2.2249V5.6749C26.0749 6.3499 26.4499 6.8749 27.0499 7.0999V13.4749C27.0499 16.0249 26.0749 18.4249 24.3499 20.1499C22.3999 22.0249 21.2749 24.7999 21.2749 27.6499V58.1749C21.2749 59.5249 22.3249 60.6499 23.5999 60.6499H37.2499C38.5999 60.7249 39.6499 59.5999 39.6499 58.1749ZM22.8499 28.1749H38.1499V53.9749H22.8499V28.1749ZM28.6249 13.5499V7.2499H32.5999V13.8499C32.5999 13.9999 32.5999 14.1499 32.5999 14.2249H28.5499C28.5499 13.9999 28.6249 13.7749 28.6249 13.5499ZM27.5749 2.2249C27.5749 2.2249 27.6499 2.2249 27.5749 2.2249L33.2749 2.1499C33.2749 2.1499 33.3499 2.1499 33.3499 2.2249V5.6749C33.3499 5.6749 33.3499 5.7499 33.2749 5.7499H27.6499C27.6499 5.7499 27.5749 5.7499 27.5749 5.6749V2.2249ZM25.4749 21.1999C26.9749 19.6999 27.9499 17.8249 28.3999 15.6499H32.7499C33.1249 17.7499 34.0999 19.6999 35.6749 21.2749C37.0249 22.6999 37.8499 24.5749 38.0749 26.5999H22.9249C23.1499 24.5749 24.0499 22.6249 25.4749 21.1999ZM37.3249 59.2249H23.6749C23.2249 59.2249 22.8499 58.7749 22.8499 58.2499V55.4749H38.1499V58.2499C38.1499 58.7749 37.7749 59.2249 37.3249 59.2249Z" fill="#F39090"/>
<path d="M26.9751 38.9C28.0251 39.875 29.6751 39.95 30.4251 39.95C30.5751 39.95 30.6501 39.95 30.7251 39.95C30.7251 39.95 30.8001 39.95 30.9501 39.95C31.6251 39.95 33.3501 39.875 34.5501 38.75C35.9751 37.4 35.7501 35.225 35.7501 35.15C35.6751 34.775 35.4501 34.475 35.0751 34.475C35.0001 34.475 34.1001 34.4 33.1251 34.7C33.1251 34.55 33.2001 34.4 33.2001 34.175C33.2001 32.225 31.3251 30.725 31.2501 30.65C30.9501 30.425 30.5751 30.425 30.3501 30.65C30.2751 30.725 28.4001 32.15 28.3251 34.1C28.3251 34.325 28.3251 34.475 28.4001 34.7C27.3501 34.475 26.4501 34.55 26.3751 34.55C26.0001 34.55 25.7001 34.85 25.7001 35.225C25.7001 35.45 25.5501 37.625 26.9751 38.9ZM33.5751 37.775C33.0501 38.225 32.2251 38.45 31.5501 38.525C31.6251 38 31.7751 37.325 32.3001 36.875C32.8251 36.425 33.6501 36.2 34.3251 36.125C34.2501 36.575 34.0251 37.25 33.5751 37.775ZM30.7251 32.375C31.1001 32.825 31.6251 33.5 31.6251 34.25C31.6251 34.925 31.1001 35.675 30.6501 36.125C30.2001 35.675 29.7501 34.925 29.7501 34.25C29.8251 33.5 30.3501 32.825 30.7251 32.375ZM29.2251 36.875C29.7501 37.325 29.9001 38 29.9751 38.525C29.3751 38.45 28.5501 38.3 27.9501 37.85C27.4251 37.4 27.2751 36.725 27.2001 36.2C27.8001 36.2 28.7001 36.35 29.2251 36.875Z" fill="#F39090"/>
<path d="M30.2752 43.325C30.2752 42.575 29.9752 41.9 29.5252 41.45C29.0002 40.925 28.3252 40.625 27.6502 40.625C26.1502 40.625 24.9502 41.825 24.9502 43.325C24.9502 44.825 26.1502 46.025 27.6502 46.025C29.0752 46.025 30.2752 44.825 30.2752 43.325ZM27.5752 44.525C26.9002 44.525 26.3752 44 26.3752 43.325C26.3752 42.65 26.9002 42.125 27.5752 42.125C27.8752 42.125 28.1752 42.275 28.4002 42.5C28.6252 42.725 28.7752 43.025 28.7752 43.325C28.7752 44 28.2502 44.525 27.5752 44.525Z" fill="#F39090"/>
<path d="M35.825 41.45C35.3 40.925 34.625 40.625 33.95 40.625C32.45 40.625 31.25 41.825 31.25 43.325C31.25 44.075 31.55 44.75 32 45.2C32.525 45.725 33.2 46.025 33.875 46.025C35.375 46.025 36.575 44.825 36.575 43.325C36.575 42.65 36.275 41.975 35.825 41.45ZM33.875 44.525C33.575 44.525 33.275 44.375 33.05 44.15C32.825 43.925 32.675 43.625 32.675 43.325C32.675 42.65 33.2 42.125 33.875 42.125C34.175 42.125 34.475 42.275 34.7 42.5C34.925 42.725 35.075 43.025 35.075 43.325C35.075 44 34.55 44.525 33.875 44.525Z" fill="#F39090"/>
<path d="M30.7249 46.1001C29.2249 46.1001 28.0249 47.3001 28.0249 48.8001C28.0249 50.3001 29.2249 51.5001 30.7249 51.5001C32.2249 51.5001 33.4249 50.3001 33.4249 48.8001C33.4249 47.3001 32.2249 46.1001 30.7249 46.1001ZM30.7249 49.9251C30.0499 49.9251 29.5249 49.4001 29.5249 48.7251C29.5249 48.0501 30.0499 47.5251 30.7249 47.5251C31.3999 47.5251 31.9249 48.0501 31.9249 48.7251C31.9249 49.4001 31.3999 49.9251 30.7249 49.9251Z" fill="#F39090"/>
</svg>
