<svg width="55" height="61" viewBox="0 0 55 61" fill="none" xmlns="http://www.w3.org/2000/svg">
<path d="M6.5002 59.0001C6.0502 59.0001 5.7502 59.3001 5.7502 59.7501C5.7502 60.2001 6.0502 60.5001 6.5002 60.5001H19.7002C20.1502 60.5001 20.4502 60.2001 20.4502 59.7501C20.4502 59.3001 20.1502 59.0001 19.7002 59.0001H13.8502V32.9751C18.1252 32.8251 21.2752 31.4001 23.1502 28.6251C28.0252 21.6501 23.3752 8.9001 23.1502 8.3751C23.0752 8.0751 22.7752 7.8501 22.4752 7.8501H3.7252C3.4252 7.8501 3.12521 8.0751 3.05021 8.3751C2.82521 8.9001 -1.74979 21.6501 3.20021 28.6251C5.1502 31.4001 8.2252 32.8251 12.4252 32.9751V59.0001H6.5002ZM4.25021 9.2751H21.9502C22.3252 10.4751 23.3752 13.7751 23.7502 17.5251C22.7752 17.9001 21.5002 18.2751 19.6252 18.2751C17.0002 18.2751 15.6502 17.6001 14.2252 16.9251C12.6502 16.1751 11.0752 15.4251 8.1502 15.4251C5.6002 15.4251 4.0252 16.0251 2.60021 16.6251C2.97521 13.3251 3.87521 10.4001 4.25021 9.2751ZM4.32521 27.7251C2.52521 25.1751 2.22521 21.7251 2.37521 18.4251L2.60021 18.2751C4.0252 17.6001 5.4502 16.9251 8.0002 16.9251C10.6252 16.9251 11.9752 17.6001 13.4002 18.2751C14.9752 19.0251 16.5502 19.7751 19.4752 19.7751C21.3502 19.7751 22.6252 19.4751 23.6752 19.1001C23.8252 22.1751 23.3752 25.4001 21.8002 27.7251C20.0752 30.2001 17.1502 31.4751 13.0252 31.4751C9.0502 31.4751 6.1252 30.2001 4.32521 27.7251Z" fill="#F39090"/>
<path d="M50.8248 30.275C57.5748 21.35 52.0998 1.85 51.8748 1.025C51.7998 0.725 51.4998 0.5 51.1248 0.5H31.1748C30.8748 0.5 30.5748 0.725 30.4248 1.025C30.1998 1.85 24.7998 21.275 31.5498 30.2C33.5748 32.9 36.5748 34.325 40.3248 34.55V59H33.5748C33.1248 59 32.8248 59.3 32.8248 59.75C32.8248 60.2 33.1248 60.5 33.5748 60.5H48.6498C49.0998 60.5 49.3998 60.2 49.3998 59.75C49.3998 59.3 49.0998 59 48.6498 59H41.8998V34.625C45.7248 34.4 48.7248 32.975 50.8248 30.275ZM31.7748 2H50.5248C50.8998 3.275 51.7248 6.8 52.2498 11C51.1998 11.375 49.9248 11.75 47.8998 11.75C45.1998 11.75 43.7748 11.15 42.2748 10.55C40.6998 9.875 39.0498 9.2 36.0498 9.2C33.2748 9.2 31.6998 9.8 30.1998 10.4C30.7248 6.425 31.4748 3.2 31.7748 2ZM32.8248 29.375C29.5998 25.1 29.4498 18.05 29.9748 12.05L30.4248 11.9C31.9248 11.3 33.3498 10.625 36.0498 10.625C38.7498 10.625 40.1748 11.225 41.6748 11.825C43.2498 12.5 44.8998 13.175 47.8998 13.175C49.9248 13.175 51.3498 12.875 52.3998 12.5C52.9998 18.35 52.6998 25.175 49.6248 29.375C47.7498 31.85 44.8998 33.125 41.2248 33.125C37.5498 33.125 34.6998 31.85 32.8248 29.375Z" fill="#F39090"/>
</svg>
