<svg width="59" height="37" viewBox="0 0 59 37" fill="none" xmlns="http://www.w3.org/2000/svg">
<path d="M58.3299 18.2001L48.5349 0.965079C48.3847 0.717957 48.1473 0.53616 47.8696 0.455618C47.5918 0.375075 47.294 0.401646 47.0349 0.530079L42.5349 3.09508C42.2673 3.24907 42.0713 3.50262 41.9898 3.80046C41.9084 4.09831 41.9479 4.41628 42.0999 4.68508L42.9999 6.50008C42.3642 6.93665 41.5898 7.12356 40.8249 7.02508C40.1136 6.91939 39.4115 6.75891 38.7249 6.54508C35.4249 5.66008 29.9199 4.16008 24.5199 6.54508C23.4875 6.97535 22.5304 7.56782 21.6849 8.30008C21.1899 8.30008 20.1849 8.12008 19.1499 7.97008C18.0845 7.54265 17.1192 6.89913 16.3149 6.08008L16.9449 4.97008C17.0969 4.70128 17.1364 4.38331 17.055 4.08546C16.9735 3.78762 16.7776 3.53407 16.5099 3.38008L12.0099 0.815078C11.877 0.739039 11.7301 0.690553 11.5781 0.672513C11.426 0.654473 11.2719 0.667249 11.1249 0.710078C10.9765 0.746713 10.8374 0.813584 10.716 0.906503C10.5947 0.999423 10.4939 1.11639 10.4199 1.25008L0.654899 18.5001C0.57886 18.633 0.530375 18.7798 0.512335 18.9319C0.494294 19.084 0.50707 19.2381 0.549899 19.3851C0.586533 19.5334 0.653404 19.6726 0.746324 19.7939C0.839244 19.9153 0.956211 20.0161 1.0899 20.0901L5.5899 22.6551C5.76319 22.7549 5.95995 22.8066 6.1599 22.8051C6.26439 22.8197 6.37041 22.8197 6.4749 22.8051C6.62325 22.7685 6.76244 22.7016 6.88376 22.6087C7.00507 22.5157 7.10589 22.3988 7.1799 22.2651L8.2449 20.4051C9.12822 21.5701 10.0852 22.6773 11.1099 23.7201L10.8699 24.0651C10.5198 24.5667 10.3313 25.1634 10.3299 25.7751C10.3304 26.2497 10.4435 26.7175 10.6599 27.1399C10.8764 27.5624 11.1899 27.9274 11.5749 28.2051C12.0696 28.5707 12.6698 28.7655 13.2849 28.7601H13.4049C13.3596 29.0584 13.3596 29.3618 13.4049 29.6601C13.5425 30.4346 13.9788 31.1241 14.6199 31.5801C15.1161 31.9428 15.7153 32.1373 16.3299 32.1351C16.635 32.1361 16.9385 32.0906 17.2299 32.0001C17.3135 32.427 17.4891 32.8307 17.7443 33.1831C17.9995 33.5354 18.3283 33.8281 18.7078 34.0407C19.0874 34.2533 19.5087 34.3808 19.9425 34.4144C20.3762 34.448 20.8121 34.3868 21.2199 34.2351C21.3912 34.9314 21.8063 35.5434 22.3899 35.9601C22.8879 36.3175 23.487 36.5067 24.0999 36.5001H24.6099C24.9939 36.4385 25.3616 36.3006 25.6914 36.0945C26.0212 35.8884 26.3063 35.6183 26.5299 35.3001V35.2101C28.2338 36.105 30.1126 36.6169 32.0349 36.7101C32.7056 36.703 33.3702 36.5813 33.9999 36.3501C35.0688 36.0225 35.9676 35.2905 36.5049 34.3101H36.9999C37.8399 34.3155 38.6615 34.0643 39.3549 33.5901C40.1579 33.0155 40.7234 32.1673 40.9449 31.2051C41.8813 31.1059 42.7474 30.6622 43.3749 29.9601C43.844 29.4291 44.1966 28.8057 44.4099 28.1301C44.9921 28.0779 45.5579 27.9088 46.0733 27.6331C46.5888 27.3573 47.0434 26.9805 47.4099 26.5251C47.6427 26.1676 47.8012 25.7669 47.8759 25.3468C47.9507 24.9268 47.9401 24.496 47.8449 24.0801C47.7688 23.736 47.6371 23.4067 47.4549 23.1051C48.8239 22.4572 50.0327 21.5147 50.9949 20.3451L51.8649 21.8451C52.0181 22.1153 52.2712 22.3146 52.5699 22.4001C52.6744 22.4147 52.7804 22.4147 52.8849 22.4001C53.0839 22.3947 53.279 22.3434 53.4549 22.2501L57.9549 19.6851C58.2252 19.5319 58.4245 19.2787 58.5099 18.9801C58.5462 18.7069 58.4822 18.4298 58.3299 18.2001ZM7.5399 18.5001L6.0399 21.0351L2.1249 18.9201L11.6049 2.28508L15.5199 4.52008L7.5399 18.5001ZM14.4999 26.5701C14.2674 26.872 13.9287 27.0742 13.5526 27.1354C13.1765 27.1967 12.7912 27.1126 12.4749 26.9001C12.1665 26.6694 11.9586 26.3289 11.8944 25.9491C11.8302 25.5693 11.9145 25.1794 12.1299 24.8601L12.6699 24.0801L13.3599 23.1201C13.591 22.8075 13.9344 22.5969 14.3177 22.5325C14.7011 22.4682 15.0944 22.5551 15.4149 22.7751C15.6973 22.9821 15.8984 23.2814 15.9834 23.6211C16.0683 23.9608 16.0317 24.3195 15.8799 24.6351L14.4999 26.5701ZM17.7399 29.6751L17.5449 29.9451C17.4552 30.1497 17.321 30.3317 17.152 30.4778C16.983 30.6239 16.7835 30.7305 16.5681 30.7896C16.3526 30.8487 16.1267 30.859 15.9068 30.8196C15.6869 30.7803 15.4785 30.6923 15.297 30.5621C15.1154 30.432 14.9652 30.2629 14.8574 30.0672C14.7495 29.8716 14.6867 29.6543 14.6736 29.4313C14.6605 29.2083 14.6973 28.9851 14.7814 28.7782C14.8656 28.5712 14.9949 28.3857 15.1599 28.2351L15.6999 27.5001L16.9299 25.7751L18.5499 23.4951C18.6529 23.3262 18.7882 23.1793 18.9482 23.0629C19.1081 22.9465 19.2895 22.8629 19.4819 22.8169C19.6743 22.7708 19.8739 22.7634 20.0692 22.7948C20.2645 22.8262 20.4517 22.896 20.6199 23.0001C20.7808 23.11 20.9172 23.252 21.0205 23.4172C21.1237 23.5825 21.1917 23.7673 21.2199 23.9601C21.2801 24.3443 21.1887 24.7369 20.9649 25.0551L20.4249 25.8201L17.7399 29.6751ZM21.7149 31.7451L21.3549 32.2401C21.2639 32.4456 21.1279 32.6279 20.957 32.7738C20.786 32.9197 20.5845 33.0252 20.3672 33.0827C20.15 33.1402 19.9226 33.1482 19.7019 33.106C19.4812 33.0639 19.2728 32.9726 19.092 32.8391C18.9113 32.7056 18.7629 32.5331 18.6577 32.3345C18.5526 32.1359 18.4934 31.9162 18.4845 31.6917C18.4757 31.4672 18.5174 31.2435 18.6066 31.0373C18.6958 30.831 18.8302 30.6474 18.9999 30.5001L21.6849 26.7201C21.8683 26.5109 22.1062 26.3567 22.3721 26.2749C22.638 26.1932 22.9214 26.1869 23.1907 26.257C23.4599 26.327 23.7044 26.4705 23.8967 26.6715C24.0891 26.8725 24.2217 27.123 24.2799 27.3951C24.3176 27.5852 24.3143 27.7813 24.2704 27.9701C24.2264 28.1589 24.1427 28.3361 24.0249 28.4901L23.1249 29.7651L21.7149 31.7451ZM26.7549 32.3301L25.8099 33.6351L25.6899 33.8151L25.3149 34.3251C25.0793 34.5674 24.7689 34.723 24.4338 34.7668C24.0988 34.8106 23.7587 34.74 23.4688 34.5664C23.1789 34.3928 22.9561 34.1264 22.8365 33.8103C22.7169 33.4943 22.7076 33.1471 22.8099 32.8251L22.9299 32.6301L24.3549 30.6351C24.5895 30.3355 24.9292 30.1363 25.3052 30.0779C25.6812 30.0194 26.0654 30.106 26.3799 30.3201C26.6925 30.5512 26.9031 30.8946 26.9675 31.2779C27.0318 31.6612 26.9449 32.0546 26.7249 32.3751L26.7549 32.3301ZM46.1049 25.7301C45.5319 26.3222 44.7532 26.6713 43.9299 26.7051L35.0649 21.1551C34.8977 21.048 34.6949 21.0115 34.5009 21.0537C34.3069 21.0958 34.1375 21.2132 34.0299 21.3801C33.9755 21.4631 33.9385 21.5564 33.9211 21.6541C33.9037 21.7519 33.9063 21.8521 33.9287 21.9489C33.9512 22.0456 33.993 22.1368 34.0516 22.2169C34.1102 22.297 34.1845 22.3644 34.2699 22.4151L42.9099 27.8451C42.756 28.2785 42.5162 28.6765 42.2049 29.0151C41.9789 29.2541 41.707 29.4451 41.4054 29.5765C41.1038 29.708 40.7789 29.7772 40.4499 29.7801L32.6199 25.4001C32.4449 25.3026 32.2383 25.2787 32.0456 25.3335C31.8529 25.3884 31.6899 25.5175 31.5924 25.6926C31.4949 25.8676 31.471 26.0742 31.5259 26.2669C31.5807 26.4596 31.7099 26.6226 31.8849 26.7201L39.3849 30.9051C39.2545 31.5115 38.9012 32.0468 38.3949 32.4051C38.0731 32.6163 37.7106 32.7575 37.3307 32.8196C36.9508 32.8816 36.5621 32.863 36.1899 32.7651H36.0999C36.0536 32.7207 36.0034 32.6806 35.9499 32.6451L29.9499 29.6451C29.7751 29.5723 29.5792 29.5683 29.4016 29.634C29.2239 29.6996 29.0777 29.83 28.9923 29.999C28.9068 30.168 28.8885 30.3631 28.9409 30.5451C28.9933 30.727 29.1126 30.8825 29.2749 30.9801L35.0199 33.8751C34.6594 34.4069 34.1314 34.8029 33.5199 35.0001C31.4569 35.3732 29.3285 34.9954 27.5199 33.9351L27.9999 33.2001C28.4551 32.5559 28.6384 31.7584 28.5099 30.9801C28.3894 30.316 28.0484 29.7119 27.5422 29.2655C27.0359 28.8191 26.3939 28.5565 25.7199 28.5201C25.855 28.0679 25.8858 27.5909 25.8099 27.1251C25.676 26.3529 25.2453 25.6638 24.6099 25.2051C24.0685 24.8191 23.4143 24.6239 22.7499 24.6501C22.7947 24.3618 22.7947 24.0684 22.7499 23.7801C22.6412 23.2076 22.3681 22.6791 21.9639 22.2593C21.5598 21.8394 21.0421 21.5464 20.4742 21.4159C19.9062 21.2855 19.3126 21.3233 18.7657 21.5247C18.2189 21.7261 17.7426 22.0824 17.3949 22.5501L17.2599 22.7301C17.0542 22.2629 16.7216 21.8628 16.2999 21.5751C15.6567 21.1259 14.863 20.9466 14.0892 21.0756C13.3153 21.2046 12.6227 21.6316 12.1599 22.2651L12.0399 22.4151C10.9651 21.3112 9.96295 20.1387 9.0399 18.9051L15.5799 7.41508C16.5401 8.36927 17.7118 9.0836 18.9999 9.50008L20.4999 9.71008C19.718 10.7189 19.1652 11.886 18.8799 13.1301C18.7466 13.6847 18.7579 14.2642 18.9129 14.8132C19.0679 15.3621 19.3612 15.8621 19.7649 16.2651C20.1497 16.6541 20.626 16.9404 21.1501 17.0976C21.6743 17.2549 22.2295 17.2781 22.7649 17.1651C23.9084 16.9334 24.9365 16.3134 25.6749 15.4101L27.1749 13.4151L29.2899 12.8601C35.2026 15.5057 40.6718 19.0473 45.5049 23.3601H45.5949C45.6385 23.4118 45.6889 23.4572 45.7449 23.4951C46.0505 23.7199 46.2595 24.0523 46.3299 24.4251C46.3819 24.6466 46.3888 24.8763 46.3501 25.1005C46.3115 25.3247 46.2281 25.5388 46.1049 25.7301ZM46.2999 21.9951C41.3574 17.6005 35.7538 14.0115 29.6949 11.3601C29.5565 11.33 29.4133 11.33 29.2749 11.3601C29.1754 11.3459 29.0744 11.3459 28.9749 11.3601L26.6499 11.9751C26.4014 12.0463 26.1812 12.1931 26.0199 12.3951L24.5199 14.4651C23.9907 15.0922 23.2676 15.525 22.4649 15.6951C22.1704 15.7571 21.8651 15.7443 21.5768 15.6578C21.2886 15.5713 21.0266 15.4139 20.8149 15.2001C20.5911 14.973 20.4283 14.6931 20.3418 14.3862C20.2552 14.0794 20.2477 13.7556 20.3199 13.4451C20.651 11.99 21.4269 10.6741 22.5399 9.68008C23.3467 8.96346 24.2634 8.38104 25.2549 7.95508C30.1449 5.81008 35.3499 7.22008 38.4549 8.06008C39.224 8.30018 40.0117 8.47579 40.8099 8.58508C41.8629 8.69717 42.9224 8.44289 43.8099 7.86508L50.1399 18.9951C49.1678 20.3427 47.83 21.3837 46.2849 21.9951H46.2999ZM52.9599 20.8851L51.5499 18.4101L44.9349 6.78508L43.5099 4.28008L47.4099 2.00008L56.8599 18.6501L52.9599 20.8851Z" fill="#F39090"/>
</svg>
