<svg width="61" height="61" viewBox="0 0 61 61" fill="none" xmlns="http://www.w3.org/2000/svg">
<path d="M59.75 29.5156H57.4905V23.0549C57.4905 20.5156 56.5208 18.0635 54.8311 16.3284C53.271 14.7266 52.4119 12.645 52.4119 10.4675V6.36212C52.8546 6.0871 53.1523 5.60022 53.1523 5.04175V2.05786C53.1523 1.19873 52.4536 0.5 51.5945 0.5H46.5869C45.7278 0.5 45.0291 1.19873 45.0291 2.05786V5.04175C45.0291 5.66357 45.3976 6.19714 45.9255 6.4469V10.1892C45.9255 12.478 45.0364 14.6643 43.4866 16.1885C41.7104 17.9346 40.6917 20.438 40.6917 23.0549V29.5156H38.865V23.0549C38.865 20.5149 37.8953 18.0627 36.2056 16.3284C34.6462 14.7266 33.7871 12.645 33.7871 10.4675V6.36212C34.2298 6.0871 34.5276 5.60022 34.5276 5.04175V2.05786C34.5276 1.19873 33.8289 0.5 32.9697 0.5H27.9622C27.103 0.5 26.4043 1.19873 26.4043 2.05786V5.04175C26.4043 5.66321 26.7725 6.19659 27.3 6.44644V10.1892C27.3 12.478 26.4116 14.6643 24.8618 16.1885C23.085 17.9353 22.0662 20.438 22.0662 23.0549V29.5156H20.2402V23.0549C20.2402 20.5156 19.2705 18.0635 17.5808 16.3284C16.0208 14.7266 15.1616 12.645 15.1616 10.4675V6.36221C15.6042 6.08719 15.9021 5.6004 15.9021 5.04175V2.05786C15.9021 1.19873 15.2034 0.5 14.345 0.5H9.3374C8.47827 0.5 7.77954 1.19873 7.77954 2.05786V5.04175C7.77954 5.66321 8.14777 6.19659 8.67529 6.44644V10.1892C8.67529 12.478 7.78613 14.6643 6.23633 16.1885C4.46021 17.9346 3.44141 20.438 3.44141 23.0549V29.5156H1.25C0.835449 29.5156 0.5 29.8511 0.5 30.2656V41.627C0.5 42.0415 0.835449 42.377 1.25 42.377H2.91626V47.5186H1.25C0.835449 47.5186 0.5 47.854 0.5 48.2686V59.6299C0.5 60.0444 0.835449 60.3799 1.25 60.3799H59.75C60.1646 60.3799 60.5 60.0444 60.5 59.6299V48.2686C60.5 47.854 60.1646 47.5186 59.75 47.5186H58.1174V42.377H59.75C60.1646 42.377 60.5 42.0415 60.5 41.627V30.2656C60.5 29.8511 60.1646 29.5156 59.75 29.5156ZM47.4255 10.0002V6.59961H50.9119V10.0002H47.4255ZM46.5291 2.05786C46.5291 2.02563 46.5547 2 46.5869 2H51.5945C51.6267 2 51.6523 2.02563 51.6523 2.05786V5.04175C51.6523 5.07397 51.6267 5.09961 51.5945 5.09961H46.5869C46.5547 5.09961 46.5291 5.07397 46.5291 5.04175V2.05786ZM44.5383 17.2578C46.0716 15.7503 47.0483 13.7013 47.3313 11.5002H50.9699C51.2028 13.6894 52.1694 15.7454 53.7559 17.3743C54.8618 18.5099 55.594 20.0183 55.8667 21.6458H42.3159C42.5968 19.9601 43.3679 18.4087 44.5383 17.2578ZM42.1917 23.1458H55.9905V29.5156H42.1917V23.1458ZM28.8 10.0002V6.59961H32.2871V10.0002H28.8ZM27.9043 2.05786C27.9043 2.02563 27.9299 2 27.9622 2H32.9697C33.002 2 33.0276 2.02563 33.0276 2.05786V5.04175C33.0276 5.07397 33.002 5.09961 32.9697 5.09961H27.9622C27.9299 5.09961 27.9043 5.07397 27.9043 5.04175V2.05786ZM25.9136 17.2578C27.4468 15.7503 28.423 13.701 28.7058 11.5002H32.3452C32.5781 13.6895 33.5446 15.7455 35.1311 17.375C36.2366 18.5095 36.9687 20.0179 37.2413 21.6458H23.6904C23.9714 19.9605 24.7426 18.4092 25.9136 17.2578ZM23.5662 23.1458H37.365V29.5156H23.5662V23.1458ZM10.1753 10.0002V6.59961H13.6616V10.0002H10.1753ZM9.27954 2.05786C9.27954 2.02563 9.30518 2 9.3374 2H14.345C14.3765 2 14.4021 2.02563 14.4021 2.05786V5.04175C14.4021 5.07397 14.3765 5.09961 14.345 5.09961H9.3374C9.30518 5.09961 9.27954 5.07397 9.27954 5.04175V2.05786ZM7.28809 17.2578C8.82132 15.7503 9.7981 13.7013 10.0811 11.5002H13.7197C13.9526 13.6894 14.9191 15.7454 16.5056 17.3743C17.6115 18.5099 18.3437 20.0183 18.6165 21.6458H5.06564C5.34653 19.9601 6.11763 18.4087 7.28809 17.2578ZM4.94141 23.1458H18.7402V29.5156H4.94141V23.1458ZM59 58.8799H2V49.0186H59V58.8799ZM56.6174 47.5186H4.41626V42.377H56.6174V47.5186ZM59 40.877H2V31.0156H59V40.877Z" fill="#F39090"/>
</svg>
