<svg width="24" height="25" viewBox="0 0 24 25" fill="none" xmlns="http://www.w3.org/2000/svg">
<path fill-rule="evenodd" clip-rule="evenodd" d="M6.54 5.98572C6.6 6.87572 6.75 7.74572 6.99 8.57572L5.79 9.77572C5.38 8.57572 5.12 7.30572 5.03 5.98572H6.54ZM16.4 17.9976C17.25 18.2376 18.12 18.3876 19 18.4476V19.9376C17.68 19.8476 16.41 19.5876 15.2 19.1876L16.4 17.9976ZM7.5 3.98572H4C3.45 3.98572 3 4.4355 3 4.98524C3 14.3708 10.61 21.9771 20 21.9771C20.55 21.9771 21 21.5274 21 20.9776V17.4893C21 16.9395 20.55 16.4898 20 16.4898C18.76 16.4898 17.55 16.2899 16.43 15.92C16.33 15.8801 16.22 15.8701 16.12 15.8701C15.86 15.8701 15.61 15.97 15.41 16.1599L13.21 18.3589C10.38 16.9096 8.06 14.6007 6.62 11.772L8.82 9.57306C9.1 9.29319 9.18 8.90338 9.07 8.55354C8.7 7.43408 8.5 6.23465 8.5 4.98524C8.5 4.4355 8.05 3.98572 7.5 3.98572Z" fill="#1D1D1D"/>
</svg>
