<svg width="38" height="25" viewBox="0 0 38 25" fill="none" xmlns="http://www.w3.org/2000/svg">
<path d="M2.69259 0C1.22622 0 0 1.1981 0 2.67857V22.3214C0 23.8019 1.22622 25 2.69259 25H35.3074C36.7738 25 38 23.8019 38 22.3214V2.67857C38 1.1981 36.7738 0 35.3074 0H2.69259ZM3.14826 1.78571H34.8517L19.7733 15.4018C19.3973 15.7413 18.6028 15.7413 18.2267 15.4018L3.14826 1.78571ZM1.76744 2.92969L12.8001 12.8906L1.76744 22.1261V2.92969ZM36.2326 2.92969V22.1261L25.1999 12.8906L36.2326 2.92969ZM14.1395 14.1043L17.0531 16.7271C18.158 17.7248 19.842 17.7248 20.9469 16.7271L23.8605 14.1043L34.7551 23.2143H3.24491L14.1395 14.1043Z" fill="black"/>
</svg>
