<svg width="334" height="147" viewBox="0 0 334 147" fill="none" xmlns="http://www.w3.org/2000/svg">
<path fill-rule="evenodd" clip-rule="evenodd" d="M214.333 1L167.014 48.6261L119.229 1V97.4971H214.333V2.86468V1ZM211.157 95.6324L204.098 88.5383L197.004 95.6324H211.157ZM212.468 94.306V80.169L205.417 87.2197L212.468 94.306ZM212.468 77.5319V61.5222L196.116 77.873L204.102 85.8979L212.468 77.5319ZM212.468 58.8851V42.8754L186.816 68.5262L194.801 76.5512L212.468 58.8851ZM212.468 40.2383V24.2286L177.515 59.1795L185.501 67.2044L212.468 40.2383ZM212.468 21.5915V5.58982L168.33 49.9479L176.2 57.8576L212.468 21.5915ZM121.094 5.1213V21.5114L121.287 21.3184L157.828 57.8576L165.699 49.9479L121.094 5.1213ZM121.094 23.7624V40.1581L121.287 39.9651L148.528 67.2044L156.513 59.1795L121.094 23.7624ZM121.094 42.4092V58.8049L121.287 58.6119L139.227 76.5512L147.213 68.5262L121.094 42.4092ZM121.094 61.056V77.4517L121.287 77.2587L129.927 85.8979L137.912 77.873L121.094 61.056ZM121.094 79.7028L128.612 87.2197L121.094 94.7745V79.7028ZM122.871 95.6324L129.93 88.5383L137.025 95.6324H122.871ZM141.061 95.6324L148.367 88.3269L155.672 95.6324H141.061ZM159.708 95.6324L167.014 88.3269L174.32 95.6324H159.708ZM178.356 95.6324L185.662 88.3269L192.968 95.6324H178.356ZM194.986 95.0133L202.783 87.2164L194.798 79.1915L186.981 87.0084L194.986 95.0133ZM185.497 69.8448L193.482 77.8697L185.662 85.6899L177.657 77.685L185.497 69.8448ZM176.338 95.0133L184.343 87.0084L176.338 79.0035L168.333 87.0084L176.338 95.0133ZM184.182 68.5229L176.338 76.3665L168.333 68.3616L176.197 60.498L184.182 68.5229ZM175.019 77.685L167.014 69.6801L159.009 77.685L167.014 85.6899L175.019 77.685ZM174.882 59.1762L167.014 67.0431L159.147 59.1762L167.014 51.2697L174.882 59.1762ZM165.696 68.3616L157.832 60.498L149.846 68.5229L157.69 76.3665L165.696 68.3616ZM140.546 77.8697L148.531 69.8448L156.372 77.685L148.367 85.6899L140.546 77.8697ZM149.685 87.0084L157.69 79.0035L165.696 87.0084L157.69 95.0133L149.685 87.0084ZM139.043 95.0133L147.048 87.0084L139.231 79.1915L131.245 87.2164L139.043 95.0133Z" fill="black" stroke="black" stroke-width="0.3"/>
<path d="M15.1471 127.442H17.6716V146.402H14.9435V131.65L9.10725 138.979H8.60507L2.71453 131.65V146.402H0V127.442H2.55166L8.86295 135.233L15.1471 127.442Z" fill="black"/>
<path d="M36.376 127.171C39.3077 127.171 41.7463 128.098 43.6917 129.953C45.6461 131.808 46.6234 134.133 46.6234 136.929C46.6234 139.725 45.6371 142.041 43.6645 143.878C41.701 145.706 39.2218 146.62 36.2267 146.62C33.3674 146.62 30.9832 145.706 29.0739 143.878C27.1738 142.041 26.2237 139.743 26.2237 136.983C26.2237 134.151 27.1828 131.808 29.1011 129.953C31.0193 128.098 33.4443 127.171 36.376 127.171ZM36.4846 129.75C34.313 129.75 32.5259 130.428 31.1234 131.785C29.7299 133.143 29.0332 134.875 29.0332 136.983C29.0332 139.028 29.7345 140.729 31.137 142.087C32.5395 143.444 34.2949 144.122 36.4032 144.122C38.5205 144.122 40.2849 143.43 41.6965 142.046C43.1171 140.661 43.8274 138.938 43.8274 136.875C43.8274 134.866 43.1171 133.179 41.6965 131.813C40.2849 130.437 38.5476 129.75 36.4846 129.75Z" fill="black"/>
<path d="M68.6124 127.442H71.3269V146.402H68.6124V138.151H57.9578V146.402H55.2433V127.442H57.9578V135.64H68.6124V127.442Z" fill="black"/>
<path d="M86.8689 127.334H88.7826L97.2656 146.402H94.4832L91.9586 140.784H83.8965L81.5077 146.402H78.7253L86.8689 127.334ZM90.8457 138.368L87.7918 131.5L84.9552 138.368H90.8457Z" fill="black"/>
<path d="M119.743 127.442H122.268V146.402H119.54V131.65L113.703 138.979H113.201L107.311 131.65V146.402H104.596V127.442H107.148L113.459 135.233L119.743 127.442Z" fill="black"/>
<path d="M146.754 127.442H149.279V146.402H146.55V131.65L140.714 138.979H140.212L134.322 131.65V146.402H131.607V127.442H134.159L140.47 135.233L146.754 127.442Z" fill="black"/>
<path d="M158.672 127.442H169.422V129.858H161.387V135.64H169.15V138.069H161.387V143.959H169.68V146.375H158.672V127.442Z" fill="black"/>
<path d="M177.892 146.375V127.442H184.285C186.864 127.442 188.904 127.831 190.406 128.61C191.908 129.379 193.103 130.514 193.99 132.016C194.876 133.518 195.32 135.156 195.32 136.929C195.32 138.196 195.075 139.408 194.587 140.566C194.098 141.725 193.401 142.742 192.497 143.62C191.574 144.525 190.501 145.208 189.28 145.67C188.565 145.95 187.909 146.14 187.312 146.24C186.715 146.33 185.574 146.375 183.891 146.375H177.892ZM184 129.858H180.607V143.959H184.081C185.439 143.959 186.493 143.869 187.244 143.688C187.995 143.498 188.619 143.263 189.117 142.982C189.624 142.693 190.085 142.34 190.501 141.924C191.84 140.566 192.51 138.852 192.51 136.78C192.51 134.744 191.822 133.084 190.447 131.799C189.94 131.319 189.357 130.926 188.696 130.618C188.045 130.311 187.425 130.107 186.837 130.007C186.249 129.908 185.303 129.858 184 129.858Z" fill="black"/>
<path d="M230.408 127.442H233.122V146.402H230.408V138.151H219.753V146.402H217.038V127.442H219.753V135.64H230.408V127.442Z" fill="black"/>
<path d="M248.664 127.334H250.578L259.061 146.402H256.278L253.754 140.784H245.692L243.303 146.402H240.52L248.664 127.334ZM252.641 138.368L249.587 131.5L246.75 138.368H252.641Z" fill="black"/>
<path d="M281.538 127.442H284.063V146.402H281.335V131.65L275.499 138.979H274.996L269.106 131.65V146.402H266.391V127.442H268.943L275.254 135.233L281.538 127.442Z" fill="black"/>
<path d="M292.479 127.415H308.821L296.7 143.987H308.821V146.402H291.706L303.853 129.831H292.479V127.415Z" fill="black"/>
<path d="M322.775 127.334H324.688L333.171 146.402H330.389L327.864 140.784H319.802L317.413 146.402H314.631L322.775 127.334ZM326.751 138.368L323.698 131.5L320.861 138.368H326.751Z" fill="black"/>
</svg>
