<svg width="157" height="70" viewBox="0 0 157 70" fill="none" xmlns="http://www.w3.org/2000/svg">
<path fill-rule="evenodd" clip-rule="evenodd" d="M101 0.541627L78.7021 22.9855L56.1846 0.541626V46.0161H101V1.42036V0.541627ZM99.5036 45.1374L96.1772 41.7942L92.8341 45.1374H99.5036ZM100.121 44.5123V37.8502L96.7986 41.1729L100.121 44.5123ZM100.121 36.6075V29.0628L92.4159 36.7682L96.1787 40.55L100.121 36.6075ZM100.121 27.8201V20.2755L88.0332 32.3635L91.7961 36.1453L100.121 27.8201ZM100.121 19.0328V11.4882L83.6506 27.9588L87.4134 31.7406L100.121 19.0328ZM100.121 10.2454V2.70459L79.3219 23.6084L83.0308 27.3359L100.121 10.2454ZM57.0633 2.4838V10.2077L57.1543 10.1167L74.3735 27.3359L78.0823 23.6084L57.0633 2.4838ZM57.0633 11.2685V18.995L57.1543 18.904L69.9908 31.7406L73.7537 27.9588L57.0633 11.2685ZM57.0633 20.0558V27.7823L57.1543 27.6914L65.6082 36.1453L69.371 32.3635L57.0633 20.0558ZM57.0633 28.8432V36.5697L57.1543 36.4787L61.2255 40.55L64.9884 36.7682L57.0633 28.8432ZM57.0633 37.6305L60.6057 41.1729L57.0633 44.7331V37.6305ZM57.9006 45.1374L61.2271 41.7942L64.5702 45.1374H57.9006ZM66.472 45.1374L69.9148 41.6946L73.3575 45.1374H66.472ZM75.2594 45.1374L78.7021 41.6946L82.1449 45.1374H75.2594ZM84.0467 45.1374L87.4895 41.6946L90.9322 45.1374H84.0467ZM91.8831 44.8456L95.5574 41.1713L91.7945 37.3896L88.1108 41.0733L91.8831 44.8456ZM87.4119 32.9849L91.1747 36.7667L87.4895 40.4519L83.7172 36.6796L87.4119 32.9849ZM83.0958 44.8456L86.8681 41.0733L83.0958 37.301L79.3235 41.0733L83.0958 44.8456ZM86.7921 32.362L83.0958 36.0583L79.3235 32.2859L83.0292 28.5802L86.7921 32.362ZM82.4744 36.6796L78.7021 32.9073L74.9298 36.6796L78.7021 40.4519L82.4744 36.6796ZM82.4094 27.9573L78.7021 31.6646L74.9948 27.9573L78.7021 24.2314L82.4094 27.9573ZM78.0808 32.2859L74.375 28.5802L70.6122 32.362L74.3085 36.0583L78.0808 32.2859ZM66.2295 36.7667L69.9924 32.9849L73.6871 36.6796L69.9148 40.4519L66.2295 36.7667ZM70.5361 41.0733L74.3085 37.301L78.0808 41.0733L74.3085 44.8456L70.5361 41.0733ZM65.5211 44.8456L69.2934 41.0733L65.6097 37.3896L61.8469 41.1713L65.5211 44.8456Z" fill="white" stroke="white" stroke-width="0.3"/>
<path d="M7.13775 60.1279H8.32737V69.0629H7.04181V62.1106L4.2916 65.5644H4.05496L1.27917 62.1106V69.0629H0V60.1279H1.20242L4.17648 63.7991L7.13775 60.1279Z" fill="white"/>
<path d="M17.1414 60C18.5229 60 19.6721 60.437 20.5888 61.3111C21.5098 62.1852 21.9703 63.2811 21.9703 64.5986C21.9703 65.9161 21.5055 67.0077 20.576 67.8733C19.6507 68.7346 18.4824 69.1652 17.0711 69.1652C15.7237 69.1652 14.6002 68.7346 13.7005 67.8733C12.8051 67.0077 12.3574 65.9247 12.3574 64.6242C12.3574 63.2896 12.8093 62.1852 13.7133 61.3111C14.6172 60.437 15.7599 60 17.1414 60ZM17.1926 61.2152C16.1693 61.2152 15.3272 61.535 14.6663 62.1746C14.0096 62.8142 13.6813 63.6307 13.6813 64.6242C13.6813 65.5878 14.0117 66.3894 14.6726 67.029C15.3335 67.6686 16.1607 67.9884 17.1542 67.9884C18.152 67.9884 18.9834 67.6622 19.6486 67.0098C20.318 66.3575 20.6528 65.5452 20.6528 64.573C20.6528 63.6264 20.318 62.8312 19.6486 62.1874C18.9834 61.5393 18.1648 61.2152 17.1926 61.2152Z" fill="white"/>
<path d="M32.3321 60.1279H33.6113V69.0629H32.3321V65.1742H27.3114V69.0629H26.0323V60.1279H27.3114V63.991H32.3321V60.1279Z" fill="white"/>
<path d="M40.9352 60.0767H41.837L45.8344 69.0629H44.5232L43.3336 66.415H39.5345L38.4088 69.0629H37.0976L40.9352 60.0767ZM42.8091 65.2766L41.3701 62.0403L40.0333 65.2766H42.8091Z" fill="white"/>
<path d="M56.4265 60.1279H57.6161V69.0629H56.3305V62.1106L53.5803 65.5644H53.3437L50.5679 62.1106V69.0629H49.2887V60.1279H50.4911L53.4652 63.7991L56.4265 60.1279Z" fill="white"/>
<path d="M69.1548 60.1279H70.3444V69.0629H69.0588V62.1106L66.3086 65.5644H66.072L63.2962 62.1106V69.0629H62.017V60.1279H63.2194L66.1935 63.7991L69.1548 60.1279Z" fill="white"/>
<path d="M74.7709 60.1279H79.8364V61.2664H76.0501V63.991H79.7085V65.1359H76.0501V67.9116H79.9579V69.0501H74.7709V60.1279Z" fill="white"/>
<path d="M83.828 69.0501V60.1279H86.8405C88.0557 60.1279 89.0172 60.3113 89.725 60.678C90.4328 61.0404 90.9956 61.5755 91.4135 62.2833C91.8314 62.9911 92.0403 63.7629 92.0403 64.5986C92.0403 65.1955 91.9252 65.7669 91.6949 66.3127C91.4647 66.8585 91.1363 67.3382 90.7099 67.7517C90.275 68.1781 89.7698 68.5001 89.1941 68.7175C88.8573 68.8497 88.5482 68.9392 88.2667 68.9861C87.9853 69.0288 87.4481 69.0501 86.655 69.0501H83.828ZM86.7062 61.2664H85.1072V67.9116H86.7445C87.3841 67.9116 87.8809 67.869 88.2348 67.7837C88.5887 67.6942 88.8829 67.5833 89.1174 67.4511C89.3562 67.3147 89.5736 67.1484 89.7698 66.9523C90.4008 66.3127 90.7163 65.5047 90.7163 64.5282C90.7163 63.5689 90.3923 62.7865 89.7442 62.181C89.5054 61.955 89.2304 61.7695 88.9191 61.6245C88.6121 61.4796 88.32 61.3836 88.0429 61.3367C87.7657 61.2898 87.3202 61.2664 86.7062 61.2664Z" fill="white"/>
<path d="M108.575 60.1279H109.854V69.0629H108.575V65.1742H103.554V69.0629H102.275V60.1279H103.554V63.991H108.575V60.1279Z" fill="white"/>
<path d="M117.178 60.0767H118.08L122.077 69.0629H120.766L119.576 66.415H115.777L114.651 69.0629H113.34L117.178 60.0767ZM119.052 65.2766L117.613 62.0403L116.276 65.2766H119.052Z" fill="white"/>
<path d="M132.669 60.1279H133.859V69.0629H132.573V62.1106L129.823 65.5644H129.586L126.81 62.1106V69.0629H125.531V60.1279H126.734L129.708 63.7991L132.669 60.1279Z" fill="white"/>
<path d="M137.825 60.1151H145.525L139.814 67.9244H145.525V69.0629H137.46L143.184 61.2536H137.825V60.1151Z" fill="white"/>
<path d="M152.101 60.0767H153.003L157 69.0629H155.689L154.499 66.415H150.7L149.574 69.0629H148.263L152.101 60.0767ZM153.975 65.2766L152.536 62.0403L151.199 65.2766H153.975Z" fill="white"/>
</svg>
