<svg width="33" height="42" viewBox="0 0 33 42" fill="none" xmlns="http://www.w3.org/2000/svg">
<path d="M16.4848 0C10.8508 0 6.30245 4.83057 6.30245 10.75C6.30245 12.1784 6.6669 13.791 7.10672 15C8.17193 17.3303 9.26079 19.6692 10.339 22H4.84566C4.33174 22.005 4.02353 22.3561 3.90482 22.7812L0.0200369 40.7812C-0.106262 41.3616 0.383273 41.9958 0.960882 42H32.0391C32.6167 41.995 33.1063 41.3616 32.98 40.7812L29.0952 22.7812C29 22.3443 28.5892 22.0032 28.1543 22H22.661C23.7339 19.6675 24.832 17.3309 25.8933 15C26.3364 13.7883 26.6975 12.1776 26.6975 10.75C26.6975 4.82764 22.1189 0 16.4848 0ZM16.4848 2C21.0428 2 24.7552 5.88155 24.7552 10.75C24.7552 11.8016 24.4264 13.3285 24.0723 14.2969L16.5 30.6563L8.92771 14.2969C8.57476 13.3266 8.24484 11.7997 8.24484 10.75C8.24484 5.87862 11.9269 2 16.4848 2ZM16.5 5.5C13.8296 5.5 11.644 7.75041 11.644 10.5C11.644 13.2496 13.8296 15.5 16.5 15.5C19.1704 15.5 21.356 13.2496 21.356 10.5C21.356 7.75041 19.1704 5.5 16.5 5.5ZM16.5 7.49999C18.1206 7.49999 19.4136 8.83129 19.4136 10.5C19.4136 12.1687 18.1206 13.5 16.5 13.5C14.8794 13.5 13.5864 12.1687 13.5864 10.5C13.5864 8.83129 14.8794 7.49999 16.5 7.49999ZM5.61958 24H11.2647L15.6199 33.4219C15.7751 33.7645 16.1328 34 16.5 34C16.8672 34 17.2249 33.7645 17.3801 33.4219L21.7353 24H27.3804L30.8403 40H2.1597L5.61958 24Z" fill="white"/>
</svg>
