<svg width="38" height="42" viewBox="0 0 38 42" fill="none" xmlns="http://www.w3.org/2000/svg">
<path d="M31.9551 12.09H30.228C29.0833 12.0886 27.9858 11.6332 27.1763 10.8238C26.3669 10.0143 25.9115 8.91686 25.9102 7.77212V0.863569C25.9102 0.634536 26.0011 0.414884 26.1631 0.252933C26.325 0.0909829 26.5447 0 26.7737 0C27.0028 0 27.2224 0.0909829 27.3844 0.252933C27.5463 0.414884 27.6373 0.634536 27.6373 0.863569V7.77212C27.6373 8.45922 27.9102 9.11817 28.3961 9.60402C28.8819 10.0899 29.5409 10.3628 30.228 10.3628H31.9551C32.1842 10.3628 32.4038 10.4538 32.5658 10.6158C32.7277 10.7777 32.8187 10.9974 32.8187 11.2264C32.8187 11.4554 32.7277 11.6751 32.5658 11.837C32.4038 11.999 32.1842 12.09 31.9551 12.09Z" fill="black"/>
<path d="M33.6822 41.4513H4.32083C3.74798 41.473 3.17682 41.3761 2.64313 41.1668C2.10945 40.9575 1.62475 40.6402 1.21939 40.2349C0.814035 39.8295 0.49676 39.3448 0.287445 38.8111C0.0781306 38.2775 -0.0187127 37.7063 0.00298276 37.1334V4.31784C0.00435398 3.1731 0.459709 2.07564 1.26916 1.26618C2.07862 0.456726 3.17608 0.00137122 4.32083 0L26.7736 0C27.0026 4.89103e-05 27.2222 0.0910639 27.3842 0.253026L37.747 10.6158C37.9089 10.7778 38 10.9974 38 11.2264V37.1334C37.9986 38.2782 37.5433 39.3757 36.7338 40.1851C35.9244 40.9946 34.8269 41.4499 33.6822 41.4513ZM4.32083 1.72714C3.63373 1.72714 2.97477 2.00009 2.48892 2.48594C2.00307 2.97179 1.73012 3.63075 1.73012 4.31784V37.1334C1.7117 37.4785 1.76609 37.8236 1.88977 38.1463C2.01345 38.4689 2.20364 38.7619 2.44798 39.0063C2.69233 39.2506 2.98536 39.4408 3.30802 39.5645C3.63068 39.6882 3.97576 39.7426 4.32083 39.7242H33.6822C34.3693 39.7242 35.0282 39.4512 35.5141 38.9654C35.9999 38.4795 36.2729 37.8205 36.2729 37.1334V11.5839L26.4161 1.72714H4.32083Z" fill="black"/>
<path d="M31.9552 34.5427H6.04814C5.81911 34.5427 5.59945 34.4517 5.4375 34.2898C5.27555 34.1278 5.18457 33.9082 5.18457 33.6791C5.18457 33.4501 5.27555 33.2304 5.4375 33.0685C5.59945 32.9065 5.81911 32.8156 6.04814 32.8156H31.9552C32.1842 32.8156 32.4039 32.9065 32.5658 33.0685C32.7278 33.2304 32.8188 33.4501 32.8188 33.6791C32.8188 33.9082 32.7278 34.1278 32.5658 34.2898C32.4039 34.4517 32.1842 34.5427 31.9552 34.5427Z" fill="black"/>
<path d="M13.8201 31.0885C13.5911 31.0885 13.3714 30.9975 13.2094 30.8356C13.0475 30.6736 12.9565 30.454 12.9565 30.2249V20.7257H10.3658V30.2249C10.3658 30.454 10.2748 30.6736 10.1129 30.8356C9.95092 30.9975 9.73127 31.0885 9.50224 31.0885C9.27321 31.0885 9.05356 30.9975 8.89161 30.8356C8.72965 30.6736 8.63867 30.454 8.63867 30.2249V19.8621C8.63867 19.6331 8.72965 19.4134 8.89161 19.2515C9.05356 19.0895 9.27321 18.9985 9.50224 18.9985H13.8201C14.0491 18.9985 14.2688 19.0895 14.4307 19.2515C14.5927 19.4134 14.6837 19.6331 14.6837 19.8621V30.2249C14.6837 30.454 14.5927 30.6736 14.4307 30.8356C14.2688 30.9975 14.0491 31.0885 13.8201 31.0885Z" fill="black"/>
<path d="M18.1375 31.0884C17.9084 31.0884 17.6888 30.9974 17.5268 30.8355C17.3649 30.6735 17.2739 30.4539 17.2739 30.2249V14.6806H14.6832V16.4078C14.6832 16.6368 14.5922 16.8565 14.4303 17.0184C14.2683 17.1804 14.0487 17.2713 13.8196 17.2713C13.5906 17.2713 13.3709 17.1804 13.209 17.0184C13.047 16.8565 12.9561 16.6368 12.9561 16.4078V13.8171C12.9561 13.588 13.047 13.3684 13.209 13.2064C13.3709 13.0445 13.5906 12.9535 13.8196 12.9535H18.1375C18.3665 12.9535 18.5862 13.0445 18.7481 13.2064C18.9101 13.3684 19.001 13.588 19.001 13.8171V30.2249C19.001 30.4539 18.9101 30.6735 18.7481 30.8355C18.5862 30.9974 18.3665 31.0884 18.1375 31.0884Z" fill="black"/>
<path d="M23.319 31.0885C23.09 31.0885 22.8703 30.9975 22.7084 30.8355C22.5464 30.6736 22.4555 30.4539 22.4555 30.2249V21.5892H20.7283C20.4993 21.5892 20.2796 21.4982 20.1177 21.3363C19.9557 21.1743 19.8647 20.9547 19.8647 20.7256C19.8647 20.4966 19.9557 20.2769 20.1177 20.115C20.2796 19.953 20.4993 19.8621 20.7283 19.8621H23.319C23.5481 19.8621 23.7677 19.953 23.9297 20.115C24.0916 20.2769 24.1826 20.4966 24.1826 20.7256V30.2249C24.1826 30.4539 24.0916 30.6736 23.9297 30.8355C23.7677 30.9975 23.5481 31.0885 23.319 31.0885Z" fill="black"/>
<path d="M28.5007 31.0884C28.2716 31.0884 28.052 30.9975 27.89 30.8355C27.7281 30.6736 27.6371 30.4539 27.6371 30.2249V26.7706H25.91C25.6809 26.7706 25.4613 26.6796 25.2993 26.5177C25.1374 26.3557 25.0464 26.1361 25.0464 25.907C25.0464 25.678 25.1374 25.4583 25.2993 25.2964C25.4613 25.1344 25.6809 25.0435 25.91 25.0435H28.5007C28.7297 25.0435 28.9493 25.1344 29.1113 25.2964C29.2732 25.4583 29.3642 25.678 29.3642 25.907V30.2249C29.3642 30.4539 29.2732 30.6736 29.1113 30.8355C28.9493 30.9975 28.7297 31.0884 28.5007 31.0884Z" fill="black"/>
</svg>
