<svg width="17" height="17" viewBox="0 0 17 17" fill="none" xmlns="http://www.w3.org/2000/svg">
<path d="M16.2892 5.21967C16.2518 4.36953 16.1143 3.78506 15.9173 3.27862C15.7142 2.74103 15.4016 2.25974 14.9921 1.85964C14.592 1.45331 14.1075 1.13757 13.5762 0.937582C13.0668 0.740645 12.4854 0.603166 11.6353 0.565684C10.7788 0.525026 10.5069 0.515625 8.33456 0.515625C6.16227 0.515625 5.89036 0.525026 5.03705 0.562509C4.18691 0.599992 3.60244 0.737592 3.09612 0.934408C2.55842 1.13757 2.07712 1.45013 1.67702 1.85964C1.27069 2.25974 0.955077 2.74421 0.754965 3.27556C0.558027 3.78506 0.420549 4.36635 0.383066 5.21649C0.342409 6.07298 0.333008 6.34489 0.333008 8.51719C0.333008 10.6895 0.342409 10.9614 0.379892 11.8147C0.417375 12.6648 0.554975 13.2493 0.751913 13.7558C0.955077 14.2933 1.27069 14.7746 1.67702 15.1747C2.07712 15.5811 2.56159 15.8968 3.09294 16.0968C3.60244 16.2937 4.18373 16.4312 5.034 16.4687C5.88719 16.5063 6.15921 16.5156 8.33151 16.5156C10.5038 16.5156 10.7757 16.5063 11.629 16.4687C12.4792 16.4312 13.0636 16.2937 13.57 16.0968C14.6452 15.6811 15.4954 14.8309 15.9111 13.7558C16.1079 13.2463 16.2455 12.6648 16.283 11.8147C16.3205 10.9614 16.3299 10.6895 16.3299 8.51719C16.3299 6.34489 16.3267 6.07298 16.2892 5.21967ZM14.8484 11.7522C14.814 12.5336 14.6827 12.9556 14.5733 13.2369C14.3045 13.9339 13.7513 14.4871 13.0542 14.756C12.7729 14.8654 12.3479 14.9966 11.5696 15.0309C10.7257 15.0685 10.4726 15.0778 8.33774 15.0778C6.20292 15.0778 5.94665 15.0685 5.10579 15.0309C4.32438 14.9966 3.90243 14.8654 3.62112 14.756C3.27425 14.6278 2.95852 14.4246 2.70224 14.1589C2.43657 13.8995 2.2334 13.5869 2.1052 13.24C1.99581 12.9587 1.86456 12.5336 1.83025 11.7554C1.79264 10.9115 1.78336 10.6582 1.78336 8.52341C1.78336 6.3886 1.79264 6.13232 1.83025 5.29158C1.86456 4.51018 1.99581 4.08822 2.1052 3.80692C2.2334 3.45993 2.43657 3.14431 2.70542 2.88791C2.96475 2.62224 3.27731 2.41907 3.6243 2.291C3.9056 2.1816 4.33073 2.05035 5.10896 2.01592C5.95288 1.97844 6.2061 1.96903 8.34079 1.96903C10.4788 1.96903 10.7319 1.97844 11.5727 2.01592C12.3541 2.05035 12.7761 2.1816 13.0574 2.291C13.4043 2.41907 13.72 2.62224 13.9763 2.88791C14.242 3.14736 14.4451 3.45993 14.5733 3.80692C14.6827 4.08822 14.814 4.51323 14.8484 5.29158C14.8859 6.1355 14.8953 6.3886 14.8953 8.52341C14.8953 10.6582 14.8859 10.9083 14.8484 11.7522Z" fill="#FDA9A4"/>
<path d="M8.33381 4.40723C6.06469 4.40723 4.22363 6.24816 4.22363 8.5174C4.22363 10.7866 6.06469 12.6276 8.33381 12.6276C10.6031 12.6276 12.444 10.7866 12.444 8.5174C12.444 6.24816 10.6031 4.40723 8.33381 4.40723ZM8.33381 11.1836C6.86172 11.1836 5.66764 9.98962 5.66764 8.5174C5.66764 7.04519 6.86172 5.85123 8.33381 5.85123C9.80602 5.85123 11 7.04519 11 8.5174C11 9.98962 9.80602 11.1836 8.33381 11.1836Z" fill="#FDA9A4"/>
<path d="M13.5667 4.24445C13.5667 4.77434 13.137 5.20399 12.607 5.20399C12.0771 5.20399 11.6475 4.77434 11.6475 4.24445C11.6475 3.71444 12.0771 3.28491 12.607 3.28491C13.137 3.28491 13.5667 3.71444 13.5667 4.24445Z" fill="#FDA9A4"/>
</svg>
