<svg width="19" height="19" viewBox="0 0 19 19" fill="none" xmlns="http://www.w3.org/2000/svg">
<path fill-rule="evenodd" clip-rule="evenodd" d="M0 1.89453C0 1.34225 0.447715 0.894531 1 0.894531H17.4553C18.0076 0.894531 18.4553 1.34225 18.4553 1.89453C18.4553 2.44682 18.0076 2.89453 17.4553 2.89453H1C0.447715 2.89453 0 2.44682 0 1.89453Z" fill="#383838"/>
<path fill-rule="evenodd" clip-rule="evenodd" d="M0 9.79053C0 9.23824 0.447715 8.79053 1 8.79053H10.3125C10.8648 8.79053 11.3125 9.23824 11.3125 9.79053C11.3125 10.3428 10.8648 10.7905 10.3125 10.7905H1C0.447715 10.7905 0 10.3428 0 9.79053Z" fill="#383838"/>
<path fill-rule="evenodd" clip-rule="evenodd" d="M0 17.6865C0 17.1342 0.447715 16.6865 1 16.6865H17.4553C18.0076 16.6865 18.4553 17.1342 18.4553 17.6865C18.4553 18.2388 18.0076 18.6865 17.4553 18.6865H1C0.447715 18.6865 0 18.2388 0 17.6865Z" fill="#383838"/>
</svg>
