<svg width="19" height="19" viewBox="0 0 19 22" fill="none" xmlns="http://www.w3.org/2000/svg">
<path fill-rule="evenodd" clip-rule="evenodd" d="M2.55713 8.0564V19.3429H16.126V8.0564H2.55713ZM1.55713 6.0564C1.00484 6.0564 0.557129 6.50411 0.557129 7.0564V20.3429C0.557129 20.8952 1.00484 21.3429 1.55713 21.3429H17.126C17.6783 21.3429 18.126 20.8952 18.126 20.3429V7.0564C18.126 6.50411 17.6783 6.0564 17.126 6.0564H1.55713Z" fill="#383838"/>
<path fill-rule="evenodd" clip-rule="evenodd" d="M5.35498 4.83202C5.35498 2.63031 7.13982 0.845459 9.34154 0.845459C11.5433 0.845459 13.3281 2.6303 13.3281 4.83202V9.88463C13.3281 10.4369 12.8804 10.8846 12.3281 10.8846C11.7758 10.8846 11.3281 10.4369 11.3281 9.88463V4.83202C11.3281 3.73487 10.4387 2.84546 9.34154 2.84546C8.2444 2.84546 7.35498 3.73487 7.35498 4.83202V9.88463C7.35498 10.4369 6.90727 10.8846 6.35498 10.8846C5.8027 10.8846 5.35498 10.4369 5.35498 9.88463V4.83202Z" fill="#383838"/>
</svg>
