<svg width="12" height="13" viewBox="0 0 12 13" fill="none" xmlns="http://www.w3.org/2000/svg">
  <path d="M11.9743 2.13221V10.6052C11.9743 10.7778 11.9403 10.9486 11.8743 11.1081C11.8083 11.2675 11.7115 11.4123 11.5895 11.5343C11.4675 11.6564 11.3226 11.7532 11.1632 11.8192C11.0038 11.8852 10.8329 11.9192 10.6603 11.9192C10.4878 11.9192 10.3169 11.8852 10.1575 11.8192C9.99806 11.7532 9.85321 11.6564 9.73119 11.5343C9.60917 11.4123 9.51238 11.2675 9.44635 11.1081C9.38032 10.9486 9.34633 10.7778 9.34633 10.6052V5.52121L2.25633 12.6112C2.13409 12.7344 1.98866 12.8322 1.82845 12.8989C1.66823 12.9657 1.49639 13 1.32283 13C1.14927 13 0.977425 12.9657 0.817208 12.8989C0.656991 12.8322 0.511569 12.7344 0.389328 12.6112C0.265969 12.489 0.168051 12.3435 0.101228 12.1832C0.0344049 12.0228 0 11.8509 0 11.6772C0 11.5035 0.0344049 11.3316 0.101228 11.1713C0.168051 11.011 0.265969 10.8655 0.389328 10.7432L7.44433 3.65321H2.32633C1.97801 3.65348 1.64383 3.51543 1.39725 3.26941C1.15067 3.02339 1.01186 2.68953 1.01133 2.34121C1.01133 1.57921 1.59933 0.991211 2.32633 0.991211H10.7983C11.0753 1.02621 11.3173 1.16421 11.5243 1.37121C11.8013 1.57921 11.9043 1.85621 11.9743 2.13221Z" fill="black"/>
</svg>
