<svg width="64" height="546" viewBox="0 0 64 546" fill="none" xmlns="http://www.w3.org/2000/svg">
<path d="M64 513.645C64 508.186 62.4219 501.946 58.8653 496.879C57.6782 495.32 55.3087 491.811 54.5173 491.034C47.4088 482.067 43.0608 471.155 43.0608 458.679L43.0608 327.762C43.0608 315.677 47.4088 304.374 54.5173 295.407C55.3087 294.625 57.6782 291.117 58.8653 289.558C62.4219 284.881 64 279.032 64 273.578C64 256.035 49.7783 242 32 242C14.2217 242 7.01592e-06 256.035 6.24908e-06 273.578C6.01069e-06 279.032 1.58284 285.272 5.13469 290.34C6.32658 291.898 8.6913 295.407 9.48272 296.184C16.5959 305.151 20.9392 316.063 20.9392 328.544L20.9392 459.461C20.9392 471.541 16.5912 482.844 9.48271 491.811C8.69129 492.593 6.3218 496.102 5.13468 497.661C1.58283 502.728 -4.02307e-06 508.577 -4.27855e-06 514.422C-5.04539e-06 531.965 14.2217 546 32 546C49.7783 545.218 64 531.184 64 513.645Z" fill="#D5DFFF"/>
<path d="M64 271.645C64 266.187 62.4219 259.946 58.8653 254.879C57.6782 253.32 55.3087 249.811 54.5173 249.034C47.4088 240.067 43.0608 229.155 43.0608 216.679L43.0608 85.7621C43.0608 73.6772 47.4088 62.3742 54.5173 53.4071C55.3087 52.6252 57.6782 49.1166 58.8653 47.5577C62.4219 42.8811 64 37.0317 64 31.578C64 14.0347 49.7783 -6.2165e-07 32 -1.39876e-06C14.2217 -2.17588e-06 7.01592e-06 14.0347 6.24908e-06 31.578C6.01069e-06 37.0317 1.58284 43.272 5.13469 48.3395C6.32658 49.8984 8.6913 53.407 9.48272 54.1841C16.5959 63.1512 20.9392 74.0634 20.9392 86.5439L20.9392 217.461C20.9392 229.541 16.5912 240.844 9.48271 249.811C8.69129 250.593 6.32181 254.102 5.13468 255.661C1.58283 260.728 -4.02307e-06 266.577 -4.27855e-06 272.422C-5.04539e-06 289.965 14.2217 304 32 304C49.7783 303.218 64 289.184 64 271.645Z" fill="#D5DFFF"/>
</svg>
