<svg width="60" height="69" viewBox="0 0 60 69" fill="none" xmlns="http://www.w3.org/2000/svg">
<path d="M17.508 13.7133L43.3308 13.7133C44.0783 13.7133 44.6843 14.3193 44.6843 15.0668L44.6843 65.6946C44.6843 66.4421 44.0783 67.0481 43.3308 67.0481L17.508 67.0481C16.7605 67.0481 16.1545 66.4421 16.1545 65.6946L16.1545 24.0803L16.1545 15.0668C16.1545 14.3193 16.7605 13.7133 17.508 13.7133Z" fill="white" stroke="#383838"/>
<path d="M21.0512 42.0619L40.9681 42.0619C41.7156 42.0619 42.3216 42.6679 42.3216 43.4154L42.3216 46.7956C42.3216 47.5431 41.7156 48.149 40.9681 48.149L21.0512 48.149C20.3037 48.149 19.6978 47.5431 19.6978 46.7956L19.6978 43.4154C19.6978 42.6679 20.3037 42.0619 21.0512 42.0619Z" stroke="#383838"/>
<path d="M20.3796 51.0114L28.648 51.0114" stroke="#383838" stroke-linecap="round"/>
<path d="M27.4661 45.1053L35.7344 45.1053" stroke="#383838" stroke-linecap="round"/>
<path d="M20.3796 53.3738L23.9232 53.3738" stroke="#383838" stroke-linecap="round"/>
<path d="M42.8216 32.1124V28.5688H19.1978L19.1978 32.1124H42.8216Z" fill="#FDA9A4"/>
<path d="M21.0512 25.0253V25.5253V25.0253ZM40.9681 25.0253V25.5253V25.0253ZM42.8216 26.8788H43.3216H42.8216ZM42.8216 37.3461H42.3216H42.8216ZM40.9681 39.1996V38.6996V39.1996ZM21.0512 39.1996V39.6996V39.1996ZM19.1978 37.3461H18.6978H19.1978ZM19.1978 26.8788L18.6978 26.8788L19.1978 26.8788ZM19.1978 32.1124H18.6978H19.1978ZM21.0512 25.5253L40.9681 25.5253V24.5253L21.0512 24.5253V25.5253ZM42.3216 26.8788V37.3461H43.3216V26.8788H42.3216ZM40.9681 38.6996L21.0512 38.6996V39.6996L40.9681 39.6996V38.6996ZM42.3216 37.3461C42.3216 38.0936 41.7156 38.6996 40.9681 38.6996V39.6996C42.2679 39.6996 43.3216 38.6459 43.3216 37.3461H42.3216ZM40.9681 25.5253C41.7156 25.5253 42.3216 26.1312 42.3216 26.8788H43.3216C43.3216 25.579 42.2679 24.5253 40.9681 24.5253V25.5253ZM21.0512 24.5253C19.7514 24.5253 18.6978 25.579 18.6978 26.8788L19.6978 26.8788C19.6978 26.1312 20.3037 25.5253 21.0512 25.5253V24.5253ZM21.0512 38.6996C20.3037 38.6996 19.6978 38.0936 19.6978 37.3461H18.6978C18.6978 38.6459 19.7514 39.6996 21.0512 39.6996V38.6996ZM19.1978 32.6124H42.8216V31.6124H19.1978V32.6124ZM19.1978 29.0688H42.8216V28.0688H19.1978V29.0688ZM19.6978 37.3461L19.6978 26.8788L18.6978 26.8788L18.6978 37.3461H19.6978ZM18.6978 26.8788L18.6978 28.5688H19.6978L19.6978 26.8788L18.6978 26.8788ZM43.3216 28.5688V26.8788H42.3216V28.5688H43.3216ZM18.6978 28.5688L18.6978 37.3461H19.6978L19.6978 28.5688H18.6978ZM43.3216 37.3461V28.5688H42.3216V37.3461H43.3216ZM19.6978 37.3461L19.6978 32.1124H18.6978L18.6978 37.3461H19.6978ZM42.3216 32.1124V37.3461H43.3216V32.1124H42.3216ZM43.3216 32.1124V28.5688H42.3216V32.1124H43.3216ZM18.6978 28.5688L18.6978 32.1124H19.6978L19.6978 28.5688H18.6978Z" fill="#383838"/>
<path d="M22.7417 35.656L25.1041 35.656" stroke="#383838" stroke-linecap="round"/>
<path d="M27.4656 35.656L29.828 35.656" stroke="#383838" stroke-linecap="round"/>
<path d="M32.1907 35.656L34.5531 35.656" stroke="#383838" stroke-linecap="round"/>
<circle cx="55.6066" cy="10.6066" r="2.10663" stroke="#383838"/>
<circle cx="2.60663" cy="62.6066" r="2.10663" stroke="#383838"/>
<circle cx="9.18089" cy="33.2114" r="0.511703" fill="#FDA9A4" stroke="#383838"/>
<circle cx="58.0085" cy="49.0117" r="0.511703" fill="#FDA9A4" stroke="#383838"/>
<circle cx="49.9087" cy="67.9883" r="0.511703" fill="#FDA9A4" stroke="#383838"/>
<circle cx="2.0117" cy="16.0117" r="0.511703" fill="#FDA9A4" stroke="#383838"/>
<circle cx="28.0117" cy="1.0117" r="0.511703" fill="#FDA9A4" stroke="#383838"/>
<path d="M17.508 13.7133L43.3308 13.7133C44.0783 13.7133 44.6843 14.3193 44.6843 15.0668L44.6843 22.1628L16.1545 22.1628L16.1545 15.0668C16.1545 14.3193 16.7605 13.7133 17.508 13.7133Z" fill="#FDA9A4" stroke="#383838"/>
<path d="M17.508 67.0481L43.3308 67.0481C44.0783 67.0481 44.6843 66.4421 44.6843 65.6946L44.6843 57.4174L16.1545 57.4174L16.1545 65.6946C16.1545 66.4421 16.7605 67.0481 17.508 67.0481Z" fill="#FDA9A4" stroke="#383838"/>
<circle cx="30.545" cy="62.3586" r="2.57893" fill="white" stroke="#383838"/>
<path d="M27.4661 17.938L33.372 17.938" stroke="#AC59B1" stroke-linecap="round"/>
<path d="M56.4965 36.2464C56.4965 41.5032 52.1199 45.7865 46.6936 45.7865H36.9646L39.1112 43.6947C39.491 43.3246 39.4906 42.7365 39.1638 42.3554C37.7434 40.6991 36.8906 38.5696 36.8906 36.2464C36.8906 30.9897 41.2673 26.7063 46.6936 26.7063C52.1199 26.7063 56.4965 30.9897 56.4965 36.2464ZM36.9 45.8495L36.9001 45.8494C36.9 45.8495 36.9 45.8495 36.9 45.8495Z" fill="#FDA9A4" stroke="#383838"/>
<path d="M45.1841 40.3806V36.2812M45.1841 36.2812V32.7873C45.1841 32.4145 45.4863 32.1123 45.8591 32.1123H47.8244C48.9757 32.1123 49.9089 33.0455 49.9089 34.1968V34.1968C49.9089 35.348 48.9757 36.2812 47.8244 36.2812H45.1841ZM43.4124 38.0183H48.1371" stroke="#383838" stroke-linecap="round"/>
</svg>
