<svg width="66" height="66" viewBox="0 0 66 66" fill="none" xmlns="http://www.w3.org/2000/svg">
<rect x="11.6885" y="16.6305" width="47.6809" height="34.6886" rx="2.80222" fill="white" stroke="#383838"/>
<rect x="16.6472" y="22.8243" width="29.3975" height="20.4703" rx="2.30222" fill="#FDA9A4" stroke="#383838"/>
<path d="M39.3479 55.5641V25.9513H47.5976V55.5641C47.5976 55.9397 47.1529 56.138 46.8734 55.8871L43.8068 53.1326C43.6168 52.9619 43.3287 52.9619 43.1386 53.1326L40.072 55.8871C39.7926 56.138 39.3479 55.9397 39.3479 55.5641Z" fill="white" stroke="#383838" stroke-linejoin="round"/>
<path d="M21.6689 65.1067L19.8104 63.2481C19.7323 63.17 19.7323 63.0434 19.8104 62.9653L21.5275 61.2481C21.6056 61.17 21.6056 61.0434 21.5275 60.9653L19.6689 59.1067" stroke="#383838" stroke-linecap="round" stroke-linejoin="round"/>
<path d="M43.9734 49.0957V30.9756H52.2231V49.0957C52.2231 49.4713 51.7783 49.6696 51.4989 49.4186L48.4323 46.6641C48.2423 46.4934 47.9541 46.4934 47.7641 46.6641L44.6975 49.4186C44.4181 49.6696 43.9734 49.4713 43.9734 49.0957Z" fill="#FDA9A4" stroke="#383838" stroke-linejoin="round"/>
<path d="M45.4784 18.4408C45.648 18.2707 45.9236 18.2707 46.0932 18.4408L47.0533 19.4038L47.4074 19.0508L47.0533 19.4038C47.4639 19.8157 48.0827 19.9388 48.6197 19.7154L49.8752 19.1931C50.097 19.1008 50.3516 19.2063 50.4432 19.4284L50.9617 20.6855C51.1834 21.2232 51.708 21.5737 52.2896 21.5728L53.6494 21.5707C53.8897 21.5704 54.0845 21.7652 54.0841 22.0055L54.0821 23.3653C54.0812 23.9469 54.4317 24.4714 54.9694 24.6932L56.2265 25.2117C56.4486 25.3033 56.554 25.5579 56.4617 25.7797L55.9395 27.0352C55.7161 27.5722 55.8391 28.1909 56.251 28.6016L57.214 29.5617C57.3842 29.7313 57.3842 30.0068 57.214 30.1765L56.251 31.1365C55.8391 31.5472 55.7161 32.1659 55.9395 32.7029L56.4617 33.9584C56.554 34.1803 56.4486 34.4349 56.2265 34.5265L54.9694 35.0449C54.4317 35.2667 54.0812 35.7912 54.0821 36.3728L54.0841 37.7327C54.0845 37.9729 53.8897 38.1678 53.6494 38.1674L52.2896 38.1653C51.708 38.1644 51.1834 38.5149 50.9617 39.0526L50.4432 40.3097C50.3516 40.5318 50.097 40.6373 49.8752 40.545L48.6197 40.0227C48.0827 39.7993 47.4639 39.9224 47.0533 40.3343L46.0932 41.2973C45.9236 41.4674 45.648 41.4674 45.4784 41.2973L44.5183 40.3343C44.1077 39.9224 43.4889 39.7993 42.9519 40.0227L41.6964 40.545C41.4746 40.6373 41.22 40.5318 41.1284 40.3097L40.6099 39.0526C40.3882 38.5149 39.8636 38.1644 39.282 38.1653L37.9222 38.1674C37.682 38.1678 37.4871 37.9729 37.4875 37.7327L37.4895 36.3728C37.4904 35.7912 37.1399 35.2667 36.6022 35.0449L35.3451 34.5265C35.123 34.4349 35.0176 34.1803 35.1099 33.9584L35.6322 32.7029C35.8556 32.1659 35.7325 31.5472 35.3206 31.1365L34.3576 30.1765C34.1875 30.0068 34.1875 29.7313 34.3576 29.5617L35.3206 28.6016C35.7325 28.1909 35.8556 27.5722 35.6322 27.0352L35.1099 25.7797C35.0176 25.5579 35.123 25.3033 35.3452 25.2117L36.6022 24.6932C37.1399 24.4714 37.4904 23.9469 37.4895 23.3653L37.4875 22.0055C37.4871 21.7652 37.682 21.5704 37.9222 21.5707L39.282 21.5728C39.8636 21.5737 40.3882 21.2232 40.6099 20.6855L41.1284 19.4284C41.22 19.2063 41.4746 19.1008 41.6964 19.1931L42.9519 19.7154C43.4889 19.9388 44.1077 19.8157 44.5183 19.4038L45.4784 18.4408Z" fill="white" stroke="#383838"/>
<path d="M52.1875 8.89331L50.3289 7.03473C50.2508 6.95663 50.2508 6.82999 50.3289 6.75189L52.0461 5.03473C52.1242 4.95663 52.1242 4.82999 52.0461 4.75189L50.3289 3.03473C50.2508 2.95663 50.2508 2.82999 50.3289 2.75189L52.1875 0.893311" stroke="#383838" stroke-linecap="round" stroke-linejoin="round"/>
<circle cx="45.7839" cy="29.8688" r="5.8789" fill="#FDA9A4" stroke="#383838"/>
<path d="M20.9727 26.709H32.1433" stroke="#383838" stroke-linecap="round"/>
<path d="M17.6477 46.9432H27.2064" stroke="#383838" stroke-linecap="round"/>
<path d="M30.3152 46.9432H35.2501" stroke="#383838" stroke-linecap="round"/>
<path d="M20.9727 29.328H32.1433" stroke="#383838" stroke-linecap="round"/>
<path d="M20.9727 31.9471H27.3929" stroke="#383838" stroke-linecap="round"/>
<path d="M21.5564 40.0147L23.1497 35.9788C23.3186 35.5509 23.9391 35.5992 24.0398 36.048L24.6786 38.8949C24.7703 39.3037 25.3122 39.3943 25.5319 39.0377L26.4589 37.5335C26.5924 37.3168 26.875 37.2469 27.0941 37.3765L31.5576 40.0147" stroke="#383838"/>
<circle r="2.10663" transform="matrix(1 0 0 -1 58.4455 59.5001)" fill="#FDA9A4" stroke="#383838"/>
<circle r="2.10663" transform="matrix(1 0 0 -1 10.0754 4.30743)" stroke="#383838"/>
<circle r="0.511703" transform="matrix(1 0 0 -1 1.22264 25.4871)" fill="#FDA9A4" stroke="#383838"/>
<circle r="0.511703" transform="matrix(1 0 0 -1 35.5889 8.66676)" fill="#FDA9A4" stroke="#383838"/>
<circle r="0.511703" transform="matrix(1 0 0 -1 64.1377 7.50002)" fill="#FDA9A4" stroke="#383838"/>
<circle r="0.511703" transform="matrix(1 0 0 -1 6.45702 56.8933)" fill="#FDA9A4" stroke="#383838"/>
<circle r="0.511703" transform="matrix(1 0 0 -1 33.1865 62.1067)" fill="#FDA9A4" stroke="#383838"/>
</svg>
