<?xml version="1.0" standalone="no"?>
<!DOCTYPE svg PUBLIC "-//W3C//DTD SVG 20010904//EN"
 "http://www.w3.org/TR/2001/REC-SVG-20010904/DTD/svg10.dtd">
<svg version="1.0" xmlns="http://www.w3.org/2000/svg"
 width="222.000000pt" height="222.000000pt" viewBox="0 0 222.000000 222.000000"
 preserveAspectRatio="xMidYMid meet">
<metadata>
Created by potrace 1.14, written by Peter Selinger 2001-2017
</metadata>
<g transform="translate(0.000000,222.000000) scale(0.100000,-0.100000)"
fill="#000000" stroke="none">
<path d="M117 1313 c-52 -87 -99 -168 -105 -180 -10 -19 0 -42 92 -195 l103
-173 416 -3 415 -2 37 61 37 60 40 -60 40 -61 410 2 411 3 69 115 c38 63 84
143 104 176 l34 62 -80 132 c-44 73 -80 135 -80 137 0 2 -12 21 -26 43 l-27
40 -413 0 -413 0 -36 -60 c-20 -33 -38 -60 -40 -60 -3 0 -11 12 -20 28 -9 15
-24 41 -34 57 l-18 30 -411 3 -411 2 -94 -157z m776 -84 c3 -2 20 -29 40 -59
l35 -56 -34 -60 -33 -59 -263 1 c-145 1 -270 2 -279 3 -10 0 -30 27 -48 60
l-31 60 33 55 c19 33 40 56 52 58 32 5 524 2 528 -3z m980 1 c2 -3 18 -29 36
-58 l32 -54 -35 -61 -34 -62 -270 0 c-149 0 -273 3 -275 5 -3 3 -20 30 -40 60
l-35 55 32 57 c17 32 37 59 45 60 24 5 540 2 544 -2z"/>
</g>
</svg>
