<?xml version="1.0" standalone="no"?>
<!DOCTYPE svg PUBLIC "-//W3C//DTD SVG 20010904//EN"
 "http://www.w3.org/TR/2001/REC-SVG-20010904/DTD/svg10.dtd">
<svg version="1.0" xmlns="http://www.w3.org/2000/svg"
 width="222.000000pt" height="222.000000pt" viewBox="0 0 222.000000 222.000000"
 preserveAspectRatio="xMidYMid meet">
<metadata>
Created by potrace 1.14, written by Peter Selinger 2001-2017
</metadata>
<g transform="translate(0.000000,222.000000) scale(0.100000,-0.100000)"
fill="#000000" stroke="none">
<path d="M132 1338 c-44 -73 -92 -154 -106 -180 l-26 -46 46 -79 c26 -43 55
-90 65 -105 11 -15 19 -29 19 -32 0 -2 17 -33 39 -67 l38 -64 416 -3 415 -2
37 61 37 60 40 -60 40 -61 407 0 408 0 25 38 c13 20 61 100 106 178 l82 141
-80 133 c-44 73 -80 135 -80 137 0 2 -12 21 -26 43 l-27 40 -413 0 -413 0 -36
-60 c-20 -33 -38 -60 -40 -60 -3 0 -11 12 -20 28 -9 15 -24 41 -34 57 l-18 30
-411 3 -411 2 -79 -132z m743 -107 c13 -1 33 -22 56 -60 l36 -58 -33 -59 -33
-59 -263 1 c-145 1 -270 2 -279 3 -9 0 -30 28 -47 61 l-31 59 32 55 c19 33 40
56 52 58 18 3 459 2 510 -1z m998 -1 c1 -3 17 -29 35 -59 l33 -53 -35 -62 -34
-62 -271 1 c-148 0 -272 3 -274 5 -2 3 -20 31 -40 62 l-36 57 32 55 c18 31 38
57 46 58 24 5 540 2 544 -2z"/>
</g>
</svg>
