<svg width="65" height="74" viewBox="0 0 65 74" fill="none" xmlns="http://www.w3.org/2000/svg">
<path d="M6.2085 3.88135L6.37616 70.2208L11.2476 67.4716L11.094 6.66539L6.2085 3.88135Z" fill="#231F20"/>
<path d="M27.2393 15.7275L27.3468 58.2681L32.1587 55.519L32.065 18.4522L27.2393 15.7275Z" fill="#231F20"/>
<path d="M38.5588 22.125L38.6339 51.8141L41.6043 50.1407L41.5377 23.7834L38.5588 22.125Z" fill="#231F20"/>
<path d="M12.1663 7.25781L12.3169 66.8741L13.0891 66.3962L12.9407 7.67234L12.1663 7.25781Z" fill="#231F20"/>
<path d="M15.0854 8.91602L15.2277 65.2004L18.1387 63.5271L18.0048 10.5746L15.0854 8.91602Z" fill="#231F20"/>
<path d="M22.1157 12.8848L22.2378 61.1965L25.2082 59.5231L25.0945 14.5432L22.1157 12.8848Z" fill="#231F20"/>
<path d="M19.1367 11.167L19.2675 62.9296L21.1684 61.7943L21.0431 12.2331L19.1367 11.167Z" fill="#231F20"/>
<path d="M33.1375 19.104L33.228 54.9214L36.4954 53.0687L36.4142 20.9402L33.1375 19.104Z" fill="#231F20"/>
<path d="M64.7731 36.9328L52.9768 30.2988L53.0105 43.6262L64.7731 36.9328Z" fill="#231F20"/>
<path d="M0.429443 0.623535L0.613644 73.5077L4.23755 71.4756L4.06357 2.63727L0.429443 0.623535Z" fill="#231F20"/>
<path d="M47.1382 26.9819L47.1887 46.973L51.9411 44.2241L51.9043 29.6473L47.1382 26.9819Z" fill="#231F20"/>
<path d="M42.6104 24.4351L42.6738 49.5429L46.1193 47.5708L46.0657 26.3302L42.6104 24.4351Z" fill="#231F20"/>
</svg>
