<svg width="318" height="366" viewBox="0 0 318 366" fill="none" xmlns="http://www.w3.org/2000/svg">
<path d="M1.83994 329.145C1.60197 329.146 1.36369 329.027 1.18492 328.909L1.12528 328.849C0.946352 328.671 0.826766 328.434 0.826165 328.196C0.825563 327.958 0.943796 327.66 1.12182 327.481C1.29985 327.302 1.53751 327.182 1.83497 327.182C2.07294 327.181 2.3707 327.299 2.54963 327.477C2.84784 327.774 2.8498 328.547 2.55309 328.846C2.37506 329.025 2.1374 329.144 1.83994 329.145Z" fill="#231F20"/>
<path d="M64.723 328.986C64.1876 328.987 63.7106 328.572 63.7091 327.977C63.7076 327.382 64.123 326.964 64.7179 326.963C65.3128 326.961 65.7303 327.377 65.7318 327.972C65.7333 328.567 65.2584 328.984 64.723 328.986ZM49.0171 329.025C48.4817 329.027 48.0047 328.611 48.0032 328.016C48.0017 327.421 48.4171 327.004 49.012 327.002C49.6069 327.001 50.0244 327.416 50.0259 328.011C50.0274 328.606 49.5525 329.024 49.0171 329.025ZM33.2517 329.065C32.7163 329.066 32.2988 328.651 32.2973 328.056C32.2957 327.461 32.7111 327.044 33.2466 327.042C33.782 327.041 34.259 327.456 34.2605 328.051C34.262 328.646 33.8466 329.064 33.2517 329.065ZM17.5458 329.105C17.0103 329.106 16.5334 328.691 16.5319 328.096C16.5303 327.501 16.9457 327.083 17.5407 327.082C18.1356 327.08 18.5531 327.496 18.5546 328.091C18.5561 328.686 18.1407 329.103 17.5458 329.105Z" fill="#231F20"/>
<path d="M1.79416 311.058C1.55619 311.058 1.25843 310.94 1.0795 310.762C0.900576 310.584 0.78099 310.346 0.780238 310.049C0.779636 309.811 0.897869 309.513 1.07604 309.393C1.25407 309.214 1.55123 309.095 1.7892 309.094C2.02717 309.094 2.32493 309.212 2.50385 309.39C2.80207 309.687 2.80402 310.46 2.50746 310.818C2.32929 310.937 2.09162 311.057 1.79416 311.058Z" fill="#231F20"/>
<path d="M96.0892 310.819C95.5537 310.821 95.0767 310.405 95.0752 309.81C95.0739 309.275 95.4891 308.798 96.0841 308.796C96.679 308.795 97.0965 309.21 97.098 309.805C97.0398 310.341 96.6246 310.818 96.0892 310.819ZM80.3833 310.859C79.8478 310.86 79.3708 310.445 79.3693 309.85C79.368 309.315 79.7832 308.838 80.3781 308.836C80.9731 308.835 81.3906 309.25 81.3921 309.845C81.3339 310.381 80.9187 310.858 80.3833 310.859ZM64.6774 310.899C64.1419 310.9 63.6649 310.485 63.6634 309.89C63.6621 309.354 64.0773 308.877 64.6722 308.876C65.2672 308.874 65.6846 309.29 65.6862 309.885C65.628 310.42 65.2128 310.897 64.6774 310.899ZM48.9714 310.938C48.436 310.94 47.959 310.524 47.9575 309.929C47.9562 309.394 48.3714 308.917 48.9663 308.915C49.5612 308.914 49.9787 309.329 49.9802 309.924C49.9221 310.46 49.5069 310.937 48.9714 310.938ZM33.206 310.978C32.6706 310.98 32.2531 310.564 32.2516 309.969C32.2502 309.434 32.6655 308.957 33.2009 308.955C33.7363 308.954 34.2133 309.369 34.2148 309.964C34.2162 310.5 33.801 310.977 33.206 310.978ZM17.5001 311.018C16.9647 311.019 16.4877 310.604 16.4862 310.009C16.4848 309.474 16.9001 308.997 17.495 308.995C18.0899 308.993 18.5074 309.409 18.5089 310.004C18.5103 310.539 18.095 311.016 17.5001 311.018Z" fill="#231F20"/>
<path d="M1.74841 292.971C1.51044 292.971 1.21268 292.853 1.03375 292.675C0.854827 292.497 0.735242 292.259 0.73449 291.962C0.733888 291.724 0.852121 291.426 1.03015 291.247C1.20817 291.068 1.44584 290.948 1.7433 290.948C1.98127 290.947 2.27903 291.065 2.45795 291.243C2.63688 291.421 2.69698 291.659 2.69773 291.957C2.69848 292.254 2.5801 292.492 2.46156 292.671C2.28354 292.85 2.04587 292.97 1.74841 292.971Z" fill="#231F20"/>
<path d="M127.455 292.652C126.92 292.654 126.443 292.239 126.441 291.644C126.44 291.049 126.855 290.631 127.45 290.63C128.045 290.628 128.463 291.044 128.464 291.638C128.466 292.233 127.991 292.651 127.455 292.652ZM111.749 292.692C111.214 292.694 110.737 292.278 110.735 291.683C110.734 291.088 111.149 290.671 111.744 290.669C112.339 290.668 112.757 291.083 112.758 291.678C112.76 292.273 112.285 292.691 111.749 292.692ZM96.0434 292.732C95.508 292.733 95.031 292.318 95.0295 291.723C95.028 291.128 95.4434 290.71 96.0383 290.709C96.6332 290.707 97.0507 291.123 97.0522 291.718C97.0537 292.313 96.5788 292.731 96.0434 292.732ZM80.3375 292.772C79.8021 292.773 79.3251 292.358 79.3236 291.763C79.3221 291.168 79.7375 290.75 80.3324 290.749C80.9273 290.747 81.3448 291.163 81.3463 291.758C81.3478 292.353 80.8729 292.77 80.3375 292.772ZM64.6316 292.811C64.0962 292.813 63.6192 292.397 63.6177 291.802C63.6161 291.207 64.0315 290.79 64.6265 290.788C65.2214 290.787 65.6389 291.202 65.6404 291.797C65.6419 292.392 65.167 292.81 64.6316 292.811ZM48.9257 292.851C48.3902 292.852 47.9132 292.437 47.9117 291.842C47.9102 291.247 48.3256 290.83 48.9206 290.828C49.5155 290.827 49.933 291.242 49.9345 291.837C49.936 292.432 49.4611 292.85 48.9257 292.851ZM33.1603 292.891C32.6248 292.892 32.2073 292.477 32.2058 291.882C32.2043 291.287 32.6197 290.869 33.1551 290.868C33.6906 290.867 34.1676 291.282 34.1691 291.877C34.1706 292.472 33.7552 292.889 33.1603 292.891ZM17.4543 292.93C16.9189 292.932 16.4419 292.517 16.4404 291.922C16.4389 291.327 16.8543 290.909 17.4492 290.908C18.0442 290.906 18.4617 291.322 18.4632 291.916C18.4647 292.511 18.0493 292.929 17.4543 292.93Z" fill="#231F20"/>
<path d="M1.70257 274.824C1.4646 274.824 1.16684 274.706 0.987912 274.528C0.808984 274.35 0.748885 274.112 0.748284 273.874C0.747682 273.636 0.865915 273.338 1.04394 273.16C1.22197 272.981 1.45964 272.861 1.7571 272.86C1.99507 272.86 2.23333 272.978 2.41226 273.156C2.59119 273.334 2.65129 273.572 2.65204 273.869C2.65279 274.167 2.5939 274.405 2.41587 274.584C2.23785 274.763 2.00003 274.823 1.70257 274.824Z" fill="#231F20"/>
<path d="M158.821 274.427C158.286 274.428 157.809 274.013 157.807 273.418C157.806 272.882 158.221 272.405 158.816 272.404C159.411 272.402 159.829 272.818 159.83 273.413C159.832 274.008 159.357 274.425 158.821 274.427ZM143.115 274.466C142.58 274.468 142.103 274.052 142.101 273.457C142.1 272.922 142.515 272.445 143.11 272.443C143.705 272.442 144.123 272.857 144.124 273.452C144.126 274.047 143.651 274.465 143.115 274.466ZM127.409 274.506C126.874 274.507 126.397 274.092 126.396 273.497C126.394 272.962 126.809 272.485 127.404 272.483C127.999 272.482 128.417 272.897 128.418 273.492C128.36 274.087 127.945 274.505 127.409 274.506ZM111.704 274.546C111.168 274.547 110.691 274.132 110.69 273.537C110.688 273.001 111.103 272.524 111.698 272.523C112.293 272.521 112.711 272.937 112.712 273.532C112.654 274.127 112.239 274.544 111.704 274.546ZM95.9976 274.585C95.4622 274.587 94.9852 274.172 94.9837 273.577C94.9823 273.041 95.3976 272.564 95.9925 272.562C96.5874 272.561 97.0049 272.976 97.0064 273.571C96.9484 274.167 96.533 274.584 95.9976 274.585ZM80.2917 274.625C79.7563 274.626 79.2793 274.211 79.2778 273.616C79.2764 273.081 79.6917 272.604 80.2866 272.602C80.8815 272.601 81.299 273.016 81.3005 273.611C81.2425 274.206 80.8271 274.624 80.2917 274.625ZM64.5858 274.665C64.0504 274.666 63.5734 274.251 63.5719 273.656C63.5705 273.12 63.9858 272.643 64.5807 272.642C65.1756 272.64 65.5931 273.056 65.5946 273.651C65.5366 274.246 65.1212 274.663 64.5858 274.665ZM48.8799 274.705C48.3445 274.706 47.8675 274.291 47.866 273.696C47.8646 273.16 48.2798 272.683 48.8748 272.682C49.4697 272.68 49.8872 273.096 49.8887 273.69C49.8307 274.286 49.4153 274.703 48.8799 274.705ZM33.1145 274.744C32.5791 274.746 32.1021 274.33 32.1006 273.735C32.0992 273.2 32.5144 272.723 33.1094 272.721C33.6448 272.72 34.1218 273.135 34.1233 273.73C34.1248 274.325 33.7094 274.743 33.1145 274.744ZM17.4086 274.784C16.8731 274.785 16.3961 274.37 16.3946 273.775C16.3933 273.24 16.8085 272.763 17.4035 272.761C17.9984 272.76 18.4159 273.175 18.4174 273.77C18.4189 274.365 18.0035 274.783 17.4086 274.784Z" fill="#231F20"/>
<path d="M1.93149 365.379C1.69352 365.379 1.39576 365.261 1.21683 365.083C1.0379 364.905 0.918319 364.667 0.917567 364.37C0.916965 364.132 1.03535 363.894 1.21337 363.715C1.3914 363.536 1.68856 363.416 1.92653 363.415C2.1645 363.415 2.46226 363.533 2.64118 363.711C2.9394 364.008 2.94135 364.781 2.64479 365.139C2.46662 365.258 2.22895 365.378 1.93149 365.379Z" fill="#231F20"/>
<path d="M1.88562 347.232C1.64765 347.232 1.34989 347.114 1.17096 346.936C0.992035 346.758 0.872449 346.52 0.871697 346.223C0.871095 345.985 0.989328 345.687 1.16735 345.508C1.34538 345.329 1.58304 345.21 1.88051 345.209C2.11847 345.208 2.41623 345.327 2.59516 345.505C2.77409 345.683 2.83419 345.92 2.83494 346.218C2.83569 346.515 2.7173 346.754 2.59877 346.933C2.4209 347.171 2.18308 347.231 1.88562 347.232Z" fill="#231F20"/>
<path d="M33.2975 347.153C32.762 347.154 32.3445 346.738 32.343 346.144C32.3417 345.608 32.7569 345.131 33.2924 345.13C33.8278 345.128 34.3048 345.544 34.3063 346.139C34.3078 346.734 33.8924 347.151 33.2975 347.153ZM17.5915 347.192C17.0561 347.194 16.5791 346.778 16.5776 346.183C16.5763 345.648 16.9915 345.171 17.5864 345.169C18.1814 345.168 18.5989 345.583 18.6004 346.178C18.6019 346.773 18.1865 347.191 17.5915 347.192Z" fill="#231F20"/>
<path d="M1.65695 256.737C1.41898 256.737 1.12122 256.619 0.942296 256.441C0.763369 256.263 0.643783 256.025 0.643031 255.728C0.642429 255.49 0.760662 255.192 0.938687 255.013C1.11671 254.834 1.35453 254.774 1.65199 254.773C1.88996 254.773 2.18772 254.891 2.36665 255.069C2.54557 255.247 2.60567 255.485 2.60642 255.782C2.60718 256.08 2.48879 256.318 2.3701 256.437C2.19208 256.616 1.95441 256.736 1.65695 256.737Z" fill="#231F20"/>
<path d="M190.187 256.26C189.652 256.262 189.175 255.846 189.173 255.251C189.172 254.716 189.587 254.239 190.182 254.237C190.777 254.236 191.195 254.651 191.196 255.246C191.198 255.841 190.723 256.259 190.187 256.26ZM174.481 256.3C173.946 256.301 173.469 255.886 173.467 255.291C173.466 254.756 173.881 254.279 174.476 254.277C175.012 254.276 175.489 254.691 175.49 255.286C175.492 255.881 175.017 256.299 174.481 256.3ZM158.776 256.34C158.24 256.341 157.763 255.926 157.762 255.331C157.76 254.795 158.175 254.318 158.77 254.317C159.365 254.315 159.783 254.731 159.784 255.326C159.786 255.921 159.311 256.338 158.776 256.34ZM143.07 256.379C142.534 256.381 142.057 255.965 142.056 255.371C142.054 254.835 142.47 254.358 143.064 254.357C143.659 254.355 144.077 254.77 144.078 255.365C144.08 255.96 143.605 256.378 143.07 256.379ZM127.364 256.419C126.828 256.42 126.351 256.005 126.35 255.41C126.348 254.875 126.764 254.398 127.359 254.396C127.953 254.395 128.371 254.81 128.372 255.405C128.314 256 127.899 256.418 127.364 256.419ZM111.658 256.459C111.122 256.46 110.645 256.045 110.644 255.45C110.642 254.914 111.058 254.437 111.653 254.436C112.248 254.434 112.665 254.85 112.667 255.445C112.609 256.04 112.193 256.457 111.658 256.459ZM95.9519 256.498C95.4164 256.5 94.9394 256.085 94.9379 255.49C94.9366 254.954 95.3518 254.477 95.9467 254.476C96.5417 254.474 96.9592 254.89 96.9607 255.484C96.9027 256.08 96.4873 256.497 95.9519 256.498ZM80.2459 256.538C79.7105 256.54 79.2335 256.124 79.232 255.529C79.2307 254.994 79.6459 254.517 80.2408 254.515C80.8357 254.514 81.2532 254.929 81.2547 255.524C81.1967 256.119 80.7814 256.537 80.2459 256.538ZM64.54 256.578C64.0046 256.579 63.5276 256.164 63.5261 255.569C63.5248 255.034 63.94 254.556 64.5349 254.555C65.1298 254.553 65.5473 254.969 65.5488 255.564C65.4908 256.159 65.0755 256.576 64.54 256.578ZM48.8341 256.618C48.2987 256.619 47.8217 256.204 47.8202 255.609C47.8188 255.073 48.2341 254.596 48.829 254.595C49.4239 254.593 49.8414 255.009 49.8429 255.604C49.7849 256.199 49.3695 256.616 48.8341 256.618ZM33.0687 256.657C32.5333 256.659 32.0563 256.243 32.0548 255.649C32.0534 255.113 32.4687 254.636 33.0636 254.635C33.599 254.633 34.076 255.048 34.0775 255.643C34.079 256.238 33.6636 256.656 33.0687 256.657ZM17.3628 256.697C16.8274 256.698 16.3504 256.283 16.3489 255.688C16.3475 255.153 16.7628 254.676 17.3577 254.674C17.9526 254.673 18.3701 255.088 18.3716 255.683C18.3731 256.278 17.9577 256.696 17.3628 256.697Z" fill="#231F20"/>
<path d="M1.6112 238.649C1.37324 238.65 1.07548 238.532 0.896548 238.354C0.71762 238.176 0.598035 237.938 0.597283 237.64C0.596681 237.402 0.714914 237.105 0.892939 236.926C1.07096 236.747 1.30863 236.627 1.60609 236.626C1.84406 236.626 2.14182 236.744 2.32075 236.922C2.44003 237.041 2.55977 237.338 2.56053 237.635C2.56128 237.933 2.50238 238.171 2.32436 238.35C2.14633 238.529 1.90866 238.648 1.6112 238.649Z" fill="#231F20"/>
<path d="M221.553 238.094C221.018 238.095 220.541 237.68 220.54 237.085C220.538 236.49 220.953 236.072 221.548 236.071C222.143 236.069 222.561 236.485 222.562 237.08C222.564 237.674 222.089 238.092 221.553 238.094ZM205.848 238.133C205.312 238.135 204.835 237.719 204.834 237.124C204.832 236.529 205.248 236.112 205.842 236.11C206.437 236.109 206.855 236.524 206.856 237.119C206.858 237.714 206.383 238.132 205.848 238.133ZM190.142 238.173C189.606 238.174 189.129 237.759 189.128 237.164C189.126 236.569 189.542 236.152 190.137 236.15C190.731 236.149 191.149 236.564 191.15 237.159C191.152 237.754 190.677 238.172 190.142 238.173ZM174.436 238.213C173.9 238.214 173.423 237.799 173.422 237.204C173.42 236.609 173.836 236.191 174.431 236.19C174.966 236.188 175.443 236.604 175.445 237.199C175.446 237.794 174.971 238.211 174.436 238.213ZM158.73 238.252C158.194 238.254 157.717 237.838 157.716 237.243C157.714 236.648 158.13 236.231 158.725 236.229C159.32 236.228 159.737 236.643 159.739 237.238C159.74 237.833 159.265 238.251 158.73 238.252ZM143.024 238.292C142.488 238.293 142.011 237.878 142.01 237.283C142.008 236.688 142.424 236.271 143.019 236.269C143.614 236.268 144.031 236.683 144.033 237.278C144.034 237.873 143.559 238.291 143.024 238.292ZM127.318 238.332C126.783 238.333 126.306 237.918 126.304 237.323C126.303 236.728 126.718 236.31 127.313 236.309C127.908 236.307 128.325 236.723 128.327 237.318C128.328 237.913 127.853 238.33 127.318 238.332ZM111.612 238.371C111.077 238.373 110.6 237.957 110.598 237.362C110.597 236.768 111.012 236.35 111.607 236.348C112.202 236.347 112.619 236.762 112.621 237.357C112.622 237.952 112.148 238.37 111.612 238.371ZM95.9062 238.411C95.3708 238.412 94.8938 237.997 94.8923 237.402C94.8908 236.807 95.3061 236.39 95.9011 236.388C96.496 236.387 96.9135 236.802 96.915 237.397C96.9165 237.992 96.4416 238.41 95.9062 238.411ZM80.2003 238.451C79.6648 238.452 79.1879 238.037 79.1863 237.442C79.1848 236.847 79.6002 236.429 80.1952 236.428C80.7901 236.426 81.2076 236.842 81.2091 237.437C81.2106 238.032 80.7357 238.449 80.2003 238.451ZM64.4944 238.49C63.9589 238.492 63.4819 238.077 63.4804 237.482C63.4789 236.887 63.8943 236.469 64.4893 236.468C65.0842 236.466 65.5017 236.881 65.5032 237.476C65.5047 238.071 65.0298 238.489 64.4944 238.49ZM48.7885 238.53C48.253 238.531 47.776 238.116 47.7745 237.521C47.773 236.926 48.1884 236.509 48.7833 236.507C49.3783 236.506 49.7958 236.921 49.7973 237.516C49.7988 238.111 49.3239 238.529 48.7885 238.53ZM33.0825 238.57C32.5471 238.571 32.0701 238.156 32.0686 237.561C32.0671 236.966 32.4825 236.548 33.0774 236.547C33.6129 236.546 34.0899 236.961 34.0914 237.556C34.0929 238.151 33.618 238.568 33.0825 238.57ZM17.3171 238.61C16.7817 238.611 16.3047 238.196 16.3032 237.601C16.3017 237.006 16.7171 236.588 17.312 236.587C17.9069 236.585 18.3244 237.001 18.326 237.596C18.3275 238.191 17.9121 238.608 17.3171 238.61Z" fill="#231F20"/>
<path d="M1.56543 220.562C1.32746 220.563 1.0297 220.445 0.850772 220.267C0.671844 220.089 0.552258 219.851 0.551507 219.553C0.550905 219.315 0.669137 219.018 0.847163 218.839C1.02519 218.66 1.26285 218.54 1.56032 218.539C1.79828 218.539 2.09604 218.657 2.27497 218.835C2.39426 218.954 2.514 219.251 2.51475 219.549C2.5155 219.846 2.45661 220.084 2.27858 220.263C2.10055 220.442 1.86289 220.562 1.56543 220.562Z" fill="#231F20"/>
<path d="M252.919 219.927C252.384 219.928 251.907 219.513 251.906 218.918C251.904 218.382 252.319 217.905 252.914 217.904C253.509 217.902 253.927 218.318 253.928 218.913C253.93 219.448 253.514 219.925 252.919 219.927ZM237.214 219.966C236.678 219.968 236.201 219.553 236.2 218.958C236.198 218.422 236.673 217.945 237.208 217.944C237.744 217.942 238.161 218.358 238.163 218.953C238.224 219.488 237.749 219.965 237.214 219.966ZM221.508 220.006C220.972 220.008 220.495 219.592 220.494 218.997C220.492 218.462 220.908 217.985 221.503 217.983C222.097 217.982 222.515 218.397 222.517 218.992C222.518 219.528 222.043 220.005 221.508 220.006ZM205.802 220.046C205.266 220.047 204.789 219.632 204.788 219.037C204.787 218.501 205.202 218.024 205.797 218.023C206.392 218.021 206.809 218.437 206.811 219.032C206.812 219.567 206.337 220.045 205.802 220.046ZM190.096 220.086C189.56 220.087 189.083 219.672 189.082 219.077C189.081 218.541 189.496 218.064 190.091 218.063C190.686 218.061 191.103 218.477 191.105 219.072C191.106 219.607 190.631 220.084 190.096 220.086ZM174.39 220.125C173.855 220.127 173.378 219.711 173.376 219.116C173.375 218.581 173.79 218.104 174.385 218.102C174.92 218.101 175.397 218.516 175.399 219.111C175.4 219.647 174.925 220.124 174.39 220.125ZM158.684 220.165C158.149 220.166 157.672 219.751 157.67 219.156C157.669 218.621 158.084 218.144 158.679 218.142C159.274 218.141 159.691 218.556 159.693 219.151C159.694 219.686 159.219 220.164 158.684 220.165ZM142.978 220.205C142.443 220.206 141.966 219.791 141.964 219.196C141.963 218.66 142.378 218.183 142.973 218.182C143.568 218.18 143.985 218.596 143.987 219.191C143.988 219.726 143.514 220.203 142.978 220.205ZM127.272 220.244C126.737 220.246 126.26 219.83 126.258 219.235C126.257 218.7 126.672 218.223 127.267 218.221C127.862 218.22 128.28 218.635 128.281 219.23C128.223 219.766 127.808 220.243 127.272 220.244ZM111.566 220.284C111.031 220.285 110.554 219.87 110.552 219.275C110.551 218.74 110.966 218.263 111.561 218.261C112.156 218.26 112.574 218.675 112.575 219.27C112.517 219.806 112.102 220.283 111.566 220.284ZM95.8604 220.324C95.325 220.325 94.848 219.91 94.8465 219.315C94.8451 218.779 95.2604 218.302 95.8553 218.301C96.4502 218.299 96.8677 218.715 96.8692 219.31C96.8111 219.845 96.3958 220.322 95.8604 220.324ZM80.1545 220.363C79.6191 220.365 79.1421 219.949 79.1406 219.355C79.1392 218.819 79.5545 218.342 80.1494 218.34C80.7443 218.339 81.1618 218.754 81.1633 219.349C81.1052 219.885 80.6899 220.362 80.1545 220.363ZM64.4486 220.403C63.9132 220.404 63.4362 219.989 63.4347 219.394C63.4333 218.859 63.8486 218.382 64.4435 218.38C65.0384 218.379 65.4559 218.794 65.4574 219.389C65.3993 219.925 64.984 220.402 64.4486 220.403ZM48.7427 220.443C48.2072 220.444 47.7303 220.029 47.7288 219.434C47.7274 218.898 48.1426 218.421 48.7376 218.42C49.3325 218.418 49.75 218.834 49.7515 219.429C49.6933 219.964 49.2781 220.441 48.7427 220.443ZM33.0368 220.482C32.5013 220.484 32.0243 220.069 32.0228 219.474C32.0215 218.938 32.4962 218.461 33.0316 218.46C33.5671 218.458 33.9846 218.874 33.9861 219.469C33.9874 220.004 33.5722 220.481 33.0368 220.482ZM17.2714 220.522C16.7359 220.524 16.2589 220.108 16.2574 219.513C16.2561 218.978 16.6713 218.501 17.2662 218.499C17.8612 218.498 18.2787 218.913 18.2802 219.508C18.2815 220.044 17.8663 220.521 17.2714 220.522Z" fill="#231F20"/>
<path d="M1.51958 202.416C1.28162 202.416 1.04334 202.298 0.864415 202.12C0.685488 201.942 0.565751 201.645 0.56515 201.407C0.564549 201.169 0.682931 200.93 0.860957 200.751C1.03898 200.572 1.33615 200.453 1.57412 200.452C1.81209 200.451 2.10985 200.57 2.28877 200.748C2.40806 200.866 2.52779 201.164 2.52854 201.461C2.5293 201.759 2.41092 201.997 2.29238 202.176C2.05487 202.355 1.81705 202.415 1.51958 202.416Z" fill="#231F20"/>
<path d="M284.345 201.701C283.81 201.702 283.333 201.287 283.331 200.692C283.33 200.097 283.745 199.679 284.34 199.678C284.875 199.676 285.352 200.092 285.354 200.687C285.355 201.282 284.88 201.699 284.345 201.701ZM268.639 201.74C268.104 201.742 267.627 201.326 267.625 200.732C267.624 200.137 268.039 199.719 268.634 199.718C269.169 199.716 269.646 200.131 269.648 200.726C269.649 201.321 269.175 201.739 268.639 201.74ZM252.874 201.78C252.338 201.782 251.861 201.366 251.86 200.771C251.858 200.176 252.274 199.759 252.869 199.757C253.464 199.756 253.881 200.171 253.883 200.766C253.884 201.361 253.469 201.779 252.874 201.78ZM237.168 201.82C236.632 201.821 236.155 201.406 236.154 200.811C236.152 200.216 236.568 199.799 237.163 199.797C237.698 199.796 238.116 200.211 238.117 200.806C238.119 201.401 237.703 201.819 237.168 201.82ZM221.462 201.86C220.926 201.861 220.449 201.446 220.448 200.851C220.446 200.256 220.862 199.838 221.457 199.837C222.052 199.835 222.469 200.251 222.471 200.846C222.472 201.441 221.997 201.858 221.462 201.86ZM205.756 201.899C205.221 201.901 204.744 201.485 204.742 200.89C204.741 200.295 205.156 199.878 205.751 199.876C206.346 199.875 206.763 200.29 206.765 200.885C206.766 201.48 206.291 201.898 205.756 201.899ZM190.05 201.939C189.515 201.94 189.038 201.525 189.036 200.93C189.035 200.335 189.45 199.918 190.045 199.916C190.64 199.915 191.057 200.33 191.059 200.925C191.06 201.52 190.586 201.938 190.05 201.939ZM174.344 201.979C173.809 201.98 173.332 201.565 173.33 200.97C173.329 200.375 173.744 199.957 174.339 199.956C174.874 199.954 175.351 200.37 175.353 200.965C175.354 201.56 174.88 201.977 174.344 201.979ZM158.638 202.018C158.103 202.02 157.626 201.604 157.624 201.01C157.623 200.415 158.038 199.997 158.633 199.996C159.228 199.994 159.646 200.409 159.647 201.004C159.649 201.599 159.174 202.017 158.638 202.018ZM142.932 202.058C142.397 202.059 141.92 201.644 141.918 201.049C141.917 200.454 142.332 200.037 142.927 200.035C143.522 200.034 143.94 200.449 143.941 201.044C143.943 201.639 143.468 202.057 142.932 202.058ZM127.226 202.098C126.691 202.099 126.214 201.684 126.213 201.089C126.211 200.494 126.626 200.076 127.221 200.075C127.816 200.073 128.234 200.489 128.235 201.084C128.237 201.679 127.762 202.096 127.226 202.098ZM111.521 202.137C110.985 202.139 110.508 201.724 110.507 201.129C110.505 200.534 110.921 200.116 111.515 200.115C112.11 200.113 112.528 200.529 112.529 201.123C112.531 201.718 112.056 202.136 111.521 202.137ZM95.8146 202.177C95.2792 202.179 94.8022 201.763 94.8007 201.168C94.7992 200.573 95.2146 200.156 95.8095 200.154C96.4044 200.153 96.8219 200.568 96.8234 201.163C96.8249 201.758 96.3501 202.176 95.8146 202.177ZM80.1087 202.217C79.5733 202.218 79.0963 201.803 79.0948 201.208C79.0933 200.613 79.5087 200.195 80.1036 200.194C80.6985 200.192 81.116 200.608 81.1175 201.203C81.119 201.798 80.6442 202.216 80.1087 202.217ZM64.4028 202.257C63.8674 202.258 63.3904 201.843 63.3889 201.248C63.3874 200.653 63.8028 200.235 64.3977 200.234C64.9926 200.232 65.4101 200.648 65.4116 201.243C65.4131 201.838 64.9382 202.255 64.4028 202.257ZM48.6969 202.296C48.1615 202.298 47.6845 201.882 47.683 201.287C47.6815 200.692 48.0969 200.275 48.6918 200.273C49.2867 200.272 49.7042 200.687 49.7057 201.282C49.7072 201.877 49.2323 202.295 48.6969 202.296ZM32.991 202.336C32.4556 202.337 31.9786 201.922 31.9771 201.327C31.9756 200.732 32.391 200.315 32.9859 200.313C33.5213 200.312 33.9983 200.727 33.9998 201.322C34.0013 201.917 33.5264 202.335 32.991 202.336ZM17.2256 202.376C16.6902 202.377 16.2132 201.962 16.2117 201.367C16.2102 200.772 16.6255 200.354 17.2205 200.353C17.8154 200.351 18.2329 200.767 18.2344 201.362C18.2359 201.957 17.8205 202.374 17.2256 202.376Z" fill="#231F20"/>
<path d="M1.4739 184.328C1.23593 184.329 0.938173 184.211 0.759246 184.033C0.580318 183.855 0.520219 183.617 0.519618 183.379C0.519016 183.141 0.637249 182.843 0.815274 182.664C0.993299 182.485 1.23112 182.425 1.52859 182.424C1.76655 182.424 2.06431 182.542 2.24324 182.72C2.54145 183.017 2.54341 183.79 2.2467 184.088C2.00903 184.208 1.77136 184.328 1.4739 184.328Z" fill="#231F20"/>
<path d="M315.711 183.534C315.176 183.536 314.699 183.121 314.697 182.526C314.696 181.99 315.111 181.513 315.706 181.512C316.301 181.51 316.718 181.925 316.72 182.52C316.662 183.116 316.247 183.533 315.711 183.534ZM300.005 183.574C299.47 183.575 298.993 183.16 298.991 182.565C298.99 182.03 299.405 181.553 300 181.551C300.536 181.55 301.013 181.965 301.014 182.56C300.956 183.155 300.541 183.573 300.005 183.574ZM284.299 183.614C283.764 183.615 283.287 183.2 283.285 182.605C283.284 182.069 283.699 181.592 284.294 181.591C284.83 181.59 285.307 182.005 285.308 182.6C285.25 183.195 284.835 183.612 284.299 183.614ZM268.593 183.654C268.058 183.655 267.581 183.24 267.579 182.645C267.578 182.109 267.993 181.632 268.588 181.631C269.124 181.629 269.601 182.045 269.602 182.64C269.544 183.235 269.129 183.652 268.593 183.654ZM252.828 183.693C252.293 183.695 251.816 183.279 251.814 182.684C251.813 182.149 252.228 181.672 252.823 181.67C253.418 181.669 253.835 182.084 253.837 182.679C253.838 183.274 253.423 183.692 252.828 183.693ZM237.122 183.733C236.587 183.734 236.11 183.319 236.108 182.724C236.107 182.189 236.522 181.712 237.117 181.71C237.652 181.709 238.129 182.124 238.131 182.719C238.132 183.314 237.657 183.732 237.122 183.733ZM221.416 183.773C220.881 183.774 220.404 183.359 220.402 182.764C220.401 182.228 220.816 181.751 221.411 181.75C222.006 181.748 222.423 182.164 222.425 182.759C222.426 183.354 221.952 183.771 221.416 183.773ZM205.71 183.812C205.175 183.814 204.698 183.399 204.696 182.804C204.695 182.268 205.11 181.791 205.705 181.79C206.3 181.788 206.718 182.203 206.719 182.798C206.721 183.393 206.246 183.811 205.71 183.812ZM190.004 183.852C189.469 183.853 188.992 183.438 188.99 182.843C188.989 182.308 189.404 181.831 189.999 181.829C190.594 181.828 191.012 182.243 191.013 182.838C191.015 183.433 190.54 183.851 190.004 183.852ZM174.298 183.892C173.763 183.893 173.286 183.478 173.284 182.883C173.283 182.347 173.698 181.87 174.293 181.869C174.829 181.868 175.306 182.283 175.307 182.878C175.309 183.473 174.834 183.89 174.298 183.892ZM158.593 183.932C158.057 183.933 157.58 183.518 157.579 182.923C157.577 182.387 157.992 181.91 158.587 181.909C159.182 181.907 159.6 182.323 159.601 182.918C159.603 183.512 159.128 183.93 158.593 183.932ZM142.887 183.971C142.351 183.973 141.874 183.557 141.873 182.962C141.871 182.427 142.287 181.95 142.881 181.948C143.476 181.947 143.894 182.362 143.895 182.957C143.897 183.552 143.422 183.97 142.887 183.971ZM127.181 184.011C126.645 184.012 126.168 183.597 126.167 183.002C126.165 182.467 126.581 181.989 127.176 181.988C127.77 181.986 128.188 182.402 128.189 182.997C128.132 183.592 127.716 184.01 127.181 184.011ZM111.475 184.051C110.939 184.052 110.462 183.637 110.461 183.042C110.46 182.506 110.875 182.029 111.47 182.028C112.065 182.026 112.482 182.442 112.484 183.037C112.426 183.632 112.01 184.049 111.475 184.051ZM95.7689 184.09C95.2334 184.092 94.7564 183.676 94.7549 183.081C94.7536 182.546 95.1688 182.069 95.7637 182.067C96.3587 182.066 96.7762 182.481 96.7777 183.076C96.7197 183.671 96.3043 184.089 95.7689 184.09ZM80.063 184.13C79.5275 184.131 79.0505 183.716 79.049 183.121C79.0477 182.586 79.4629 182.109 80.0578 182.107C80.6528 182.106 81.0702 182.521 81.0717 183.116C81.0138 183.711 80.5984 184.129 80.063 184.13ZM64.357 184.17C63.8216 184.171 63.3446 183.756 63.3431 183.161C63.3418 182.625 63.757 182.148 64.3519 182.147C64.9469 182.145 65.3643 182.561 65.3658 183.156C65.3079 183.751 64.8925 184.168 64.357 184.17ZM48.6511 184.209C48.1157 184.211 47.6387 183.795 47.6372 183.2C47.6359 182.665 48.0511 182.188 48.646 182.186C49.2409 182.185 49.6584 182.6 49.6599 183.195C49.6019 183.79 49.1866 184.208 48.6511 184.209ZM32.9452 184.249C32.4098 184.25 31.9328 183.835 31.9313 183.24C31.9299 182.705 32.3452 182.228 32.9401 182.226C33.4755 182.225 33.893 182.64 33.8945 183.235C33.896 183.83 33.4806 184.248 32.9452 184.249ZM17.1798 184.289C16.6444 184.29 16.1674 183.875 16.1659 183.28C16.1645 182.745 16.5798 182.268 17.1747 182.266C17.7696 182.264 18.1871 182.68 18.1886 183.275C18.1901 183.87 17.7747 184.287 17.1798 184.289Z" fill="#231F20"/>
<path d="M1.42818 166.241C1.19021 166.242 0.95194 166.123 0.773013 165.945C0.594085 165.767 0.474349 165.47 0.473748 165.232C0.473146 164.994 0.591379 164.696 0.769404 164.517C0.947429 164.338 1.1851 164.219 1.48257 164.218C1.72053 164.218 2.01829 164.336 2.19722 164.514C2.49543 164.811 2.49739 165.584 2.20068 165.882C1.96331 166.121 1.72564 166.24 1.42818 166.241Z" fill="#231F20"/>
<path d="M284.254 165.526C283.718 165.528 283.241 165.112 283.24 164.518C283.238 163.982 283.654 163.505 284.249 163.504C284.784 163.502 285.261 163.917 285.262 164.512C285.204 165.108 284.789 165.525 284.254 165.526ZM268.548 165.566C268.012 165.567 267.535 165.152 267.534 164.557C267.532 164.022 267.948 163.545 268.543 163.543C269.078 163.542 269.555 163.957 269.557 164.552C269.499 165.147 269.083 165.565 268.548 165.566ZM252.782 165.606C252.247 165.607 251.77 165.192 251.768 164.597C251.767 164.062 252.182 163.585 252.777 163.583C253.372 163.582 253.79 163.997 253.791 164.592C253.793 165.187 253.377 165.604 252.782 165.606ZM237.076 165.646C236.541 165.647 236.064 165.232 236.062 164.637C236.061 164.101 236.536 163.624 237.071 163.623C237.607 163.621 238.024 164.037 238.026 164.632C238.087 165.227 237.612 165.644 237.076 165.646ZM221.37 165.685C220.835 165.687 220.358 165.271 220.357 164.676C220.355 164.141 220.77 163.664 221.365 163.662C221.96 163.661 222.378 164.076 222.379 164.671C222.381 165.266 221.906 165.684 221.37 165.685ZM205.665 165.725C205.129 165.726 204.652 165.311 204.651 164.716C204.649 164.181 205.065 163.704 205.659 163.702C206.254 163.701 206.672 164.116 206.673 164.711C206.675 165.306 206.2 165.724 205.665 165.725ZM189.959 165.765C189.423 165.766 188.946 165.351 188.945 164.756C188.943 164.22 189.359 163.743 189.954 163.742C190.548 163.74 190.966 164.156 190.967 164.751C190.969 165.346 190.494 165.763 189.959 165.765ZM174.253 165.804C173.717 165.806 173.24 165.39 173.239 164.796C173.237 164.26 173.653 163.783 174.248 163.782C174.783 163.78 175.26 164.195 175.262 164.79C175.263 165.385 174.788 165.803 174.253 165.804ZM158.547 165.844C158.011 165.845 157.534 165.43 157.533 164.835C157.532 164.3 157.947 163.823 158.542 163.821C159.137 163.82 159.554 164.235 159.556 164.83C159.557 165.425 159.082 165.843 158.547 165.844ZM142.841 165.884C142.306 165.885 141.829 165.47 141.827 164.875C141.826 164.339 142.241 163.862 142.836 163.861C143.431 163.859 143.848 164.275 143.85 164.87C143.851 165.465 143.376 165.882 142.841 165.884ZM127.135 165.924C126.6 165.925 126.123 165.51 126.121 164.915C126.12 164.379 126.535 163.902 127.13 163.901C127.725 163.899 128.142 164.315 128.144 164.909C128.086 165.505 127.67 165.922 127.135 165.924ZM111.429 165.963C110.894 165.965 110.417 165.549 110.415 164.954C110.414 164.419 110.829 163.942 111.424 163.94C112.019 163.939 112.436 164.354 112.438 164.949C112.38 165.544 111.965 165.962 111.429 165.963ZM95.7232 166.003C95.1878 166.004 94.7108 165.589 94.7093 164.994C94.7079 164.459 95.1232 163.981 95.7181 163.98C96.313 163.978 96.7305 164.394 96.732 164.989C96.674 165.584 96.2586 166.002 95.7232 166.003ZM80.0173 166.043C79.4819 166.044 79.0049 165.629 79.0034 165.034C79.002 164.498 79.4173 164.021 80.0122 164.02C80.6071 164.018 81.0246 164.434 81.0261 165.029C80.9681 165.624 80.5527 166.041 80.0173 166.043ZM64.3114 166.082C63.776 166.084 63.299 165.668 63.2975 165.073C63.2961 164.538 63.7114 164.061 64.3063 164.059C64.9012 164.058 65.3187 164.473 65.3202 165.068C65.2622 165.663 64.8468 166.081 64.3114 166.082ZM48.6055 166.122C48.07 166.123 47.5931 165.708 47.5915 165.113C47.5902 164.578 48.0054 164.101 48.6004 164.099C49.1953 164.098 49.6128 164.513 49.6143 165.108C49.5563 165.703 49.1409 166.121 48.6055 166.122ZM32.8996 166.162C32.3641 166.163 31.8871 165.748 31.8856 165.153C31.8843 164.617 32.2995 164.14 32.8944 164.139C33.4299 164.137 33.8474 164.553 33.8489 165.148C33.8504 165.743 33.435 166.16 32.8996 166.162ZM17.1342 166.202C16.5987 166.203 16.1217 165.788 16.1202 165.193C16.1189 164.657 16.5341 164.18 17.129 164.179C17.724 164.177 18.1415 164.593 18.143 165.187C18.1445 165.782 17.7291 166.2 17.1342 166.202Z" fill="#231F20"/>
<path d="M1.38253 148.154C1.14456 148.155 0.906286 148.037 0.727359 147.858C0.548431 147.68 0.428695 147.383 0.428093 147.145C0.427492 146.907 0.545724 146.609 0.72375 146.431C0.901775 146.252 1.13945 146.132 1.43691 146.131C1.67488 146.131 1.97264 146.249 2.15157 146.427C2.27085 146.546 2.39058 146.843 2.39119 147.081C2.39194 147.378 2.33305 147.616 2.15503 147.795C1.91766 148.034 1.67999 148.154 1.38253 148.154Z" fill="#231F20"/>
<path d="M252.737 147.519C252.201 147.52 251.724 147.105 251.723 146.51C251.721 145.975 252.136 145.498 252.731 145.496C253.326 145.495 253.744 145.91 253.745 146.505C253.747 147.04 253.331 147.518 252.737 147.519ZM237.031 147.559C236.495 147.56 236.018 147.145 236.017 146.55C236.015 146.014 236.431 145.537 237.025 145.536C237.561 145.534 238.038 145.95 238.039 146.545C238.041 147.08 237.566 147.557 237.031 147.559ZM221.325 147.598C220.789 147.6 220.312 147.184 220.311 146.59C220.309 146.054 220.725 145.577 221.32 145.576C221.915 145.574 222.332 145.989 222.334 146.584C222.335 147.12 221.86 147.597 221.325 147.598ZM205.619 147.638C205.083 147.639 204.606 147.224 204.605 146.629C204.604 146.094 205.019 145.617 205.614 145.615C206.209 145.614 206.626 146.029 206.628 146.624C206.629 147.16 206.154 147.637 205.619 147.638ZM189.913 147.678C189.377 147.679 188.9 147.264 188.899 146.669C188.898 146.133 189.313 145.656 189.908 145.655C190.503 145.653 190.92 146.069 190.922 146.664C190.923 147.199 190.448 147.676 189.913 147.678ZM174.207 147.718C173.672 147.719 173.195 147.304 173.193 146.709C173.192 146.173 173.607 145.696 174.202 145.695C174.737 145.693 175.214 146.109 175.216 146.703C175.217 147.239 174.742 147.716 174.207 147.718ZM158.501 147.757C157.966 147.759 157.489 147.343 157.487 146.748C157.486 146.213 157.901 145.736 158.496 145.734C159.091 145.733 159.508 146.148 159.51 146.743C159.511 147.279 159.036 147.756 158.501 147.757ZM142.795 147.797C142.26 147.798 141.783 147.383 141.781 146.788C141.78 146.253 142.195 145.775 142.79 145.774C143.385 145.772 143.802 146.188 143.804 146.783C143.805 147.318 143.331 147.796 142.795 147.797ZM127.089 147.837C126.554 147.838 126.077 147.423 126.075 146.828C126.074 146.292 126.489 145.815 127.084 145.814C127.679 145.812 128.097 146.228 128.098 146.823C128.04 147.358 127.625 147.835 127.089 147.837ZM111.383 147.876C110.848 147.878 110.371 147.462 110.369 146.867C110.368 146.332 110.783 145.855 111.378 145.853C111.973 145.852 112.391 146.267 112.392 146.862C112.334 147.398 111.919 147.875 111.383 147.876ZM95.6774 147.916C95.142 147.917 94.665 147.502 94.6635 146.907C94.6621 146.372 95.0774 145.895 95.6723 145.893C96.2672 145.892 96.6847 146.307 96.6862 146.902C96.6281 147.438 96.2129 147.915 95.6774 147.916ZM79.9715 147.956C79.4361 147.957 78.9591 147.542 78.9576 146.947C78.9562 146.411 79.3715 145.934 79.9664 145.933C80.5613 145.931 80.9788 146.347 80.9803 146.942C80.9222 147.477 80.5069 147.954 79.9715 147.956ZM64.2656 147.995C63.7302 147.997 63.2532 147.581 63.2517 146.986C63.2503 146.451 63.6656 145.974 64.2605 145.972C64.8554 145.971 65.2729 146.386 65.2744 146.981C65.2163 147.517 64.801 147.994 64.2656 147.995ZM48.5597 148.035C48.0243 148.036 47.5473 147.621 47.5458 147.026C47.5444 146.491 47.9597 146.014 48.5546 146.012C49.1495 146.011 49.567 146.426 49.5685 147.021C49.5104 147.557 49.0951 148.034 48.5597 148.035ZM32.7943 148.075C32.2589 148.076 31.8414 147.661 31.8399 147.066C31.8385 146.53 32.2538 146.053 32.7892 146.052C33.3246 146.051 33.8016 146.466 33.8031 147.061C33.8045 147.596 33.3892 148.073 32.7943 148.075ZM17.0884 148.115C16.5529 148.116 16.076 147.701 16.0745 147.106C16.0731 146.57 16.4883 146.093 17.0833 146.092C17.6782 146.09 18.0957 146.506 18.0972 147.101C18.0985 147.636 17.6833 148.113 17.0884 148.115Z" fill="#231F20"/>
<path d="M1.33682 130.067C1.09885 130.068 0.801089 129.949 0.622161 129.771C0.443233 129.593 0.383134 129.355 0.382533 129.117C0.381931 128.879 0.500164 128.582 0.678189 128.403C0.856215 128.224 1.09404 128.164 1.3915 128.163C1.62947 128.162 1.92723 128.281 2.10616 128.459C2.40437 128.755 2.40632 129.529 2.10962 129.827C1.87195 129.947 1.63428 130.066 1.33682 130.067Z" fill="#231F20"/>
<path d="M221.279 129.511C220.744 129.512 220.267 129.097 220.265 128.502C220.264 127.967 220.679 127.49 221.274 127.488C221.869 127.487 222.286 127.902 222.288 128.497C222.289 129.032 221.814 129.51 221.279 129.511ZM205.573 129.551C205.038 129.552 204.561 129.137 204.559 128.542C204.558 128.006 204.973 127.529 205.568 127.528C206.163 127.526 206.58 127.942 206.582 128.537C206.583 129.072 206.109 129.549 205.573 129.551ZM189.867 129.59C189.332 129.592 188.855 129.176 188.853 128.582C188.852 128.046 189.267 127.569 189.862 127.567C190.457 127.566 190.875 127.981 190.876 128.576C190.877 129.112 190.403 129.589 189.867 129.59ZM174.161 129.63C173.626 129.631 173.149 129.216 173.147 128.621C173.146 128.086 173.561 127.609 174.156 127.607C174.692 127.606 175.169 128.021 175.17 128.616C175.171 129.152 174.697 129.629 174.161 129.63ZM158.455 129.67C157.92 129.671 157.443 129.256 157.441 128.661C157.44 128.125 157.855 127.648 158.45 127.647C159.045 127.645 159.463 128.061 159.464 128.656C159.466 129.191 158.991 129.668 158.455 129.67ZM142.75 129.71C142.214 129.711 141.737 129.296 141.736 128.701C141.734 128.165 142.149 127.688 142.744 127.687C143.339 127.685 143.757 128.101 143.758 128.695C143.76 129.231 143.285 129.708 142.75 129.71ZM127.044 129.749C126.508 129.751 126.031 129.335 126.03 128.74C126.028 128.205 126.444 127.728 127.038 127.726C127.633 127.725 128.051 128.14 128.052 128.735C127.994 129.271 127.579 129.748 127.044 129.749ZM111.338 129.789C110.802 129.79 110.325 129.375 110.324 128.78C110.322 128.245 110.738 127.767 111.333 127.766C111.927 127.764 112.345 128.18 112.346 128.775C112.288 129.311 111.873 129.788 111.338 129.789ZM95.6318 129.829C95.0963 129.83 94.6193 129.415 94.6178 128.82C94.6165 128.284 95.0317 127.807 95.6267 127.806C96.2216 127.804 96.6391 128.22 96.6406 128.815C96.5824 129.35 96.1672 129.827 95.6318 129.829ZM79.9259 129.868C79.3904 129.87 78.9134 129.454 78.9119 128.859C78.9106 128.324 79.3258 127.847 79.9207 127.845C80.5157 127.844 80.9332 128.259 80.9347 128.854C80.8765 129.39 80.4613 129.867 79.9259 129.868ZM64.22 129.908C63.6845 129.909 63.2075 129.494 63.206 128.899C63.2047 128.364 63.6199 127.887 64.2148 127.885C64.8098 127.884 65.2272 128.299 65.2288 128.894C65.1706 129.43 64.7554 129.907 64.22 129.908ZM48.514 129.948C47.9786 129.949 47.5016 129.534 47.5001 128.939C47.4988 128.403 47.914 127.926 48.5089 127.925C49.1038 127.923 49.5213 128.339 49.5228 128.934C49.4647 129.469 49.0495 129.946 48.514 129.948ZM32.7486 129.988C32.2132 129.989 31.7362 129.574 31.7347 128.979C31.7334 128.443 32.1486 127.966 32.7435 127.965C33.3384 127.963 33.7559 128.379 33.7574 128.973C33.7588 129.509 33.3436 129.986 32.7486 129.988ZM17.0427 130.027C16.5073 130.029 16.0303 129.613 16.0288 129.018C16.0274 128.483 16.4427 128.006 17.0376 128.004C17.6325 128.003 18.05 128.418 18.0515 129.013C18.0529 129.549 17.6376 130.026 17.0427 130.027Z" fill="#231F20"/>
<path d="M1.29089 111.92C1.05292 111.921 0.755164 111.803 0.576236 111.625C0.397308 111.447 0.277722 111.209 0.27697 110.911C0.276369 110.673 0.394601 110.376 0.572627 110.197C0.750653 110.018 0.988319 109.898 1.28578 109.897C1.52375 109.897 1.76202 110.015 1.94095 110.193C2.11988 110.371 2.17997 110.609 2.18072 110.907C2.18147 111.204 2.12258 111.442 1.94441 111.562C1.82618 111.859 1.58835 111.92 1.29089 111.92Z" fill="#231F20"/>
<path d="M189.821 111.444C189.286 111.445 188.809 111.03 188.807 110.435C188.806 109.84 189.221 109.423 189.816 109.421C190.411 109.42 190.829 109.835 190.83 110.43C190.832 111.025 190.357 111.443 189.821 111.444ZM174.115 111.484C173.58 111.485 173.103 111.07 173.102 110.475C173.1 109.88 173.515 109.462 174.11 109.461C174.646 109.459 175.123 109.875 175.124 110.47C175.126 111.065 174.651 111.482 174.115 111.484ZM158.41 111.523C157.874 111.525 157.397 111.109 157.396 110.514C157.394 109.919 157.81 109.502 158.404 109.5C158.999 109.499 159.417 109.914 159.418 110.509C159.42 111.104 158.945 111.522 158.41 111.523ZM142.704 111.563C142.168 111.564 141.691 111.149 141.69 110.554C141.688 109.959 142.104 109.542 142.699 109.54C143.293 109.539 143.711 109.954 143.712 110.549C143.714 111.144 143.239 111.562 142.704 111.563ZM126.998 111.603C126.462 111.604 125.985 111.189 125.984 110.594C125.982 109.999 126.398 109.581 126.993 109.58C127.588 109.578 128.005 109.994 128.007 110.589C128.008 111.184 127.533 111.601 126.998 111.603ZM111.292 111.642C110.756 111.644 110.279 111.228 110.278 110.633C110.276 110.039 110.692 109.621 111.287 109.619C111.882 109.618 112.299 110.033 112.301 110.628C112.302 111.223 111.827 111.641 111.292 111.642ZM95.5859 111.682C95.0505 111.683 94.5735 111.268 94.572 110.673C94.5705 110.078 94.9858 109.661 95.5808 109.659C96.1757 109.658 96.5932 110.073 96.5947 110.668C96.5962 111.263 96.1213 111.681 95.5859 111.682ZM79.88 111.722C79.3445 111.723 78.8676 111.308 78.866 110.713C78.8645 110.118 79.2799 109.7 79.8749 109.699C80.4698 109.697 80.8873 110.113 80.8888 110.708C80.8903 111.303 80.4154 111.72 79.88 111.722ZM64.1741 111.761C63.6386 111.763 63.1616 111.348 63.1601 110.753C63.1586 110.158 63.574 109.74 64.169 109.739C64.7639 109.737 65.1814 110.152 65.1829 110.747C65.1844 111.342 64.7095 111.76 64.1741 111.761ZM48.4681 111.801C47.9327 111.803 47.4557 111.387 47.4542 110.792C47.4527 110.197 47.8681 109.78 48.463 109.778C49.058 109.777 49.4754 110.192 49.477 110.787C49.4785 111.382 49.0036 111.8 48.4681 111.801ZM32.7622 111.841C32.2268 111.842 31.7498 111.427 31.7483 110.832C31.7468 110.237 32.2217 109.819 32.7571 109.818C33.2925 109.817 33.71 110.232 33.7115 110.827C33.7131 111.422 33.2977 111.84 32.7622 111.841ZM16.9968 111.881C16.4614 111.882 15.9844 111.467 15.9829 110.872C15.9814 110.277 16.3968 109.859 16.9917 109.858C17.5866 109.856 18.0041 110.272 18.0056 110.867C18.0071 111.462 17.5917 111.879 16.9968 111.881Z" fill="#231F20"/>
<path d="M1.24524 93.8328C1.00727 93.8334 0.709509 93.7152 0.530582 93.5372C0.351654 93.3591 0.232068 93.1214 0.231316 92.824C0.230715 92.586 0.348947 92.2882 0.526973 92.1092C0.704998 91.9303 0.942665 91.8107 1.24013 91.8099C1.47809 91.8093 1.71637 91.9277 1.8953 92.1058C2.07422 92.2838 2.13431 92.5217 2.13507 92.8191C2.13582 93.1166 2.07693 93.3548 1.89875 93.4742C1.78037 93.7125 1.5427 93.8321 1.24524 93.8328Z" fill="#231F20"/>
<path d="M158.364 93.4359C157.828 93.4373 157.351 93.022 157.35 92.427C157.348 91.8915 157.764 91.4145 158.359 91.413C158.954 91.4115 159.371 91.8269 159.373 92.4219C159.374 93.0169 158.899 93.4345 158.364 93.4359ZM142.658 93.4756C142.122 93.4769 141.645 93.0617 141.644 92.4667C141.643 91.9312 142.058 91.4542 142.653 91.4527C143.248 91.4512 143.665 91.8666 143.667 92.4616C143.668 93.0566 143.193 93.4742 142.658 93.4756ZM126.952 93.5153C126.416 93.5166 125.939 93.1014 125.938 92.5064C125.937 91.9709 126.352 91.4939 126.947 91.4924C127.542 91.4909 127.959 91.9063 127.961 92.5013C127.903 93.0964 127.487 93.5139 126.952 93.5153ZM111.246 93.555C110.711 93.5563 110.234 93.1411 110.232 92.5461C110.231 92.0106 110.646 91.5336 111.241 91.5321C111.836 91.5306 112.253 91.946 112.255 92.541C112.197 93.1361 111.781 93.5536 111.246 93.555ZM95.5401 93.5947C95.0047 93.596 94.5277 93.1808 94.5262 92.5858C94.5248 92.0503 94.9401 91.5733 95.535 91.5718C96.1299 91.5703 96.5474 91.9857 96.5489 92.5807C96.4909 93.1758 96.0755 93.5933 95.5401 93.5947ZM79.8342 93.6344C79.2988 93.6357 78.8218 93.2205 78.8203 92.6255C78.8189 92.09 79.2341 91.613 79.8291 91.6115C80.424 91.61 80.8415 92.0254 80.843 92.6204C80.785 93.2155 80.3696 93.633 79.8342 93.6344ZM64.1283 93.6741C63.5928 93.6754 63.1158 93.2601 63.1143 92.6652C63.113 92.1297 63.5282 91.6527 64.1232 91.6512C64.7181 91.6497 65.1356 92.0651 65.1371 92.6601C65.0791 93.2552 64.6637 93.6727 64.1283 93.6741ZM48.4224 93.7138C47.8869 93.7151 47.4099 93.2998 47.4084 92.7049C47.4071 92.1694 47.8223 91.6924 48.4172 91.6909C49.0122 91.6894 49.4297 92.1048 49.4312 92.6998C49.3732 93.2949 48.9578 93.7124 48.4224 93.7138ZM32.657 93.7536C32.1215 93.7549 31.6445 93.3397 31.643 92.7447C31.6417 92.2092 32.0569 91.7322 32.6518 91.7307C33.1873 91.7293 33.6643 92.1446 33.6658 92.7396C33.6673 93.3346 33.2519 93.7521 32.657 93.7536ZM16.951 93.7933C16.4156 93.7946 15.9386 93.3794 15.9371 92.7844C15.9358 92.2489 16.351 91.7719 16.9459 91.7704C17.5409 91.7689 17.9584 92.1843 17.9599 92.7793C17.9614 93.3743 17.546 93.7918 16.951 93.7933Z" fill="#231F20"/>
<path d="M1.19942 75.7461C0.961454 75.7467 0.723181 75.6283 0.544253 75.4502C0.365325 75.2722 0.245589 74.975 0.244988 74.737C0.244386 74.499 0.362619 74.2013 0.540644 74.0223C0.71867 73.8434 0.956345 73.7238 1.25381 73.723C1.49177 73.7224 1.78953 73.8407 1.96846 74.0187C2.14739 74.1968 2.20748 74.4346 2.20823 74.7321C2.20898 75.0296 2.1501 75.2677 1.97192 75.3871C1.73455 75.6257 1.49688 75.7453 1.19942 75.7461Z" fill="#231F20"/>
<path d="M126.906 75.4284C126.371 75.4297 125.894 75.0144 125.892 74.4195C125.891 73.884 126.306 73.407 126.901 73.4055C127.496 73.404 127.914 73.8194 127.915 74.4144C127.857 74.95 127.442 75.427 126.906 75.4284ZM111.2 75.4681C110.665 75.4694 110.188 75.0541 110.186 74.4592C110.185 73.9237 110.6 73.4467 111.195 73.4452C111.79 73.4437 112.208 73.8591 112.209 74.4541C112.151 74.9897 111.736 75.4667 111.2 75.4681ZM95.4944 75.5078C94.959 75.5091 94.482 75.0938 94.4805 74.4989C94.4792 73.9634 94.8944 73.4864 95.4893 73.4849C96.0843 73.4834 96.5018 73.8988 96.5033 74.4938C96.4451 75.0294 96.0299 75.5064 95.4944 75.5078ZM79.7885 75.5475C79.2531 75.5488 78.7761 75.1335 78.7746 74.5386C78.7733 74.0031 79.1885 73.5261 79.7834 73.5246C80.3783 73.5231 80.7958 73.9385 80.7973 74.5334C80.7392 75.0691 80.324 75.5461 79.7885 75.5475ZM64.0826 75.5871C63.5472 75.5885 63.0702 75.1732 63.0687 74.5783C63.0673 74.0428 63.4826 73.5658 64.0775 73.5642C64.6724 73.5627 65.0899 73.9782 65.0914 74.5731C65.0333 75.1088 64.6181 75.5858 64.0826 75.5871ZM48.3767 75.6268C47.8413 75.6282 47.3643 75.2129 47.3628 74.6179C47.3614 74.0825 47.7767 73.6054 48.3716 73.6039C48.9665 73.6024 49.384 74.0179 49.3855 74.6128C49.3274 75.1485 48.9121 75.6255 48.3767 75.6268ZM32.6113 75.6667C32.0759 75.668 31.6584 75.2526 31.6569 74.6576C31.6555 74.1222 32.0708 73.6451 32.6062 73.6438C33.1416 73.6424 33.6186 74.0577 33.6201 74.6527C33.6215 75.1882 33.2062 75.6652 32.6113 75.6667ZM16.9054 75.7064C16.37 75.7077 15.893 75.2925 15.8915 74.6975C15.8901 74.162 16.3054 73.685 16.9003 73.6835C17.4952 73.682 17.9127 74.0974 17.9142 74.6924C17.9156 75.2278 17.5003 75.7049 16.9054 75.7064Z" fill="#231F20"/>
<path d="M1.15374 57.6588C0.915771 57.6594 0.677498 57.541 0.49857 57.3629C0.319643 57.1849 0.199907 56.8877 0.199305 56.6497C0.198704 56.4117 0.317087 56.1734 0.495112 55.9945C0.673137 55.8155 0.970305 55.6958 1.20827 55.6952C1.44624 55.6946 1.744 55.8128 1.92293 55.9909C2.04221 56.1096 2.16195 56.4068 2.1627 56.7042C2.16345 57.0017 2.10456 57.2399 1.92654 57.4188C1.68887 57.5384 1.4512 57.658 1.15374 57.6588Z" fill="#231F20"/>
<path d="M95.4488 57.4204C94.9134 57.4217 94.4364 57.0064 94.4349 56.4115C94.4334 55.8165 94.8487 55.399 95.4437 55.3975C96.0386 55.396 96.4561 55.8114 96.4576 56.4064C96.4591 57.0013 95.9842 57.419 95.4488 57.4204ZM79.7429 57.4601C79.2074 57.4614 78.7305 57.0461 78.729 56.4512C78.7274 55.8562 79.1428 55.4387 79.7378 55.4372C80.3327 55.4356 80.7502 55.8511 80.7517 56.446C80.7532 57.041 80.2783 57.4587 79.7429 57.4601ZM64.037 57.4998C63.5015 57.5011 63.0245 57.0858 63.023 56.4909C63.0215 55.8959 63.4369 55.4783 64.0319 55.4768C64.6268 55.4753 65.0443 55.8908 65.0458 56.4857C65.0473 57.0807 64.5724 57.4984 64.037 57.4998ZM48.3311 57.5394C47.7956 57.5408 47.3186 57.1255 47.3171 56.5305C47.3156 55.9356 47.731 55.518 48.3259 55.5165C48.9209 55.515 49.3384 55.9305 49.3399 56.5254C49.3414 57.1204 48.8665 57.5381 48.3311 57.5394ZM32.5657 57.5793C32.0302 57.5806 31.6127 57.1652 31.6112 56.5702C31.6097 55.9753 32.0251 55.5577 32.5605 55.5564C33.096 55.555 33.573 55.9703 33.5745 56.5653C33.576 57.1603 33.1606 57.5778 32.5657 57.5793ZM16.8597 57.619C16.3243 57.6203 15.8473 57.2051 15.8458 56.6101C15.8443 56.0151 16.2597 55.5976 16.8546 55.5961C17.4495 55.5946 17.8671 56.01 17.8686 56.605C17.8701 57.1999 17.4547 57.6175 16.8597 57.619Z" fill="#231F20"/>
<path d="M1.10796 39.5123C0.869995 39.5129 0.631722 39.3945 0.452794 39.2164C0.273867 39.0384 0.15413 38.7412 0.153529 38.5032C0.152927 38.2652 0.27131 38.0269 0.449336 37.848C0.627361 37.6691 0.924529 37.5493 1.1625 37.5487C1.40047 37.5481 1.63873 37.6665 1.81766 37.8445C1.99659 38.0226 2.05668 38.2604 2.05744 38.5579C2.05819 38.8554 1.99929 39.0935 1.82112 39.213C1.64324 39.4514 1.40542 39.5115 1.10796 39.5123Z" fill="#231F20"/>
<path d="M63.9911 39.3533C63.4556 39.3546 62.9786 38.9393 62.9771 38.3444C62.9758 37.8089 63.391 37.3319 63.986 37.3304C64.5809 37.3289 64.9984 37.7443 64.9999 38.3393C64.9419 38.9344 64.5265 39.3519 63.9911 39.3533ZM48.2851 39.393C47.7497 39.3943 47.2727 38.979 47.2712 38.3841C47.2699 37.8486 47.6851 37.3716 48.28 37.3701C48.875 37.3686 49.2925 37.784 49.294 38.3789C49.236 38.9741 48.8206 39.3916 48.2851 39.393ZM32.5198 39.4328C31.9843 39.4341 31.5668 39.0187 31.5653 38.4238C31.564 37.8883 31.9792 37.4113 32.5146 37.4099C33.0501 37.4085 33.5271 37.8238 33.5286 38.4188C33.5301 39.0138 33.1147 39.4313 32.5198 39.4328ZM16.8138 39.4725C16.2784 39.4738 15.8014 39.0586 15.7999 38.4636C15.7986 37.9281 16.2138 37.4511 16.8087 37.4496C17.4036 37.4481 17.8212 37.8635 17.8227 38.4585C17.8242 39.0535 17.4088 39.471 16.8138 39.4725Z" fill="#231F20"/>
<path d="M1.06223 21.4247C0.824258 21.4253 0.526498 21.3071 0.34757 21.129C0.168642 20.951 0.0490561 20.7133 0.0483043 20.4158C0.0477028 20.1778 0.166086 19.9395 0.344111 19.7606C0.522137 19.5817 0.819295 19.4619 1.05726 19.4613C1.29523 19.4607 1.53351 19.5791 1.71243 19.7571C1.89136 19.9352 1.95145 20.173 1.9522 20.4705C1.95296 20.768 1.83458 21.0063 1.71604 21.1851C1.59736 21.3044 1.35969 21.424 1.06223 21.4247Z" fill="#231F20"/>
<path d="M32.5335 21.3453C31.998 21.3466 31.5211 20.9313 31.5196 20.3364C31.5182 19.8009 31.9334 19.3238 32.5284 19.3223C33.0638 19.321 33.5408 19.7363 33.5423 20.3312C33.4843 20.9264 33.0689 21.3439 32.5335 21.3453ZM16.7681 21.3851C16.2326 21.3865 15.7556 20.9712 15.7541 20.3762C15.7528 19.8407 16.168 19.3637 16.763 19.3622C17.3579 19.3607 17.7754 19.7761 17.7769 20.3711C17.7784 20.9661 17.363 21.3836 16.7681 21.3851Z" fill="#231F20"/>
<path d="M1.01644 3.33787C0.77847 3.33848 0.540197 3.22008 0.36127 3.04204C0.182342 2.864 0.062606 2.56682 0.0620045 2.32883C0.061403 2.09084 0.179635 1.79306 0.357661 1.61412C0.535686 1.43517 0.773361 1.31558 1.07082 1.31483C1.30879 1.31423 1.54705 1.43261 1.72583 1.55116C1.90476 1.7292 2.02435 1.96689 2.0251 2.26437C2.02585 2.56186 1.96696 2.8 1.78879 2.91944C1.55157 3.21753 1.3139 3.33712 1.01644 3.33787Z" fill="#231F20"/>
</svg>
