<svg width="114" height="138" viewBox="0 0 114 138" fill="none" xmlns="http://www.w3.org/2000/svg">
<g clip-path="url(#clip0)">
<path d="M28.0793 52.3846C28.7879 51.6719 29.3194 50.8701 30.1166 50.3356C38.2657 45.2575 46.5035 40.2684 54.6527 35.3685C63.8648 29.7558 72.9884 24.2323 82.2005 18.7087C82.9091 18.2633 83.7063 17.9069 84.5035 17.5505C85.3893 20.8469 85.655 41.3375 84.9464 51.3156C79.986 49.2665 75.8229 46.1484 71.3054 43.5648C66.7879 40.8921 62.2704 38.1303 57.3986 35.2794C56.3357 39.1994 56.9557 42.852 56.8671 46.4156C56.7786 49.9792 56.8671 53.5428 56.8671 57.1064C56.8671 60.7591 56.8671 64.5008 56.8671 68.6881C66.4336 62.8972 75.2914 57.5518 84.5921 51.9392C85.5664 55.9482 85.035 59.6009 85.1236 63.2536C85.2121 67.0844 85.2121 71.0044 85.1236 74.8353C85.035 78.4879 85.655 82.1406 84.5921 86.1496C75.4685 80.6261 66.6107 75.2807 57.1329 69.579C57.1329 81.3388 57.1329 92.2968 57.1329 103.255L57.2215 103.166C56.3357 102.988 55.2727 102.988 54.4755 102.453C36.4056 91.5841 18.4242 80.7152 0.44289 69.8462C0.354312 69.7571 0.265734 69.668 0 69.3117C0.265734 68.9553 0.44289 68.3317 0.885781 68.1535C9.47786 62.9863 17.9814 57.8191 26.5734 52.6519C27.0163 52.3846 27.6364 52.4737 28.1678 52.3846C28.1678 63.3427 28.1678 74.3007 28.1678 86.0606C37.6457 80.3588 46.5921 75.0134 55.8042 69.4008C54.7413 68.599 54.1212 67.9753 53.5012 67.619C46.4149 63.2536 39.3287 58.9773 32.1538 54.701C30.9138 53.721 29.4965 53.0974 28.0793 52.3846Z" fill="black"/>
<path d="M85.1234 87.1298C85.212 98.0878 85.3006 109.046 85.3006 120.717C94.9556 114.926 104.079 109.491 113.291 103.968C114.177 107.62 114.177 134.08 113.38 138C112.76 137.644 112.051 137.465 111.52 137.109C94.0698 126.507 76.5314 115.906 59.0815 105.215C58.2843 104.77 57.7528 103.879 57.1328 103.166L57.0442 103.255C64.1304 98.9787 71.2167 94.6133 78.3915 90.4261C80.606 89.1788 82.909 88.2879 85.1234 87.1298Z" fill="black"/>
<path d="M113.291 34.2104C104.079 28.5978 95.0443 23.1633 85.5664 17.4616C86.7179 16.4816 87.6037 15.5907 88.5781 14.967C96.7272 9.97801 104.876 5.07807 113.291 0.0890447C113.557 0.623583 114 1.15812 114 1.60357C114 11.938 114 22.3615 114 32.6959C113.911 32.9632 113.734 33.2305 113.291 34.2104Z" fill="black"/>
<path d="M113.557 34.7448C114.354 40.6247 114.177 65.2135 113.38 68.688C104.079 63.3426 95.0441 57.7299 85.3005 51.7609C94.867 45.881 103.902 40.2684 113.557 34.7448Z" fill="black"/>
<path d="M85.2122 87.219C85.655 86.6845 85.9208 85.8827 86.4523 85.5263C95.2215 80.1809 104.079 74.9246 113.114 69.4011C113.38 70.1138 113.911 70.7374 113.911 71.361C114 81.3391 114 91.228 113.911 101.206C113.911 101.741 113.557 102.275 113.291 103.344C109.66 101.206 106.294 99.2461 102.928 97.197C98.056 94.2571 93.1842 91.228 88.2238 88.3772C87.338 87.7535 86.1865 87.4863 85.2122 87.219Z" fill="black"/>
</g>
<defs>
<clipPath id="clip0">
<rect width="138" height="114" fill="white" transform="translate(0 138) rotate(-90)"/>
</clipPath>
</defs>
</svg>
