<svg width="115" height="132" viewBox="0 0 115 132" fill="none" xmlns="http://www.w3.org/2000/svg">
<g clip-path="url(#clip0)">
<path d="M0 66C0.256315 66.4258 0.427192 66.9368 0.768945 67.1071C38.3618 88.7381 76.0401 110.369 113.718 132C113.889 132.085 114.231 131.915 115 131.83C115 88.6529 115 45.391 115 2.21419C115 1.5329 114.744 0.936774 114.573 0C76.211 22.0568 38.1055 44.0284 0 66ZM75.6129 39.089C90.5646 38.3226 103.722 50.3303 103.722 66.4258C103.722 83.969 89.1122 93.4219 77.2363 93.7626C63.6516 94.1884 49.127 84.48 48.7853 66.7665C48.4435 50.3303 61.7719 38.9187 75.6129 39.089Z" fill="black"/>
<path d="M72.7935 53.9923C75.3567 59.6129 75.3567 61.0607 72.6226 63.36C70.2304 65.3187 68.2653 65.1484 64.7623 62.4232C62.5409 67.0219 63.9934 72.8981 68.2653 76.2194C73.3061 80.2219 79.5431 80.2219 84.7549 76.3897C89.0268 73.2387 90.7355 66.6813 88.5996 61.4865C86.5491 56.7174 80.9956 51.9484 72.7935 53.9923Z" fill="black"/>
</g>
<defs>
<clipPath id="clip0">
<rect width="132" height="115" fill="white" transform="matrix(0 1 1 0 0 0)"/>
</clipPath>
</defs>
</svg>
