<svg width="207" height="237" viewBox="0 0 207 237" fill="none" xmlns="http://www.w3.org/2000/svg">
<path d="M2.08694 213.339C1.90846 213.339 1.78932 213.28 1.67004 213.161L1.61041 213.102C1.49113 212.983 1.43115 212.805 1.43085 212.686C1.4304 212.507 1.48947 212.329 1.60816 212.209C1.72684 212.09 1.90516 212.03 2.08363 212.03C2.26211 212.029 2.44073 212.088 2.56001 212.207C2.73894 212.385 2.74029 212.92 2.56227 213.099C2.44373 213.278 2.26542 213.338 2.08694 213.339Z" fill="#231F20"/>
<path d="M42.8985 213.235C42.5415 213.236 42.2433 212.94 42.2424 212.583C42.2415 212.226 42.5382 211.927 42.8952 211.926C43.2521 211.926 43.5503 212.222 43.5512 212.579C43.5521 212.936 43.2554 213.234 42.8985 213.235ZM32.6658 213.261C32.3089 213.262 32.0107 212.965 32.0098 212.608C32.0089 212.251 32.3056 211.953 32.6625 211.952C33.0195 211.951 33.3177 212.248 33.3186 212.605C33.3195 212.962 33.0228 213.26 32.6658 213.261ZM22.4927 213.287C22.1358 213.288 21.8376 212.991 21.8367 212.634C21.8358 212.277 22.1325 211.979 22.4894 211.978C22.8464 211.977 23.1446 212.274 23.1455 212.631C23.1464 212.988 22.8497 213.286 22.4927 213.287ZM12.3196 213.313C11.9627 213.314 11.6644 213.017 11.6635 212.66C11.6626 212.303 11.9593 212.005 12.3163 212.004C12.6733 212.003 12.9714 212.3 12.9723 212.657C12.9138 213.014 12.6766 213.312 12.3196 213.313Z" fill="#231F20"/>
<path d="M2.057 201.558C1.87853 201.559 1.69991 201.5 1.58063 201.381C1.46134 201.262 1.40137 201.084 1.40092 200.906C1.40047 200.727 1.45954 200.548 1.57837 200.489C1.69705 200.369 1.87537 200.309 2.05385 200.309C2.23232 200.308 2.41094 200.367 2.53023 200.486C2.70915 200.664 2.71051 201.2 2.53248 201.379C2.4138 201.498 2.23548 201.558 2.057 201.558Z" fill="#231F20"/>
<path d="M63.2745 201.404C62.9175 201.404 62.6193 201.108 62.6184 200.751C62.6175 200.394 62.9142 200.095 63.2712 200.095C63.6281 200.094 63.9263 200.39 63.9272 200.747C63.8688 201.164 63.6314 201.403 63.2745 201.404ZM53.0419 201.429C52.6849 201.43 52.3867 201.134 52.3858 200.777C52.3849 200.42 52.6816 200.121 53.0386 200.12C53.3955 200.12 53.6937 200.416 53.6946 200.773C53.6957 201.19 53.3988 201.428 53.0419 201.429ZM42.8687 201.455C42.5118 201.456 42.2135 201.159 42.2126 200.802C42.2117 200.445 42.5085 200.147 42.8654 200.146C43.2224 200.145 43.5206 200.442 43.5215 200.799C43.5225 201.215 43.2257 201.454 42.8687 201.455ZM32.6361 201.481C32.2791 201.482 31.9809 201.185 31.98 200.828C31.9791 200.471 32.2758 200.173 32.6328 200.172C32.9897 200.171 33.2879 200.468 33.2888 200.825C33.2899 201.241 32.993 201.48 32.6361 201.481ZM22.4629 201.507C22.106 201.508 21.8078 201.211 21.8069 200.854C21.806 200.497 22.1027 200.199 22.4596 200.198C22.8166 200.197 23.1148 200.494 23.1157 200.851C23.1167 201.267 22.8199 201.506 22.4629 201.507ZM12.2898 201.532C11.9329 201.533 11.6346 201.237 11.6337 200.88C11.6328 200.523 11.9296 200.224 12.2865 200.223C12.6435 200.223 12.9417 200.519 12.9426 200.876C12.8841 201.293 12.6468 201.531 12.2898 201.532Z" fill="#231F20"/>
<path d="M2.02739 189.837C1.84891 189.838 1.67028 189.778 1.551 189.66C1.43171 189.541 1.37173 189.363 1.37128 189.184C1.37083 189.006 1.4299 188.827 1.54859 188.708C1.66728 188.589 1.8456 188.529 2.02408 188.528C2.20256 188.528 2.3812 188.587 2.44099 188.706C2.56028 188.824 2.62022 189.003 2.62067 189.181C2.62112 189.36 2.56208 189.538 2.4434 189.658C2.38421 189.777 2.20587 189.837 2.02739 189.837Z" fill="#231F20"/>
<path d="M83.5911 189.631C83.2341 189.632 82.9358 189.335 82.9349 188.978C82.934 188.621 83.2308 188.323 83.5877 188.322C83.9447 188.321 84.2429 188.618 84.2438 188.975C84.2447 189.332 83.948 189.63 83.5911 189.631ZM73.4179 189.657C73.0609 189.658 72.7627 189.361 72.7618 189.004C72.7609 188.647 73.0576 188.349 73.4145 188.348C73.7715 188.347 74.0698 188.644 74.0707 189.001C74.0716 189.357 73.7748 189.656 73.4179 189.657ZM63.2447 189.682C62.8878 189.683 62.5896 189.387 62.5887 189.03C62.5878 188.673 62.8845 188.374 63.2414 188.373C63.5984 188.372 63.8966 188.669 63.8975 189.026C63.8389 189.383 63.6017 189.681 63.2447 189.682ZM53.0121 189.708C52.6552 189.709 52.357 189.412 52.3561 189.055C52.3552 188.698 52.6519 188.4 53.0088 188.399C53.3658 188.398 53.664 188.695 53.6649 189.052C53.6658 189.409 53.3691 189.707 53.0121 189.708ZM42.839 189.734C42.482 189.735 42.1838 189.438 42.1829 189.081C42.182 188.724 42.4787 188.426 42.8357 188.425C43.1926 188.424 43.4908 188.721 43.4917 189.078C43.4926 189.435 43.1959 189.733 42.839 189.734ZM32.6063 189.76C32.2493 189.761 31.9511 189.464 31.9502 189.107C31.9493 188.75 32.246 188.452 32.603 188.451C32.9599 188.45 33.2581 188.747 33.259 189.104C33.2599 189.461 32.9633 189.759 32.6063 189.76ZM22.4332 189.785C22.0762 189.786 21.778 189.49 21.7771 189.133C21.7762 188.776 22.0729 188.477 22.4299 188.477C22.7868 188.476 23.085 188.772 23.0859 189.129C23.0868 189.486 22.7901 189.785 22.4332 189.785ZM12.26 189.811C11.9031 189.812 11.6049 189.515 11.6039 189.158C11.603 188.801 11.8998 188.503 12.2567 188.502C12.6137 188.501 12.9119 188.798 12.9128 189.155C12.8542 189.512 12.617 189.81 12.26 189.811Z" fill="#231F20"/>
<path d="M1.9977 178.057C1.81922 178.057 1.64059 177.998 1.5213 177.88C1.40202 177.761 1.34204 177.583 1.34174 177.464C1.34129 177.285 1.40036 177.106 1.51905 176.987C1.63773 176.868 1.81606 176.808 1.99454 176.807C2.17302 176.807 2.29216 176.866 2.41145 176.985C2.53074 177.104 2.59068 177.282 2.59113 177.46C2.59158 177.639 2.53254 177.818 2.41386 177.937C2.35451 177.996 2.17618 178.056 1.9977 178.057Z" fill="#231F20"/>
<path d="M103.967 177.799C103.61 177.8 103.312 177.503 103.311 177.146C103.31 176.789 103.607 176.491 103.964 176.49C104.321 176.489 104.619 176.786 104.62 177.143C104.621 177.559 104.324 177.798 103.967 177.799ZM93.7939 177.825C93.4369 177.826 93.1387 177.529 93.1378 177.172C93.1369 176.815 93.4336 176.517 93.7906 176.516C94.1475 176.515 94.4457 176.812 94.4466 177.169C94.4477 177.585 94.1508 177.824 93.7939 177.825ZM83.5613 177.851C83.2043 177.852 82.9061 177.555 82.9052 177.198C82.9043 176.841 83.201 176.543 83.558 176.542C83.9149 176.541 84.2131 176.838 84.214 177.195C84.2151 177.611 83.9182 177.85 83.5613 177.851ZM73.3881 177.876C73.0311 177.877 72.7329 177.581 72.732 177.224C72.7311 176.867 73.0278 176.568 73.3848 176.567C73.7417 176.567 74.04 176.863 74.0409 177.22C74.0419 177.637 73.745 177.875 73.3881 177.876ZM63.2149 177.902C62.858 177.903 62.5598 177.606 62.5589 177.249C62.558 176.892 62.8547 176.594 63.2116 176.593C63.5686 176.592 63.8668 176.889 63.8677 177.246C63.8093 177.663 63.5719 177.901 63.2149 177.902ZM52.9823 177.928C52.6254 177.929 52.3272 177.632 52.3263 177.275C52.3254 176.918 52.6221 176.62 52.979 176.619C53.336 176.618 53.6342 176.915 53.6351 177.272C53.6361 177.688 53.3393 177.927 52.9823 177.928ZM42.8092 177.954C42.4522 177.955 42.154 177.658 42.1531 177.301C42.1522 176.944 42.4489 176.646 42.8059 176.645C43.1628 176.644 43.461 176.941 43.4619 177.298C43.463 177.714 43.1662 177.953 42.8092 177.954ZM32.5765 177.979C32.2196 177.98 31.9214 177.684 31.9205 177.327C31.9196 176.97 32.2163 176.671 32.5732 176.671C32.9302 176.67 33.2284 176.966 33.2293 177.323C33.2303 177.74 32.9335 177.979 32.5765 177.979ZM22.4034 178.005C22.0464 178.006 21.7482 177.709 21.7473 177.352C21.7464 176.995 22.0431 176.697 22.4001 176.696C22.757 176.695 23.0552 176.992 23.0561 177.349C23.0572 177.766 22.7603 178.004 22.4034 178.005ZM12.2303 178.031C11.8733 178.032 11.5751 177.735 11.5742 177.378C11.5733 177.021 11.87 176.723 12.2269 176.722C12.5839 176.721 12.8821 177.018 12.883 177.375C12.8246 177.791 12.5872 178.03 12.2303 178.031Z" fill="#231F20"/>
<path d="M2.14612 236.84C1.96764 236.841 1.78902 236.781 1.66974 236.663C1.55045 236.544 1.49048 236.366 1.49003 236.187C1.48958 236.009 1.54865 235.83 1.66748 235.77C1.78616 235.651 1.96448 235.591 2.14296 235.591C2.32143 235.59 2.50005 235.649 2.61934 235.768C2.79826 235.946 2.79962 236.481 2.62159 236.66C2.50291 236.78 2.32459 236.84 2.14612 236.84Z" fill="#231F20"/>
<path d="M2.1165 225.06C1.93802 225.06 1.75939 225.001 1.64011 224.882C1.52082 224.764 1.46085 224.585 1.46039 224.407C1.45994 224.228 1.51901 224.05 1.6377 223.93C1.75639 223.811 1.93471 223.751 2.11319 223.751C2.29167 223.75 2.47031 223.809 2.5301 223.928C2.64939 224.047 2.70933 224.225 2.70978 224.404C2.71023 224.582 2.6512 224.761 2.53251 224.88C2.47332 224.999 2.29498 225.059 2.1165 225.06Z" fill="#231F20"/>
<path d="M22.5222 225.008C22.1653 225.009 21.8671 224.712 21.8662 224.355C21.8653 223.998 22.162 223.7 22.5189 223.699C22.8759 223.698 23.1741 223.995 23.175 224.352C23.176 224.769 22.8792 225.007 22.5222 225.008ZM12.3491 225.034C11.9922 225.035 11.694 224.738 11.6931 224.381C11.6922 224.024 11.9889 223.726 12.3458 223.725C12.7028 223.724 13.001 224.021 13.0019 224.378C12.9434 224.794 12.7061 225.033 12.3491 225.034Z" fill="#231F20"/>
<path d="M1.96808 166.336C1.78959 166.336 1.61096 166.277 1.49167 166.158C1.37238 166.04 1.31241 165.861 1.31196 165.683C1.31151 165.504 1.37058 165.326 1.48927 165.206C1.60796 165.087 1.78628 165.027 1.96477 165.027C2.14325 165.026 2.32188 165.085 2.44117 165.204C2.56046 165.323 2.6204 165.501 2.62085 165.679C2.6213 165.858 2.56227 166.037 2.44343 166.096C2.32489 166.275 2.14656 166.335 1.96808 166.336Z" fill="#231F20"/>
<path d="M124.343 166.026C123.986 166.027 123.688 165.73 123.687 165.373C123.686 165.017 123.983 164.718 124.34 164.717C124.697 164.716 124.995 165.013 124.996 165.37C124.997 165.727 124.7 166.025 124.343 166.026ZM114.17 166.052C113.813 166.053 113.515 165.756 113.514 165.399C113.513 165.042 113.81 164.744 114.167 164.743C114.524 164.742 114.822 165.039 114.823 165.396C114.764 165.753 114.468 166.051 114.17 166.052ZM103.937 166.078C103.58 166.079 103.282 165.782 103.281 165.425C103.28 165.068 103.577 164.77 103.934 164.769C104.291 164.768 104.589 165.065 104.59 165.422C104.591 165.779 104.294 166.077 103.937 166.078ZM93.7643 166.104C93.4074 166.104 93.1092 165.808 93.1083 165.451C93.1074 165.094 93.4041 164.796 93.761 164.795C94.118 164.794 94.4162 165.09 94.4171 165.447C94.418 165.804 94.1213 166.103 93.7643 166.104ZM83.5317 166.129C83.1748 166.13 82.8765 165.834 82.8756 165.477C82.8747 165.12 83.1714 164.821 83.5284 164.821C83.8854 164.82 84.1836 165.116 84.1845 165.473C84.1854 165.83 83.8887 166.129 83.5317 166.129ZM73.3585 166.155C73.0016 166.156 72.7034 165.859 72.7025 165.502C72.7016 165.145 72.9982 164.847 73.3552 164.846C73.7121 164.845 74.0104 165.142 74.0113 165.499C74.0122 165.856 73.7155 166.154 73.3585 166.155ZM63.1854 166.181C62.8284 166.182 62.5302 165.885 62.5293 165.528C62.5284 165.171 62.8251 164.873 63.1821 164.872C63.539 164.871 63.8372 165.168 63.8381 165.525C63.7795 165.882 63.5423 166.18 63.1854 166.181ZM52.9528 166.207C52.5958 166.208 52.2976 165.911 52.2967 165.554C52.2958 165.197 52.5925 164.899 52.9495 164.898C53.3064 164.897 53.6046 165.194 53.6055 165.551C53.6064 165.908 53.3097 166.206 52.9528 166.207ZM42.7796 166.232C42.4227 166.233 42.1244 165.937 42.1235 165.58C42.1226 165.223 42.4194 164.924 42.7763 164.924C43.1333 164.923 43.4315 165.219 43.4324 165.576C43.4333 165.933 43.1366 166.232 42.7796 166.232ZM32.547 166.258C32.19 166.259 31.8918 165.962 31.8909 165.605C31.89 165.249 32.1867 164.95 32.5437 164.949C32.9006 164.948 33.1988 165.245 33.1997 165.602C33.2006 165.959 32.9039 166.257 32.547 166.258ZM22.3738 166.284C22.0169 166.285 21.7187 165.988 21.7178 165.631C21.7169 165.274 22.0136 164.976 22.3705 164.975C22.7275 164.974 23.0257 165.271 23.0266 165.628C23.0275 165.985 22.7308 166.283 22.3738 166.284ZM12.2007 166.31C11.8438 166.311 11.5455 166.014 11.5446 165.657C11.5437 165.3 11.8405 165.002 12.1974 165.001C12.5544 165 12.8526 165.297 12.8535 165.654C12.7949 166.011 12.5577 166.309 12.2007 166.31Z" fill="#231F20"/>
<path d="M1.93854 154.615C1.76005 154.615 1.58142 154.556 1.46213 154.438C1.34284 154.319 1.28287 154.141 1.28242 153.962C1.28196 153.784 1.34104 153.605 1.45973 153.486C1.57842 153.366 1.75674 153.306 1.93523 153.306C2.11371 153.306 2.29234 153.365 2.41163 153.483C2.53092 153.602 2.59071 153.721 2.59131 153.959C2.59176 154.137 2.53273 154.316 2.41404 154.435C2.2952 154.495 2.11702 154.614 1.93854 154.615Z" fill="#231F20"/>
<path d="M144.719 154.254C144.362 154.255 144.064 153.958 144.063 153.601C144.062 153.244 144.359 152.946 144.716 152.945C145.073 152.944 145.371 153.241 145.372 153.598C145.373 153.955 145.076 154.253 144.719 154.254ZM134.487 154.28C134.13 154.281 133.832 153.984 133.831 153.627C133.83 153.27 134.127 152.972 134.484 152.971C134.84 152.97 135.139 153.267 135.14 153.624C135.14 153.981 134.844 154.279 134.487 154.28ZM124.314 154.306C123.957 154.307 123.659 154.01 123.658 153.653C123.657 153.296 123.953 152.998 124.31 152.997C124.667 152.996 124.966 153.292 124.966 153.649C124.967 154.006 124.671 154.305 124.314 154.306ZM114.141 154.331C113.784 154.332 113.485 154.035 113.484 153.678C113.484 153.322 113.78 153.023 114.137 153.022C114.494 153.021 114.792 153.318 114.793 153.675C114.735 154.032 114.438 154.331 114.141 154.331ZM103.908 154.357C103.551 154.358 103.253 154.061 103.252 153.704C103.251 153.347 103.548 153.049 103.905 153.048C104.262 153.047 104.56 153.344 104.561 153.701C104.562 154.058 104.265 154.356 103.908 154.357ZM93.7348 154.383C93.3778 154.384 93.0796 154.087 93.0787 153.73C93.0778 153.373 93.3745 153.075 93.7315 153.074C94.0884 153.073 94.3866 153.37 94.3875 153.727C94.3884 154.084 94.0917 154.382 93.7348 154.383ZM83.5022 154.409C83.1452 154.41 82.847 154.113 82.846 153.756C82.8451 153.399 83.1419 153.101 83.4989 153.1C83.8558 153.099 84.154 153.396 84.1549 153.753C84.1558 154.11 83.8591 154.408 83.5022 154.409ZM73.329 154.434C72.972 154.435 72.6738 154.139 72.6729 153.782C72.672 153.425 72.9687 153.126 73.3257 153.126C73.6826 153.125 73.9809 153.421 73.9818 153.778C73.9827 154.135 73.6859 154.434 73.329 154.434ZM63.1558 154.46C62.7989 154.461 62.5007 154.164 62.4998 153.807C62.4989 153.45 62.7956 153.152 63.1525 153.151C63.5095 153.15 63.8077 153.447 63.8086 153.804C63.75 154.161 63.5128 154.459 63.1558 154.46ZM52.9232 154.486C52.5663 154.487 52.2681 154.19 52.2672 153.833C52.2663 153.476 52.563 153.178 52.9199 153.177C53.2769 153.176 53.5751 153.473 53.576 153.83C53.5769 154.187 53.2802 154.485 52.9232 154.486ZM42.7501 154.512C42.3932 154.513 42.0949 154.216 42.094 153.859C42.0931 153.502 42.3898 153.204 42.7468 153.203C43.1038 153.202 43.4019 153.499 43.4029 153.856C43.4038 154.213 43.1071 154.511 42.7501 154.512ZM32.5174 154.538C32.1605 154.539 31.8623 154.242 31.8614 153.885C31.8605 153.528 32.1572 153.23 32.5141 153.229C32.8711 153.228 33.1693 153.524 33.1702 153.881C33.1711 154.238 32.8744 154.537 32.5174 154.538ZM22.3443 154.563C21.9873 154.564 21.6891 154.267 21.6882 153.91C21.6873 153.554 21.984 153.255 22.341 153.254C22.6979 153.253 22.9961 153.55 22.997 153.907C22.9979 154.264 22.7013 154.562 22.3443 154.563ZM12.1712 154.589C11.8142 154.59 11.516 154.293 11.5151 153.936C11.5142 153.579 11.8109 153.281 12.1679 153.28C12.5248 153.279 12.823 153.576 12.8239 153.933C12.7653 154.29 12.5281 154.588 12.1712 154.589Z" fill="#231F20"/>
<path d="M1.90875 142.834C1.73027 142.835 1.55164 142.776 1.43235 142.657C1.31306 142.538 1.25308 142.36 1.25263 142.181C1.25218 142.003 1.31125 141.824 1.42994 141.705C1.54863 141.586 1.72696 141.526 1.90544 141.525C2.08393 141.525 2.26255 141.584 2.38185 141.702C2.50114 141.821 2.56092 141.94 2.56153 142.178C2.56198 142.357 2.50294 142.535 2.38425 142.654C2.26556 142.774 2.08723 142.834 1.90875 142.834Z" fill="#231F20"/>
<path d="M165.095 142.422C164.739 142.423 164.44 142.126 164.439 141.769C164.439 141.412 164.735 141.114 165.092 141.113C165.449 141.112 165.747 141.409 165.748 141.766C165.749 142.123 165.393 142.421 165.095 142.422ZM154.863 142.448C154.506 142.448 154.208 142.152 154.207 141.795C154.206 141.438 154.503 141.14 154.86 141.139C155.217 141.138 155.515 141.434 155.516 141.791C155.517 142.148 155.22 142.447 154.863 142.448ZM144.69 142.473C144.333 142.474 144.035 142.177 144.034 141.82C144.033 141.463 144.329 141.165 144.686 141.164C145.043 141.163 145.342 141.46 145.342 141.817C145.343 142.174 145.047 142.472 144.69 142.473ZM134.457 142.499C134.1 142.5 133.802 142.203 133.801 141.846C133.8 141.489 134.097 141.191 134.454 141.19C134.811 141.189 135.109 141.486 135.11 141.843C135.111 142.2 134.814 142.498 134.457 142.499ZM124.284 142.525C123.927 142.526 123.629 142.229 123.628 141.872C123.627 141.515 123.924 141.217 124.281 141.216C124.638 141.215 124.936 141.512 124.937 141.869C124.938 142.226 124.641 142.524 124.284 142.525ZM114.111 142.551C113.754 142.551 113.456 142.255 113.455 141.898C113.454 141.541 113.751 141.243 114.108 141.242C114.464 141.241 114.763 141.537 114.764 141.894C114.764 142.251 114.408 142.55 114.111 142.551ZM103.878 142.576C103.521 142.577 103.223 142.281 103.222 141.924C103.221 141.567 103.518 141.268 103.875 141.267C104.232 141.267 104.53 141.563 104.531 141.92C104.532 142.277 104.235 142.576 103.878 142.576ZM93.705 142.602C93.3481 142.603 93.0499 142.306 93.049 141.949C93.048 141.592 93.3447 141.294 93.7017 141.293C94.0586 141.292 94.3568 141.589 94.3577 141.946C94.3586 142.303 94.062 142.601 93.705 142.602ZM83.4724 142.628C83.1154 142.629 82.8172 142.332 82.8163 141.975C82.8154 141.618 83.1121 141.32 83.4691 141.319C83.826 141.318 84.1242 141.615 84.1251 141.972C84.126 142.329 83.8294 142.627 83.4724 142.628ZM73.2992 142.654C72.9422 142.655 72.644 142.358 72.6431 142.001C72.6422 141.644 72.9389 141.346 73.2959 141.345C73.6528 141.344 73.9511 141.641 73.952 141.998C73.9529 142.355 73.6561 142.653 73.2992 142.654ZM63.1261 142.679C62.7691 142.68 62.4709 142.384 62.47 142.027C62.4691 141.67 62.7658 141.371 63.1228 141.37C63.4797 141.37 63.7779 141.666 63.7788 142.023C63.7797 142.38 63.483 142.679 63.1261 142.679ZM52.8935 142.705C52.5365 142.706 52.2383 142.409 52.2374 142.052C52.2365 141.695 52.5332 141.397 52.8901 141.396C53.2471 141.395 53.5453 141.692 53.5462 142.049C53.5471 142.406 53.2504 142.704 52.8935 142.705ZM42.7203 142.731C42.3634 142.732 42.0651 142.435 42.0642 142.078C42.0633 141.721 42.3601 141.423 42.717 141.422C43.074 141.421 43.3722 141.718 43.3731 142.075C43.374 142.432 43.0773 142.73 42.7203 142.731ZM32.4876 142.757C32.1307 142.758 31.8325 142.461 31.8316 142.104C31.8307 141.747 32.1274 141.449 32.4843 141.448C32.8413 141.447 33.1395 141.744 33.1404 142.101C33.1413 142.458 32.8446 142.756 32.4876 142.757ZM22.3145 142.783C21.9576 142.783 21.6594 142.487 21.6585 142.13C21.6576 141.773 21.9543 141.475 22.3112 141.474C22.6682 141.473 22.9664 141.769 22.9673 142.126C22.9682 142.483 22.6715 142.782 22.3145 142.783ZM12.1414 142.808C11.7844 142.809 11.4862 142.512 11.4853 142.155C11.4844 141.798 11.7811 141.5 12.1381 141.499C12.495 141.498 12.7932 141.795 12.7941 142.152C12.795 142.509 12.4983 142.807 12.1414 142.808Z" fill="#231F20"/>
<path d="M1.87911 131.113C1.70063 131.114 1.58148 131.054 1.46219 130.936C1.3429 130.817 1.28296 130.639 1.28251 130.46C1.28206 130.282 1.34109 130.103 1.45993 130.043C1.57862 129.924 1.75695 129.864 1.93544 129.864C2.11392 129.863 2.29255 129.922 2.41184 130.041C2.53113 130.16 2.59095 130.278 2.59155 130.516C2.59201 130.695 2.53293 130.874 2.41409 130.933C2.23576 130.993 2.0576 131.113 1.87911 131.113Z" fill="#231F20"/>
<path d="M185.412 130.65C185.055 130.65 184.757 130.354 184.756 129.997C184.755 129.64 185.052 129.342 185.409 129.341C185.766 129.34 186.064 129.636 186.065 129.993C186.066 130.35 185.769 130.649 185.412 130.65ZM175.239 130.675C174.882 130.676 174.584 130.379 174.583 130.022C174.582 129.665 174.879 129.367 175.236 129.366C175.592 129.365 175.891 129.662 175.892 130.019C175.892 130.376 175.596 130.674 175.239 130.675ZM165.066 130.701C164.709 130.702 164.411 130.405 164.41 130.048C164.409 129.691 164.705 129.393 165.062 129.392C165.419 129.391 165.718 129.688 165.718 130.045C165.66 130.402 165.363 130.7 165.066 130.701ZM154.833 130.727C154.476 130.728 154.178 130.431 154.177 130.074C154.176 129.717 154.473 129.419 154.83 129.418C155.187 129.417 155.485 129.714 155.486 130.071C155.487 130.428 155.19 130.726 154.833 130.727ZM144.66 130.753C144.303 130.753 144.005 130.457 144.004 130.1C144.003 129.743 144.3 129.445 144.657 129.444C145.014 129.443 145.312 129.739 145.313 130.096C145.314 130.453 145.017 130.752 144.66 130.753ZM134.427 130.778C134.07 130.779 133.772 130.483 133.771 130.126C133.77 129.769 134.067 129.47 134.424 129.469C134.781 129.469 135.079 129.765 135.08 130.122C135.081 130.479 134.784 130.778 134.427 130.778ZM124.254 130.804C123.897 130.805 123.599 130.508 123.598 130.151C123.597 129.794 123.894 129.496 124.251 129.495C124.608 129.494 124.906 129.791 124.907 130.148C124.908 130.505 124.611 130.803 124.254 130.804ZM114.081 130.83C113.724 130.831 113.426 130.534 113.425 130.177C113.424 129.82 113.721 129.522 114.078 129.521C114.435 129.52 114.733 129.817 114.734 130.174C114.675 130.531 114.378 130.829 114.081 130.83ZM103.848 130.856C103.491 130.857 103.193 130.56 103.192 130.203C103.191 129.846 103.488 129.548 103.845 129.547C104.202 129.546 104.5 129.843 104.501 130.2C104.502 130.557 104.205 130.855 103.848 130.856ZM93.6752 130.881C93.3183 130.882 93.0201 130.586 93.0192 130.229C93.0183 129.872 93.3149 129.573 93.6719 129.572C94.0289 129.572 94.3271 129.868 94.328 130.225C94.3289 130.582 94.0322 130.881 93.6752 130.881ZM83.4426 130.907C83.0856 130.908 82.7874 130.611 82.7865 130.254C82.7856 129.897 83.0823 129.599 83.4393 129.598C83.7962 129.597 84.0944 129.894 84.0953 130.251C84.0962 130.608 83.7996 130.906 83.4426 130.907ZM73.2694 130.933C72.9125 130.934 72.6143 130.637 72.6133 130.28C72.6124 129.923 72.9091 129.625 73.2661 129.624C73.623 129.623 73.9213 129.92 73.9222 130.277C73.9231 130.634 73.6264 130.932 73.2694 130.933ZM63.0963 130.959C62.7393 130.96 62.4411 130.663 62.4402 130.306C62.4393 129.949 62.736 129.651 63.093 129.65C63.4499 129.649 63.7481 129.946 63.749 130.303C63.6904 130.66 63.4532 130.958 63.0963 130.959ZM52.8637 130.985C52.5067 130.985 52.2085 130.689 52.2076 130.332C52.2067 129.975 52.5034 129.677 52.8604 129.676C53.2173 129.675 53.5155 129.971 53.5164 130.328C53.5173 130.685 53.2206 130.984 52.8637 130.985ZM42.6905 131.01C42.3336 131.011 42.0353 130.714 42.0344 130.357C42.0335 130 42.3303 129.702 42.6872 129.701C43.0442 129.7 43.3424 129.997 43.3433 130.354C43.3442 130.711 43.0475 131.009 42.6905 131.01ZM32.4579 131.036C32.1009 131.037 31.8027 130.74 31.8018 130.383C31.8009 130.026 32.0976 129.728 32.4546 129.727C32.8115 129.726 33.1097 130.023 33.1106 130.38C33.1115 130.737 32.8148 131.035 32.4579 131.036ZM22.2847 131.062C21.9278 131.063 21.6296 130.766 21.6287 130.409C21.6278 130.052 21.9245 129.754 22.2814 129.753C22.6384 129.752 22.9366 130.049 22.9375 130.406C22.9384 130.763 22.6417 131.061 22.2847 131.062ZM12.1116 131.088C11.7546 131.088 11.4564 130.792 11.4555 130.435C11.4546 130.078 11.7513 129.78 12.1083 129.779C12.4652 129.778 12.7634 130.074 12.7643 130.431C12.7058 130.789 12.4686 131.087 12.1116 131.088Z" fill="#231F20"/>
<path d="M1.84924 119.333C1.67077 119.333 1.49215 119.274 1.37286 119.155C1.25358 119.037 1.19361 118.858 1.1933 118.739C1.19285 118.561 1.25192 118.382 1.37061 118.263C1.48929 118.144 1.66761 118.084 1.84608 118.083C2.02456 118.083 2.20318 118.142 2.32246 118.261C2.50139 118.439 2.50274 118.974 2.32472 119.153C2.20603 119.272 2.02772 119.332 1.84924 119.333Z" fill="#231F20"/>
<path d="M205.788 118.818C205.431 118.819 205.133 118.522 205.132 118.165C205.131 117.808 205.428 117.51 205.785 117.509C206.142 117.508 206.44 117.805 206.441 118.162C206.442 118.519 206.145 118.817 205.788 118.818ZM195.615 118.843C195.258 118.844 194.96 118.548 194.959 118.191C194.958 117.834 195.255 117.535 195.612 117.535C195.969 117.534 196.267 117.83 196.268 118.187C196.269 118.544 195.972 118.843 195.615 118.843ZM185.382 118.869C185.025 118.87 184.727 118.573 184.726 118.216C184.725 117.86 185.022 117.561 185.379 117.56C185.736 117.559 186.034 117.856 186.035 118.213C186.036 118.57 185.739 118.868 185.382 118.869ZM175.209 118.895C174.852 118.896 174.554 118.599 174.553 118.242C174.552 117.885 174.849 117.587 175.206 117.586C175.563 117.585 175.861 117.882 175.862 118.239C175.863 118.596 175.566 118.894 175.209 118.895ZM165.036 118.921C164.679 118.922 164.381 118.625 164.38 118.268C164.379 117.911 164.676 117.613 165.033 117.612C165.39 117.611 165.688 117.908 165.689 118.265C165.63 118.622 165.334 118.92 165.036 118.921ZM154.804 118.947C154.447 118.947 154.148 118.651 154.147 118.294C154.147 117.937 154.443 117.639 154.8 117.638C155.157 117.637 155.455 117.933 155.456 118.29C155.457 118.647 155.161 118.946 154.804 118.947ZM144.63 118.972C144.273 118.973 143.975 118.676 143.974 118.319C143.973 117.962 144.27 117.664 144.627 117.663C144.984 117.662 145.282 117.959 145.283 118.316C145.284 118.673 144.987 118.971 144.63 118.972ZM134.398 118.998C134.041 118.999 133.743 118.702 133.742 118.345C133.741 117.988 134.037 117.69 134.394 117.689C134.751 117.688 135.05 117.985 135.05 118.342C135.051 118.699 134.755 118.997 134.398 118.998ZM124.225 119.024C123.868 119.025 123.569 118.728 123.569 118.371C123.568 118.014 123.864 117.716 124.221 117.715C124.578 117.714 124.876 118.011 124.877 118.368C124.878 118.725 124.582 119.023 124.225 119.024ZM114.051 119.05C113.695 119.05 113.396 118.754 113.395 118.397C113.394 118.04 113.691 117.742 114.048 117.741C114.405 117.74 114.703 118.036 114.704 118.393C114.646 118.751 114.349 119.049 114.051 119.05ZM103.819 119.075C103.462 119.076 103.164 118.78 103.163 118.423C103.162 118.066 103.459 117.767 103.815 117.766C104.172 117.766 104.471 118.062 104.472 118.419C104.472 118.776 104.176 119.075 103.819 119.075ZM93.6457 119.101C93.2887 119.102 92.9905 118.805 92.9896 118.448C92.9887 118.091 93.2854 117.793 93.6424 117.792C93.9993 117.791 94.2975 118.088 94.2984 118.445C94.2993 118.802 94.0026 119.1 93.6457 119.101ZM83.4131 119.127C83.0561 119.128 82.7578 118.831 82.7569 118.474C82.756 118.117 83.0528 117.819 83.4098 117.818C83.7667 117.817 84.0649 118.114 84.0658 118.471C84.0667 118.828 83.77 119.126 83.4131 119.127ZM73.2399 119.153C72.8829 119.154 72.5847 118.857 72.5838 118.5C72.5829 118.143 72.8796 117.845 73.2366 117.844C73.5935 117.843 73.8918 118.14 73.8927 118.497C73.8936 118.854 73.5968 119.152 73.2399 119.153ZM63.0667 119.178C62.7098 119.179 62.4116 118.883 62.4107 118.526C62.4098 118.169 62.7065 117.87 63.0634 117.869C63.4204 117.869 63.7186 118.165 63.7195 118.522C63.6609 118.879 63.4237 119.178 63.0667 119.178ZM52.8341 119.204C52.4772 119.205 52.179 118.908 52.1781 118.551C52.1772 118.194 52.4739 117.896 52.8308 117.895C53.1878 117.894 53.486 118.191 53.4869 118.548C53.4878 118.905 53.1911 119.203 52.8341 119.204ZM42.661 119.23C42.304 119.231 42.0058 118.934 42.0049 118.577C42.004 118.22 42.3007 117.922 42.6577 117.921C43.0146 117.92 43.3128 118.217 43.3137 118.574C43.3146 118.931 43.018 119.229 42.661 119.23ZM32.4283 119.256C32.0714 119.257 31.7732 118.96 31.7723 118.603C31.7714 118.246 32.0681 117.948 32.425 117.947C32.782 117.946 33.0802 118.243 33.0811 118.6C33.082 118.957 32.7853 119.255 32.4283 119.256ZM22.2552 119.282C21.8982 119.282 21.6 118.986 21.5991 118.629C21.5982 118.272 21.8949 117.974 22.2519 117.973C22.6088 117.972 22.907 118.268 22.9079 118.625C22.9088 118.982 22.6121 119.281 22.2552 119.282ZM12.0821 119.307C11.7251 119.308 11.4269 119.011 11.426 118.654C11.4251 118.297 11.7218 117.999 12.0788 117.998C12.4357 117.997 12.7339 118.294 12.7348 118.651C12.6762 119.008 12.439 119.306 12.0821 119.307Z" fill="#231F20"/>
<path d="M1.81968 107.612C1.6412 107.613 1.52205 107.553 1.40277 107.435C1.28348 107.316 1.22354 107.138 1.22309 106.959C1.22264 106.781 1.28167 106.602 1.40036 106.483C1.51905 106.363 1.69737 106.303 1.87585 106.303C2.05433 106.303 2.23296 106.362 2.35224 106.48C2.53118 106.658 2.53253 107.194 2.3545 107.373C2.17632 107.492 1.99816 107.612 1.81968 107.612Z" fill="#231F20"/>
<path d="M185.353 107.148C184.996 107.149 184.697 106.852 184.697 106.495C184.696 106.138 184.992 105.84 185.349 105.839C185.706 105.838 186.005 106.135 186.005 106.492C186.006 106.849 185.71 107.147 185.353 107.148ZM175.179 107.174C174.823 107.175 174.524 106.878 174.523 106.521C174.523 106.164 174.819 105.866 175.176 105.865C175.533 105.864 175.831 106.161 175.832 106.518C175.833 106.875 175.536 107.173 175.179 107.174ZM165.006 107.2C164.649 107.2 164.351 106.904 164.35 106.547C164.349 106.19 164.646 105.891 165.003 105.891C165.36 105.89 165.658 106.186 165.659 106.543C165.601 106.901 165.304 107.199 165.006 107.2ZM154.774 107.225C154.417 107.226 154.119 106.93 154.118 106.573C154.117 106.216 154.413 105.917 154.77 105.916C155.127 105.916 155.426 106.212 155.426 106.569C155.427 106.926 155.131 107.224 154.774 107.225ZM144.601 107.251C144.244 107.252 143.945 106.955 143.945 106.598C143.944 106.241 144.24 105.943 144.597 105.942C144.954 105.941 145.252 106.238 145.253 106.595C145.254 106.952 144.958 107.25 144.601 107.251ZM134.368 107.277C134.011 107.278 133.713 106.981 133.712 106.624C133.711 106.267 134.008 105.969 134.365 105.968C134.722 105.967 135.02 106.264 135.021 106.621C135.022 106.978 134.725 107.276 134.368 107.277ZM124.195 107.303C123.838 107.304 123.54 107.007 123.539 106.65C123.538 106.293 123.835 105.995 124.192 105.994C124.548 105.993 124.847 106.29 124.848 106.647C124.848 107.004 124.552 107.302 124.195 107.303ZM114.022 107.328C113.665 107.329 113.366 107.033 113.366 106.676C113.365 106.319 113.661 106.02 114.018 106.019C114.375 106.019 114.674 106.315 114.674 106.672C114.616 107.029 114.319 107.328 114.022 107.328ZM103.789 107.354C103.432 107.355 103.134 107.058 103.133 106.701C103.132 106.344 103.429 106.046 103.786 106.045C104.143 106.044 104.441 106.341 104.442 106.698C104.443 107.055 104.146 107.353 103.789 107.354ZM93.6159 107.38C93.2589 107.381 92.9607 107.084 92.9598 106.727C92.9589 106.37 93.2556 106.072 93.6126 106.071C93.9695 106.07 94.2677 106.367 94.2686 106.724C94.2695 107.081 93.9728 107.379 93.6159 107.38ZM83.3833 107.406C83.0263 107.407 82.7281 107.11 82.7272 106.753C82.7262 106.396 83.023 106.098 83.38 106.097C83.7369 106.096 84.0351 106.393 84.036 106.75C84.0369 107.107 83.7402 107.405 83.3833 107.406ZM73.2101 107.432C72.8531 107.432 72.5549 107.136 72.554 106.779C72.5531 106.422 72.8498 106.123 73.2068 106.123C73.5637 106.122 73.862 106.418 73.8629 106.775C73.8638 107.132 73.567 107.431 73.2101 107.432ZM63.0369 107.457C62.68 107.458 62.3818 107.161 62.3809 106.804C62.38 106.447 62.6767 106.149 63.0336 106.148C63.3906 106.147 63.6888 106.444 63.6897 106.801C63.6311 107.158 63.3939 107.456 63.0369 107.457ZM52.8043 107.483C52.4474 107.484 52.1492 107.187 52.1483 106.83C52.1474 106.473 52.4441 106.175 52.801 106.174C53.158 106.173 53.4562 106.47 53.4571 106.827C53.458 107.184 53.1613 107.482 52.8043 107.483ZM42.6312 107.509C42.2743 107.51 41.976 107.213 41.9751 106.856C41.9742 106.499 42.271 106.201 42.6279 106.2C42.9849 106.199 43.2831 106.496 43.284 106.853C43.2849 107.21 42.9882 107.508 42.6312 107.509ZM32.3985 107.535C32.0416 107.536 31.7434 107.239 31.7425 106.882C31.7416 106.525 32.0383 106.227 32.3952 106.226C32.7522 106.225 33.0504 106.522 33.0513 106.879C33.0522 107.236 32.7555 107.534 32.3985 107.535ZM22.2254 107.56C21.8685 107.561 21.5703 107.265 21.5693 106.908C21.5684 106.551 21.8651 106.252 22.2221 106.251C22.579 106.251 22.8772 106.547 22.8781 106.904C22.879 107.261 22.5824 107.559 22.2254 107.56ZM12.0523 107.586C11.6953 107.587 11.3971 107.29 11.3962 106.933C11.3953 106.576 11.692 106.278 12.049 106.277C12.4059 106.276 12.7041 106.573 12.705 106.93C12.6464 107.287 12.4092 107.585 12.0523 107.586Z" fill="#231F20"/>
<path d="M1.78991 95.8314C1.61143 95.8318 1.49228 95.7726 1.37299 95.6539C1.25369 95.5352 1.19376 95.3569 1.1933 95.1784C1.19285 94.9999 1.25189 94.8213 1.37058 94.702C1.48927 94.5827 1.6676 94.5227 1.84608 94.5223C2.02457 94.5218 2.2032 94.5809 2.32249 94.6996C2.38214 94.7589 2.44209 94.9373 2.44254 95.1157C2.44299 95.2942 2.38395 95.4729 2.26526 95.5922C2.14672 95.771 1.9684 95.8309 1.78991 95.8314Z" fill="#231F20"/>
<path d="M164.977 95.4193C164.62 95.4202 164.321 95.1234 164.321 94.7665C164.32 94.4095 164.616 94.1112 164.973 94.1103C165.33 94.1094 165.628 94.4062 165.629 94.7631C165.63 95.1201 165.274 95.4185 164.977 95.4193ZM154.744 95.4451C154.387 95.446 154.089 95.1493 154.088 94.7923C154.087 94.4353 154.384 94.1371 154.741 94.1362C155.098 94.1353 155.396 94.432 155.397 94.789C155.398 95.146 155.101 95.4442 154.744 95.4451ZM144.571 95.4708C144.214 95.4717 143.916 95.175 143.915 94.818C143.914 94.461 144.211 94.1628 144.567 94.1619C144.924 94.161 145.223 94.4577 145.224 94.8147C145.224 95.1717 144.928 95.4699 144.571 95.4708ZM134.338 95.4967C133.981 95.4976 133.683 95.2009 133.682 94.8439C133.681 94.4869 133.978 94.1887 134.335 94.1878C134.692 94.1868 134.99 94.4836 134.991 94.8406C134.992 95.1976 134.695 95.4958 134.338 95.4967ZM124.165 95.5224C123.808 95.5233 123.51 95.2266 123.509 94.8696C123.508 94.5126 123.805 94.2144 124.162 94.2135C124.519 94.2126 124.817 94.5093 124.818 94.8663C124.819 95.2233 124.522 95.5215 124.165 95.5224ZM113.992 95.5481C113.635 95.549 113.337 95.2523 113.336 94.8953C113.335 94.5383 113.632 94.2401 113.989 94.2392C114.346 94.2383 114.644 94.535 114.645 94.892C114.646 95.249 114.289 95.5474 113.992 95.5481ZM103.759 95.574C103.402 95.5749 103.104 95.2782 103.103 94.9212C103.102 94.5642 103.399 94.2659 103.756 94.265C104.113 94.2641 104.411 94.5609 104.412 94.9179C104.413 95.2748 104.116 95.5731 103.759 95.574ZM93.5861 95.5997C93.2292 95.6006 92.931 95.3039 92.9301 94.9469C92.9292 94.5899 93.2258 94.2916 93.5828 94.2907C93.9397 94.2898 94.2379 94.5866 94.2388 94.9436C94.2398 95.3006 93.9431 95.5988 93.5861 95.5997ZM83.3535 95.6256C82.9965 95.6265 82.6983 95.3297 82.6974 94.9727C82.6965 94.6158 82.9932 94.3175 83.3502 94.3166C83.7071 94.3157 84.0053 94.6124 84.0062 94.9694C84.0071 95.3264 83.7105 95.6247 83.3535 95.6256ZM73.1803 95.6513C72.8233 95.6522 72.5251 95.3554 72.5242 94.9984C72.5233 94.6415 72.82 94.3432 73.177 94.3423C73.5339 94.3414 73.8322 94.6382 73.8331 94.9951C73.834 95.3521 73.5372 95.6504 73.1803 95.6513ZM63.0072 95.677C62.6502 95.6779 62.352 95.3811 62.3511 95.0242C62.3502 94.6672 62.6469 94.3689 63.0039 94.368C63.3608 94.3671 63.659 94.6639 63.6599 95.0209C63.6608 95.3778 63.3641 95.6761 63.0072 95.677ZM52.7746 95.7028C52.4176 95.7037 52.1194 95.407 52.1185 95.05C52.1176 94.693 52.4143 94.3948 52.7713 94.3939C53.1282 94.393 53.4264 94.6897 53.4273 95.0467C53.4282 95.4037 53.1315 95.7019 52.7746 95.7028ZM42.6014 95.7286C42.2445 95.7295 41.9462 95.4327 41.9453 95.0757C41.9444 94.7187 42.2412 94.4205 42.5981 94.4196C42.9551 94.4187 43.2533 94.7154 43.2542 95.0724C43.2551 95.4294 42.9584 95.7277 42.6014 95.7286ZM32.3687 95.7544C32.0118 95.7553 31.7136 95.4586 31.7127 95.1016C31.7118 94.7446 32.0085 94.4464 32.3654 94.4455C32.7224 94.4446 33.0206 94.7413 33.0215 95.0983C33.0224 95.4553 32.7257 95.7535 32.3687 95.7544ZM22.1956 95.7801C21.8387 95.781 21.5405 95.4843 21.5396 95.1273C21.5387 94.7703 21.8354 94.4721 22.1923 94.4712C22.5493 94.4703 22.8475 94.767 22.8484 95.124C22.8493 95.481 22.5526 95.7792 22.1956 95.7801ZM12.0225 95.8058C11.6655 95.8067 11.3673 95.51 11.3664 95.153C11.3655 94.796 11.6622 94.4978 12.0192 94.4969C12.3761 94.496 12.6743 94.7927 12.6752 95.1497C12.6761 95.5067 12.3794 95.8049 12.0225 95.8058Z" fill="#231F20"/>
<path d="M1.76013 84.1106C1.58165 84.111 1.40303 84.052 1.28375 83.9333C1.16447 83.8146 1.10449 83.6363 1.10419 83.5173C1.10374 83.3388 1.16281 83.1601 1.28149 83.0408C1.40018 82.9215 1.5785 82.8616 1.75697 82.8611C1.93545 82.8607 2.11407 82.9197 2.23335 83.0384C2.41228 83.2165 2.41363 83.7519 2.23561 83.9309C2.11692 84.0502 1.93861 84.1101 1.76013 84.1106Z" fill="#231F20"/>
<path d="M144.541 83.7496C144.184 83.7505 143.886 83.4538 143.885 83.0968C143.884 82.7398 144.181 82.4416 144.538 82.4407C144.895 82.4398 145.193 82.7365 145.194 83.0935C145.195 83.4505 144.898 83.7487 144.541 83.7496ZM134.309 83.7755C133.952 83.7764 133.653 83.4797 133.653 83.1227C133.652 82.7657 133.948 82.4675 134.305 82.4666C134.662 82.4657 134.96 82.7624 134.961 83.1194C134.962 83.4764 134.666 83.7746 134.309 83.7755ZM124.135 83.8012C123.779 83.8021 123.48 83.5054 123.479 83.1484C123.479 82.7914 123.775 82.4932 124.132 82.4923C124.489 82.4914 124.787 82.7881 124.788 83.1451C124.789 83.5021 124.492 83.8003 124.135 83.8012ZM113.962 83.8269C113.605 83.8278 113.307 83.5311 113.306 83.1741C113.305 82.8171 113.602 82.5189 113.959 82.518C114.316 82.5171 114.614 82.8138 114.615 83.1708C114.557 83.5279 114.26 83.8262 113.962 83.8269ZM103.73 83.8528C103.373 83.8537 103.075 83.557 103.074 83.2C103.073 82.843 103.369 82.5447 103.726 82.5438C104.083 82.5429 104.382 82.8397 104.382 83.1967C104.383 83.5536 104.087 83.8519 103.73 83.8528ZM93.5566 83.8785C93.1996 83.8794 92.9014 83.5827 92.9005 83.2257C92.8996 82.8687 93.1963 82.5705 93.5532 82.5696C93.9102 82.5687 94.2084 82.8654 94.2093 83.2224C94.2102 83.5794 93.9135 83.8776 93.5566 83.8785ZM83.324 83.9044C82.967 83.9053 82.6687 83.6085 82.6678 83.2515C82.6669 82.8946 82.9637 82.5963 83.3206 82.5954C83.6776 82.5945 83.9758 82.8913 83.9767 83.2482C83.9776 83.6052 83.6809 83.9035 83.324 83.9044ZM73.1507 83.9301C72.7938 83.931 72.4956 83.6342 72.4947 83.2773C72.4938 82.9203 72.7905 82.622 73.1474 82.6211C73.5044 82.6202 73.8027 82.917 73.8036 83.2739C73.8045 83.6309 73.5077 83.9292 73.1507 83.9301ZM62.9776 83.9558C62.6207 83.9567 62.3225 83.6599 62.3216 83.303C62.3207 82.946 62.6174 82.6477 62.9743 82.6468C63.3313 82.6459 63.6295 82.9427 63.6304 83.2997C63.5718 83.6568 63.3346 83.9549 62.9776 83.9558ZM52.745 83.9816C52.3881 83.9825 52.0899 83.6858 52.089 83.3288C52.0881 82.9718 52.3848 82.6736 52.7417 82.6727C53.0987 82.6718 53.3969 82.9685 53.3978 83.3255C53.3987 83.6825 53.102 83.9807 52.745 83.9816ZM42.5719 84.0073C42.2149 84.0083 41.9167 83.7115 41.9158 83.3545C41.9149 82.9976 42.2116 82.6993 42.5686 82.6984C42.9255 82.6975 43.2237 82.9942 43.2246 83.3512C43.2255 83.7082 42.9288 84.0064 42.5719 84.0073ZM32.3392 84.0332C31.9823 84.0341 31.6841 83.7374 31.6832 83.3804C31.6822 83.0234 31.9789 82.7252 32.3359 82.7243C32.6928 82.7234 32.991 83.0201 32.9919 83.3771C32.9929 83.7341 32.6962 84.0323 32.3392 84.0332ZM22.1661 84.0589C21.8091 84.0598 21.5109 83.7631 21.51 83.4061C21.5091 83.0491 21.8058 82.7509 22.1628 82.75C22.5197 82.7491 22.8179 83.0458 22.8188 83.4028C22.8197 83.7598 22.523 84.058 22.1661 84.0589ZM11.9929 84.0846C11.636 84.0855 11.3378 83.7888 11.3369 83.4318C11.336 83.0748 11.6327 82.7766 11.9896 82.7757C12.3466 82.7748 12.6448 83.0715 12.6457 83.4285C12.5871 83.7856 12.3499 84.0837 11.9929 84.0846Z" fill="#231F20"/>
<path d="M1.73051 72.3302C1.55203 72.3307 1.37341 72.2716 1.25412 72.1529C1.13483 72.0343 1.07486 71.8559 1.07441 71.6774C1.07396 71.4989 1.13303 71.3203 1.25171 71.201C1.3704 71.0817 1.54872 71.0217 1.7272 71.0213C1.90568 71.0208 2.02483 71.08 2.14412 71.1987C2.26341 71.3174 2.32334 71.4958 2.32379 71.6743C2.32424 71.8528 2.26521 72.0314 2.14637 72.0912C2.08733 72.2698 1.90899 72.3298 1.73051 72.3302Z" fill="#231F20"/>
<path d="M124.106 72.0209C123.749 72.0218 123.451 71.7251 123.45 71.3681C123.449 71.0111 123.745 70.7129 124.102 70.712C124.459 70.7111 124.758 71.0078 124.758 71.3648C124.759 71.7218 124.463 72.02 124.106 72.0209ZM113.933 72.0466C113.576 72.0476 113.277 71.7508 113.276 71.3938C113.276 71.0368 113.572 70.7386 113.929 70.7377C114.286 70.7368 114.584 71.0335 114.585 71.3905C114.527 71.7477 114.23 72.0459 113.933 72.0466ZM103.7 72.0725C103.343 72.0734 103.045 71.7767 103.044 71.4197C103.043 71.0627 103.34 70.7645 103.697 70.7636C104.054 70.7627 104.352 71.0594 104.353 71.4164C104.354 71.7734 104.057 72.0716 103.7 72.0725ZM93.5268 72.0982C93.1698 72.0991 92.8716 71.8024 92.8707 71.4454C92.8698 71.0884 93.1665 70.7902 93.5235 70.7893C93.8804 70.7884 94.1786 71.0851 94.1795 71.4421C94.1804 71.7991 93.8837 72.0973 93.5268 72.0982ZM83.2942 72.1241C82.9372 72.125 82.6389 71.8282 82.638 71.4713C82.6371 71.1143 82.9339 70.816 83.2908 70.8151C83.6478 70.8142 83.946 71.111 83.9469 71.468C83.9478 71.8249 83.6511 72.1232 83.2942 72.1241ZM73.121 72.1498C72.764 72.1507 72.4658 71.854 72.4649 71.497C72.464 71.14 72.7607 70.8418 73.1176 70.8409C73.4746 70.8399 73.7729 71.1367 73.7738 71.4937C73.7747 71.8507 73.4779 72.1489 73.121 72.1498ZM62.9478 72.1755C62.5909 72.1764 62.2927 71.8797 62.2918 71.5227C62.2909 71.1657 62.5876 70.8675 62.9445 70.8666C63.3015 70.8657 63.5997 71.1624 63.6006 71.5194C63.542 71.8765 63.3048 72.1746 62.9478 72.1755ZM52.7152 72.2014C52.3583 72.2023 52.0601 71.9055 52.0592 71.5485C52.0583 71.1916 52.355 70.8933 52.7119 70.8924C53.0689 70.8915 53.3671 71.1883 53.368 71.5452C53.3689 71.9022 53.0722 72.2005 52.7152 72.2014ZM42.5421 72.2271C42.1851 72.228 41.8869 71.9312 41.886 71.5743C41.8851 71.2173 42.1818 70.919 42.5388 70.9181C42.8957 70.9172 43.1939 71.214 43.1948 71.571C43.1957 71.9279 42.899 72.2262 42.5421 72.2271ZM32.3094 72.2529C31.9525 72.2538 31.6543 71.9571 31.6534 71.6001C31.6525 71.2431 31.9492 70.9449 32.3061 70.944C32.6631 70.9431 32.9613 71.2398 32.9622 71.5968C32.9631 71.9538 32.6664 72.252 32.3094 72.2529ZM22.1363 72.2786C21.7793 72.2795 21.4811 71.9828 21.4802 71.6258C21.4793 71.2688 21.776 70.9706 22.133 70.9697C22.4899 70.9688 22.7881 71.2655 22.789 71.6225C22.7899 71.9795 22.4932 72.2777 22.1363 72.2786ZM11.9632 72.3044C11.6062 72.3053 11.308 72.0085 11.3071 71.6515C11.3062 71.2946 11.6029 70.9963 11.9599 70.9954C12.3168 70.9945 12.615 71.2912 12.6159 71.6482C12.5573 72.0054 12.3201 72.3035 11.9632 72.3044Z" fill="#231F20"/>
<path d="M1.70097 60.609C1.52249 60.6095 1.34387 60.5504 1.22458 60.4318C1.10529 60.3131 1.04532 60.1347 1.04487 59.9562C1.04442 59.7777 1.10349 59.5991 1.22217 59.4798C1.34086 59.3605 1.51918 59.3006 1.69766 59.3001C1.87614 59.2997 1.99529 59.3589 2.11458 59.4775C2.23386 59.5962 2.2938 59.7746 2.29425 59.9531C2.2947 60.1316 2.23567 60.3102 2.11683 60.37C2.05779 60.5486 1.87945 60.6086 1.70097 60.609Z" fill="#231F20"/>
<path d="M103.67 60.3513C103.313 60.3522 103.015 60.0555 103.014 59.6985C103.013 59.3415 103.31 59.0433 103.667 59.0424C104.024 59.0415 104.322 59.3382 104.323 59.6952C104.324 60.0522 104.027 60.3504 103.67 60.3513ZM93.4973 60.377C93.1403 60.3779 92.8421 60.0812 92.8412 59.7242C92.8403 59.3672 93.137 59.069 93.494 59.0681C93.8509 59.0672 94.1491 59.3639 94.15 59.7209C94.1509 60.0779 93.8542 60.3761 93.4973 60.377ZM83.2647 60.4029C82.9077 60.4038 82.6094 60.1071 82.6085 59.7501C82.6076 59.3931 82.9044 59.0949 83.2613 59.0939C83.6183 59.093 83.9165 59.3898 83.9174 59.7468C83.9183 60.1038 83.6216 60.402 83.2647 60.4029ZM73.0914 60.4286C72.7345 60.4295 72.4363 60.1328 72.4354 59.7758C72.4345 59.4188 72.7312 59.1206 73.0881 59.1197C73.4451 59.1188 73.7434 59.4155 73.7443 59.7725C73.7452 60.1295 73.4484 60.4277 73.0914 60.4286ZM62.9183 60.4543C62.5614 60.4552 62.2632 60.1585 62.2623 59.8015C62.2614 59.4445 62.5581 59.1463 62.915 59.1454C63.272 59.1445 63.5702 59.4412 63.5711 59.7982C63.5125 60.1553 63.2753 60.4534 62.9183 60.4543ZM52.6857 60.4802C52.3288 60.4811 52.0306 60.1843 52.0297 59.8274C52.0287 59.4704 52.3254 59.1721 52.6824 59.1712C53.0393 59.1703 53.3375 59.4671 53.3384 59.8241C53.3393 60.181 53.0427 60.4793 52.6857 60.4802ZM42.5126 60.5059C42.1556 60.5068 41.8573 60.2101 41.8564 59.8531C41.8555 59.4961 42.1523 59.1978 42.5093 59.1969C42.8662 59.196 43.1644 59.4928 43.1653 59.8498C43.1662 60.2067 42.8695 60.505 42.5126 60.5059ZM32.2799 60.5317C31.9229 60.5326 31.6247 60.2359 31.6238 59.8789C31.6229 59.5219 31.9196 59.2237 32.2766 59.2228C32.6335 59.2219 32.9317 59.5186 32.9326 59.8756C32.9335 60.2326 32.6368 60.5308 32.2799 60.5317ZM22.1068 60.5575C21.7498 60.5584 21.4516 60.2616 21.4507 59.9046C21.4498 59.5477 21.7465 59.2494 22.1034 59.2485C22.4604 59.2476 22.7586 59.5443 22.7595 59.9013C22.7604 60.2583 22.4637 60.5566 22.1068 60.5575ZM11.9336 60.5832C11.5767 60.5841 11.2784 60.2873 11.2775 59.9304C11.2766 59.5734 11.5734 59.2751 11.9303 59.2742C12.2873 59.2733 12.5855 59.5701 12.5864 59.927C12.5278 60.2842 12.2906 60.5823 11.9336 60.5832Z" fill="#231F20"/>
<path d="M1.67101 48.8289C1.49253 48.8294 1.37338 48.7702 1.25409 48.6515C1.1348 48.5328 1.07486 48.3544 1.07441 48.176C1.07396 47.9975 1.13299 47.8188 1.25168 47.6995C1.37037 47.5802 1.5487 47.5203 1.72718 47.5198C1.90567 47.5194 2.0843 47.5784 2.20359 47.6971C2.32288 47.8158 2.38285 47.9942 2.3833 48.1726C2.38375 48.3511 2.3247 48.5298 2.26536 48.5894C2.02783 48.7685 1.8495 48.8285 1.67101 48.8289Z" fill="#231F20"/>
<path d="M83.2349 48.6226C82.8779 48.6235 82.5796 48.3268 82.5787 47.9698C82.5778 47.6128 82.8746 47.3146 83.2315 47.3137C83.5885 47.3128 83.8867 47.6095 83.8876 47.9665C83.8886 48.383 83.5918 48.6217 83.2349 48.6226ZM73.0616 48.6483C72.7047 48.6492 72.4065 48.3525 72.4056 47.9955C72.4047 47.6385 72.7014 47.3403 73.0583 47.3394C73.4153 47.3385 73.7136 47.6352 73.7145 47.9922C73.7155 48.4087 73.4186 48.6474 73.0616 48.6483ZM62.8885 48.674C62.5316 48.6749 62.2334 48.3782 62.2325 48.0212C62.2316 47.6642 62.5283 47.366 62.8852 47.3651C63.2422 47.3642 63.5404 47.6609 63.5413 48.0179C63.4828 48.4345 63.2455 48.6731 62.8885 48.674ZM52.6559 48.6999C52.299 48.7008 52.0008 48.4041 51.9999 48.0471C51.999 47.6901 52.2957 47.3919 52.6526 47.391C53.0096 47.3901 53.3078 47.6868 53.3087 48.0438C53.3097 48.4603 53.0129 48.699 52.6559 48.6999ZM42.4828 48.7256C42.1258 48.7265 41.8276 48.4298 41.8267 48.0728C41.8258 47.7158 42.1225 47.4176 42.4795 47.4167C42.8364 47.4158 43.1346 47.7125 43.1355 48.0695C43.1366 48.486 42.8397 48.7247 42.4828 48.7256ZM32.2501 48.7515C31.8931 48.7524 31.5949 48.4556 31.594 48.0987C31.5931 47.7417 31.8898 47.4434 32.2468 47.4425C32.6037 47.4416 32.9019 47.7384 32.9028 48.0953C32.9039 48.5118 32.607 48.7506 32.2501 48.7515ZM22.077 48.7772C21.72 48.7781 21.4218 48.4813 21.4209 48.1244C21.42 47.7674 21.7167 47.4691 22.0737 47.4682C22.4306 47.4673 22.7288 47.7641 22.7297 48.1211C22.7308 48.5375 22.4339 48.7763 22.077 48.7772ZM11.9038 48.8029C11.5469 48.8038 11.2486 48.5071 11.2477 48.1501C11.2468 47.7931 11.5436 47.4949 11.9005 47.494C12.2575 47.493 12.5557 47.7898 12.5566 48.1468C12.4981 48.5634 12.2608 48.802 11.9038 48.8029Z" fill="#231F20"/>
<path d="M1.64156 37.1078C1.46308 37.1083 1.34393 37.0491 1.22464 36.9304C1.10535 36.8117 1.04541 36.6333 1.04496 36.4548C1.04451 36.2763 1.10355 36.0977 1.22239 36.0379C1.34107 35.9186 1.5194 35.8587 1.69789 35.8582C1.87637 35.8578 2.055 35.9168 2.17429 36.0355C2.29358 36.1542 2.3534 36.273 2.35401 36.511C2.35446 36.6895 2.29538 36.8682 2.1767 36.9875C1.99836 37.0474 1.82005 37.1074 1.64156 37.1078Z" fill="#231F20"/>
<path d="M62.8587 36.9529C62.5017 36.9538 62.2035 36.657 62.2026 36.3C62.2017 35.943 62.4984 35.6448 62.8554 35.6439C63.2123 35.643 63.5105 35.9397 63.5114 36.2967C63.4528 36.6539 63.2156 36.9519 62.8587 36.9529ZM52.6261 36.9787C52.2691 36.9796 51.9709 36.6829 51.97 36.3259C51.9691 35.9689 52.2658 35.6707 52.6228 35.6698C52.9797 35.6689 53.2779 35.9656 53.2788 36.3226C53.2797 36.6796 52.983 36.9778 52.6261 36.9787ZM42.453 37.0044C42.096 37.0053 41.7977 36.7086 41.7968 36.3516C41.7959 35.9946 42.0927 35.6964 42.4497 35.6955C42.8066 35.6946 43.1048 35.9913 43.1057 36.3483C43.1066 36.7053 42.8099 37.0035 42.453 37.0044ZM32.2203 37.0303C31.8633 37.0312 31.5651 36.7344 31.5642 36.3775C31.5633 36.0205 31.86 35.7222 32.217 35.7213C32.5739 35.7204 32.8721 36.0172 32.873 36.3742C32.8739 36.7311 32.5772 37.0294 32.2203 37.0303ZM22.0472 37.056C21.6902 37.0569 21.392 36.7602 21.3911 36.4032C21.3902 36.0462 21.6869 35.748 22.0439 35.747C22.4008 35.7461 22.699 36.0429 22.6999 36.3999C22.7008 36.7569 22.4041 37.0551 22.0472 37.056ZM11.8741 37.0817C11.5171 37.0826 11.2189 36.7859 11.218 36.4289C11.2171 36.0719 11.5138 35.7737 11.8707 35.7728C12.2277 35.7719 12.5259 36.0686 12.5268 36.4256C12.4682 36.7827 12.231 37.0808 11.8741 37.0817Z" fill="#231F20"/>
<path d="M1.61178 25.327C1.4333 25.3275 1.31415 25.2683 1.19486 25.1496C1.07557 25.0309 1.01563 24.8526 1.01518 24.6741C1.01472 24.4956 1.07376 24.3169 1.1926 24.2571C1.31129 24.1378 1.48962 24.0779 1.66811 24.0774C1.84659 24.077 1.96574 24.1362 2.08503 24.2549C2.20432 24.3736 2.26426 24.5519 2.26471 24.7304C2.26516 24.9089 2.20613 25.0875 2.08729 25.1473C1.9686 25.2666 1.79027 25.3266 1.61178 25.327Z" fill="#231F20"/>
<path d="M42.4232 25.2241C42.0662 25.225 41.7679 24.9283 41.767 24.5713C41.7661 24.2143 42.0629 23.9161 42.4198 23.9152C42.7768 23.9143 43.075 24.211 43.0759 24.568C43.0769 24.9845 42.7801 25.2232 42.4232 25.2241ZM32.1905 25.25C31.8335 25.2509 31.5353 24.9542 31.5344 24.5972C31.5335 24.2402 31.8302 23.942 32.1872 23.9411C32.5441 23.9402 32.8423 24.2369 32.8432 24.5939C32.8443 25.0104 32.5474 25.2491 32.1905 25.25ZM22.0174 25.2757C21.6604 25.2766 21.3622 24.9799 21.3613 24.6229C21.3604 24.2659 21.6571 23.9677 22.0141 23.9668C22.371 23.9659 22.6692 24.2626 22.6701 24.6196C22.6712 25.0361 22.3743 25.2748 22.0174 25.2757ZM11.8443 25.3014C11.4873 25.3023 11.1891 25.0056 11.1882 24.6486C11.1873 24.2916 11.484 23.9934 11.841 23.9925C12.1979 23.9916 12.4961 24.2883 12.497 24.6453C12.4386 25.0619 12.2012 25.3005 11.8443 25.3014Z" fill="#231F20"/>
<path d="M1.58217 13.6062C1.40369 13.6066 1.22506 13.5476 1.10578 13.4289C0.986489 13.3102 0.926515 13.1319 0.926064 12.9534C0.925613 12.7749 0.984685 12.5962 1.10352 12.5364C1.22221 12.4171 1.40053 12.3572 1.57901 12.3567C1.75749 12.3563 1.87664 12.4155 1.99592 12.5342C2.11521 12.6529 2.17515 12.8312 2.1756 13.0097C2.17605 13.1882 2.11702 13.3668 1.99833 13.4861C1.93899 13.5458 1.76065 13.6057 1.58217 13.6062Z" fill="#231F20"/>
<path d="M21.9878 13.5545C21.6308 13.5554 21.3326 13.2587 21.3317 12.9017C21.3308 12.5447 21.6275 12.2465 21.9845 12.2456C22.3414 12.2447 22.6396 12.5414 22.6405 12.8984C22.6414 13.2554 22.3447 13.5536 21.9878 13.5545ZM11.8147 13.5802C11.4578 13.5811 11.1595 13.2844 11.1586 12.9274C11.1577 12.5704 11.4545 12.2722 11.8114 12.2713C12.1684 12.2704 12.4666 12.5671 12.4675 12.9241C12.4089 13.2812 12.1717 13.5793 11.8147 13.5802Z" fill="#231F20"/>
<path d="M1.55236 1.82599C1.37388 1.82644 1.25473 1.76725 1.13544 1.64855C1.01615 1.52986 0.956207 1.35152 0.955756 1.17302C0.955305 0.994533 1.01434 0.815891 1.13303 0.696595C1.25172 0.5773 1.43005 0.517352 1.60853 0.516901C1.78702 0.51645 1.90617 0.575646 2.02546 0.69434C2.14475 0.813034 2.20469 0.991375 2.20514 1.16987C2.20559 1.34836 2.14656 1.527 2.02772 1.5868C1.90918 1.76559 1.73085 1.82554 1.55236 1.82599Z" fill="#231F20"/>
</svg>
