<svg width="82" height="95" viewBox="0 0 82 95" fill="none" xmlns="http://www.w3.org/2000/svg">
<path d="M80.7368 2.01345L2.32186 47.5488L80.966 92.6872L80.7368 2.01345Z" stroke="black" stroke-width="1.3578" stroke-miterlimit="10"/>
<path d="M78.6045 5.76699L6.60523 47.5378L78.8148 88.9441L78.6045 5.76699Z" stroke="black" stroke-width="1.3578" stroke-miterlimit="10"/>
<path d="M76.4127 9.46175L10.9482 47.5272L76.6043 85.2613L76.4127 9.46175Z" stroke="black" stroke-width="1.3578" stroke-miterlimit="10"/>
<path d="M74.2804 13.2153L15.2316 47.5162L74.453 81.5181L74.2804 13.2153Z" stroke="black" stroke-width="1.3578" stroke-miterlimit="10"/>
<path d="M72.1482 16.9688L19.5151 47.5052L72.3019 77.775L72.1482 16.9688Z" stroke="black" stroke-width="1.3578" stroke-miterlimit="10"/>
<path d="M70.0158 20.6634L23.8579 47.4946L70.1508 74.092L70.0158 20.6634Z" stroke="black" stroke-width="1.3578" stroke-miterlimit="10"/>
<path d="M67.8836 24.417L28.1414 47.4835L67.9997 70.3489L67.8836 24.417Z" stroke="black" stroke-width="1.3578" stroke-miterlimit="10"/>
<path d="M65.6918 28.1708L32.4844 47.4725L65.789 66.6061L65.6918 28.1708Z" stroke="black" stroke-width="1.3578" stroke-miterlimit="10"/>
<path d="M63.5596 31.9249L36.7677 47.462L63.6378 62.8635L63.5596 31.9249Z" stroke="black" stroke-width="1.3578" stroke-miterlimit="10"/>
<path d="M61.4272 35.619L41.1107 47.4509L61.4868 59.1799L61.4272 35.619Z" stroke="black" stroke-width="1.3578" stroke-miterlimit="10"/>
<path d="M59.2949 39.3725L45.3941 47.4398L59.3355 55.4368L59.2949 39.3725Z" stroke="black" stroke-width="1.3578" stroke-miterlimit="10"/>
<path d="M49.6776 47.4293L57.1249 51.6943L57.1033 43.1267L49.6776 47.4293Z" stroke="black" stroke-width="1.3578" stroke-miterlimit="10"/>
</svg>
