<svg width="114" height="117" viewBox="0 0 114 117" fill="none" xmlns="http://www.w3.org/2000/svg">
<g clip-path="url(#clip0)">
<path d="M26.6897 44.8263C36.6247 39.4019 46.2229 34.6556 55.737 29.6833C65.1668 24.7863 74.6808 19.8894 84.1107 14.9924C93.7089 10.0201 103.307 5.12309 113.074 0.000106812C113.326 0.452133 113.916 0.9795 113.916 1.50687C114 9.26669 113.916 17.0265 113.916 25.0877C93.1195 35.861 72.2392 46.559 51.1904 57.4077C43.2761 53.2641 35.2776 49.1959 26.6897 44.8263Z" fill="black"/>
<path d="M0 58.4624C8.58789 54.0174 16.5864 49.8738 24.5849 45.7303C45.5495 56.5789 66.3456 67.2769 87.0576 78.0503C87.0576 86.4881 87.0576 94.6246 87.0576 102.61C86.7208 102.761 86.6366 102.912 86.5525 102.912C86.3841 102.912 86.2157 102.987 86.1315 102.912C57.6736 88.2209 29.1315 73.53 0 58.4624Z" fill="black"/>
<path d="M113.495 117C105.328 112.781 97.5818 108.863 89.7517 104.795C89.7517 83.2486 89.7517 61.7019 89.7517 39.7785C97.4977 35.7856 105.412 31.642 113.495 27.4984C114.168 30.6626 114.252 113.007 113.495 117Z" fill="black"/>
</g>
<defs>
<clipPath id="clip0">
<rect width="117" height="114" fill="white" transform="translate(0 117) rotate(-90)"/>
</clipPath>
</defs>
</svg>
