<svg width="417" height="474" viewBox="0 0 417 474" fill="none" xmlns="http://www.w3.org/2000/svg">
<path d="M306.108 140.83C309.303 142.431 312.817 144.351 316.012 145.951C318.888 155.552 314.734 160.032 307.386 162.912C293.966 153.632 293.647 150.111 306.108 140.83Z" fill="black"/>
<path d="M8.96482 226.917C14.716 226.597 19.5086 230.438 19.8281 236.198C20.1476 241.959 16.3135 246.439 10.5624 246.759C4.4917 247.079 0.657598 243.559 0.0185813 237.478C-0.300927 231.398 3.53317 227.237 8.96482 226.917Z" fill="black"/>
<path d="M297.161 66.5836C297.481 60.8231 301.954 56.9827 307.705 57.3028C313.456 57.6228 317.29 61.7831 316.971 67.5436C316.651 73.3041 312.498 77.1445 306.747 76.8244C300.995 76.5044 297.161 72.024 297.161 66.5836Z" fill="black"/>
<path d="M83.4103 268.841C89.1614 268.841 93.315 273.001 93.315 278.762C93.315 284.522 89.4809 288.683 83.4103 288.683C77.6591 288.683 73.5055 284.522 73.5055 278.762C73.5055 273.321 77.6591 268.841 83.4103 268.841Z" fill="black"/>
<path d="M367.453 39.3814C357.549 51.2225 355.312 51.2225 346.046 39.3814C346.685 33.941 348.602 29.1406 354.993 28.5005C362.661 27.8605 365.856 32.0208 367.453 39.3814Z" fill="black"/>
<path d="M390.777 448.056C391.097 453.817 387.263 458.297 381.512 458.617C376.08 458.937 371.287 454.777 370.968 449.336C370.648 443.896 374.802 439.095 380.234 438.775C385.985 438.455 390.458 442.296 390.777 448.056Z" fill="black"/>
<path d="M271.92 336.366C271.601 330.926 275.754 326.126 281.186 325.805C286.937 325.485 291.41 329.646 291.73 335.086C292.049 340.847 287.896 345.327 282.464 345.647C276.713 345.967 272.24 342.127 271.92 336.366Z" fill="black"/>
<path d="M108.971 226.918C114.722 226.918 118.876 231.079 118.876 236.839C118.876 242.6 115.042 246.76 108.971 246.76C103.22 246.76 99.0662 242.92 99.0662 236.839C99.0662 231.079 103.22 226.918 108.971 226.918Z" fill="black"/>
<path d="M390.777 336.367C390.458 342.128 386.304 345.968 380.553 345.968C374.802 345.648 370.968 341.488 370.968 335.727C370.968 330.287 375.761 326.127 381.192 326.127C386.943 326.127 391.097 330.607 390.777 336.367Z" fill="black"/>
<path d="M381.192 297.324C386.943 297.324 391.097 301.805 390.777 307.565C390.777 313.326 386.624 317.166 380.873 317.166C375.121 317.166 370.968 312.686 371.287 307.245C370.968 301.485 375.441 297.324 381.192 297.324Z" fill="black"/>
<path d="M297.161 180.194C296.842 174.753 300.996 169.953 306.747 169.633C312.178 169.313 316.651 173.473 316.971 179.233C317.291 184.994 313.456 189.154 307.705 189.474C301.954 189.794 297.481 185.954 297.161 180.194Z" fill="black"/>
<path d="M108.971 198.435C114.722 198.435 118.876 202.915 118.876 208.356C118.876 214.116 114.722 217.957 108.971 218.277C103.22 218.277 99.0662 214.436 99.3857 208.356C99.0662 202.595 103.22 198.115 108.971 198.435Z" fill="black"/>
<path d="M381.192 156.191C387.263 156.511 391.097 160.351 390.778 166.112C390.458 171.872 386.304 176.032 380.553 175.712C375.122 175.712 370.968 171.232 370.968 165.472C370.968 160.351 375.441 156.191 381.192 156.191Z" fill="black"/>
<path d="M380.553 127.709C386.304 127.389 390.458 131.549 390.777 137.309C391.097 143.07 387.263 147.23 381.512 147.55C375.76 147.87 371.607 143.71 371.287 138.27C370.648 132.509 374.802 128.029 380.553 127.709Z" fill="black"/>
<path d="M381.512 99.2266C387.263 99.5467 391.097 104.027 390.777 109.788C390.458 115.548 385.985 119.388 380.234 119.068C374.483 118.748 370.648 114.268 370.968 108.507C371.287 102.747 376.08 98.5866 381.512 99.2266Z" fill="black"/>
<path d="M390.777 80.026C391.097 86.1065 387.263 89.9469 381.192 90.2669C375.441 90.5869 370.968 86.4266 370.968 80.6661C370.648 75.2256 375.122 70.4252 380.553 70.4252C386.304 70.4252 390.458 74.2656 390.777 80.026Z" fill="black"/>
<path d="M306.747 198.436C312.498 198.116 316.971 202.276 316.971 208.037C317.291 213.797 313.137 217.958 307.386 218.278C301.635 218.598 297.162 214.437 297.162 208.677C296.842 202.916 301.315 198.436 306.747 198.436Z" fill="black"/>
<path d="M316.971 236.518C316.971 242.278 313.137 246.439 307.066 246.439C301.315 246.439 297.161 242.278 297.161 236.518C297.161 231.077 301.315 226.597 307.066 226.597C312.817 226.917 316.971 230.757 316.971 236.518Z" fill="black"/>
<path d="M99.0662 179.873C99.0662 174.112 103.22 169.952 108.971 169.952C114.403 169.952 118.876 174.112 118.876 179.873C118.876 185.633 114.722 189.793 108.971 189.793C103.22 189.473 99.0662 185.633 99.0662 179.873Z" fill="black"/>
<path d="M307.386 255.4C313.456 255.72 316.971 259.561 316.971 265.641C316.651 271.402 312.498 275.562 306.747 275.242C301.315 274.922 297.161 270.762 297.161 265.001C297.161 259.241 301.634 255.4 307.386 255.4Z" fill="black"/>
<path d="M291.73 307.244C291.73 313.005 287.896 317.165 282.145 317.485C276.713 317.485 272.24 313.325 271.92 307.884C271.601 302.444 276.074 297.963 281.506 297.643C287.257 297.323 291.73 301.484 291.73 307.244Z" fill="black"/>
<path d="M271.92 279.721C271.601 274.28 275.754 269.48 281.186 269.16C286.618 268.84 291.41 272.68 291.73 278.441C292.049 284.201 288.535 288.682 282.784 289.002C277.032 289.002 272.24 285.161 271.92 279.721Z" fill="black"/>
<path d="M281.825 156.191C287.576 156.191 291.73 160.351 291.41 166.112C291.091 171.872 286.937 176.033 281.505 176.033C275.754 176.033 271.601 171.552 271.601 165.792C271.92 160.351 276.074 156.191 281.825 156.191Z" fill="black"/>
<path d="M316.971 378.291C316.971 384.052 312.817 388.212 307.066 387.892C301.315 387.892 297.161 383.412 297.161 377.971C297.161 372.211 301.634 368.05 307.066 368.05C313.137 368.371 316.971 372.531 316.971 378.291Z" fill="black"/>
<path d="M297.161 405.812C297.481 400.372 302.274 396.212 307.705 396.532C313.456 396.852 317.29 401.652 316.651 407.093C316.332 412.533 311.539 416.693 306.108 416.053C300.676 416.053 296.842 411.253 297.161 405.812Z" fill="black"/>
<path d="M282.144 70.4244C287.896 70.7444 291.73 74.9048 291.41 80.9853C291.091 86.7458 286.937 90.5861 281.186 90.2661C275.435 89.946 271.601 85.4657 271.601 80.0252C272.24 74.5847 276.713 70.4244 282.144 70.4244Z" fill="black"/>
<path d="M281.506 127.71C287.257 127.39 291.41 131.55 291.73 137.311C291.73 143.391 287.896 147.231 282.145 147.552C276.393 147.552 272.24 143.711 271.92 137.951C271.601 132.51 276.074 127.71 281.506 127.71Z" fill="black"/>
<path d="M208.658 169.633C214.409 169.953 218.243 174.433 217.923 180.194C217.604 185.954 213.131 189.794 207.38 189.474C201.628 189.154 197.794 184.674 198.114 178.913C198.433 173.473 202.906 169.313 208.658 169.633Z" fill="black"/>
<path d="M282.145 99.2267C287.896 99.2267 291.73 103.707 291.73 109.468C291.41 115.228 287.576 119.068 281.506 119.068C275.754 119.068 271.601 114.588 271.92 108.827C271.92 103.387 276.713 98.9066 282.145 99.2267Z" fill="black"/>
<path d="M207.699 198.116C213.45 198.116 217.604 202.276 217.923 207.716C217.923 213.477 214.089 217.637 208.338 217.637C202.587 217.957 198.433 213.797 198.114 208.036C198.114 202.916 202.267 198.436 207.699 198.116Z" fill="black"/>
<path d="M217.923 236.519C218.243 242.28 214.409 246.44 208.338 246.76C202.587 247.08 198.433 243.24 198.114 237.159C197.794 231.399 201.948 227.238 207.699 226.918C213.45 226.598 217.604 230.759 217.923 236.519Z" fill="black"/>
<path d="M172.873 336.366C172.553 330.926 176.707 326.126 182.138 325.806C187.89 325.486 192.363 329.326 192.682 335.086C193.002 340.847 189.168 345.327 183.416 345.327C177.665 345.967 173.192 342.127 172.873 336.366Z" fill="black"/>
<path d="M192.682 306.605C193.002 312.366 189.168 316.846 183.736 317.166C177.985 317.486 173.512 313.646 172.873 308.205C172.234 302.765 176.387 297.964 182.138 297.644C187.57 297.004 192.043 300.845 192.682 306.605Z" fill="black"/>
<path d="M182.458 268.841C188.209 268.841 192.363 273.001 192.363 278.762C192.363 284.522 188.529 288.683 182.777 288.683C177.026 288.683 172.873 284.522 172.553 279.082C172.553 273.321 177.026 268.841 182.458 268.841Z" fill="black"/>
<path d="M183.416 127.71C189.168 128.03 193.002 132.51 192.682 138.271C192.363 144.031 188.209 147.872 182.138 147.552C176.707 147.232 172.553 142.751 172.873 136.991C172.873 131.55 177.665 127.39 183.416 127.71Z" fill="black"/>
<path d="M182.138 156.192C188.209 155.872 192.363 159.712 192.682 165.473C193.002 171.233 189.168 175.714 183.416 176.034C177.985 176.354 173.192 172.193 172.873 166.753C172.234 160.992 176.068 156.512 182.138 156.192Z" fill="black"/>
<path d="M83.0908 205.156C69.991 196.196 69.991 192.355 82.7713 183.715C97.1492 191.075 97.4687 195.236 83.0908 205.156Z" fill="black"/>
<path d="M298.12 116.828C301.635 114.908 304.51 113.627 308.344 111.707C311.22 114.588 315.054 117.148 316.332 120.668C318.888 127.709 313.456 130.909 307.705 134.429C300.037 131.869 295.564 127.069 298.12 116.828Z" fill="black"/>
<path d="M307.066 84.1859C320.486 92.5065 320.486 95.0668 308.344 105.308C302.913 104.668 298.12 102.427 297.481 96.3469C296.522 89.3063 300.996 86.106 307.066 84.1859Z" fill="black"/>
<path d="M68.7128 266.92C68.3933 272.681 64.5592 276.841 58.8081 276.841C53.0569 276.841 48.9033 272.681 48.9033 266.92C48.9033 261.16 53.0569 257.32 58.8081 257.32C64.8787 257 68.7128 260.84 68.7128 266.92Z" fill="black"/>
<path d="M68.7128 237.798C69.0324 243.558 65.1983 247.719 59.4471 248.039C53.696 248.359 49.2228 244.519 49.2228 238.758C48.9033 233.318 53.0569 228.517 58.4886 228.197C63.9202 227.877 68.3933 232.037 68.7128 237.798Z" fill="black"/>
<path d="M58.1691 199.716C63.9203 199.396 68.3934 203.236 68.7129 208.997C69.0324 214.757 65.1983 219.238 59.4472 219.558C53.696 219.878 49.2229 216.038 48.9034 210.277C48.5839 204.837 52.7375 200.036 58.1691 199.716Z" fill="black"/>
<path d="M43.7912 250.599C44.1107 256.36 40.2766 260.52 34.5255 260.84C28.7743 261.16 24.3012 257.32 24.3012 251.559C23.9817 246.119 28.1353 241.318 33.5669 240.998C39.3181 240.998 43.7912 245.159 43.7912 250.599Z" fill="black"/>
<path d="M33.5669 212.836C39.3181 212.516 43.7912 216.357 44.1107 222.117C44.4302 227.878 40.5961 232.358 34.845 232.678C28.7743 232.678 24.6207 228.838 24.3012 223.397C23.6622 217.957 28.1353 213.156 33.5669 212.836Z" fill="black"/>
<path d="M92.9956 250.6C92.6761 256.36 88.842 260.521 83.0908 260.521C77.3396 260.521 73.186 256.36 73.186 250.6C73.186 244.839 77.3396 240.999 83.0908 240.999C89.1615 240.679 92.9956 244.839 92.9956 250.6Z" fill="black"/>
<path d="M92.9956 221.477C93.3151 227.238 89.481 231.398 83.7298 231.718C77.9787 232.038 73.5055 228.198 73.5055 222.437C73.186 216.997 77.3396 212.197 82.7713 211.877C88.2029 211.557 92.6761 215.717 92.9956 221.477Z" fill="black"/>
<path d="M82.4517 183.393C88.2029 183.073 92.676 186.914 92.9955 192.674C93.315 198.435 89.4809 202.915 83.7297 203.235C77.9786 203.555 73.5055 199.715 73.186 193.954C72.8665 188.514 77.0201 183.713 82.4517 183.393Z" fill="black"/>
<path d="M118.876 292.843C119.195 298.604 115.361 302.764 109.61 303.084C103.539 303.404 99.3858 299.564 99.0662 293.803C98.7467 288.363 102.9 283.562 108.332 283.242C114.083 282.922 118.556 287.083 118.876 292.843Z" fill="black"/>
<path d="M108.332 254.759C114.083 254.439 118.556 258.279 118.876 264.04C119.195 269.8 115.361 274.281 109.61 274.601C103.859 274.921 99.3858 271.08 99.0662 265.32C98.7467 259.88 102.9 255.079 108.332 254.759Z" fill="black"/>
<path d="M132.615 240.358C138.366 240.358 142.519 244.518 142.519 250.279C142.519 256.039 138.685 260.199 132.615 260.199C126.863 260.199 122.71 256.359 122.71 250.279C122.71 244.518 126.544 240.358 132.615 240.358Z" fill="black"/>
<path d="M132.615 211.555C138.366 211.555 142.519 216.036 142.519 221.476C142.519 227.237 138.366 231.077 132.615 231.397C126.863 231.397 122.71 227.557 123.029 221.476C122.71 215.716 126.863 211.555 132.615 211.555Z" fill="black"/>
<path d="M122.71 192.995C122.71 187.234 126.863 183.074 132.615 183.074C138.046 183.074 142.519 187.234 142.519 192.995C142.519 198.755 138.366 202.916 132.615 202.916C126.863 202.916 122.71 199.075 122.71 192.995Z" fill="black"/>
<path d="M142.519 306.285C142.839 312.045 139.005 316.206 133.254 316.526C127.503 316.846 123.029 313.005 123.029 307.245C122.71 301.804 126.863 297.004 132.295 296.684C137.727 296.364 142.2 300.524 142.519 306.285Z" fill="black"/>
<path d="M131.976 268.201C137.727 267.88 142.2 271.721 142.519 277.481C142.839 283.242 139.005 287.722 133.254 288.042C127.502 288.362 123.029 284.522 122.71 278.761C122.39 273.321 126.544 268.521 131.976 268.201Z" fill="black"/>
<path d="M157.856 255.399C163.607 255.399 167.761 259.56 167.761 265.32C167.761 271.081 163.926 275.241 157.856 275.241C152.105 275.241 147.951 271.401 147.951 265.32C147.951 259.56 151.785 255.399 157.856 255.399Z" fill="black"/>
<path d="M157.856 226.918C163.607 226.918 167.761 231.399 167.761 236.839C167.761 242.6 163.607 246.44 157.856 246.76C152.105 246.76 147.951 242.92 148.271 236.839C147.951 231.079 152.105 226.918 157.856 226.918Z" fill="black"/>
<path d="M147.951 208.356C147.951 202.595 152.105 198.435 157.856 198.435C163.287 198.435 167.761 202.595 167.761 208.356C167.761 214.116 163.607 218.277 157.856 218.277C152.105 218.277 147.951 214.116 147.951 208.356Z" fill="black"/>
<path d="M167.76 321.326C168.08 327.087 164.246 331.247 158.495 331.567C152.744 331.887 148.27 328.047 148.27 322.287C147.951 316.846 152.105 312.046 157.536 311.726C162.968 311.726 167.441 315.886 167.76 321.326Z" fill="black"/>
<path d="M157.217 283.242C162.968 282.922 167.441 286.763 167.76 292.523C168.08 298.284 164.246 302.764 158.495 303.084C152.744 303.404 148.27 299.564 147.951 293.803C147.631 288.363 151.785 283.882 157.217 283.242Z" fill="black"/>
<path d="M182.458 184.674C188.209 184.674 192.363 188.835 192.363 194.595C192.363 200.356 188.529 204.516 182.458 204.516C176.707 204.516 172.553 200.676 172.553 194.595C172.553 188.835 176.707 184.674 182.458 184.674Z" fill="black"/>
<path d="M182.458 155.872C188.209 155.872 192.363 160.352 192.363 165.793C192.363 171.553 188.209 175.393 182.458 175.713C176.707 175.713 172.553 171.873 172.873 165.793C172.873 160.032 177.026 155.872 182.458 155.872Z" fill="black"/>
<path d="M172.873 137.309C172.873 131.549 177.026 127.389 182.777 127.389C188.209 127.389 192.682 131.549 192.682 137.309C192.682 143.07 188.529 147.23 182.777 147.23C176.707 147.23 172.873 143.39 172.873 137.309Z" fill="black"/>
<path d="M192.363 250.599C192.682 256.36 188.848 260.52 183.097 260.84C177.346 261.16 172.873 257.32 172.873 251.559C172.553 246.119 176.707 241.318 182.138 240.998C187.89 240.678 192.363 244.839 192.363 250.599Z" fill="black"/>
<path d="M182.138 212.517C187.89 212.197 192.363 216.037 192.682 221.798C193.002 227.558 189.168 232.039 183.416 232.359C177.665 232.679 173.192 228.839 172.873 223.078C172.234 217.638 176.707 212.837 182.138 212.517Z" fill="black"/>
<path d="M207.699 312.364C213.45 312.364 217.604 316.524 217.604 322.285C217.604 328.045 213.77 332.206 207.699 332.206C201.948 332.206 197.794 328.365 197.794 322.285C197.794 316.524 201.948 312.364 207.699 312.364Z" fill="black"/>
<path d="M208.019 283.561C213.77 283.561 217.923 288.042 217.923 293.482C217.923 299.243 213.77 303.083 208.019 303.403C202.267 303.403 198.114 299.563 198.433 293.482C198.114 287.722 202.267 283.561 208.019 283.561Z" fill="black"/>
<path d="M198.114 265.001C198.114 259.241 202.267 255.08 208.019 255.08C213.45 255.08 217.923 259.241 217.923 265.001C217.923 270.762 213.77 274.922 208.019 274.922C201.948 274.922 198.114 271.082 198.114 265.001Z" fill="black"/>
<path d="M207.38 340.207C213.131 339.887 217.604 343.727 217.923 349.487C218.243 355.248 214.409 359.728 208.658 360.048C202.906 360.368 198.433 356.528 198.114 350.768C197.794 345.327 201.948 340.527 207.38 340.207Z" fill="black"/>
<path d="M406.114 255.4C411.865 255.4 416.019 259.241 416.019 265.001C416.019 270.762 411.865 274.922 406.114 274.922C400.682 274.922 396.209 270.762 396.209 265.001C396.209 259.561 400.363 255.4 406.114 255.4Z" fill="black"/>
<path d="M405.794 226.917C411.545 226.597 415.699 230.757 416.019 236.518C416.338 242.278 412.184 246.439 406.433 246.759C400.682 247.079 396.529 242.919 396.209 237.158C396.209 231.718 400.363 226.917 405.794 226.917Z" fill="black"/>
<path d="M406.433 198.116C412.185 198.116 416.338 202.596 416.019 208.357C416.019 214.117 411.865 217.958 405.794 217.958C400.043 217.958 395.89 213.477 396.209 208.037C396.529 202.276 401.002 198.116 406.433 198.116Z" fill="black"/>
<path d="M416.019 179.234C416.338 184.995 412.185 189.475 406.753 189.475C401.002 189.795 396.529 185.635 396.529 179.874C396.209 174.434 400.682 169.633 406.114 169.633C411.545 169.633 415.699 173.474 416.019 179.234Z" fill="black"/>
<path d="M416.019 66.9034C415.699 72.6639 411.865 76.8242 406.114 76.8242C400.363 76.8242 396.209 72.6639 396.209 66.9034C396.209 61.1429 400.363 57.3026 406.114 57.3026C412.504 57.3026 416.338 61.1429 416.019 66.9034Z" fill="black"/>
<path d="M416.019 37.7811C416.338 43.5416 412.504 47.7019 406.753 48.0219C401.002 48.342 396.529 44.5017 396.529 38.7412C396.209 33.3007 400.363 28.5003 405.794 28.1803C411.545 28.1803 416.019 32.3406 416.019 37.7811Z" fill="black"/>
<path d="M405.794 0.0183788C411.545 -0.301649 416.019 3.53871 416.338 9.2992C416.658 15.0597 412.824 19.54 407.072 19.8601C401.321 20.1801 396.848 16.3398 396.529 10.5793C395.89 5.13883 400.043 0.338406 405.794 0.0183788Z" fill="black"/>
<path d="M406.114 86.1063C411.865 86.1063 416.019 90.2667 416.019 96.0271C416.019 101.788 412.184 105.948 406.114 105.948C400.363 105.948 396.209 102.108 396.209 96.0271C396.209 89.9466 400.363 86.1063 406.114 86.1063Z" fill="black"/>
<path d="M416.019 152.031C416.338 157.792 412.504 161.952 406.753 162.272C401.002 162.592 396.529 158.752 396.529 152.991C396.209 147.551 400.363 142.751 405.794 142.43C411.226 142.11 415.699 146.271 416.019 152.031Z" fill="black"/>
<path d="M405.475 113.949C411.226 113.629 415.699 117.47 416.019 123.23C416.338 128.991 412.504 133.471 406.753 133.791C401.002 134.111 396.529 130.271 396.209 124.51C395.89 119.07 400.043 114.269 405.475 113.949Z" fill="black"/>
<path d="M380.553 269.802C386.304 269.802 390.458 273.642 390.458 279.402C390.458 285.163 386.304 289.323 380.553 289.323C375.121 289.323 370.648 285.163 370.648 279.402C370.648 273.962 374.802 269.802 380.553 269.802Z" fill="black"/>
<path d="M380.234 240.999C385.985 240.679 390.138 244.84 390.458 250.6C390.777 256.361 386.624 260.521 380.873 260.841C375.122 261.161 370.968 257.001 370.648 251.24C370.329 245.8 374.483 241.319 380.234 240.999Z" fill="black"/>
<path d="M380.873 212.517C386.624 212.517 390.777 216.998 390.458 222.758C390.458 228.519 386.304 232.359 380.234 232.359C374.483 232.359 370.329 227.878 370.648 222.438C370.648 216.678 375.122 212.197 380.873 212.517Z" fill="black"/>
<path d="M390.458 193.314C390.777 199.075 386.624 203.555 381.192 203.555C375.441 203.875 370.968 199.715 370.968 193.954C370.648 188.514 375.122 183.714 380.553 183.714C385.665 183.714 390.138 187.554 390.458 193.314Z" fill="black"/>
<path d="M390.458 80.9857C390.138 86.7461 386.304 90.9065 380.553 90.9065C374.802 90.9065 370.648 86.7461 370.648 80.9857C370.648 75.2252 374.802 71.3849 380.553 71.3849C386.624 71.3849 390.777 75.2252 390.458 80.9857Z" fill="black"/>
<path d="M390.458 52.1824C390.777 57.9429 386.943 62.1033 381.192 62.4233C375.441 62.7433 370.968 58.903 370.968 53.1425C370.648 47.7021 374.802 42.9017 380.234 42.5816C385.665 42.2616 390.138 46.422 390.458 52.1824Z" fill="black"/>
<path d="M379.914 14.1004C385.665 13.7804 390.138 17.6207 390.458 23.3812C390.777 29.1417 386.943 33.6221 381.192 33.9421C375.441 34.2621 370.968 30.4218 370.648 24.6613C370.329 19.2208 374.483 14.4204 379.914 14.1004Z" fill="black"/>
<path d="M380.553 100.186C386.304 100.186 390.458 104.347 390.458 110.107C390.458 115.868 386.624 120.028 380.553 120.028C374.802 120.028 370.648 116.188 370.648 110.107C370.648 104.347 374.482 100.186 380.553 100.186Z" fill="black"/>
<path d="M390.458 166.113C390.777 171.874 386.943 176.034 381.192 176.354C375.441 176.674 370.968 172.834 370.968 167.073C370.648 161.633 374.802 156.833 380.234 156.513C385.665 156.192 390.138 160.353 390.458 166.113Z" fill="black"/>
<path d="M379.914 128.029C385.665 127.709 390.138 131.55 390.458 137.31C390.777 143.071 386.943 147.551 381.192 147.871C375.441 148.191 370.968 144.351 370.648 138.59C370.329 133.15 374.483 128.349 379.914 128.029Z" fill="black"/>
<path d="M356.59 283.881C362.341 283.881 366.495 287.722 366.495 293.482C366.495 299.243 362.341 303.403 356.59 303.403C351.158 303.403 346.685 299.243 346.685 293.482C346.685 288.042 350.839 283.881 356.59 283.881Z" fill="black"/>
<path d="M356.27 255.079C362.022 254.759 366.175 258.92 366.495 264.68C366.814 270.441 362.661 274.601 356.909 274.921C351.158 275.241 347.005 271.081 346.685 265.32C346.685 259.88 350.839 255.399 356.27 255.079Z" fill="black"/>
<path d="M356.91 226.597C362.661 226.597 366.814 231.077 366.495 236.838C366.495 242.598 362.341 246.439 356.271 246.439C350.519 246.439 346.366 241.958 346.685 236.518C347.005 230.757 351.478 226.597 356.91 226.597Z" fill="black"/>
<path d="M366.495 207.715C366.814 213.476 362.661 217.956 357.229 217.956C351.478 218.276 347.005 214.116 347.005 208.356C346.685 202.915 351.158 198.115 356.59 198.115C362.022 197.795 366.495 201.955 366.495 207.715Z" fill="black"/>
<path d="M366.495 95.3846C366.175 101.145 362.341 105.305 356.59 105.305C350.839 105.305 346.685 101.145 346.685 95.3846C346.685 89.6241 350.839 85.7838 356.59 85.7838C362.98 85.4638 366.814 89.6241 366.495 95.3846Z" fill="black"/>
<path d="M366.495 66.2623C366.814 72.0228 362.98 76.1831 357.229 76.5031C351.478 76.8232 347.005 72.9828 347.005 67.2224C346.685 61.7819 350.839 56.9815 356.271 56.6615C362.022 56.3414 366.495 60.5018 366.495 66.2623Z" fill="black"/>
<path d="M356.271 28.1803C362.022 27.8602 366.495 31.7006 366.814 37.461C367.134 43.2215 363.3 47.7019 357.549 48.0219C351.797 48.342 347.324 44.5017 347.005 38.7412C346.366 33.3007 350.519 28.5003 356.271 28.1803Z" fill="black"/>
<path d="M356.59 114.266C362.341 114.266 366.495 118.427 366.495 124.187C366.495 129.948 362.661 134.108 356.59 134.108C350.839 134.108 346.685 130.268 346.685 124.187C346.685 118.427 350.839 114.266 356.59 114.266Z" fill="black"/>
<path d="M366.495 180.193C366.814 185.954 362.98 190.114 357.229 190.434C351.478 190.754 347.005 186.914 347.005 181.153C346.685 175.713 350.839 170.912 356.271 170.592C361.702 170.592 366.175 174.433 366.495 180.193Z" fill="black"/>
<path d="M355.951 142.109C361.702 141.789 366.175 145.63 366.495 151.39C366.814 157.15 362.98 161.631 357.229 161.951C351.478 162.271 347.005 158.431 346.685 152.67C346.366 147.23 350.519 142.429 355.951 142.109Z" fill="black"/>
<path d="M331.029 297.644C336.78 297.644 340.934 301.485 340.934 307.245C340.934 313.006 336.78 317.166 331.029 317.166C325.598 317.166 321.125 313.006 321.125 307.245C321.125 301.805 325.278 297.644 331.029 297.644Z" fill="black"/>
<path d="M331.029 268.842C336.78 268.522 340.934 272.682 341.254 278.443C341.573 284.203 337.42 288.364 331.668 288.684C325.917 289.004 321.764 284.843 321.444 279.083C321.125 273.642 325.278 269.162 331.029 268.842Z" fill="black"/>
<path d="M331.349 240.36C337.1 240.36 341.254 244.84 340.934 250.601C340.934 256.361 336.781 260.202 330.71 260.202C324.959 260.202 320.805 255.721 321.125 250.281C321.444 244.52 325.917 240.36 331.349 240.36Z" fill="black"/>
<path d="M340.934 221.478C341.254 227.239 337.1 231.719 331.668 231.719C325.917 232.039 321.444 227.879 321.444 222.118C321.125 216.678 325.598 211.878 331.029 211.878C336.461 211.558 340.934 215.718 340.934 221.478Z" fill="black"/>
<path d="M340.934 109.148C340.615 114.908 336.78 119.068 331.029 119.068C325.278 119.068 321.125 114.908 321.125 109.148C321.125 103.387 325.278 99.5467 331.029 99.5467C337.419 99.2267 341.254 103.387 340.934 109.148Z" fill="black"/>
<path d="M340.934 80.0252C341.254 85.7857 337.42 89.946 331.668 90.2661C325.917 90.5861 321.444 86.7458 321.444 80.9853C321.125 75.5448 325.278 70.7444 330.71 70.4244C336.461 70.1044 340.934 74.2647 340.934 80.0252Z" fill="black"/>
<path d="M330.71 41.9432C336.461 41.6232 340.934 45.4635 341.254 51.224C341.573 56.9845 337.739 61.4648 331.988 61.7849C326.237 62.1049 321.764 58.2646 321.444 52.5041C321.125 47.0637 325.278 42.2632 330.71 41.9432Z" fill="black"/>
<path d="M331.029 128.029C336.78 128.029 340.934 132.19 340.934 137.95C340.934 143.71 337.1 147.871 331.029 147.871C325.278 147.871 321.125 144.031 321.125 137.95C321.125 132.19 325.278 128.029 331.029 128.029Z" fill="black"/>
<path d="M340.934 193.956C341.254 199.717 337.42 203.877 331.668 204.197C325.917 204.517 321.444 200.677 321.444 194.916C321.125 189.476 325.278 184.675 330.71 184.355C336.141 184.355 340.615 188.196 340.934 193.956Z" fill="black"/>
<path d="M330.39 155.872C336.142 155.552 340.615 159.392 340.934 165.153C341.254 170.913 337.42 175.394 331.668 175.714C325.917 176.034 321.444 172.194 321.125 166.433C320.805 160.993 324.959 156.192 330.39 155.872Z" fill="black"/>
<path d="M307.066 312.365C312.817 312.365 316.971 316.205 316.971 321.965C316.971 327.726 312.817 331.886 307.066 331.886C301.635 331.886 297.161 327.726 297.161 321.965C296.842 316.525 300.995 312.365 307.066 312.365Z" fill="black"/>
<path d="M306.747 283.562C312.498 283.242 316.651 287.403 316.971 293.163C317.29 298.923 313.137 303.084 307.386 303.404C301.634 303.724 297.481 299.564 297.161 293.803C296.842 288.363 300.995 283.882 306.747 283.562Z" fill="black"/>
<path d="M307.066 255.08C312.817 255.08 316.971 259.561 316.651 265.321C316.651 271.082 312.498 274.922 306.427 274.922C300.676 274.922 296.522 270.441 296.842 265.001C297.161 259.241 301.634 255.08 307.066 255.08Z" fill="black"/>
<path d="M316.651 236.199C316.971 241.959 312.817 246.44 307.386 246.44C301.634 246.76 297.161 242.599 297.161 236.839C296.842 231.398 301.315 226.598 306.747 226.598C312.178 226.278 316.651 230.438 316.651 236.199Z" fill="black"/>
<path d="M316.971 123.868C316.651 129.628 312.817 133.789 307.066 133.789C301.315 133.789 297.161 129.628 297.161 123.868C297.161 118.107 301.315 114.267 307.066 114.267C313.137 113.947 316.971 118.107 316.971 123.868Z" fill="black"/>
<path d="M316.971 94.7454C317.29 100.506 313.456 104.666 307.705 104.986C301.954 105.306 297.481 101.466 297.481 95.7055C297.161 90.265 301.315 85.4647 306.747 85.1446C312.178 85.1446 316.651 88.9849 316.971 94.7454Z" fill="black"/>
<path d="M306.427 56.6634C312.178 56.3434 316.651 60.1837 316.971 65.9442C317.29 71.7047 313.456 76.1851 307.705 76.5051C301.954 76.8251 297.481 72.9848 297.161 67.2243C296.842 61.7838 300.995 56.9834 306.427 56.6634Z" fill="black"/>
<path d="M306.747 142.749C312.498 142.749 316.651 146.91 316.651 152.67C316.651 158.431 312.817 162.591 306.747 162.591C300.996 162.591 296.842 158.751 296.842 152.67C296.842 146.91 300.996 142.749 306.747 142.749Z" fill="black"/>
<path d="M316.651 208.676C316.971 214.437 313.137 218.597 307.386 218.917C301.634 219.237 297.161 215.397 297.161 209.636C296.842 204.196 300.995 199.396 306.427 199.076C312.178 199.076 316.651 203.236 316.651 208.676Z" fill="black"/>
<path d="M306.427 170.592C312.178 170.272 316.651 174.113 316.971 179.873C317.29 185.634 313.456 190.114 307.705 190.434C301.954 190.754 297.481 186.914 297.161 181.153C296.522 175.713 300.676 171.232 306.427 170.592Z" fill="black"/>
<path d="M256.584 340.527C262.335 340.527 266.488 344.367 266.488 350.127C266.488 355.888 262.335 360.048 256.584 360.048C251.152 360.048 246.679 355.888 246.679 350.127C246.679 344.687 250.833 340.527 256.584 340.527Z" fill="black"/>
<path d="M256.264 312.046C262.015 311.726 266.169 315.886 266.489 321.646C266.808 327.407 262.654 331.567 256.903 331.887C251.152 332.207 246.998 328.047 246.679 322.286C246.679 316.526 250.833 312.046 256.264 312.046Z" fill="black"/>
<path d="M256.903 283.242C262.654 283.242 266.808 287.722 266.489 293.483C266.489 299.243 262.335 303.084 256.264 303.084C250.513 303.084 246.359 298.603 246.679 293.163C246.999 287.402 251.472 283.242 256.903 283.242Z" fill="black"/>
<path d="M266.488 264.361C266.808 270.121 262.654 274.602 257.223 274.602C251.472 274.922 246.998 270.761 246.998 265.001C246.679 259.56 251.152 254.76 256.584 254.76C262.015 254.44 266.169 258.6 266.488 264.361Z" fill="black"/>
<path d="M266.488 152.032C266.169 157.793 262.335 161.953 256.584 161.953C250.833 161.953 246.679 157.793 246.679 152.032C246.679 146.272 250.833 142.431 256.584 142.431C262.654 142.431 266.808 146.272 266.488 152.032Z" fill="black"/>
<path d="M266.488 122.909C266.808 128.67 262.974 132.83 257.223 133.15C251.472 133.47 246.998 129.63 246.998 123.87C246.679 118.429 250.833 113.629 256.264 113.309C261.696 113.309 266.169 117.469 266.488 122.909Z" fill="black"/>
<path d="M255.945 85.1446C261.696 84.8246 266.169 88.6649 266.489 94.4254C266.808 100.186 262.974 104.666 257.223 104.986C251.472 105.306 246.999 101.466 246.679 95.7055C246.359 89.945 250.513 85.4647 255.945 85.1446Z" fill="black"/>
<path d="M256.584 170.913C262.335 170.913 266.488 175.074 266.488 180.834C266.488 186.595 262.654 190.755 256.584 190.755C250.833 190.755 246.679 186.915 246.679 180.834C246.679 175.074 250.833 170.913 256.584 170.913Z" fill="black"/>
<path d="M266.488 236.838C266.808 242.599 262.974 246.759 257.223 247.079C251.472 247.399 246.998 243.559 246.998 237.799C246.679 232.358 250.833 227.558 256.264 227.238C261.696 227.238 266.169 231.398 266.488 236.838Z" fill="black"/>
<path d="M255.945 199.076C261.696 198.756 266.169 202.596 266.489 208.356C266.808 214.117 262.974 218.597 257.223 218.917C251.472 219.237 246.999 215.397 246.679 209.636C246.359 204.196 250.513 199.396 255.945 199.076Z" fill="black"/>
<path d="M256.584 368.05C262.335 368.05 266.488 371.89 266.488 377.651C266.488 383.411 262.335 387.572 256.584 387.572C251.152 387.572 246.679 383.411 246.679 377.651C246.679 372.21 250.833 368.05 256.584 368.05Z" fill="black"/>
<path d="M281.825 354.287C287.576 354.287 291.73 358.128 291.73 363.888C291.73 369.648 287.576 373.809 281.825 373.809C276.393 373.809 271.92 369.648 271.92 363.888C271.601 358.448 275.754 354.607 281.825 354.287Z" fill="black"/>
<path d="M281.825 382.771C287.576 382.771 291.73 386.611 291.73 392.371C291.73 398.132 287.576 402.292 281.825 402.292C276.393 402.292 271.92 398.132 271.92 392.371C271.601 386.931 275.754 382.771 281.825 382.771Z" fill="black"/>
<path d="M305.469 340.207C311.22 340.207 315.373 344.048 315.373 349.808C315.373 355.569 311.22 359.729 305.469 359.729C300.037 359.729 295.564 355.569 295.564 349.808C295.564 344.368 299.717 340.207 305.469 340.207Z" fill="black"/>
<path d="M306.747 312.364C312.498 312.364 316.651 316.204 316.651 321.965C316.332 328.045 312.498 332.206 306.747 332.206C301.315 332.206 296.842 328.045 296.842 322.285C296.522 316.524 300.676 312.364 306.747 312.364Z" fill="black"/>
<path d="M331.029 326.125C336.78 326.125 340.934 329.966 340.934 335.726C340.934 341.487 336.78 345.647 331.029 345.647C325.598 345.647 321.125 341.487 321.125 335.726C321.125 330.286 325.278 326.125 331.029 326.125Z" fill="black"/>
<path d="M355.312 340.527C361.063 340.527 365.217 344.367 365.217 350.127C365.217 355.888 361.063 360.048 355.312 360.048C349.88 360.048 345.407 355.888 345.407 350.127C345.407 344.687 349.561 340.527 355.312 340.527Z" fill="black"/>
<path d="M355.312 312.045C361.063 312.045 365.217 315.886 365.217 321.646C365.217 327.407 361.063 331.567 355.312 331.567C349.88 331.567 345.407 327.407 345.407 321.646C345.407 316.206 349.561 312.045 355.312 312.045Z" fill="black"/>
<path d="M281.505 326.125C287.257 326.125 291.41 329.966 291.41 335.726C291.41 341.487 287.257 345.647 281.505 345.647C276.074 345.647 271.601 341.487 271.601 335.726C271.601 330.286 275.754 326.125 281.505 326.125Z" fill="black"/>
<path d="M281.186 297.323C286.937 297.003 291.091 301.163 291.41 306.924C291.73 312.684 287.576 316.845 281.825 317.165C276.074 317.485 271.92 313.324 271.601 307.564C271.601 302.123 275.754 297.643 281.186 297.323Z" fill="black"/>
<path d="M281.825 268.841C287.576 268.841 291.73 273.321 291.41 279.082C291.41 284.842 287.257 288.683 281.186 288.683C275.435 288.683 271.281 284.202 271.601 278.762C271.92 273.001 276.393 268.841 281.825 268.841Z" fill="black"/>
<path d="M291.41 249.959C291.73 255.72 287.576 260.2 282.145 260.2C276.393 260.52 271.92 256.36 271.92 250.599C271.601 245.159 276.074 240.359 281.506 240.359C286.937 240.039 291.091 244.199 291.41 249.959Z" fill="black"/>
<path d="M291.41 137.628C291.091 143.389 287.257 147.549 281.505 147.549C275.754 147.549 271.601 143.389 271.601 137.628C271.601 131.868 275.754 128.028 281.505 128.028C287.576 128.028 291.73 131.868 291.41 137.628Z" fill="black"/>
<path d="M291.41 108.506C291.73 114.267 287.896 118.427 282.145 118.747C276.393 119.067 271.92 115.227 271.92 109.466C271.601 104.026 275.754 99.2254 281.186 98.9054C286.618 98.9054 291.091 103.066 291.41 108.506Z" fill="black"/>
<path d="M280.867 70.4241C286.618 70.1041 291.091 73.9444 291.41 79.7049C291.73 85.4654 287.896 89.9458 282.145 90.2658C276.393 90.5859 271.92 86.7455 271.601 80.985C271.281 75.5446 275.435 71.0642 280.867 70.4241Z" fill="black"/>
<path d="M281.505 156.51C287.257 156.51 291.41 160.67 291.41 166.431C291.41 172.191 287.576 176.352 281.505 176.352C275.754 176.352 271.601 172.511 271.601 166.431C271.601 160.67 275.754 156.51 281.505 156.51Z" fill="black"/>
<path d="M291.41 222.437C291.73 228.198 287.896 232.358 282.145 232.678C276.074 232.998 271.92 229.158 271.601 223.397C271.281 217.957 275.435 213.156 280.867 212.836C286.618 212.836 291.091 216.997 291.41 222.437Z" fill="black"/>
<path d="M280.867 184.674C286.618 184.354 291.091 188.195 291.41 193.955C291.73 199.716 287.896 204.196 282.145 204.516C276.393 204.836 271.92 200.996 271.601 195.235C271.281 189.475 275.435 184.994 280.867 184.674Z" fill="black"/>
<path d="M231.982 354.287C237.733 354.287 241.886 358.128 241.886 363.888C241.886 369.649 237.733 373.809 231.982 373.809C226.55 373.809 222.077 369.649 222.077 363.888C221.757 358.448 225.911 354.607 231.982 354.287Z" fill="black"/>
<path d="M231.662 325.804C237.413 325.484 241.567 329.645 241.886 335.405C242.206 341.166 238.052 345.326 232.301 345.646C226.55 345.966 222.396 341.806 222.077 336.045C221.757 330.605 225.911 326.124 231.662 325.804Z" fill="black"/>
<path d="M232.301 297.003C238.052 297.003 242.206 301.483 241.886 307.244C241.886 313.004 237.733 316.845 231.662 316.845C225.911 316.845 221.757 312.364 222.077 306.924C222.077 301.163 226.55 297.003 232.301 297.003Z" fill="black"/>
<path d="M241.886 278.121C242.206 283.882 238.052 288.362 232.621 288.362C226.87 288.682 222.396 284.522 222.396 278.762C222.077 273.321 226.55 268.521 231.982 268.521C237.094 268.521 241.567 272.361 241.886 278.121Z" fill="black"/>
<path d="M241.886 165.791C241.567 171.551 237.733 175.711 231.982 175.711C226.231 175.711 222.077 171.551 222.077 165.791C222.077 160.03 226.231 156.19 231.982 156.19C238.052 156.19 241.886 160.03 241.886 165.791Z" fill="black"/>
<path d="M241.886 136.668C242.206 142.429 238.372 146.589 232.621 146.909C226.87 147.229 222.396 143.389 222.396 137.628C222.077 132.188 226.231 127.388 231.662 127.067C237.094 127.067 241.567 131.228 241.886 136.668Z" fill="black"/>
<path d="M231.343 98.9056C237.094 98.5856 241.567 102.426 241.886 108.186C242.206 113.947 238.372 118.427 232.621 118.747C226.87 119.067 222.396 115.227 222.077 109.466C221.757 104.026 225.911 99.2256 231.343 98.9056Z" fill="black"/>
<path d="M231.662 184.994C237.413 184.994 241.567 189.154 241.567 194.914C241.567 200.675 237.733 204.835 231.662 204.835C225.911 204.835 221.757 200.995 221.757 194.914C221.757 188.834 225.911 184.994 231.662 184.994Z" fill="black"/>
<path d="M241.567 250.918C241.886 256.679 238.052 260.839 232.301 261.159C226.55 261.479 222.077 257.639 222.077 251.878C221.757 246.438 225.911 241.637 231.343 241.317C237.094 240.997 241.567 245.158 241.567 250.918Z" fill="black"/>
<path d="M231.343 212.836C237.094 212.516 241.567 216.357 241.886 222.117C242.206 227.878 238.372 232.358 232.621 232.678C226.87 232.998 222.396 229.158 222.077 223.397C221.757 217.957 225.911 213.157 231.343 212.836Z" fill="black"/>
<path d="M122.71 166.433C122.71 160.673 126.863 156.512 132.615 156.512C138.046 156.512 142.519 160.673 142.519 166.433C142.519 172.194 138.366 176.354 132.615 176.354C126.863 176.354 122.71 172.194 122.71 166.433Z" fill="black"/>
<path d="M147.951 178.913C147.951 173.152 152.105 168.992 157.856 168.992C163.287 168.992 167.761 173.152 167.761 178.913C167.761 184.673 163.607 188.834 157.856 188.834C152.105 188.834 147.951 184.673 147.951 178.913Z" fill="black"/>
<path d="M147.951 152.67C147.951 146.91 152.105 142.749 157.856 142.749C163.287 142.749 167.761 146.91 167.761 152.67C167.761 158.431 163.607 162.591 157.856 162.591C152.105 162.591 147.951 158.751 147.951 152.67Z" fill="black"/>
<path d="M208.019 140.511C213.77 140.511 217.923 144.991 217.923 150.432C217.923 156.192 213.77 160.033 208.019 160.353C202.267 160.353 198.114 156.512 198.433 150.432C198.114 144.671 202.267 140.511 208.019 140.511Z" fill="black"/>
<path d="M198.114 121.949C198.114 116.188 202.267 112.028 208.019 112.028C213.45 112.028 217.923 116.188 217.923 121.949C217.923 127.709 213.77 131.869 208.019 131.869C202.267 131.869 198.114 127.709 198.114 121.949Z" fill="black"/>
<path d="M416.019 462.778C416.338 468.538 412.185 473.018 406.753 473.018C401.002 473.338 396.529 469.178 396.529 463.418C396.209 457.977 400.682 453.177 406.114 453.177C411.545 452.857 415.699 457.017 416.019 462.778Z" fill="black"/>
<path d="M416.019 350.449C415.699 356.209 411.865 360.37 406.114 360.37C400.363 360.37 396.209 356.209 396.209 350.449C396.209 344.688 400.363 340.848 406.114 340.848C412.184 340.528 416.338 344.688 416.019 350.449Z" fill="black"/>
<path d="M416.019 321.326C416.338 327.087 412.504 331.247 406.753 331.567C401.002 331.887 396.529 328.047 396.529 322.287C396.209 316.846 400.363 312.046 405.794 311.726C411.226 311.726 415.699 315.566 416.019 321.326Z" fill="black"/>
<path d="M405.475 283.242C411.226 282.922 415.699 286.763 416.019 292.523C416.338 298.284 412.504 302.764 406.753 303.084C401.002 303.404 396.529 299.564 396.209 293.803C395.89 288.363 400.043 283.562 405.475 283.242Z" fill="black"/>
<path d="M406.114 369.33C411.865 369.33 416.019 373.491 416.019 379.251C416.019 385.012 412.184 389.172 406.114 389.172C400.363 389.172 396.209 385.332 396.209 379.251C396.209 373.491 400.363 369.33 406.114 369.33Z" fill="black"/>
<path d="M416.019 435.255C416.338 441.016 412.504 445.176 406.753 445.496C401.002 445.816 396.529 441.976 396.529 436.215C396.209 430.775 400.363 425.974 405.794 425.654C411.226 425.654 415.699 429.815 416.019 435.255Z" fill="black"/>
<path d="M405.475 397.171C411.226 396.851 415.699 400.691 416.019 406.452C416.338 412.212 412.504 416.693 406.753 417.013C401.002 417.333 396.529 413.492 396.209 407.732C395.89 402.291 400.043 397.811 405.475 397.171Z" fill="black"/>
<path d="M380.234 409.332C385.985 409.332 390.138 413.173 390.138 418.933C390.138 424.694 385.985 428.854 380.234 428.854C374.802 428.854 370.329 424.694 370.329 418.933C370.329 413.493 374.483 409.332 380.234 409.332Z" fill="black"/>
<path d="M379.914 380.53C385.665 380.21 389.819 384.371 390.138 390.131C390.458 395.892 386.304 400.052 380.553 400.372C374.802 400.692 370.648 396.532 370.329 390.771C370.329 385.331 374.483 380.85 379.914 380.53Z" fill="black"/>
<path d="M380.553 352.048C386.304 352.048 390.458 356.528 390.138 362.289C390.138 368.049 385.985 371.89 379.914 371.89C374.163 371.89 370.009 367.409 370.329 361.969C370.648 356.208 375.121 352.048 380.553 352.048Z" fill="black"/>
<path d="M354.992 423.093C360.744 423.093 364.897 426.933 364.897 432.694C364.897 438.454 360.744 442.615 354.992 442.615C349.561 442.615 345.088 438.454 345.088 432.694C344.768 427.253 348.922 423.093 354.992 423.093Z" fill="black"/>
<path d="M354.673 394.291C360.424 393.971 364.578 398.131 364.897 403.892C365.217 409.652 361.063 413.813 355.312 414.133C349.561 414.453 345.407 410.292 345.088 404.532C344.768 399.091 348.922 394.611 354.673 394.291Z" fill="black"/>
<path d="M355.312 365.809C361.063 365.809 365.217 370.289 364.897 376.05C364.897 381.81 360.744 385.65 354.673 385.65C348.922 385.65 344.768 381.17 345.088 375.73C345.088 369.969 349.561 365.489 355.312 365.809Z" fill="black"/>
<path d="M330.71 409.013C336.461 409.013 340.615 412.854 340.615 418.614C340.615 424.375 336.461 428.535 330.71 428.535C325.278 428.535 320.805 424.375 320.805 418.614C320.486 413.174 324.639 409.013 330.71 409.013Z" fill="black"/>
<path d="M330.39 380.53C336.141 380.21 340.295 384.371 340.615 390.131C340.934 395.892 336.78 400.052 331.029 400.372C325.278 400.692 321.125 396.532 320.805 390.771C320.486 385.011 324.639 380.53 330.39 380.53Z" fill="black"/>
<path d="M330.71 351.729C336.461 351.729 340.615 356.209 340.295 361.97C340.295 367.73 336.141 371.571 330.071 371.571C324.32 371.571 320.166 367.09 320.486 361.65C320.805 355.889 325.278 351.729 330.71 351.729Z" fill="black"/>
</svg>
