<svg width="50" height="43" viewBox="0 0 50 43" fill="none" xmlns="http://www.w3.org/2000/svg">
<path d="M25.0321 9.38823C31.5553 20.6349 37.9177 31.6572 44.2802 42.6475C44.2159 42.7757 44.2159 42.8077 44.1838 42.8398C44.1517 42.8718 44.0874 42.9359 44.0553 42.9359C43.6697 42.968 43.3162 43 42.9306 43C28.6954 43 14.4602 43 0 43C8.35476 28.5492 16.6131 14.2906 24.8715 0C25.7391 0.769002 29.6594 7.3696 33.3869 14.0663C36.0861 18.9046 38.946 23.6788 41.7095 28.4851C44.473 33.2273 47.2044 38.0015 50 42.8398C49.0039 43.0961 48.072 42.968 47.108 42.9039C39.8136 30.2794 32.5193 17.7191 25.2249 5.09463C24.3573 5.86364 12.8535 25.4732 4.56298 40.2765C4.91645 40.7571 5.43059 40.5648 5.88046 40.5969C7.10154 40.6289 8.32262 40.5969 9.5437 40.5969C18.8625 40.5969 28.1812 40.5969 37.5 40.5969C38.2712 40.5969 39.0745 40.5328 40.0707 40.4687C35.0578 31.7854 30.1093 23.2623 25.0321 14.5149C20.919 21.5961 16.9344 28.4851 12.9177 35.4061C14.0745 35.6624 29.3059 35.7265 31.5874 35.4702C29.4344 31.7213 27.2815 28.0365 25.0321 24.1595C23.7147 26.4344 22.5257 28.5171 21.2082 30.7601C22.9434 30.7601 24.5501 30.7601 26.1889 30.7601C26.6709 31.5931 27.1208 32.3301 27.6028 33.1311C26.2532 33.4516 18.2841 33.4516 16.9023 33.1311C19.5694 28.5171 22.2365 23.9352 24.8715 19.3212C25.8676 20.3145 32.4229 31.3689 35.8933 37.9054C35.8612 37.9374 35.8612 38.0015 35.829 38.0335C35.7969 38.0656 35.7326 38.1297 35.7005 38.1297C27.1851 38.1617 18.6697 38.1617 10.1542 38.1937C9.67224 38.1937 9.22236 38.1937 8.70823 38.1937C8.93316 37.0723 12.4679 30.7921 16.6774 23.807C19.473 19.1289 22.1401 14.3867 25.0321 9.38823Z" fill="black"/>
</svg>
