<svg width="48" height="42" viewBox="0 0 48 42" fill="none" xmlns="http://www.w3.org/2000/svg">
<g clip-path="url(#clip0)">
<path d="M29.6099 9.83313C31.8352 13.4934 33.7824 17.0296 35.8224 20.5348C37.8314 24.0089 39.8404 27.5141 41.8494 30.9882C43.8893 34.5244 45.8983 38.0606 48.0001 41.6588C47.8146 41.7519 47.5983 41.969 47.3819 41.969C44.1984 42 41.0149 41.969 37.7077 41.969C33.2879 34.3073 28.899 26.6145 24.4482 18.8597C26.1482 15.9439 27.8172 12.9971 29.6099 9.83313Z" fill="black"/>
<path d="M24.0155 0C25.8391 3.16396 27.539 6.11078 29.239 9.05761C24.7882 16.7814 20.3993 24.4431 15.9795 32.0739C12.5178 32.0739 9.17972 32.0739 5.90348 32.0739C5.84167 31.9498 5.77985 31.9188 5.77985 31.8877C5.77985 31.8257 5.74894 31.7637 5.77985 31.7327C11.8069 21.2482 17.8339 10.7326 24.0155 0Z" fill="black"/>
<path d="M0 41.8138C1.73084 38.805 3.33806 35.9512 5.00708 33.0664C13.8467 33.0664 22.6864 33.0664 31.6806 33.0664C33.3187 35.9202 35.0187 38.836 36.7186 41.8138C35.4205 42.062 1.63812 42.093 0 41.8138Z" fill="black"/>
</g>
<defs>
<clipPath id="clip0">
<rect width="48" height="42" fill="white"/>
</clipPath>
</defs>
</svg>
