<svg width="43" height="37" viewBox="0 0 43 37" fill="none" xmlns="http://www.w3.org/2000/svg">
<g clip-path="url(#clip0)">
<path d="M30.1989 27.2243C30.0534 27.5085 29.8788 27.8211 29.7334 28.1052C28.8606 28.361 28.4532 27.9916 28.1914 27.338C29.0351 26.1444 29.3551 26.116 30.1989 27.2243Z" fill="black"/>
<path d="M22.373 0.795765C22.4021 1.30729 22.053 1.73355 21.5293 1.76197C21.0056 1.79039 20.5983 1.44937 20.5692 0.937854C20.5401 0.397915 20.8601 0.0569014 21.4129 6.57458e-05C21.9657 -0.0283521 22.3439 0.312662 22.373 0.795765Z" fill="black"/>
<path d="M36.9485 26.4286C37.4722 26.457 37.8214 26.8549 37.7923 27.3664C37.7632 27.8779 37.385 28.2189 36.8613 28.1905C36.3376 28.1621 35.9885 27.7926 36.0176 27.2811C36.0467 26.7696 36.454 26.4286 36.9485 26.4286Z" fill="black"/>
<path d="M18.5616 7.41709C18.5616 7.92861 18.1834 8.29804 17.6597 8.29804C17.136 8.29804 16.7578 7.95702 16.7578 7.41709C16.7578 6.90556 17.136 6.53613 17.6597 6.53613C18.1543 6.53613 18.5616 6.90556 18.5616 7.41709Z" fill="black"/>
<path d="M39.4216 32.6805C38.3451 31.7995 38.3451 31.6006 39.4216 30.7765C39.9162 30.8333 40.3526 31.0038 40.4108 31.5722C40.469 32.2542 40.0907 32.5384 39.4216 32.6805Z" fill="black"/>
<path d="M2.26927 34.755C1.74559 34.7834 1.33828 34.4424 1.30919 33.9309C1.2801 33.4478 1.65831 33.0215 2.1529 32.9931C2.64748 32.9647 3.08388 33.3341 3.11298 33.8172C3.14207 34.3287 2.79295 34.7266 2.26927 34.755Z" fill="black"/>
<path d="M12.4228 24.1835C12.9174 24.1551 13.3538 24.5246 13.3829 25.0077C13.412 25.5192 13.0338 25.917 12.5392 25.9454C12.0155 25.9739 11.6082 25.6044 11.5791 25.1213C11.55 24.6098 11.8991 24.212 12.4228 24.1835Z" fill="black"/>
<path d="M22.3729 9.69052C22.3729 10.202 21.9947 10.5715 21.471 10.5715C20.9473 10.5715 20.5691 10.2305 20.5691 9.69052C20.5691 9.179 20.9182 8.80957 21.471 8.80957C21.9947 8.80957 22.3729 9.179 22.3729 9.69052Z" fill="black"/>
<path d="M12.4228 34.7551C11.8992 34.7267 11.55 34.3572 11.55 33.8457C11.5791 33.3342 11.9574 32.9932 12.481 32.9932C12.9756 32.9932 13.3538 33.4194 13.3538 33.9025C13.3538 34.4141 12.9465 34.7835 12.4228 34.7551Z" fill="black"/>
<path d="M15.9722 33.9025C15.9722 34.414 15.5649 34.7835 15.0413 34.755C14.5176 34.755 14.1685 34.3856 14.1685 33.8741C14.1685 33.3626 14.5758 32.9931 15.0704 33.0216C15.594 32.9931 15.9722 33.391 15.9722 33.9025Z" fill="black"/>
<path d="M26.6205 26.4285C27.1151 26.4001 27.5515 26.7696 27.5806 27.2811C27.6097 27.7642 27.2315 28.162 26.7078 28.1904C26.1841 28.2189 25.8059 27.8778 25.7768 27.3663C25.7477 26.8548 26.0969 26.457 26.6205 26.4285Z" fill="black"/>
<path d="M24.9622 9.69049C24.9622 10.202 24.5549 10.5714 24.0603 10.5714C23.5367 10.5714 23.1875 10.202 23.1584 9.69049C23.1584 9.17897 23.5076 8.80954 24.0603 8.83796C24.584 8.80954 24.9913 9.17897 24.9622 9.69049Z" fill="black"/>
<path d="M28.8024 33.9025C28.7733 34.4425 28.4242 34.7835 27.9005 34.7551C27.3768 34.7267 26.9986 34.3572 27.0277 33.8457C27.0277 33.3626 27.435 32.9932 27.9587 32.9932C28.4242 32.9932 28.8024 33.391 28.8024 33.9025Z" fill="black"/>
<path d="M31.3918 33.8456C31.4209 34.3572 31.0427 34.7266 30.519 34.755C29.9953 34.7834 29.6171 34.4424 29.588 33.9309C29.5589 33.4194 29.9371 33.0499 30.4317 33.0215C30.9554 32.9647 31.3627 33.3341 31.3918 33.8456Z" fill="black"/>
<path d="M33.981 33.9309C33.9519 34.4424 33.5446 34.7834 33.0209 34.755C32.4973 34.7266 32.1481 34.3287 32.1772 33.8172C32.2063 33.3057 32.6136 32.9647 33.1373 32.9931C33.661 33.0215 34.0392 33.4478 33.981 33.9309Z" fill="black"/>
<path d="M35.7268 34.755C35.174 34.7835 34.8249 34.4424 34.7958 33.9025C34.7667 33.391 35.1449 32.9931 35.6686 32.9931C36.1631 32.9647 36.5996 33.3626 36.5996 33.8457C36.5996 34.3572 36.2504 34.7266 35.7268 34.755Z" fill="black"/>
<path d="M24.9621 27.2811C24.9912 27.7926 24.613 28.1905 24.0893 28.1905C23.5656 28.2189 23.1874 27.8494 23.1583 27.3379C23.1292 26.8264 23.5074 26.4286 24.0311 26.4286C24.5548 26.4001 24.9621 26.798 24.9621 27.2811Z" fill="black"/>
<path d="M21.5 28.1905C20.9764 28.1905 20.5981 27.8495 20.5981 27.3095C20.5981 26.798 20.9764 26.4286 21.5 26.4286C21.9946 26.4286 22.4019 26.798 22.4019 27.3095C22.3728 27.8211 22.0237 28.1905 21.5 28.1905Z" fill="black"/>
<path d="M26.6495 8.80957C27.1731 8.80957 27.5513 9.179 27.5513 9.69052C27.5513 10.1736 27.1731 10.5715 26.6495 10.5715C26.1258 10.5715 25.7476 10.202 25.7476 9.69052C25.7767 9.179 26.1258 8.80957 26.6495 8.80957Z" fill="black"/>
<path d="M19.7836 27.338C19.7545 27.8779 19.4054 28.1905 18.8526 28.1905C18.329 28.1621 17.9507 27.7926 17.9798 27.2811C18.0089 26.798 18.3871 26.4286 18.9108 26.4286C19.4345 26.4286 19.7836 26.8264 19.7836 27.338Z" fill="black"/>
<path d="M15.0704 25.9455C14.5467 25.9455 14.1685 25.6045 14.1394 25.0929C14.1394 24.6098 14.5176 24.212 15.0122 24.1836C15.5068 24.1551 15.9141 24.553 15.9432 25.0361C15.9723 25.5476 15.5941 25.9455 15.0704 25.9455Z" fill="black"/>
<path d="M17.5725 24.1835C18.0671 24.1551 18.5035 24.5246 18.5326 25.0077C18.5616 25.4908 18.2125 25.917 17.6888 25.9455C17.1652 25.9739 16.7579 25.6613 16.7288 25.1498C16.7288 24.6382 17.0779 24.212 17.5725 24.1835Z" fill="black"/>
<path d="M28.8026 25.0645C28.8026 25.576 28.4244 25.9455 27.9007 25.9171C27.377 25.8886 26.9988 25.5192 26.9988 25.0361C26.9988 24.5246 27.4061 24.1552 27.9298 24.1552C28.4244 24.1836 28.8026 24.553 28.8026 25.0645Z" fill="black"/>
<path d="M8.61168 28.1905C8.088 28.1905 7.70978 27.8211 7.73888 27.3095C7.73888 26.798 8.14618 26.4286 8.64077 26.4286C9.16445 26.4286 9.54267 26.8264 9.54267 27.3095C9.51357 27.8495 9.13536 28.1905 8.61168 28.1905Z" fill="black"/>
<path d="M6.10976 26.4285C6.60434 26.457 6.98256 26.8832 6.95346 27.3663C6.92437 27.8778 6.48797 28.2189 5.99338 28.162C5.4988 28.1336 5.12058 27.7073 5.17877 27.2242C5.17877 26.7411 5.61517 26.4001 6.10976 26.4285Z" fill="black"/>
<path d="M36.5994 25.0929C36.5703 25.6045 36.1921 25.9455 35.6393 25.9171C35.1157 25.8886 34.7665 25.5192 34.7956 25.0077C34.8247 24.4962 35.232 24.1552 35.7266 24.1552C36.2212 24.212 36.5994 24.6098 36.5994 25.0929Z" fill="black"/>
<path d="M31.3917 25.0361C31.4208 25.5476 31.0426 25.9171 30.5189 25.9455C29.9661 25.9455 29.617 25.6045 29.5879 25.0929C29.5879 24.5814 29.937 24.212 30.4607 24.1836C30.9553 24.1551 31.3917 24.553 31.3917 25.0361Z" fill="black"/>
<path d="M27.5806 18.5569C27.5515 19.0684 27.1442 19.4094 26.6205 19.381C26.0969 19.3526 25.7477 18.9547 25.7768 18.4432C25.8059 17.9317 26.2132 17.5907 26.7369 17.6191C27.2315 17.6475 27.6097 18.0454 27.5806 18.5569Z" fill="black"/>
<path d="M33.981 25.0929C33.981 25.6044 33.5737 25.9454 33.05 25.9454C32.5264 25.917 32.1772 25.576 32.1772 25.0361C32.1772 24.5246 32.5846 24.1551 33.1082 24.1835C33.6028 24.1835 34.0101 24.6098 33.981 25.0929Z" fill="black"/>
<path d="M24.9911 18.4716C24.9911 18.9831 24.6129 19.3525 24.1183 19.3809C23.5946 19.3809 23.2164 19.0399 23.2164 18.5284C23.1873 18.0169 23.5655 17.6474 24.0892 17.619C24.5547 17.619 24.962 17.9885 24.9911 18.4716Z" fill="black"/>
<path d="M21.5001 19.381C20.9764 19.4094 20.5982 19.0684 20.5691 18.5285C20.54 18.0169 20.8891 17.6475 21.4419 17.6191C21.9656 17.5907 22.3438 17.9601 22.3729 18.4716C22.402 18.9831 22.0237 19.3526 21.5001 19.381Z" fill="black"/>
<path d="M12.423 15.3741C12.9176 15.3457 13.354 15.7151 13.3831 16.1982C13.4122 16.7097 13.063 17.1076 12.5394 17.136C12.0157 17.1644 11.6084 16.8234 11.6084 16.3119C11.5502 15.8004 11.8993 15.4025 12.423 15.3741Z" fill="black"/>
<path d="M15.1285 17.136C14.6048 17.1644 14.1975 16.8234 14.1684 16.3403C14.1393 15.8287 14.4885 15.4309 14.9831 15.3741C15.4776 15.3172 15.914 15.6867 15.9431 16.1982C16.0013 16.6813 15.6522 17.0791 15.1285 17.136Z" fill="black"/>
<path d="M18.5616 16.2267C18.5616 16.7382 18.1834 17.1076 17.6597 17.1076C17.136 17.1076 16.7578 16.7666 16.7578 16.2551C16.7578 15.7436 17.136 15.3741 17.6306 15.3457C18.1543 15.3457 18.5616 15.7436 18.5616 16.2267Z" fill="black"/>
<path d="M31.3919 16.3119C31.3628 16.8234 30.9555 17.1644 30.4318 17.136C29.9081 17.1076 29.559 16.7382 29.5881 16.1982C29.6172 15.7151 30.0245 15.3457 30.5482 15.3741C31.0428 15.3741 31.421 15.8004 31.3919 16.3119Z" fill="black"/>
<path d="M28.8024 16.1982C28.8315 16.7381 28.4824 17.1076 27.9587 17.136C27.435 17.1644 27.0277 16.8234 26.9986 16.3119C26.9695 15.8288 27.3478 15.4025 27.8423 15.3741C28.366 15.3172 28.7733 15.6583 28.8024 16.1982Z" fill="black"/>
<path d="M24.3511 7.38866C25.1657 6.22353 25.5148 6.22353 26.3003 7.36025C25.6312 8.63905 25.253 8.66746 24.3511 7.38866Z" fill="black"/>
<path d="M32.3809 26.5138C32.5555 26.8264 32.6718 27.0822 32.8464 27.4232C32.5845 27.6789 32.3518 28.02 32.0318 28.1336C31.3917 28.361 31.1008 27.8779 30.7808 27.3663C31.0135 26.6843 31.4499 26.2865 32.3809 26.5138Z" fill="black"/>
<path d="M35.3484 27.3095C34.592 28.503 34.3592 28.503 33.4282 27.4232C33.4864 26.9401 33.6901 26.5138 34.2428 26.457C34.8829 26.3717 35.1738 26.7696 35.3484 27.3095Z" fill="black"/>
<path d="M18.7361 6.10981C18.2124 6.08139 17.8342 5.74037 17.8342 5.22885C17.8342 4.71733 18.2124 4.3479 18.7361 4.3479C19.2598 4.3479 19.6089 4.71733 19.6089 5.22885C19.638 5.76879 19.2889 6.10981 18.7361 6.10981Z" fill="black"/>
<path d="M21.3836 6.1099C20.8599 6.13832 20.4817 5.7973 20.4526 5.28578C20.4235 4.77426 20.7726 4.37641 21.2963 4.37641C21.7909 4.348 22.2273 4.71743 22.2564 5.20053C22.2855 5.68363 21.9073 6.08148 21.3836 6.1099Z" fill="black"/>
<path d="M24.8458 5.17209C24.8749 5.68361 24.5257 6.08146 24.0021 6.10988C23.4784 6.13829 23.0711 5.79728 23.042 5.28576C23.0129 4.77424 23.362 4.37639 23.8857 4.34797C24.3803 4.31955 24.8167 4.68899 24.8458 5.17209Z" fill="black"/>
<path d="M20.22 3.89323C19.6964 3.92164 19.3181 3.58063 19.289 3.06911C19.26 2.55759 19.6091 2.15974 20.1328 2.15974C20.6273 2.13132 21.0637 2.50075 21.0928 2.98386C21.0928 3.49538 20.7146 3.89323 20.22 3.89323Z" fill="black"/>
<path d="M23.6529 2.98384C23.682 3.49536 23.3329 3.89321 22.8092 3.92162C22.2855 3.95004 21.8782 3.60903 21.8491 3.09751C21.8491 2.55757 22.1982 2.18814 22.6928 2.15972C23.1874 2.10288 23.6238 2.50073 23.6529 2.98384Z" fill="black"/>
<path d="M20.22 8.2696C19.6963 8.24118 19.3181 7.90016 19.3181 7.38864C19.3181 6.87712 19.6963 6.50769 20.22 6.50769C20.7437 6.50769 21.0928 6.87712 21.0928 7.38864C21.1219 7.92858 20.7437 8.2696 20.22 8.2696Z" fill="black"/>
<path d="M22.8675 8.26957C22.3438 8.29799 21.9656 7.95697 21.9365 7.44545C21.9074 6.93393 22.2565 6.53608 22.7802 6.53608C23.2748 6.50766 23.7112 6.8771 23.7403 7.3602C23.7694 7.8433 23.3912 8.24115 22.8675 8.26957Z" fill="black"/>
<path d="M26.3296 7.33188C26.3587 7.8434 26.0096 8.24125 25.4859 8.26966C24.9623 8.29808 24.555 7.95707 24.5259 7.44555C24.4968 6.93403 24.8459 6.53618 25.3696 6.50776C25.8642 6.47934 26.3006 6.84877 26.3296 7.33188Z" fill="black"/>
<path d="M16.3797 10.5714C15.856 10.5998 15.4778 10.2588 15.4487 9.74731C15.4196 9.20737 15.7687 8.83794 16.2924 8.80952C16.787 8.7811 17.2234 9.15053 17.2525 9.63364C17.2816 10.1452 16.9034 10.543 16.3797 10.5714Z" fill="black"/>
<path d="M19.8416 9.63364C19.8707 10.1452 19.5216 10.543 18.9979 10.5714C18.4742 10.5998 18.0669 10.2588 18.0378 9.74731C18.0087 9.23579 18.3579 8.83794 18.8815 8.80952C19.3761 8.7811 19.8125 9.15053 19.8416 9.63364Z" fill="black"/>
<path d="M21.151 11.7934C21.151 12.3049 20.7727 12.6744 20.2491 12.6744C19.7254 12.6744 19.3472 12.3334 19.3472 11.7934C19.3472 11.2819 19.6963 10.9125 20.2491 10.9125C20.7727 10.9125 21.151 11.2535 21.151 11.7934Z" fill="black"/>
<path d="M23.7694 11.7934C23.7694 12.3049 23.3621 12.6743 22.8675 12.6743C22.3438 12.6743 21.9947 12.3049 21.9656 11.7934C21.9656 11.2819 22.3147 10.9124 22.8675 10.9409C23.3912 10.9124 23.7694 11.2819 23.7694 11.7934Z" fill="black"/>
<path d="M25.4568 10.9125C25.9805 10.9125 26.3587 11.2819 26.3587 11.7934C26.3587 12.2765 25.9805 12.6744 25.4568 12.6744C24.9331 12.6744 24.5549 12.3049 24.5549 11.7934C24.5549 11.2819 24.9041 10.9125 25.4568 10.9125Z" fill="black"/>
<path d="M15.1578 12.6744C14.6341 12.7028 14.2559 12.3618 14.2268 11.8502C14.1977 11.3387 14.5468 10.9409 15.0705 10.9409C15.5651 10.9124 16.0015 11.2819 16.0306 11.765C16.0597 12.2481 15.6815 12.6459 15.1578 12.6744Z" fill="black"/>
<path d="M18.6197 11.7365C18.6488 12.2481 18.2997 12.6459 17.776 12.6743C17.2523 12.7027 16.845 12.3617 16.8159 11.8502C16.7868 11.3387 17.1359 10.9408 17.6596 10.9124C18.1542 10.884 18.5906 11.2534 18.6197 11.7365Z" fill="black"/>
<path d="M19.7835 14.0384C19.7835 14.5499 19.4053 14.9194 18.8816 14.9194C18.358 14.9194 17.9797 14.5784 17.9797 14.0384C17.9797 13.5269 18.3289 13.1575 18.8816 13.1575C19.4053 13.1575 19.7835 13.4985 19.7835 14.0384Z" fill="black"/>
<path d="M22.3729 14.0384C22.3729 14.5499 21.9656 14.9193 21.471 14.9193C20.9473 14.9193 20.5982 14.5499 20.5691 14.0384C20.5691 13.5269 20.9182 13.1574 21.471 13.1859C21.9947 13.1574 22.3729 13.5269 22.3729 14.0384Z" fill="black"/>
<path d="M24.0603 13.1575C24.584 13.1575 24.9622 13.5269 24.9622 14.0384C24.9622 14.5215 24.584 14.9194 24.0603 14.9194C23.5367 14.9194 23.1584 14.5499 23.1584 14.0384C23.1584 13.5269 23.5367 13.1575 24.0603 13.1575Z" fill="black"/>
<path d="M13.7903 14.9193C13.2667 14.9478 12.8884 14.6067 12.8594 14.0952C12.8303 13.5837 13.1794 13.1859 13.7031 13.1859C14.1977 13.1574 14.6341 13.5269 14.6631 14.01C14.6631 14.4931 14.2849 14.8909 13.7903 14.9193Z" fill="black"/>
<path d="M17.2525 13.9815C17.2816 14.4931 16.9325 14.8909 16.4088 14.9193C15.8851 14.9477 15.4778 14.6067 15.4487 14.0952C15.4196 13.5837 15.7687 13.1858 16.2924 13.1574C16.787 13.129 17.1943 13.4984 17.2525 13.9815Z" fill="black"/>
<path d="M26.2132 16.2267C26.2132 16.7382 25.835 17.1076 25.3113 17.1076C24.7876 17.1076 24.4094 16.7666 24.4094 16.2267C24.4094 15.7151 24.7585 15.3457 25.3113 15.3457C25.835 15.3457 26.2132 15.7151 26.2132 16.2267Z" fill="black"/>
<path d="M28.8316 16.2266C28.8316 16.7381 28.4243 17.1076 27.9297 17.1076C27.406 17.1076 27.0569 16.7381 27.0278 16.2266C27.0278 15.7151 27.377 15.3457 27.9297 15.3741C28.4534 15.3741 28.8316 15.7435 28.8316 16.2266Z" fill="black"/>
<path d="M30.5191 15.374C31.0428 15.374 31.421 15.7435 31.421 16.255C31.421 16.7381 31.0428 17.1359 30.5191 17.1359C29.9954 17.1359 29.6172 16.7665 29.6172 16.255C29.6172 15.715 29.9663 15.374 30.5191 15.374Z" fill="black"/>
<path d="M20.22 17.1076C19.6964 17.136 19.3181 16.795 19.289 16.2835C19.26 15.7719 19.6091 15.3741 20.1328 15.3741C20.6273 15.3457 21.0637 15.7151 21.0928 16.1982C21.1219 16.7097 20.7437 17.1076 20.22 17.1076Z" fill="black"/>
<path d="M23.6819 16.1982C23.711 16.7097 23.3619 17.1076 22.8382 17.136C22.3146 17.1644 21.9072 16.8234 21.8782 16.3119C21.8491 15.8003 22.1982 15.4025 22.7219 15.3741C23.2165 15.3172 23.6529 15.7151 23.6819 16.1982Z" fill="black"/>
<path d="M14.6048 18.4717C14.6048 18.9832 14.2266 19.3526 13.7029 19.3526C13.1792 19.3526 12.801 19.0116 12.801 18.4717C12.801 17.9601 13.1501 17.5907 13.7029 17.5907C14.2266 17.5907 14.6048 17.9601 14.6048 18.4717Z" fill="black"/>
<path d="M17.2232 18.5001C17.2232 19.0116 16.8159 19.381 16.3213 19.381C15.7976 19.381 15.4485 19.0116 15.4194 18.5001C15.4194 17.9885 15.7686 17.6191 16.3213 17.6475C16.845 17.6191 17.2232 17.9885 17.2232 18.5001Z" fill="black"/>
<path d="M18.9107 17.619C19.4344 17.619 19.8126 17.9884 19.8126 18.5C19.8126 18.9831 19.4344 19.3809 18.9107 19.3809C18.387 19.3809 18.0088 19.0115 18.0088 18.5C18.0088 17.96 18.3579 17.619 18.9107 17.619Z" fill="black"/>
<path d="M12.0738 18.4432C12.1029 18.9547 11.7538 19.3526 11.2301 19.381C10.7064 19.4094 10.2991 19.0684 10.27 18.5569C10.2409 18.0454 10.59 17.6475 11.1137 17.6191C11.6083 17.5907 12.0447 17.9601 12.0738 18.4432Z" fill="black"/>
<path d="M19.7835 36.1195C19.7835 36.631 19.4344 37.0004 18.9107 37.0004C18.387 37.0004 18.0088 36.631 18.0088 36.1195C18.0088 35.6364 18.387 35.2385 18.9107 35.2385C19.4053 35.2385 19.7835 35.608 19.7835 36.1195Z" fill="black"/>
<path d="M22.3727 36.0907C22.4018 36.6022 22.0236 36.9716 21.4999 37.0001C20.9763 37.0285 20.598 36.659 20.569 36.1475C20.5399 35.636 20.9181 35.2666 21.4418 35.2382C21.9363 35.2382 22.3727 35.6076 22.3727 36.0907Z" fill="black"/>
<path d="M24.9913 36.1475C24.9913 36.659 24.584 37.0284 24.0603 37C23.5366 37 23.1875 36.6306 23.1875 36.0906C23.1875 35.5791 23.5948 35.2097 24.0894 35.2381C24.6131 35.2665 24.9913 35.6644 24.9913 36.1475Z" fill="black"/>
<path d="M26.7077 37.0008C26.184 37.0292 25.7767 36.6598 25.7767 36.1767C25.7476 35.6652 26.1258 35.2673 26.6495 35.2673C27.1441 35.2389 27.5805 35.6367 27.5805 36.1198C27.5805 36.6029 27.2314 36.9724 26.7077 37.0008Z" fill="black"/>
<path d="M36.9195 37.0001C36.3958 36.9716 36.0176 36.6306 36.0176 36.1191C36.0176 35.6076 36.3958 35.2382 36.9195 35.2382C37.4432 35.2382 37.7923 35.6076 37.7923 36.1191C37.7923 36.6875 37.4432 37.0285 36.9195 37.0001Z" fill="black"/>
<path d="M39.567 37.0008C39.0433 37.0292 38.6651 36.6882 38.636 36.1767C38.6069 35.6651 38.956 35.2673 39.4797 35.2673C39.9743 35.2389 40.4107 35.6083 40.4398 36.0914C40.4398 36.6029 40.0615 37.0008 39.567 37.0008Z" fill="black"/>
<path d="M43.0001 36.0912C43.0291 36.6028 42.68 37.0006 42.1563 37.029C41.6327 37.0575 41.2254 36.7164 41.1963 36.2049C41.1672 35.6934 41.5163 35.2955 42.04 35.2671C42.5346 35.2103 42.971 35.5797 43.0001 36.0912Z" fill="black"/>
<path d="M35.1739 36.1191C35.1739 36.6306 34.7957 37.0001 34.272 37.0001C33.7483 37.0001 33.3701 36.6591 33.3701 36.1191C33.3701 35.6076 33.7192 35.2382 34.272 35.2382C34.8248 35.2382 35.1739 35.6076 35.1739 36.1191Z" fill="black"/>
<path d="M29.1807 37.0008C28.657 37.0292 28.2788 36.6882 28.2497 36.1767C28.2206 35.6651 28.5698 35.2673 29.0934 35.2673C29.588 35.2389 30.0244 35.6083 30.0535 36.0914C30.0826 36.5745 29.7044 36.9724 29.1807 37.0008Z" fill="black"/>
<path d="M32.6426 36.0622C32.6717 36.5738 32.3226 36.9716 31.7989 37C31.2753 37.0284 30.8679 36.6874 30.8388 36.1759C30.8098 35.6644 31.1589 35.2665 31.6826 35.2381C32.1771 35.2097 32.6135 35.5791 32.6426 36.0622Z" fill="black"/>
<path d="M18.4744 33.846C18.4744 34.3576 18.1253 34.727 17.6016 34.727C17.0779 34.727 16.6997 34.3576 16.6997 33.846C16.6997 33.3629 17.0779 32.9651 17.6016 32.9651C18.0962 32.9651 18.4744 33.3345 18.4744 33.846Z" fill="black"/>
<path d="M21.0927 33.8172C21.1218 34.3287 20.7436 34.6982 20.2199 34.7266C19.6962 34.755 19.318 34.3856 19.2889 33.874C19.2598 33.3625 19.638 32.9931 20.1617 32.9647C20.6563 32.9363 21.0636 33.3057 21.0927 33.8172Z" fill="black"/>
<path d="M23.6822 33.874C23.6822 34.3856 23.2749 34.755 22.7512 34.7266C22.2275 34.7266 21.8784 34.3571 21.8784 33.8172C21.8784 33.3057 22.2857 32.9363 22.7803 32.9647C23.304 32.9647 23.7113 33.3625 23.6822 33.874Z" fill="black"/>
<path d="M25.4277 34.7274C24.904 34.7558 24.4967 34.3863 24.4967 33.9032C24.4676 33.3917 24.8458 32.9939 25.3695 32.9939C25.8641 32.9654 26.3005 33.3633 26.3005 33.8464C26.3005 34.3011 25.9514 34.6989 25.4277 34.7274Z" fill="black"/>
<path d="M35.6394 34.7266C35.1158 34.6982 34.7375 34.3572 34.7375 33.8457C34.7375 33.3342 35.1158 32.9647 35.6394 32.9647C36.1631 32.9647 36.5122 33.3342 36.5122 33.8457C36.5122 34.3856 36.1631 34.755 35.6394 34.7266Z" fill="black"/>
<path d="M38.2579 34.7273C37.7342 34.7557 37.356 34.4147 37.3269 33.9032C37.2978 33.3917 37.6469 32.9938 38.1706 32.9938C38.6652 32.9654 39.1016 33.3349 39.1307 33.818C39.1598 34.3011 38.7815 34.6989 38.2579 34.7273Z" fill="black"/>
<path d="M41.72 33.7888C41.7491 34.3003 41.4 34.6982 40.8763 34.7266C40.3526 34.755 39.9453 34.414 39.9162 33.9025C39.8871 33.3909 40.2363 32.9931 40.7599 32.9647C41.2545 32.9363 41.6909 33.3057 41.72 33.7888Z" fill="black"/>
<path d="M33.8939 33.8457C33.8939 34.3572 33.5157 34.7266 32.992 34.7266C32.4683 34.7266 32.0901 34.3856 32.0901 33.8457C32.0901 33.3342 32.4392 32.9647 32.992 32.9647C33.5157 32.9647 33.8939 33.3057 33.8939 33.8457Z" fill="black"/>
<path d="M27.9007 34.7273C27.377 34.7557 26.9988 34.4147 26.9697 33.9032C26.9406 33.3917 27.2897 32.9938 27.8134 32.9938C28.308 32.9654 28.7444 33.3349 28.7735 33.818C28.8026 34.3011 28.4244 34.6989 27.9007 34.7273Z" fill="black"/>
<path d="M31.3629 33.7888C31.3919 34.3003 31.0428 34.6982 30.5191 34.7266C29.9955 34.755 29.5882 34.414 29.5591 33.9025C29.53 33.3909 29.8791 32.9931 30.4028 32.9647C30.8974 32.9363 31.3338 33.3057 31.3629 33.7888Z" fill="black"/>
<path d="M17.1941 31.7147C17.1941 32.2262 16.845 32.5956 16.3213 32.5956C15.7976 32.5956 15.4194 32.2262 15.4194 31.7147C15.4194 31.2316 15.7976 30.8337 16.3213 30.8337C16.8159 30.8337 17.1941 31.2032 17.1941 31.7147Z" fill="black"/>
<path d="M19.8124 31.6859C19.8415 32.1974 19.4633 32.5669 18.9396 32.5953C18.416 32.6237 18.0377 32.2543 18.0087 31.7427C17.9796 31.2312 18.3578 30.8618 18.8815 30.8334C19.376 30.8334 19.7833 31.2028 19.8124 31.6859Z" fill="black"/>
<path d="M22.4019 31.7427C22.4019 32.2542 21.9946 32.6236 21.4709 32.5952C20.9473 32.5952 20.5981 32.2258 20.5981 31.6859C20.5981 31.1743 21.0055 30.8049 21.5 30.8333C22.0237 30.8617 22.4019 31.2596 22.4019 31.7427Z" fill="black"/>
<path d="M24.1184 32.596C23.5947 32.6244 23.1874 32.255 23.1874 31.7719C23.1583 31.2604 23.5365 30.8625 24.0602 30.8625C24.5548 30.8341 24.9912 31.2319 24.9912 31.7151C25.0202 32.1982 24.642 32.596 24.1184 32.596Z" fill="black"/>
<path d="M34.3301 32.5953C33.8064 32.5669 33.4282 32.2258 33.4282 31.7143C33.4282 31.2028 33.8064 30.8334 34.3301 30.8334C34.8538 30.8334 35.2029 31.2028 35.2029 31.7143C35.232 32.2827 34.8538 32.6237 34.3301 32.5953Z" fill="black"/>
<path d="M36.9776 32.596C36.4539 32.6244 36.0757 32.2834 36.0466 31.7719C36.0175 31.2603 36.3666 30.8625 36.8903 30.8625C37.3849 30.8341 37.8213 31.2035 37.8504 31.6866C37.8795 32.1981 37.5013 32.596 36.9776 32.596Z" fill="black"/>
<path d="M40.4397 31.6865C40.4688 32.198 40.1197 32.5958 39.596 32.6242C39.0724 32.6527 38.6651 32.3117 38.636 31.8001C38.6069 31.2886 38.956 30.8908 39.4797 30.8623C39.9743 30.8055 40.4107 31.1749 40.4397 31.6865Z" fill="black"/>
<path d="M32.6136 31.7143C32.6136 32.2258 32.2354 32.5953 31.7117 32.5953C31.188 32.5953 30.8098 32.2543 30.8098 31.7143C30.8098 31.2028 31.1589 30.8334 31.7117 30.8334C32.2354 30.8334 32.6136 31.2028 32.6136 31.7143Z" fill="black"/>
<path d="M26.6204 32.596C26.0967 32.6244 25.7185 32.2834 25.6894 31.7719C25.6603 31.2603 26.0095 30.8625 26.5331 30.8625C27.0277 30.8341 27.4641 31.2035 27.4932 31.6866C27.4932 32.1697 27.1441 32.5676 26.6204 32.596Z" fill="black"/>
<path d="M30.0826 31.6574C30.1117 32.169 29.7626 32.5668 29.2389 32.5952C28.7152 32.6236 28.3079 32.2826 28.2788 31.7711C28.2497 31.2596 28.5988 30.8617 29.1225 30.8333C29.6171 30.8049 30.0535 31.1743 30.0826 31.6574Z" fill="black"/>
<path d="M15.9432 29.4413C15.9432 29.9528 15.594 30.3222 15.0704 30.3222C14.5467 30.3222 14.1685 29.9528 14.1685 29.4413C14.1685 28.9582 14.5467 28.5603 15.0704 28.5603C15.5649 28.5603 15.9432 28.9297 15.9432 29.4413Z" fill="black"/>
<path d="M18.5615 29.4416C18.5906 29.9531 18.2123 30.3225 17.6887 30.351C17.165 30.3794 16.7868 30.01 16.7577 29.4984C16.7286 28.9869 17.1068 28.6175 17.6305 28.5891C18.1251 28.5606 18.5324 28.9301 18.5615 29.4416Z" fill="black"/>
<path d="M21.151 29.4693C21.151 29.9808 20.7437 30.3502 20.22 30.3218C19.6963 30.3218 19.3472 29.9524 19.3472 29.4124C19.3472 28.9009 19.7545 28.5315 20.2491 28.5599C20.7727 28.5883 21.151 28.9862 21.151 29.4693Z" fill="black"/>
<path d="M22.8674 30.3226C22.3437 30.351 21.9364 29.9816 21.9364 29.4984C21.9073 28.9869 22.2855 28.5891 22.8092 28.5891C23.3038 28.5607 23.7402 28.9585 23.7402 29.4416C23.7693 29.9247 23.391 30.3226 22.8674 30.3226Z" fill="black"/>
<path d="M33.0791 30.3218C32.5555 30.2934 32.1772 29.9524 32.1772 29.4409C32.1772 28.9294 32.5555 28.5599 33.0791 28.5599C33.6028 28.5599 33.9519 28.9294 33.9519 29.4409C33.981 30.0092 33.6028 30.3503 33.0791 30.3218Z" fill="black"/>
<path d="M35.7266 30.3225C35.2029 30.351 34.8247 30.01 34.7956 29.4984C34.7665 28.9869 35.1157 28.5891 35.6393 28.5891C36.1339 28.5606 36.5703 28.9301 36.5994 29.4132C36.6285 29.9247 36.2503 30.3225 35.7266 30.3225Z" fill="black"/>
<path d="M39.1888 29.4132C39.2179 29.9247 38.8688 30.3225 38.3451 30.351C37.8214 30.3794 37.4141 30.0384 37.385 29.5268C37.3559 29.0153 37.705 28.6175 38.2287 28.5891C38.7233 28.5606 39.1597 28.9301 39.1888 29.4132Z" fill="black"/>
<path d="M31.3626 29.4409C31.3626 29.9524 30.9844 30.3218 30.4607 30.3218C29.9371 30.3218 29.5588 29.9808 29.5588 29.4409C29.5588 28.9294 29.908 28.5599 30.4607 28.5599C30.9844 28.5599 31.3626 28.9294 31.3626 29.4409Z" fill="black"/>
<path d="M25.3695 30.3225C24.8458 30.351 24.4676 30.01 24.4385 29.4984C24.4094 28.9869 24.7585 28.5891 25.2822 28.5891C25.7768 28.5606 26.2132 28.9301 26.2423 29.4132C26.2423 29.8963 25.8931 30.2941 25.3695 30.3225Z" fill="black"/>
<path d="M28.8316 29.384C28.8607 29.8955 28.5116 30.2934 27.9879 30.3218C27.4642 30.3502 27.0569 30.0092 27.0278 29.4977C26.9987 28.9862 27.3478 28.5883 27.8715 28.5599C28.3661 28.5315 28.8025 28.9009 28.8316 29.384Z" fill="black"/>
<path d="M14.6048 27.3103C14.6048 27.8219 14.2557 28.1913 13.732 28.1913C13.2083 28.1913 12.8301 27.8219 12.8301 27.3103C12.8301 26.8272 13.2083 26.4294 13.732 26.4294C14.2266 26.401 14.6048 26.7704 14.6048 27.3103Z" fill="black"/>
<path d="M17.2231 27.2819C17.2522 27.7934 16.874 28.1629 16.3503 28.1913C15.8266 28.2197 15.4484 27.8503 15.4193 27.3388C15.3902 26.8272 15.7684 26.4578 16.2921 26.4294C16.7867 26.401 17.194 26.7704 17.2231 27.2819Z" fill="black"/>
<path d="M19.8126 27.3096C19.8126 27.8211 19.4053 28.1905 18.8816 28.1621C18.3579 28.1621 18.0088 27.7927 18.0088 27.2528C18.0088 26.7412 18.4161 26.3718 18.9107 26.4002C19.4344 26.4286 19.8126 26.8265 19.8126 27.3096Z" fill="black"/>
<path d="M21.529 28.1629C21.0053 28.1913 20.598 27.8219 20.598 27.3388C20.5689 26.8273 20.9471 26.4294 21.4708 26.4294C21.9654 26.401 22.4018 26.7988 22.4018 27.2819C22.4309 27.765 22.0527 28.1629 21.529 28.1629Z" fill="black"/>
<path d="M31.7408 28.1913C31.2171 28.1629 30.8389 27.8219 30.8389 27.3104C30.8389 26.7989 31.2171 26.4294 31.7408 26.4294C32.2644 26.4294 32.6136 26.7989 32.6136 27.3104C32.6427 27.8503 32.2644 28.1913 31.7408 28.1913Z" fill="black"/>
<path d="M34.3882 28.1906C33.8646 28.219 33.4863 27.878 33.4573 27.3665C33.4282 26.855 33.7773 26.4571 34.301 26.4571C34.7956 26.4287 35.232 26.7981 35.261 27.2812C35.261 27.7643 34.9119 28.1622 34.3882 28.1906Z" fill="black"/>
<path d="M37.8504 27.2535C37.8795 27.765 37.5304 28.1629 37.0067 28.1913C36.483 28.2197 36.0757 27.8787 36.0466 27.3672C36.0175 26.8557 36.3666 26.4578 36.8903 26.4294C37.3849 26.401 37.8213 26.7704 37.8504 27.2535Z" fill="black"/>
<path d="M30.0242 27.2812C30.0242 27.7927 29.646 28.1622 29.1224 28.1622C28.5987 28.1622 28.2205 27.8212 28.2205 27.2812C28.2205 26.7697 28.5696 26.4003 29.1224 26.4003C29.646 26.4003 30.0242 26.7697 30.0242 27.2812Z" fill="black"/>
<path d="M24.0311 28.1629C23.5074 28.1913 23.1292 27.8503 23.1001 27.3388C23.071 26.8272 23.4201 26.4294 23.9438 26.4294C24.4384 26.401 24.8748 26.7704 24.9039 27.2535C24.9039 27.765 24.5257 28.1629 24.0311 28.1629Z" fill="black"/>
<path d="M27.4932 27.2534C27.5223 27.7649 27.1732 28.1627 26.6495 28.1911C26.1258 28.2196 25.7185 27.8785 25.6894 27.367C25.6603 26.8555 26.0095 26.4577 26.5331 26.4292C27.0277 26.3724 27.435 26.7418 27.4932 27.2534Z" fill="black"/>
<path d="M12.0447 22.8196C12.0447 23.3311 11.6956 23.7005 11.1719 23.7005C10.6482 23.7005 10.27 23.3311 10.27 22.8196C10.27 22.3364 10.6482 21.9386 11.1719 21.9386C11.6665 21.9386 12.0447 22.308 12.0447 22.8196Z" fill="black"/>
<path d="M14.634 22.7911C14.6631 23.3027 14.2849 23.6721 13.7612 23.7005C13.2375 23.7289 12.8593 23.3595 12.8302 22.848C12.8011 22.3364 13.1793 21.967 13.703 21.9386C14.2267 21.9386 14.634 22.308 14.634 22.7911Z" fill="black"/>
<path d="M17.2525 22.8479C17.2525 23.3594 16.8452 23.7289 16.3215 23.7004C15.7979 23.7004 15.4487 23.331 15.4487 22.7911C15.4487 22.2796 15.856 21.9101 16.3506 21.9385C16.8743 21.967 17.2525 22.3648 17.2525 22.8479Z" fill="black"/>
<path d="M18.9689 23.7012C18.4453 23.7296 18.0379 23.3602 18.0379 22.8771C18.0089 22.3656 18.3871 21.9677 18.9107 21.9677C19.4053 21.9393 19.8417 22.3372 19.8417 22.8203C19.8708 23.3034 19.4926 23.6728 18.9689 23.7012Z" fill="black"/>
<path d="M29.1807 23.7005C28.657 23.6721 28.2788 23.3311 28.2788 22.8196C28.2788 22.308 28.657 21.9386 29.1807 21.9386C29.7044 21.9386 30.0535 22.308 30.0535 22.8196C30.0535 23.3595 29.7044 23.7289 29.1807 23.7005Z" fill="black"/>
<path d="M31.8282 23.7012C31.3045 23.7296 30.9263 23.3886 30.8972 22.8771C30.8681 22.3656 31.2172 21.9677 31.7409 21.9677C32.2355 21.9393 32.6719 22.3087 32.701 22.7918C32.701 23.2749 32.3228 23.6728 31.8282 23.7012Z" fill="black"/>
<path d="M35.2613 22.7627C35.2904 23.2742 34.9413 23.672 34.4176 23.7005C33.8939 23.7289 33.4866 23.3879 33.4575 22.8763C33.4284 22.3648 33.7775 21.967 34.3012 21.9385C34.8249 21.9101 35.2322 22.2796 35.2613 22.7627Z" fill="black"/>
<path d="M27.4642 22.8196C27.4642 23.3311 27.086 23.7005 26.5623 23.7005C26.0386 23.7005 25.6604 23.3595 25.6604 22.8196C25.6604 22.308 26.0095 21.9386 26.5623 21.9386C27.086 21.9386 27.4642 22.308 27.4642 22.8196Z" fill="black"/>
<path d="M21.471 23.7012C20.9473 23.7296 20.5691 23.3886 20.54 22.8771C20.5109 22.3656 20.86 21.9677 21.3837 21.9677C21.8783 21.9393 22.3147 22.3087 22.3438 22.7918C22.3438 23.2749 21.9656 23.6728 21.471 23.7012Z" fill="black"/>
<path d="M24.9039 22.7627C24.933 23.2742 24.5838 23.672 24.0602 23.7005C23.5365 23.7289 23.1292 23.3879 23.1001 22.8763C23.071 22.3648 23.4201 21.967 23.9438 21.9385C24.4384 21.9101 24.8748 22.2796 24.9039 22.7627Z" fill="black"/>
<path d="M9.54276 22.8196C9.54276 23.3311 9.19364 23.7005 8.66996 23.7005C8.14628 23.7005 7.76807 23.3311 7.76807 22.8196C7.76807 22.3364 8.14628 21.9386 8.66996 21.9386C9.16455 21.9386 9.54276 22.308 9.54276 22.8196Z" fill="black"/>
<path d="M10.7937 25.0645C10.7937 25.576 10.4446 25.9454 9.92094 25.9454C9.39726 25.9454 9.01904 25.576 9.01904 25.0645C9.01904 24.5814 9.39726 24.1835 9.92094 24.1835C10.4155 24.1551 10.7646 24.5246 10.7937 25.0645Z" fill="black"/>
<path d="M8.20439 25.0645C8.20439 25.576 7.85526 25.9454 7.33158 25.9454C6.8079 25.9454 6.42969 25.576 6.42969 25.0645C6.42969 24.5814 6.8079 24.1835 7.33158 24.1835C7.82617 24.1551 8.20439 24.5246 8.20439 25.0645Z" fill="black"/>
<path d="M12.0738 27.1675C12.0738 27.679 11.7246 28.0484 11.201 28.0484C10.6773 28.0484 10.2991 27.679 10.2991 27.1675C10.2991 26.6843 10.6773 26.2865 11.201 26.2865C11.6956 26.2865 12.0738 26.6559 12.0738 27.1675Z" fill="black"/>
<path d="M14.6048 27.281C14.6048 27.7926 14.2557 28.162 13.732 28.162C13.1792 28.1336 12.801 27.7926 12.801 27.281C12.801 26.7979 13.1792 26.4001 13.7029 26.4001C14.2266 26.3717 14.6048 26.7411 14.6048 27.281Z" fill="black"/>
<path d="M13.3538 29.4409C13.3538 29.9524 13.0047 30.3218 12.481 30.3218C11.9573 30.3218 11.5791 29.9524 11.5791 29.4409C11.5791 28.9578 11.9573 28.5599 12.481 28.5599C12.9756 28.5599 13.3538 28.9294 13.3538 29.4409Z" fill="black"/>
<path d="M12.0447 31.6006C12.0447 32.1121 11.6956 32.4815 11.1719 32.4815C10.6482 32.4815 10.27 32.1121 10.27 31.6006C10.27 31.1175 10.6482 30.7196 11.1719 30.7196C11.6665 30.7196 12.0447 31.089 12.0447 31.6006Z" fill="black"/>
<path d="M14.6341 31.6006C14.6341 32.1121 14.285 32.4815 13.7613 32.4815C13.2376 32.4815 12.8594 32.1121 12.8594 31.6006C12.8594 31.1175 13.2376 30.7196 13.7613 30.7196C14.2559 30.7196 14.6341 31.089 14.6341 31.6006Z" fill="black"/>
<path d="M13.3538 25.0366C13.3538 25.5481 13.0047 25.9175 12.481 25.9175C11.9573 25.9175 11.5791 25.5481 11.5791 25.0366C11.5791 24.5535 11.9573 24.1556 12.481 24.1556C12.9756 24.1556 13.3538 24.5251 13.3538 25.0366Z" fill="black"/>
<path d="M15.9721 25.0078C16.0012 25.5193 15.623 25.8888 15.0993 25.9172C14.5756 25.9456 14.1974 25.5762 14.1683 25.0646C14.1392 24.5531 14.5174 24.1837 15.0411 24.1553C15.5357 24.1553 15.943 24.5247 15.9721 25.0078Z" fill="black"/>
<path d="M18.5616 25.0646C18.5616 25.5761 18.1543 25.9455 17.6306 25.9171C17.1069 25.9171 16.7578 25.5477 16.7578 25.0078C16.7578 24.4962 17.1651 24.1268 17.6597 24.1552C18.1834 24.1836 18.5616 24.5815 18.5616 25.0646Z" fill="black"/>
<path d="M20.278 25.9179C19.7543 25.9463 19.347 25.5769 19.347 25.0938C19.3179 24.5823 19.6962 24.1844 20.2198 24.1844C20.7144 24.156 21.1508 24.5538 21.1508 25.037C21.1799 25.5201 20.8017 25.8895 20.278 25.9179Z" fill="black"/>
<path d="M30.4898 25.9172C29.9661 25.8888 29.5879 25.5477 29.5879 25.0362C29.5879 24.5247 29.9661 24.1553 30.4898 24.1553C31.0135 24.1553 31.3626 24.5247 31.3626 25.0362C31.3626 25.5762 31.0135 25.9456 30.4898 25.9172Z" fill="black"/>
<path d="M33.1373 25.9179C32.6136 25.9463 32.2354 25.6053 32.2063 25.0938C32.1772 24.5822 32.5263 24.1844 33.05 24.1844C33.5446 24.156 33.981 24.5254 34.0101 25.0085C34.0101 25.4916 33.6319 25.8895 33.1373 25.9179Z" fill="black"/>
<path d="M36.5994 24.9793C36.6285 25.4909 36.2794 25.8887 35.7557 25.9171C35.232 25.9455 34.8247 25.6045 34.7956 25.093C34.7665 24.5815 35.1157 24.1836 35.6393 24.1552C36.1339 24.1268 36.5412 24.4962 36.5994 24.9793Z" fill="black"/>
<path d="M28.7733 25.0362C28.7733 25.5477 28.3951 25.9172 27.8714 25.9172C27.3477 25.9172 26.9695 25.5762 26.9695 25.0362C26.9695 24.5247 27.3186 24.1553 27.8714 24.1553C28.3951 24.1553 28.7733 24.5247 28.7733 25.0362Z" fill="black"/>
<path d="M22.7801 25.9171C22.2564 25.9455 21.8782 25.6045 21.8491 25.093C21.82 24.5531 22.1691 24.1836 22.6928 24.1552C23.1874 24.1268 23.6238 24.4962 23.6529 24.9793C23.6529 25.4909 23.2747 25.8887 22.7801 25.9171Z" fill="black"/>
<path d="M26.2129 24.9793C26.242 25.4909 25.8929 25.8887 25.3692 25.9171C24.8456 25.9455 24.4383 25.6045 24.4092 25.093C24.3801 24.5815 24.7292 24.1836 25.2529 24.1552C25.7766 24.1268 26.1839 24.4962 26.2129 24.9793Z" fill="black"/>
<path d="M10.7937 20.632C10.7937 21.1435 10.4446 21.5129 9.92094 21.5129C9.39726 21.5129 9.01904 21.1435 9.01904 20.632C9.01904 20.1489 9.39726 19.751 9.92094 19.751C10.4155 19.7226 10.7646 20.0921 10.7937 20.632Z" fill="black"/>
<path d="M13.383 20.6036C13.4121 21.1151 13.0339 21.4845 12.5102 21.513C11.9865 21.5414 11.6083 21.1719 11.5792 20.6604C11.5501 20.1489 11.9283 19.7795 12.452 19.751C12.9466 19.7226 13.3539 20.0921 13.383 20.6036Z" fill="black"/>
<path d="M16.0015 20.6604C16.0015 21.1719 15.5942 21.5414 15.0706 21.513C14.5469 21.513 14.1978 21.1435 14.1978 20.6036C14.1978 20.0921 14.6051 19.7226 15.0996 19.751C15.6233 19.751 16.0015 20.1489 16.0015 20.6604Z" fill="black"/>
<path d="M17.718 21.5123C17.1943 21.5407 16.787 21.1713 16.787 20.6881C16.7579 20.1766 17.1361 19.7788 17.6598 19.7788C18.1544 19.7504 18.5908 20.1482 18.5908 20.6313C18.5908 21.086 18.2416 21.4838 17.718 21.5123Z" fill="black"/>
<path d="M27.9297 21.513C27.406 21.4846 27.0278 21.1436 27.0278 20.6321C27.0278 20.1205 27.406 19.7511 27.9297 19.7511C28.4534 19.7511 28.8025 20.1205 28.8025 20.6321C28.8025 21.172 28.4534 21.513 27.9297 21.513Z" fill="black"/>
<path d="M30.5772 21.5122C30.0535 21.5407 29.6753 21.1996 29.6462 20.6881C29.6171 20.1766 29.9662 19.7788 30.4899 19.7788C30.9845 19.7503 31.4209 20.1198 31.45 20.6029C31.45 21.086 31.0718 21.4838 30.5772 21.5122Z" fill="black"/>
<path d="M34.0103 20.5752C34.0394 21.0867 33.6903 21.4845 33.1666 21.5129C32.6429 21.5414 32.2356 21.2004 32.2065 20.6888C32.1774 20.1773 32.5266 19.7795 33.0502 19.751C33.5448 19.7226 33.9812 20.0921 34.0103 20.5752Z" fill="black"/>
<path d="M26.1842 20.6029C26.1842 21.1144 25.8059 21.4838 25.2823 21.4838C24.7586 21.4838 24.3804 21.1428 24.3804 20.6029C24.3804 20.0914 24.7295 19.7219 25.2823 19.7219C25.835 19.7219 26.1842 20.0914 26.1842 20.6029Z" fill="black"/>
<path d="M20.191 21.4845C19.6673 21.513 19.2891 21.1719 19.26 20.6604C19.2309 20.1489 19.58 19.751 20.1037 19.751C20.5983 19.7226 21.0347 20.0921 21.0638 20.5752C21.0929 21.0867 20.7147 21.4845 20.191 21.4845Z" fill="black"/>
<path d="M23.6531 20.5752C23.6822 21.0867 23.3331 21.4845 22.8094 21.5129C22.2857 21.5414 21.8784 21.2004 21.8493 20.6888C21.8203 20.1773 22.1694 19.7795 22.6931 19.751C23.1876 19.7226 23.624 20.0921 23.6531 20.5752Z" fill="black"/>
<path d="M27.8714 10.9125C28.3951 10.9125 28.7733 11.2819 28.7733 11.7934C28.7733 12.2765 28.3951 12.6744 27.8714 12.6744C27.3477 12.6744 26.9695 12.3049 26.9695 11.7934C26.9695 11.2819 27.3477 10.9125 27.8714 10.9125Z" fill="black"/>
<path d="M26.7369 13.1575C27.2605 13.1575 27.6388 13.5269 27.6388 14.0384C27.6388 14.5215 27.2605 14.9194 26.7369 14.9194C26.2132 14.9194 25.835 14.5499 25.835 14.0384C25.835 13.5269 26.2132 13.1575 26.7369 13.1575Z" fill="black"/>
<path d="M29.1226 13.1575C29.6463 13.1575 30.0245 13.5269 30.0245 14.0384C30.0245 14.5215 29.6463 14.9194 29.1226 14.9194C28.5989 14.9194 28.2207 14.5499 28.2207 14.0384C28.2207 13.5269 28.5698 13.1575 29.1226 13.1575Z" fill="black"/>
<path d="M30.2281 18.5001C30.2281 19.0116 29.8208 19.381 29.3262 19.381C28.8025 19.381 28.4534 19.0116 28.4243 18.5001C28.4243 17.9885 28.7734 17.6191 29.3262 17.6475C29.8499 17.6191 30.2281 17.9885 30.2281 18.5001Z" fill="black"/>
<path d="M31.9156 17.619C32.4392 17.619 32.8175 17.9884 32.8175 18.5C32.8175 18.9831 32.4392 19.3809 31.9156 19.3809C31.3919 19.3809 31.0137 19.0115 31.0137 18.5C31.0137 17.9884 31.3919 17.619 31.9156 17.619Z" fill="black"/>
<path d="M0.931094 37.0008C0.407413 37.0292 0.000105868 36.6598 0.000105868 36.1767C-0.0289875 35.6652 0.349226 35.2673 0.872907 35.2673C1.36749 35.2389 1.8039 35.6367 1.8039 36.1198C1.83299 36.6029 1.45477 36.9724 0.931094 37.0008Z" fill="black"/>
<path d="M11.1429 37.0001C10.6192 36.9716 10.241 36.6306 10.241 36.1191C10.241 35.6076 10.6192 35.2382 11.1429 35.2382C11.6665 35.2382 12.0157 35.6076 12.0157 36.1191C12.0448 36.659 11.6665 37.0285 11.1429 37.0001Z" fill="black"/>
<path d="M13.7903 37.0008C13.2667 37.0292 12.8884 36.6882 12.8594 36.1767C12.8303 35.6651 13.1794 35.2673 13.7031 35.2673C14.1977 35.2389 14.6341 35.6083 14.6631 36.0914C14.6631 36.5745 14.314 36.9724 13.7903 37.0008Z" fill="black"/>
<path d="M17.2525 36.0622C17.2816 36.5738 16.9325 36.9716 16.4088 37C15.8851 37.0284 15.4778 36.6874 15.4487 36.1759C15.4196 35.6644 15.7687 35.2665 16.2924 35.2381C16.787 35.2097 17.2234 35.5791 17.2525 36.0622Z" fill="black"/>
<path d="M9.42635 36.1191C9.42635 36.6306 9.04813 37.0001 8.52445 37.0001C8.00077 37.0001 7.62256 36.6591 7.62256 36.1191C7.62256 35.6076 7.97168 35.2382 8.52445 35.2382C9.04813 35.2382 9.42635 35.6076 9.42635 36.1191Z" fill="black"/>
<path d="M3.43317 37.0008C2.90949 37.0292 2.53127 36.6882 2.50218 36.1767C2.47309 35.6651 2.82221 35.2673 3.34589 35.2673C3.84047 35.2389 4.27687 35.6083 4.30597 36.0914C4.30597 36.5745 3.92775 36.9724 3.43317 37.0008Z" fill="black"/>
<path d="M6.89532 36.0622C6.92442 36.5738 6.5753 36.9716 6.05161 37C5.52793 37.0284 5.12063 36.6874 5.09153 36.1759C5.06244 35.6644 5.41156 35.2665 5.93524 35.2381C6.42983 35.2097 6.83714 35.5791 6.89532 36.0622Z" fill="black"/>
<path d="M5.78959 33.8172C5.78959 34.3288 5.44047 34.6982 4.91679 34.6982C4.39311 34.6982 4.01489 34.3288 4.01489 33.8172C4.01489 33.3341 4.39311 32.9363 4.91679 32.9363C5.41137 32.9363 5.78959 33.3057 5.78959 33.8172Z" fill="black"/>
<path d="M8.4079 33.7888C8.43699 34.3003 8.05878 34.6698 7.5351 34.6982C7.01142 34.7266 6.6332 34.3572 6.60411 33.8456C6.57502 33.3341 6.95323 32.9647 7.47691 32.9363C7.9715 32.9363 8.3788 33.3057 8.4079 33.7888Z" fill="black"/>
<path d="M10.9974 33.8456C10.9974 34.3571 10.5901 34.7265 10.0664 34.6981C9.54272 34.6981 9.1936 34.3287 9.1936 33.7888C9.1936 33.2772 9.60091 32.9078 10.0955 32.9362C10.6192 32.9646 10.9974 33.3625 10.9974 33.8456Z" fill="black"/>
<path d="M4.53861 31.5722C4.53861 32.0837 4.18949 32.4531 3.66581 32.4531C3.14213 32.4531 2.76392 32.0837 2.76392 31.5722C2.76392 31.0891 3.14213 30.6912 3.66581 30.6912C4.1604 30.6628 4.53861 31.0322 4.53861 31.5722Z" fill="black"/>
<path d="M7.15692 31.5438C7.18602 32.0553 6.8078 32.4247 6.28412 32.4531C5.76044 32.4816 5.38223 32.1121 5.35313 31.6006C5.32404 31.0891 5.70225 30.7196 6.22593 30.6912C6.72052 30.6628 7.12783 31.0322 7.15692 31.5438Z" fill="black"/>
<path d="M9.74641 31.6006C9.74641 32.1121 9.33911 32.4816 8.81543 32.4531C8.29175 32.4531 7.94263 32.0837 7.94263 31.5438C7.94263 31.0322 8.34993 30.6628 8.84452 30.6912C9.3682 30.6912 9.77551 31.0891 9.74641 31.6006Z" fill="black"/>
<path d="M5.81864 29.4125C5.81864 29.924 5.46952 30.2935 4.94584 30.2935C4.42216 30.2935 4.04395 29.924 4.04395 29.4125C4.04395 28.9294 4.42216 28.5316 4.94584 28.5316C5.44043 28.5031 5.81864 28.8726 5.81864 29.4125Z" fill="black"/>
<path d="M8.4079 29.3841C8.43699 29.8956 8.05878 30.2651 7.5351 30.2935C7.01142 30.3219 6.6332 29.9525 6.60411 29.4409C6.57502 28.9294 6.95323 28.56 7.47691 28.5316C8.00059 28.5031 8.4079 28.8726 8.4079 29.3841Z" fill="black"/>
<path d="M11.0264 29.4125C11.0264 29.924 10.6191 30.2934 10.0955 30.265C9.57178 30.265 9.22266 29.8956 9.22266 29.3557C9.22266 28.8441 9.62996 28.4747 10.1245 28.5031C10.6482 28.5315 11.0264 28.9294 11.0264 29.4125Z" fill="black"/>
</g>
<defs>
<clipPath id="clip0">
<rect width="43" height="37" fill="white"/>
</clipPath>
</defs>
</svg>
