<?xml version="1.0" encoding="utf-8"?>
<!-- Generator: Adobe Illustrator 16.0.0, SVG Export Plug-In . SVG Version: 6.00 Build 0)  -->
<!DOCTYPE svg PUBLIC "-//W3C//DTD SVG 1.1//EN" "http://www.w3.org/Graphics/SVG/1.1/DTD/svg11.dtd">
<svg version="1.1" id="Layer_1" xmlns="http://www.w3.org/2000/svg" xmlns:xlink="http://www.w3.org/1999/xlink" x="0px" y="0px"
	 width="226.77px" height="103.05px" viewBox="0 0 226.77 103.05" enable-background="new 0 0 226.77 103.05" xml:space="preserve">
<g>
	<path fill="#9A2384" d="M224.688,86.015c0.17,0,0.34-0.057,0.51-0.142l0,0c0.142-0.085,0.255-0.198,0.34-0.368
		c0.086-0.142,0.143-0.313,0.143-0.482s-0.057-0.34-0.143-0.51l-4.45-7.597c-0.085-0.143-0.198-0.284-0.34-0.369
		c-0.17-0.085-0.312-0.113-0.511-0.113l-33.222,0.028c-0.17,0-0.34,0.057-0.51,0.142c-0.143,0.085-0.256,0.198-0.341,0.369
		c-0.113,0.142-0.142,0.312-0.142,0.481s0.028,0.34,0.113,0.511l4.365,7.597c0.113,0.142,0.228,0.255,0.369,0.34
		c0.17,0.085,0.34,0.142,0.51,0.142L224.688,86.015z"/>
	<path fill="#141515" d="M61.185,32.525l25.144,43.937l18.652-0.028c0.369,0,0.708,0.17,0.879,0.482l4.45,7.597
		c0.369,0.651-0.142,1.502-0.878,1.502l-31.323,0.028c-0.34,0-0.68-0.198-0.85-0.481C69.349,71.813,61.553,57.98,53.673,44.204
		l-0.198-0.368l0.198-0.34l6.293-10.97l0.624-1.049L61.185,32.525z"/>
	<path fill="#141515" d="M164.423,73.713l-11.565-20.184l-11.65,20.155L164.423,73.713z M115.411,60.531l11.565-20.154
		l-23.215,0.028L115.411,60.531z M147.415,29.549l-24.832,43.229c-0.085,0.17-0.198,0.283-0.368,0.368
		c-0.142,0.085-0.312,0.142-0.482,0.142h-12.585c-0.17,0-0.34-0.057-0.482-0.142c-0.17-0.085-0.283-0.198-0.369-0.368L96.703,52.708
		l-2.381,4.167l8.561,14.91c0.113,0.17,0.142,0.34,0.142,0.51l0,0c0,0.17-0.057,0.341-0.142,0.482
		c-0.085,0.17-0.198,0.283-0.34,0.368c-0.17,0.085-0.34,0.142-0.51,0.142l-11.934-0.028c-0.17,0-0.34-0.028-0.482-0.113
		s-0.283-0.227-0.369-0.368L64.104,29.549c-0.085-0.17-0.113-0.34-0.113-0.51c0-0.17,0.028-0.34,0.113-0.482
		c0.085-0.17,0.227-0.284,0.369-0.369c0.17-0.085,0.312-0.142,0.51-0.142h12.246c0.17,0,0.34,0.057,0.482,0.142
		c0.142,0.085,0.283,0.198,0.368,0.369l9.1,15.874l2.381-4.11l-6.18-10.687c-0.085-0.17-0.142-0.34-0.142-0.51
		s0.057-0.34,0.142-0.482c0.085-0.17,0.199-0.284,0.34-0.369c0.17-0.085,0.34-0.142,0.51-0.142l62.306-0.085
		c0.17,0,0.34,0.057,0.51,0.142c0.142,0.085,0.256,0.198,0.341,0.369c0.113,0.142,0.142,0.312,0.142,0.482l0,0
		C147.528,29.208,147.5,29.378,147.415,29.549L147.415,29.549z M158.866,28.046h12.246c0.17,0,0.34,0.057,0.481,0.142
		c0.171,0.085,0.284,0.198,0.369,0.369l9.921,17.263l3.373-5.896l-6.037-10.375c-0.085-0.17-0.113-0.34-0.113-0.51
		c0-0.17,0.028-0.34,0.113-0.482c0.113-0.17,0.227-0.284,0.368-0.369c0.17-0.085,0.312-0.142,0.511-0.142h12.245
		c0.17,0,0.34,0.057,0.482,0.142c0.142,0.085,0.283,0.198,0.368,0.369l24.803,43.229c0.113,0.17,0.142,0.34,0.142,0.51l0,0
		c0,0.17-0.057,0.341-0.142,0.482c-0.085,0.17-0.198,0.283-0.34,0.368c-0.17,0.085-0.34,0.142-0.511,0.142l-11.934-0.028
		c-0.17,0-0.34-0.028-0.481-0.113s-0.283-0.227-0.369-0.368l-11.934-20.523l-3.401,6.01l7.767,13.521
		c0.085,0.17,0.142,0.34,0.142,0.51h-0.028c0,0.17-0.028,0.341-0.113,0.482c-0.085,0.17-0.227,0.283-0.368,0.368
		s-0.312,0.142-0.511,0.142l-11.905-0.028c-0.198,0-0.368-0.028-0.51-0.113s-0.256-0.227-0.369-0.368l-25.114-43.229
		c-0.085-0.17-0.142-0.34-0.142-0.51c0-0.17,0.057-0.34,0.142-0.482c0.085-0.17,0.198-0.284,0.368-0.369
		C158.526,28.103,158.696,28.046,158.866,28.046L158.866,28.046z M160.029,41.313l24.831,43.229c0.085,0.17,0.113,0.34,0.113,0.51
		l0,0c0,0.17-0.028,0.341-0.142,0.482c-0.085,0.17-0.198,0.283-0.34,0.368c-0.17,0.085-0.341,0.142-0.511,0.142l-62.306-0.085
		c-0.17,0-0.34-0.057-0.51-0.142c-0.142-0.085-0.255-0.198-0.34-0.368c-0.086-0.143-0.143-0.313-0.143-0.482s0.057-0.34,0.143-0.51
		l24.916-43.144c0.085-0.17,0.198-0.284,0.368-0.369c0.143-0.085,0.313-0.142,0.482-0.142h12.586c0.17,0,0.34,0.057,0.481,0.142
		S159.943,41.143,160.029,41.313L160.029,41.313z"/>
	<path fill="#FFFFFF" d="M199.714,80.119c0-1.758-1.304-3.062-4.139-3.062h-4.195c-0.227,0-0.396,0.17-0.396,0.425v7.54
		c0,0.227,0.17,0.426,0.396,0.426h1.814c0.227,0,0.425-0.199,0.425-0.426v-1.871h1.956C198.41,83.151,199.714,81.848,199.714,80.119
		L199.714,80.119z M193.619,81.253v-2.297h1.956c0.907,0,1.389,0.482,1.389,1.163c0,0.651-0.481,1.134-1.389,1.134H193.619z
		 M207.991,81.734c0,0,1.615-0.368,1.615-1.928c0-1.502-1.247-2.749-3.883-2.749h-4.394c-0.228,0-0.397,0.17-0.397,0.425v7.54
		c0,0.227,0.17,0.426,0.397,0.426h1.813c0.228,0,0.426-0.199,0.426-0.426v-2.466h1.53c0.681,0,0.907,0.255,1.105,0.595l0.992,1.871
		c0.142,0.227,0.312,0.426,0.794,0.426h1.843c0.312,0,0.396-0.256,0.312-0.426l-1.021-1.871c-0.596-1.077-1.134-1.304-1.134-1.304
		V81.734z M203.569,80.657v-1.701h2.154c0.765,0,1.134,0.369,1.134,0.851c0,0.482-0.369,0.851-1.134,0.851H203.569z M215.814,83.69
		c-1.304,0-2.154-0.822-2.154-2.438c0-1.616,0.851-2.467,2.154-2.467c1.332,0,2.154,0.851,2.154,2.467
		C217.969,82.868,217.146,83.69,215.814,83.69L215.814,83.69z M215.814,76.802c-3.175,0-4.903,1.758-4.903,4.451
		c0,2.692,1.729,4.422,4.903,4.422s4.904-1.729,4.904-4.422C220.719,78.56,218.989,76.802,215.814,76.802L215.814,76.802z"/>
	<path fill-rule="evenodd" clip-rule="evenodd" fill="#9A2384" d="M110.366,77.313l4.592,7.993c0.113,0.199,0.312,0.313,0.538,0.313
		c0.228,0,0.397-0.113,0.539-0.313l4.592-7.965c0.113-0.198,0.113-0.425,0-0.624c-0.113-0.198-0.312-0.312-0.538-0.312h-9.185
		c-0.227,0-0.425,0.113-0.539,0.283C110.252,76.888,110.252,77.114,110.366,77.313L110.366,77.313z"/>
	<path fill-rule="evenodd" clip-rule="evenodd" fill="#9A2384" d="M147.585,36.692l4.592-7.994c0.113-0.198,0.312-0.312,0.539-0.312
		c0.227,0,0.396,0.114,0.538,0.312l4.592,7.965c0.114,0.198,0.114,0.425,0,0.624c-0.113,0.199-0.312,0.312-0.538,0.312l-9.185,0.028
		c-0.227,0-0.425-0.113-0.538-0.312C147.472,37.117,147.472,36.891,147.585,36.692L147.585,36.692z"/>
	<path fill="#141515" d="M19.714,69.12l25.455-43.71L35.814,9.252c-0.17-0.312-0.17-0.68,0.029-0.992l4.337-7.653
		c0.368-0.652,1.36-0.652,1.729,0l15.676,27.099c0.198,0.312,0.198,0.709,0.028,1.021c-7.965,13.691-16.044,27.354-24.038,41.074
		l-0.198,0.34h-0.425l-12.614,0.057H19.09L19.714,69.12z"/>
	<path fill="#9A2384" d="M71.531,85.986l-50.485,0.028L11.749,102.2c-0.198,0.313-0.51,0.482-0.879,0.482l-8.787,0.057
		c-0.737,0-1.219-0.851-0.879-1.474l15.647-27.156c0.17-0.312,0.51-0.511,0.85-0.511c15.874,0.057,31.606,0,47.48,0.057h0.397
		l0.198,0.341l6.35,10.941l0.624,1.049H71.531z"/>
</g>
</svg>
