<?xml version="1.0" encoding="utf-8"?>
<!-- Generator: Adobe Illustrator 16.0.0, SVG Export Plug-In . SVG Version: 6.00 Build 0)  -->
<!DOCTYPE svg PUBLIC "-//W3C//DTD SVG 1.1//EN" "http://www.w3.org/Graphics/SVG/1.1/DTD/svg11.dtd">
<svg version="1.1" id="Layer_1" xmlns="http://www.w3.org/2000/svg" xmlns:xlink="http://www.w3.org/1999/xlink" x="0px" y="0px"
	 width="226.77px" height="226.77px" viewBox="0 0 226.77 226.77" enable-background="new 0 0 226.77 226.77" xml:space="preserve">
<g>
	<path fill-rule="evenodd" clip-rule="evenodd" fill="#9A2384" d="M128.892,58.715l57.684,99.714l1.923,3.31h-3.847l-86.792,0.09
		l-3.667,6.35h96.721h1.252l0.67,1.165c2.146,3.708,6.082,10.506,9.972,17.169c3.041,5.144,5.948,10.195,8.719,14.981l1.925,3.352
		h-3.847h-15.605h-1.297l-0.671-1.119l-10.194-17.66l-115.01,0.043h-3.845l1.922-3.309l43.375-75.658l-3.533-6.126l-48.561,83.842
		l-0.626,1.115h-1.297c-8.003,0.047-15.963,0.047-23.967,0c-0.716,0,3.398,0-11.895,0h-3.667l1.699-3.216l6.841-13.325l0.626-1.208
		h1.342h19.629l57.817-99.896l1.923-3.309l1.967,3.309l43.554,75.525h7.108l-48.337-84.021l-0.626-1.073l0.626-1.118
		c3.354-5.858,6.528-11.268,9.703-16.679c2.771-4.739,5.545-9.479,8.72-15.025l1.922-3.309l1.923,3.309l7.736,13.191l0.67,1.164
		l-0.67,1.118L128.892,58.715z M129.473,143.854l-10.687-18.557l-10.643,18.601L129.473,143.854z"/>
</g>
</svg>
