<svg width="242" height="261" viewBox="0 0 242 261" fill="none" xmlns="http://www.w3.org/2000/svg">
<path d="M234.824 185.16C234.655 184.575 234.291 184.046 233.69 183.798C233.187 183.521 232.518 183.398 231.933 183.567C231.348 183.737 230.819 184.101 230.571 184.701C230.045 185.805 230.469 187.267 231.475 187.821C231.977 188.098 232.647 188.221 233.232 188.052C233.817 187.882 234.345 187.518 234.594 186.917C234.969 186.386 234.994 185.745 234.824 185.16Z" fill="#231F20"/>
<path d="M226.051 187.702C226.418 188.969 225.726 190.226 224.459 190.593C223.191 190.961 221.934 190.268 221.567 189.001C221.2 187.733 221.892 186.476 223.159 186.109C224.427 185.742 225.712 186.532 226.051 187.702ZM217.278 190.243C217.645 191.511 216.953 192.768 215.685 193.135C214.418 193.502 213.161 192.81 212.793 191.543C212.426 190.275 213.119 189.018 214.386 188.651C215.653 188.284 216.939 189.073 217.278 190.243ZM208.407 192.813C208.774 194.081 208.082 195.338 206.814 195.705C205.547 196.072 204.29 195.38 203.923 194.113C203.555 192.845 204.248 191.588 205.515 191.221C206.782 190.854 208.068 191.644 208.407 192.813ZM199.633 195.355C200.001 196.623 199.308 197.88 198.041 198.247C196.774 198.614 195.516 197.922 195.149 196.654C194.782 195.387 195.474 194.13 196.742 193.763C198.009 193.395 199.294 194.185 199.633 195.355Z" fill="#231F20"/>
<path d="M231.886 175.02C231.717 174.435 231.352 173.907 230.752 173.658C230.249 173.381 229.579 173.258 228.995 173.427C228.41 173.597 227.881 173.961 227.632 174.562C227.079 175.568 227.53 177.128 228.536 177.682C229.039 177.959 229.709 178.082 230.294 177.912C230.879 177.743 231.407 177.378 231.656 176.778C232.03 176.247 232.056 175.605 231.886 175.02Z" fill="#231F20"/>
<path d="M223.113 177.562C223.48 178.83 222.788 180.087 221.52 180.454C220.253 180.821 218.996 180.129 218.629 178.862C218.261 177.594 218.954 176.337 220.221 175.97C221.488 175.602 222.774 176.393 223.113 177.562ZM214.339 180.104C214.707 181.372 214.014 182.629 212.747 182.996C211.48 183.363 210.222 182.671 209.855 181.403C209.488 180.136 210.18 178.879 211.448 178.511C212.715 178.144 214 178.934 214.339 180.104ZM205.468 182.674C205.836 183.942 205.143 185.199 203.876 185.566C202.609 185.933 201.351 185.241 200.984 183.973C200.617 182.706 201.309 181.449 202.577 181.082C203.844 180.714 205.129 181.504 205.468 182.674ZM196.695 185.216C197.062 186.483 196.37 187.741 195.102 188.108C193.835 188.475 192.578 187.783 192.211 186.515C191.844 185.248 192.536 183.99 193.803 183.623C195.07 183.256 196.356 184.046 196.695 185.216ZM187.921 187.758C188.289 189.025 187.596 190.283 186.329 190.65C185.062 191.017 183.804 190.324 183.437 189.057C183.07 187.79 183.762 186.532 185.03 186.165C186.297 185.798 187.583 186.588 187.921 187.758ZM179.051 190.328C179.418 191.595 178.725 192.853 177.458 193.22C176.191 193.587 174.934 192.895 174.566 191.627C174.199 190.36 174.892 189.102 176.159 188.735C177.426 188.368 178.712 189.158 179.051 190.328Z" fill="#231F20"/>
<path d="M228.949 164.882C228.78 164.297 228.415 163.768 227.815 163.519C227.312 163.242 226.642 163.119 226.057 163.289C225.472 163.458 224.944 163.823 224.695 164.423C224.141 165.429 224.593 166.989 225.599 167.543C226.102 167.82 226.772 167.943 227.357 167.773C227.941 167.604 228.47 167.239 228.719 166.639C229.093 166.108 229.118 165.466 228.949 164.882Z" fill="#231F20"/>
<path d="M220.176 167.423C220.543 168.691 219.851 169.948 218.583 170.315C217.316 170.682 216.059 169.99 215.692 168.722C215.325 167.455 216.017 166.198 217.284 165.83C218.552 165.463 219.809 166.156 220.176 167.423ZM211.402 169.965C211.77 171.232 211.077 172.49 209.81 172.857C208.543 173.224 207.285 172.531 206.918 171.264C206.551 169.997 207.244 168.739 208.511 168.372C209.778 168.005 211.035 168.698 211.402 169.965ZM202.532 172.535C202.899 173.802 202.206 175.06 200.939 175.427C199.672 175.794 198.415 175.102 198.047 173.834C197.68 172.567 198.372 171.309 199.64 170.942C200.907 170.575 202.164 171.268 202.532 172.535ZM193.758 175.077C194.125 176.344 193.433 177.602 192.166 177.969C190.898 178.336 189.641 177.643 189.274 176.376C188.907 175.109 189.599 173.851 190.866 173.484C192.134 173.117 193.391 173.809 193.758 175.077ZM184.985 177.619C185.352 178.886 184.659 180.143 183.392 180.511C182.125 180.878 180.868 180.185 180.5 178.918C180.133 177.65 180.826 176.393 182.093 176.026C183.36 175.659 184.617 176.351 184.985 177.619ZM176.114 180.189C176.481 181.456 175.788 182.713 174.521 183.081C173.254 183.448 171.997 182.755 171.63 181.488C171.262 180.22 171.955 178.963 173.222 178.596C174.489 178.229 175.747 178.921 176.114 180.189ZM167.34 182.73C167.707 183.998 167.015 185.255 165.748 185.622C164.48 185.99 163.223 185.297 162.856 184.03C162.489 182.762 163.181 181.505 164.449 181.138C165.716 180.771 166.973 181.463 167.34 182.73ZM158.469 185.301C158.837 186.568 158.144 187.825 156.877 188.192C155.61 188.56 154.352 187.867 153.985 186.6C153.618 185.332 154.31 184.075 155.578 183.708C156.845 183.341 158.102 184.033 158.469 185.301Z" fill="#231F20"/>
<path d="M226.014 154.742C225.844 154.157 225.48 153.629 224.88 153.38C224.377 153.103 223.707 152.98 223.122 153.149C222.537 153.319 222.009 153.683 221.76 154.284C221.109 155.318 221.561 156.878 222.664 157.404C223.167 157.681 223.837 157.804 224.421 157.634C225.006 157.465 225.535 157.1 225.783 156.5C226.158 155.969 226.183 155.327 226.014 154.742Z" fill="#231F20"/>
<path d="M217.24 157.284C217.607 158.551 216.915 159.809 215.647 160.176C214.38 160.543 213.123 159.85 212.755 158.583C212.388 157.316 213.081 156.058 214.348 155.691C215.615 155.324 216.872 156.016 217.24 157.284ZM208.466 159.826C208.833 161.093 208.141 162.35 206.874 162.718C205.607 163.085 204.349 162.392 203.982 161.125C203.615 159.857 204.307 158.6 205.575 158.233C206.842 157.866 208.099 158.558 208.466 159.826ZM199.595 162.396C199.962 163.663 199.27 164.92 198.003 165.288C196.736 165.655 195.478 164.962 195.111 163.695C194.744 162.427 195.436 161.17 196.704 160.803C197.971 160.436 199.228 161.128 199.595 162.396ZM190.822 164.937C191.189 166.205 190.497 167.462 189.229 167.829C187.962 168.197 186.705 167.504 186.338 166.237C185.97 164.969 186.663 163.712 187.93 163.345C189.197 162.978 190.455 163.67 190.822 164.937ZM182.048 167.479C182.416 168.747 181.723 170.004 180.456 170.371C179.189 170.738 177.931 170.046 177.564 168.778C177.197 167.511 177.889 166.254 179.157 165.887C180.424 165.519 181.681 166.212 182.048 167.479ZM173.177 170.049C173.545 171.317 172.852 172.574 171.585 172.941C170.318 173.308 169.06 172.616 168.693 171.349C168.326 170.081 169.018 168.824 170.286 168.457C171.553 168.09 172.81 168.782 173.177 170.049ZM164.404 172.591C164.771 173.859 164.079 175.116 162.812 175.483C161.544 175.85 160.287 175.158 159.92 173.89C159.553 172.623 160.245 171.366 161.512 170.998C162.78 170.631 164.037 171.324 164.404 172.591ZM155.533 175.161C155.9 176.429 155.208 177.686 153.941 178.053C152.673 178.42 151.416 177.728 151.049 176.46C150.682 175.193 151.374 173.936 152.641 173.569C153.909 173.201 155.166 173.894 155.533 175.161ZM146.76 177.703C147.127 178.97 146.434 180.228 145.167 180.595C143.9 180.962 142.643 180.27 142.275 179.002C141.908 177.735 142.601 176.478 143.868 176.11C145.135 175.743 146.392 176.436 146.76 177.703ZM137.986 180.245C138.353 181.512 137.661 182.77 136.394 183.137C135.126 183.504 133.869 182.811 133.502 181.544C133.135 180.277 133.827 179.019 135.094 178.652C136.362 178.285 137.619 178.977 137.986 180.245Z" fill="#231F20"/>
<path d="M240.699 205.438C240.53 204.853 240.165 204.325 239.565 204.076C239.062 203.799 238.392 203.676 237.808 203.845C237.223 204.015 236.694 204.379 236.445 204.98C235.892 205.986 236.343 207.546 237.349 208.099C237.852 208.376 238.522 208.499 239.107 208.33C239.692 208.161 240.22 207.796 240.469 207.196C240.843 206.665 240.869 206.023 240.699 205.438Z" fill="#231F20"/>
<path d="M237.762 195.299C237.593 194.714 237.228 194.185 236.628 193.936C236.125 193.659 235.455 193.536 234.871 193.706C234.286 193.875 233.757 194.24 233.508 194.84C232.955 195.846 233.406 197.406 234.412 197.96C234.915 198.237 235.585 198.36 236.17 198.19C236.755 198.021 237.283 197.656 237.532 197.056C237.906 196.525 237.932 195.883 237.762 195.299Z" fill="#231F20"/>
<path d="M228.989 197.841C229.356 199.108 228.664 200.365 227.397 200.733C226.129 201.1 224.872 200.407 224.505 199.14C224.138 197.873 224.83 196.615 226.097 196.248C227.393 195.978 228.65 196.671 228.989 197.841ZM220.216 200.383C220.583 201.65 219.89 202.907 218.623 203.274C217.356 203.642 216.099 202.949 215.731 201.682C215.364 200.414 216.057 199.157 217.324 198.79C218.619 198.52 219.877 199.213 220.216 200.383Z" fill="#231F20"/>
<path d="M223.074 144.603C222.904 144.019 222.54 143.49 221.94 143.241C221.437 142.964 220.767 142.841 220.182 143.011C219.597 143.18 219.069 143.545 218.82 144.145C218.197 145.277 218.621 146.739 219.724 147.265C220.227 147.542 220.897 147.665 221.481 147.495C222.066 147.326 222.595 146.961 222.843 146.361C223.218 145.83 223.243 145.188 223.074 144.603Z" fill="#231F20"/>
<path d="M214.3 147.146C214.667 148.413 213.975 149.67 212.708 150.037C211.441 150.405 210.183 149.712 209.816 148.445C209.449 147.177 210.141 145.92 211.409 145.553C212.676 145.186 213.933 145.878 214.3 147.146ZM205.527 149.687C205.894 150.955 205.202 152.212 203.934 152.579C202.667 152.946 201.41 152.254 201.043 150.987C200.675 149.719 201.368 148.462 202.635 148.095C203.902 147.728 205.16 148.42 205.527 149.687ZM196.656 152.257C197.023 153.525 196.331 154.782 195.063 155.149C193.796 155.516 192.539 154.824 192.172 153.557C191.805 152.289 192.497 151.032 193.764 150.665C195.031 150.298 196.289 150.99 196.656 152.257ZM187.882 154.799C188.25 156.067 187.557 157.324 186.29 157.691C185.023 158.058 183.765 157.366 183.398 156.098C183.031 154.831 183.723 153.574 184.991 153.207C186.258 152.839 187.515 153.532 187.882 154.799ZM179.109 157.341C179.476 158.608 178.784 159.866 177.516 160.233C176.249 160.6 174.992 159.908 174.625 158.64C174.258 157.373 174.95 156.116 176.217 155.748C177.387 155.409 178.742 156.074 179.109 157.341ZM170.238 159.911C170.605 161.178 169.913 162.436 168.646 162.803C167.378 163.17 166.121 162.478 165.754 161.21C165.387 159.943 166.079 158.686 167.346 158.318C168.614 157.951 169.871 158.644 170.238 159.911ZM161.465 162.453C161.832 163.72 161.139 164.978 159.872 165.345C158.605 165.712 157.348 165.019 156.98 163.752C156.613 162.485 157.306 161.227 158.573 160.86C159.84 160.493 161.097 161.186 161.465 162.453ZM152.594 165.023C152.961 166.29 152.268 167.548 151.001 167.915C149.734 168.282 148.477 167.59 148.109 166.322C147.742 165.055 148.435 163.797 149.702 163.43C150.969 163.063 152.227 163.756 152.594 165.023ZM143.82 167.565C144.187 168.832 143.495 170.09 142.228 170.457C140.96 170.824 139.703 170.131 139.336 168.864C138.969 167.597 139.661 166.339 140.929 165.972C142.196 165.605 143.453 166.297 143.82 167.565ZM135.047 170.107C135.414 171.374 134.722 172.631 133.454 172.998C132.187 173.366 130.93 172.673 130.563 171.406C130.195 170.138 130.888 168.881 132.155 168.514C133.422 168.147 134.68 168.839 135.047 170.107ZM126.176 172.677C126.543 173.944 125.851 175.201 124.583 175.569C123.316 175.936 122.059 175.243 121.692 173.976C121.324 172.708 122.017 171.451 123.284 171.084C124.551 170.717 125.809 171.409 126.176 172.677ZM117.402 175.219C117.77 176.486 117.077 177.743 115.81 178.11C114.543 178.477 113.285 177.785 112.918 176.518C112.551 175.25 113.243 173.993 114.511 173.626C115.778 173.259 117.035 173.951 117.402 175.219Z" fill="#231F20"/>
<path d="M220.136 134.465C219.967 133.88 219.602 133.351 219.002 133.102C218.499 132.825 217.829 132.702 217.245 132.872C216.66 133.041 216.131 133.406 215.882 134.006C215.329 135.012 215.78 136.572 216.786 137.126C217.289 137.403 217.959 137.526 218.544 137.356C219.129 137.187 219.657 136.823 219.906 136.222C220.252 135.593 220.306 135.049 220.136 134.465Z" fill="#231F20"/>
<path d="M211.363 137.007C211.731 138.275 211.038 139.532 209.771 139.899C208.504 140.266 207.246 139.574 206.879 138.307C206.512 137.039 207.205 135.782 208.472 135.415C209.739 135.047 210.996 135.74 211.363 137.007ZM202.59 139.549C202.957 140.817 202.265 142.074 200.998 142.441C199.73 142.808 198.473 142.116 198.106 140.848C197.739 139.581 198.431 138.324 199.698 137.956C200.966 137.589 202.223 138.282 202.59 139.549ZM193.719 142.119C194.086 143.387 193.394 144.644 192.127 145.011C190.859 145.378 189.602 144.686 189.235 143.418C188.868 142.151 189.56 140.894 190.827 140.527C192.095 140.159 193.352 140.852 193.719 142.119ZM184.946 144.661C185.313 145.928 184.62 147.186 183.353 147.553C182.086 147.92 180.829 147.228 180.462 145.96C180.094 144.693 180.787 143.435 182.054 143.068C183.321 142.701 184.579 143.394 184.946 144.661ZM176.172 147.203C176.539 148.47 175.847 149.728 174.58 150.095C173.312 150.462 172.055 149.769 171.688 148.502C171.321 147.235 172.013 145.977 173.28 145.61C174.45 145.271 175.805 145.935 176.172 147.203ZM167.301 149.773C167.669 151.04 166.976 152.298 165.709 152.665C164.442 153.032 163.184 152.339 162.817 151.072C162.45 149.805 163.142 148.547 164.41 148.18C165.677 147.813 166.934 148.506 167.301 149.773ZM158.528 152.315C158.895 153.582 158.203 154.839 156.935 155.207C155.668 155.574 154.411 154.881 154.044 153.614C153.677 152.346 154.369 151.089 155.636 150.722C156.903 150.355 158.161 151.047 158.528 152.315ZM149.657 154.885C150.024 156.152 149.332 157.41 148.064 157.777C146.797 158.144 145.54 157.451 145.173 156.184C144.806 154.917 145.498 153.659 146.765 153.292C148.033 152.925 149.29 153.617 149.657 154.885ZM140.884 157.427C141.251 158.694 140.558 159.951 139.291 160.318C138.024 160.686 136.766 159.993 136.399 158.726C136.032 157.458 136.725 156.201 137.992 155.834C139.259 155.467 140.516 156.159 140.884 157.427ZM132.11 159.968C132.477 161.236 131.785 162.493 130.518 162.86C129.25 163.227 127.993 162.535 127.626 161.268C127.259 160 127.951 158.743 129.218 158.376C130.486 158.009 131.743 158.701 132.11 159.968ZM123.239 162.538C123.606 163.806 122.914 165.063 121.647 165.43C120.379 165.797 119.122 165.105 118.755 163.838C118.388 162.57 119.08 161.313 120.347 160.946C121.615 160.579 122.872 161.271 123.239 162.538ZM114.466 165.08C114.833 166.348 114.141 167.605 112.873 167.972C111.606 168.339 110.349 167.647 109.981 166.379C109.614 165.112 110.307 163.855 111.574 163.488C112.841 163.12 114.098 163.813 114.466 165.08ZM105.692 167.622C106.059 168.89 105.367 170.147 104.1 170.514C102.833 170.881 101.575 170.189 101.208 168.921C100.841 167.654 101.533 166.397 102.801 166.029C103.97 165.69 105.325 166.355 105.692 167.622ZM96.8213 170.192C97.1885 171.46 96.4962 172.717 95.2289 173.084C93.9616 173.451 92.7043 172.759 92.3371 171.491C91.9699 170.224 92.6624 168.967 93.9296 168.599C95.1969 168.232 96.4541 168.925 96.8213 170.192Z" fill="#231F20"/>
<path d="M217.171 124.228C217.002 123.643 216.637 123.115 216.037 122.866C215.534 122.589 214.864 122.466 214.279 122.635C213.695 122.805 213.166 123.169 212.917 123.77C212.363 124.776 212.815 126.336 213.821 126.89C214.324 127.167 214.994 127.289 215.579 127.12C216.164 126.951 216.692 126.586 216.941 125.986C217.315 125.455 217.341 124.813 217.171 124.228Z" fill="#231F20"/>
<path d="M208.398 126.769C208.765 128.037 208.073 129.294 206.805 129.661C205.538 130.028 204.281 129.336 203.914 128.069C203.546 126.801 204.239 125.544 205.506 125.177C206.802 124.907 208.059 125.6 208.398 126.769ZM199.624 129.311C199.992 130.579 199.299 131.836 198.032 132.203C196.765 132.57 195.507 131.878 195.14 130.61C194.773 129.343 195.465 128.086 196.733 127.719C198.028 127.449 199.285 128.141 199.624 129.311ZM190.753 131.881C191.121 133.149 190.428 134.406 189.161 134.773C187.894 135.14 186.636 134.448 186.269 133.18C185.902 131.913 186.594 130.656 187.862 130.289C189.157 130.019 190.415 130.711 190.753 131.881ZM181.98 134.423C182.347 135.691 181.655 136.948 180.387 137.315C179.12 137.682 177.863 136.99 177.496 135.722C177.129 134.455 177.821 133.198 179.088 132.83C180.355 132.463 181.641 133.253 181.98 134.423ZM173.207 136.965C173.574 138.232 172.881 139.49 171.614 139.857C170.347 140.224 169.09 139.531 168.722 138.264C168.355 136.997 169.047 135.739 170.315 135.372C171.582 135.005 172.868 135.795 173.207 136.965ZM164.336 139.535C164.703 140.802 164.01 142.06 162.743 142.427C161.476 142.794 160.219 142.102 159.851 140.834C159.484 139.567 160.177 138.309 161.444 137.942C162.739 137.673 163.997 138.365 164.336 139.535ZM155.562 142.077C155.929 143.344 155.237 144.602 153.97 144.969C152.702 145.336 151.445 144.643 151.078 143.376C150.711 142.109 151.403 140.851 152.67 140.484C153.966 140.215 155.223 140.907 155.562 142.077ZM146.691 144.647C147.058 145.914 146.366 147.172 145.099 147.539C143.831 147.906 142.574 147.213 142.207 145.946C141.84 144.679 142.532 143.421 143.8 143.054C145.095 142.785 146.352 143.477 146.691 144.647ZM137.918 147.189C138.285 148.456 137.593 149.713 136.325 150.081C135.058 150.448 133.801 149.755 133.434 148.488C133.066 147.221 133.759 145.963 135.026 145.596C136.322 145.326 137.579 146.019 137.918 147.189ZM129.144 149.731C129.512 150.998 128.819 152.255 127.552 152.622C126.285 152.99 125.027 152.297 124.66 151.03C124.293 149.762 124.985 148.505 126.253 148.138C127.548 147.868 128.805 148.561 129.144 149.731ZM120.273 152.301C120.641 153.568 119.948 154.825 118.681 155.192C117.414 155.56 116.156 154.867 115.789 153.6C115.422 152.332 116.114 151.075 117.382 150.708C118.677 150.438 119.934 151.131 120.273 152.301ZM111.5 154.842C111.867 156.11 111.175 157.367 109.908 157.734C108.64 158.101 107.383 157.409 107.016 156.142C106.649 154.874 107.341 153.617 108.608 153.25C109.876 152.883 111.161 153.673 111.5 154.842ZM102.726 157.384C103.094 158.652 102.401 159.909 101.134 160.276C99.8668 160.643 98.6095 159.951 98.2423 158.683C97.8751 157.416 98.5675 156.159 99.8348 155.792C101.033 155.55 102.388 156.214 102.726 157.384ZM93.8556 159.954C94.2227 161.222 93.5304 162.479 92.2631 162.846C90.9959 163.213 89.7386 162.521 89.3714 161.253C89.0042 159.986 89.6966 158.729 90.9639 158.362C92.2594 158.092 93.5166 158.784 93.8556 159.954ZM85.0821 162.496C85.4493 163.763 84.757 165.021 83.4897 165.388C82.2224 165.755 80.9651 165.063 80.5979 163.795C80.2307 162.528 80.9232 161.271 82.1905 160.903C83.486 160.634 84.7432 161.326 85.0821 162.496ZM76.2112 165.066C76.5784 166.334 75.8859 167.591 74.6187 167.958C73.3514 168.325 72.0942 167.633 71.727 166.365C71.3598 165.098 72.0521 163.841 73.3194 163.473C74.6149 163.204 75.8723 163.896 76.2112 165.066Z" fill="#231F20"/>
<path d="M214.234 114.089C214.064 113.504 213.7 112.975 213.1 112.726C212.597 112.449 211.927 112.326 211.342 112.496C210.757 112.665 210.229 113.03 209.98 113.63C209.426 114.636 209.878 116.196 210.884 116.75C211.387 117.027 212.057 117.15 212.642 116.98C213.226 116.811 213.755 116.447 214.004 115.846C214.378 115.315 214.403 114.674 214.234 114.089Z" fill="#231F20"/>
<path d="M205.46 116.63C205.827 117.898 205.135 119.155 203.867 119.522C202.6 119.889 201.343 119.197 200.976 117.929C200.609 116.662 201.301 115.405 202.568 115.037C203.864 114.768 205.121 115.46 205.46 116.63ZM196.686 119.172C197.054 120.439 196.361 121.697 195.094 122.064C193.827 122.431 192.569 121.739 192.202 120.471C191.835 119.204 192.527 117.946 193.795 117.579C195.09 117.31 196.347 118.002 196.686 119.172ZM187.816 121.742C188.183 123.01 187.49 124.267 186.223 124.634C184.956 125.001 183.699 124.309 183.331 123.041C182.964 121.774 183.656 120.517 184.924 120.149C186.219 119.88 187.477 120.572 187.816 121.742ZM179.042 124.284C179.409 125.551 178.717 126.809 177.45 127.176C176.182 127.543 174.925 126.85 174.558 125.583C174.191 124.316 174.883 123.058 176.15 122.691C177.418 122.324 178.703 123.114 179.042 124.284ZM170.269 126.826C170.636 128.093 169.943 129.35 168.676 129.718C167.409 130.085 166.152 129.392 165.784 128.125C165.417 126.858 166.11 125.6 167.377 125.233C168.644 124.866 169.93 125.656 170.269 126.826ZM161.398 129.396C161.765 130.663 161.072 131.921 159.805 132.288C158.538 132.655 157.281 131.962 156.914 130.695C156.546 129.428 157.239 128.17 158.506 127.803C159.801 127.533 161.059 128.226 161.398 129.396ZM152.624 131.938C152.991 133.205 152.299 134.462 151.032 134.83C149.764 135.197 148.507 134.504 148.14 133.237C147.773 131.969 148.465 130.712 149.732 130.345C151.028 130.075 152.285 130.768 152.624 131.938ZM143.753 134.508C144.121 135.775 143.428 137.032 142.161 137.4C140.894 137.767 139.636 137.074 139.269 135.807C138.902 134.539 139.594 133.282 140.862 132.915C142.157 132.645 143.414 133.338 143.753 134.508ZM134.98 137.049C135.347 138.317 134.655 139.574 133.387 139.941C132.12 140.309 130.863 139.616 130.496 138.349C130.128 137.081 130.821 135.824 132.088 135.457C133.384 135.187 134.641 135.88 134.98 137.049ZM126.206 139.591C126.574 140.859 125.881 142.116 124.614 142.483C123.347 142.85 122.089 142.158 121.722 140.89C121.355 139.623 122.047 138.366 123.315 137.999C124.61 137.729 125.868 138.421 126.206 139.591ZM117.335 142.161C117.703 143.429 117.01 144.686 115.743 145.053C114.476 145.42 113.218 144.728 112.851 143.461C112.484 142.193 113.176 140.936 114.444 140.569C115.739 140.299 116.996 140.991 117.335 142.161ZM108.562 144.703C108.929 145.971 108.237 147.228 106.97 147.595C105.702 147.962 104.445 147.27 104.078 146.002C103.711 144.735 104.403 143.478 105.67 143.11C106.938 142.743 108.223 143.533 108.562 144.703ZM99.7885 147.245C100.156 148.512 99.4634 149.77 98.1961 150.137C96.9288 150.504 95.6715 149.812 95.3043 148.544C94.9372 147.277 95.6296 146.019 96.8968 145.652C98.0949 145.411 99.4496 146.075 99.7885 147.245ZM90.9176 149.815C91.2848 151.082 90.5925 152.34 89.3252 152.707C88.0579 153.074 86.8006 152.382 86.4334 151.114C86.0662 149.847 86.7587 148.589 88.0259 148.222C89.3215 147.953 90.5787 148.645 90.9176 149.815ZM82.1442 152.357C82.5114 153.624 81.819 154.882 80.5518 155.249C79.2845 155.616 78.0272 154.923 77.66 153.656C77.2928 152.389 77.9852 151.131 79.2525 150.764C80.548 150.494 81.8052 151.187 82.1442 152.357ZM73.2733 154.927C73.6404 156.194 72.948 157.452 71.6807 157.819C70.4135 158.186 69.1563 157.493 68.7891 156.226C68.4219 154.959 69.1142 153.701 70.3815 153.334C71.677 153.065 72.9343 153.757 73.2733 154.927ZM64.4998 157.469C64.867 158.736 64.1746 159.993 62.9073 160.361C61.64 160.728 60.3828 160.035 60.0156 158.768C59.6484 157.501 60.3407 156.243 61.608 155.876C62.9035 155.606 64.1609 156.299 64.4998 157.469ZM55.7264 160.011C56.0935 161.278 55.4011 162.535 54.1338 162.902C52.8666 163.27 51.6094 162.577 51.2422 161.31C50.875 160.042 51.5673 158.785 52.8346 158.418C54.0326 158.176 55.3874 158.841 55.7264 160.011Z" fill="#231F20"/>
<path d="M211.296 103.949C211.126 103.364 210.762 102.836 210.162 102.587C209.659 102.31 208.989 102.187 208.404 102.356C207.819 102.526 207.291 102.89 207.042 103.491C206.516 104.594 206.94 106.056 207.946 106.61C208.449 106.887 209.119 107.01 209.704 106.841C210.288 106.671 210.817 106.307 211.066 105.706C211.44 105.175 211.465 104.534 211.296 103.949Z" fill="#231F20"/>
<path d="M202.523 106.492C202.89 107.759 202.198 109.017 200.931 109.384C199.663 109.751 198.406 109.059 198.039 107.791C197.672 106.524 198.364 105.266 199.631 104.899C200.899 104.532 202.184 105.322 202.523 106.492ZM193.75 109.034C194.117 110.301 193.425 111.558 192.157 111.926C190.89 112.293 189.633 111.6 189.265 110.333C188.898 109.066 189.591 107.808 190.858 107.441C192.125 107.074 193.411 107.864 193.75 109.034ZM184.879 111.604C185.246 112.871 184.554 114.129 183.286 114.496C182.019 114.863 180.762 114.17 180.395 112.903C180.027 111.636 180.72 110.378 181.987 110.011C183.254 109.644 184.54 110.434 184.879 111.604ZM176.105 114.146C176.473 115.413 175.78 116.67 174.513 117.038C173.246 117.405 171.988 116.712 171.621 115.445C171.254 114.177 171.946 112.92 173.214 112.553C174.481 112.186 175.766 112.976 176.105 114.146ZM167.332 116.687C167.699 117.955 167.007 119.212 165.739 119.579C164.472 119.947 163.215 119.254 162.848 117.987C162.481 116.719 163.173 115.462 164.44 115.095C165.707 114.728 166.993 115.518 167.332 116.687ZM158.461 119.258C158.828 120.525 158.136 121.782 156.868 122.149C155.601 122.517 154.344 121.824 153.977 120.557C153.61 119.289 154.302 118.032 155.569 117.665C156.836 117.298 158.122 118.088 158.461 119.258ZM149.688 121.799C150.055 123.067 149.362 124.324 148.095 124.691C146.828 125.058 145.571 124.366 145.203 123.098C144.836 121.831 145.528 120.574 146.796 120.207C148.063 119.839 149.349 120.629 149.688 121.799ZM140.817 124.369C141.184 125.637 140.491 126.894 139.224 127.261C137.957 127.628 136.699 126.936 136.332 125.669C135.965 124.401 136.658 123.144 137.925 122.777C139.192 122.41 140.478 123.199 140.817 124.369ZM132.043 126.911C132.41 128.179 131.718 129.436 130.451 129.803C129.183 130.17 127.926 129.478 127.559 128.21C127.192 126.943 127.884 125.686 129.151 125.319C130.419 124.951 131.704 125.741 132.043 126.911ZM123.27 129.453C123.637 130.72 122.944 131.978 121.677 132.345C120.41 132.712 119.153 132.02 118.785 130.752C118.418 129.485 119.111 128.227 120.378 127.86C121.645 127.493 122.931 128.283 123.27 129.453ZM114.399 132.023C114.766 133.291 114.074 134.548 112.806 134.915C111.539 135.282 110.282 134.59 109.915 133.322C109.547 132.055 110.24 130.798 111.507 130.43C112.774 130.063 114.06 130.853 114.399 132.023ZM105.625 134.565C105.992 135.832 105.3 137.09 104.033 137.457C102.766 137.824 101.508 137.131 101.141 135.864C100.774 134.597 101.466 133.339 102.734 132.972C104.001 132.605 105.286 133.395 105.625 134.565ZM96.8518 137.107C97.219 138.374 96.5267 139.631 95.2594 139.999C93.9921 140.366 92.7348 139.673 92.3676 138.406C92.0004 137.138 92.6929 135.881 93.9601 135.514C95.1299 135.175 96.5129 135.937 96.8518 137.107ZM87.9809 139.677C88.3481 140.944 87.6558 142.201 86.3885 142.569C85.1212 142.936 83.8639 142.243 83.4967 140.976C83.1295 139.709 83.822 138.451 85.0892 138.084C86.3565 137.717 87.642 138.507 87.9809 139.677ZM79.2074 142.219C79.5746 143.486 78.8823 144.743 77.615 145.11C76.3478 145.478 75.0904 144.785 74.7233 143.518C74.3561 142.25 75.0485 140.993 76.3158 140.626C77.5831 140.259 78.8685 141.049 79.2074 142.219ZM70.3365 144.789C70.7037 146.056 70.0113 147.313 68.744 147.681C67.4767 148.048 66.2195 147.355 65.8524 146.088C65.4852 144.82 66.1775 143.563 67.4448 143.196C68.712 142.829 69.9976 143.619 70.3365 144.789ZM61.5631 147.33C61.9303 148.598 61.2378 149.855 59.9706 150.222C58.7033 150.59 57.4461 149.897 57.0789 148.63C56.7117 147.362 57.404 146.105 58.6713 145.738C59.9386 145.371 61.2242 146.161 61.5631 147.33ZM52.7896 149.872C53.1568 151.14 52.4644 152.397 51.1971 152.764C49.9298 153.131 48.6726 152.439 48.3055 151.171C47.9383 149.904 48.6306 148.647 49.8979 148.28C51.0677 147.941 52.4507 148.702 52.7896 149.872ZM43.9187 152.442C44.2859 153.71 43.5935 154.967 42.3262 155.334C41.0589 155.701 39.8017 155.009 39.4346 153.741C39.0674 152.474 39.7597 151.217 41.027 150.85C42.2942 150.482 43.5798 151.272 43.9187 152.442ZM35.1453 154.984C35.5125 156.252 34.82 157.509 33.5528 157.876C32.2855 158.243 31.0283 157.551 30.6611 156.283C30.2939 155.016 30.9862 153.759 32.2535 153.391C33.5208 153.024 34.8063 153.814 35.1453 154.984Z" fill="#231F20"/>
<path d="M208.359 93.8103C208.189 93.2253 207.825 92.6968 207.225 92.4481C206.722 92.1711 206.052 92.048 205.467 92.2175C204.882 92.387 204.354 92.7514 204.105 93.3519C203.579 94.4552 204.003 95.9176 205.009 96.4716C205.512 96.7486 206.182 96.8716 206.767 96.7022C207.351 96.5327 207.88 96.1683 208.129 95.5679C208.503 95.0367 208.528 94.3952 208.359 93.8103Z" fill="#231F20"/>
<path d="M199.586 96.3529C199.953 97.6203 199.26 98.8776 197.993 99.2448C196.726 99.612 195.469 98.9194 195.101 97.652C194.734 96.3846 195.427 95.1273 196.694 94.7601C197.961 94.393 199.247 95.183 199.586 96.3529ZM190.812 98.8947C191.179 100.162 190.487 101.419 189.22 101.787C187.952 102.154 186.695 101.461 186.328 100.194C185.961 98.9264 186.653 97.6691 187.92 97.3019C189.188 96.9348 190.473 97.7248 190.812 98.8947ZM181.941 101.465C182.308 102.732 181.616 103.99 180.349 104.357C179.081 104.724 177.824 104.031 177.457 102.764C177.09 101.496 177.782 100.239 179.049 99.872C180.317 99.5049 181.602 100.295 181.941 101.465ZM173.168 104.007C173.535 105.274 172.843 106.531 171.575 106.899C170.308 107.266 169.051 106.573 168.684 105.306C168.316 104.038 169.009 102.781 170.276 102.414C171.543 102.047 172.829 102.837 173.168 104.007ZM164.394 106.548C164.762 107.816 164.069 109.073 162.802 109.44C161.535 109.807 160.277 109.115 159.91 107.848C159.543 106.58 160.235 105.323 161.503 104.956C162.77 104.588 164.055 105.378 164.394 106.548ZM155.523 109.118C155.891 110.386 155.198 111.643 153.931 112.01C152.664 112.378 151.406 111.685 151.039 110.418C150.672 109.15 151.364 107.893 152.632 107.526C153.899 107.159 155.184 107.949 155.523 109.118ZM146.75 111.66C147.117 112.928 146.425 114.185 145.157 114.552C143.89 114.919 142.633 114.227 142.266 112.959C141.899 111.692 142.591 110.435 143.858 110.068C145.125 109.7 146.411 110.49 146.75 111.66ZM137.879 114.23C138.246 115.498 137.554 116.755 136.287 117.122C135.019 117.489 133.762 116.797 133.395 115.529C133.028 114.262 133.72 113.005 134.987 112.638C136.255 112.27 137.54 113.06 137.879 114.23ZM129.106 116.772C129.473 118.04 128.78 119.297 127.513 119.664C126.246 120.031 124.989 119.339 124.621 118.071C124.254 116.804 124.947 115.547 126.214 115.179C127.481 114.812 128.767 115.602 129.106 116.772ZM120.332 119.314C120.699 120.581 120.007 121.839 118.74 122.206C117.472 122.573 116.215 121.881 115.848 120.613C115.481 119.346 116.173 118.088 117.44 117.721C118.708 117.354 119.993 118.144 120.332 119.314ZM111.461 121.884C111.828 123.151 111.136 124.409 109.869 124.776C108.601 125.143 107.344 124.451 106.977 123.183C106.61 121.916 107.302 120.658 108.569 120.291C109.837 119.924 111.122 120.714 111.461 121.884ZM102.688 124.426C103.055 125.693 102.363 126.951 101.095 127.318C99.828 127.685 98.5707 126.992 98.2035 125.725C97.8363 124.458 98.5288 123.2 99.796 122.833C101.063 122.466 102.349 123.256 102.688 124.426ZM93.9142 126.968C94.2814 128.235 93.5891 129.492 92.3219 129.86C91.0546 130.227 89.7973 129.534 89.4301 128.267C89.0629 126.999 89.7553 125.742 91.0226 125.375C92.1924 125.036 93.5753 125.798 93.9142 126.968ZM85.0433 129.538C85.4105 130.805 84.7182 132.062 83.451 132.43C82.1837 132.797 80.9263 132.104 80.5592 130.837C80.192 129.569 80.8844 128.312 82.1517 127.945C83.4189 127.578 84.7044 128.368 85.0433 129.538ZM76.2699 132.08C76.6371 133.347 75.9448 134.604 74.6775 134.971C73.4102 135.339 72.1529 134.646 71.7857 133.379C71.4185 132.111 72.1109 130.854 73.3782 130.487C74.6455 130.12 75.9309 130.91 76.2699 132.08ZM67.399 134.65C67.7662 135.917 67.0738 137.174 65.8065 137.542C64.5392 137.909 63.282 137.216 62.9148 135.949C62.5476 134.681 63.2399 133.424 64.5072 133.057C65.7745 132.69 67.06 133.48 67.399 134.65ZM58.6255 137.191C58.9927 138.459 58.3003 139.716 57.033 140.083C55.7658 140.451 54.5085 139.758 54.1413 138.491C53.7742 137.223 54.4665 135.966 55.7337 135.599C57.001 135.232 58.2866 136.021 58.6255 137.191ZM49.8521 139.733C50.2193 141.001 49.5269 142.258 48.2596 142.625C46.9923 142.992 45.7351 142.3 45.3679 141.032C45.0007 139.765 45.693 138.508 46.9603 138.14C48.1301 137.802 49.5131 138.563 49.8521 139.733Z" fill="#231F20"/>
<path d="M205.421 83.6706C205.252 83.0856 204.888 82.5571 204.287 82.3084C203.784 82.0314 203.115 81.9084 202.53 82.0779C201.945 82.2473 201.416 82.6117 201.168 83.2121C200.614 84.218 201.066 85.7779 202.071 86.3319C202.574 86.6088 203.244 86.7318 203.829 86.5624C204.414 86.3929 204.942 86.0285 205.191 85.4281C205.565 84.8969 205.591 84.2555 205.421 83.6706Z" fill="#231F20"/>
<path d="M196.648 86.2138C197.015 87.4812 196.323 88.7385 195.056 89.1056C193.789 89.4728 192.531 88.7803 192.164 87.513C191.797 86.2456 192.489 84.9882 193.757 84.6211C195.024 84.2539 196.281 84.9464 196.648 86.2138ZM187.875 88.7556C188.242 90.023 187.55 91.2803 186.282 91.6474C185.015 92.0146 183.758 91.3221 183.391 90.0548C183.023 88.7874 183.716 87.5301 184.983 87.1629C186.25 86.7958 187.508 87.4882 187.875 88.7556ZM179.004 91.3257C179.371 92.5931 178.679 93.8504 177.411 94.2175C176.144 94.5847 174.887 93.8922 174.52 92.6248C174.153 91.3574 174.845 90.1001 176.112 89.733C177.379 89.3658 178.637 90.0583 179.004 91.3257ZM170.23 93.8675C170.598 95.1349 169.905 96.3922 168.638 96.7594C167.371 97.1265 166.113 96.434 165.746 95.1666C165.379 93.8993 166.071 92.642 167.339 92.2748C168.606 91.9077 169.863 92.6001 170.23 93.8675ZM161.457 96.4093C161.824 97.6767 161.132 98.934 159.865 99.3012C158.597 99.6683 157.34 98.9758 156.973 97.7085C156.606 96.4411 157.298 95.1838 158.565 94.8166C159.735 94.4777 161.09 95.1419 161.457 96.4093ZM152.586 98.9794C152.953 100.247 152.261 101.504 150.994 101.871C149.726 102.238 148.469 101.546 148.102 100.279C147.735 99.0111 148.427 97.7538 149.694 97.3867C150.962 97.0195 152.219 97.712 152.586 98.9794ZM143.813 101.521C144.18 102.789 143.487 104.046 142.22 104.413C140.953 104.78 139.696 104.088 139.328 102.82C138.961 101.553 139.654 100.296 140.921 99.9285C142.188 99.5613 143.445 100.254 143.813 101.521ZM134.942 104.091C135.309 105.359 134.617 106.616 133.349 106.983C132.082 107.35 130.825 106.658 130.457 105.39C130.09 104.123 130.783 102.866 132.05 102.499C133.317 102.131 134.575 102.824 134.942 104.091ZM126.168 106.633C126.536 107.9 125.843 109.158 124.576 109.525C123.309 109.892 122.051 109.2 121.684 107.932C121.317 106.665 122.009 105.408 123.277 105.04C124.544 104.673 125.801 105.366 126.168 106.633ZM117.395 109.175C117.762 110.442 117.07 111.7 115.802 112.067C114.535 112.434 113.278 111.741 112.911 110.474C112.543 109.207 113.236 107.949 114.503 107.582C115.77 107.215 117.028 107.907 117.395 109.175ZM108.524 111.745C108.891 113.012 108.199 114.27 106.931 114.637C105.664 115.004 104.407 114.311 104.04 113.044C103.672 111.777 104.365 110.519 105.632 110.152C106.899 109.785 108.157 110.478 108.524 111.745ZM99.7504 114.287C100.118 115.554 99.4253 116.811 98.158 117.179C96.8907 117.546 95.6334 116.853 95.2662 115.586C94.899 114.319 95.5915 113.061 96.8587 112.694C98.126 112.327 99.3832 113.019 99.7504 114.287ZM90.977 116.829C91.3441 118.096 90.6518 119.353 89.3845 119.72C88.1173 120.088 86.8599 119.395 86.4928 118.128C86.1256 116.86 86.818 115.603 88.0853 115.236C89.2551 114.897 90.6098 115.561 90.977 116.829ZM82.106 119.399C82.4732 120.666 81.7809 121.923 80.5136 122.29C79.2464 122.658 77.989 121.965 77.6219 120.698C77.2547 119.43 77.9471 118.173 79.2144 117.806C80.4817 117.439 81.7389 118.131 82.106 119.399ZM73.3326 121.94C73.6998 123.208 73.0075 124.465 71.7402 124.832C70.4729 125.199 69.2156 124.507 68.8484 123.24C68.4812 121.972 69.1737 120.715 70.4409 120.348C71.7082 119.981 72.9654 120.673 73.3326 121.94ZM64.4617 124.511C64.8289 125.778 64.1364 127.035 62.8692 127.402C61.6019 127.77 60.3447 127.077 59.9775 125.81C59.6103 124.542 60.3026 123.285 61.5699 122.918C62.8372 122.551 64.0945 123.243 64.4617 124.511Z" fill="#231F20"/>
<path d="M202.483 73.5319C202.314 72.947 201.95 72.4185 201.349 72.1698C200.846 71.8928 200.177 71.7697 199.592 71.9392C199.007 72.1086 198.478 72.4731 198.23 73.0735C197.704 74.1769 198.128 75.6393 199.133 76.1933C199.636 76.4703 200.306 76.5932 200.891 76.4238C201.476 76.2543 202.004 75.8899 202.253 75.2895C202.627 74.7583 202.653 74.1169 202.483 73.5319Z" fill="#231F20"/>
<path d="M193.71 76.0738C194.077 77.3412 193.385 78.5985 192.118 78.9656C190.85 79.3328 189.593 78.6403 189.226 77.3729C188.859 76.1055 189.551 74.8482 190.819 74.481C192.086 74.1139 193.343 74.8064 193.71 76.0738ZM184.937 78.6156C185.304 79.883 184.612 81.1403 183.344 81.5074C182.077 81.8746 180.82 81.1821 180.453 79.9147C180.085 78.6473 180.778 77.39 182.045 77.0228C183.312 76.6557 184.57 77.3482 184.937 78.6156ZM176.066 81.1856C176.433 82.453 175.741 83.7104 174.473 84.0775C173.206 84.4447 171.949 83.7522 171.582 82.4848C171.214 81.2174 171.907 79.9601 173.174 79.5929C174.441 79.2258 175.699 79.9182 176.066 81.1856ZM167.292 83.7275C167.66 84.9948 166.967 86.2522 165.7 86.6193C164.433 86.9865 163.175 86.294 162.808 85.0266C162.441 83.7592 163.133 82.5019 164.401 82.1347C165.668 81.7676 166.925 82.4601 167.292 83.7275ZM158.519 86.2693C158.886 87.5367 158.194 88.794 156.926 89.1612C155.659 89.5283 154.402 88.8358 154.035 87.5684C153.668 86.301 154.36 85.0437 155.627 84.6766C156.894 84.3094 158.152 85.0019 158.519 86.2693ZM149.648 88.8393C150.015 90.1067 149.323 91.364 148.056 91.7312C146.788 92.0984 145.531 91.4059 145.164 90.1385C144.797 88.8711 145.489 87.6138 146.756 87.2466C148.024 86.8795 149.281 87.5719 149.648 88.8393ZM140.875 91.3811C141.242 92.6485 140.549 93.9059 139.282 94.273C138.015 94.6402 136.758 93.9477 136.39 92.6803C136.023 91.4129 136.716 90.1556 137.983 89.7884C139.25 89.4213 140.507 90.1137 140.875 91.3811ZM132.004 93.9512C132.371 95.2186 131.678 96.4759 130.411 96.8431C129.144 97.2102 127.887 96.5178 127.519 95.2504C127.152 93.983 127.845 92.7256 129.112 92.3585C130.379 91.9913 131.637 92.6838 132.004 93.9512ZM123.23 96.493C123.597 97.7604 122.905 99.0177 121.638 99.3849C120.37 99.752 119.113 99.0596 118.746 97.7922C118.379 96.5248 119.071 95.2674 120.338 94.9003C121.606 94.5331 122.863 95.2256 123.23 96.493ZM114.457 99.0348C114.824 100.302 114.132 101.56 112.864 101.927C111.597 102.294 110.34 101.601 109.972 100.334C109.605 99.0666 110.298 97.8093 111.565 97.4421C112.832 97.075 114.09 97.7674 114.457 99.0348ZM105.586 101.605C105.953 102.872 105.261 104.13 103.993 104.497C102.726 104.864 101.469 104.171 101.102 102.904C100.734 101.637 101.427 100.379 102.694 100.012C103.961 99.645 105.219 100.338 105.586 101.605ZM96.8123 104.147C97.1795 105.414 96.4872 106.671 95.2199 107.039C93.9527 107.406 92.6953 106.713 92.3282 105.446C91.961 104.178 92.6534 102.921 93.9207 102.554C95.188 102.187 96.4452 102.879 96.8123 104.147ZM88.0389 106.689C88.4061 107.956 87.7138 109.213 86.4465 109.58C85.1792 109.948 83.9219 109.255 83.5547 107.988C83.1875 106.72 83.88 105.463 85.1472 105.096C86.317 104.757 87.6717 105.421 88.0389 106.689ZM79.168 109.259C79.5352 110.526 78.8429 111.783 77.5756 112.15C76.3083 112.518 75.051 111.825 74.6838 110.558C74.3166 109.29 75.0091 108.033 76.2763 107.666C77.5436 107.299 78.8008 107.991 79.168 109.259Z" fill="#231F20"/>
<path d="M199.547 63.3926C199.377 62.8077 199.013 62.2792 198.412 62.0304C197.909 61.7534 197.24 61.6304 196.655 61.7998C196.07 61.9693 195.541 62.3338 195.293 62.9342C194.641 63.9683 195.093 65.5282 196.197 66.0539C196.699 66.3309 197.369 66.4539 197.954 66.2845C198.539 66.115 199.067 65.7506 199.316 65.1501C199.691 64.619 199.716 63.9776 199.547 63.3926Z" fill="#231F20"/>
<path d="M190.773 65.9347C191.141 67.2021 190.448 68.4594 189.181 68.8265C187.914 69.1937 186.656 68.5012 186.289 67.2338C185.922 65.9665 186.614 64.7091 187.882 64.3419C189.149 63.9748 190.406 64.6673 190.773 65.9347ZM182 68.4765C182.367 69.7439 181.675 71.0012 180.408 71.3684C179.14 71.7355 177.883 71.0431 177.516 69.7757C177.149 68.5083 177.841 67.2509 179.108 66.8837C180.376 66.5166 181.633 67.2091 182 68.4765ZM173.129 71.0466C173.496 72.314 172.804 73.5713 171.537 73.9385C170.269 74.3056 169.012 73.6131 168.645 72.3457C168.278 71.0783 168.97 69.821 170.237 69.4538C171.505 69.0867 172.762 69.7792 173.129 71.0466ZM164.356 73.5884C164.723 74.8558 164.03 76.1131 162.763 76.4803C161.496 76.8474 160.239 76.1549 159.871 74.8875C159.504 73.6201 160.197 72.3628 161.464 71.9956C162.731 71.6285 163.988 72.321 164.356 73.5884ZM155.582 76.1302C155.949 77.3976 155.257 78.6549 153.99 79.0221C152.722 79.3892 151.465 78.6967 151.098 77.4293C150.731 76.162 151.423 74.9046 152.69 74.5374C153.958 74.1703 155.215 74.8628 155.582 76.1302ZM146.711 78.7003C147.078 79.9676 146.386 81.225 145.119 81.5921C143.851 81.9593 142.594 81.2668 142.227 79.9994C141.86 78.732 142.552 77.4746 143.819 77.1075C145.087 76.7403 146.344 77.4329 146.711 78.7003ZM137.938 81.2421C138.305 82.5095 137.613 83.7668 136.345 84.134C135.078 84.5011 133.821 83.8086 133.454 82.5412C133.086 81.2738 133.779 80.0165 135.046 79.6493C136.313 79.2822 137.571 79.9747 137.938 81.2421ZM129.067 83.8121C129.434 85.0795 128.742 86.3369 127.474 86.704C126.207 87.0712 124.95 86.3787 124.583 85.1113C124.215 83.8439 124.908 82.5865 126.175 82.2194C127.442 81.8522 128.7 82.5447 129.067 83.8121ZM120.293 86.3539C120.661 87.6213 119.968 88.8787 118.701 89.2458C117.434 89.613 116.176 88.9205 115.809 87.6531C115.442 86.3857 116.134 85.1283 117.402 84.7612C118.669 84.394 119.926 85.0866 120.293 86.3539ZM111.52 88.8958C111.887 90.1631 111.195 91.4205 109.927 91.7876C108.66 92.1548 107.403 91.4623 107.036 90.1949C106.669 88.9275 107.361 87.6701 108.628 87.303C109.895 86.9358 111.153 87.6284 111.52 88.8958ZM102.649 91.4658C103.016 92.7332 102.324 93.9905 101.057 94.3577C99.7893 94.7248 98.532 94.0324 98.1648 92.765C97.7976 91.4976 98.49 90.2402 99.7573 89.873C101.025 89.5059 102.282 90.1985 102.649 91.4658ZM93.8755 94.0077C94.2427 95.275 93.5504 96.5324 92.2831 96.8995C91.0159 97.2667 89.7585 96.5742 89.3913 95.3068C89.0242 94.0394 89.7166 92.782 90.9838 92.4149C92.2511 92.0477 93.5083 92.7403 93.8755 94.0077Z" fill="#231F20"/>
<path d="M196.609 53.2539C196.439 52.6689 196.075 52.1405 195.474 51.8917C194.971 51.6147 194.302 51.4917 193.717 51.6612C193.132 51.8306 192.603 52.1951 192.355 52.7955C191.703 53.8296 192.155 55.3894 193.259 55.9152C193.761 56.1922 194.431 56.3152 195.016 56.1457C195.601 55.9762 196.129 55.6118 196.378 55.0114C196.724 54.3827 196.778 53.8388 196.609 53.2539Z" fill="#231F20"/>
<path d="M187.835 55.7955C188.202 57.0629 187.51 58.3202 186.242 58.6873C184.975 59.0545 183.718 58.362 183.351 57.0947C182.983 55.8273 183.676 54.5699 184.943 54.2028C186.21 53.8356 187.468 54.5281 187.835 55.7955ZM179.061 58.3373C179.429 59.6047 178.736 60.862 177.469 61.2292C176.202 61.5963 174.944 60.9038 174.577 59.6365C174.21 58.3691 174.902 57.1118 176.17 56.7446C177.437 56.3775 178.694 57.0699 179.061 58.3373ZM170.19 60.9074C170.558 62.1748 169.865 63.4321 168.598 63.7992C167.331 64.1664 166.073 63.4739 165.706 62.2065C165.339 60.9391 166.031 59.6819 167.299 59.3147C168.566 58.9475 169.823 59.64 170.19 60.9074ZM161.417 63.4492C161.784 64.7166 161.092 65.9739 159.825 66.3411C158.557 66.7082 157.3 66.0157 156.933 64.7483C156.566 63.481 157.258 62.2237 158.525 61.8565C159.793 61.4894 161.05 62.1818 161.417 63.4492ZM152.644 65.991C153.011 67.2584 152.318 68.5157 151.051 68.8829C149.784 69.25 148.527 68.5575 148.159 67.2902C147.792 66.0228 148.485 64.7655 149.752 64.3983C151.019 64.0312 152.276 64.7236 152.644 65.991ZM143.773 68.5611C144.14 69.8284 143.447 71.0858 142.18 71.4529C140.913 71.8201 139.656 71.1276 139.289 69.8602C138.921 68.5928 139.614 67.3355 140.881 66.9684C142.148 66.6012 143.406 67.2937 143.773 68.5611ZM134.999 71.1029C135.366 72.3703 134.674 73.6276 133.407 73.9947C132.139 74.3619 130.882 73.6694 130.515 72.402C130.148 71.1346 130.84 69.8774 132.107 69.5102C133.375 69.1431 134.632 69.8355 134.999 71.1029ZM126.128 73.6729C126.496 74.9403 125.803 76.1976 124.536 76.5648C123.269 76.9319 122.011 76.2395 121.644 74.9721C121.277 73.7047 121.969 72.4474 123.237 72.0803C124.504 71.7131 125.761 72.4056 126.128 73.6729ZM117.355 76.2148C117.722 77.4821 117.03 78.7395 115.762 79.1066C114.495 79.4738 113.238 78.7813 112.871 77.5139C112.503 76.2466 113.196 74.9892 114.463 74.6221C115.73 74.2549 116.988 74.9474 117.355 76.2148ZM108.581 78.7566C108.949 80.0239 108.256 81.2813 106.989 81.6484C105.722 82.0156 104.464 81.3231 104.097 80.0557C103.73 78.7884 104.422 77.531 105.69 77.1639C106.957 76.7967 108.214 77.4892 108.581 78.7566Z" fill="#231F20"/>
<path d="M193.643 43.0176C193.474 42.4326 193.109 41.9042 192.509 41.6554C192.006 41.3784 191.336 41.2554 190.752 41.4248C190.167 41.5943 189.638 41.9588 189.389 42.5592C188.766 43.6908 189.19 45.1531 190.293 45.6789C190.796 45.9559 191.466 46.0789 192.051 45.9094C192.636 45.74 193.164 45.3755 193.413 44.7751C193.787 44.2439 193.813 43.6025 193.643 43.0176Z" fill="#231F20"/>
<path d="M184.87 45.5598C185.238 46.8272 184.545 48.0845 183.278 48.4517C182.011 48.8188 180.753 48.1264 180.386 46.859C180.019 45.5916 180.712 44.3342 181.979 43.9671C183.274 43.6974 184.532 44.3899 184.87 45.5598ZM176.097 48.1017C176.464 49.369 175.772 50.6263 174.505 50.9935C173.237 51.3607 171.98 50.6682 171.613 49.4008C171.246 48.1334 171.938 46.8761 173.205 46.5089C174.501 46.2393 175.758 46.9318 176.097 48.1017ZM167.226 50.6717C167.593 51.9391 166.901 53.1964 165.634 53.5636C164.366 53.9307 163.109 53.2382 162.742 51.9708C162.375 50.7035 163.067 49.4461 164.334 49.079C165.63 48.8093 166.887 49.5018 167.226 50.6717ZM158.453 53.2135C158.82 54.4809 158.127 55.7383 156.86 56.1054C155.593 56.4726 154.336 55.7801 153.968 54.5127C153.601 53.2453 154.294 51.988 155.561 51.6208C156.828 51.2537 158.114 52.0436 158.453 53.2135ZM149.679 55.7553C150.046 57.0227 149.354 58.2801 148.087 58.6472C146.819 59.0144 145.562 58.3219 145.195 57.0545C144.828 55.7871 145.52 54.5298 146.787 54.1626C148.055 53.7955 149.34 54.5854 149.679 55.7553ZM140.808 58.3254C141.175 59.5928 140.483 60.8501 139.216 61.2173C137.949 61.5844 136.691 60.8919 136.324 59.6245C135.957 58.3571 136.649 57.0998 137.917 56.7327C139.212 56.463 140.469 57.1555 140.808 58.3254ZM132.035 60.8672C132.402 62.1346 131.71 63.3919 130.442 63.7591C129.175 64.1262 127.918 63.4337 127.551 62.1663C127.184 60.899 127.876 59.6417 129.143 59.2745C130.439 59.0048 131.696 59.6973 132.035 60.8672ZM123.164 63.4373C123.531 64.7046 122.839 65.962 121.571 66.3291C120.304 66.6963 119.047 66.0038 118.68 64.7364C118.312 63.469 119.005 62.2117 120.272 61.8446C121.568 61.5749 122.825 62.2674 123.164 63.4373Z" fill="#231F20"/>
<path d="M190.707 32.8776C190.537 32.2926 190.173 31.7642 189.572 31.5155C189.069 31.2385 188.4 31.1154 187.815 31.2849C187.23 31.4543 186.701 31.8188 186.453 32.4192C185.899 33.4251 186.351 34.985 187.357 35.5389C187.86 35.8159 188.529 35.9389 189.114 35.7695C189.699 35.6 190.227 35.2356 190.476 34.6352C190.851 34.104 190.876 33.4625 190.707 32.8776Z" fill="#231F20"/>
<path d="M181.933 35.4197C182.3 36.6871 181.607 37.9445 180.34 38.3116C179.073 38.6788 177.816 37.9863 177.448 36.7189C177.081 35.4515 177.774 34.1942 179.041 33.827C180.336 33.5574 181.594 34.2499 181.933 35.4197ZM173.159 37.9616C173.526 39.2289 172.834 40.4863 171.567 40.8534C170.299 41.2206 169.042 40.5281 168.675 39.2607C168.308 37.9933 169 36.736 170.267 36.3688C171.563 36.0992 172.82 36.7917 173.159 37.9616ZM164.288 40.5316C164.655 41.799 163.963 43.0564 162.696 43.4235C161.428 43.7907 160.171 43.0981 159.804 41.8308C159.437 40.5634 160.129 39.3061 161.396 38.9389C162.692 38.6693 163.949 39.3617 164.288 40.5316ZM155.515 43.0734C155.882 44.3408 155.19 45.5982 153.922 45.9653C152.655 46.3325 151.398 45.64 151.031 44.3726C150.663 43.1052 151.356 41.8479 152.623 41.4808C153.89 41.1136 155.176 41.9035 155.515 43.0734ZM146.741 45.6153C147.108 46.8826 146.416 48.14 145.149 48.5072C143.882 48.8743 142.624 48.1818 142.257 46.9144C141.89 45.647 142.582 44.3897 143.85 44.0226C145.048 43.7812 146.402 44.4454 146.741 45.6153ZM137.87 48.1853C138.238 49.4527 137.545 50.7101 136.278 51.0772C135.011 51.4444 133.753 50.7518 133.386 49.4845C133.019 48.2171 133.711 46.9598 134.979 46.5926C136.274 46.323 137.531 47.0154 137.87 48.1853Z" fill="#231F20"/>
<path d="M187.768 22.7393C187.598 22.1543 187.234 21.6258 186.634 21.377C186.131 21.1 185.461 20.9771 184.876 21.1465C184.291 21.316 183.763 21.6804 183.514 22.2808C182.863 23.3149 183.315 24.8748 184.418 25.4006C184.921 25.6776 185.591 25.8006 186.176 25.6311C186.76 25.4616 187.289 25.0972 187.538 24.4968C187.912 23.9656 187.937 23.3242 187.768 22.7393Z" fill="#231F20"/>
<path d="M178.994 25.2817C179.362 26.549 178.669 27.8064 177.402 28.1735C176.135 28.5407 174.877 27.8482 174.51 26.5808C174.143 25.3134 174.836 24.0561 176.103 23.6889C177.37 23.3218 178.656 24.1118 178.994 25.2817ZM170.221 27.8235C170.588 29.0909 169.896 30.3482 168.629 30.7153C167.361 31.0825 166.104 30.39 165.737 29.1226C165.37 27.8552 166.062 26.5979 167.329 26.2307C168.597 25.8636 169.882 26.6536 170.221 27.8235ZM161.35 30.3935C161.717 31.6609 161.025 32.9183 159.758 33.2854C158.49 33.6526 157.233 32.9601 156.866 31.6927C156.499 30.4253 157.191 29.168 158.458 28.8008C159.726 28.4337 161.011 29.2236 161.35 30.3935ZM152.577 32.9353C152.944 34.2027 152.251 35.4601 150.984 35.8272C149.717 36.1944 148.46 35.5019 148.093 34.2345C147.725 32.9671 148.418 31.7098 149.685 31.3426C150.952 30.9755 152.238 31.7654 152.577 32.9353Z" fill="#231F20"/>
<path d="M184.831 12.5993C184.662 12.0143 184.297 11.4859 183.697 11.2371C183.194 10.9601 182.524 10.8371 181.939 11.0066C181.354 11.176 180.826 11.5405 180.577 12.1409C180.023 13.1468 180.378 14.7349 181.481 15.2607C181.984 15.5377 182.654 15.6606 183.239 15.4911C183.824 15.3217 184.352 14.9573 184.601 14.3569C184.975 13.8257 185.001 13.1842 184.831 12.5993Z" fill="#231F20"/>
<path d="M176.057 15.1416C176.425 16.409 175.732 17.6663 174.465 18.0334C173.198 18.4006 171.94 17.7081 171.573 16.4407C171.206 15.1733 171.898 13.916 173.166 13.5488C174.433 13.1817 175.718 13.9717 176.057 15.1416ZM167.284 17.6834C167.651 18.9508 166.959 20.2081 165.692 20.5752C164.424 20.9424 163.167 20.2499 162.8 18.9825C162.433 17.7151 163.125 16.4578 164.392 16.0906C165.66 15.7235 166.945 16.5135 167.284 17.6834Z" fill="#231F20"/>
<path d="M181.893 2.46099C181.724 1.87604 181.359 1.34753 180.759 1.09877C180.256 0.821778 179.586 0.698741 179.001 0.868196C178.416 1.03765 177.888 1.40213 177.639 2.00256C176.988 3.03667 177.44 4.59654 178.543 5.12229C179.046 5.39929 179.716 5.52229 180.301 5.35283C180.885 5.18338 181.414 4.81894 181.663 4.21851C182.037 3.68733 182.062 3.04594 181.893 2.46099Z" fill="#231F20"/>
</svg>
