<svg width="292" height="313" viewBox="0 0 292 313" fill="none" xmlns="http://www.w3.org/2000/svg">
<path d="M22.9116 68.9258L88.4962 295.3L102.329 281.043L42.2235 73.5812L22.9116 68.9258Z" fill="#231F20"/>
<path d="M106.339 88.8213L148.367 233.888L162.13 219.756L125.525 93.4076L106.339 88.8213Z" fill="#231F20"/>
<path d="M151.297 99.5723L180.615 200.768L189.017 192.205L162.976 102.318L151.297 99.5723Z" fill="#231F20"/>
<path d="M46.5198 74.5547L105.439 277.921L107.647 275.696L49.6038 75.352L46.5198 74.5547Z" fill="#231F20"/>
<path d="M58.1987 77.3008L113.841 269.358L122.146 260.823L69.7801 80.0746L58.1987 77.3008Z" fill="#231F20"/>
<path d="M86.1333 84.002L133.867 248.762L142.172 240.227L97.7148 86.7757L86.1333 84.002Z" fill="#231F20"/>
<path d="M74.1067 81.1465L125.23 257.606L130.786 251.98L81.8372 83.0282L74.1067 81.1465Z" fill="#231F20"/>
<path d="M129.726 94.4102L165.145 216.664L174.422 207.108L142.675 97.5275L129.726 94.4102Z" fill="#231F20"/>
<path d="M255.25 124.301L208.478 113.124L221.697 158.75L255.25 124.301Z" fill="#231F20"/>
<path d="M0 63.5166L72.0244 312.119L82.3021 301.639L14.2884 66.8798L0 63.5166Z" fill="#231F20"/>
<path d="M185.218 107.604L204.989 175.848L218.585 161.87L204.18 112.15L185.218 107.604Z" fill="#231F20"/>
<path d="M167.302 103.39L192.101 188.987L201.878 178.968L180.92 106.63L167.302 103.39Z" fill="#231F20"/>
</svg>
