<svg width="267" height="289" viewBox="0 0 267 289" fill="none" xmlns="http://www.w3.org/2000/svg">
<path d="M2 59.9365L231.402 116.48L67.754 286.896L2 59.9365Z" stroke="black" stroke-width="2.0736" stroke-miterlimit="10"/>
<path d="M10.0725 67.7422L220.581 119.614L70.4035 275.983L10.0725 67.7422Z" stroke="black" stroke-width="2.0736" stroke-miterlimit="10"/>
<path d="M18.2427 75.5195L209.858 122.721L73.1507 265.043L18.2427 75.5195Z" stroke="black" stroke-width="2.0736" stroke-miterlimit="10"/>
<path d="M26.3164 83.3262L199.038 125.857L75.8297 254.228L26.3164 83.3262Z" stroke="black" stroke-width="2.0736" stroke-miterlimit="10"/>
<path d="M34.3613 91.0342L188.217 128.991L78.4798 243.316L34.3613 91.0342Z" stroke="black" stroke-width="2.0736" stroke-miterlimit="10"/>
<path d="M42.4341 98.8398L177.494 132.098L81.1296 232.403L42.4341 98.8398Z" stroke="black" stroke-width="2.0736" stroke-miterlimit="10"/>
<path d="M50.6042 106.617L166.673 135.232L83.8767 221.462L50.6042 106.617Z" stroke="black" stroke-width="2.0736" stroke-miterlimit="10"/>
<path d="M58.6777 114.424L155.95 138.34L86.5554 210.648L58.6777 114.424Z" stroke="black" stroke-width="2.0736" stroke-miterlimit="10"/>
<path d="M66.7227 122.132L145.13 141.474L89.2056 199.735L66.7227 122.132Z" stroke="black" stroke-width="2.0736" stroke-miterlimit="10"/>
<path d="M74.8928 129.909L134.406 144.581L91.9527 188.794L74.8928 129.909Z" stroke="black" stroke-width="2.0736" stroke-miterlimit="10"/>
<path d="M82.9658 137.715L123.586 147.716L94.6027 177.881L82.9658 137.715Z" stroke="black" stroke-width="2.0736" stroke-miterlimit="10"/>
<path d="M112.766 150.85L97.2532 166.969L91.0393 145.521L112.766 150.85Z" stroke="black" stroke-width="2.0736" stroke-miterlimit="10"/>
</svg>
