<svg width="215" height="232" viewBox="0 0 215 232" fill="none" xmlns="http://www.w3.org/2000/svg">
<path d="M208.478 164.842C208.337 164.356 207.969 163.862 207.522 163.616C207.075 163.37 206.46 163.322 205.974 163.463C205.489 163.603 204.995 163.972 204.748 164.419C204.207 165.403 204.588 166.72 205.552 167.193C205.999 167.439 206.614 167.486 207.099 167.346C207.585 167.205 208.079 166.836 208.325 166.389C208.551 165.873 208.619 165.327 208.478 164.842Z" fill="#231F20"/>
<path d="M200.644 167.111C200.966 168.221 200.305 169.314 199.265 169.615C198.156 169.936 197.063 169.276 196.762 168.236C196.44 167.127 197.1 166.034 198.14 165.732C199.23 165.341 200.323 166.002 200.644 167.111ZM192.879 169.361C193.2 170.47 192.54 171.563 191.5 171.865C190.391 172.186 189.298 171.526 188.997 170.486C188.675 169.376 189.335 168.283 190.375 167.982C191.395 167.611 192.558 168.252 192.879 169.361ZM185.045 171.631C185.366 172.74 184.706 173.833 183.666 174.135C182.557 174.456 181.463 173.796 181.162 172.755C180.841 171.646 181.501 170.553 182.541 170.252C183.561 169.881 184.723 170.521 185.045 171.631ZM177.21 173.9C177.532 175.01 176.871 176.103 175.831 176.404C174.722 176.726 173.629 176.065 173.328 175.025C173.006 173.916 173.667 172.823 174.707 172.521C175.796 172.131 176.889 172.791 177.21 173.9Z" fill="#231F20"/>
<path d="M205.869 155.828C205.729 155.343 205.36 154.848 204.913 154.602C204.466 154.356 203.851 154.309 203.365 154.449C202.88 154.59 202.386 154.958 202.139 155.406C201.598 156.389 201.979 157.707 202.943 158.179C203.39 158.425 204.005 158.473 204.49 158.332C204.976 158.192 205.47 157.823 205.716 157.376C205.942 156.859 206.01 156.314 205.869 155.828Z" fill="#231F20"/>
<path d="M198.034 158.098C198.356 159.207 197.695 160.3 196.655 160.602C195.546 160.923 194.453 160.263 194.152 159.223C193.83 158.113 194.49 157.02 195.53 156.719C196.62 156.328 197.713 156.988 198.034 158.098ZM190.269 160.347C190.59 161.457 189.93 162.55 188.89 162.851C187.781 163.173 186.688 162.512 186.387 161.472C186.065 160.363 186.725 159.27 187.765 158.968C188.785 158.598 189.948 159.238 190.269 160.347ZM182.435 162.617C182.756 163.727 182.096 164.82 181.056 165.121C179.947 165.442 178.853 164.782 178.552 163.742C178.231 162.633 178.891 161.539 179.931 161.238C180.951 160.867 182.113 161.508 182.435 162.617ZM174.6 164.887C174.922 165.996 174.261 167.089 173.221 167.391C172.112 167.712 171.019 167.052 170.718 166.012C170.396 164.902 171.057 163.809 172.097 163.508C173.186 163.117 174.279 163.777 174.6 164.887ZM166.835 167.137C167.157 168.246 166.496 169.339 165.456 169.64C164.347 169.962 163.254 169.301 162.953 168.261C162.631 167.152 163.291 166.059 164.331 165.758C165.351 165.387 166.514 166.027 166.835 167.137ZM159.001 169.406C159.322 170.516 158.662 171.609 157.622 171.91C156.513 172.232 155.42 171.571 155.118 170.531C154.797 169.422 155.457 168.329 156.497 168.027C157.517 167.657 158.679 168.297 159.001 169.406Z" fill="#231F20"/>
<path d="M203.257 146.814C203.117 146.329 202.748 145.835 202.301 145.588C201.854 145.342 201.239 145.295 200.754 145.435C200.268 145.576 199.774 145.945 199.528 146.392C198.966 147.306 199.368 148.693 200.331 149.165C200.778 149.412 201.393 149.459 201.878 149.318C202.364 149.178 202.858 148.809 203.104 148.362C203.351 147.915 203.398 147.3 203.257 146.814Z" fill="#231F20"/>
<path d="M195.422 149.085C195.744 150.194 195.084 151.287 194.044 151.588C192.934 151.91 191.841 151.249 191.54 150.209C191.218 149.1 191.879 148.007 192.919 147.705C194.008 147.315 195.101 147.975 195.422 149.085ZM187.657 151.334C187.979 152.444 187.318 153.537 186.279 153.838C185.169 154.159 184.076 153.499 183.775 152.459C183.453 151.35 184.114 150.256 185.154 149.955C186.173 149.585 187.336 150.225 187.657 151.334ZM179.823 153.604C180.144 154.713 179.484 155.807 178.444 156.108C177.335 156.429 176.242 155.769 175.94 154.729C175.619 153.619 176.279 152.526 177.319 152.225C178.339 151.854 179.502 152.495 179.823 153.604ZM171.989 155.874C172.31 156.983 171.65 158.076 170.61 158.378C169.5 158.699 168.407 158.039 168.106 156.999C167.785 155.889 168.445 154.796 169.485 154.495C170.574 154.104 171.667 154.764 171.989 155.874ZM164.223 158.123C164.545 159.233 163.885 160.326 162.845 160.627C161.735 160.949 160.642 160.288 160.341 159.248C160.02 158.139 160.68 157.046 161.72 156.744C162.74 156.374 163.902 157.014 164.223 158.123ZM156.389 160.393C156.71 161.503 156.05 162.596 155.01 162.897C153.901 163.218 152.808 162.558 152.507 161.518C152.185 160.409 152.845 159.315 153.885 159.014C154.905 158.643 156.068 159.284 156.389 160.393ZM148.555 162.663C148.876 163.772 148.216 164.865 147.176 165.167C146.067 165.488 144.973 164.828 144.672 163.788C144.351 162.678 145.011 161.585 146.051 161.284C147.071 160.913 148.233 161.553 148.555 162.663ZM140.72 164.933C141.042 166.042 140.381 167.135 139.341 167.437C138.232 167.758 137.139 167.098 136.838 166.057C136.516 164.948 137.177 163.855 138.217 163.554C139.256 163.252 140.399 163.823 140.72 164.933Z" fill="#231F20"/>
<path d="M200.644 137.8C200.503 137.314 200.135 136.82 199.688 136.574C199.241 136.328 198.626 136.28 198.14 136.421C197.655 136.561 197.161 136.93 196.914 137.377C196.353 138.292 196.754 139.678 197.718 140.151C198.165 140.397 198.78 140.444 199.265 140.304C199.751 140.163 200.245 139.794 200.491 139.347C200.737 138.9 200.785 138.285 200.644 137.8Z" fill="#231F20"/>
<path d="M192.81 140.07C193.132 141.179 192.471 142.273 191.431 142.574C190.322 142.895 189.229 142.235 188.928 141.195C188.606 140.085 189.267 138.992 190.307 138.691C191.396 138.3 192.489 138.961 192.81 140.07ZM185.045 142.32C185.367 143.429 184.706 144.522 183.666 144.824C182.557 145.145 181.464 144.485 181.163 143.444C180.841 142.335 181.501 141.242 182.541 140.941C183.561 140.57 184.724 141.21 185.045 142.32ZM177.211 144.589C177.532 145.699 176.872 146.792 175.832 147.093C174.723 147.415 173.63 146.754 173.328 145.714C173.007 144.605 173.667 143.512 174.707 143.21C175.727 142.84 176.889 143.48 177.211 144.589ZM169.376 146.859C169.698 147.969 169.038 149.062 167.998 149.363C166.888 149.684 165.795 149.024 165.494 147.984C165.172 146.875 165.833 145.781 166.873 145.48C167.962 145.089 169.055 145.75 169.376 146.859ZM161.611 149.109C161.933 150.218 161.272 151.311 160.233 151.613C159.123 151.934 158.03 151.274 157.729 150.234C157.407 149.124 158.068 148.031 159.108 147.73C160.127 147.359 161.29 147.999 161.611 149.109ZM153.777 151.379C154.098 152.488 153.438 153.581 152.398 153.883C151.289 154.204 150.196 153.544 149.894 152.503C149.573 151.394 150.233 150.301 151.273 150C152.293 149.629 153.455 150.269 153.777 151.379ZM145.943 153.648C146.264 154.758 145.604 155.851 144.564 156.152C143.454 156.474 142.361 155.813 142.06 154.773C141.739 153.664 142.399 152.571 143.439 152.269C144.459 151.899 145.621 152.539 145.943 153.648ZM138.108 155.918C138.43 157.028 137.769 158.121 136.729 158.422C135.62 158.743 134.527 158.083 134.226 157.043C133.904 155.934 134.564 154.84 135.604 154.539C136.644 154.238 137.787 154.809 138.108 155.918ZM130.343 158.168C130.664 159.277 130.004 160.37 128.964 160.672C127.855 160.993 126.762 160.333 126.46 159.293C126.139 158.183 126.799 157.09 127.839 156.789C128.859 156.418 130.022 157.058 130.343 158.168ZM122.509 160.438C122.83 161.547 122.17 162.64 121.13 162.941C120.021 163.263 118.927 162.602 118.626 161.562C118.305 160.453 118.965 159.36 120.005 159.059C121.025 158.688 122.187 159.328 122.509 160.438Z" fill="#231F20"/>
<path d="M213.682 182.8C213.541 182.314 213.173 181.82 212.725 181.574C212.278 181.328 211.663 181.28 211.178 181.421C210.693 181.561 210.198 181.93 209.952 182.377C209.41 183.361 209.792 184.678 210.756 185.151C211.203 185.397 211.818 185.444 212.303 185.304C212.788 185.163 213.283 184.794 213.529 184.347C213.775 183.9 213.843 183.355 213.682 182.8Z" fill="#231F20"/>
<path d="M211.07 173.786C210.929 173.301 210.561 172.806 210.114 172.56C209.667 172.314 209.052 172.267 208.566 172.407C208.081 172.548 207.587 172.916 207.34 173.364C206.779 174.278 207.18 175.665 208.144 176.137C208.591 176.383 209.206 176.431 209.691 176.29C210.177 176.149 210.671 175.781 210.917 175.334C211.163 174.886 211.231 174.341 211.07 173.786Z" fill="#231F20"/>
<path d="M203.236 176.056C203.557 177.166 202.897 178.259 201.857 178.56C200.748 178.881 199.655 178.221 199.353 177.181C199.032 176.072 199.692 174.978 200.732 174.677C201.842 174.356 202.935 175.016 203.236 176.056ZM195.471 178.306C195.792 179.415 195.132 180.508 194.092 180.81C192.983 181.131 191.89 180.471 191.588 179.431C191.267 178.321 191.927 177.228 192.967 176.927C194.007 176.626 195.17 177.266 195.471 178.306Z" fill="#231F20"/>
<path d="M198.035 128.787C197.894 128.302 197.525 127.807 197.078 127.561C196.631 127.315 196.016 127.268 195.531 127.408C195.046 127.549 194.551 127.917 194.305 128.365C193.763 129.348 194.145 130.666 195.108 131.138C195.556 131.384 196.171 131.432 196.656 131.291C197.141 131.15 197.636 130.782 197.882 130.335C198.128 129.887 198.175 129.272 198.035 128.787Z" fill="#231F20"/>
<path d="M190.2 131.057C190.521 132.166 189.861 133.26 188.821 133.561C187.712 133.882 186.618 133.222 186.317 132.182C185.996 131.072 186.656 129.979 187.696 129.678C188.805 129.357 189.878 129.948 190.2 131.057ZM182.435 133.307C182.756 134.416 182.096 135.509 181.056 135.81C179.946 136.132 178.853 135.471 178.552 134.431C178.231 133.322 178.891 132.229 179.931 131.928C180.971 131.626 182.113 132.197 182.435 133.307ZM174.6 135.576C174.922 136.686 174.261 137.779 173.221 138.08C172.112 138.402 171.019 137.741 170.718 136.701C170.396 135.592 171.056 134.499 172.096 134.197C173.136 133.896 174.279 134.467 174.6 135.576ZM166.766 137.846C167.087 138.956 166.427 140.049 165.387 140.35C164.278 140.671 163.185 140.011 162.883 138.971C162.562 137.862 163.222 136.768 164.262 136.467C165.371 136.146 166.444 136.737 166.766 137.846ZM159.001 140.096C159.322 141.205 158.662 142.298 157.622 142.6C156.513 142.921 155.419 142.261 155.118 141.221C154.797 140.111 155.457 139.018 156.497 138.717C157.537 138.416 158.679 138.986 159.001 140.096ZM151.166 142.366C151.488 143.475 150.827 144.568 149.787 144.869C148.678 145.191 147.585 144.53 147.284 143.49C146.962 142.381 147.623 141.288 148.663 140.987C149.703 140.685 150.845 141.256 151.166 142.366ZM143.332 144.635C143.653 145.745 142.993 146.838 141.953 147.139C140.844 147.461 139.751 146.8 139.449 145.76C139.128 144.651 139.788 143.558 140.828 143.256C141.868 142.955 143.01 143.526 143.332 144.635ZM135.497 146.905C135.819 148.014 135.159 149.108 134.119 149.409C133.009 149.73 131.916 149.07 131.615 148.03C131.294 146.921 131.954 145.827 132.994 145.526C134.034 145.225 135.176 145.796 135.497 146.905ZM127.732 149.155C128.054 150.264 127.394 151.357 126.354 151.659C125.244 151.98 124.151 151.32 123.85 150.28C123.528 149.17 124.189 148.077 125.229 147.776C126.269 147.474 127.411 148.045 127.732 149.155ZM119.898 151.425C120.219 152.534 119.559 153.627 118.519 153.928C117.41 154.25 116.317 153.589 116.015 152.549C115.694 151.44 116.354 150.347 117.394 150.046C118.434 149.744 119.577 150.315 119.898 151.425ZM112.064 153.694C112.385 154.804 111.725 155.897 110.685 156.198C109.575 156.52 108.482 155.859 108.181 154.819C107.86 153.71 108.52 152.617 109.56 152.315C110.6 152.014 111.742 152.585 112.064 153.694ZM104.229 155.964C104.551 157.073 103.89 158.167 102.85 158.468C101.741 158.789 100.648 158.129 100.347 157.089C100.025 155.979 100.685 154.886 101.725 154.585C102.765 154.284 103.908 154.855 104.229 155.964Z" fill="#231F20"/>
<path d="M195.422 119.773C195.282 119.287 194.913 118.793 194.466 118.546C194.019 118.3 193.404 118.253 192.918 118.393C192.433 118.534 191.939 118.903 191.692 119.35C191.151 120.334 191.532 121.651 192.496 122.123C192.943 122.37 193.558 122.417 194.043 122.276C194.529 122.136 195.023 121.767 195.269 121.32C195.515 120.873 195.583 120.327 195.422 119.773Z" fill="#231F20"/>
<path d="M187.588 122.043C187.909 123.153 187.249 124.246 186.209 124.547C185.1 124.869 184.007 124.208 183.705 123.168C183.384 122.059 184.044 120.966 185.084 120.664C186.194 120.343 187.267 120.934 187.588 122.043ZM179.823 124.293C180.144 125.403 179.484 126.496 178.444 126.797C177.335 127.118 176.242 126.458 175.94 125.418C175.619 124.309 176.279 123.215 177.319 122.914C178.359 122.613 179.501 123.184 179.823 124.293ZM171.988 126.563C172.31 127.672 171.65 128.766 170.61 129.067C169.5 129.388 168.407 128.728 168.106 127.688C167.785 126.578 168.445 125.485 169.485 125.184C170.525 124.883 171.667 125.453 171.988 126.563ZM164.154 128.833C164.475 129.942 163.815 131.035 162.775 131.337C161.666 131.658 160.573 130.998 160.272 129.957C159.95 128.848 160.61 127.755 161.65 127.454C162.76 127.132 163.833 127.723 164.154 128.833ZM156.389 131.082C156.71 132.192 156.05 133.285 155.01 133.586C153.901 133.908 152.808 133.247 152.506 132.207C152.185 131.098 152.845 130.005 153.885 129.703C154.925 129.402 156.068 129.973 156.389 131.082ZM148.555 133.352C148.876 134.461 148.216 135.555 147.176 135.856C146.067 136.177 144.973 135.517 144.672 134.477C144.351 133.367 145.011 132.274 146.051 131.973C147.091 131.672 148.233 132.243 148.555 133.352ZM140.72 135.622C141.042 136.731 140.381 137.824 139.341 138.126C138.232 138.447 137.139 137.787 136.838 136.747C136.516 135.637 137.176 134.544 138.216 134.243C139.256 133.941 140.399 134.512 140.72 135.622ZM132.886 137.892C133.207 139.001 132.547 140.094 131.507 140.396C130.398 140.717 129.305 140.057 129.003 139.016C128.682 137.907 129.342 136.814 130.382 136.513C131.422 136.211 132.564 136.782 132.886 137.892ZM125.121 140.141C125.442 141.251 124.782 142.344 123.742 142.645C122.633 142.967 121.539 142.306 121.238 141.266C120.917 140.157 121.577 139.063 122.617 138.762C123.657 138.461 124.799 139.032 125.121 140.141ZM117.286 142.411C117.608 143.52 116.947 144.614 115.908 144.915C114.798 145.236 113.705 144.576 113.404 143.536C113.082 142.426 113.743 141.333 114.783 141.032C115.823 140.731 116.965 141.302 117.286 142.411ZM109.452 144.681C109.773 145.79 109.113 146.883 108.073 147.185C106.964 147.506 105.871 146.846 105.569 145.806C105.248 144.696 105.908 143.603 106.948 143.302C107.988 143 109.13 143.571 109.452 144.681ZM101.617 146.951C101.939 148.06 101.279 149.153 100.239 149.454C99.1294 149.776 98.0363 149.115 97.735 148.075C97.4135 146.966 98.0738 145.873 99.1137 145.571C100.154 145.27 101.296 145.841 101.617 146.951ZM93.8524 149.2C94.1738 150.31 93.5136 151.403 92.4736 151.704C91.3643 152.026 90.2712 151.365 89.9699 150.325C89.6485 149.216 90.3087 148.122 91.3487 147.821C92.3886 147.52 93.531 148.091 93.8524 149.2ZM86.018 151.47C86.3394 152.579 85.6792 153.673 84.6392 153.974C83.5299 154.295 82.4368 153.635 82.1355 152.595C81.8141 151.485 82.4743 150.392 83.5143 150.091C84.5542 149.79 85.6966 150.361 86.018 151.47Z" fill="#231F20"/>
<path d="M192.811 110.76C192.671 110.274 192.302 109.78 191.855 109.534C191.408 109.287 190.793 109.24 190.308 109.381C189.822 109.521 189.328 109.89 189.082 110.337C188.54 111.321 188.922 112.638 189.885 113.111C190.332 113.357 190.947 113.404 191.432 113.264C191.918 113.123 192.412 112.754 192.658 112.307C192.905 111.86 192.972 111.314 192.811 110.76Z" fill="#231F20"/>
<path d="M184.976 113.029C185.297 114.139 184.637 115.232 183.597 115.533C182.488 115.854 181.395 115.194 181.094 114.154C180.772 113.045 181.432 111.952 182.472 111.65C183.582 111.329 184.675 111.989 184.976 113.029ZM177.211 115.279C177.532 116.388 176.872 117.481 175.832 117.783C174.723 118.104 173.63 117.444 173.328 116.404C173.007 115.294 173.667 114.201 174.707 113.9C175.747 113.599 176.91 114.239 177.211 115.279ZM169.377 117.549C169.698 118.658 169.038 119.751 167.998 120.053C166.888 120.374 165.795 119.714 165.494 118.673C165.173 117.564 165.833 116.471 166.873 116.17C167.913 115.868 169.075 116.509 169.377 117.549ZM161.542 119.818C161.864 120.928 161.203 122.021 160.163 122.322C159.054 122.644 157.961 121.983 157.66 120.943C157.338 119.834 157.998 118.741 159.038 118.439C160.148 118.118 161.241 118.778 161.542 119.818ZM153.777 122.068C154.098 123.177 153.438 124.271 152.398 124.572C151.289 124.893 150.196 124.233 149.895 123.193C149.573 122.084 150.233 120.99 151.273 120.689C152.313 120.388 153.476 121.028 153.777 122.068ZM145.943 124.338C146.264 125.447 145.604 126.54 144.564 126.842C143.455 127.163 142.361 126.503 142.06 125.463C141.739 124.353 142.399 123.26 143.439 122.959C144.479 122.658 145.641 123.298 145.943 124.338ZM138.108 126.608C138.43 127.717 137.769 128.81 136.729 129.111C135.62 129.433 134.527 128.772 134.226 127.732C133.904 126.623 134.565 125.53 135.605 125.229C136.645 124.927 137.807 125.568 138.108 126.608ZM130.274 128.877C130.595 129.987 129.935 131.08 128.895 131.381C127.786 131.703 126.693 131.042 126.391 130.002C126.07 128.893 126.73 127.8 127.77 127.498C128.879 127.177 129.973 127.837 130.274 128.877ZM122.509 131.127C122.83 132.236 122.17 133.33 121.13 133.631C120.021 133.952 118.928 133.292 118.626 132.252C118.305 131.142 118.965 130.049 120.005 129.748C121.045 129.447 122.207 130.087 122.509 131.127ZM114.674 133.397C114.996 134.506 114.336 135.599 113.296 135.901C112.186 136.222 111.093 135.562 110.792 134.522C110.47 133.412 111.131 132.319 112.171 132.018C113.211 131.717 114.373 132.357 114.674 133.397ZM106.84 135.667C107.161 136.776 106.501 137.869 105.461 138.17C104.352 138.492 103.259 137.831 102.957 136.791C102.636 135.682 103.296 134.589 104.336 134.288C105.376 133.986 106.539 134.627 106.84 135.667ZM99.0055 137.936C99.327 139.046 98.6667 140.139 97.6268 140.44C96.5175 140.762 95.4243 140.101 95.123 139.061C94.8016 137.952 95.4619 136.859 96.5018 136.557C97.5418 136.256 98.7042 136.896 99.0055 137.936ZM91.2405 140.186C91.5619 141.295 90.9016 142.389 89.8617 142.69C88.7524 143.011 87.6593 142.351 87.3579 141.311C87.0365 140.201 87.6968 139.108 88.7367 138.807C89.7767 138.506 90.9391 139.146 91.2405 140.186ZM83.4061 142.456C83.7275 143.565 83.0672 144.658 82.0273 144.96C80.918 145.281 79.8249 144.621 79.5235 143.581C79.2021 142.471 79.8624 141.378 80.9023 141.077C81.9423 140.775 83.1047 141.416 83.4061 142.456ZM75.5717 144.726C75.8931 145.835 75.2328 146.928 74.1929 147.229C73.0836 147.551 71.9905 146.89 71.6891 145.85C71.3677 144.741 72.028 143.648 73.0679 143.347C74.1079 143.045 75.2703 143.685 75.5717 144.726ZM67.7373 146.995C68.0587 148.105 67.3984 149.198 66.3585 149.499C65.2492 149.821 64.156 149.16 63.8547 148.12C63.5333 147.011 64.1936 145.918 65.2335 145.616C66.3428 145.295 67.4359 145.955 67.7373 146.995Z" fill="#231F20"/>
<path d="M190.199 101.745C190.058 101.26 189.69 100.765 189.243 100.519C188.795 100.273 188.181 100.226 187.695 100.366C187.21 100.507 186.715 100.875 186.469 101.323C185.928 102.306 186.309 103.624 187.273 104.096C187.72 104.342 188.335 104.39 188.82 104.249C189.305 104.108 189.8 103.74 190.046 103.293C190.292 102.845 190.36 102.3 190.199 101.745Z" fill="#231F20"/>
<path d="M182.365 104.015C182.686 105.124 182.026 106.217 180.986 106.519C179.877 106.84 178.783 106.18 178.482 105.14C178.161 104.03 178.821 102.937 179.861 102.636C180.97 102.314 182.063 102.975 182.365 104.015ZM174.6 106.264C174.921 107.374 174.261 108.467 173.221 108.768C172.111 109.09 171.018 108.429 170.717 107.389C170.396 106.28 171.056 105.187 172.096 104.885C173.136 104.584 174.298 105.224 174.6 106.264ZM166.765 108.534C167.087 109.644 166.426 110.737 165.386 111.038C164.277 111.359 163.184 110.699 162.883 109.659C162.561 108.55 163.221 107.456 164.261 107.155C165.301 106.854 166.464 107.494 166.765 108.534ZM158.931 110.804C159.252 111.913 158.592 113.007 157.552 113.308C156.443 113.629 155.35 112.969 155.048 111.929C154.727 110.819 155.387 109.726 156.427 109.425C157.536 109.103 158.629 109.764 158.931 110.804ZM151.166 113.054C151.487 114.163 150.827 115.256 149.787 115.557C148.678 115.879 147.584 115.218 147.283 114.178C146.962 113.069 147.622 111.976 148.662 111.675C149.702 111.373 150.864 112.014 151.166 113.054ZM143.331 115.323C143.653 116.433 142.992 117.526 141.952 117.827C140.843 118.149 139.75 117.488 139.449 116.448C139.127 115.339 139.788 114.246 140.827 113.944C141.867 113.643 143.03 114.283 143.331 115.323ZM135.497 117.593C135.818 118.702 135.158 119.796 134.118 120.097C133.009 120.418 131.916 119.758 131.614 118.718C131.293 117.609 131.953 116.515 132.993 116.214C134.033 115.913 135.195 116.553 135.497 117.593ZM127.662 119.863C127.984 120.972 127.324 122.065 126.284 122.367C125.174 122.688 124.081 122.028 123.78 120.988C123.458 119.878 124.119 118.785 125.159 118.484C126.199 118.183 127.361 118.823 127.662 119.863ZM119.897 122.113C120.219 123.222 119.559 124.315 118.519 124.616C117.409 124.938 116.316 124.277 116.015 123.237C115.693 122.128 116.354 121.035 117.394 120.733C118.434 120.432 119.596 121.072 119.897 122.113ZM112.063 124.382C112.384 125.492 111.724 126.585 110.684 126.886C109.575 127.208 108.482 126.547 108.18 125.507C107.859 124.398 108.519 123.305 109.559 123.003C110.599 122.702 111.762 123.342 112.063 124.382ZM104.228 126.652C104.55 127.761 103.89 128.855 102.85 129.156C101.74 129.477 100.647 128.817 100.346 127.777C100.025 126.667 100.685 125.574 101.725 125.273C102.765 124.972 103.927 125.612 104.228 126.652ZM96.3941 128.922C96.7155 130.031 96.0553 131.124 95.0153 131.426C93.906 131.747 92.8129 131.087 92.5116 130.047C92.1902 128.937 92.8504 127.844 93.8904 127.543C94.9303 127.241 96.0928 127.882 96.3941 128.922ZM88.629 131.171C88.9504 132.281 88.2902 133.374 87.2502 133.675C86.1409 133.997 85.0478 133.336 84.7465 132.296C84.4251 131.187 85.0853 130.094 86.1253 129.792C87.1653 129.491 88.3277 130.131 88.629 131.171ZM80.7946 133.441C81.116 134.551 80.4558 135.644 79.4158 135.945C78.3065 136.267 77.2134 135.606 76.9121 134.566C76.5907 133.457 77.2509 132.364 78.2909 132.062C79.3308 131.761 80.4933 132.401 80.7946 133.441ZM72.9602 135.711C73.2816 136.82 72.6214 137.914 71.5814 138.215C70.4721 138.536 69.379 137.876 69.0777 136.836C68.7563 135.726 69.4165 134.633 70.4565 134.332C71.4965 134.031 72.6589 134.671 72.9602 135.711ZM65.1258 137.981C65.4472 139.09 64.787 140.183 63.747 140.485C62.6377 140.806 61.5446 140.146 61.2433 139.106C60.9218 137.996 61.5821 136.903 62.6221 136.602C63.7314 136.28 64.8245 136.941 65.1258 137.981ZM57.3607 140.23C57.6821 141.34 57.0219 142.433 55.982 142.734C54.8727 143.056 53.7795 142.395 53.4782 141.355C53.1568 140.246 53.817 139.153 54.857 138.851C55.897 138.55 57.0594 139.19 57.3607 140.23ZM49.5263 142.5C49.8477 143.61 49.1875 144.703 48.1476 145.004C47.0383 145.325 45.9451 144.665 45.6438 143.625C45.3224 142.516 45.9826 141.422 47.0226 141.121C48.0626 140.82 49.225 141.46 49.5263 142.5Z" fill="#231F20"/>
<path d="M187.588 92.7315C187.448 92.2461 187.079 91.7517 186.632 91.5054C186.185 91.2592 185.57 91.2119 185.085 91.3525C184.599 91.4931 184.105 91.8618 183.859 92.3089C183.317 93.2925 183.699 94.6099 184.662 95.0823C185.109 95.3286 185.724 95.3759 186.21 95.2353C186.695 95.0947 187.189 94.726 187.435 94.2789C187.682 93.8318 187.749 93.2861 187.588 92.7315Z" fill="#231F20"/>
<path d="M179.754 95.0015C180.075 96.1109 179.415 97.2041 178.375 97.5054C177.266 97.8268 176.172 97.1664 175.871 96.1263C175.55 95.017 176.21 93.9238 177.25 93.6225C178.359 93.3011 179.452 93.9615 179.754 95.0015ZM171.989 97.2512C172.31 98.3606 171.65 99.4538 170.61 99.7551C169.5 100.076 168.407 99.4161 168.106 98.376C167.785 97.2666 168.445 96.1735 169.485 95.8722C170.525 95.5709 171.687 96.2111 171.989 97.2512ZM164.154 99.5209C164.476 100.63 163.815 101.724 162.775 102.025C161.666 102.346 160.573 101.686 160.272 100.646C159.95 99.5364 160.61 98.4432 161.65 98.142C162.69 97.8407 163.853 98.4809 164.154 99.5209ZM156.32 101.791C156.641 102.9 155.981 103.993 154.941 104.295C153.832 104.616 152.739 103.956 152.437 102.916C152.116 101.806 152.776 100.713 153.816 100.412C154.925 100.09 156.018 100.751 156.32 101.791ZM148.555 104.04C148.876 105.15 148.216 106.243 147.176 106.544C146.067 106.866 144.973 106.205 144.672 105.165C144.351 104.056 145.011 102.963 146.051 102.661C147.091 102.36 148.253 103 148.555 104.04ZM140.72 106.31C141.042 107.42 140.381 108.513 139.341 108.814C138.232 109.135 137.139 108.475 136.838 107.435C136.516 106.326 137.177 105.232 138.217 104.931C139.256 104.63 140.419 105.27 140.72 106.31ZM132.886 108.58C133.207 109.689 132.547 110.782 131.507 111.084C130.398 111.405 129.305 110.745 129.003 109.705C128.682 108.595 129.342 107.502 130.382 107.201C131.422 106.9 132.585 107.54 132.886 108.58ZM125.051 110.85C125.373 111.959 124.713 113.052 123.673 113.354C122.563 113.675 121.47 113.015 121.169 111.975C120.847 110.865 121.508 109.772 122.548 109.471C123.657 109.149 124.75 109.81 125.051 110.85ZM117.286 113.099C117.608 114.209 116.948 115.302 115.908 115.603C114.798 115.925 113.705 115.264 113.404 114.224C113.082 113.115 113.743 112.022 114.783 111.72C115.823 111.419 116.985 112.059 117.286 113.099ZM109.452 115.369C109.773 116.478 109.113 117.572 108.073 117.873C106.964 118.194 105.871 117.534 105.569 116.494C105.248 115.385 105.908 114.291 106.948 113.99C107.988 113.689 109.151 114.329 109.452 115.369ZM101.618 117.639C101.939 118.748 101.279 119.841 100.239 120.143C99.1294 120.464 98.0363 119.804 97.735 118.764C97.4136 117.654 98.0738 116.561 99.1138 116.26C100.154 115.959 101.316 116.599 101.618 117.639ZM93.7831 119.909C94.1045 121.018 93.4443 122.111 92.4043 122.412C91.295 122.734 90.2019 122.074 89.9006 121.033C89.5792 119.924 90.2394 118.831 91.2794 118.53C92.3194 118.228 93.4818 118.869 93.7831 119.909ZM86.018 122.158C86.3394 123.268 85.6792 124.361 84.6392 124.662C83.5299 124.984 82.4368 124.323 82.1355 123.283C81.8141 122.174 82.4743 121.081 83.5143 120.779C84.5543 120.478 85.7167 121.118 86.018 122.158ZM78.1836 124.428C78.505 125.537 77.8448 126.631 76.8048 126.932C75.6955 127.253 74.6024 126.593 74.3011 125.553C73.9797 124.444 74.6399 123.35 75.6799 123.049C76.7199 122.748 77.8823 123.388 78.1836 124.428ZM70.3492 126.698C70.6706 127.807 70.0104 128.9 68.9704 129.202C67.8611 129.523 66.768 128.863 66.4667 127.823C66.1453 126.713 66.8055 125.62 67.8455 125.319C68.8855 125.018 70.0479 125.658 70.3492 126.698ZM62.5148 128.968C62.8362 130.077 62.176 131.17 61.136 131.471C60.0267 131.793 58.9336 131.132 58.6323 130.092C58.3109 128.983 58.9711 127.89 60.0111 127.589C61.1204 127.267 62.2135 127.928 62.5148 128.968ZM54.7497 131.217C55.0711 132.327 54.4109 133.42 53.3709 133.721C52.2617 134.043 51.1685 133.382 50.8672 132.342C50.5458 131.233 51.2061 130.14 52.246 129.838C53.286 129.537 54.4484 130.177 54.7497 131.217ZM46.9153 133.487C47.2367 134.596 46.5765 135.69 45.5365 135.991C44.4273 136.312 43.3341 135.652 43.0328 134.612C42.7114 133.502 43.3717 132.409 44.4116 132.108C45.4516 131.807 46.614 132.447 46.9153 133.487ZM39.0809 135.757C39.4023 136.866 38.7421 137.959 37.7021 138.261C36.5928 138.582 35.4997 137.922 35.1984 136.882C34.877 135.772 35.5372 134.679 36.5772 134.378C37.6171 134.076 38.7796 134.717 39.0809 135.757ZM31.2465 138.027C31.5679 139.136 30.9077 140.229 29.8677 140.53C28.7584 140.852 27.6653 140.191 27.364 139.151C27.0426 138.042 27.7028 136.949 28.7428 136.648C29.8521 136.326 30.9452 136.986 31.2465 138.027Z" fill="#231F20"/>
<path d="M184.997 83.7871C184.856 83.3018 184.487 82.8073 184.04 82.5611C183.593 82.3148 182.978 82.2675 182.493 82.4081C182.007 82.5487 181.513 82.9174 181.267 83.3646C180.725 84.3482 181.107 85.6656 182.07 86.138C182.518 86.3843 183.132 86.4316 183.618 86.291C184.103 86.1504 184.597 85.7817 184.844 85.3346C185.07 84.8181 185.137 84.2725 184.997 83.7871Z" fill="#231F20"/>
<path d="M177.161 86.0565C177.483 87.1659 176.823 88.2591 175.783 88.5604C174.673 88.8818 173.58 88.2214 173.279 87.1814C172.957 86.072 173.618 84.9788 174.658 84.6775C175.747 84.2868 176.84 84.9471 177.161 86.0565ZM169.396 88.3062C169.718 89.4156 169.057 90.5088 168.017 90.8101C166.908 91.1315 165.815 90.4711 165.514 89.431C165.192 88.3216 165.853 87.2285 166.893 86.9272C167.912 86.5566 169.075 87.1968 169.396 88.3062ZM161.562 90.576C161.883 91.6854 161.223 92.7785 160.183 93.0798C159.074 93.4012 157.981 92.7409 157.679 91.7008C157.358 90.5914 158.018 89.4982 159.058 89.1969C160.078 88.8263 161.24 89.4666 161.562 90.576ZM153.727 92.8457C154.049 93.9551 153.389 95.0483 152.349 95.3496C151.239 95.671 150.146 95.0106 149.845 93.9706C149.524 92.8612 150.184 91.768 151.224 91.4667C152.313 91.076 153.406 91.7363 153.727 92.8457ZM145.962 95.0954C146.284 96.2048 145.624 97.298 144.584 97.5993C143.474 97.9206 142.381 97.2603 142.08 96.2202C141.758 95.1108 142.419 94.0177 143.459 93.7164C144.479 93.3457 145.641 93.986 145.962 95.0954ZM138.128 97.3652C138.449 98.4746 137.789 99.5677 136.749 99.869C135.64 100.19 134.547 99.5301 134.245 98.49C133.924 97.3806 134.584 96.2874 135.624 95.9861C136.644 95.6155 137.807 96.2558 138.128 97.3652ZM130.294 99.6349C130.615 100.744 129.955 101.837 128.915 102.139C127.805 102.46 126.712 101.8 126.411 100.76C126.09 99.6504 126.75 98.5572 127.79 98.2559C128.81 97.8853 129.972 98.5255 130.294 99.6349ZM122.459 101.905C122.781 103.014 122.12 104.107 121.08 104.409C119.971 104.73 118.878 104.07 118.577 103.03C118.255 101.92 118.915 100.827 119.955 100.526C120.995 100.224 122.138 100.795 122.459 101.905ZM114.694 104.154C115.015 105.264 114.355 106.357 113.315 106.658C112.206 106.98 111.113 106.319 110.812 105.279C110.49 104.17 111.15 103.077 112.19 102.775C113.21 102.405 114.373 103.045 114.694 104.154ZM106.86 106.424C107.181 107.534 106.521 108.627 105.481 108.928C104.372 109.249 103.278 108.589 102.977 107.549C102.656 106.44 103.316 105.346 104.356 105.045C105.376 104.674 106.538 105.315 106.86 106.424ZM99.0252 108.694C99.3466 109.803 98.6864 110.896 97.6464 111.198C96.5371 111.519 95.444 110.859 95.1427 109.819C94.8213 108.709 95.4815 107.616 96.5215 107.315C97.5414 106.944 98.7038 107.584 99.0252 108.694ZM91.1908 110.964C91.5123 112.073 90.852 113.166 89.812 113.468C88.7028 113.789 87.6096 113.129 87.3083 112.088C86.9869 110.979 87.6471 109.886 88.6871 109.585C89.7271 109.283 90.8694 109.854 91.1908 110.964ZM83.4258 113.213C83.7472 114.323 83.0869 115.416 82.047 115.717C80.9377 116.039 79.8446 115.378 79.5432 114.338C79.2218 113.229 79.8821 112.136 80.922 111.834C81.962 111.533 83.1043 112.104 83.4258 113.213ZM75.5914 115.483C75.9128 116.592 75.2525 117.686 74.2126 117.987C73.1033 118.308 72.0102 117.648 71.7088 116.608C71.3874 115.499 72.0477 114.405 73.0876 114.104C74.1075 113.733 75.2699 114.374 75.5914 115.483ZM67.757 117.753C68.0784 118.862 67.4181 119.955 66.3782 120.257C65.2689 120.578 64.1758 119.918 63.8744 118.878C63.553 117.768 64.2133 116.675 65.2532 116.374C66.2731 116.003 67.4355 116.643 67.757 117.753ZM59.9226 120.023C60.244 121.132 59.5837 122.225 58.5438 122.526C57.4345 122.848 56.3413 122.188 56.04 121.147C55.7186 120.038 56.3789 118.945 57.4188 118.644C58.508 118.253 59.6011 118.913 59.9226 120.023ZM52.1575 122.272C52.4789 123.382 51.8186 124.475 50.7787 124.776C49.6694 125.098 48.5763 124.437 48.2749 123.397C47.9535 122.288 48.6138 121.195 49.6537 120.893C50.6937 120.592 51.8361 121.163 52.1575 122.272ZM44.3231 124.542C44.6445 125.651 43.9842 126.745 42.9443 127.046C41.835 127.367 40.7418 126.707 40.4405 125.667C40.1191 124.557 40.7794 123.464 41.8193 123.163C42.8392 122.792 44.0017 123.433 44.3231 124.542Z" fill="#231F20"/>
<path d="M182.385 74.7735C182.244 74.2881 181.875 73.7937 181.428 73.5474C180.981 73.3012 180.366 73.2539 179.881 73.3945C179.395 73.5351 178.901 73.9038 178.655 74.3509C178.113 75.3346 178.495 76.652 179.458 77.1244C179.905 77.3706 180.52 77.4179 181.006 77.2773C181.491 77.1367 181.985 76.768 182.232 76.3209C182.458 75.8044 182.525 75.2588 182.385 74.7735Z" fill="#231F20"/>
<path d="M174.551 77.0428C174.872 78.1522 174.212 79.2453 173.172 79.5466C172.063 79.868 170.969 79.2077 170.668 78.1676C170.347 77.0582 171.007 75.965 172.047 75.6637C173.136 75.273 174.229 75.9334 174.551 77.0428ZM166.786 79.2924C167.107 80.4018 166.447 81.495 165.407 81.7963C164.297 82.1177 163.204 81.4573 162.903 80.4173C162.582 79.3079 163.242 78.2147 164.282 77.9134C165.302 77.5428 166.464 78.183 166.786 79.2924ZM158.951 81.5622C159.273 82.6716 158.612 83.7648 157.572 84.0661C156.463 84.3874 155.37 83.7271 155.069 82.687C154.747 81.5776 155.407 80.4845 156.447 80.1832C157.467 79.8125 158.63 80.4528 158.951 81.5622ZM151.117 83.832C151.438 84.9414 150.778 86.0345 149.738 86.3358C148.629 86.6572 147.536 85.9968 147.234 84.9568C146.913 83.8474 147.573 82.7542 148.613 82.4529C149.702 82.0622 150.795 82.7226 151.117 83.832ZM143.352 86.0816C143.673 87.191 143.013 88.2842 141.973 88.5855C140.864 88.9069 139.77 88.2465 139.469 87.2065C139.148 86.0971 139.808 85.0039 140.848 84.7026C141.868 84.332 143.03 84.9722 143.352 86.0816ZM135.517 88.3514C135.839 89.4608 135.178 90.554 134.138 90.8552C133.029 91.1766 131.936 90.5163 131.635 89.4762C131.313 88.3668 131.974 87.2737 133.014 86.9724C134.033 86.6017 135.196 87.242 135.517 88.3514ZM127.683 90.6211C128.004 91.7305 127.344 92.8237 126.304 93.125C125.195 93.4464 124.102 92.7861 123.8 91.746C123.479 90.6366 124.139 89.5434 125.179 89.2421C126.199 88.8715 127.361 89.5117 127.683 90.6211ZM119.848 92.8909C120.17 94.0003 119.51 95.0935 118.47 95.3948C117.36 95.7162 116.267 95.0558 115.966 94.0158C115.644 92.9063 116.305 91.8132 117.345 91.5119C118.434 91.1212 119.527 91.7815 119.848 92.8909ZM112.083 95.1406C112.405 96.25 111.745 97.3431 110.705 97.6444C109.595 97.9658 108.502 97.3055 108.201 96.2654C107.879 95.156 108.54 94.0629 109.58 93.7616C110.6 93.3909 111.762 94.0312 112.083 95.1406ZM104.249 97.4103C104.57 98.5197 103.91 99.6129 102.87 99.9142C101.761 100.236 100.668 99.5753 100.366 98.5352C100.045 97.4258 100.705 96.3326 101.745 96.0313C102.765 95.6607 103.928 96.3009 104.249 97.4103ZM96.4145 99.6801C96.7359 100.79 96.0757 101.883 95.0357 102.184C93.9264 102.505 92.8333 101.845 92.532 100.805C92.2106 99.6955 92.8708 98.6024 93.9108 98.3011C94.9307 97.9305 96.0931 98.5707 96.4145 99.6801ZM88.5801 101.95C88.9015 103.059 88.2413 104.152 87.2013 104.454C86.092 104.775 84.9989 104.115 84.6976 103.075C84.3762 101.965 85.0364 100.872 86.0764 100.571C87.1656 100.18 88.2587 100.84 88.5801 101.95ZM80.815 104.2C81.1365 105.309 80.4762 106.402 79.4363 106.703C78.327 107.025 77.2338 106.364 76.9325 105.324C76.6111 104.215 77.2713 103.122 78.3113 102.821C79.3513 102.519 80.4936 103.09 80.815 104.2ZM72.9806 106.469C73.3021 107.579 72.6418 108.672 71.6019 108.973C70.4926 109.295 69.3994 108.634 69.0981 107.594C68.7767 106.485 69.4369 105.392 70.4769 105.09C71.4968 104.72 72.6592 105.36 72.9806 106.469ZM65.1462 108.739C65.4677 109.848 64.8074 110.942 63.7675 111.243C62.6582 111.564 61.565 110.904 61.2637 109.864C60.9423 108.754 61.6025 107.661 62.6425 107.36C63.6624 106.989 64.8248 107.63 65.1462 108.739ZM57.3118 111.009C57.6333 112.118 56.973 113.211 55.9331 113.513C54.8238 113.834 53.7306 113.174 53.4293 112.134C53.1079 111.024 53.7681 109.931 54.8081 109.63C55.8973 109.239 56.9904 109.899 57.3118 111.009Z" fill="#231F20"/>
<path d="M179.775 65.7588C179.634 65.2735 179.265 64.779 178.818 64.5328C178.371 64.2865 177.756 64.2392 177.271 64.3798C176.786 64.5204 176.291 64.8891 176.045 65.3362C175.503 66.3199 175.885 67.6373 176.848 68.1097C177.296 68.356 177.911 68.4033 178.396 68.2627C178.881 68.1221 179.376 67.7534 179.622 67.3063C179.848 66.7898 179.915 66.2442 179.775 65.7588Z" fill="#231F20"/>
<path d="M171.939 68.0286C172.261 69.138 171.6 70.2311 170.56 70.5324C169.451 70.8538 168.358 70.1935 168.057 69.1534C167.735 68.044 168.395 66.9509 169.435 66.6496C170.525 66.2588 171.618 66.9192 171.939 68.0286ZM164.174 70.2782C164.495 71.3876 163.835 72.4808 162.795 72.7821C161.686 73.1035 160.593 72.4431 160.292 71.4031C159.97 70.2937 160.63 69.2005 161.67 68.8992C162.69 68.5286 163.853 69.1689 164.174 70.2782ZM156.34 72.548C156.661 73.6574 156.001 74.7505 154.961 75.0518C153.852 75.3732 152.758 74.7129 152.457 73.6728C152.136 72.5634 152.796 71.4703 153.836 71.169C154.856 70.7984 156.018 71.4386 156.34 72.548ZM148.505 74.8178C148.827 75.9272 148.166 77.0203 147.126 77.3216C146.017 77.643 144.924 76.9826 144.623 75.9426C144.301 74.8332 144.962 73.74 146.002 73.4388C147.091 73.048 148.184 73.7084 148.505 74.8178ZM140.74 77.0674C141.062 78.1768 140.401 79.27 139.361 79.5713C138.252 79.8927 137.159 79.2323 136.858 78.1923C136.536 77.0829 137.196 75.9897 138.236 75.6884C139.256 75.3178 140.419 75.958 140.74 77.0674ZM132.906 79.3372C133.227 80.4466 132.567 81.5397 131.527 81.841C130.418 82.1624 129.325 81.5021 129.023 80.462C128.702 79.3526 129.362 78.2595 130.402 77.9582C131.422 77.5876 132.584 78.2278 132.906 79.3372ZM125.071 81.607C125.393 82.7163 124.733 83.8095 123.693 84.1108C122.583 84.4322 121.49 83.7719 121.189 82.7318C120.867 81.6224 121.528 80.5292 122.568 80.2279C123.588 79.8573 124.75 80.4976 125.071 81.607ZM117.237 83.8767C117.558 84.9861 116.898 86.0793 115.858 86.3806C114.749 86.7019 113.656 86.0416 113.354 85.0016C113.033 83.8922 113.693 82.799 114.733 82.4977C115.773 82.1964 116.916 82.7673 117.237 83.8767ZM109.472 86.1264C109.793 87.2358 109.133 88.3289 108.093 88.6302C106.984 88.9516 105.891 88.2913 105.589 87.2512C105.268 86.1418 105.928 85.0487 106.968 84.7474C107.988 84.3767 109.15 85.017 109.472 86.1264ZM101.637 88.3961C101.959 89.5055 101.299 90.5987 100.259 90.9C99.1494 91.2214 98.0562 90.561 97.7549 89.521C97.4335 88.4116 98.0938 87.3184 99.1337 87.0171C100.154 86.6465 101.316 87.2868 101.637 88.3961ZM93.803 90.6659C94.1245 91.7753 93.4642 92.8685 92.4242 93.1698C91.315 93.4911 90.2218 92.8308 89.9205 91.7907C89.5991 90.6814 90.2594 89.5882 91.2993 89.2869C92.3192 88.9163 93.4816 89.5565 93.803 90.6659ZM85.9686 92.9357C86.2901 94.0451 85.6298 95.1382 84.5899 95.4395C83.4806 95.7609 82.3874 95.1006 82.0861 94.0605C81.7647 92.9511 82.425 91.858 83.4649 91.5567C84.5049 91.2554 85.6472 91.8263 85.9686 92.9357ZM78.2036 95.1854C78.525 96.2947 77.8647 97.3879 76.8248 97.6892C75.7155 98.0106 74.6224 97.3502 74.321 96.3102C73.9996 95.2008 74.6599 94.1076 75.6998 93.8063C76.7398 93.505 77.8822 94.076 78.2036 95.1854ZM70.3692 97.4551C70.6906 98.5645 70.0303 99.6577 68.9904 99.959C67.8811 100.28 66.788 99.62 66.4866 98.5799C66.1652 97.4706 66.8255 96.3774 67.8654 96.0761C68.8853 95.7055 70.0478 96.3457 70.3692 97.4551Z" fill="#231F20"/>
<path d="M177.163 56.7451C177.022 56.2598 176.653 55.7653 176.206 55.5191C175.759 55.2728 175.144 55.2255 174.659 55.3661C174.174 55.5067 173.679 55.8754 173.433 56.3226C172.891 57.3062 173.273 58.6236 174.236 59.0961C174.684 59.3423 175.298 59.3896 175.784 59.249C176.269 59.1084 176.763 58.7397 177.01 58.2926C177.256 57.8455 177.303 57.2305 177.163 56.7451Z" fill="#231F20"/>
<path d="M169.328 59.0148C169.65 60.1242 168.99 61.2174 167.95 61.5187C166.84 61.8401 165.747 61.1797 165.446 60.1396C165.124 59.0302 165.785 57.9371 166.825 57.6358C167.914 57.2451 169.007 57.9054 169.328 59.0148ZM161.563 61.2645C161.885 62.3739 161.225 63.4671 160.185 63.7684C159.075 64.0897 157.982 63.4294 157.681 62.3893C157.359 61.2799 158.02 60.1868 159.06 59.8855C160.079 59.5148 161.242 60.1551 161.563 61.2645ZM153.729 63.5343C154.05 64.6437 153.39 65.7368 152.35 66.0381C151.241 66.3595 150.148 65.6991 149.846 64.6591C149.525 63.5497 150.185 62.4565 151.225 62.1552C152.245 61.7846 153.408 62.4249 153.729 63.5343ZM145.895 65.804C146.216 66.9134 145.556 68.0066 144.516 68.3079C143.406 68.6293 142.313 67.9689 142.012 66.9288C141.691 65.8194 142.351 64.7263 143.391 64.425C144.48 64.0343 145.573 64.6946 145.895 65.804ZM138.129 68.0537C138.451 69.1631 137.791 70.2562 136.751 70.5575C135.641 70.8789 134.548 70.2186 134.247 69.1785C133.926 68.0691 134.586 66.976 135.626 66.6747C136.646 66.304 137.808 66.9443 138.129 68.0537ZM130.295 70.3234C130.616 71.4328 129.956 72.526 128.916 72.8273C127.807 73.1487 126.714 72.4883 126.413 71.4483C126.091 70.3389 126.751 69.2457 127.791 68.9444C128.811 68.5738 129.974 69.214 130.295 70.3234ZM122.461 72.5932C122.782 73.7026 122.122 74.7958 121.082 75.0971C119.973 75.4184 118.879 74.7581 118.578 73.718C118.257 72.6086 118.917 71.5155 119.957 71.2142C120.977 70.8435 122.139 71.4838 122.461 72.5932ZM114.626 74.863C114.948 75.9724 114.287 77.0655 113.247 77.3668C112.138 77.6882 111.045 77.0279 110.744 75.9878C110.422 74.8784 111.083 73.7852 112.122 73.4839C113.162 73.1826 114.305 73.7536 114.626 74.863ZM106.861 77.1126C107.183 78.222 106.522 79.3152 105.482 79.6165C104.373 79.9379 103.28 79.2775 102.979 78.2375C102.657 77.1281 103.317 76.0349 104.357 75.7336C105.377 75.363 106.54 76.0032 106.861 77.1126ZM99.0268 79.3824C99.3482 80.4918 98.6879 81.585 97.6479 81.8863C96.5387 82.2076 95.4455 81.5473 95.1442 80.5072C94.8228 79.3978 95.483 78.3047 96.523 78.0034C97.5429 77.6327 98.7054 78.273 99.0268 79.3824ZM91.1923 81.6522C91.5138 82.7616 90.8535 83.8547 89.8135 84.156C88.7043 84.4774 87.6111 83.8171 87.3098 82.777C86.9884 81.6676 87.6486 80.5744 88.6886 80.2731C89.7085 79.9025 90.8709 80.5428 91.1923 81.6522ZM83.3579 83.9219C83.6794 85.0313 83.0191 86.1245 81.9792 86.4258C80.8699 86.7472 79.7767 86.0868 79.4754 85.0468C79.154 83.9374 79.8142 82.8442 80.8542 82.5429C81.9434 82.1522 83.0365 82.8125 83.3579 83.9219Z" fill="#231F20"/>
<path d="M174.551 47.7315C174.41 47.2461 174.042 46.7517 173.595 46.5054C173.148 46.2592 172.533 46.2119 172.047 46.3525C171.562 46.4931 171.068 46.8618 170.821 47.3089C170.28 48.2926 170.661 49.61 171.625 50.0824C172.072 50.3286 172.687 50.3759 173.172 50.2353C173.658 50.0947 174.152 49.726 174.398 49.2789C174.644 48.8318 174.692 48.2168 174.551 47.7315Z" fill="#231F20"/>
<path d="M166.717 50.0008C167.038 51.1102 166.378 52.2033 165.338 52.5046C164.229 52.826 163.135 52.1657 162.834 51.1256C162.513 50.0162 163.173 48.923 164.213 48.6218C165.322 48.3004 166.395 48.8914 166.717 50.0008ZM158.952 52.2504C159.273 53.3598 158.613 54.453 157.573 54.7543C156.463 55.0757 155.37 54.4153 155.069 53.3753C154.748 52.2659 155.408 51.1727 156.448 50.8714C157.488 50.5701 158.63 51.1411 158.952 52.2504ZM151.117 54.5202C151.439 55.6296 150.778 56.7228 149.738 57.0241C148.629 57.3454 147.536 56.6851 147.235 55.645C146.913 54.5356 147.573 53.4425 148.613 53.1412C149.653 52.8399 150.796 53.4108 151.117 54.5202ZM143.283 56.79C143.604 57.8994 142.944 58.9925 141.904 59.2938C140.795 59.6152 139.702 58.9549 139.4 57.9148C139.079 56.8054 139.739 55.7122 140.779 55.4109C141.888 55.0896 142.961 55.6806 143.283 56.79ZM135.518 59.0396C135.839 60.149 135.179 61.2422 134.139 61.5435C133.03 61.8649 131.936 61.2045 131.635 60.1645C131.314 59.0551 131.974 57.9619 133.014 57.6606C134.054 57.3593 135.196 57.9302 135.518 59.0396ZM127.683 61.3094C128.005 62.4188 127.344 63.5119 126.304 63.8132C125.195 64.1346 124.102 63.4743 123.801 62.4342C123.479 61.3248 124.14 60.2317 125.18 59.9304C126.22 59.6291 127.362 60.2 127.683 61.3094ZM119.849 63.5792C120.17 64.6885 119.51 65.7817 118.47 66.083C117.361 66.4044 116.268 65.7441 115.966 64.704C115.645 63.5946 116.305 62.5014 117.345 62.2001C118.385 61.8988 119.527 62.4698 119.849 63.5792ZM112.014 65.8489C112.336 66.9583 111.676 68.0515 110.636 68.3528C109.526 68.6742 108.433 68.0138 108.132 66.9738C107.811 65.8644 108.471 64.7712 109.511 64.4699C110.551 64.1686 111.693 64.7395 112.014 65.8489ZM104.249 68.0986C104.571 69.208 103.911 70.3011 102.871 70.6024C101.761 70.9238 100.668 70.2635 100.367 69.2234C100.045 68.114 100.706 67.0209 101.746 66.7196C102.786 66.4183 103.928 66.9892 104.249 68.0986ZM96.415 70.3683C96.7364 71.4777 96.0761 72.5709 95.0362 72.8722C93.9269 73.1936 92.8338 72.5332 92.5324 71.4932C92.211 70.3838 92.8713 69.2906 93.9112 68.9893C94.9512 68.688 96.0936 69.259 96.415 70.3683Z" fill="#231F20"/>
<path d="M171.939 38.7178C171.799 38.2324 171.43 37.738 170.983 37.4917C170.536 37.2455 169.921 37.1982 169.436 37.3388C168.95 37.4794 168.456 37.8481 168.21 38.2952C167.668 39.2789 168.05 40.5963 169.013 41.0687C169.46 41.3149 170.075 41.3622 170.561 41.2216C171.046 41.081 171.54 40.7123 171.787 40.2652C172.033 39.8181 172.08 39.2031 171.939 38.7178Z" fill="#231F20"/>
<path d="M164.104 40.988C164.426 42.0974 163.766 43.1905 162.726 43.4918C161.616 43.8132 160.523 43.1529 160.222 42.1128C159.9 41.0034 160.561 39.9103 161.601 39.609C162.71 39.2876 163.783 39.8786 164.104 40.988ZM156.339 43.2376C156.661 44.347 156 45.4402 154.961 45.7415C153.851 46.0629 152.758 45.4025 152.457 44.3625C152.135 43.2531 152.796 42.1599 153.836 41.8587C154.876 41.5574 156.018 42.1283 156.339 43.2376ZM148.505 45.5074C148.826 46.6168 148.166 47.7099 147.126 48.0112C146.017 48.3326 144.924 47.6723 144.622 46.6322C144.301 45.5229 144.961 44.4297 146.001 44.1284C147.041 43.8271 148.184 44.398 148.505 45.5074ZM140.671 47.7772C140.992 48.8865 140.332 49.9797 139.292 50.281C138.182 50.6024 137.089 49.942 136.788 48.902C136.467 47.7926 137.127 46.6995 138.167 46.3982C139.276 46.0768 140.349 46.6678 140.671 47.7772ZM132.905 50.0268C133.227 51.1362 132.567 52.2294 131.527 52.5307C130.417 52.852 129.324 52.1917 129.023 51.1517C128.702 50.0423 129.362 48.9491 130.402 48.6478C131.442 48.3465 132.584 48.9175 132.905 50.0268ZM125.071 52.2966C125.392 53.406 124.732 54.4991 123.692 54.8004C122.583 55.1218 121.49 54.4615 121.189 53.4214C120.867 52.312 121.527 51.2189 122.567 50.9176C123.607 50.6163 124.75 51.1872 125.071 52.2966ZM117.237 54.5663C117.558 55.6757 116.898 56.7689 115.858 57.0702C114.749 57.3916 113.655 56.7312 113.354 55.6912C113.033 54.5818 113.693 53.4886 114.733 53.1873C115.773 52.8861 116.915 53.457 117.237 54.5663ZM109.402 56.8361C109.724 57.9455 109.063 59.0387 108.023 59.3399C106.914 59.6613 105.821 59.001 105.52 57.9609C105.198 56.8516 105.859 55.7584 106.899 55.4571C107.938 55.1558 109.081 55.7267 109.402 56.8361Z" fill="#231F20"/>
<path d="M169.328 29.7041C169.187 29.2188 168.818 28.7243 168.371 28.4781C167.924 28.2318 167.309 28.1845 166.824 28.3251C166.339 28.4657 165.844 28.8344 165.598 29.2815C165.056 30.2652 165.438 31.5826 166.401 32.055C166.849 32.3013 167.463 32.3486 167.949 32.208C168.434 32.0674 168.929 31.6987 169.175 31.2515C169.421 30.8044 169.488 30.2588 169.328 29.7041Z" fill="#231F20"/>
<path d="M161.493 31.9738C161.814 33.0832 161.154 34.1763 160.114 34.4776C159.005 34.799 157.912 34.1387 157.61 33.0986C157.289 31.9892 157.949 30.8961 158.989 30.5948C160.099 30.2734 161.172 30.8644 161.493 31.9738ZM153.728 34.2235C154.049 35.3328 153.389 36.426 152.349 36.7273C151.24 37.0487 150.147 36.3883 149.845 35.3483C149.524 34.2389 150.184 33.1457 151.224 32.8445C152.264 32.5432 153.406 33.1141 153.728 34.2235ZM145.894 36.4932C146.215 37.6026 145.555 38.6957 144.515 38.997C143.405 39.3184 142.312 38.6581 142.011 37.618C141.69 36.5087 142.35 35.4155 143.39 35.1142C144.43 34.8129 145.572 35.3838 145.894 36.4932ZM138.059 38.763C138.381 39.8724 137.72 40.9655 136.68 41.2668C135.571 41.5882 134.478 40.9279 134.177 39.8878C133.855 38.7784 134.515 37.6853 135.555 37.384C136.665 37.0626 137.738 37.6536 138.059 38.763ZM130.294 41.0126C130.615 42.122 129.955 43.2152 128.915 43.5165C127.806 43.8379 126.713 43.1775 126.412 42.1375C126.09 41.0281 126.75 39.9349 127.79 39.6336C128.83 39.3324 129.973 39.9033 130.294 41.0126ZM122.46 43.2824C122.781 44.3918 122.121 45.4849 121.081 45.7862C119.972 46.1076 118.878 45.4473 118.577 44.4072C118.256 43.2979 118.916 42.2047 119.956 41.9034C120.996 41.6021 122.138 42.173 122.46 43.2824Z" fill="#231F20"/>
<path d="M166.716 20.6904C166.576 20.2051 166.207 19.7107 165.76 19.4644C165.313 19.2182 164.698 19.1708 164.213 19.3115C163.727 19.4521 163.233 19.8208 162.987 20.2679C162.445 21.2515 162.827 22.5689 163.79 23.0413C164.237 23.2876 164.852 23.3349 165.337 23.1943C165.823 23.0537 166.317 22.685 166.563 22.2379C166.81 21.7908 166.877 21.2451 166.716 20.6904Z" fill="#231F20"/>
<path d="M158.882 22.96C159.204 24.0694 158.543 25.1625 157.503 25.4638C156.394 25.7852 155.301 25.1249 155 24.0848C154.678 22.9755 155.339 21.8823 156.379 21.581C157.488 21.2596 158.581 21.92 158.882 22.96ZM151.117 25.2097C151.439 26.3191 150.778 27.4122 149.738 27.7135C148.629 28.0349 147.536 27.3746 147.235 26.3345C146.913 25.2251 147.574 24.132 148.613 23.8307C149.653 23.5294 150.816 24.1696 151.117 25.2097ZM143.283 27.4794C143.604 28.5888 142.944 29.682 141.904 29.9833C140.795 30.3047 139.702 29.6443 139.4 28.6043C139.079 27.4949 139.739 26.4017 140.779 26.1004C141.819 25.7991 142.981 26.4394 143.283 27.4794ZM135.448 29.7492C135.77 30.8586 135.11 31.9517 134.07 32.253C132.96 32.5744 131.867 31.9141 131.566 30.874C131.244 29.7646 131.905 28.6715 132.945 28.3702C134.054 28.0488 135.147 28.7092 135.448 29.7492Z" fill="#231F20"/>
<path d="M164.104 11.6758C163.964 11.1905 163.595 10.696 163.148 10.4498C162.701 10.2035 162.086 10.1562 161.6 10.2968C161.115 10.4374 160.621 10.8061 160.375 11.2532C159.813 12.1676 160.215 13.5543 161.178 14.0267C161.625 14.273 162.24 14.3203 162.725 14.1797C163.211 14.0391 163.705 13.6704 163.951 13.2232C164.198 12.7761 164.265 12.2305 164.104 11.6758Z" fill="#231F20"/>
<path d="M156.27 13.9458C156.592 15.0552 155.931 16.1484 154.891 16.4497C153.782 16.7711 152.689 16.1107 152.388 15.0707C152.066 13.9613 152.726 12.8681 153.766 12.5668C154.876 12.2454 155.969 12.9058 156.27 13.9458ZM148.505 16.1955C148.826 17.3049 148.166 18.3981 147.126 18.6994C146.017 19.0207 144.924 18.3604 144.623 17.3203C144.301 16.2109 144.961 15.1178 146.001 14.8165C147.041 14.5152 148.204 15.1554 148.505 16.1955Z" fill="#231F20"/>
<path d="M161.493 2.66214C161.353 2.17678 160.984 1.68234 160.537 1.43609C160.09 1.18984 159.475 1.14253 158.989 1.28313C158.504 1.42374 158.01 1.79244 157.763 2.23956C157.222 3.22322 157.603 4.54063 158.567 5.01305C159.014 5.2593 159.629 5.30661 160.114 5.166C160.6 5.02539 161.094 4.6567 161.34 4.20958C161.586 3.76246 161.654 3.21684 161.493 2.66214Z" fill="#231F20"/>
</svg>
