<svg width="19" height="19" viewBox="0 0 19 19" fill="none" xmlns="http://www.w3.org/2000/svg">
<path d="M16.85 0.0499878H2.15005C0.995049 0.0499878 0.0500488 0.994988 0.0500488 2.14999V16.85C0.0500488 18.006 0.995049 18.95 2.15005 18.95H9.50005V11.6H7.40005V9.00124H9.50005V6.84874C9.50005 4.57654 10.7726 2.98054 13.4543 2.98054L15.3475 2.98264V5.71789H14.0906C13.0469 5.71789 12.65 6.50119 12.65 7.22779V9.00229H15.3464L14.75 11.6H12.65V18.95H16.85C18.005 18.95 18.95 18.006 18.95 16.85V2.14999C18.95 0.994988 18.005 0.0499878 16.85 0.0499878Z" fill="black"/>
</svg>
