<svg width="23" height="20" viewBox="0 0 23 20" fill="none" xmlns="http://www.w3.org/2000/svg">
<path d="M20.5 0.666656H2.5C1.2625 0.666656 0.26125 1.71666 0.26125 2.99999L0.25 17C0.25 18.2833 1.2625 19.3333 2.5 19.3333H20.5C21.7375 19.3333 22.75 18.2833 22.75 17V2.99999C22.75 1.71666 21.7375 0.666656 20.5 0.666656ZM20.05 5.62499L12.0963 10.7817C11.7363 11.015 11.2638 11.015 10.9038 10.7817L2.95 5.62499C2.83719 5.55932 2.73841 5.47059 2.65963 5.36419C2.58084 5.25778 2.5237 5.1359 2.49165 5.00592C2.4596 4.87595 2.45332 4.74058 2.47318 4.60801C2.49304 4.47545 2.53863 4.34844 2.60719 4.23467C2.67576 4.12091 2.76587 4.02275 2.87207 3.94615C2.97827 3.86955 3.09836 3.81609 3.22506 3.789C3.35176 3.76192 3.48244 3.76178 3.6092 3.7886C3.73595 3.81541 3.85615 3.86861 3.9625 3.94499L11.5 8.83332L19.0375 3.94499C19.1439 3.86861 19.264 3.81541 19.3908 3.7886C19.5176 3.76178 19.6482 3.76192 19.7749 3.789C19.9016 3.81609 20.0217 3.86955 20.1279 3.94615C20.2341 4.02275 20.3242 4.12091 20.3928 4.23467C20.4614 4.34844 20.507 4.47545 20.5268 4.60801C20.5467 4.74058 20.5404 4.87595 20.5084 5.00592C20.4763 5.1359 20.4192 5.25778 20.3404 5.36419C20.2616 5.47059 20.1628 5.55932 20.05 5.62499Z" fill="black"/>
</svg>
