<svg width="46" height="53" viewBox="0 0 46 53" fill="none" xmlns="http://www.w3.org/2000/svg">
<g clip-path="url(#clip0)">
<path d="M0.102499 0C0.751348 0.374438 1.2636 0.612717 1.70755 0.953115C2.18565 1.32755 2.73204 1.70199 3.03939 2.21259C5.80554 6.53565 8.53754 10.9268 11.2695 15.2839C10.8256 18.4836 10.3475 21.7174 9.86938 25.1214C6.65929 25.3256 3.48334 25.5299 0.307396 25.7681C0.239096 25.7001 0.170796 25.666 0.136646 25.632C0.102496 25.5979 0.0683451 25.5299 0.0341949 25.4958C4.57764e-05 25.3937 -0.0341034 25.2916 -0.0341034 25.1554C-0.0341034 17.054 -0.0341034 8.95247 -0.0341034 0.885035C4.673e-05 0.612717 0.0341997 0.408478 0.102499 0Z" fill="black"/>
<path d="M25.3734 24.1002C24.2806 24.2364 23.3927 24.3725 22.4707 24.4066C21.2413 24.4406 19.9777 24.4066 18.6117 24.4066C16.6652 21.3089 14.6503 18.1432 12.6013 14.9095C12.9087 12.6288 13.216 10.28 13.5917 7.72705C18.9874 10.8247 24.2123 13.8202 29.5397 16.8838C28.1054 19.3687 26.7736 21.7174 25.3734 24.1002Z" fill="black"/>
<path d="M13.8648 44.0135C12.1232 42.9923 10.5182 42.0732 8.87896 41.1201C9.5961 36.1162 10.2791 31.2826 10.9963 26.3128C13.3867 26.1766 15.6406 26.0405 18.0311 25.9043C19.0898 27.5382 20.1826 29.2402 21.3437 31.0784C18.8849 35.2993 16.4261 39.5543 13.8648 44.0135Z" fill="black"/>
<path d="M37.0526 31.6569C33.6376 33.6312 30.3593 35.5034 26.9101 37.5117C25.5441 35.3672 24.2123 33.2908 22.8121 31.1122C23.8708 29.2741 24.9294 27.4359 26.0564 25.4957C28.9933 25.2914 31.9301 25.1212 34.9695 24.917C35.9598 26.9934 36.1306 29.3422 37.0526 31.6569Z" fill="black"/>
<path d="M7.75191 40.4735C4.98576 38.9077 2.52697 37.478 0.102325 36.0824C0.102325 33.0188 0.102325 30.0233 0.102325 26.9597C3.27827 26.7895 6.35176 26.6193 9.66431 26.415C9.15206 31.1466 8.33246 35.6058 7.75191 40.4735Z" fill="black"/>
<path d="M6.48865 49.2555C4.3372 50.5149 2.2882 51.7063 0.000152588 52.9998C0.000152588 47.8258 0.000152588 42.7879 0.000152588 37.5117C2.66385 39.0435 5.05435 40.4051 7.5473 41.8348C7.2058 44.2856 6.83015 46.7365 6.48865 49.2555Z" fill="black"/>
<path d="M25.8176 38.1245C22.3684 40.0988 19.0559 42.005 15.6409 43.9793C16.0507 42.6518 21.0024 34.0057 22.1977 32.4739C23.3929 34.3461 24.5199 36.1502 25.8176 38.1245Z" fill="black"/>
<path d="M36.5063 24.8832C38.5553 24.713 40.4336 24.5428 42.4143 24.3726C43.5071 24.9853 44.634 25.632 46 26.3809C43.4729 28.151 40.8434 29.3764 38.2138 31.0103C37.4284 29.002 36.9844 27.0277 36.5063 24.8832Z" fill="black"/>
<path d="M33.7401 19.3348C34.0816 20.7985 34.389 22.1601 34.7305 23.6579C32.0668 23.8281 29.608 23.9642 27.0126 24.1344C27.1492 23.7259 27.2175 23.5217 27.3199 23.3515C28.4127 21.4453 29.5397 19.5731 30.6666 17.6328C31.7253 18.2115 32.6815 18.7561 33.7401 19.3348Z" fill="black"/>
<path d="M12.4308 7.14833C12.1234 9.15667 11.8502 10.9608 11.5429 13.1393C9.18651 9.76939 7.27411 6.46753 5.29341 3.19971C7.71806 4.35706 10.0403 5.68461 12.4308 7.14833Z" fill="black"/>
<path d="M12.5331 17.1902C14.104 19.6751 15.6066 22.0238 17.2116 24.5768C15.2651 25.1215 13.3527 24.5428 11.5086 25.2576C11.0305 23.6578 11.5427 22.3642 11.7476 21.0707C11.9525 19.8113 11.7135 18.4837 12.5331 17.1902Z" fill="black"/>
<path d="M13.2843 45.341C11.4744 46.3962 9.83516 47.3494 8.19596 48.3025C7.99106 47.3153 8.26425 44.8644 8.81065 42.8901C9.8693 43.0944 11.6793 44.0475 13.2843 45.341Z" fill="black"/>
<path d="M19.5336 25.9041C21.2753 25.7679 22.7779 25.6658 24.5878 25.4956C23.6658 27.0614 22.9145 28.355 22.0607 29.8187C21.1387 28.423 20.4215 27.2657 19.5336 25.9041Z" fill="black"/>
<path d="M39.9556 23.3512C38.6921 23.3512 37.4285 23.3512 36.0625 23.3512C35.7893 22.4322 35.5503 21.4791 35.1746 20.1855C36.9846 21.2067 38.4872 22.0918 39.9898 22.9428C39.9898 23.0789 39.9556 23.2151 39.9556 23.3512Z" fill="black"/>
</g>
<defs>
<clipPath id="clip0">
<rect width="53" height="46" fill="white" transform="translate(46) rotate(90)"/>
</clipPath>
</defs>
</svg>
