<svg width="44" height="53" viewBox="0 0 44 53" fill="none" xmlns="http://www.w3.org/2000/svg">
<g clip-path="url(#clip0)">
<path d="M33.1624 32.8811C32.8889 33.1548 32.6838 33.4628 32.3761 33.6681C29.2308 35.6184 26.0513 37.5344 22.906 39.4163C19.3504 41.5719 15.8291 43.6933 12.2735 45.8146C12 45.9857 11.6923 46.1226 11.3846 46.2594C11.0427 44.9934 10.9402 37.1239 11.2137 33.2917C13.1282 34.0787 14.735 35.2762 16.4786 36.2685C18.2222 37.2949 19.9658 38.3556 21.8462 39.4505C22.2564 37.945 22.0171 36.5422 22.0513 35.1736C22.0855 33.8049 22.0513 32.4363 22.0513 31.0677C22.0513 29.6648 22.0513 28.2278 22.0513 26.6197C18.359 28.8437 14.9402 30.8966 11.3504 33.0522C10.9744 31.5125 11.1795 30.1097 11.1453 28.7068C11.1111 27.2355 11.1111 25.7301 11.1453 24.2588C11.1795 22.8559 10.9402 21.4531 11.3504 19.9134C14.8718 22.0348 18.2906 24.0877 21.9487 26.2775C21.9487 21.761 21.9487 17.5525 21.9487 13.344L21.9145 13.3782C22.2564 13.4466 22.6667 13.4466 22.9744 13.6519C29.9487 17.8262 36.8889 22.0005 43.8291 26.1749C43.8632 26.2091 43.8974 26.2433 44 26.3801C43.8974 26.517 43.8291 26.7565 43.6581 26.825C40.3419 28.8095 37.0598 30.794 33.7436 32.7785C33.5726 32.8811 33.3333 32.8469 33.1282 32.8811C33.1282 28.6726 33.1282 24.4641 33.1282 19.9476C29.4701 22.1374 26.0171 24.1903 22.4615 26.3459C22.8718 26.6539 23.1111 26.8934 23.3504 27.0302C26.0855 28.7068 28.8205 30.3492 31.5897 31.9915C32.0684 32.3679 32.6154 32.6074 33.1624 32.8811Z" fill="black"/>
<path d="M11.1453 19.5371C11.1111 15.3286 11.0769 11.1201 11.0769 6.63783C7.35043 8.86185 3.82906 10.949 0.273504 13.0704C-0.0683765 11.6675 -0.0683765 1.50549 0.239317 0C0.478632 0.136863 0.752136 0.205294 0.957264 0.342156C7.69231 4.41382 14.4615 8.48547 21.1966 12.5913C21.5043 12.7624 21.7094 13.1046 21.9487 13.3783L21.9829 13.3441C19.2479 14.9864 16.5128 16.663 13.7436 18.2711C12.8889 18.7502 12 19.0923 11.1453 19.5371Z" fill="black"/>
<path d="M0.273499 39.8611C3.82906 42.0167 7.31624 44.1038 10.9744 46.2936C10.5299 46.67 10.188 47.0122 9.81197 47.2517C6.66667 49.1677 3.52137 51.0496 0.273499 52.9657C0.170935 52.7604 -3.8147e-06 52.5551 -3.8147e-06 52.384C-3.8147e-06 48.415 -3.8147e-06 44.4118 -3.8147e-06 40.4427C0.0341845 40.3401 0.102558 40.2375 0.273499 39.8611Z" fill="black"/>
<path d="M0.17095 39.656C-0.136743 37.3978 -0.068367 27.9543 0.239325 26.6199C3.82907 28.6728 7.31625 30.8284 11.0769 33.1208C7.38463 35.3791 3.89745 37.5347 0.17095 39.656Z" fill="black"/>
<path d="M11.1111 19.5026C10.9401 19.7079 10.8376 20.0158 10.6325 20.1527C7.24783 22.2056 3.82903 24.2244 0.341851 26.3457C0.239287 26.072 0.0341558 25.8325 0.0341558 25.593C-3.24249e-05 21.7608 -3.24249e-05 17.9629 0.0341558 14.1307C0.0341558 13.9255 0.170909 13.7202 0.273474 13.3096C1.67518 14.1307 2.97433 14.8835 4.27348 15.6704C6.15382 16.7996 8.03416 17.9629 9.94869 19.0578C10.2906 19.2973 10.735 19.3999 11.1111 19.5026Z" fill="black"/>
</g>
<defs>
<clipPath id="clip0">
<rect width="53" height="44" fill="white" transform="translate(44) rotate(90)"/>
</clipPath>
</defs>
</svg>
