<svg width="46" height="53" viewBox="0 0 46 53" fill="none" xmlns="http://www.w3.org/2000/svg">
<g clip-path="url(#clip0)">
<path d="M46 26.5002C30.6781 35.3335 15.4247 44.1326 0 53.0344C0 35.2308 0 17.6326 0 0.0344238C1.43964 0.411039 44.4918 25.3019 46 26.5002ZM20.3949 17.5299C18.7154 18.6597 16.9672 19.3103 15.4933 20.5428C17.1729 21.4672 18.6811 22.3232 20.3949 23.2818C20.3949 21.3303 20.3949 19.5842 20.3949 17.5299ZM10.1803 17.4614C10.146 15.3729 10.3174 13.6268 10.0775 11.6753C8.39791 12.6681 6.88972 13.5241 5.17586 14.517C6.924 15.5441 8.39791 16.4343 10.1803 17.4614ZM10.2146 41.1197C10.1118 39.0654 10.3517 37.2851 10.0432 35.3678C8.32936 36.3607 6.78688 37.2851 5.1073 38.2437C6.82116 39.2024 8.32936 40.0926 10.2146 41.1197ZM5.1073 26.3632C6.71833 27.2877 8.08942 28.0751 9.46051 28.8626C9.59762 28.9311 9.769 28.9311 10.1118 28.9995C10.2146 28.0751 10.1461 27.1849 10.1461 26.2948C10.1461 25.4046 10.1461 24.5144 10.1461 23.453C8.43219 24.4802 6.85544 25.3703 5.1073 26.3632ZM25.7079 26.3975C27.4218 27.3561 28.93 28.2121 30.4724 29.1023C30.8495 27.5273 30.8152 25.0622 30.4382 23.7269C28.8271 24.4117 27.3875 25.4046 25.7079 26.3975ZM15.5618 32.3891C17.2757 33.3477 18.7496 34.2379 20.4635 35.1966C20.4635 34.0667 20.4978 33.1765 20.4635 32.2864C20.4292 31.4304 20.6006 30.5402 20.2921 29.4789C18.8182 30.3006 17.5156 31.0538 16.2131 31.807C16.0417 31.944 15.9046 32.1152 15.5618 32.3891Z" fill="black"/>
</g>
<defs>
<clipPath id="clip0">
<rect width="53" height="46" fill="white" transform="translate(46) rotate(90)"/>
</clipPath>
</defs>
</svg>
