<svg width="47" height="53" viewBox="0 0 47 53" fill="none" xmlns="http://www.w3.org/2000/svg">
<g clip-path="url(#clip0)">
<path d="M36.7385 26.5341C24.4456 33.4486 12.3979 40.1928 0.385246 46.937C0.245155 46.8689 0.210136 46.8689 0.175114 46.8348C0.140091 46.8008 0.0700455 46.7326 0.0700455 46.6986C0.0350227 46.2898 0 45.9152 0 45.5064C0 30.4171 0 15.3278 0 0C15.7951 8.85604 31.38 17.6099 47 26.3638C46.1595 27.2834 38.9449 31.4389 31.6252 35.3901C26.3368 38.2513 21.1185 41.2828 15.8651 44.2121C10.6818 47.1414 5.46349 50.0366 0.175114 53C-0.105064 51.9441 0.0350266 50.9563 0.105068 49.9344C13.9039 42.2024 27.6326 34.4704 41.4314 26.7384C40.5909 25.8188 19.1572 13.6247 2.9769 4.83676C2.45156 5.21144 2.6617 5.75643 2.62668 6.23329C2.59166 7.52763 2.62668 8.82198 2.62668 10.1163C2.62668 19.9942 2.62668 29.8721 2.62668 39.75C2.62668 40.5675 2.69672 41.419 2.76677 42.4749C12.2578 37.1613 21.5738 31.9158 31.1349 26.5341C23.3949 22.1742 15.8651 17.9505 8.3003 13.6928C8.02012 14.919 7.95008 31.0643 8.23026 33.4826C12.3279 31.2005 16.3554 28.9184 20.5931 26.5341C18.1066 25.1375 15.8301 23.8772 13.3785 22.4807C13.3785 24.32 13.3785 26.0231 13.3785 27.7603C12.468 28.2712 11.6624 28.7481 10.7869 29.259C10.4367 27.8284 10.4367 19.3811 10.7869 17.9165C15.8301 20.7436 20.8383 23.5707 25.8815 26.3638C24.7958 27.4197 12.7131 34.3682 5.56855 38.0469C5.53353 38.0128 5.46349 38.0129 5.42847 37.9788C5.39344 37.9447 5.3234 37.8766 5.3234 37.8425C5.28838 28.8162 5.28838 19.7898 5.25335 10.7635C5.25335 10.2526 5.25335 9.77571 5.25335 9.23072C6.47914 9.46915 13.3435 13.2159 20.9784 17.678C26.0917 20.6414 31.275 23.4685 36.7385 26.5341Z" fill="black"/>
</g>
<defs>
<clipPath id="clip0">
<rect width="53" height="47" fill="white" transform="translate(47) rotate(90)"/>
</clipPath>
</defs>
</svg>
