<svg width="43" height="50" viewBox="0 0 43 50" fill="none" xmlns="http://www.w3.org/2000/svg">
<g clip-path="url(#clip0)">
<path d="M26.253 30.5732C27.5289 31.3464 28.5178 31.9263 29.6343 32.6029C28.6454 33.5372 27.5608 33.9882 26.4444 34.6325C26.1573 33.2794 26.3806 32.0874 26.253 30.5732Z" fill="black"/>
<path d="M26.4125 19.2332C26.2849 17.8479 26.2211 16.7203 26.4763 15.3672C27.5608 15.9793 28.5497 16.527 29.6343 17.1391C28.6773 18.1056 27.6246 18.5566 26.4125 19.2332Z" fill="black"/>
<path d="M16.6512 24.9676C15.4072 25.7086 14.4183 26.2885 13.3337 26.9006C12.9829 25.5475 13.238 24.3555 13.1423 22.938C14.3226 23.6468 15.3434 24.2266 16.6512 24.9676Z" fill="black"/>
<path d="M13.2062 11.5979C13.1424 10.1159 13.1743 8.98833 13.1743 7.5708C14.4184 8.31178 15.3754 8.85946 16.5875 9.56822C15.4073 10.277 14.4503 10.8569 13.2062 11.5979Z" fill="black"/>
<path d="M16.5875 40.3673C15.4073 41.076 14.4184 41.6559 13.3019 42.3003C12.9829 40.9794 13.2381 39.8196 13.1105 38.3376C14.3546 39.0786 15.3754 39.6585 16.5875 40.3673Z" fill="black"/>
<path d="M43 24.9679C41.7878 25.6767 40.8628 26.2566 39.7782 26.9009C39.3954 25.58 39.5549 24.388 39.6825 23.0671C40.7671 23.6793 41.7559 24.2269 43 24.9679Z" fill="black"/>
<path d="M3.44513 1.86856C2.20107 2.64175 1.2122 3.22165 0.127628 3.86598C0.127628 2.57732 0.127628 1.38531 0.127628 0C1.2441 0.612113 2.20107 1.15979 3.44513 1.86856Z" fill="black"/>
<path d="M3.41315 17.3326C2.23288 18.0092 1.27592 18.5569 0.127552 19.2012C0.127552 17.8481 0.127552 16.6561 0.127552 15.3352C1.21212 15.9795 2.23288 16.5916 3.41315 17.3326Z" fill="black"/>
<path d="M-6.48499e-05 30.7024C1.2759 31.4112 2.26478 31.9911 3.41315 32.6676C2.26478 33.3764 1.2759 33.9563 0.191332 34.5684C-0.159559 33.2797 0.127532 32.0877 -6.48499e-05 30.7024Z" fill="black"/>
<path d="M0.0956497 50.0002C0.0956497 48.6149 0.0956497 47.4874 0.0956497 46.1021C1.21212 46.7464 2.20099 47.3263 3.38126 48.0028C2.26479 48.7116 1.27592 49.2915 0.0956497 50.0002Z" fill="black"/>
</g>
<defs>
<clipPath id="clip0">
<rect width="50" height="43" fill="white" transform="translate(43) rotate(90)"/>
</clipPath>
</defs>
</svg>
