<svg width="25" height="20" viewBox="0 0 25 20" fill="none" xmlns="http://www.w3.org/2000/svg">
<path fill-rule="evenodd" clip-rule="evenodd" d="M0 1.66667C0 1.22464 0.188137 0.800716 0.523023 0.488156C0.85791 0.175595 1.31211 0 1.78571 0H23.2143C23.6879 0 24.1421 0.175595 24.477 0.488156C24.8119 0.800716 25 1.22464 25 1.66667C25 2.10869 24.8119 2.53262 24.477 2.84518C24.1421 3.15774 23.6879 3.33333 23.2143 3.33333H1.78571C1.31211 3.33333 0.85791 3.15774 0.523023 2.84518C0.188137 2.53262 0 2.10869 0 1.66667ZM0 10C0 9.55797 0.188137 9.13405 0.523023 8.82149C0.85791 8.50893 1.31211 8.33333 1.78571 8.33333H23.2143C23.6879 8.33333 24.1421 8.50893 24.477 8.82149C24.8119 9.13405 25 9.55797 25 10C25 10.442 24.8119 10.8659 24.477 11.1785C24.1421 11.4911 23.6879 11.6667 23.2143 11.6667H1.78571C1.31211 11.6667 0.85791 11.4911 0.523023 11.1785C0.188137 10.8659 0 10.442 0 10ZM10.7143 18.3333C10.7143 17.8913 10.9024 17.4674 11.2373 17.1548C11.5722 16.8423 12.0264 16.6667 12.5 16.6667H23.2143C23.6879 16.6667 24.1421 16.8423 24.477 17.1548C24.8119 17.4674 25 17.8913 25 18.3333C25 18.7754 24.8119 19.1993 24.477 19.5118C24.1421 19.8244 23.6879 20 23.2143 20H12.5C12.0264 20 11.5722 19.8244 11.2373 19.5118C10.9024 19.1993 10.7143 18.7754 10.7143 18.3333Z" fill="black"/>
</svg>
