<svg width="36" height="41" viewBox="0 0 36 41" fill="none" xmlns="http://www.w3.org/2000/svg">
<g clip-path="url(#clip0)">
<path d="M17.9598 10.336C18.4148 10.4946 18.8698 10.6268 19.2981 10.8647C24.7583 13.9575 30.1918 17.0504 35.6252 20.1432C35.7323 20.1961 35.8126 20.3018 36.0267 20.5133C35.4914 20.8305 35.0096 21.1477 34.5278 21.4121C29.4423 24.3199 24.3568 27.2277 19.2713 30.1091C18.8698 30.347 18.3881 30.4791 17.933 30.6642L17.9598 30.6906C17.9598 23.8969 17.9598 17.1033 17.9598 10.3096V10.336Z" fill="black"/>
<path d="M17.9597 30.6639C17.7723 30.849 17.6118 31.0604 17.3976 31.1926C14.5604 32.8316 11.6965 34.4441 8.83257 36.083C5.99539 37.6955 3.13145 39.3345 0.187208 40.9998C0.106911 40.7619 0.0266151 40.5769 0.0266151 40.3919C0.0266151 33.9947 0.0266151 27.624 0.0266151 21.2268C0.0266151 21.0682 0.0801449 20.8831 0.106911 20.5659C3.18498 22.2313 6.10245 23.976 9.07346 25.6414C12.0445 27.3067 15.0155 29.025 17.9865 30.7168L17.9597 30.6639Z" fill="black"/>
<path d="M17.9598 10.3095C14.5338 12.2392 11.1078 14.1689 7.68173 16.1251C5.24604 17.4997 2.83712 18.9007 0.4282 20.2753C0.347902 20.3017 0.267603 20.3017 0.187305 20.3017C-0.0268211 19.2179 -0.0268192 1.11025 0.214073 0C1.41853 0.687298 2.62299 1.34816 3.80069 2.03546C7.81556 4.30883 11.8037 6.5822 15.8185 8.90845C16.568 9.3314 17.4513 9.56931 17.9598 10.3623V10.3095Z" fill="black"/>
</g>
<defs>
<clipPath id="clip0">
<rect width="41" height="36" fill="white" transform="translate(36) rotate(90)"/>
</clipPath>
</defs>
</svg>
