<svg width="20" height="23" viewBox="0 0 20 23" fill="none" xmlns="http://www.w3.org/2000/svg">
<g clip-path="url(#clip0)">
<path d="M9.97747 5.79803C10.2303 5.88701 10.483 5.96115 10.721 6.09461C13.7544 7.82962 16.773 9.56463 19.7916 11.2996C19.8511 11.3293 19.8957 11.3886 20.0146 11.5073C19.7173 11.6852 19.4496 11.8632 19.1819 12.0114C16.3567 13.6426 13.5314 15.2739 10.7061 16.8902C10.483 17.0237 10.2154 17.0978 9.9626 17.2016L9.97747 17.2165C9.97747 13.4054 9.97747 9.59429 9.97747 5.7832V5.79803Z" fill="white"/>
<path d="M9.97732 17.2018C9.87323 17.3057 9.78401 17.4243 9.66505 17.4984C8.08884 18.4178 6.49776 19.3224 4.90668 20.2418C3.33047 21.1464 1.73939 22.0658 0.103706 23C0.0590963 22.8666 0.0144879 22.7628 0.0144879 22.659C0.0144879 19.0703 0.0144879 15.4965 0.0144879 11.9078C0.0144879 11.8189 0.0442259 11.7151 0.0590958 11.5371C1.76913 12.4713 3.38995 13.4501 5.04051 14.3843C6.69107 15.3185 8.34163 16.2824 9.99219 17.2315L9.97732 17.2018Z" fill="white"/>
<path d="M9.97754 5.78336C8.07419 6.86589 6.17085 7.94842 4.2675 9.04578C2.91434 9.81689 1.57605 10.6028 0.23776 11.374C0.19315 11.3888 0.148539 11.3888 0.103929 11.3888C-0.01503 10.7808 -0.0150291 0.622824 0.1188 0C0.787945 0.385558 1.45709 0.756286 2.11136 1.14184C4.34185 2.41715 6.55746 3.69246 8.78795 4.99742C9.2043 5.23469 9.69501 5.36815 9.97754 5.81302V5.78336Z" fill="white"/>
</g>
<defs>
<clipPath id="clip0">
<rect width="23" height="20" fill="white" transform="translate(20) rotate(90)"/>
</clipPath>
</defs>
</svg>
