<svg width="407" height="438" viewBox="0 0 407 438" fill="none" xmlns="http://www.w3.org/2000/svg">
<path d="M93.1356 402.78C92.907 402.846 92.6453 402.798 92.4408 402.733L92.3671 402.692C92.146 402.571 91.9655 402.375 91.8993 402.147C91.833 401.918 91.8645 401.599 91.9863 401.378C92.1081 401.157 92.3035 400.977 92.5892 400.894C92.8178 400.828 93.1366 400.859 93.3577 400.981C93.7262 401.184 93.9414 401.927 93.7385 402.295C93.6167 402.516 93.4213 402.697 93.1356 402.78Z" fill="#231F20"/>
<path d="M153.535 385.281C153.021 385.43 152.448 385.162 152.282 384.591C152.117 384.019 152.401 383.503 152.972 383.338C153.544 383.172 154.059 383.456 154.225 384.028C154.391 384.599 154.049 385.132 153.535 385.281ZM138.449 389.651C137.935 389.8 137.362 389.533 137.197 388.961C137.031 388.39 137.315 387.874 137.887 387.708C138.458 387.543 138.974 387.827 139.139 388.398C139.305 388.97 138.964 389.502 138.449 389.651ZM123.307 394.039C122.792 394.188 122.277 393.903 122.111 393.332C121.945 392.76 122.23 392.245 122.744 392.096C123.258 391.947 123.831 392.214 123.997 392.786C124.162 393.357 123.878 393.873 123.307 394.039ZM108.221 398.409C107.707 398.558 107.134 398.291 106.968 397.719C106.803 397.148 107.087 396.632 107.658 396.466C108.23 396.301 108.746 396.585 108.911 397.156C109.077 397.728 108.793 398.244 108.221 398.409Z" fill="#231F20"/>
<path d="M88.1024 385.407C87.8738 385.473 87.555 385.442 87.3339 385.32C87.1128 385.198 86.9323 385.002 86.8495 384.717C86.7833 384.488 86.8148 384.169 86.9531 384.005C87.0748 383.784 87.3274 383.587 87.556 383.521C87.7846 383.455 88.1034 383.486 88.3245 383.608C88.693 383.811 88.9082 384.554 88.7219 384.98C88.5836 385.144 88.3881 385.324 88.1024 385.407Z" fill="#231F20"/>
<path d="M178.673 359.167C178.159 359.316 177.586 359.048 177.42 358.477C177.271 357.963 177.539 357.39 178.11 357.224C178.682 357.058 179.197 357.343 179.363 357.914C179.455 358.445 179.187 359.018 178.673 359.167ZM163.587 363.538C163.073 363.687 162.5 363.419 162.335 362.848C162.186 362.333 162.453 361.76 163.025 361.595C163.596 361.429 164.112 361.713 164.277 362.285C164.369 362.816 164.102 363.389 163.587 363.538ZM148.502 367.908C147.988 368.057 147.415 367.79 147.249 367.218C147.1 366.704 147.368 366.131 147.939 365.965C148.51 365.8 149.026 366.084 149.192 366.655C149.284 367.186 149.016 367.759 148.502 367.908ZM133.416 372.279C132.902 372.428 132.329 372.16 132.163 371.589C132.014 371.074 132.282 370.501 132.853 370.336C133.425 370.17 133.941 370.454 134.106 371.026C134.198 371.557 133.931 372.13 133.416 372.279ZM118.274 376.666C117.759 376.815 117.243 376.531 117.078 375.959C116.929 375.445 117.196 374.872 117.711 374.723C118.225 374.574 118.798 374.841 118.963 375.413C119.112 375.927 118.845 376.5 118.274 376.666ZM103.188 381.036C102.674 381.185 102.101 380.918 101.935 380.346C101.786 379.832 102.054 379.259 102.625 379.093C103.196 378.928 103.712 379.212 103.878 379.783C104.027 380.298 103.759 380.871 103.188 381.036Z" fill="#231F20"/>
<path d="M83.0691 368.034C82.8406 368.1 82.5217 368.069 82.3006 367.947C82.0795 367.825 81.899 367.63 81.8162 367.344C81.75 367.115 81.7815 366.796 81.9033 366.575C82.025 366.354 82.2205 366.174 82.5062 366.091C82.7348 366.025 83.0536 366.056 83.2747 366.178C83.4958 366.3 83.6192 366.512 83.702 366.798C83.7847 367.083 83.7367 367.345 83.6721 367.55C83.5503 367.771 83.3548 367.951 83.0691 368.034Z" fill="#231F20"/>
<path d="M203.811 333.053C203.297 333.202 202.724 332.934 202.558 332.363C202.393 331.791 202.677 331.276 203.248 331.11C203.82 330.944 204.335 331.229 204.501 331.8C204.667 332.371 204.325 332.904 203.811 333.053ZM188.725 337.423C188.211 337.572 187.638 337.305 187.473 336.733C187.307 336.162 187.591 335.646 188.163 335.481C188.734 335.315 189.25 335.599 189.415 336.171C189.581 336.742 189.24 337.274 188.725 337.423ZM173.64 341.794C173.126 341.943 172.553 341.675 172.387 341.104C172.221 340.533 172.506 340.017 173.077 339.851C173.648 339.686 174.164 339.97 174.33 340.541C174.495 341.113 174.154 341.645 173.64 341.794ZM158.554 346.165C158.04 346.314 157.467 346.046 157.301 345.475C157.136 344.903 157.42 344.387 157.991 344.222C158.563 344.056 159.079 344.34 159.244 344.912C159.41 345.483 159.069 346.016 158.554 346.165ZM143.469 350.535C142.954 350.684 142.381 350.417 142.216 349.845C142.05 349.274 142.334 348.758 142.906 348.592C143.477 348.427 143.993 348.711 144.159 349.282C144.324 349.854 143.983 350.386 143.469 350.535ZM128.383 354.906C127.869 355.055 127.296 354.787 127.13 354.216C126.965 353.644 127.249 353.128 127.82 352.963C128.392 352.797 128.907 353.081 129.073 353.653C129.239 354.224 128.897 354.757 128.383 354.906ZM113.24 359.293C112.726 359.442 112.21 359.158 112.045 358.586C111.879 358.015 112.163 357.499 112.677 357.35C113.192 357.201 113.765 357.468 113.93 358.04C114.096 358.611 113.812 359.127 113.24 359.293ZM98.1547 363.663C97.6404 363.812 97.0674 363.545 96.9018 362.973C96.7363 362.402 97.0204 361.886 97.5918 361.72C98.1632 361.555 98.6791 361.839 98.8447 362.41C99.0102 362.982 98.7261 363.498 98.1547 363.663Z" fill="#231F20"/>
<path d="M78.0194 350.604C77.7908 350.67 77.472 350.639 77.2509 350.517C77.0298 350.395 76.9064 350.183 76.8402 349.955C76.774 349.726 76.8055 349.407 76.9272 349.186C77.049 348.965 77.2444 348.784 77.5301 348.702C77.7587 348.635 78.0204 348.683 78.2415 348.805C78.4626 348.927 78.586 349.139 78.6688 349.425C78.7515 349.711 78.7606 349.956 78.6389 350.177C78.5171 350.398 78.3051 350.521 78.0194 350.604Z" fill="#231F20"/>
<path d="M228.933 306.882C228.418 307.031 227.845 306.763 227.68 306.192C227.531 305.678 227.798 305.104 228.37 304.939C228.941 304.773 229.457 305.058 229.623 305.629C229.788 306.2 229.447 306.733 228.933 306.882ZM213.847 311.253C213.333 311.402 212.76 311.134 212.594 310.562C212.445 310.048 212.713 309.475 213.284 309.309C213.855 309.144 214.371 309.428 214.537 310C214.703 310.571 214.361 311.104 213.847 311.253ZM198.761 315.623C198.247 315.772 197.674 315.504 197.509 314.933C197.359 314.419 197.627 313.846 198.198 313.68C198.77 313.514 199.286 313.799 199.451 314.37C199.56 314.958 199.276 315.474 198.761 315.623ZM183.676 319.994C183.162 320.143 182.588 319.875 182.423 319.304C182.274 318.789 182.541 318.216 183.113 318.051C183.684 317.885 184.2 318.169 184.366 318.741C184.474 319.329 184.19 319.845 183.676 319.994ZM168.59 324.364C168.076 324.513 167.503 324.246 167.337 323.674C167.188 323.16 167.456 322.587 168.027 322.421C168.599 322.256 169.115 322.54 169.28 323.111C169.389 323.699 169.104 324.215 168.59 324.364ZM153.505 328.735C152.99 328.884 152.417 328.616 152.252 328.045C152.103 327.53 152.37 326.957 152.942 326.792C153.513 326.626 154.029 326.91 154.195 327.482C154.303 328.07 154.019 328.586 153.505 328.735ZM138.419 333.105C137.905 333.254 137.332 332.987 137.166 332.415C137.017 331.901 137.285 331.328 137.856 331.162C138.427 330.997 138.943 331.281 139.109 331.852C139.217 332.44 138.933 332.956 138.419 333.105ZM123.333 337.476C122.819 337.625 122.246 337.357 122.08 336.786C121.931 336.271 122.199 335.698 122.77 335.533C123.342 335.367 123.858 335.651 124.023 336.223C124.132 336.811 123.848 337.327 123.333 337.476ZM108.191 341.863C107.676 342.012 107.103 341.744 106.938 341.173C106.789 340.659 107.056 340.085 107.628 339.92C108.142 339.771 108.715 340.039 108.881 340.61C109.046 341.181 108.762 341.697 108.191 341.863ZM93.105 346.234C92.5907 346.383 92.0177 346.115 91.8521 345.543C91.7031 345.029 91.9707 344.456 92.5421 344.29C93.1135 344.125 93.6294 344.409 93.795 344.981C93.9606 345.552 93.6765 346.068 93.105 346.234Z" fill="#231F20"/>
<path d="M103.218 437.582C102.99 437.649 102.671 437.617 102.45 437.495C102.229 437.374 102.048 437.178 101.966 436.892C101.899 436.664 101.947 436.402 102.069 436.181C102.191 435.96 102.444 435.763 102.672 435.697C102.901 435.63 103.219 435.662 103.441 435.784C103.809 435.987 104.024 436.73 103.838 437.155C103.7 437.319 103.504 437.5 103.218 437.582Z" fill="#231F20"/>
<path d="M98.1688 420.152C97.9402 420.219 97.6214 420.187 97.4003 420.065C97.1792 419.944 96.9986 419.748 96.9159 419.462C96.8496 419.234 96.8811 418.915 97.0029 418.694C97.1247 418.473 97.3201 418.292 97.6058 418.209C97.8344 418.143 98.1532 418.175 98.3743 418.296C98.5954 418.418 98.7188 418.63 98.8016 418.916C98.8844 419.202 98.8363 419.463 98.7717 419.668C98.6665 419.946 98.4545 420.07 98.1688 420.152Z" fill="#231F20"/>
<path d="M128.34 411.411C127.826 411.56 127.31 411.276 127.144 410.705C126.995 410.19 127.263 409.617 127.777 409.468C128.291 409.319 128.864 409.587 129.03 410.158C129.195 410.73 128.911 411.246 128.34 411.411ZM113.254 415.782C112.74 415.931 112.167 415.663 112.001 415.092C111.852 414.578 112.12 414.004 112.691 413.839C113.263 413.673 113.779 413.958 113.944 414.529C114.11 415.1 113.826 415.616 113.254 415.782Z" fill="#231F20"/>
<path d="M72.9862 333.231C72.7576 333.298 72.4388 333.266 72.2177 333.144C71.9966 333.022 71.8161 332.827 71.7333 332.541C71.6671 332.313 71.6986 331.994 71.8203 331.773C71.9421 331.552 72.1541 331.428 72.4398 331.345C72.6684 331.279 72.9872 331.311 73.2083 331.432C73.4294 331.554 73.5528 331.766 73.6356 332.052C73.7183 332.338 73.6703 332.599 73.5891 332.747C73.4673 332.968 73.2719 333.149 72.9862 333.231Z" fill="#231F20"/>
<path d="M254.071 280.768C253.556 280.917 252.983 280.649 252.818 280.078C252.669 279.564 252.936 278.991 253.508 278.825C254.079 278.659 254.595 278.944 254.761 279.515C254.926 280.087 254.585 280.619 254.071 280.768ZM238.985 285.139C238.471 285.288 237.898 285.02 237.732 284.448C237.583 283.934 237.851 283.361 238.422 283.196C238.936 283.047 239.509 283.314 239.675 283.886C239.841 284.457 239.499 284.99 238.985 285.139ZM223.899 289.509C223.385 289.658 222.812 289.391 222.647 288.819C222.498 288.305 222.765 287.732 223.337 287.566C223.908 287.401 224.424 287.685 224.589 288.256C224.755 288.828 224.414 289.36 223.899 289.509ZM208.814 293.88C208.3 294.029 207.727 293.761 207.561 293.19C207.412 292.675 207.679 292.102 208.251 291.937C208.822 291.771 209.338 292.055 209.504 292.627C209.669 293.198 209.328 293.731 208.814 293.88ZM193.728 298.25C193.214 298.399 192.641 298.132 192.475 297.56C192.326 297.046 192.594 296.473 193.165 296.307C193.737 296.142 194.253 296.426 194.418 296.997C194.527 297.585 194.242 298.101 193.728 298.25ZM178.643 302.621C178.128 302.77 177.555 302.502 177.39 301.931C177.241 301.416 177.508 300.843 178.08 300.678C178.651 300.512 179.167 300.796 179.333 301.368C179.441 301.956 179.157 302.472 178.643 302.621ZM163.557 306.991C163.043 307.14 162.47 306.873 162.304 306.301C162.155 305.787 162.423 305.214 162.994 305.048C163.566 304.883 164.081 305.167 164.247 305.738C164.355 306.326 164.071 306.842 163.557 306.991ZM148.471 311.362C147.957 311.511 147.384 311.243 147.219 310.672C147.069 310.158 147.337 309.584 147.908 309.419C148.48 309.253 148.996 309.537 149.161 310.109C149.27 310.697 148.986 311.213 148.471 311.362ZM133.386 315.732C132.872 315.881 132.298 315.614 132.133 315.042C131.984 314.528 132.251 313.955 132.823 313.789C133.394 313.624 133.91 313.908 134.076 314.48C134.184 315.068 133.9 315.583 133.386 315.732ZM118.3 320.103C117.786 320.252 117.213 319.984 117.047 319.413C116.898 318.899 117.166 318.326 117.737 318.16C118.309 317.994 118.825 318.279 118.99 318.85C119.099 319.438 118.814 319.954 118.3 320.103ZM103.157 324.49C102.643 324.639 102.07 324.372 101.905 323.8C101.756 323.286 102.023 322.713 102.595 322.547C103.109 322.398 103.682 322.666 103.847 323.237C104.013 323.809 103.729 324.325 103.157 324.49ZM88.0718 328.861C87.5575 329.01 86.9845 328.742 86.8189 328.171C86.6699 327.656 86.9375 327.083 87.5089 326.918C88.0803 326.752 88.5962 327.036 88.7618 327.608C88.9274 328.179 88.6432 328.695 88.0718 328.861Z" fill="#231F20"/>
<path d="M67.9529 315.858C67.7243 315.925 67.4055 315.893 67.1844 315.771C66.9633 315.65 66.7828 315.454 66.7 315.168C66.6338 314.94 66.6653 314.621 66.7871 314.4C66.9088 314.179 67.1043 313.998 67.39 313.915C67.6186 313.849 67.9374 313.881 68.1585 314.003C68.3059 314.084 68.503 314.336 68.5857 314.622C68.6685 314.908 68.6776 315.153 68.5558 315.374C68.4341 315.595 68.2386 315.776 67.9529 315.858Z" fill="#231F20"/>
<path d="M279.209 254.654C278.694 254.803 278.121 254.535 277.956 253.964C277.79 253.393 278.074 252.877 278.646 252.711C279.217 252.546 279.733 252.83 279.899 253.401C280.064 253.973 279.723 254.505 279.209 254.654ZM264.123 259.025C263.609 259.174 263.036 258.906 262.87 258.335C262.705 257.763 262.989 257.247 263.56 257.082C264.131 256.916 264.647 257.2 264.813 257.772C264.979 258.343 264.637 258.876 264.123 259.025ZM249.037 263.395C248.523 263.544 247.95 263.277 247.785 262.705C247.619 262.134 247.903 261.618 248.474 261.452C249.046 261.287 249.562 261.571 249.727 262.142C249.893 262.714 249.552 263.246 249.037 263.395ZM233.952 267.766C233.437 267.915 232.864 267.647 232.699 267.076C232.533 266.504 232.817 265.988 233.389 265.823C233.903 265.674 234.476 265.941 234.642 266.513C234.807 267.084 234.466 267.617 233.952 267.766ZM218.866 272.136C218.352 272.285 217.779 272.018 217.613 271.446C217.448 270.875 217.732 270.359 218.303 270.193C218.875 270.028 219.391 270.312 219.556 270.883C219.722 271.455 219.38 271.987 218.866 272.136ZM203.781 276.507C203.266 276.656 202.693 276.388 202.528 275.817C202.362 275.245 202.646 274.729 203.218 274.564C203.789 274.398 204.305 274.682 204.471 275.254C204.636 275.825 204.295 276.358 203.781 276.507ZM188.695 280.877C188.181 281.026 187.608 280.759 187.442 280.187C187.277 279.616 187.561 279.1 188.132 278.934C188.703 278.769 189.219 279.053 189.385 279.624C189.551 280.196 189.209 280.728 188.695 280.877ZM173.609 285.248C173.095 285.397 172.522 285.129 172.357 284.558C172.191 283.986 172.475 283.471 173.046 283.305C173.618 283.139 174.134 283.424 174.299 283.995C174.465 284.566 174.124 285.099 173.609 285.248ZM158.524 289.619C158.009 289.768 157.436 289.5 157.271 288.928C157.105 288.357 157.389 287.841 157.961 287.676C158.532 287.51 159.048 287.794 159.214 288.366C159.379 288.937 159.038 289.47 158.524 289.619ZM143.438 293.989C142.924 294.138 142.351 293.87 142.185 293.299C142.02 292.728 142.304 292.212 142.875 292.046C143.447 291.881 143.963 292.165 144.128 292.736C144.294 293.308 143.952 293.84 143.438 293.989ZM128.353 298.36C127.838 298.509 127.265 298.241 127.1 297.67C126.934 297.098 127.218 296.582 127.79 296.417C128.361 296.251 128.877 296.535 129.043 297.107C129.208 297.678 128.867 298.211 128.353 298.36ZM113.267 302.73C112.753 302.879 112.18 302.612 112.014 302.04C111.849 301.469 112.133 300.953 112.704 300.787C113.275 300.622 113.791 300.906 113.957 301.477C114.122 302.049 113.781 302.581 113.267 302.73ZM98.1814 307.101C97.6671 307.25 97.094 306.982 96.9285 306.411C96.7629 305.839 97.047 305.323 97.6184 305.158C98.1327 305.009 98.7058 305.276 98.8713 305.848C99.0369 306.419 98.6956 306.952 98.1814 307.101ZM83.0386 311.488C82.5243 311.637 81.9513 311.369 81.7857 310.798C81.6202 310.226 81.9043 309.71 82.4757 309.545C83.0471 309.379 83.563 309.663 83.7286 310.235C83.8941 310.806 83.61 311.322 83.0386 311.488Z" fill="#231F20"/>
<path d="M62.9197 298.486C62.6912 298.552 62.3723 298.52 62.1512 298.399C61.9301 298.277 61.7496 298.081 61.6668 297.796C61.6006 297.567 61.6321 297.248 61.7539 297.027C61.8756 296.806 62.0711 296.625 62.3568 296.543C62.5854 296.476 62.9042 296.508 63.1253 296.63C63.2727 296.711 63.4698 296.963 63.5525 297.249C63.6353 297.535 63.6444 297.78 63.5227 298.001C63.4009 298.222 63.2054 298.403 62.9197 298.486Z" fill="#231F20"/>
<path d="M304.347 228.54C303.832 228.689 303.259 228.422 303.094 227.85C302.945 227.336 303.212 226.763 303.784 226.597C304.355 226.432 304.871 226.716 305.037 227.287C305.186 227.802 304.918 228.375 304.347 228.54ZM289.261 232.911C288.747 233.06 288.174 232.792 288.008 232.221C287.859 231.706 288.184 231.117 288.698 230.968C289.212 230.819 289.728 231.103 289.894 231.674C290.1 232.172 289.775 232.762 289.261 232.911ZM274.175 237.281C273.661 237.43 273.088 237.163 272.923 236.591C272.774 236.077 273.041 235.504 273.612 235.338C274.184 235.173 274.7 235.457 274.865 236.028C275.014 236.543 274.69 237.132 274.175 237.281ZM259.09 241.652C258.576 241.801 258.003 241.533 257.837 240.962C257.688 240.447 257.955 239.874 258.527 239.709C259.098 239.543 259.614 239.827 259.78 240.399C259.929 240.913 259.604 241.503 259.09 241.652ZM244.004 246.022C243.49 246.171 242.917 245.904 242.751 245.332C242.602 244.818 242.87 244.245 243.441 244.079C244.013 243.914 244.529 244.198 244.694 244.769C244.843 245.284 244.518 245.873 244.004 246.022ZM228.919 250.393C228.404 250.542 227.831 250.274 227.666 249.703C227.517 249.189 227.784 248.616 228.356 248.45C228.87 248.301 229.443 248.569 229.609 249.14C229.758 249.654 229.433 250.244 228.919 250.393ZM213.833 254.764C213.319 254.913 212.746 254.645 212.58 254.073C212.431 253.559 212.699 252.986 213.27 252.821C213.841 252.655 214.357 252.939 214.523 253.511C214.672 254.025 214.347 254.615 213.833 254.764ZM198.747 259.134C198.233 259.283 197.66 259.016 197.495 258.444C197.346 257.93 197.613 257.357 198.184 257.191C198.756 257.026 199.272 257.31 199.437 257.881C199.586 258.395 199.262 258.985 198.747 259.134ZM183.662 263.505C183.148 263.654 182.574 263.386 182.409 262.815C182.26 262.3 182.527 261.727 183.099 261.562C183.67 261.396 184.186 261.68 184.352 262.252C184.444 262.783 184.176 263.356 183.662 263.505ZM168.576 267.875C168.062 268.024 167.489 267.757 167.323 267.185C167.174 266.671 167.442 266.098 168.013 265.932C168.585 265.767 169.101 266.051 169.266 266.622C169.358 267.153 169.09 267.726 168.576 267.875ZM153.491 272.246C152.976 272.395 152.403 272.127 152.238 271.556C152.089 271.041 152.356 270.468 152.928 270.303C153.499 270.137 154.015 270.421 154.181 270.993C154.272 271.524 154.005 272.097 153.491 272.246ZM138.405 276.616C137.891 276.765 137.318 276.498 137.152 275.926C137.003 275.412 137.271 274.839 137.842 274.673C138.413 274.508 138.929 274.792 139.095 275.363C139.187 275.894 138.919 276.467 138.405 276.616ZM123.319 280.987C122.805 281.136 122.232 280.868 122.066 280.297C121.917 279.782 122.185 279.209 122.756 279.044C123.328 278.878 123.844 279.162 124.009 279.734C124.101 280.265 123.834 280.838 123.319 280.987ZM108.234 285.357C107.719 285.506 107.146 285.239 106.981 284.667C106.832 284.153 107.099 283.58 107.671 283.414C108.242 283.249 108.758 283.533 108.924 284.104C109.016 284.635 108.748 285.208 108.234 285.357ZM93.1482 289.728C92.6339 289.877 92.0609 289.609 91.8953 289.038C91.7463 288.524 92.071 287.934 92.5852 287.785C93.0995 287.636 93.6154 287.92 93.781 288.492C93.93 289.006 93.6625 289.579 93.1482 289.728ZM78.0054 294.115C77.4911 294.264 76.9181 293.997 76.7525 293.425C76.6035 292.911 76.8711 292.338 77.4425 292.172C78.0139 292.007 78.5298 292.291 78.6954 292.862C78.8444 293.376 78.5768 293.95 78.0054 294.115Z" fill="#231F20"/>
<path d="M57.8701 281.056C57.6415 281.122 57.3798 281.074 57.1587 280.952C56.9376 280.83 56.7406 280.578 56.6743 280.349C56.6081 280.12 56.6562 279.859 56.7779 279.638C56.8997 279.417 57.1523 279.219 57.3809 279.153C57.6094 279.087 57.9282 279.119 58.1493 279.24C58.2967 279.322 58.4938 279.574 58.5766 279.86C58.6594 280.146 58.6113 280.407 58.5467 280.612C58.3678 280.849 58.1558 280.973 57.8701 281.056Z" fill="#231F20"/>
<path d="M329.525 202.352C329.011 202.501 328.438 202.234 328.272 201.662C328.107 201.091 328.391 200.575 328.962 200.409C329.477 200.26 330.05 200.528 330.215 201.1C330.381 201.671 330.039 202.203 329.525 202.352ZM314.44 206.723C313.925 206.872 313.352 206.604 313.187 206.033C313.021 205.461 313.305 204.946 313.877 204.78C314.391 204.631 314.964 204.899 315.13 205.47C315.295 206.042 314.954 206.574 314.44 206.723ZM299.297 211.11C298.783 211.259 298.209 210.992 298.044 210.42C297.878 209.849 298.162 209.333 298.734 209.167C299.305 209.002 299.821 209.286 299.987 209.857C300.152 210.429 299.868 210.945 299.297 211.11ZM284.211 215.481C283.697 215.63 283.124 215.362 282.958 214.791C282.793 214.219 283.077 213.703 283.648 213.538C284.163 213.389 284.678 213.673 284.844 214.244C285.01 214.816 284.725 215.332 284.211 215.481ZM269.126 219.851C268.611 220 268.038 219.733 267.873 219.161C267.707 218.59 267.991 218.074 268.563 217.908C269.134 217.743 269.65 218.027 269.816 218.598C269.981 219.17 269.64 219.702 269.126 219.851ZM254.04 224.222C253.526 224.371 252.953 224.103 252.787 223.532C252.622 222.96 252.906 222.444 253.477 222.279C254.048 222.113 254.564 222.397 254.73 222.969C254.896 223.54 254.554 224.073 254.04 224.222ZM238.954 228.592C238.44 228.741 237.867 228.474 237.702 227.902C237.536 227.331 237.82 226.815 238.391 226.649C238.963 226.484 239.479 226.768 239.644 227.339C239.81 227.911 239.469 228.443 238.954 228.592ZM223.869 232.963C223.354 233.112 222.781 232.844 222.616 232.273C222.45 231.701 222.734 231.185 223.306 231.02C223.82 230.871 224.393 231.138 224.559 231.71C224.724 232.281 224.383 232.814 223.869 232.963ZM208.783 237.333C208.269 237.482 207.696 237.215 207.53 236.643C207.365 236.072 207.649 235.556 208.22 235.39C208.792 235.225 209.308 235.509 209.473 236.081C209.639 236.652 209.297 237.184 208.783 237.333ZM193.698 241.704C193.183 241.853 192.61 241.585 192.445 241.014C192.279 240.442 192.563 239.927 193.135 239.761C193.706 239.595 194.222 239.88 194.388 240.451C194.553 241.023 194.212 241.555 193.698 241.704ZM178.612 246.075C178.098 246.224 177.525 245.956 177.359 245.384C177.194 244.813 177.478 244.297 178.049 244.132C178.62 243.966 179.136 244.25 179.302 244.822C179.467 245.393 179.126 245.926 178.612 246.075ZM163.526 250.445C163.012 250.594 162.439 250.327 162.273 249.755C162.108 249.184 162.392 248.668 162.963 248.502C163.535 248.337 164.051 248.621 164.216 249.192C164.382 249.764 164.041 250.296 163.526 250.445ZM148.441 254.816C147.926 254.965 147.353 254.697 147.188 254.126C147.022 253.554 147.306 253.038 147.878 252.873C148.449 252.707 148.965 252.991 149.131 253.563C149.296 254.134 148.955 254.667 148.441 254.816ZM133.355 259.186C132.841 259.335 132.268 259.068 132.102 258.496C131.937 257.925 132.221 257.409 132.792 257.243C133.364 257.078 133.88 257.362 134.045 257.933C134.211 258.505 133.869 259.037 133.355 259.186ZM118.27 263.557C117.755 263.706 117.182 263.438 117.017 262.867C116.851 262.295 117.135 261.779 117.707 261.614C118.278 261.448 118.794 261.732 118.96 262.304C119.125 262.875 118.784 263.408 118.27 263.557ZM103.184 267.927C102.67 268.076 102.097 267.809 101.931 267.237C101.766 266.666 102.05 266.15 102.621 265.984C103.192 265.819 103.708 266.103 103.874 266.674C104.039 267.246 103.698 267.778 103.184 267.927ZM88.0983 272.298C87.5841 272.447 87.011 272.179 86.8455 271.608C86.6799 271.036 86.964 270.52 87.5354 270.355C88.0497 270.206 88.6228 270.473 88.7883 271.045C88.9539 271.616 88.6126 272.149 88.0983 272.298ZM72.9556 276.685C72.4413 276.834 71.8683 276.566 71.7027 275.995C71.5372 275.423 71.8213 274.908 72.3927 274.742C72.9641 274.576 73.48 274.861 73.6456 275.432C73.8111 276.004 73.527 276.519 72.9556 276.685Z" fill="#231F20"/>
<path d="M52.8368 263.683C52.6082 263.749 52.2894 263.718 52.0683 263.596C51.8472 263.474 51.7238 263.262 51.6576 263.033C51.5914 262.805 51.6229 262.486 51.7446 262.265C51.8664 262.044 52.0784 261.92 52.3641 261.838C52.5927 261.771 52.9115 261.803 53.1326 261.925C53.5011 262.128 53.7164 262.871 53.5134 263.239C53.318 263.42 53.1225 263.6 52.8368 263.683Z" fill="#231F20"/>
<path d="M354.663 176.239C354.149 176.388 353.576 176.12 353.41 175.549C353.261 175.034 353.529 174.461 354.1 174.296C354.672 174.13 355.188 174.414 355.353 174.986C355.462 175.574 355.177 176.09 354.663 176.239ZM339.578 180.609C339.063 180.758 338.49 180.491 338.325 179.919C338.176 179.405 338.443 178.832 339.015 178.666C339.529 178.517 340.102 178.785 340.268 179.356C340.376 179.944 340.092 180.46 339.578 180.609ZM324.492 184.98C323.978 185.129 323.405 184.861 323.239 184.29C323.09 183.775 323.358 183.202 323.929 183.037C324.443 182.888 325.016 183.155 325.182 183.727C325.29 184.315 325.006 184.831 324.492 184.98ZM309.406 189.35C308.892 189.499 308.319 189.232 308.153 188.66C308.004 188.146 308.272 187.573 308.843 187.407C309.358 187.258 309.931 187.526 310.096 188.097C310.205 188.685 309.921 189.201 309.406 189.35ZM294.264 193.737C293.749 193.886 293.176 193.619 293.011 193.047C292.862 192.533 293.129 191.96 293.701 191.794C294.272 191.629 294.788 191.913 294.954 192.485C295.119 193.056 294.835 193.572 294.264 193.737ZM279.178 198.108C278.664 198.257 278.091 197.989 277.925 197.418C277.776 196.904 278.044 196.331 278.615 196.165C279.129 196.016 279.702 196.284 279.868 196.855C280.034 197.427 279.692 197.959 279.178 198.108ZM264.092 202.479C263.578 202.628 263.005 202.36 262.84 201.788C262.691 201.274 262.958 200.701 263.529 200.536C264.101 200.37 264.617 200.654 264.782 201.226C264.948 201.797 264.607 202.33 264.092 202.479ZM249.007 206.849C248.493 206.998 247.92 206.731 247.754 206.159C247.605 205.645 247.872 205.072 248.444 204.906C249.015 204.741 249.531 205.025 249.697 205.596C249.862 206.168 249.521 206.7 249.007 206.849ZM233.921 211.22C233.407 211.369 232.834 211.101 232.668 210.53C232.519 210.015 232.787 209.442 233.358 209.277C233.93 209.111 234.446 209.395 234.611 209.967C234.777 210.538 234.435 211.071 233.921 211.22ZM218.836 215.59C218.321 215.739 217.748 215.472 217.583 214.9C217.434 214.386 217.701 213.813 218.273 213.647C218.787 213.498 219.36 213.766 219.526 214.337C219.691 214.909 219.35 215.441 218.836 215.59ZM203.75 219.961C203.236 220.11 202.663 219.842 202.497 219.271C202.348 218.756 202.616 218.183 203.187 218.018C203.758 217.852 204.274 218.136 204.44 218.708C204.606 219.279 204.264 219.812 203.75 219.961ZM188.664 224.331C188.15 224.48 187.577 224.213 187.412 223.641C187.262 223.127 187.53 222.554 188.101 222.388C188.673 222.223 189.189 222.507 189.354 223.078C189.52 223.65 189.179 224.182 188.664 224.331ZM173.579 228.702C173.065 228.851 172.491 228.583 172.326 228.012C172.177 227.497 172.444 226.924 173.016 226.759C173.587 226.593 174.103 226.877 174.269 227.449C174.377 228.037 174.093 228.553 173.579 228.702ZM158.493 233.072C157.979 233.221 157.406 232.954 157.24 232.382C157.091 231.868 157.359 231.295 157.93 231.129C158.502 230.964 159.018 231.248 159.183 231.82C159.292 232.408 159.007 232.923 158.493 233.072ZM143.408 237.443C142.893 237.592 142.32 237.324 142.155 236.753C142.006 236.239 142.273 235.666 142.845 235.5C143.416 235.334 143.932 235.619 144.098 236.19C144.206 236.778 143.922 237.294 143.408 237.443ZM128.322 241.814C127.808 241.963 127.235 241.695 127.069 241.123C126.92 240.609 127.188 240.036 127.759 239.871C128.33 239.705 128.846 239.989 129.012 240.561C129.12 241.149 128.836 241.665 128.322 241.814ZM113.236 246.184C112.722 246.333 112.149 246.066 111.983 245.494C111.834 244.98 112.102 244.407 112.673 244.241C113.245 244.076 113.761 244.36 113.926 244.931C114.035 245.519 113.751 246.035 113.236 246.184ZM98.1508 250.555C97.6365 250.704 97.0635 250.436 96.8979 249.865C96.7489 249.35 97.0164 248.777 97.5878 248.612C98.1593 248.446 98.6752 248.73 98.8407 249.302C98.9491 249.89 98.665 250.406 98.1508 250.555ZM83.0652 254.925C82.5509 255.074 81.9778 254.807 81.8123 254.235C81.6633 253.721 81.9308 253.148 82.5022 252.982C83.0165 252.833 83.5324 253.117 83.698 253.689C83.8635 254.26 83.5794 254.776 83.0652 254.925ZM67.9224 259.312C67.4081 259.461 66.8351 259.194 66.6695 258.622C66.5205 258.108 66.7881 257.535 67.3595 257.369C67.9309 257.204 68.4468 257.488 68.6124 258.059C68.7779 258.631 68.4938 259.147 67.9224 259.312Z" fill="#231F20"/>
<path d="M47.8036 246.31C47.5751 246.376 47.3134 246.328 47.0923 246.206C46.8712 246.085 46.6741 245.832 46.6079 245.603C46.5416 245.375 46.5732 245.056 46.6949 244.835C46.8167 244.614 47.0121 244.433 47.2978 244.35C47.5264 244.284 47.8452 244.316 48.0663 244.437C48.4348 244.64 48.6501 245.383 48.4471 245.752C48.2848 246.047 48.0893 246.227 47.8036 246.31Z" fill="#231F20"/>
<path d="M319.459 167.607C318.944 167.756 318.371 167.488 318.206 166.917C318.057 166.402 318.324 165.829 318.896 165.664C319.41 165.515 319.983 165.782 320.149 166.354C320.257 166.942 319.973 167.458 319.459 167.607ZM304.373 171.977C303.859 172.126 303.286 171.859 303.12 171.287C302.971 170.773 303.239 170.2 303.81 170.034C304.324 169.885 304.898 170.153 305.063 170.724C305.172 171.312 304.887 171.828 304.373 171.977ZM289.23 176.365C288.716 176.514 288.143 176.246 287.978 175.674C287.828 175.16 288.096 174.587 288.667 174.422C289.239 174.256 289.755 174.54 289.92 175.112C290.086 175.683 289.802 176.199 289.23 176.365ZM274.145 180.735C273.631 180.884 273.057 180.616 272.892 180.045C272.743 179.531 273.068 178.941 273.582 178.792C274.096 178.643 274.612 178.927 274.778 179.499C275 180.054 274.659 180.586 274.145 180.735ZM259.059 185.106C258.545 185.255 257.972 184.987 257.806 184.416C257.657 183.901 257.925 183.328 258.496 183.163C259.068 182.997 259.584 183.281 259.749 183.853C259.915 184.424 259.573 184.957 259.059 185.106ZM243.974 189.476C243.459 189.625 242.886 189.358 242.721 188.786C242.572 188.272 242.839 187.699 243.411 187.533C243.982 187.368 244.498 187.652 244.664 188.223C244.829 188.795 244.488 189.327 243.974 189.476ZM228.888 193.847C228.374 193.996 227.801 193.728 227.635 193.157C227.486 192.642 227.754 192.069 228.325 191.904C228.896 191.738 229.412 192.022 229.578 192.594C229.744 193.165 229.402 193.698 228.888 193.847ZM213.802 198.217C213.288 198.366 212.715 198.099 212.549 197.527C212.4 197.013 212.668 196.44 213.239 196.274C213.754 196.125 214.327 196.393 214.492 196.964C214.658 197.536 214.317 198.068 213.802 198.217ZM198.717 202.588C198.202 202.737 197.629 202.469 197.464 201.898C197.315 201.383 197.582 200.81 198.154 200.645C198.725 200.479 199.241 200.763 199.407 201.335C199.572 201.906 199.231 202.439 198.717 202.588ZM183.631 206.958C183.117 207.107 182.544 206.84 182.378 206.268C182.229 205.754 182.497 205.181 183.068 205.015C183.64 204.85 184.156 205.134 184.321 205.705C184.487 206.277 184.145 206.809 183.631 206.958ZM168.546 211.329C168.031 211.478 167.458 211.21 167.293 210.639C167.144 210.125 167.411 209.552 167.983 209.386C168.554 209.22 169.07 209.505 169.236 210.076C169.344 210.664 169.06 211.18 168.546 211.329ZM153.46 215.7C152.946 215.849 152.373 215.581 152.207 215.009C152.058 214.495 152.326 213.922 152.897 213.757C153.468 213.591 153.984 213.875 154.15 214.447C154.258 215.035 153.974 215.551 153.46 215.7ZM138.374 220.07C137.86 220.219 137.287 219.951 137.121 219.38C136.972 218.866 137.24 218.293 137.811 218.127C138.383 217.962 138.899 218.246 139.064 218.817C139.173 219.405 138.889 219.921 138.374 220.07ZM123.289 224.441C122.774 224.59 122.201 224.322 122.036 223.751C121.887 223.236 122.154 222.663 122.726 222.498C123.297 222.332 123.813 222.616 123.979 223.188C124.087 223.776 123.803 224.292 123.289 224.441ZM108.203 228.811C107.689 228.96 107.116 228.693 106.95 228.121C106.801 227.607 107.069 227.034 107.64 226.868C108.212 226.703 108.728 226.987 108.893 227.558C109.002 228.146 108.717 228.662 108.203 228.811ZM93.1176 233.182C92.6033 233.331 92.0302 233.063 91.8647 232.492C91.7157 231.977 91.9832 231.404 92.5546 231.239C93.1261 231.073 93.6419 231.357 93.8075 231.929C93.9159 232.517 93.6318 233.033 93.1176 233.182ZM78.0319 237.552C77.5177 237.701 76.9446 237.434 76.7791 236.862C76.6301 236.348 76.8976 235.775 77.469 235.609C77.9833 235.46 78.4992 235.744 78.6648 236.316C78.8303 236.887 78.5462 237.403 78.0319 237.552ZM62.8892 241.939C62.3749 242.088 61.8019 241.821 61.6363 241.249C61.4873 240.735 61.7549 240.162 62.3263 239.996C62.8977 239.831 63.4136 240.115 63.5792 240.686C63.7447 241.258 63.4606 241.774 62.8892 241.939Z" fill="#231F20"/>
<path d="M42.7704 228.937C42.5419 229.003 42.2802 228.955 42.0591 228.834C41.838 228.712 41.6409 228.459 41.5747 228.231C41.5084 228.002 41.54 227.683 41.6617 227.462C41.7835 227.241 41.9789 227.06 42.2646 226.978C42.4932 226.911 42.812 226.943 43.0331 227.065C43.1805 227.146 43.3776 227.398 43.4438 227.627C43.5266 227.913 43.5357 228.158 43.4139 228.379C43.2516 228.674 43.0561 228.854 42.7704 228.937Z" fill="#231F20"/>
<path d="M284.197 158.992C283.683 159.141 283.11 158.873 282.944 158.302C282.795 157.787 283.063 157.214 283.634 157.049C284.206 156.883 284.722 157.167 284.887 157.739C285.036 158.253 284.769 158.826 284.197 158.992ZM269.112 163.362C268.597 163.511 268.024 163.244 267.859 162.672C267.71 162.158 267.977 161.585 268.549 161.419C269.063 161.27 269.636 161.538 269.802 162.109C269.951 162.624 269.626 163.213 269.112 163.362ZM254.026 167.733C253.512 167.882 252.939 167.614 252.773 167.043C252.624 166.528 252.892 165.955 253.463 165.79C254.034 165.624 254.55 165.908 254.716 166.48C254.865 166.994 254.54 167.584 254.026 167.733ZM238.94 172.103C238.426 172.252 237.853 171.985 237.688 171.413C237.538 170.899 237.806 170.326 238.377 170.16C238.949 169.995 239.465 170.279 239.63 170.85C239.779 171.365 239.455 171.954 238.94 172.103ZM223.855 176.474C223.341 176.623 222.767 176.355 222.602 175.784C222.453 175.27 222.72 174.696 223.292 174.531C223.863 174.365 224.379 174.65 224.545 175.221C224.694 175.735 224.369 176.325 223.855 176.474ZM208.769 180.845C208.255 180.994 207.682 180.726 207.516 180.154C207.367 179.64 207.635 179.067 208.206 178.901C208.721 178.752 209.294 179.02 209.459 179.592C209.608 180.106 209.283 180.696 208.769 180.845ZM193.684 185.215C193.169 185.364 192.596 185.096 192.431 184.525C192.282 184.011 192.549 183.438 193.121 183.272C193.692 183.106 194.208 183.391 194.374 183.962C194.523 184.476 194.198 185.066 193.684 185.215ZM178.598 189.586C178.084 189.735 177.511 189.467 177.345 188.896C177.196 188.381 177.464 187.808 178.035 187.643C178.606 187.477 179.122 187.761 179.288 188.333C179.437 188.847 179.112 189.437 178.598 189.586ZM163.512 193.956C162.998 194.105 162.425 193.838 162.259 193.266C162.11 192.752 162.378 192.179 162.949 192.013C163.521 191.848 164.037 192.132 164.202 192.703C164.294 193.234 164.027 193.807 163.512 193.956ZM148.427 198.327C147.912 198.476 147.339 198.208 147.174 197.637C147.025 197.122 147.292 196.549 147.864 196.384C148.435 196.218 148.951 196.502 149.117 197.074C149.209 197.605 148.941 198.178 148.427 198.327ZM133.341 202.697C132.827 202.846 132.254 202.579 132.088 202.007C131.939 201.493 132.207 200.92 132.778 200.754C133.35 200.589 133.866 200.873 134.031 201.444C134.123 201.975 133.855 202.548 133.341 202.697ZM118.256 207.068C117.741 207.217 117.168 206.949 117.003 206.378C116.854 205.863 117.121 205.29 117.693 205.125C118.264 204.959 118.78 205.243 118.946 205.815C119.037 206.346 118.77 206.919 118.256 207.068ZM103.17 211.438C102.656 211.587 102.083 211.32 101.917 210.748C101.768 210.234 102.036 209.661 102.607 209.495C103.178 209.33 103.694 209.614 103.86 210.185C103.952 210.716 103.684 211.289 103.17 211.438ZM88.0844 215.809C87.5701 215.958 86.997 215.69 86.8315 215.119C86.6825 214.605 86.95 214.031 87.5214 213.866C88.0929 213.7 88.6087 213.985 88.7743 214.556C88.8662 215.087 88.5986 215.66 88.0844 215.809ZM72.9416 220.196C72.4273 220.345 71.9114 220.061 71.7459 219.489C71.5969 218.975 71.8644 218.402 72.3787 218.253C72.893 218.104 73.466 218.372 73.6316 218.943C73.7806 219.457 73.513 220.031 72.9416 220.196ZM57.856 224.567C57.3417 224.716 56.7687 224.448 56.6031 223.877C56.4541 223.362 56.7217 222.789 57.2931 222.624C57.8645 222.458 58.3804 222.742 58.546 223.314C58.695 223.828 58.4274 224.401 57.856 224.567Z" fill="#231F20"/>
<path d="M37.7372 211.564C37.5086 211.631 37.1898 211.599 36.9687 211.477C36.7476 211.355 36.6242 211.143 36.558 210.915C36.4918 210.686 36.5233 210.367 36.645 210.146C36.7668 209.925 36.9788 209.802 37.2645 209.719C37.4931 209.653 37.8119 209.684 38.033 209.806C38.4015 210.009 38.6167 210.752 38.4138 211.121C38.2184 211.301 38.0229 211.482 37.7372 211.564Z" fill="#231F20"/>
<path d="M248.993 150.36C248.479 150.509 247.905 150.241 247.74 149.67C247.591 149.156 247.858 148.583 248.43 148.417C249.001 148.251 249.517 148.536 249.683 149.107C249.832 149.621 249.507 150.211 248.993 150.36ZM233.907 154.731C233.393 154.88 232.82 154.612 232.654 154.041C232.505 153.526 232.773 152.953 233.344 152.788C233.916 152.622 234.432 152.906 234.597 153.478C234.746 153.992 234.421 154.582 233.907 154.731ZM218.822 159.101C218.307 159.25 217.734 158.983 217.569 158.411C217.42 157.897 217.687 157.324 218.259 157.158C218.83 156.993 219.346 157.277 219.512 157.848C219.661 158.363 219.336 158.952 218.822 159.101ZM203.736 163.472C203.222 163.621 202.649 163.353 202.483 162.782C202.334 162.267 202.602 161.694 203.173 161.529C203.687 161.38 204.26 161.647 204.426 162.219C204.575 162.733 204.25 163.323 203.736 163.472ZM188.65 167.842C188.136 167.991 187.563 167.724 187.397 167.152C187.248 166.638 187.516 166.065 188.087 165.899C188.659 165.734 189.175 166.018 189.34 166.589C189.489 167.104 189.165 167.693 188.65 167.842ZM173.565 172.213C173.051 172.362 172.477 172.094 172.312 171.523C172.163 171.008 172.43 170.435 173.002 170.27C173.573 170.104 174.089 170.388 174.255 170.96C174.404 171.474 174.079 172.064 173.565 172.213ZM158.479 176.583C157.965 176.732 157.392 176.465 157.226 175.893C157.077 175.379 157.345 174.806 157.916 174.64C158.488 174.475 159.004 174.759 159.169 175.33C159.261 175.861 158.993 176.434 158.479 176.583ZM143.394 180.954C142.879 181.103 142.306 180.835 142.141 180.264C141.992 179.75 142.259 179.176 142.831 179.011C143.402 178.845 143.918 179.13 144.084 179.701C144.175 180.232 143.908 180.805 143.394 180.954ZM128.308 185.324C127.794 185.473 127.221 185.206 127.055 184.634C126.906 184.12 127.174 183.547 127.745 183.381C128.316 183.216 128.832 183.5 128.998 184.072C129.09 184.602 128.822 185.175 128.308 185.324ZM113.222 189.695C112.708 189.844 112.135 189.576 111.969 189.005C111.82 188.491 112.088 187.918 112.659 187.752C113.231 187.586 113.747 187.871 113.912 188.442C114.004 188.973 113.737 189.546 113.222 189.695ZM98.1368 194.066C97.6225 194.215 97.0494 193.947 96.8839 193.376C96.7349 192.861 97.0024 192.288 97.5738 192.123C98.1453 191.957 98.6611 192.241 98.8267 192.813C98.9186 193.344 98.651 193.917 98.1368 194.066ZM83.0512 198.436C82.5369 198.585 81.9638 198.318 81.7983 197.746C81.6493 197.232 81.9168 196.659 82.4882 196.493C83.0596 196.328 83.5755 196.612 83.7411 197.183C83.833 197.714 83.5654 198.287 83.0512 198.436ZM67.9084 202.823C67.3941 202.972 66.8211 202.705 66.6555 202.133C66.5065 201.619 66.7741 201.046 67.3455 200.88C67.9169 200.715 68.4328 200.999 68.5984 201.57C68.7474 202.085 68.4798 202.658 67.9084 202.823ZM52.8228 207.194C52.3085 207.343 51.7355 207.075 51.5699 206.504C51.4209 205.989 51.6884 205.416 52.2599 205.251C52.8313 205.085 53.3472 205.369 53.5128 205.941C53.6618 206.455 53.3942 207.028 52.8228 207.194Z" fill="#231F20"/>
<path d="M32.6874 194.134C32.4589 194.201 32.14 194.169 31.9189 194.047C31.6978 193.926 31.5173 193.73 31.4345 193.444C31.3683 193.216 31.3998 192.897 31.5216 192.676C31.6433 192.455 31.8388 192.274 32.1245 192.191C32.3531 192.125 32.6148 192.173 32.8359 192.295C33.0569 192.417 33.1803 192.629 33.2631 192.915C33.3459 193.2 33.355 193.446 33.2167 193.609C33.1852 193.928 32.9731 194.052 32.6874 194.134Z" fill="#231F20"/>
<path d="M213.772 141.671C213.258 141.82 212.685 141.553 212.519 140.981C212.353 140.41 212.638 139.894 213.209 139.728C213.78 139.563 214.296 139.847 214.462 140.418C214.627 140.99 214.286 141.522 213.772 141.671ZM198.686 146.042C198.172 146.191 197.599 145.923 197.433 145.352C197.268 144.78 197.552 144.264 198.123 144.099C198.638 143.95 199.211 144.217 199.376 144.789C199.542 145.36 199.201 145.893 198.686 146.042ZM183.601 150.412C183.086 150.561 182.513 150.294 182.348 149.722C182.182 149.151 182.466 148.635 183.038 148.469C183.609 148.304 184.125 148.588 184.291 149.159C184.456 149.731 184.115 150.263 183.601 150.412ZM168.515 154.783C168.001 154.932 167.428 154.664 167.262 154.093C167.097 153.521 167.381 153.005 167.952 152.84C168.524 152.674 169.04 152.958 169.205 153.53C169.371 154.101 169.029 154.634 168.515 154.783ZM153.429 159.153C152.915 159.302 152.342 159.035 152.177 158.463C152.011 157.892 152.295 157.376 152.867 157.21C153.438 157.045 153.954 157.329 154.119 157.9C154.285 158.472 153.944 159.004 153.429 159.153ZM138.344 163.524C137.83 163.673 137.257 163.405 137.091 162.834C136.925 162.262 137.21 161.747 137.781 161.581C138.352 161.415 138.868 161.7 139.034 162.271C139.199 162.843 138.858 163.375 138.344 163.524ZM123.258 167.895C122.744 168.044 122.171 167.776 122.005 167.204C121.84 166.633 122.124 166.117 122.695 165.952C123.267 165.786 123.783 166.07 123.948 166.642C124.114 167.213 123.773 167.746 123.258 167.895ZM108.173 172.265C107.658 172.414 107.085 172.146 106.92 171.575C106.754 171.004 107.038 170.488 107.61 170.322C108.181 170.157 108.697 170.441 108.863 171.012C109.028 171.584 108.687 172.116 108.173 172.265ZM93.0871 176.636C92.5728 176.785 91.9998 176.517 91.8342 175.946C91.6686 175.374 91.9527 174.858 92.5242 174.693C93.0956 174.527 93.6115 174.811 93.777 175.383C93.9426 175.954 93.6014 176.487 93.0871 176.636ZM78.0015 181.006C77.4872 181.155 76.9142 180.888 76.7486 180.316C76.583 179.745 76.8671 179.229 77.4386 179.063C78.01 178.898 78.5259 179.182 78.6914 179.753C78.857 180.325 78.5158 180.857 78.0015 181.006ZM62.9159 185.377C62.4016 185.526 61.8285 185.258 61.663 184.687C61.4974 184.115 61.8387 183.583 62.3529 183.434C62.8672 183.285 63.3831 183.569 63.5487 184.14C63.7142 184.712 63.4301 185.228 62.9159 185.377ZM47.7731 189.764C47.2588 189.913 46.6858 189.645 46.5202 189.074C46.3547 188.502 46.6388 187.986 47.2102 187.821C47.7816 187.655 48.2975 187.939 48.4631 188.511C48.6286 189.082 48.3445 189.598 47.7731 189.764Z" fill="#231F20"/>
<path d="M27.6542 176.762C27.4256 176.828 27.1068 176.796 26.8857 176.675C26.6646 176.553 26.4841 176.357 26.4013 176.072C26.3351 175.843 26.3666 175.524 26.4884 175.303C26.6101 175.082 26.8056 174.901 27.0913 174.819C27.3199 174.752 27.5816 174.801 27.8026 174.922C28.0237 175.044 28.1471 175.256 28.2299 175.542C28.3127 175.828 28.3218 176.073 28.1835 176.237C28.1354 176.498 27.9399 176.679 27.6542 176.762Z" fill="#231F20"/>
<path d="M178.567 133.04C178.053 133.189 177.48 132.921 177.315 132.349C177.166 131.835 177.433 131.262 178.005 131.097C178.576 130.931 179.092 131.215 179.257 131.787C179.423 132.358 179.082 132.891 178.567 133.04ZM163.482 137.41C162.968 137.559 162.395 137.291 162.229 136.72C162.08 136.206 162.348 135.633 162.919 135.467C163.49 135.302 164.006 135.586 164.172 136.157C164.337 136.729 163.996 137.261 163.482 137.41ZM148.396 141.781C147.882 141.93 147.309 141.662 147.143 141.091C146.994 140.576 147.262 140.003 147.833 139.838C148.405 139.672 148.921 139.956 149.086 140.528C149.195 141.116 148.911 141.632 148.396 141.781ZM133.311 146.151C132.796 146.3 132.223 146.033 132.058 145.461C131.909 144.947 132.176 144.374 132.748 144.208C133.319 144.043 133.835 144.327 134.001 144.898C134.109 145.486 133.825 146.002 133.311 146.151ZM118.225 150.522C117.711 150.671 117.138 150.403 116.972 149.832C116.823 149.317 117.091 148.744 117.662 148.579C118.234 148.413 118.749 148.697 118.915 149.269C119.023 149.857 118.739 150.373 118.225 150.522ZM103.139 154.892C102.625 155.041 102.052 154.774 101.887 154.202C101.738 153.688 102.005 153.115 102.577 152.949C103.148 152.784 103.664 153.068 103.829 153.639C103.938 154.227 103.654 154.743 103.139 154.892ZM88.0539 159.263C87.5396 159.412 86.9665 159.144 86.801 158.573C86.652 158.058 86.9195 157.485 87.4909 157.32C88.0624 157.154 88.5783 157.438 88.7438 158.01C88.8522 158.598 88.5681 159.114 88.0539 159.263ZM72.9683 163.633C72.454 163.782 71.8809 163.515 71.7154 162.943C71.5664 162.429 71.8339 161.856 72.4053 161.69C72.9768 161.525 73.4927 161.809 73.6582 162.38C73.7666 162.968 73.4825 163.484 72.9683 163.633ZM57.8255 168.021C57.3112 168.169 56.7382 167.902 56.5726 167.33C56.4236 166.816 56.6912 166.243 57.2626 166.077C57.7769 165.929 58.3499 166.196 58.5155 166.768C58.681 167.339 58.3969 167.855 57.8255 168.021ZM42.7399 172.391C42.2256 172.54 41.6526 172.272 41.487 171.701C41.338 171.187 41.6056 170.614 42.177 170.448C42.7484 170.283 43.2643 170.567 43.4299 171.138C43.5954 171.71 43.3113 172.226 42.7399 172.391Z" fill="#231F20"/>
<path d="M22.6211 159.389C22.3926 159.455 22.1309 159.407 21.9098 159.285C21.6887 159.163 21.4916 158.911 21.4254 158.682C21.3592 158.454 21.3907 158.135 21.5124 157.914C21.6342 157.693 21.8296 157.512 22.1154 157.429C22.3439 157.363 22.6627 157.395 22.8838 157.516C23.1049 157.638 23.2283 157.85 23.3111 158.136C23.3939 158.422 23.403 158.667 23.2646 158.831C23.1023 159.126 22.9068 159.306 22.6211 159.389Z" fill="#231F20"/>
<path d="M143.363 124.408C142.849 124.557 142.276 124.289 142.11 123.718C141.961 123.203 142.229 122.63 142.8 122.465C143.372 122.299 143.887 122.583 144.053 123.155C144.145 123.686 143.877 124.259 143.363 124.408ZM128.277 128.778C127.763 128.927 127.19 128.66 127.025 128.088C126.876 127.574 127.143 127.001 127.715 126.835C128.286 126.67 128.802 126.954 128.967 127.525C129.059 128.056 128.792 128.629 128.277 128.778ZM113.192 133.149C112.678 133.298 112.105 133.03 111.939 132.459C111.79 131.945 112.058 131.371 112.629 131.206C113.2 131.04 113.716 131.325 113.882 131.896C113.974 132.427 113.706 133 113.192 133.149ZM98.1063 137.519C97.592 137.668 97.0189 137.401 96.8534 136.829C96.7044 136.315 96.9719 135.742 97.5434 135.576C98.1148 135.411 98.6307 135.695 98.7962 136.267C98.8881 136.797 98.6206 137.37 98.1063 137.519ZM83.0207 141.89C82.5064 142.039 81.9333 141.771 81.7678 141.2C81.6188 140.686 81.8863 140.113 82.4578 139.947C83.0292 139.781 83.5451 140.066 83.7106 140.637C83.8025 141.168 83.535 141.741 83.0207 141.89ZM67.9351 146.261C67.4208 146.41 66.8477 146.142 66.6822 145.571C66.5332 145.056 66.8007 144.483 67.3721 144.318C67.9436 144.152 68.4595 144.436 68.625 145.008C68.7169 145.539 68.4493 146.112 67.9351 146.261ZM52.7923 150.648C52.278 150.797 51.7621 150.513 51.5966 149.941C51.4476 149.427 51.7151 148.854 52.2294 148.705C52.7437 148.556 53.3167 148.823 53.4823 149.395C53.6313 149.909 53.3637 150.482 52.7923 150.648ZM37.7067 155.018C37.1924 155.167 36.6194 154.9 36.4538 154.328C36.3048 153.814 36.5724 153.241 37.1438 153.075C37.7152 152.91 38.2311 153.194 38.3967 153.765C38.5457 154.28 38.2781 154.853 37.7067 155.018Z" fill="#231F20"/>
<path d="M17.5878 142.016C17.3593 142.082 17.0976 142.034 16.8765 141.912C16.6554 141.791 16.4583 141.538 16.3921 141.309C16.3259 141.081 16.3739 140.819 16.4957 140.598C16.6175 140.377 16.8701 140.18 17.0986 140.114C17.3272 140.047 17.646 140.079 17.8671 140.201C18.0145 140.282 18.2116 140.534 18.2944 140.82C18.3771 141.106 18.3862 141.351 18.2645 141.572C18.069 141.753 17.8736 141.933 17.5878 142.016Z" fill="#231F20"/>
<path d="M108.159 115.776C107.644 115.925 107.071 115.658 106.906 115.086C106.74 114.515 107.024 113.999 107.596 113.833C108.167 113.668 108.683 113.952 108.849 114.523C109.014 115.095 108.673 115.627 108.159 115.776ZM93.0731 120.147C92.5588 120.296 91.9857 120.028 91.8202 119.457C91.6546 118.885 91.9387 118.369 92.5101 118.204C93.0816 118.038 93.5975 118.322 93.763 118.894C93.9286 119.465 93.5873 119.998 93.0731 120.147ZM77.9875 124.517C77.4732 124.666 76.9001 124.399 76.7346 123.827C76.569 123.256 76.8531 122.74 77.4245 122.574C77.996 122.409 78.5119 122.693 78.6774 123.264C78.843 123.836 78.5017 124.368 77.9875 124.517ZM62.9019 128.888C62.3876 129.037 61.8145 128.769 61.649 128.198C61.4834 127.626 61.7675 127.11 62.3389 126.945C62.9104 126.779 63.4263 127.063 63.5918 127.635C63.7574 128.206 63.4161 128.739 62.9019 128.888ZM47.7591 133.275C47.2448 133.424 46.7289 133.14 46.5634 132.568C46.3978 131.997 46.6819 131.481 47.1962 131.332C47.7105 131.183 48.2835 131.45 48.4491 132.022C48.6146 132.593 48.3305 133.109 47.7591 133.275ZM32.6735 137.645C32.1592 137.794 31.5862 137.527 31.4206 136.955C31.2551 136.384 31.5392 135.868 32.1106 135.702C32.682 135.537 33.1979 135.821 33.3635 136.393C33.529 136.964 33.2449 137.48 32.6735 137.645Z" fill="#231F20"/>
<path d="M12.5382 124.586C12.3096 124.652 12.0479 124.604 11.8268 124.482C11.6057 124.361 11.4086 124.108 11.3424 123.879C11.2762 123.651 11.3243 123.389 11.446 123.168C11.5678 122.947 11.8204 122.75 12.0489 122.684C12.2775 122.617 12.5392 122.666 12.7603 122.787C12.9814 122.909 13.1048 123.121 13.1875 123.407C13.2703 123.693 13.2794 123.938 13.1411 124.102C13.0359 124.38 12.8239 124.503 12.5382 124.586Z" fill="#231F20"/>
<path d="M72.9376 107.087C72.4234 107.236 71.8503 106.969 71.6848 106.397C71.5358 105.883 71.8033 105.31 72.3747 105.144C72.9462 104.979 73.462 105.263 73.6276 105.834C73.736 106.422 73.4519 106.938 72.9376 107.087ZM57.852 111.458C57.3378 111.607 56.7647 111.339 56.5992 110.768C56.4502 110.253 56.7177 109.68 57.2891 109.515C57.8605 109.349 58.3764 109.633 58.542 110.205C58.6504 110.793 58.3663 111.309 57.852 111.458ZM42.7093 115.845C42.195 115.994 41.6791 115.71 41.5136 115.138C41.3645 114.624 41.6321 114.051 42.1464 113.902C42.6607 113.753 43.2337 114.021 43.3993 114.592C43.5648 115.163 43.2807 115.679 42.7093 115.845ZM27.6237 120.216C27.1094 120.365 26.5364 120.097 26.3708 119.525C26.2218 119.011 26.4894 118.438 27.0608 118.273C27.6322 118.107 28.1481 118.391 28.3137 118.963C28.4792 119.534 28.1951 120.05 27.6237 120.216Z" fill="#231F20"/>
<path d="M7.50497 107.213C7.2764 107.279 6.95758 107.248 6.73648 107.126C6.51538 107.004 6.33487 106.809 6.25209 106.523C6.18586 106.295 6.23392 106.033 6.35568 105.812C6.47744 105.591 6.73003 105.394 6.9586 105.327C7.18717 105.261 7.44886 105.309 7.66996 105.431C7.89106 105.553 8.01442 105.765 8.0972 106.051C8.17999 106.336 8.13193 106.598 8.06732 106.802C7.98614 106.95 7.79068 107.13 7.50497 107.213Z" fill="#231F20"/>
<path d="M37.7332 98.4556C37.219 98.6046 36.6459 98.337 36.4804 97.7655C36.3314 97.2512 36.5989 96.6782 37.1703 96.5126C37.6846 96.3636 38.2576 96.6312 38.4232 97.2027C38.5316 97.7907 38.2475 98.3066 37.7332 98.4556ZM22.5905 102.843C22.0762 102.992 21.5032 102.724 21.3376 102.153C21.1886 101.638 21.4561 101.065 22.0276 100.9C22.599 100.734 23.1149 101.018 23.2805 101.59C23.446 102.161 23.1619 102.677 22.5905 102.843Z" fill="#231F20"/>
<path d="M2.47171 89.8404C2.24314 89.9066 1.98145 89.8585 1.76036 89.7367C1.53926 89.6149 1.34219 89.3623 1.27597 89.1337C1.20974 88.9051 1.24124 88.5863 1.363 88.3652C1.48476 88.1441 1.68022 87.9636 1.96594 87.8808C2.19451 87.8146 2.45618 87.8626 2.66072 87.9273C2.88182 88.049 3.06233 88.2445 3.14512 88.5303C3.2279 88.816 3.23698 89.0611 3.09867 89.2251C2.95288 89.5771 2.75742 89.7576 2.47171 89.8404Z" fill="#231F20"/>
</svg>
