<svg width="171" height="183" viewBox="0 0 171 183" fill="none" xmlns="http://www.w3.org/2000/svg">
<path d="M13.4303 40.4032L51.8747 173.099L59.9829 164.742L24.7505 43.1321L13.4303 40.4032Z" fill="#231F20"/>
<path d="M62.3341 52.0656L86.9703 137.101L95.0378 128.817L73.5805 54.7539L62.3341 52.0656Z" fill="#231F20"/>
<path d="M88.6877 58.3679L105.873 117.687L110.799 112.667L95.5338 59.9773L88.6877 58.3679Z" fill="#231F20"/>
<path d="M27.2695 43.7031L61.8065 162.913L63.1011 161.608L29.0773 44.1705L27.2695 43.7031Z" fill="#231F20"/>
<path d="M34.1155 45.3125L66.7319 157.893L71.6001 152.89L40.9043 46.9384L34.1155 45.3125Z" fill="#231F20"/>
<path d="M50.4905 49.2406L78.4711 145.82L83.3394 140.817L57.2793 50.8665L50.4905 49.2406Z" fill="#231F20"/>
<path d="M43.4399 47.5665L73.4073 151.003L76.6639 147.706L47.9714 48.6695L43.4399 47.5665Z" fill="#231F20"/>
<path d="M76.0426 55.3416L96.8046 127.004L102.243 121.403L83.633 57.1689L76.0426 55.3416Z" fill="#231F20"/>
<path d="M149.623 72.863L122.206 66.3112L129.955 93.0562L149.623 72.863Z" fill="#231F20"/>
<path d="M0 37.2325L42.2193 182.958L48.2438 176.815L8.37558 39.204L0 37.2325Z" fill="#231F20"/>
<path d="M108.571 63.0759L120.161 103.079L128.131 94.8854L119.687 65.7403L108.571 63.0759Z" fill="#231F20"/>
<path d="M98.0693 60.6055L112.606 110.781L118.337 104.908L106.052 62.5049L98.0693 60.6055Z" fill="#231F20"/>
</svg>
