<svg width="142" height="153" viewBox="0 0 142 153" fill="none" xmlns="http://www.w3.org/2000/svg">
<path d="M137.83 108.762C137.731 108.419 137.517 108.109 137.166 107.964C136.871 107.801 136.478 107.729 136.135 107.829C135.793 107.928 135.483 108.141 135.337 108.493C135.029 109.14 135.277 109.997 135.867 110.322C136.162 110.485 136.554 110.557 136.897 110.457C137.24 110.358 137.55 110.144 137.695 109.792C137.915 109.481 137.93 109.105 137.83 108.762Z" fill="#231F20"/>
<path d="M132.688 110.252C132.903 110.995 132.497 111.732 131.754 111.947C131.011 112.162 130.274 111.757 130.059 111.014C129.844 110.271 130.25 109.534 130.993 109.318C131.735 109.103 132.489 109.566 132.688 110.252ZM127.545 111.742C127.76 112.485 127.354 113.222 126.611 113.437C125.869 113.652 125.131 113.247 124.916 112.504C124.701 111.761 125.107 111.024 125.85 110.808C126.593 110.593 127.346 111.056 127.545 111.742ZM122.345 113.249C122.56 113.991 122.154 114.729 121.411 114.944C120.668 115.159 119.932 114.753 119.716 114.01C119.501 113.267 119.907 112.53 120.65 112.315C121.393 112.1 122.146 112.563 122.345 113.249ZM117.202 114.739C117.417 115.481 117.011 116.218 116.269 116.434C115.526 116.649 114.789 116.243 114.573 115.5C114.358 114.757 114.764 114.02 115.507 113.805C116.25 113.59 117.003 114.053 117.202 114.739Z" fill="#231F20"/>
<path d="M136.109 102.819C136.009 102.476 135.796 102.166 135.444 102.02C135.149 101.858 134.756 101.786 134.414 101.885C134.071 101.985 133.761 102.198 133.615 102.55C133.29 103.14 133.555 104.054 134.145 104.379C134.44 104.541 134.832 104.613 135.175 104.514C135.518 104.415 135.828 104.201 135.973 103.849C136.193 103.538 136.208 103.162 136.109 102.819Z" fill="#231F20"/>
<path d="M130.966 104.309C131.181 105.052 130.775 105.789 130.032 106.004C129.289 106.219 128.552 105.813 128.337 105.07C128.122 104.327 128.528 103.59 129.271 103.375C130.014 103.16 130.767 103.623 130.966 104.309ZM125.823 105.799C126.038 106.542 125.632 107.279 124.889 107.494C124.147 107.709 123.41 107.303 123.194 106.56C122.979 105.817 123.385 105.08 124.128 104.865C124.871 104.65 125.624 105.113 125.823 105.799ZM120.623 107.305C120.838 108.048 120.432 108.785 119.689 109C118.947 109.216 118.21 108.81 117.994 108.067C117.779 107.324 118.185 106.587 118.928 106.372C119.671 106.156 120.424 106.62 120.623 107.305ZM115.48 108.795C115.695 109.538 115.289 110.275 114.547 110.49C113.804 110.706 113.067 110.3 112.852 109.557C112.636 108.814 113.042 108.077 113.785 107.862C114.528 107.646 115.281 108.11 115.48 108.795ZM110.337 110.285C110.553 111.028 110.147 111.765 109.404 111.98C108.661 112.196 107.924 111.79 107.709 111.047C107.494 110.304 107.899 109.567 108.642 109.352C109.385 109.136 110.139 109.599 110.337 110.285ZM105.137 111.792C105.353 112.535 104.947 113.272 104.204 113.487C103.461 113.702 102.724 113.296 102.509 112.553C102.294 111.81 102.699 111.073 103.442 110.858C104.185 110.643 104.939 111.106 105.137 111.792Z" fill="#231F20"/>
<path d="M134.387 96.8754C134.287 96.5325 134.074 96.2228 133.722 96.077C133.427 95.9146 133.034 95.8425 132.692 95.9418C132.349 96.0411 132.039 96.2548 131.893 96.6067C131.568 97.1964 131.833 98.1107 132.423 98.4354C132.718 98.5978 133.11 98.6699 133.453 98.5706C133.796 98.4712 134.106 98.2576 134.252 97.9057C134.471 97.5943 134.486 97.2183 134.387 96.8754Z" fill="#231F20"/>
<path d="M129.244 98.3654C129.459 99.1084 129.053 99.8454 128.31 100.061C127.568 100.276 126.831 99.8699 126.615 99.127C126.4 98.3841 126.806 97.647 127.549 97.4318C128.292 97.2166 129.029 97.6225 129.244 98.3654ZM124.101 99.8554C124.316 100.598 123.91 101.335 123.168 101.551C122.425 101.766 121.688 101.36 121.472 100.617C121.257 99.874 121.663 99.137 122.406 98.9218C123.149 98.7066 123.886 99.1125 124.101 99.8554ZM118.901 101.362C119.116 102.105 118.71 102.842 117.968 103.057C117.225 103.272 116.488 102.866 116.273 102.123C116.057 101.381 116.463 100.644 117.206 100.428C117.949 100.213 118.686 100.619 118.901 101.362ZM113.758 102.852C113.973 103.595 113.568 104.332 112.825 104.547C112.082 104.762 111.345 104.356 111.13 103.613C110.914 102.87 111.32 102.133 112.063 101.918C112.806 101.703 113.543 102.109 113.758 102.852ZM108.615 104.342C108.831 105.085 108.425 105.822 107.682 106.037C106.939 106.252 106.202 105.846 105.987 105.103C105.772 104.36 106.177 103.623 106.92 103.408C107.663 103.193 108.4 103.599 108.615 104.342ZM103.415 105.848C103.631 106.591 103.225 107.328 102.482 107.544C101.739 107.759 101.002 107.353 100.787 106.61C100.572 105.867 100.978 105.13 101.72 104.915C102.463 104.7 103.2 105.105 103.415 105.848ZM98.2726 107.338C98.4879 108.081 98.082 108.818 97.3391 109.033C96.5963 109.249 95.8593 108.843 95.6441 108.1C95.4289 107.357 95.8347 106.62 96.5775 106.405C97.3204 106.189 98.0574 106.595 98.2726 107.338ZM93.0727 108.845C93.2879 109.588 92.882 110.325 92.1392 110.54C91.3963 110.755 90.6593 110.349 90.4441 109.606C90.2289 108.863 90.6347 108.126 91.3776 107.911C92.1204 107.696 92.8575 108.102 93.0727 108.845Z" fill="#231F20"/>
<path d="M132.665 90.9322C132.565 90.5893 132.352 90.2796 132 90.1338C131.705 89.9714 131.313 89.8993 130.97 89.9986C130.627 90.0979 130.317 90.3116 130.171 90.6635C129.789 91.2697 130.054 92.1841 130.701 92.4923C130.996 92.6546 131.388 92.7267 131.731 92.6274C132.074 92.5281 132.384 92.3144 132.53 91.9625C132.749 91.6511 132.764 91.2751 132.665 90.9322Z" fill="#231F20"/>
<path d="M127.522 92.4221C127.737 93.1651 127.331 93.9021 126.589 94.1173C125.846 94.3325 125.109 93.9266 124.893 93.1837C124.678 92.4407 125.084 91.7037 125.827 91.4885C126.57 91.2733 127.307 91.6792 127.522 92.4221ZM122.379 93.9121C122.594 94.655 122.189 95.3921 121.446 95.6073C120.703 95.8225 119.966 95.4165 119.751 94.6736C119.535 93.9307 119.941 93.1937 120.684 92.9785C121.427 92.7632 122.164 93.1692 122.379 93.9121ZM117.179 95.4186C117.394 96.1615 116.989 96.8986 116.246 97.1138C115.503 97.329 114.766 96.9231 114.551 96.1801C114.335 95.4372 114.741 94.7002 115.484 94.485C116.227 94.2698 116.964 94.6757 117.179 95.4186ZM112.036 96.9086C112.252 97.6515 111.846 98.3886 111.103 98.6038C110.36 98.819 109.623 98.413 109.408 97.6701C109.193 96.9272 109.598 96.1902 110.341 95.975C111.084 95.7597 111.821 96.1657 112.036 96.9086ZM106.894 98.3985C107.109 99.1415 106.703 99.8785 105.96 100.094C105.217 100.309 104.48 99.903 104.265 99.1601C104.05 98.4171 104.456 97.6801 105.198 97.4649C105.941 97.2497 106.678 97.6556 106.894 98.3985ZM101.694 99.905C101.909 100.648 101.503 101.385 100.76 101.6C100.017 101.815 99.2803 101.409 99.0651 100.667C98.8498 99.9237 99.2556 99.1867 99.9985 98.9714C100.741 98.7562 101.478 99.1621 101.694 99.905ZM96.5508 101.395C96.766 102.138 96.3601 102.875 95.6173 103.09C94.8744 103.305 94.1375 102.899 93.9222 102.157C93.707 101.414 94.1128 100.677 94.8557 100.461C95.5985 100.246 96.3355 100.652 96.5508 101.395ZM91.3508 102.902C91.5661 103.644 91.1602 104.382 90.4173 104.597C89.6745 104.812 88.9375 104.406 88.7222 103.663C88.507 102.92 88.9129 102.183 89.6557 101.968C90.3986 101.753 91.1356 102.159 91.3508 102.902ZM86.208 104.391C86.4232 105.134 86.0174 105.871 85.2745 106.087C84.5317 106.302 83.7946 105.896 83.5794 105.153C83.3642 104.41 83.7701 103.673 84.5129 103.458C85.2558 103.243 85.9928 103.649 86.208 104.391ZM81.0652 105.881C81.2804 106.624 80.8746 107.361 80.1317 107.577C79.3888 107.792 78.6518 107.386 78.4366 106.643C78.2214 105.9 78.6272 105.163 79.3701 104.948C80.1129 104.733 80.85 105.139 81.0652 105.881Z" fill="#231F20"/>
<path d="M141.274 120.649C141.175 120.306 140.961 119.996 140.609 119.85C140.315 119.688 139.922 119.616 139.579 119.715C139.236 119.815 138.927 120.028 138.781 120.38C138.456 120.97 138.721 121.884 139.311 122.209C139.605 122.371 139.998 122.443 140.341 122.344C140.684 122.245 140.993 122.031 141.139 121.679C141.359 121.368 141.374 120.992 141.274 120.649Z" fill="#231F20"/>
<path d="M139.552 114.706C139.453 114.363 139.239 114.053 138.887 113.907C138.593 113.745 138.2 113.673 137.857 113.772C137.514 113.871 137.205 114.085 137.059 114.437C136.734 115.026 136.999 115.941 137.589 116.266C137.883 116.428 138.276 116.5 138.619 116.401C138.962 116.301 139.271 116.088 139.417 115.736C139.637 115.424 139.652 115.048 139.552 114.706Z" fill="#231F20"/>
<path d="M134.409 116.195C134.625 116.938 134.219 117.675 133.476 117.891C132.733 118.106 131.996 117.7 131.781 116.957C131.566 116.214 131.972 115.477 132.714 115.262C133.474 115.104 134.211 115.51 134.409 116.195ZM129.267 117.685C129.482 118.428 129.076 119.165 128.333 119.381C127.59 119.596 126.853 119.19 126.638 118.447C126.423 117.704 126.829 116.967 127.572 116.752C128.331 116.594 129.068 117 129.267 117.685Z" fill="#231F20"/>
<path d="M130.943 84.9887C130.844 84.6458 130.63 84.336 130.278 84.1902C129.983 84.0279 129.591 83.9558 129.248 84.0551C128.905 84.1544 128.595 84.3681 128.449 84.72C128.084 85.3833 128.332 86.2405 128.979 86.5487C129.274 86.7111 129.667 86.7832 130.009 86.6839C130.352 86.5845 130.662 86.3709 130.808 86.0189C131.027 85.7076 131.042 85.3316 130.943 84.9887Z" fill="#231F20"/>
<path d="M125.8 86.4788C126.015 87.2217 125.609 87.9587 124.867 88.1739C124.124 88.3891 123.387 87.9832 123.172 87.2403C122.956 86.4974 123.362 85.7604 124.105 85.5451C124.848 85.3299 125.585 85.7358 125.8 86.4788ZM120.657 87.9687C120.872 88.7116 120.467 89.4486 119.724 89.6638C118.981 89.8791 118.244 89.4732 118.029 88.7302C117.813 87.9873 118.219 87.2503 118.962 87.0351C119.705 86.8199 120.442 87.2258 120.657 87.9687ZM115.457 89.4752C115.673 90.2181 115.267 90.9552 114.524 91.1704C113.781 91.3856 113.044 90.9797 112.829 90.2368C112.614 89.4938 113.019 88.7568 113.762 88.5416C114.505 88.3264 115.242 88.7323 115.457 89.4752ZM110.314 90.9652C110.53 91.7081 110.124 92.4451 109.381 92.6603C108.638 92.8756 107.901 92.4696 107.686 91.7267C107.471 90.9838 107.877 90.2468 108.619 90.0316C109.362 89.8164 110.099 90.2223 110.314 90.9652ZM105.172 92.4551C105.387 93.1981 104.981 93.9351 104.238 94.1503C103.495 94.3655 102.758 93.9596 102.543 93.2167C102.328 92.4738 102.734 91.7368 103.477 91.5216C104.162 91.3229 104.956 91.7122 105.172 92.4551ZM99.9717 93.9617C100.187 94.7046 99.7811 95.4416 99.0382 95.6568C98.2954 95.872 97.5584 95.4661 97.3432 94.7232C97.128 93.9803 97.5338 93.2433 98.2766 93.0281C99.0195 92.8128 99.7565 93.2188 99.9717 93.9617ZM94.8289 95.4516C95.0441 96.1945 94.6382 96.9316 93.8954 97.1468C93.1525 97.362 92.4156 96.9561 92.2004 96.2132C91.9851 95.4702 92.391 94.7332 93.1338 94.518C93.8767 94.3028 94.6137 94.7087 94.8289 95.4516ZM89.629 96.9581C89.8442 97.701 89.4383 98.4381 88.6954 98.6533C87.9526 98.8685 87.2156 98.4626 87.0003 97.7197C86.7851 96.9768 87.191 96.2398 87.9339 96.0245C88.6767 95.8093 89.4137 96.2152 89.629 96.9581ZM84.4861 98.4481C84.7014 99.191 84.2955 99.928 83.5526 100.143C82.8098 100.358 82.0728 99.9526 81.8575 99.2097C81.6423 98.4667 82.0482 97.7297 82.791 97.5145C83.5339 97.2993 84.2709 97.7052 84.4861 98.4481ZM79.3433 99.9381C79.5586 100.681 79.1527 101.418 78.4098 101.633C77.667 101.848 76.9299 101.443 76.7147 100.7C76.4995 99.9567 76.9054 99.2197 77.6482 99.0045C78.3911 98.7892 79.1281 99.1952 79.3433 99.9381ZM74.1433 101.445C74.3585 102.188 73.9527 102.925 73.2099 103.14C72.467 103.355 71.73 102.949 71.5148 102.206C71.2995 101.463 71.7054 100.726 72.4483 100.511C73.1911 100.296 73.9281 100.702 74.1433 101.445ZM69.0005 102.935C69.2157 103.677 68.8099 104.414 68.067 104.63C67.3242 104.845 66.5872 104.439 66.3719 103.696C66.1567 102.953 66.5626 102.216 67.3055 102.001C68.0483 101.786 68.7853 102.192 69.0005 102.935Z" fill="#231F20"/>
<path d="M129.221 79.0455C129.122 78.7026 128.908 78.3928 128.556 78.247C128.261 78.0846 127.869 78.0125 127.526 78.1118C127.183 78.2112 126.873 78.4248 126.727 78.7768C126.403 79.3664 126.668 80.2808 127.257 80.6055C127.552 80.7679 127.945 80.84 128.288 80.7406C128.63 80.6413 128.94 80.4277 129.086 80.0757C129.289 79.7072 129.32 79.3884 129.221 79.0455Z" fill="#231F20"/>
<path d="M124.078 80.5354C124.293 81.2783 123.888 82.0153 123.145 82.2305C122.402 82.4458 121.665 82.0399 121.45 81.2969C121.234 80.554 121.64 79.817 122.383 79.6018C123.126 79.3866 123.863 79.7925 124.078 80.5354ZM118.935 82.0254C119.151 82.7683 118.745 83.5053 118.002 83.7205C117.259 83.9357 116.522 83.5298 116.307 82.7869C116.092 82.044 116.497 81.3069 117.24 81.0917C117.983 80.8765 118.72 81.2824 118.935 82.0254ZM113.735 83.5319C113.951 84.2748 113.545 85.0118 112.802 85.227C112.059 85.4423 111.322 85.0363 111.107 84.2934C110.892 83.5505 111.297 82.8135 112.04 82.5983C112.783 82.383 113.52 82.789 113.735 83.5319ZM108.593 85.0218C108.808 85.7648 108.402 86.5018 107.659 86.717C106.916 86.9322 106.179 86.5263 105.964 85.7834C105.749 85.0404 106.155 84.3034 106.897 84.0882C107.64 83.873 108.377 84.2789 108.593 85.0218ZM103.45 86.5118C103.665 87.2547 103.259 87.9917 102.516 88.207C101.773 88.4222 101.036 88.0162 100.821 87.2733C100.606 86.5304 101.012 85.7934 101.755 85.5782C102.44 85.3795 103.235 85.7689 103.45 86.5118ZM98.2498 88.0183C98.4651 88.7612 98.0592 89.4983 97.3163 89.7135C96.5735 89.9287 95.8365 89.5228 95.6213 88.7798C95.4061 88.0369 95.8119 87.2999 96.5547 87.0847C97.2976 86.8695 98.0346 87.2754 98.2498 88.0183ZM93.107 89.5083C93.3223 90.2512 92.9164 90.9882 92.1735 91.2034C91.4307 91.4186 90.6937 91.0127 90.4785 90.2698C90.2633 89.5269 90.6691 88.7899 91.4119 88.5747C92.1548 88.3594 92.8918 88.7653 93.107 89.5083ZM87.9071 91.0148C88.1223 91.7577 87.7164 92.4947 86.9736 92.7099C86.2307 92.9252 85.4937 92.5193 85.2785 91.7763C85.0632 91.0334 85.4691 90.2964 86.212 90.0812C86.9548 89.866 87.6918 90.2719 87.9071 91.0148ZM82.7643 92.5047C82.9795 93.2477 82.5736 93.9847 81.8308 94.1999C81.0879 94.4151 80.3509 94.0092 80.1357 93.2663C79.9204 92.5234 80.3263 91.7863 81.0692 91.5711C81.812 91.3559 82.549 91.7618 82.7643 92.5047ZM77.6214 93.9947C77.8367 94.7376 77.4308 95.4747 76.6879 95.6899C75.9451 95.9051 75.2081 95.4992 74.9928 94.7563C74.7776 94.0133 75.1835 93.2763 75.9263 93.0611C76.6692 92.8459 77.4062 93.2518 77.6214 93.9947ZM72.4214 95.5012C72.6367 96.2442 72.2308 96.9812 71.488 97.1964C70.7451 97.4116 70.0081 97.0057 69.7929 96.2628C69.5777 95.5198 69.9835 94.7828 70.7264 94.5676C71.4692 94.3524 72.2062 94.7583 72.4214 95.5012ZM67.2786 96.9912C67.4938 97.7341 67.088 98.4711 66.3452 98.6863C65.6023 98.9016 64.8653 98.4956 64.6501 97.7527C64.4348 97.0098 64.8407 96.2728 65.5836 96.0576C66.3264 95.8423 67.0634 96.2483 67.2786 96.9912ZM62.1358 98.4812C62.351 99.2241 61.9452 99.9611 61.2024 100.176C60.4595 100.392 59.7225 99.9856 59.5073 99.2427C59.292 98.4998 59.6979 97.7627 60.4408 97.5475C61.1265 97.3489 61.9206 97.7382 62.1358 98.4812ZM56.9359 99.9877C57.1511 100.731 56.7453 101.468 56.0024 101.683C55.2596 101.898 54.5226 101.492 54.3073 100.749C54.0921 100.006 54.498 99.2693 55.2408 99.054C55.9837 98.8388 56.7206 99.2448 56.9359 99.9877Z" fill="#231F20"/>
<path d="M127.483 73.045C127.383 72.7021 127.17 72.3923 126.818 72.2465C126.523 72.0841 126.13 72.012 125.788 72.1114C125.445 72.2107 125.135 72.4243 124.989 72.7763C124.664 73.3659 124.929 74.2803 125.519 74.605C125.814 74.7674 126.206 74.8394 126.549 74.7401C126.892 74.6408 127.202 74.4272 127.348 74.0752C127.567 73.7639 127.582 73.3879 127.483 73.045Z" fill="#231F20"/>
<path d="M122.34 74.535C122.555 75.2779 122.149 76.0149 121.406 76.2301C120.664 76.4453 119.927 76.0394 119.711 75.2965C119.496 74.5536 119.902 73.8166 120.645 73.6014C121.404 73.4433 122.141 73.8492 122.34 74.535ZM117.197 76.025C117.412 76.7679 117.006 77.5049 116.264 77.7201C115.521 77.9353 114.784 77.5294 114.568 76.7865C114.353 76.0436 114.759 75.3066 115.502 75.0913C116.261 74.9333 116.998 75.3392 117.197 76.025ZM111.997 77.5315C112.212 78.2744 111.806 79.0114 111.064 79.2266C110.321 79.4418 109.584 79.0359 109.369 78.293C109.153 77.5501 109.559 76.8131 110.302 76.5979C111.061 76.4398 111.798 76.8457 111.997 77.5315ZM106.854 79.0214C107.069 79.7643 106.664 80.5014 105.921 80.7166C105.178 80.9318 104.441 80.5259 104.226 79.783C104.01 79.0401 104.416 78.303 105.159 78.0878C105.902 77.8726 106.656 78.3357 106.854 79.0214ZM101.711 80.5114C101.927 81.2543 101.521 81.9913 100.778 82.2065C100.035 82.4218 99.2981 82.0158 99.0829 81.2729C98.8676 80.53 99.2735 79.793 100.016 79.5778C100.759 79.3626 101.513 79.8256 101.711 80.5114ZM96.5115 82.0179C96.7267 82.7608 96.3208 83.4978 95.5779 83.7131C94.8351 83.9283 94.0981 83.5223 93.8829 82.7794C93.6677 82.0365 94.0735 81.2995 94.8164 81.0843C95.5758 80.9262 96.3128 81.3321 96.5115 82.0179ZM91.3686 83.5079C91.5839 84.2508 91.178 84.9878 90.4351 85.203C89.6923 85.4182 88.9553 85.0123 88.7401 84.2694C88.5249 83.5265 88.9307 82.7895 89.6735 82.5743C90.4329 82.4162 91.17 82.8221 91.3686 83.5079ZM86.1687 85.0144C86.3839 85.7573 85.978 86.4943 85.2352 86.7095C84.4923 86.9247 83.7553 86.5188 83.5401 85.7759C83.3248 85.033 83.7307 84.296 84.4736 84.0808C85.233 83.9227 85.97 84.3286 86.1687 85.0144ZM81.0259 86.5043C81.2411 87.2473 80.8352 87.9843 80.0924 88.1995C79.3495 88.4147 78.6125 88.0088 78.3973 87.2659C78.182 86.523 78.5879 85.786 79.3308 85.5707C80.0902 85.4127 80.8272 85.8186 81.0259 86.5043ZM75.883 87.9943C76.0983 88.7372 75.6924 89.4742 74.9495 89.6895C74.2067 89.9047 73.4697 89.4988 73.2544 88.7559C73.0392 88.0129 73.4451 87.2759 74.1879 87.0607C74.9474 86.9026 75.6844 87.3085 75.883 87.9943ZM70.683 89.5008C70.8983 90.2437 70.4924 90.9807 69.7496 91.196C69.0067 91.4112 68.2697 91.0053 68.0545 90.2624C67.8393 89.5195 68.2451 88.7824 68.988 88.5672C69.7474 88.4091 70.4844 88.8151 70.683 89.5008ZM65.5402 90.9908C65.7554 91.7337 65.3496 92.4707 64.6068 92.6859C63.8639 92.9011 63.1269 92.4952 62.9117 91.7523C62.6964 91.0094 63.1023 90.2724 63.8452 90.0572C64.588 89.842 65.3415 90.305 65.5402 90.9908ZM60.3974 92.4808C60.6126 93.2237 60.2068 93.9607 59.464 94.1759C58.7211 94.3911 57.9841 93.9852 57.7689 93.2423C57.5536 92.4994 57.9595 91.7624 58.7024 91.5471C59.4046 91.4056 60.1987 91.795 60.3974 92.4808ZM55.1974 93.9873C55.4127 94.7302 55.0069 95.4672 54.264 95.6824C53.5212 95.8976 52.7841 95.4917 52.5689 94.7488C52.3537 94.0059 52.7596 93.2689 53.5024 93.0537C54.2618 92.8956 54.9988 93.3015 55.1974 93.9873ZM50.0546 95.4772C50.2699 96.2201 49.864 96.9571 49.1212 97.1724C48.3783 97.3876 47.6413 96.9817 47.4261 96.2388C47.2108 95.4959 47.6167 94.7588 48.3596 94.5436C49.119 94.3855 49.8559 94.7915 50.0546 95.4772ZM44.8547 96.9837C45.0699 97.7267 44.664 98.4637 43.9212 98.6789C43.1783 98.8941 42.4414 98.4882 42.2261 97.7453C42.0109 97.0024 42.4167 96.2654 43.1596 96.0502C43.919 95.8921 44.656 96.298 44.8547 96.9837Z" fill="#231F20"/>
<path d="M125.761 67.1017C125.661 66.7588 125.448 66.449 125.096 66.3032C124.801 66.1408 124.409 66.0687 124.066 66.168C123.723 66.2673 123.413 66.481 123.267 66.8329C122.943 67.4226 123.207 68.3369 123.797 68.6617C124.092 68.824 124.484 68.8961 124.827 68.7968C125.17 68.6975 125.48 68.4838 125.626 68.1319C125.845 67.8205 125.86 67.4445 125.761 67.1017Z" fill="#231F20"/>
<path d="M120.618 68.5916C120.833 69.3345 120.427 70.0715 119.684 70.2868C118.942 70.502 118.205 70.0961 117.989 69.3531C117.774 68.6102 118.18 67.8732 118.923 67.6579C119.682 67.4999 120.419 67.9058 120.618 68.5916ZM115.475 70.0816C115.69 70.8245 115.285 71.5615 114.542 71.7767C113.799 71.9919 113.062 71.586 112.847 70.8431C112.631 70.1002 113.037 69.3631 113.78 69.1479C114.539 68.9898 115.276 69.3958 115.475 70.0816ZM110.275 71.5881C110.49 72.331 110.084 73.068 109.342 73.2832C108.599 73.4985 107.862 73.0925 107.647 72.3496C107.431 71.6067 107.837 70.8697 108.58 70.6544C109.339 70.4964 110.076 70.9023 110.275 71.5881ZM105.132 73.078C105.348 73.821 104.942 74.558 104.199 74.7732C103.456 74.9884 102.719 74.5825 102.504 73.8396C102.289 73.0967 102.694 72.3596 103.437 72.1444C104.18 71.9292 104.934 72.3923 105.132 73.078ZM99.9895 74.568C100.205 75.3109 99.7988 76.048 99.056 76.2632C98.3131 76.4784 97.5762 76.0725 97.361 75.3295C97.1457 74.5866 97.5515 73.8496 98.2944 73.6344C99.0372 73.4191 99.7908 73.8822 99.9895 74.568ZM94.7895 76.0745C95.0048 76.8174 94.5989 77.5545 93.856 77.7697C93.1132 77.9849 92.3762 77.579 92.161 76.8361C91.9458 76.0931 92.3516 75.3561 93.0944 75.1409C93.8538 74.9828 94.5909 75.3888 94.7895 76.0745ZM89.6467 77.5645C89.862 78.3074 89.4561 79.0444 88.7132 79.2596C87.9704 79.4749 87.2334 79.0689 87.0182 78.326C86.803 77.5831 87.2088 76.8461 87.9516 76.6308C88.711 76.4728 89.448 76.8787 89.6467 77.5645ZM84.4468 79.071C84.662 79.8139 84.2561 80.5509 83.5133 80.7662C82.7704 80.9814 82.0334 80.5755 81.8182 79.8326C81.6029 79.0896 82.0088 78.3526 82.7517 78.1374C83.5111 77.9793 84.2481 78.3852 84.4468 79.071ZM79.304 80.561C79.5192 81.3039 79.1133 82.0409 78.3705 82.2561C77.6276 82.4713 76.8906 82.0654 76.6753 81.3225C76.4601 80.5796 76.866 79.8425 77.6088 79.6273C78.3682 79.4692 79.1053 79.8752 79.304 80.561ZM74.1611 82.0509C74.3764 82.7938 73.9705 83.5309 73.2276 83.7461C72.4848 83.9613 71.7478 83.5554 71.5325 82.8125C71.3173 82.0696 71.7232 81.3325 72.466 81.1173C73.2254 80.9592 73.9625 81.3652 74.1611 82.0509ZM68.9611 83.5575C69.1764 84.3004 68.7705 85.0374 68.0277 85.2526C67.2848 85.4678 66.5478 85.0619 66.3326 84.319C66.1173 83.5761 66.5232 82.839 67.2661 82.6238C68.0255 82.4657 68.7624 82.8717 68.9611 83.5575ZM63.8183 85.0474C64.0335 85.7903 63.6277 86.5273 62.8849 86.7426C62.142 86.9578 61.405 86.5519 61.1898 85.809C60.9745 85.066 61.3804 84.329 62.1233 84.1138C62.8661 83.8985 63.6196 84.3616 63.8183 85.0474ZM58.6755 86.5374C58.8907 87.2803 58.4849 88.0173 57.742 88.2325C56.9992 88.4477 56.2622 88.0418 56.0469 87.2989C55.8317 86.556 56.2376 85.8189 56.9804 85.6037C57.6827 85.4622 58.4768 85.8516 58.6755 86.5374ZM53.4755 88.0439C53.6908 88.7868 53.2849 89.5238 52.5421 89.739C51.7992 89.9543 51.0622 89.5483 50.847 88.8054C50.6318 88.0625 51.0376 87.3254 51.7805 87.1102C52.5399 86.9522 53.2768 87.3581 53.4755 88.0439ZM48.3327 89.5339C48.5479 90.2768 48.1421 91.0138 47.3993 91.229C46.6564 91.4442 45.9194 91.0383 45.7042 90.2954C45.4889 89.5525 45.8948 88.8154 46.6377 88.6002C47.3971 88.4421 48.134 88.8481 48.3327 89.5339ZM43.1328 91.0404C43.348 91.7833 42.9421 92.5203 42.1993 92.7355C41.4564 92.9507 40.7195 92.5448 40.5042 91.8019C40.289 91.059 40.6948 90.3219 41.4376 90.1067C42.1971 89.9487 42.9341 90.3546 43.1328 91.0404ZM37.9899 92.5303C38.2052 93.2733 37.7993 94.0103 37.0564 94.2255C36.3136 94.4407 35.5766 94.0348 35.3614 93.2919C35.1462 92.5489 35.552 91.8119 36.2948 91.5967C37.0542 91.4386 37.7913 91.8446 37.9899 92.5303ZM32.8471 94.0203C33.0624 94.7632 32.6565 95.5002 31.9136 95.7155C31.1708 95.9307 30.4338 95.5247 30.2186 94.7818C30.0033 94.0389 30.4092 93.3019 31.152 93.0867C31.8543 92.9451 32.6484 93.3345 32.8471 94.0203Z" fill="#231F20"/>
<path d="M124.039 61.1584C123.939 60.8155 123.726 60.5057 123.374 60.3599C123.079 60.1975 122.687 60.1254 122.344 60.2248C122.001 60.3241 121.691 60.5377 121.545 60.8897C121.237 61.5365 121.486 62.3937 122.075 62.7184C122.37 62.8808 122.762 62.9529 123.105 62.8535C123.448 62.7542 123.758 62.5406 123.904 62.1886C124.123 61.8772 124.138 61.5013 124.039 61.1584Z" fill="#231F20"/>
<path d="M118.896 62.6483C119.111 63.3913 118.705 64.1283 117.963 64.3435C117.22 64.5587 116.483 64.1528 116.267 63.4099C116.052 62.6669 116.458 61.9299 117.201 61.7147C117.944 61.4995 118.697 61.9626 118.896 62.6483ZM113.753 64.1383C113.968 64.8812 113.563 65.6182 112.82 65.8334C112.077 66.0487 111.34 65.6427 111.125 64.8998C110.909 64.1569 111.315 63.4199 112.058 63.2047C112.801 62.9894 113.554 63.4525 113.753 64.1383ZM108.553 65.6448C108.768 66.3877 108.363 67.1248 107.62 67.34C106.877 67.5552 106.14 67.1493 105.925 66.4063C105.709 65.6634 106.115 64.9264 106.858 64.7112C107.601 64.496 108.354 64.959 108.553 65.6448ZM103.41 67.1348C103.626 67.8777 103.22 68.6147 102.477 68.8299C101.734 69.0452 100.997 68.6392 100.782 67.8963C100.567 67.1534 100.972 66.4164 101.715 66.2012C102.458 65.9859 103.212 66.449 103.41 67.1348ZM98.2675 68.6247C98.4828 69.3677 98.0769 70.1047 97.334 70.3199C96.5912 70.5351 95.8542 70.1292 95.639 69.3863C95.4238 68.6433 95.8296 67.9063 96.5724 67.6911C97.3153 67.4759 98.0689 67.939 98.2675 68.6247ZM93.0676 70.1312C93.2828 70.8742 92.8769 71.6112 92.1341 71.8264C91.3912 72.0416 90.6543 71.6357 90.439 70.8928C90.2238 70.1499 90.6296 69.4129 91.3725 69.1976C92.1153 68.9824 92.8689 69.4455 93.0676 70.1312ZM87.9248 71.6212C88.14 72.3641 87.7341 73.1012 86.9913 73.3164C86.2484 73.5316 85.5115 73.1257 85.2962 72.3827C85.081 71.6398 85.4868 70.9028 86.2297 70.6876C86.9725 70.4724 87.7261 70.9354 87.9248 71.6212ZM82.7248 73.1277C82.9401 73.8706 82.5342 74.6077 81.7913 74.8229C81.0485 75.0381 80.3114 74.6322 80.0962 73.8893C79.881 73.1464 80.2869 72.4093 81.0297 72.1941C81.7726 71.9789 82.5261 72.4419 82.7248 73.1277ZM77.582 74.6177C77.7972 75.3606 77.3913 76.0976 76.6485 76.3128C75.9056 76.5281 75.1686 76.1222 74.9534 75.3792C74.7382 74.6363 75.144 73.8993 75.8869 73.6841C76.6297 73.4689 77.3833 73.9319 77.582 74.6177ZM72.4392 76.1076C72.6544 76.8506 72.2485 77.5876 71.5057 77.8028C70.7628 78.018 70.0258 77.6121 69.8106 76.8692C69.5953 76.1263 70.0012 75.3892 70.7441 75.174C71.4869 74.9588 72.2405 75.4219 72.4392 76.1076ZM67.2392 77.6142C67.4544 78.3571 67.0486 79.0941 66.3057 79.3093C65.5629 79.5245 64.8259 79.1186 64.6106 78.3757C64.3954 77.6328 64.8013 76.8958 65.5441 76.6805C66.287 76.4653 67.0405 76.9284 67.2392 77.6142ZM62.0963 79.1041C62.3116 79.8471 61.9058 80.5841 61.1629 80.7993C60.4201 81.0145 59.683 80.6086 59.4678 79.8657C59.2526 79.1228 59.6585 78.3857 60.4013 78.1705C61.1442 77.9553 61.8977 78.4184 62.0963 79.1041ZM56.9535 80.5941C57.1688 81.337 56.7629 82.074 56.0201 82.2892C55.2772 82.5045 54.5402 82.0986 54.325 81.3556C54.1098 80.6127 54.5156 79.8757 55.2585 79.6605C55.9442 79.4618 56.7548 79.9083 56.9535 80.5941ZM51.7536 82.1006C51.9688 82.8435 51.563 83.5805 50.8201 83.7958C50.0773 84.011 49.3403 83.6051 49.125 82.8621C48.9098 82.1192 49.3157 81.3822 50.0585 81.167C50.8014 80.9518 51.5549 81.4148 51.7536 82.1006ZM46.6108 83.5906C46.826 84.3335 46.4202 85.0705 45.6773 85.2857C44.9345 85.5009 44.1975 85.095 43.9822 84.3521C43.767 83.6092 44.1729 82.8722 44.9157 82.6569C45.6586 82.4417 46.4121 82.9048 46.6108 83.5906ZM41.4108 85.0971C41.6261 85.84 41.2202 86.577 40.4773 86.7923C39.7345 87.0075 38.9975 86.6015 38.7823 85.8586C38.567 85.1157 38.9729 84.3787 39.7157 84.1635C40.4586 83.9483 41.2121 84.4113 41.4108 85.0971ZM36.268 86.587C36.4832 87.33 36.0773 88.067 35.3345 88.2822C34.5916 88.4974 33.8547 88.0915 33.6395 87.3486C33.4242 86.6057 33.83 85.8687 34.5729 85.6534C35.3157 85.4382 36.0693 85.9013 36.268 86.587ZM31.1252 88.077C31.3404 88.8199 30.9345 89.557 30.1917 89.7722C29.4488 89.9874 28.7119 89.5815 28.4966 88.8385C28.2814 88.0956 28.6872 87.3586 29.4301 87.1434C30.1158 86.9447 30.9265 87.3912 31.1252 88.077ZM25.9252 89.5835C26.1405 90.3264 25.7346 91.0635 24.9917 91.2787C24.2489 91.4939 23.5119 91.088 23.2967 90.3451C23.0815 89.6021 23.4873 88.8651 24.2301 88.6499C24.973 88.4347 25.7265 88.8978 25.9252 89.5835ZM20.7824 91.0735C20.9976 91.8164 20.5918 92.5534 19.8489 92.7687C19.1061 92.9839 18.3691 92.5779 18.1539 91.835C17.9386 91.0921 18.3445 90.3551 19.0873 90.1399C19.8302 89.9247 20.5837 90.3877 20.7824 91.0735Z" fill="#231F20"/>
<path d="M122.317 55.215C122.218 54.8722 122.004 54.5624 121.652 54.4166C121.357 54.2542 120.965 54.1821 120.622 54.2814C120.279 54.3807 119.969 54.5944 119.823 54.9463C119.515 55.5931 119.764 56.4503 120.353 56.7751C120.648 56.9375 121.041 57.0096 121.383 56.9102C121.726 56.8109 122.036 56.5973 122.182 56.2453C122.401 55.9339 122.416 55.5579 122.317 55.215Z" fill="#231F20"/>
<path d="M117.174 56.705C117.389 57.4479 116.983 58.185 116.241 58.4002C115.498 58.6154 114.761 58.2095 114.546 57.4665C114.33 56.7236 114.736 55.9866 115.479 55.7713C116.222 55.5561 116.975 56.0192 117.174 56.705ZM112.031 58.195C112.246 58.9379 111.841 59.6749 111.098 59.8901C110.355 60.1054 109.618 59.6994 109.403 58.9565C109.187 58.2136 109.593 57.4765 110.336 57.2613C111.079 57.0461 111.833 57.5092 112.031 58.195ZM106.831 59.7015C107.047 60.4444 106.641 61.1815 105.898 61.3967C105.155 61.6119 104.418 61.2059 104.203 60.463C103.988 59.7201 104.393 58.9831 105.136 58.7678C105.879 58.5526 106.633 59.0157 106.831 59.7015ZM101.688 61.1914C101.904 61.9344 101.498 62.6714 100.755 62.8866C100.012 63.1019 99.2752 62.6959 99.0599 61.953C98.8447 61.21 99.2505 60.473 99.9933 60.2578C100.736 60.0426 101.49 60.5057 101.688 61.1914ZM96.5456 62.6814C96.7609 63.4243 96.355 64.1614 95.6122 64.3766C94.8693 64.5918 94.1323 64.1859 93.9171 63.4429C93.7019 62.7 94.1077 61.963 94.8505 61.7478C95.5934 61.5326 96.347 61.9956 96.5456 62.6814ZM91.3457 64.1879C91.5609 64.9308 91.1551 65.6679 90.4122 65.8831C89.6693 66.0983 88.9324 65.6924 88.7171 64.9494C88.5019 64.2065 88.9077 63.4695 89.6506 63.2543C90.3934 63.0391 91.147 63.5021 91.3457 64.1879ZM86.2029 65.6779C86.4181 66.4208 86.0122 67.1579 85.2694 67.3731C84.5265 67.5883 83.7896 67.1823 83.5743 66.4394C83.3591 65.6965 83.7649 64.9595 84.5078 64.7442C85.2506 64.529 86.0042 64.9921 86.2029 65.6779ZM81.0029 67.1844C81.2182 67.9273 80.8123 68.6644 80.0694 68.8796C79.3266 69.0948 78.5896 68.6889 78.3743 67.9459C78.1591 67.203 78.565 66.466 79.3078 66.2508C80.0507 66.0355 80.8042 66.4986 81.0029 67.1844ZM75.8601 68.6743C76.0753 69.4173 75.6695 70.1543 74.9266 70.3696C74.1838 70.5848 73.4467 70.1788 73.2315 69.4359C73.0163 68.693 73.4221 67.9559 74.165 67.7407C74.9078 67.5255 75.6614 67.9886 75.8601 68.6743ZM70.7173 70.1643C70.9325 70.9072 70.5266 71.6443 69.7838 71.8595C69.0409 72.0747 68.3039 71.6688 68.0887 70.9259C67.8734 70.1829 68.2793 69.4459 69.0222 69.2307C69.765 69.0155 70.5186 69.4785 70.7173 70.1643ZM65.5173 71.6708C65.7325 72.4138 65.3267 73.1508 64.5838 73.366C63.841 73.5812 63.104 73.1753 62.8887 72.4324C62.6735 71.6894 63.0794 70.9524 63.8222 70.7372C64.5651 70.522 65.3186 70.9851 65.5173 71.6708ZM60.3744 73.1608C60.5897 73.9037 60.1839 74.6408 59.441 74.856C58.6982 75.0712 57.9611 74.6653 57.7459 73.9223C57.5307 73.1794 57.9366 72.4424 58.6794 72.2272C59.4223 72.0119 60.1758 72.475 60.3744 73.1608ZM55.2316 74.6508C55.4469 75.3937 55.0411 76.1307 54.2982 76.346C53.5554 76.5612 52.8183 76.1552 52.6031 75.4123C52.3878 74.6694 52.7937 73.9323 53.5366 73.7171C54.2223 73.5185 55.0329 73.965 55.2316 74.6508ZM50.0317 76.1573C50.2469 76.9002 49.8411 77.6373 49.0983 77.8525C48.3554 78.0677 47.6184 77.6617 47.4031 76.9188C47.1879 76.1759 47.5938 75.4389 48.3366 75.2236C49.0795 75.0084 49.833 75.4715 50.0317 76.1573ZM44.8889 77.6472C45.1041 78.3902 44.6983 79.1272 43.9554 79.3424C43.2126 79.5576 42.4756 79.1517 42.2603 78.4088C42.0451 77.6658 42.451 76.9288 43.1938 76.7136C43.9367 76.4984 44.6902 76.9615 44.8889 77.6472ZM39.6889 79.1538C39.9041 79.8967 39.4983 80.6337 38.7554 80.849C38.0126 81.0642 37.2756 80.6582 37.0604 79.9153C36.8451 79.1724 37.2509 78.4353 37.9938 78.2201C38.7366 78.0049 39.4902 78.468 39.6889 79.1538ZM34.5461 80.6437C34.7613 81.3866 34.3554 82.1237 33.6126 82.3389C32.8697 82.5541 32.1328 82.1482 31.9175 81.4052C31.7023 80.6623 32.1081 79.9253 32.851 79.7101C33.5938 79.4949 34.3474 79.9579 34.5461 80.6437ZM29.4033 82.1337C29.6185 82.8766 29.2126 83.6137 28.4698 83.8289C27.7269 84.0441 26.99 83.6381 26.7747 82.8952C26.5595 82.1523 26.9653 81.4153 27.7082 81.2001C28.3939 81.0014 29.2046 81.4479 29.4033 82.1337Z" fill="#231F20"/>
<path d="M120.595 49.2717C120.496 48.9288 120.282 48.619 119.93 48.4732C119.635 48.3108 119.243 48.2387 118.9 48.338C118.557 48.4374 118.247 48.651 118.102 49.0029C117.777 49.5926 118.042 50.5069 118.631 50.8316C118.926 50.994 119.319 51.0661 119.662 50.9668C120.004 50.8675 120.314 50.6538 120.46 50.3019C120.679 49.9905 120.694 49.6145 120.595 49.2717Z" fill="#231F20"/>
<path d="M115.452 50.7617C115.667 51.5046 115.262 52.2416 114.519 52.4568C113.776 52.672 113.039 52.2661 112.824 51.5232C112.608 50.7803 113.014 50.0433 113.757 49.8281C114.5 49.6128 115.237 50.0188 115.452 50.7617ZM110.309 52.2516C110.525 52.9945 110.119 53.7315 109.376 53.9468C108.633 54.162 107.896 53.7561 107.681 53.0132C107.466 52.2703 107.872 51.5332 108.614 51.318C109.357 51.1028 110.094 51.5087 110.309 52.2516ZM105.109 53.7581C105.325 54.5011 104.919 55.2381 104.176 55.4533C103.433 55.6685 102.696 55.2626 102.481 54.5197C102.266 53.7768 102.672 53.0398 103.414 52.8246C104.157 52.6093 104.894 53.0152 105.109 53.7581ZM99.9666 55.2481C100.182 55.991 99.776 56.728 99.0331 56.9433C98.2903 57.1585 97.5533 56.7526 97.3381 56.0096C97.1229 55.2667 97.5287 54.5297 98.2716 54.3145C99.0144 54.0993 99.7514 54.5052 99.9666 55.2481ZM94.8238 56.7381C95.0391 57.481 94.6332 58.218 93.8903 58.4332C93.1475 58.6484 92.4105 58.2425 92.1953 57.4996C91.9801 56.7567 92.3859 56.0197 93.1287 55.8045C93.8144 55.6058 94.6086 55.9952 94.8238 56.7381ZM89.6239 58.2446C89.8391 58.9875 89.4332 59.7245 88.6904 59.9397C87.9475 60.155 87.2106 59.749 86.9953 59.0061C86.7801 58.2632 87.1859 57.5262 87.9288 57.311C88.6716 57.0958 89.4086 57.5017 89.6239 58.2446ZM84.4811 59.7345C84.6963 60.4775 84.2904 61.2145 83.5476 61.4297C82.8047 61.6449 82.0678 61.239 81.8525 60.4961C81.6373 59.7532 82.0431 59.0162 82.786 58.801C83.5288 58.5857 84.2658 58.9916 84.4811 59.7345ZM79.2811 61.2411C79.4963 61.984 79.0905 62.721 78.3476 62.9362C77.6048 63.1514 76.8677 62.7455 76.6525 62.0026C76.4373 61.2597 76.8432 60.5227 77.586 60.3075C78.3289 60.0922 79.0659 60.4982 79.2811 61.2411ZM74.1383 62.731C74.3535 63.4739 73.9476 64.211 73.2048 64.4262C72.4619 64.6414 71.7249 64.2355 71.5097 63.4926C71.2945 62.7497 71.7003 62.0126 72.4432 61.7974C73.186 61.5822 73.9231 61.9881 74.1383 62.731ZM68.9955 64.221C69.2107 64.9639 68.8048 65.7009 68.062 65.9161C67.3191 66.1314 66.5821 65.7255 66.3669 64.9825C66.1516 64.2396 66.5575 63.5026 67.3004 63.2874C68.0432 63.0722 68.7802 63.4781 68.9955 64.221ZM63.7955 65.7275C64.0107 66.4704 63.6049 67.2074 62.862 67.4227C62.1192 67.6379 61.3821 67.232 61.1669 66.4891C60.9517 65.7461 61.3576 65.0091 62.1004 64.7939C62.8433 64.5787 63.5802 64.9846 63.7955 65.7275ZM58.6526 67.2175C58.8679 67.9604 58.462 68.6974 57.7192 68.9126C56.9763 69.1278 56.2393 68.7219 56.0241 67.979C55.8089 67.2361 56.2148 66.4991 56.9576 66.2839C57.7005 66.0686 58.4374 66.4746 58.6526 67.2175ZM53.5098 68.7074C53.725 69.4504 53.3192 70.1874 52.5764 70.4026C51.8335 70.6178 51.0965 70.2119 50.8813 69.469C50.666 68.7261 51.0719 67.989 51.8148 67.7738C52.5005 67.5752 53.2946 67.9645 53.5098 68.7074ZM48.3099 70.214C48.5251 70.9569 48.1193 71.6939 47.3764 71.9091C46.6336 72.1243 45.8966 71.7184 45.6813 70.9755C45.4661 70.2326 45.872 69.4956 46.6148 69.2803C47.3577 69.0651 48.0946 69.471 48.3099 70.214ZM43.167 71.7039C43.3823 72.4468 42.9765 73.1838 42.2336 73.399C41.4908 73.6143 40.7537 73.2084 40.5385 72.4655C40.3233 71.7225 40.7292 70.9855 41.472 70.7703C42.2149 70.5551 42.9518 70.961 43.167 71.7039ZM37.9671 73.2104C38.1823 73.9533 37.7764 74.6904 37.0336 74.9056C36.2907 75.1208 35.5538 74.7149 35.3386 73.972C35.1233 73.2291 35.5291 72.4921 36.272 72.2768C37.0148 72.0616 37.7519 72.4675 37.9671 73.2104Z" fill="#231F20"/>
<path d="M118.873 43.3284C118.774 42.9855 118.56 42.6758 118.208 42.53C117.913 42.3676 117.521 42.2955 117.178 42.3948C116.835 42.4941 116.525 42.7078 116.38 43.0597C116.071 43.7065 116.32 44.5637 116.909 44.8885C117.204 45.0508 117.597 45.1229 117.94 45.0236C118.282 44.9242 118.592 44.7107 118.738 44.3587C118.958 44.0473 118.972 43.6713 118.873 43.3284Z" fill="#231F20"/>
<path d="M113.73 44.8184C113.946 45.5613 113.54 46.2983 112.797 46.5135C112.054 46.7287 111.317 46.3228 111.102 45.5799C110.887 44.837 111.292 44.0999 112.035 43.8847C112.778 43.6695 113.515 44.0754 113.73 44.8184ZM108.587 46.3083C108.803 47.0512 108.397 47.7882 107.654 48.0035C106.911 48.2187 106.174 47.8128 105.959 47.0699C105.744 46.3269 106.15 45.5899 106.892 45.3747C107.635 45.1595 108.372 45.5654 108.587 46.3083ZM103.388 47.8148C103.603 48.5578 103.197 49.2948 102.454 49.51C101.711 49.7252 100.974 49.3193 100.759 48.5764C100.544 47.8334 100.95 47.0964 101.692 46.8812C102.435 46.666 103.172 47.0719 103.388 47.8148ZM98.2447 49.3048C98.4599 50.0477 98.0541 50.7847 97.3112 51C96.5683 51.2152 95.8314 50.8092 95.6162 50.0663C95.4009 49.3234 95.8067 48.5864 96.5496 48.3712C97.2925 48.156 98.0295 48.5619 98.2447 49.3048ZM93.1019 50.7948C93.3171 51.5377 92.9112 52.2747 92.1684 52.4899C91.4255 52.7051 90.6886 52.2992 90.4733 51.5563C90.2581 50.8134 90.6639 50.0764 91.4068 49.8611C92.1496 49.6459 92.8867 50.0518 93.1019 50.7948ZM87.9019 52.3013C88.1172 53.0442 87.7113 53.7812 86.9684 53.9964C86.2256 54.2116 85.4886 53.8057 85.2734 53.0628C85.0582 52.3199 85.464 51.5829 86.2068 51.3677C86.9497 51.1524 87.6867 51.5583 87.9019 52.3013ZM82.7591 53.7912C82.9744 54.5341 82.5685 55.2712 81.8256 55.4864C81.0828 55.7016 80.3458 55.2957 80.1306 54.5528C79.9154 53.8098 80.3212 53.0728 81.064 52.8576C81.8069 52.6424 82.5439 53.0483 82.7591 53.7912ZM77.5592 55.2977C77.7744 56.0407 77.3685 56.7777 76.6257 56.9929C75.8828 57.2081 75.1458 56.8022 74.9306 56.0593C74.7153 55.3164 75.1212 54.5793 75.8641 54.3641C76.6069 54.1489 77.3439 54.5548 77.5592 55.2977ZM72.4164 56.7877C72.6316 57.5306 72.2257 58.2676 71.4829 58.4829C70.74 58.6981 70.003 58.2922 69.7878 57.5493C69.5725 56.8063 69.9784 56.0693 70.7213 55.8541C71.4641 55.6389 72.2011 56.0448 72.4164 56.7877ZM67.2735 58.2777C67.4888 59.0206 67.0829 59.7576 66.34 59.9728C65.5972 60.188 64.8602 59.7821 64.6449 59.0392C64.4297 58.2963 64.8356 57.5593 65.5784 57.3441C66.3213 57.1288 67.0583 57.5347 67.2735 58.2777ZM62.0735 59.7842C62.2888 60.5271 61.8829 61.2641 61.1401 61.4793C60.3972 61.6946 59.6602 61.2886 59.445 60.5457C59.2298 59.8028 59.6356 59.0658 60.3785 58.8506C61.1213 58.6353 61.8583 59.0413 62.0735 59.7842ZM56.9307 61.2742C57.1459 62.0171 56.7401 62.7541 55.9973 62.9693C55.2544 63.1845 54.5174 62.7786 54.3022 62.0357C54.0869 61.2928 54.4928 60.5557 55.2357 60.3405C55.9785 60.1253 56.7155 60.5312 56.9307 61.2742ZM51.7879 62.7641C52.0031 63.507 51.5973 64.244 50.8545 64.4593C50.1116 64.6745 49.3746 64.2686 49.1594 63.5256C48.9441 62.7827 49.35 62.0457 50.0929 61.8305C50.7786 61.6318 51.5727 62.0212 51.7879 62.7641ZM46.588 64.2706C46.8032 65.0135 46.3974 65.7506 45.6545 65.9658C44.9117 66.181 44.1746 65.7751 43.9594 65.0322C43.7442 64.2892 44.1501 63.5522 44.8929 63.337C45.6358 63.1218 46.3727 63.5277 46.588 64.2706Z" fill="#231F20"/>
<path d="M117.151 37.385C117.052 37.0421 116.838 36.7323 116.486 36.5865C116.192 36.4241 115.799 36.352 115.456 36.4514C115.113 36.5507 114.804 36.7643 114.658 37.1163C114.276 37.7225 114.541 38.6368 115.188 38.945C115.482 39.1074 115.875 39.1795 116.218 39.0802C116.561 38.9808 116.87 38.7672 117.016 38.4152C117.236 38.1039 117.251 37.7279 117.151 37.385Z" fill="#231F20"/>
<path d="M112.009 38.875C112.224 39.618 111.818 40.355 111.075 40.5702C110.332 40.7854 109.595 40.3795 109.38 39.6366C109.165 38.8937 109.571 38.1566 110.313 37.9414C111.056 37.7262 111.793 38.1321 112.009 38.875ZM106.866 40.365C107.081 41.1079 106.675 41.8449 105.932 42.0601C105.189 42.2754 104.452 41.8695 104.237 41.1265C104.022 40.3836 104.428 39.6466 105.171 39.4313C105.914 39.2161 106.65 39.6221 106.866 40.365ZM101.666 41.8715C101.881 42.6144 101.475 43.3515 100.732 43.5667C99.9894 43.7819 99.2525 43.376 99.0372 42.633C98.822 41.8901 99.2278 41.1531 99.9706 40.9379C100.713 40.7227 101.451 41.1286 101.666 41.8715ZM96.5229 43.3615C96.7382 44.1044 96.3323 44.8414 95.5894 45.0566C94.8466 45.2719 94.1096 44.8659 93.8944 44.123C93.6792 43.3801 94.085 42.643 94.8278 42.4278C95.5707 42.2126 96.3077 42.6186 96.5229 43.3615ZM91.3801 44.8514C91.5954 45.5944 91.1895 46.3314 90.4466 46.5466C89.7038 46.7618 88.9668 46.3559 88.7516 45.613C88.5363 44.8701 88.9422 44.133 89.685 43.9178C90.4279 43.7026 91.1649 44.1085 91.3801 44.8514ZM86.1802 46.3579C86.3954 47.1009 85.9895 47.8379 85.2467 48.0531C84.5038 48.2683 83.7669 47.8624 83.5516 47.1195C83.3364 46.3766 83.7422 45.6395 84.4851 45.4243C85.2279 45.2091 85.9649 45.615 86.1802 46.3579ZM81.0374 47.8479C81.2526 48.5908 80.8467 49.3279 80.1038 49.5431C79.361 49.7583 78.624 49.3524 78.4088 48.6094C78.1936 47.8665 78.5994 47.1295 79.3422 46.9143C80.0851 46.6991 80.8221 47.105 81.0374 47.8479ZM75.8374 49.3544C76.0526 50.0973 75.6468 50.8344 74.9039 51.0496C74.161 51.2648 73.424 50.8589 73.2088 50.116C72.9936 49.3731 73.3994 48.636 74.1423 48.4208C74.8851 48.2056 75.6222 48.6115 75.8374 49.3544ZM70.6946 50.8444C70.9098 51.5873 70.5039 52.3243 69.7611 52.5395C69.0182 52.7548 68.2812 52.3489 68.066 51.6059C67.8507 50.863 68.2566 50.126 68.9995 49.9107C69.7423 49.6955 70.4794 50.1015 70.6946 50.8444ZM65.5518 52.3343C65.767 53.0773 65.3611 53.8143 64.6183 54.0295C63.8754 54.2447 63.1384 53.8388 62.9232 53.0959C62.7079 52.353 63.1138 51.6159 63.8567 51.4007C64.5995 51.1855 65.3365 51.5914 65.5518 52.3343ZM60.3518 53.8409C60.567 54.5838 60.1612 55.3208 59.4183 55.536C58.6755 55.7512 57.9384 55.3453 57.7232 54.6024C57.508 53.8595 57.9139 53.1224 58.6567 52.9072C59.3996 52.692 60.1365 53.098 60.3518 53.8409ZM55.2089 55.3308C55.4242 56.0738 55.0183 56.8108 54.2755 57.026C53.5326 57.2412 52.7956 56.8353 52.5804 56.0924C52.3652 55.3495 52.771 54.6124 53.5139 54.3972C54.2567 54.182 54.9937 54.5879 55.2089 55.3308Z" fill="#231F20"/>
<path d="M115.429 31.4417C115.33 31.0989 115.116 30.7891 114.765 30.6433C114.47 30.4809 114.077 30.4088 113.734 30.5081C113.392 30.6074 113.082 30.8211 112.936 31.1731C112.554 31.7792 112.819 32.6935 113.466 33.0017C113.761 33.1641 114.153 33.2362 114.496 33.1369C114.839 33.0375 115.149 32.8239 115.294 32.4719C115.497 32.1034 115.529 31.7846 115.429 31.4417Z" fill="#231F20"/>
<path d="M110.287 32.9316C110.502 33.6746 110.096 34.4116 109.353 34.6268C108.61 34.842 107.873 34.4361 107.658 33.6932C107.443 32.9503 107.849 32.2132 108.592 31.998C109.334 31.7828 110.071 32.1887 110.287 32.9316ZM105.144 34.4216C105.359 35.1645 104.953 35.9015 104.21 36.1167C103.467 36.332 102.73 35.926 102.515 35.1831C102.3 34.4402 102.706 33.7032 103.449 33.488C104.192 33.2728 104.929 33.6787 105.144 34.4216ZM99.9438 35.9281C100.159 36.671 99.7532 37.4081 99.0103 37.6233C98.2675 37.8385 97.5305 37.4326 97.3153 36.6897C97.1001 35.9467 97.5059 35.2097 98.2487 34.9945C98.9916 34.7793 99.7286 35.1852 99.9438 35.9281ZM94.801 37.4181C95.0162 38.161 94.6104 38.898 93.8675 39.1132C93.1247 39.3284 92.3877 38.9225 92.1725 38.1796C91.9572 37.4367 92.3631 36.6997 93.1059 36.4845C93.8488 36.2693 94.5858 36.6752 94.801 37.4181ZM89.6582 38.908C89.8734 39.651 89.4675 40.388 88.7247 40.6032C87.9818 40.8184 87.2449 40.4125 87.0297 39.6696C86.8144 38.9267 87.2202 38.1897 87.9631 37.9744C88.7059 37.7592 89.443 38.1651 89.6582 38.908ZM84.4582 40.4146C84.6735 41.1575 84.2676 41.8945 83.5247 42.1097C82.7819 42.3249 82.0449 41.919 81.8297 41.1761C81.6145 40.4332 82.0203 39.6962 82.7631 39.481C83.506 39.2657 84.243 39.6716 84.4582 40.4146ZM79.3154 41.9045C79.5307 42.6474 79.1248 43.3845 78.3819 43.5997C77.6391 43.8149 76.9021 43.409 76.6869 42.6661C76.4717 41.9231 76.8775 41.1861 77.6203 40.9709C78.3632 40.7557 79.1002 41.1616 79.3154 41.9045ZM74.1155 43.411C74.3307 44.1539 73.9248 44.891 73.182 45.1062C72.4391 45.3214 71.7021 44.9155 71.4869 44.1726C71.2716 43.4297 71.6775 42.6927 72.4204 42.4774C73.1632 42.2622 73.9002 42.6681 74.1155 43.411ZM68.9727 44.901C69.1879 45.6439 68.782 46.3809 68.0392 46.5961C67.2963 46.8114 66.5593 46.4055 66.3441 45.6625C66.1288 44.9196 66.5347 44.1826 67.2776 43.9674C68.0204 43.7522 68.7574 44.1581 68.9727 44.901ZM63.8298 46.391C64.0451 47.1339 63.6392 47.8709 62.8963 48.0861C62.1535 48.3013 61.4165 47.8954 61.2012 47.1525C60.986 46.4096 61.3919 45.6726 62.1347 45.4574C62.8776 45.2421 63.6146 45.648 63.8298 46.391Z" fill="#231F20"/>
<path d="M113.691 25.4413C113.592 25.0984 113.378 24.7886 113.026 24.6428C112.731 24.4804 112.339 24.4083 111.996 24.5076C111.653 24.607 111.343 24.8206 111.197 25.1726C110.832 25.8359 111.081 26.6931 111.727 27.0013C112.022 27.1636 112.415 27.2357 112.758 27.1364C113.1 27.0371 113.41 26.8234 113.556 26.4715C113.775 26.1601 113.79 25.7841 113.691 25.4413Z" fill="#231F20"/>
<path d="M108.548 26.9312C108.763 27.6742 108.358 28.4112 107.615 28.6264C106.872 28.8416 106.135 28.4357 105.92 27.6928C105.704 26.9499 106.11 26.2128 106.853 25.9976C107.613 25.8395 108.349 26.2455 108.548 26.9312ZM103.405 28.4212C103.621 29.1641 103.215 29.9011 102.472 30.1163C101.729 30.3316 100.992 29.9257 100.777 29.1827C100.562 28.4398 100.967 27.7028 101.71 27.4876C102.47 27.3295 103.207 27.7354 103.405 28.4212ZM98.2054 29.9277C98.4206 30.6706 98.0147 31.4077 97.2719 31.6229C96.529 31.8381 95.7921 31.4322 95.5768 30.6892C95.3616 29.9463 95.7674 29.2093 96.5103 28.9941C97.2697 28.836 98.0067 29.2419 98.2054 29.9277ZM93.0626 31.4177C93.2778 32.1606 92.8719 32.8976 92.1291 33.1128C91.3862 33.3281 90.6493 32.9221 90.434 32.1792C90.2188 31.4363 90.6246 30.6993 91.3675 30.4841C92.1103 30.2688 92.8639 30.7319 93.0626 31.4177ZM87.9197 32.9076C88.135 33.6506 87.7291 34.3876 86.9862 34.6028C86.2434 34.818 85.5064 34.4121 85.2912 33.6692C85.076 32.9262 85.4818 32.1892 86.2246 31.974C86.9675 31.7588 87.7211 32.2219 87.9197 32.9076ZM82.7198 34.4141C82.935 35.1571 82.5291 35.8941 81.7863 36.1093C81.0434 36.3245 80.3065 35.9186 80.0913 35.1757C79.876 34.4328 80.2818 33.6958 81.0247 33.4805C81.7841 33.3225 82.5211 33.7284 82.7198 34.4141ZM77.577 35.9041C77.7922 36.647 77.3863 37.3841 76.6435 37.5993C75.9006 37.8145 75.1637 37.4086 74.9484 36.6656C74.7332 35.9227 75.139 35.1857 75.8819 34.9705C76.6413 34.8124 77.3783 35.2183 77.577 35.9041ZM72.377 37.4106C72.5923 38.1535 72.1864 38.8906 71.4435 39.1058C70.7007 39.321 69.9637 38.9151 69.7484 38.1722C69.5332 37.4293 69.9391 36.6922 70.6819 36.477C71.4413 36.3189 72.1783 36.7249 72.377 37.4106Z" fill="#231F20"/>
<path d="M111.969 19.498C111.87 19.1551 111.656 18.8453 111.304 18.6995C111.009 18.5371 110.617 18.465 110.274 18.5644C109.931 18.6637 109.621 18.8773 109.476 19.2293C109.151 19.8189 109.416 20.7333 110.005 21.058C110.3 21.2204 110.693 21.2925 111.036 21.1931C111.379 21.0938 111.688 20.8802 111.834 20.5282C112.054 20.2169 112.068 19.8409 111.969 19.498Z" fill="#231F20"/>
<path d="M106.826 20.9879C107.041 21.7308 106.636 22.4678 105.893 22.683C105.15 22.8983 104.413 22.4923 104.198 21.7494C103.982 21.0065 104.388 20.2695 105.131 20.0543C105.891 19.8962 106.628 20.3021 106.826 20.9879ZM101.683 22.4779C101.899 23.2208 101.493 23.9578 100.75 24.173C100.007 24.3882 99.2701 23.9823 99.0549 23.2394C98.8396 22.4965 99.2455 21.7595 99.9884 21.5442C100.748 21.3862 101.485 21.7921 101.683 22.4779ZM96.4835 23.9844C96.6987 24.7273 96.2928 25.4643 95.55 25.6795C94.8071 25.8948 94.0702 25.4888 93.8549 24.7459C93.6397 24.003 94.0455 23.266 94.7884 23.0508C95.5478 22.8927 96.2848 23.2986 96.4835 23.9844ZM91.3406 25.4743C91.5559 26.2172 91.15 26.9543 90.4071 27.1695C89.6643 27.3847 88.9273 26.9788 88.7121 26.2359C88.4969 25.493 88.9027 24.756 89.6455 24.5407C90.3884 24.3255 91.142 24.7886 91.3406 25.4743ZM86.1978 26.9643C86.413 27.7072 86.0072 28.4443 85.2643 28.6595C84.5215 28.8747 83.7845 28.4687 83.5693 27.7258C83.354 26.9829 83.7599 26.2459 84.5027 26.0307C85.205 25.8892 85.9991 26.2785 86.1978 26.9643ZM80.9979 28.4708C81.2131 29.2137 80.8072 29.9508 80.0644 30.166C79.3215 30.3812 78.5846 29.9752 78.3693 29.2323C78.1541 28.4894 78.5599 27.7524 79.3028 27.5372C80.0622 27.3791 80.7992 27.785 80.9979 28.4708Z" fill="#231F20"/>
<path d="M110.247 13.5547C110.148 13.2118 109.934 12.902 109.582 12.7562C109.287 12.5938 108.895 12.5217 108.552 12.621C108.209 12.7204 107.899 12.934 107.754 13.2859C107.372 13.8921 107.637 14.8065 108.283 15.1147C108.578 15.277 108.971 15.3491 109.314 15.2498C109.657 15.1505 109.966 14.9368 110.112 14.5849C110.332 14.2735 110.347 13.8975 110.247 13.5547Z" fill="#231F20"/>
<path d="M105.104 15.0446C105.32 15.7875 104.914 16.5245 104.171 16.7397C103.428 16.9549 102.691 16.549 102.476 15.8061C102.261 15.0632 102.666 14.3262 103.409 14.1109C104.152 13.8957 104.906 14.3588 105.104 15.0446ZM99.9615 16.5345C100.177 17.2775 99.771 18.0145 99.0281 18.2297C98.2852 18.4449 97.5482 18.039 97.333 17.2961C97.1178 16.5531 97.5236 15.8161 98.2665 15.6009C99.0093 15.3857 99.7629 15.8488 99.9615 16.5345ZM94.7616 18.041C94.9768 18.784 94.5709 19.521 93.8281 19.7362C93.0852 19.9514 92.3483 19.5455 92.1331 18.8026C91.9178 18.0597 92.3236 17.3226 93.0665 17.1074C93.8093 16.8922 94.5629 17.3553 94.7616 18.041ZM89.6188 19.531C89.834 20.2739 89.4281 21.011 88.6853 21.2262C87.9424 21.4414 87.2055 21.0355 86.9902 20.2925C86.775 19.5496 87.1808 18.8126 87.9237 18.5974C88.6665 18.3822 89.4201 18.8452 89.6188 19.531Z" fill="#231F20"/>
<path d="M108.525 7.61131C108.426 7.26843 108.212 6.95866 107.86 6.81285C107.566 6.65048 107.173 6.57835 106.83 6.67769C106.487 6.77702 106.178 6.99067 106.032 7.34263C105.707 7.93225 105.915 8.86317 106.562 9.17136C106.856 9.33373 107.249 9.40579 107.592 9.30646C107.935 9.20713 108.244 8.99354 108.39 8.64158C108.61 8.33021 108.625 7.9542 108.525 7.61131Z" fill="#231F20"/>
<path d="M103.382 9.10122C103.598 9.84414 103.192 10.5811 102.449 10.7964C101.706 11.0116 100.969 10.6057 100.754 9.86275C100.539 9.11984 100.945 8.38281 101.687 8.16759C102.43 7.95237 103.184 8.41545 103.382 9.10122ZM98.2396 10.5912C98.4549 11.3341 98.049 12.0711 97.3062 12.2863C96.5633 12.5015 95.8263 12.0956 95.6111 11.3527C95.3958 10.6098 95.8017 9.87277 96.5446 9.65755C97.2874 9.44234 98.0409 9.90541 98.2396 10.5912Z" fill="#231F20"/>
<path d="M106.803 1.66798C106.704 1.32509 106.49 1.01529 106.139 0.869474C105.844 0.707105 105.451 0.634983 105.108 0.734314C104.765 0.833646 104.456 1.0473 104.31 1.39925C103.928 2.00543 104.193 2.9198 104.84 3.22798C105.135 3.39035 105.527 3.46245 105.87 3.36312C106.213 3.26379 106.523 3.05016 106.668 2.6982C106.888 2.38683 106.903 2.01086 106.803 1.66798Z" fill="#231F20"/>
</svg>
