<svg width="264" height="285" viewBox="0 0 264 285" fill="none" xmlns="http://www.w3.org/2000/svg">
<path d="M60.0308 261.399C59.8594 261.448 59.7285 261.424 59.5811 261.343L59.5074 261.303C59.36 261.221 59.2532 261.067 59.2201 260.952C59.1704 260.781 59.1779 260.593 59.2591 260.445C59.3403 260.298 59.4951 260.191 59.6665 260.141C59.838 260.092 60.026 260.099 60.1734 260.181C60.3944 260.302 60.5435 260.817 60.4217 261.038C60.3571 261.242 60.2022 261.349 60.0308 261.399Z" fill="#231F20"/>
<path d="M99.2305 250.042C98.8876 250.141 98.5191 249.938 98.4197 249.595C98.3204 249.252 98.5234 248.884 98.8662 248.785C99.2091 248.685 99.5775 248.888 99.6769 249.231C99.7762 249.574 99.5733 249.943 99.2305 250.042ZM89.4019 252.889C89.0591 252.989 88.6906 252.786 88.5913 252.443C88.4919 252.1 88.6948 251.731 89.0377 251.632C89.3805 251.533 89.749 251.736 89.8484 252.079C89.9477 252.422 89.7448 252.79 89.4019 252.889ZM79.6306 255.72C79.2878 255.82 78.9193 255.617 78.8199 255.274C78.7206 254.931 78.9235 254.562 79.2664 254.463C79.6092 254.364 79.9777 254.567 80.077 254.91C80.1764 255.252 79.9735 255.621 79.6306 255.72ZM69.8593 258.551C69.5164 258.651 69.1479 258.448 69.0486 258.105C68.9492 257.762 69.1522 257.393 69.495 257.294C69.8379 257.195 70.2064 257.398 70.3057 257.74C70.3479 258.1 70.2021 258.452 69.8593 258.551Z" fill="#231F20"/>
<path d="M56.7525 250.084C56.5811 250.133 56.3931 250.126 56.2457 250.045C56.0983 249.963 55.9915 249.808 55.9418 249.637C55.8921 249.466 55.8996 249.278 55.9974 249.187C56.0785 249.04 56.2334 248.933 56.4048 248.883C56.5763 248.834 56.7642 248.841 56.9116 248.922C57.1327 249.044 57.2817 249.559 57.16 249.78C57.0788 249.927 56.9239 250.034 56.7525 250.084Z" fill="#231F20"/>
<path d="M115.552 233.048C115.209 233.148 114.841 232.945 114.741 232.602C114.642 232.259 114.845 231.89 115.188 231.791C115.531 231.692 115.899 231.895 115.999 232.238C116.057 232.654 115.895 232.949 115.552 233.048ZM105.724 235.896C105.381 235.995 105.012 235.792 104.913 235.449C104.814 235.106 105.017 234.738 105.359 234.639C105.702 234.539 106.071 234.742 106.17 235.085C106.286 235.485 106.066 235.796 105.724 235.896ZM95.9523 238.727C95.6094 238.826 95.2409 238.623 95.1415 238.28C95.0422 237.937 95.2452 237.569 95.588 237.469C95.9309 237.37 96.2994 237.573 96.3987 237.916C96.5146 238.316 96.2951 238.627 95.9523 238.727ZM86.1238 241.574C85.7809 241.673 85.4124 241.471 85.3131 241.128C85.2137 240.785 85.4167 240.416 85.7595 240.317C86.1024 240.218 86.4708 240.421 86.5702 240.763C86.6861 241.163 86.4666 241.475 86.1238 241.574ZM76.3524 244.405C76.0096 244.504 75.6411 244.301 75.5417 243.959C75.4424 243.616 75.6453 243.247 75.9882 243.148C76.331 243.049 76.6995 243.251 76.7989 243.594C76.9147 243.994 76.6953 244.306 76.3524 244.405ZM66.5811 247.236C66.2382 247.335 65.8697 247.132 65.7704 246.79C65.671 246.447 65.874 246.078 66.2168 245.979C66.5597 245.879 66.9282 246.082 67.0275 246.425C67.0863 246.842 66.9239 247.137 66.5811 247.236Z" fill="#231F20"/>
<path d="M53.4909 238.826C53.3195 238.875 53.1315 238.868 52.9841 238.786C52.8367 238.705 52.7298 238.55 52.6802 238.379C52.6305 238.208 52.638 238.02 52.7192 237.872C52.8004 237.725 52.9552 237.618 53.1266 237.568C53.2981 237.519 53.4861 237.526 53.5763 237.624C53.7237 237.705 53.8305 237.86 53.8802 238.031C53.9299 238.203 53.9224 238.391 53.8412 238.538C53.8172 238.669 53.6623 238.776 53.4909 238.826Z" fill="#231F20"/>
<path d="M131.833 216.128C131.49 216.228 131.122 216.025 131.023 215.682C130.923 215.339 131.126 214.97 131.469 214.871C131.812 214.772 132.18 214.975 132.28 215.318C132.379 215.661 132.176 216.029 131.833 216.128ZM122.062 218.959C121.719 219.059 121.351 218.856 121.251 218.513C121.152 218.17 121.355 217.801 121.698 217.702C122.04 217.603 122.409 217.806 122.508 218.149C122.608 218.491 122.405 218.86 122.062 218.959ZM112.291 221.79C111.948 221.89 111.579 221.687 111.48 221.344C111.381 221.001 111.583 220.632 111.926 220.533C112.269 220.434 112.638 220.637 112.737 220.98C112.779 221.339 112.633 221.691 112.291 221.79ZM102.462 224.638C102.119 224.737 101.751 224.534 101.651 224.191C101.552 223.848 101.755 223.48 102.098 223.38C102.441 223.281 102.809 223.484 102.908 223.827C103.008 224.17 102.805 224.538 102.462 224.638ZM92.6907 227.469C92.3479 227.568 91.9793 227.365 91.88 227.022C91.7806 226.679 91.9836 226.311 92.3265 226.211C92.6693 226.112 93.0378 226.315 93.1371 226.658C93.2365 227.001 93.0336 227.369 92.6907 227.469ZM82.8622 230.316C82.5193 230.415 82.1508 230.212 82.0515 229.87C81.9522 229.527 82.1551 229.158 82.4979 229.059C82.8408 228.96 83.2093 229.163 83.3086 229.505C83.4079 229.848 83.205 230.217 82.8622 230.316ZM73.0908 233.147C72.748 233.246 72.3795 233.043 72.2802 232.701C72.1808 232.358 72.3837 231.989 72.7266 231.89C73.0694 231.79 73.4379 231.993 73.5373 232.336C73.6366 232.679 73.4337 233.048 73.0908 233.147ZM63.3195 235.978C62.9766 236.077 62.6081 235.874 62.5088 235.531C62.4094 235.189 62.6124 234.82 62.9552 234.721C63.2981 234.621 63.6666 234.824 63.7659 235.167C63.8081 235.527 63.6624 235.879 63.3195 235.978Z" fill="#231F20"/>
<path d="M50.2127 227.51C50.0413 227.56 49.8533 227.552 49.7059 227.471C49.5585 227.39 49.4517 227.235 49.4186 227.121C49.3689 226.949 49.3764 226.761 49.4576 226.614C49.5388 226.467 49.6936 226.36 49.8651 226.31C50.0365 226.261 50.1673 226.285 50.3147 226.366C50.4621 226.447 50.5689 226.602 50.6186 226.773C50.6683 226.945 50.6608 227.133 50.5796 227.28C50.5391 227.354 50.3842 227.461 50.2127 227.51Z" fill="#231F20"/>
<path d="M148.155 199.135C147.812 199.234 147.444 199.031 147.344 198.688C147.245 198.345 147.448 197.977 147.791 197.878C148.134 197.778 148.502 197.981 148.601 198.324C148.717 198.724 148.498 199.035 148.155 199.135ZM138.384 201.966C138.041 202.065 137.672 201.862 137.573 201.519C137.474 201.176 137.676 200.808 138.019 200.708C138.362 200.609 138.731 200.812 138.83 201.155C138.946 201.555 138.726 201.866 138.384 201.966ZM128.555 204.813C128.212 204.912 127.844 204.71 127.744 204.367C127.645 204.024 127.848 203.655 128.191 203.556C128.534 203.457 128.902 203.66 129.002 204.002C129.117 204.402 128.898 204.714 128.555 204.813ZM118.784 207.644C118.441 207.743 118.072 207.54 117.973 207.198C117.874 206.855 118.077 206.486 118.419 206.387C118.762 206.288 119.131 206.49 119.23 206.833C119.346 207.233 119.127 207.545 118.784 207.644ZM109.012 210.475C108.669 210.574 108.301 210.371 108.202 210.029C108.102 209.686 108.305 209.317 108.648 209.218C108.991 209.118 109.359 209.321 109.459 209.664C109.518 210.081 109.355 210.376 109.012 210.475ZM99.1839 213.322C98.841 213.422 98.4725 213.219 98.3732 212.876C98.2739 212.533 98.4768 212.165 98.8196 212.065C99.1625 211.966 99.531 212.169 99.6303 212.512C99.7462 212.912 99.5267 213.223 99.1839 213.322ZM89.4125 216.153C89.0697 216.253 88.7011 216.05 88.6018 215.707C88.5024 215.364 88.7054 214.996 89.0483 214.896C89.3911 214.797 89.7596 215 89.859 215.343C89.9749 215.743 89.7554 216.054 89.4125 216.153ZM79.584 219.001C79.2411 219.1 78.8726 218.897 78.7733 218.554C78.674 218.212 78.8769 217.843 79.2197 217.744C79.5626 217.644 79.9311 217.847 80.0304 218.19C80.1463 218.59 79.9268 218.902 79.584 219.001ZM69.8126 221.832C69.4698 221.931 69.1013 221.728 69.002 221.385C68.9026 221.042 69.1055 220.674 69.4484 220.575C69.7912 220.475 70.1597 220.678 70.2591 221.021C70.375 221.421 70.1555 221.733 69.8126 221.832ZM60.0413 224.663C59.6984 224.762 59.3299 224.559 59.2306 224.216C59.1312 223.873 59.3342 223.505 59.677 223.406C60.0199 223.306 60.3884 223.509 60.4877 223.852C60.5465 224.269 60.3841 224.563 60.0413 224.663Z" fill="#231F20"/>
<path d="M66.5706 283.972C66.3992 284.022 66.2112 284.014 66.0638 283.933C65.9164 283.852 65.8096 283.697 65.7599 283.525C65.7103 283.354 65.7178 283.166 65.8155 283.076C65.8967 282.928 66.0515 282.822 66.2229 282.772C66.3944 282.722 66.5823 282.73 66.7297 282.811C66.9508 282.933 67.0999 283.447 66.9781 283.668C66.8969 283.815 66.7421 283.922 66.5706 283.972Z" fill="#231F20"/>
<path d="M63.2924 272.657C63.121 272.706 62.933 272.699 62.7856 272.618C62.6382 272.537 62.5314 272.382 62.4817 272.21C62.432 272.039 62.4395 271.851 62.5207 271.703C62.6019 271.556 62.7567 271.449 62.9282 271.4C63.0996 271.35 63.2876 271.357 63.3778 271.455C63.5252 271.536 63.6321 271.691 63.6817 271.863C63.7314 272.034 63.7239 272.222 63.6428 272.369C63.6187 272.5 63.4638 272.607 63.2924 272.657Z" fill="#231F20"/>
<path d="M82.8923 266.978C82.5494 267.078 82.181 266.875 82.0816 266.532C81.9823 266.189 82.1852 265.82 82.528 265.721C82.8709 265.622 83.2394 265.825 83.3387 266.168C83.4546 266.568 83.2351 266.879 82.8923 266.978ZM73.121 269.809C72.7782 269.909 72.4096 269.706 72.3103 269.363C72.211 269.02 72.4139 268.651 72.7568 268.552C73.0996 268.453 73.4681 268.656 73.5674 268.999C73.6262 269.415 73.4639 269.71 73.121 269.809Z" fill="#231F20"/>
<path d="M46.9511 216.252C46.7797 216.302 46.5917 216.294 46.4443 216.213C46.2969 216.132 46.19 215.977 46.1404 215.806C46.0907 215.634 46.0982 215.446 46.1794 215.299C46.2606 215.151 46.4154 215.045 46.5869 214.995C46.7583 214.945 46.9463 214.953 47.0937 215.034C47.2411 215.115 47.3479 215.27 47.3976 215.442C47.4472 215.613 47.4398 215.801 47.342 215.891C47.2774 216.096 47.1225 216.203 46.9511 216.252Z" fill="#231F20"/>
<path d="M164.493 182.198C164.15 182.298 163.782 182.095 163.682 181.752C163.583 181.409 163.786 181.04 164.129 180.941C164.472 180.842 164.84 181.045 164.939 181.388C165.039 181.73 164.836 182.099 164.493 182.198ZM154.722 185.029C154.379 185.129 154.01 184.926 153.911 184.583C153.812 184.24 154.015 183.871 154.357 183.772C154.7 183.673 155.069 183.876 155.168 184.219C155.21 184.578 155.007 184.946 154.722 185.029ZM144.893 187.877C144.55 187.976 144.182 187.773 144.082 187.43C143.983 187.087 144.186 186.719 144.529 186.619C144.872 186.52 145.24 186.723 145.34 187.066C145.439 187.409 145.236 187.777 144.893 187.877ZM135.122 190.708C134.779 190.807 134.41 190.604 134.311 190.261C134.212 189.918 134.415 189.55 134.758 189.45C135.1 189.351 135.469 189.554 135.568 189.897C135.668 190.24 135.465 190.608 135.122 190.708ZM125.293 193.555C124.95 193.654 124.582 193.452 124.483 193.109C124.383 192.766 124.586 192.397 124.929 192.298C125.272 192.199 125.64 192.402 125.74 192.744C125.839 193.087 125.636 193.456 125.293 193.555ZM115.522 196.386C115.179 196.485 114.811 196.282 114.711 195.94C114.612 195.597 114.815 195.228 115.158 195.129C115.501 195.029 115.869 195.232 115.968 195.575C116.068 195.918 115.865 196.287 115.522 196.386ZM105.751 199.217C105.408 199.316 105.039 199.113 104.94 198.77C104.841 198.428 105.043 198.059 105.386 197.96C105.729 197.86 106.098 198.063 106.197 198.406C106.239 198.766 106.093 199.118 105.751 199.217ZM95.9221 202.064C95.5793 202.164 95.2108 201.961 95.1115 201.618C95.0121 201.275 95.215 200.907 95.5579 200.807C95.9007 200.708 96.2692 200.911 96.3686 201.254C96.4679 201.597 96.265 201.965 95.9221 202.064ZM86.1508 204.895C85.8079 204.995 85.4394 204.792 85.34 204.449C85.2407 204.106 85.4437 203.737 85.7865 203.638C86.1294 203.539 86.4979 203.742 86.5972 204.085C86.6966 204.428 86.4936 204.796 86.1508 204.895ZM76.3223 207.743C75.9794 207.842 75.6109 207.639 75.5116 207.296C75.4122 206.953 75.6152 206.585 75.958 206.486C76.3009 206.386 76.6693 206.589 76.7687 206.932C76.868 207.275 76.6651 207.644 76.3223 207.743ZM66.5509 210.574C66.2081 210.673 65.8396 210.47 65.7402 210.127C65.6409 209.784 65.8438 209.416 66.1867 209.317C66.5295 209.217 66.898 209.42 66.9973 209.763C67.0967 210.106 66.8938 210.474 66.5509 210.574ZM56.7796 213.405C56.4367 213.504 56.0682 213.301 55.9689 212.958C55.8695 212.615 56.0725 212.247 56.4153 212.147C56.7582 212.048 57.1267 212.251 57.226 212.594C57.2682 212.953 57.1224 213.305 56.7796 213.405Z" fill="#231F20"/>
<path d="M43.6895 204.994C43.5181 205.044 43.3301 205.036 43.1827 204.955C43.0353 204.874 42.9284 204.719 42.8788 204.548C42.8291 204.376 42.8366 204.188 42.9178 204.041C42.999 203.893 43.1538 203.787 43.3253 203.737C43.4967 203.687 43.6847 203.695 43.8321 203.776C43.9795 203.857 44.0697 203.955 44.136 204.183C44.1856 204.355 44.1782 204.543 44.097 204.69C43.9993 204.781 43.861 204.945 43.6895 204.994Z" fill="#231F20"/>
<path d="M180.831 165.262C180.488 165.361 180.12 165.158 180.021 164.815C179.921 164.473 180.124 164.104 180.467 164.005C180.81 163.905 181.178 164.108 181.278 164.451C181.377 164.794 181.174 165.163 180.831 165.262ZM171.003 168.109C170.66 168.209 170.291 168.006 170.192 167.663C170.093 167.32 170.296 166.952 170.639 166.852C170.981 166.753 171.35 166.956 171.449 167.299C171.549 167.642 171.346 168.01 171.003 168.109ZM161.231 170.94C160.889 171.04 160.52 170.837 160.421 170.494C160.321 170.151 160.524 169.782 160.867 169.683C161.21 169.584 161.579 169.787 161.678 170.13C161.777 170.473 161.574 170.841 161.231 170.94ZM151.46 173.771C151.117 173.871 150.749 173.668 150.649 173.325C150.55 172.982 150.753 172.613 151.096 172.514C151.439 172.415 151.807 172.618 151.907 172.961C151.949 173.32 151.746 173.689 151.46 173.771ZM141.632 176.619C141.289 176.718 140.92 176.515 140.821 176.172C140.722 175.829 140.924 175.461 141.267 175.362C141.61 175.262 141.979 175.465 142.078 175.808C142.177 176.151 141.974 176.519 141.632 176.619ZM131.86 179.45C131.517 179.549 131.149 179.346 131.05 179.003C130.95 178.66 131.153 178.292 131.496 178.192C131.839 178.093 132.207 178.296 132.307 178.639C132.406 178.982 132.203 179.35 131.86 179.45ZM122.032 182.297C121.689 182.397 121.32 182.194 121.221 181.851C121.122 181.508 121.325 181.139 121.668 181.04C122.01 180.941 122.379 181.144 122.478 181.486C122.578 181.829 122.375 182.198 122.032 182.297ZM112.26 185.128C111.917 185.227 111.549 185.024 111.45 184.682C111.35 184.339 111.553 183.97 111.896 183.871C112.239 183.772 112.608 183.974 112.707 184.317C112.806 184.66 112.603 185.029 112.26 185.128ZM102.489 187.959C102.146 188.058 101.778 187.855 101.678 187.513C101.579 187.17 101.782 186.801 102.125 186.702C102.468 186.602 102.836 186.805 102.935 187.148C102.978 187.508 102.832 187.86 102.489 187.959ZM92.6605 190.807C92.3177 190.906 91.9492 190.703 91.8499 190.36C91.7505 190.017 91.9534 189.649 92.2963 189.549C92.6391 189.45 93.0076 189.653 93.107 189.996C93.2063 190.339 93.0034 190.707 92.6605 190.807ZM82.8892 193.637C82.5463 193.737 82.1778 193.534 82.0784 193.191C81.9791 192.848 82.1821 192.48 82.525 192.38C82.8678 192.281 83.2363 192.484 83.3356 192.827C83.435 193.17 83.2321 193.538 82.8892 193.637ZM73.0607 196.485C72.7178 196.584 72.3493 196.381 72.25 196.038C72.1506 195.696 72.3536 195.327 72.6964 195.228C73.0393 195.128 73.4077 195.331 73.5071 195.674C73.6064 196.017 73.4035 196.386 73.0607 196.485ZM63.2893 199.316C62.9465 199.415 62.578 199.212 62.4786 198.869C62.3793 198.526 62.5822 198.158 62.9251 198.059C63.2679 197.959 63.6364 198.162 63.7357 198.505C63.8351 198.848 63.6322 199.217 63.2893 199.316ZM53.518 202.147C53.1751 202.246 52.8066 202.043 52.7073 201.7C52.6079 201.357 52.8109 200.989 53.1537 200.89C53.4966 200.79 53.8651 200.993 53.9644 201.336C54.0066 201.695 53.8608 202.047 53.518 202.147Z" fill="#231F20"/>
<path d="M40.4113 193.679C40.2399 193.729 40.0519 193.721 39.9045 193.64C39.7571 193.559 39.6503 193.404 39.6006 193.233C39.5509 193.061 39.5584 192.873 39.6396 192.726C39.7208 192.578 39.8756 192.471 40.0471 192.422C40.2185 192.372 40.4065 192.38 40.5539 192.461C40.7013 192.542 40.7916 192.64 40.8578 192.868C40.9075 193.04 40.9 193.228 40.8188 193.375C40.7376 193.523 40.5828 193.629 40.4113 193.679Z" fill="#231F20"/>
<path d="M197.153 148.268C196.81 148.368 196.442 148.165 196.342 147.822C196.243 147.479 196.446 147.11 196.789 147.011C197.132 146.912 197.5 147.115 197.599 147.458C197.699 147.801 197.439 148.186 197.153 148.268ZM187.324 151.116C186.982 151.215 186.613 151.012 186.514 150.669C186.414 150.326 186.617 149.958 186.96 149.859C187.303 149.759 187.672 149.962 187.771 150.305C187.87 150.648 187.667 151.017 187.324 151.116ZM177.553 153.947C177.21 154.046 176.842 153.843 176.742 153.5C176.643 153.157 176.846 152.789 177.189 152.69C177.532 152.59 177.9 152.793 178 153.136C178.099 153.479 177.896 153.847 177.553 153.947ZM167.725 156.794C167.382 156.894 167.013 156.691 166.914 156.348C166.815 156.005 167.017 155.636 167.36 155.537C167.703 155.438 168.072 155.641 168.171 155.984C168.27 156.326 168.067 156.695 167.725 156.794ZM157.953 159.625C157.61 159.725 157.242 159.522 157.143 159.179C157.043 158.836 157.246 158.467 157.589 158.368C157.932 158.269 158.3 158.472 158.4 158.814C158.499 159.157 158.296 159.526 157.953 159.625ZM148.182 162.456C147.839 162.555 147.471 162.352 147.371 162.01C147.272 161.667 147.475 161.298 147.818 161.199C148.161 161.1 148.529 161.303 148.628 161.645C148.728 161.988 148.468 162.373 148.182 162.456ZM138.353 165.304C138.011 165.403 137.642 165.2 137.543 164.857C137.443 164.514 137.646 164.146 137.989 164.046C138.332 163.947 138.7 164.15 138.8 164.493C138.899 164.836 138.696 165.204 138.353 165.304ZM128.582 168.135C128.239 168.234 127.871 168.031 127.771 167.688C127.672 167.345 127.875 166.977 128.218 166.877C128.561 166.778 128.929 166.981 129.028 167.324C129.128 167.667 128.925 168.035 128.582 168.135ZM118.754 170.982C118.411 171.081 118.042 170.878 117.943 170.536C117.843 170.193 118.046 169.824 118.389 169.725C118.732 169.625 119.101 169.828 119.2 170.171C119.299 170.514 119.096 170.883 118.754 170.982ZM108.982 173.813C108.639 173.912 108.271 173.709 108.171 173.366C108.072 173.024 108.275 172.655 108.618 172.556C108.961 172.456 109.329 172.659 109.429 173.002C109.528 173.345 109.325 173.714 108.982 173.813ZM99.2108 176.644C98.868 176.743 98.4995 176.54 98.4001 176.197C98.3008 175.854 98.5037 175.486 98.8466 175.387C99.1894 175.287 99.5579 175.49 99.6572 175.833C99.7566 176.176 99.5537 176.545 99.2108 176.644ZM89.3823 179.491C89.0395 179.591 88.671 179.388 88.5717 179.045C88.4723 178.702 88.6752 178.333 89.0181 178.234C89.361 178.135 89.7294 178.338 89.8288 178.681C89.9281 179.024 89.7252 179.392 89.3823 179.491ZM79.611 182.322C79.2682 182.422 78.8996 182.219 78.8003 181.876C78.7009 181.533 78.9039 181.164 79.2468 181.065C79.5896 180.966 79.9581 181.169 80.0574 181.512C80.1568 181.854 79.9539 182.223 79.611 182.322ZM69.7825 185.17C69.4396 185.269 69.0711 185.066 68.9718 184.723C68.8725 184.38 69.0754 184.012 69.4182 183.913C69.7611 183.813 70.1296 184.016 70.2289 184.359C70.3282 184.702 70.1253 185.07 69.7825 185.17ZM60.0111 188.001C59.6683 188.1 59.2998 187.897 59.2004 187.554C59.1011 187.211 59.304 186.843 59.6469 186.743C59.9897 186.644 60.3582 186.847 60.4576 187.19C60.5569 187.533 60.354 187.901 60.0111 188.001ZM50.2398 190.832C49.8969 190.931 49.5284 190.728 49.4291 190.385C49.3297 190.042 49.5327 189.674 49.8755 189.574C50.2184 189.475 50.5869 189.678 50.6862 190.021C50.7856 190.364 50.5826 190.732 50.2398 190.832Z" fill="#231F20"/>
<path d="M37.1496 182.421C36.9782 182.471 36.8473 182.447 36.6999 182.365C36.5525 182.284 36.4457 182.129 36.396 181.958C36.3464 181.787 36.3538 181.599 36.4516 181.508C36.5327 181.361 36.6876 181.254 36.8591 181.204C37.0305 181.155 37.2185 181.162 37.3659 181.243C37.5133 181.325 37.6036 181.422 37.6698 181.651C37.7195 181.822 37.712 182.01 37.6142 182.101C37.4593 182.207 37.321 182.371 37.1496 182.421Z" fill="#231F20"/>
<path d="M213.434 131.348C213.091 131.448 212.723 131.245 212.623 130.902C212.524 130.559 212.727 130.191 213.07 130.091C213.413 129.992 213.781 130.195 213.881 130.538C213.98 130.881 213.777 131.249 213.434 131.348ZM203.663 134.179C203.32 134.279 202.951 134.076 202.852 133.733C202.753 133.39 202.956 133.021 203.298 132.922C203.641 132.823 204.01 133.026 204.109 133.369C204.208 133.712 204.006 134.08 203.663 134.179ZM193.891 137.01C193.548 137.11 193.18 136.907 193.081 136.564C192.981 136.221 193.184 135.852 193.527 135.753C193.87 135.654 194.238 135.857 194.338 136.2C194.38 136.559 194.177 136.928 193.891 137.01ZM184.063 139.858C183.72 139.957 183.351 139.754 183.252 139.411C183.153 139.068 183.356 138.7 183.699 138.601C184.041 138.501 184.41 138.704 184.509 139.047C184.609 139.39 184.406 139.758 184.063 139.858ZM174.291 142.689C173.949 142.788 173.58 142.585 173.481 142.242C173.381 141.899 173.584 141.531 173.927 141.431C174.27 141.332 174.639 141.535 174.738 141.878C174.837 142.221 174.634 142.589 174.291 142.689ZM164.463 145.536C164.12 145.636 163.752 145.433 163.652 145.09C163.553 144.747 163.756 144.378 164.099 144.279C164.442 144.18 164.81 144.383 164.909 144.725C165.009 145.068 164.806 145.437 164.463 145.536ZM154.692 148.367C154.349 148.466 153.98 148.263 153.881 147.921C153.782 147.578 153.985 147.209 154.327 147.11C154.67 147.011 155.039 147.214 155.138 147.556C155.237 147.899 155.035 148.268 154.692 148.367ZM144.92 151.198C144.577 151.297 144.209 151.094 144.11 150.752C144.01 150.409 144.213 150.04 144.556 149.941C144.899 149.841 145.267 150.044 145.367 150.387C145.409 150.747 145.206 151.115 144.92 151.198ZM135.092 154.046C134.749 154.145 134.38 153.942 134.281 153.599C134.182 153.256 134.385 152.888 134.728 152.788C135.07 152.689 135.439 152.892 135.538 153.235C135.638 153.578 135.435 153.946 135.092 154.046ZM125.32 156.876C124.978 156.976 124.609 156.773 124.51 156.43C124.41 156.087 124.613 155.719 124.956 155.619C125.299 155.52 125.668 155.723 125.767 156.066C125.866 156.409 125.663 156.777 125.32 156.876ZM115.492 159.724C115.149 159.823 114.781 159.62 114.681 159.277C114.582 158.935 114.785 158.566 115.128 158.467C115.471 158.367 115.839 158.57 115.938 158.913C116.038 159.256 115.835 159.625 115.492 159.724ZM105.721 162.555C105.378 162.654 105.009 162.451 104.91 162.108C104.811 161.765 105.013 161.397 105.356 161.298C105.699 161.198 106.068 161.401 106.167 161.744C106.266 162.087 106.063 162.456 105.721 162.555ZM95.9492 165.386C95.6064 165.485 95.2379 165.282 95.1385 164.939C95.0392 164.596 95.2421 164.228 95.585 164.129C95.9278 164.029 96.2963 164.232 96.3956 164.575C96.4378 164.935 96.2921 165.286 95.9492 165.386ZM86.1207 168.233C85.7779 168.333 85.4094 168.13 85.3101 167.787C85.2107 167.444 85.4136 167.075 85.7565 166.976C86.0994 166.877 86.4678 167.08 86.5672 167.423C86.6665 167.765 86.4636 168.134 86.1207 168.233ZM76.3494 171.064C76.0065 171.164 75.638 170.961 75.5387 170.618C75.4393 170.275 75.6423 169.906 75.9852 169.807C76.328 169.708 76.6965 169.911 76.7958 170.253C76.8952 170.596 76.6923 170.965 76.3494 171.064ZM66.5209 173.912C66.178 174.011 65.8095 173.808 65.7102 173.465C65.6108 173.122 65.8138 172.754 66.1566 172.654C66.4995 172.555 66.868 172.758 66.9673 173.101C67.0666 173.444 66.8637 173.812 66.5209 173.912ZM56.7495 176.743C56.4067 176.842 56.0382 176.639 55.9388 176.296C55.8395 175.953 56.0424 175.585 56.3853 175.485C56.7281 175.386 57.0966 175.589 57.196 175.932C57.2953 176.275 57.0924 176.643 56.7495 176.743ZM46.9782 179.574C46.6353 179.673 46.2668 179.47 46.1675 179.127C46.0681 178.784 46.2711 178.416 46.6139 178.316C46.9568 178.217 47.3253 178.42 47.4246 178.763C47.4668 179.122 47.321 179.474 46.9782 179.574Z" fill="#231F20"/>
<path d="M33.8714 171.106C33.7 171.156 33.512 171.148 33.3646 171.067C33.2172 170.986 33.1104 170.831 33.0773 170.717C33.0276 170.545 33.0351 170.357 33.1163 170.21C33.1974 170.062 33.3523 169.955 33.5237 169.906C33.6952 169.856 33.8831 169.864 34.0305 169.945C34.2516 170.067 34.4006 170.581 34.2789 170.802C34.1977 170.949 34.0428 171.056 33.8714 171.106Z" fill="#231F20"/>
<path d="M229.756 114.355C229.413 114.454 229.044 114.251 228.945 113.908C228.846 113.565 229.049 113.197 229.391 113.098C229.734 112.998 230.103 113.201 230.202 113.544C230.301 113.887 230.099 114.256 229.756 114.355ZM219.984 117.186C219.642 117.285 219.273 117.082 219.174 116.739C219.074 116.396 219.277 116.028 219.62 115.929C219.963 115.829 220.331 116.032 220.431 116.375C220.53 116.718 220.327 117.086 219.984 117.186ZM210.156 120.033C209.813 120.133 209.444 119.93 209.345 119.587C209.246 119.244 209.449 118.875 209.792 118.776C210.134 118.677 210.503 118.88 210.602 119.223C210.702 119.565 210.499 119.934 210.156 120.033ZM200.384 122.864C200.042 122.964 199.673 122.761 199.574 122.418C199.474 122.075 199.677 121.706 200.02 121.607C200.363 121.508 200.732 121.711 200.831 122.053C200.93 122.396 200.727 122.765 200.384 122.864ZM190.613 125.695C190.27 125.794 189.902 125.591 189.802 125.249C189.703 124.906 189.906 124.537 190.249 124.438C190.592 124.339 190.96 124.542 191.06 124.884C191.102 125.244 190.899 125.612 190.613 125.695ZM180.785 128.543C180.442 128.642 180.073 128.439 179.974 128.096C179.875 127.753 180.078 127.385 180.42 127.285C180.763 127.186 181.132 127.389 181.231 127.732C181.33 128.075 181.128 128.443 180.785 128.543ZM171.013 131.374C170.67 131.473 170.302 131.27 170.203 130.927C170.103 130.584 170.306 130.216 170.649 130.116C170.992 130.017 171.36 130.22 171.46 130.563C171.559 130.906 171.356 131.274 171.013 131.374ZM161.185 134.221C160.842 134.32 160.473 134.117 160.374 133.774C160.275 133.432 160.478 133.063 160.821 132.964C161.163 132.864 161.532 133.067 161.631 133.41C161.731 133.753 161.528 134.122 161.185 134.221ZM151.413 137.052C151.071 137.151 150.702 136.948 150.603 136.605C150.503 136.263 150.706 135.894 151.049 135.795C151.392 135.695 151.761 135.898 151.86 136.241C151.959 136.584 151.756 136.953 151.413 137.052ZM141.642 139.883C141.299 139.982 140.931 139.779 140.831 139.436C140.732 139.093 140.935 138.725 141.278 138.626C141.621 138.526 141.989 138.729 142.089 139.072C142.131 139.432 141.928 139.8 141.642 139.883ZM131.814 142.73C131.471 142.83 131.102 142.627 131.003 142.284C130.904 141.941 131.106 141.572 131.449 141.473C131.792 141.374 132.161 141.577 132.26 141.92C132.359 142.263 132.156 142.631 131.814 142.73ZM122.042 145.561C121.699 145.661 121.331 145.458 121.232 145.115C121.132 144.772 121.335 144.403 121.678 144.304C122.021 144.205 122.389 144.408 122.489 144.751C122.588 145.093 122.385 145.462 122.042 145.561ZM112.214 148.409C111.871 148.508 111.502 148.305 111.403 147.962C111.304 147.619 111.507 147.251 111.85 147.152C112.192 147.052 112.561 147.255 112.66 147.598C112.76 147.941 112.557 148.309 112.214 148.409ZM102.442 151.24C102.1 151.339 101.731 151.136 101.632 150.793C101.532 150.45 101.735 150.082 102.078 149.982C102.421 149.883 102.79 150.086 102.889 150.429C102.988 150.772 102.785 151.14 102.442 151.24ZM92.671 154.071C92.3282 154.17 91.9597 153.967 91.8603 153.624C91.761 153.281 91.9639 152.913 92.3068 152.813C92.6496 152.714 93.0181 152.917 93.1174 153.26C93.1596 153.619 93.0139 153.971 92.671 154.071ZM82.8425 156.918C82.4997 157.017 82.1312 156.814 82.0319 156.472C81.9325 156.129 82.1354 155.76 82.4783 155.661C82.8212 155.562 83.1896 155.764 83.289 156.107C83.3883 156.45 83.1854 156.819 82.8425 156.918ZM73.0712 159.749C72.7284 159.848 72.3598 159.645 72.2605 159.303C72.1611 158.96 72.3641 158.591 72.707 158.492C73.0498 158.392 73.4183 158.595 73.5176 158.938C73.617 159.281 73.4141 159.65 73.0712 159.749ZM63.2427 162.597C62.8998 162.696 62.5313 162.493 62.432 162.15C62.3327 161.807 62.5356 161.439 62.8784 161.339C63.2213 161.24 63.5898 161.443 63.6891 161.786C63.7884 162.129 63.5855 162.497 63.2427 162.597ZM53.4713 165.427C53.1285 165.527 52.76 165.324 52.6607 164.981C52.5613 164.638 52.7642 164.27 53.1071 164.17C53.4499 164.071 53.8184 164.274 53.9178 164.617C54.0171 164.96 53.8142 165.328 53.4713 165.427ZM43.7 168.258C43.3571 168.358 42.9886 168.155 42.8893 167.812C42.7899 167.469 42.9929 167.1 43.3357 167.001C43.6786 166.902 44.0471 167.105 44.1464 167.448C44.1886 167.807 44.0428 168.159 43.7 168.258Z" fill="#231F20"/>
<path d="M30.6098 159.848C30.4383 159.897 30.3075 159.873 30.1601 159.792C30.0127 159.711 29.9059 159.556 29.8562 159.385C29.8065 159.213 29.814 159.025 29.8952 158.878C29.9763 158.73 30.1312 158.624 30.3026 158.574C30.4741 158.524 30.6621 158.532 30.8095 158.613C31.0306 158.735 31.1796 159.249 31.0578 159.47C30.9195 159.634 30.7812 159.798 30.6098 159.848Z" fill="#231F20"/>
<path d="M206.894 108.775C206.551 108.875 206.183 108.672 206.083 108.329C205.984 107.986 206.187 107.617 206.53 107.518C206.873 107.419 207.241 107.622 207.341 107.964C207.44 108.307 207.237 108.676 206.894 108.775ZM197.123 111.606C196.78 111.705 196.411 111.503 196.312 111.16C196.213 110.817 196.416 110.448 196.759 110.349C197.101 110.25 197.47 110.453 197.569 110.795C197.669 111.138 197.466 111.507 197.123 111.606ZM187.351 114.437C187.009 114.536 186.64 114.333 186.541 113.991C186.441 113.648 186.644 113.279 186.987 113.18C187.33 113.08 187.699 113.283 187.798 113.626C187.84 113.986 187.637 114.354 187.351 114.437ZM177.523 117.285C177.18 117.384 176.812 117.181 176.712 116.838C176.613 116.495 176.816 116.127 177.159 116.027C177.502 115.928 177.87 116.131 177.969 116.474C178.069 116.817 177.866 117.185 177.523 117.285ZM167.752 120.115C167.409 120.215 167.04 120.012 166.941 119.669C166.842 119.326 167.044 118.958 167.387 118.858C167.73 118.759 168.099 118.962 168.198 119.305C168.297 119.648 168.094 120.016 167.752 120.115ZM157.923 122.963C157.58 123.062 157.212 122.859 157.112 122.516C157.013 122.174 157.216 121.805 157.559 121.706C157.902 121.606 158.27 121.809 158.37 122.152C158.469 122.495 158.266 122.864 157.923 122.963ZM148.152 125.794C147.809 125.893 147.44 125.69 147.341 125.347C147.242 125.004 147.445 124.636 147.787 124.537C148.13 124.437 148.499 124.64 148.598 124.983C148.697 125.326 148.495 125.695 148.152 125.794ZM138.38 128.625C138.038 128.724 137.669 128.521 137.57 128.178C137.47 127.835 137.673 127.467 138.016 127.368C138.359 127.268 138.727 127.471 138.827 127.814C138.869 128.174 138.666 128.542 138.38 128.625ZM128.552 131.472C128.209 131.572 127.841 131.369 127.741 131.026C127.642 130.683 127.845 130.314 128.188 130.215C128.53 130.116 128.899 130.319 128.998 130.662C129.098 131.004 128.895 131.373 128.552 131.472ZM118.781 134.303C118.438 134.403 118.069 134.2 117.97 133.857C117.87 133.514 118.073 133.145 118.416 133.046C118.759 132.947 119.128 133.15 119.227 133.493C119.326 133.835 119.123 134.204 118.781 134.303ZM108.952 137.151C108.609 137.25 108.241 137.047 108.141 136.704C108.042 136.361 108.245 135.993 108.588 135.893C108.931 135.794 109.299 135.997 109.398 136.34C109.498 136.683 109.295 137.051 108.952 137.151ZM99.1806 139.982C98.8378 140.081 98.4693 139.878 98.37 139.535C98.2706 139.192 98.4735 138.824 98.8164 138.724C99.1592 138.625 99.5278 138.828 99.6271 139.171C99.7265 139.514 99.5235 139.882 99.1806 139.982ZM89.4093 142.813C89.0664 142.912 88.698 142.709 88.5986 142.366C88.4993 142.023 88.7022 141.655 89.045 141.555C89.3879 141.456 89.7564 141.659 89.8557 142.002C89.8979 142.361 89.7521 142.713 89.4093 142.813ZM79.5808 145.66C79.238 145.759 78.8695 145.556 78.7702 145.214C78.6708 144.871 78.8737 144.502 79.2166 144.403C79.5594 144.303 79.9279 144.506 80.0273 144.849C80.1266 145.192 79.9237 145.561 79.5808 145.66ZM69.8095 148.491C69.4666 148.59 69.0981 148.387 68.9987 148.044C68.8994 147.702 69.1024 147.333 69.4452 147.234C69.7881 147.134 70.1566 147.337 70.2559 147.68C70.3553 148.023 70.1523 148.392 69.8095 148.491ZM59.9809 151.338C59.6381 151.438 59.2696 151.235 59.1703 150.892C59.0709 150.549 59.2738 150.181 59.6167 150.081C59.9596 149.982 60.328 150.185 60.4274 150.528C60.5267 150.871 60.3238 151.239 59.9809 151.338ZM50.2096 154.169C49.8668 154.269 49.4983 154.066 49.3989 153.723C49.2996 153.38 49.5025 153.011 49.8454 152.912C50.1882 152.813 50.5567 153.016 50.656 153.359C50.7554 153.702 50.5525 154.07 50.2096 154.169ZM40.4383 157C40.0954 157.1 39.7269 156.897 39.6276 156.554C39.5282 156.211 39.7312 155.842 40.074 155.743C40.4169 155.644 40.7854 155.847 40.8847 156.19C40.9269 156.549 40.7811 156.901 40.4383 157Z" fill="#231F20"/>
<path d="M27.3316 148.533C27.1601 148.582 27.0293 148.558 26.8819 148.477C26.7345 148.396 26.6277 148.241 26.578 148.07C26.5283 147.898 26.5358 147.71 26.617 147.563C26.6982 147.415 26.853 147.308 27.0245 147.259C27.1959 147.209 27.3839 147.217 27.5313 147.298C27.605 147.338 27.7118 147.493 27.7615 147.665C27.8112 147.836 27.8037 148.024 27.7225 148.172C27.6579 148.376 27.503 148.483 27.3316 148.533Z" fill="#231F20"/>
<path d="M184.073 103.122C183.73 103.221 183.362 103.018 183.263 102.675C183.163 102.332 183.366 101.964 183.709 101.865C184.052 101.765 184.42 101.968 184.52 102.311C184.619 102.654 184.359 103.039 184.073 103.122ZM174.245 105.969C173.902 106.069 173.533 105.866 173.434 105.523C173.335 105.18 173.538 104.811 173.881 104.712C174.223 104.613 174.592 104.816 174.691 105.159C174.791 105.502 174.588 105.87 174.245 105.969ZM164.473 108.8C164.13 108.9 163.762 108.697 163.663 108.354C163.563 108.011 163.766 107.642 164.109 107.543C164.452 107.444 164.821 107.647 164.92 107.99C165.019 108.332 164.816 108.701 164.473 108.8ZM154.645 111.648C154.302 111.747 153.934 111.544 153.834 111.201C153.735 110.858 153.938 110.49 154.281 110.391C154.623 110.291 154.992 110.494 155.091 110.837C155.191 111.18 154.988 111.548 154.645 111.648ZM144.874 114.479C144.531 114.578 144.162 114.375 144.063 114.032C143.964 113.689 144.166 113.321 144.509 113.221C144.852 113.122 145.221 113.325 145.32 113.668C145.419 114.011 145.216 114.379 144.874 114.479ZM135.102 117.31C134.759 117.409 134.391 117.206 134.291 116.863C134.192 116.52 134.395 116.152 134.738 116.052C135.081 115.953 135.449 116.156 135.549 116.499C135.648 116.842 135.388 117.227 135.102 117.31ZM125.274 120.157C124.931 120.256 124.562 120.053 124.463 119.711C124.364 119.368 124.567 118.999 124.909 118.9C125.252 118.801 125.621 119.004 125.72 119.346C125.819 119.689 125.617 120.058 125.274 120.157ZM115.502 122.988C115.159 123.087 114.791 122.884 114.692 122.542C114.592 122.199 114.795 121.83 115.138 121.731C115.481 121.631 115.849 121.834 115.949 122.177C116.048 122.52 115.845 122.889 115.502 122.988ZM105.674 125.836C105.331 125.935 104.962 125.732 104.863 125.389C104.764 125.046 104.967 124.678 105.31 124.578C105.652 124.479 106.021 124.682 106.12 125.025C106.22 125.368 106.017 125.736 105.674 125.836ZM95.9024 128.666C95.5596 128.766 95.1911 128.563 95.0918 128.22C94.9924 127.877 95.1953 127.509 95.5382 127.409C95.8811 127.31 96.2496 127.513 96.3489 127.856C96.4483 128.199 96.2453 128.567 95.9024 128.666ZM86.1311 131.497C85.7883 131.597 85.4198 131.394 85.3204 131.051C85.2211 130.708 85.424 130.339 85.7669 130.24C86.1097 130.141 86.4782 130.344 86.5775 130.687C86.6769 131.03 86.474 131.398 86.1311 131.497ZM76.3026 134.345C75.9598 134.444 75.5913 134.241 75.492 133.898C75.3926 133.555 75.5955 133.187 75.9384 133.088C76.2812 132.988 76.6497 133.191 76.7491 133.534C76.8484 133.877 76.6455 134.246 76.3026 134.345ZM66.5313 137.176C66.1884 137.275 65.8199 137.072 65.7205 136.729C65.6212 136.386 65.8242 136.018 66.167 135.919C66.5099 135.819 66.8784 136.022 66.9777 136.365C67.0771 136.708 66.8741 137.076 66.5313 137.176ZM56.7028 140.023C56.3599 140.123 55.9914 139.92 55.8921 139.577C55.7927 139.234 55.9957 138.865 56.3385 138.766C56.6814 138.667 57.0498 138.87 57.1492 139.213C57.2485 139.555 57.0456 139.924 56.7028 140.023ZM46.9314 142.854C46.5886 142.954 46.2201 142.751 46.1207 142.408C46.0214 142.065 46.2243 141.696 46.5672 141.597C46.91 141.498 47.2785 141.701 47.3778 142.043C47.4772 142.386 47.2743 142.755 46.9314 142.854ZM37.1601 145.685C36.8172 145.784 36.4487 145.582 36.3494 145.239C36.25 144.896 36.453 144.527 36.7958 144.428C37.1387 144.329 37.5072 144.532 37.6065 144.874C37.7058 145.217 37.5029 145.586 37.1601 145.685Z" fill="#231F20"/>
<path d="M24.0699 137.275C23.8985 137.324 23.7105 137.317 23.5631 137.236C23.4157 137.154 23.3089 137 23.2757 136.885C23.2261 136.714 23.2336 136.526 23.3148 136.378C23.3959 136.231 23.5508 136.124 23.7222 136.074C23.8936 136.025 24.0816 136.032 24.229 136.113C24.4501 136.235 24.5991 136.75 24.4774 136.971C24.3962 137.118 24.2413 137.225 24.0699 137.275Z" fill="#231F20"/>
<path d="M161.212 97.5422C160.869 97.6416 160.5 97.4386 160.401 97.0957C160.302 96.7528 160.505 96.3843 160.848 96.285C161.19 96.1857 161.559 96.3886 161.658 96.7315C161.758 97.0744 161.555 97.4429 161.212 97.5422ZM151.383 100.39C151.04 100.489 150.672 100.286 150.573 99.9432C150.473 99.6003 150.676 99.2318 151.019 99.1325C151.362 99.0331 151.73 99.2361 151.83 99.579C151.929 99.9219 151.726 100.29 151.383 100.39ZM141.612 103.221C141.269 103.32 140.901 103.117 140.801 102.774C140.702 102.431 140.905 102.063 141.248 101.963C141.591 101.864 141.959 102.067 142.058 102.41C142.158 102.753 141.955 103.121 141.612 103.221ZM131.841 106.052C131.498 106.151 131.129 105.948 131.03 105.605C130.931 105.262 131.133 104.894 131.476 104.794C131.819 104.695 132.188 104.898 132.287 105.241C132.329 105.6 132.126 105.969 131.841 106.052ZM122.012 108.899C121.669 108.998 121.301 108.795 121.201 108.453C121.102 108.11 121.305 107.741 121.648 107.642C121.991 107.542 122.359 107.745 122.458 108.088C122.558 108.431 122.355 108.8 122.012 108.899ZM112.241 111.73C111.898 111.829 111.529 111.626 111.43 111.283C111.331 110.941 111.534 110.572 111.876 110.473C112.219 110.373 112.588 110.576 112.687 110.919C112.786 111.262 112.584 111.631 112.241 111.73ZM102.412 114.577C102.069 114.677 101.701 114.474 101.602 114.131C101.502 113.788 101.705 113.42 102.048 113.32C102.391 113.221 102.759 113.424 102.859 113.767C102.958 114.11 102.755 114.478 102.412 114.577ZM92.6408 117.408C92.298 117.508 91.9295 117.305 91.8302 116.962C91.7308 116.619 91.9337 116.25 92.2766 116.151C92.6194 116.052 92.988 116.255 93.0873 116.598C93.1867 116.941 92.9837 117.309 92.6408 117.408ZM82.8695 120.239C82.5266 120.339 82.1582 120.136 82.0588 119.793C81.9595 119.45 82.1624 119.081 82.5053 118.982C82.8481 118.883 83.2166 119.086 83.3159 119.429C83.3581 119.788 83.2124 120.14 82.8695 120.239ZM73.041 123.087C72.6982 123.186 72.3297 122.983 72.2304 122.64C72.131 122.297 72.3339 121.929 72.6768 121.83C73.0196 121.73 73.3881 121.933 73.4875 122.276C73.5868 122.619 73.3839 122.987 73.041 123.087ZM63.2697 125.918C62.9268 126.017 62.5583 125.814 62.4589 125.471C62.3596 125.128 62.5626 124.76 62.9054 124.66C63.2483 124.561 63.6168 124.764 63.7161 125.107C63.8155 125.45 63.6125 125.818 63.2697 125.918ZM53.4412 128.765C53.0983 128.865 52.7298 128.662 52.6305 128.319C52.5311 127.976 52.7341 127.607 53.0769 127.508C53.4198 127.409 53.7882 127.612 53.8876 127.954C53.9869 128.297 53.784 128.666 53.4412 128.765ZM43.6698 131.596C43.327 131.695 42.9585 131.493 42.8591 131.15C42.7598 130.807 42.9627 130.438 43.3056 130.339C43.6484 130.24 44.0169 130.443 44.1162 130.785C44.2156 131.128 44.0127 131.497 43.6698 131.596ZM33.8985 134.427C33.5556 134.526 33.1871 134.323 33.0878 133.981C32.9884 133.638 33.1914 133.269 33.5342 133.17C33.8771 133.07 34.2456 133.273 34.3449 133.616C34.3871 133.976 34.2413 134.328 33.8985 134.427Z" fill="#231F20"/>
<path d="M20.7917 125.959C20.6202 126.009 20.4323 126.002 20.2849 125.92C20.1375 125.839 20.0306 125.684 19.981 125.513C19.9313 125.341 19.9388 125.153 20.02 125.006C20.1011 124.859 20.256 124.752 20.4274 124.702C20.5989 124.652 20.7297 124.676 20.8771 124.758C21.0245 124.839 21.1313 124.994 21.181 125.165C21.2307 125.337 21.2232 125.525 21.1255 125.615C21.118 125.803 20.9631 125.91 20.7917 125.959Z" fill="#231F20"/>
<path d="M138.334 91.9055C137.991 92.0048 137.622 91.8018 137.523 91.4589C137.424 91.1161 137.627 90.7475 137.969 90.6482C138.312 90.5489 138.681 90.7519 138.78 91.0947C138.879 91.4376 138.677 91.8061 138.334 91.9055ZM128.562 94.7364C128.22 94.8357 127.851 94.6328 127.752 94.2899C127.652 93.947 127.855 93.5785 128.198 93.4791C128.541 93.3798 128.909 93.5828 129.009 93.9257C129.051 94.2851 128.848 94.6536 128.562 94.7364ZM118.734 97.5839C118.391 97.6832 118.023 97.4802 117.923 97.1374C117.824 96.7945 118.027 96.426 118.37 96.3266C118.712 96.2273 119.081 96.4303 119.18 96.7732C119.28 97.116 119.077 97.4845 118.734 97.5839ZM108.963 100.415C108.62 100.514 108.251 100.311 108.152 99.9683C108.052 99.6254 108.255 99.2569 108.598 99.1576C108.941 99.0582 109.31 99.2612 109.409 99.6041C109.508 99.947 109.305 100.315 108.963 100.415ZM99.134 103.262C98.7912 103.362 98.4226 103.159 98.3233 102.816C98.224 102.473 98.4269 102.104 98.7698 102.005C99.1127 101.906 99.4811 102.109 99.5805 102.452C99.6798 102.794 99.4769 103.163 99.134 103.262ZM89.3626 106.093C89.0198 106.193 88.6513 105.99 88.552 105.647C88.4526 105.304 88.6555 104.935 88.9984 104.836C89.3412 104.737 89.7098 104.94 89.8091 105.282C89.9085 105.625 89.7055 105.994 89.3626 106.093ZM79.5913 108.924C79.2484 109.023 78.88 108.821 78.7806 108.478C78.6813 108.135 78.8842 107.766 79.227 107.667C79.5699 107.568 79.9384 107.771 80.0377 108.113C80.0799 108.473 79.9342 108.825 79.5913 108.924ZM69.7628 111.772C69.42 111.871 69.0515 111.668 68.9522 111.325C68.8528 110.982 69.0557 110.614 69.3986 110.514C69.7414 110.415 70.1099 110.618 70.2093 110.961C70.3086 111.304 70.1057 111.672 69.7628 111.772ZM59.9915 114.603C59.6486 114.702 59.2801 114.499 59.1807 114.156C59.0814 113.813 59.2844 113.445 59.6272 113.345C59.9701 113.246 60.3386 113.449 60.4379 113.792C60.5373 114.135 60.3343 114.503 59.9915 114.603ZM50.163 117.45C49.8201 117.549 49.4516 117.346 49.3523 117.004C49.2529 116.661 49.4559 116.292 49.7987 116.193C50.1416 116.093 50.51 116.296 50.6094 116.639C50.7087 116.982 50.5058 117.351 50.163 117.45ZM40.3916 120.281C40.0488 120.38 39.6803 120.177 39.5809 119.834C39.4816 119.492 39.6845 119.123 40.0274 119.024C40.3702 118.924 40.7387 119.127 40.838 119.47C40.9374 119.813 40.7345 120.182 40.3916 120.281ZM30.6203 123.112C30.2774 123.211 29.9089 123.008 29.8096 122.665C29.7102 122.322 29.9132 121.954 30.256 121.855C30.5989 121.755 30.9674 121.958 31.0667 122.301C31.1089 122.661 30.9631 123.013 30.6203 123.112Z" fill="#231F20"/>
<path d="M17.5301 114.701C17.3586 114.751 17.1707 114.744 17.0233 114.662C16.8759 114.581 16.769 114.426 16.7194 114.255C16.6697 114.083 16.6772 113.895 16.7584 113.748C16.8395 113.601 16.9944 113.494 17.1658 113.444C17.3373 113.394 17.4681 113.418 17.6155 113.5C17.7629 113.581 17.8697 113.736 17.9194 113.907C17.9691 114.079 17.9616 114.267 17.8639 114.357C17.8564 114.545 17.7015 114.652 17.5301 114.701Z" fill="#231F20"/>
<path d="M115.472 86.3258C115.129 86.4251 114.761 86.2222 114.661 85.8793C114.562 85.5364 114.765 85.1679 115.108 85.0686C115.451 84.9692 115.819 85.1722 115.919 85.5151C116.018 85.858 115.815 86.2265 115.472 86.3258ZM105.701 89.1567C105.358 89.2561 104.989 89.0531 104.89 88.7102C104.791 88.3673 104.994 87.9988 105.337 87.8995C105.679 87.8002 106.048 88.0031 106.147 88.346C106.247 88.6889 106.044 89.0574 105.701 89.1567ZM95.8724 92.0042C95.5295 92.1035 95.161 91.9006 95.0616 91.5577C94.9623 91.2148 95.1653 90.8463 95.5081 90.747C95.851 90.6476 96.2194 90.8506 96.3188 91.1935C96.4181 91.5364 96.2152 91.9049 95.8724 92.0042ZM86.1009 94.8352C85.7581 94.9345 85.3896 94.7315 85.2903 94.3886C85.1909 94.0458 85.3938 93.6772 85.7367 93.5779C86.0796 93.4786 86.4481 93.6815 86.5474 94.0244C86.6468 94.3673 86.4438 94.7358 86.1009 94.8352ZM76.3296 97.6661C75.9867 97.7654 75.6183 97.5624 75.5189 97.2196C75.4196 96.8767 75.6225 96.5082 75.9654 96.4088C76.3082 96.3095 76.6767 96.5125 76.776 96.8554C76.8182 97.2148 76.6725 97.5667 76.3296 97.6661ZM66.5011 100.514C66.1583 100.613 65.7898 100.41 65.6905 100.067C65.5911 99.7241 65.794 99.3556 66.1369 99.2563C66.4797 99.157 66.8482 99.3599 66.9476 99.7028C67.0469 100.046 66.844 100.414 66.5011 100.514ZM56.7298 103.344C56.3869 103.444 56.0184 103.241 55.919 102.898C55.8197 102.555 56.0227 102.187 56.3655 102.087C56.7084 101.988 57.0769 102.191 57.1762 102.534C57.2756 102.877 57.0726 103.245 56.7298 103.344ZM46.9012 106.192C46.5584 106.291 46.1899 106.088 46.0906 105.745C45.9912 105.403 46.1941 105.034 46.537 104.935C46.8799 104.835 47.2483 105.038 47.3477 105.381C47.447 105.724 47.2441 106.093 46.9012 106.192ZM37.1299 109.023C36.787 109.122 36.4186 108.919 36.3192 108.576C36.2199 108.233 36.4228 107.865 36.7657 107.766C37.1085 107.666 37.477 107.869 37.5763 108.212C37.6757 108.555 37.4728 108.924 37.1299 109.023ZM27.3586 111.854C27.0157 111.953 26.6472 111.75 26.5478 111.407C26.4485 111.064 26.6515 110.696 26.9943 110.597C27.3372 110.497 27.7056 110.7 27.805 111.043C27.8472 111.403 27.7014 111.754 27.3586 111.854Z" fill="#231F20"/>
<path d="M14.2519 103.386C14.0804 103.436 13.9496 103.412 13.8022 103.331C13.6548 103.249 13.548 103.094 13.4983 102.923C13.4486 102.752 13.4561 102.564 13.5373 102.416C13.6184 102.269 13.7733 102.162 13.9447 102.112C14.1162 102.063 14.3042 102.07 14.4516 102.151C14.599 102.232 14.7058 102.387 14.7555 102.559C14.8052 102.73 14.7977 102.918 14.7571 102.992C14.5782 103.23 14.4233 103.336 14.2519 103.386Z" fill="#231F20"/>
<path d="M92.5941 80.689C92.2513 80.7883 91.8827 80.5854 91.7834 80.2425C91.6841 79.8996 91.887 79.5311 92.2299 79.4318C92.5728 79.3325 92.9412 79.5354 93.0406 79.8783C93.1565 80.2783 92.937 80.5897 92.5941 80.689ZM82.8227 83.52C82.4799 83.6193 82.1114 83.4163 82.0121 83.0734C81.9127 82.7306 82.1156 82.3621 82.4585 82.2627C82.8013 82.1634 83.1699 82.3663 83.2692 82.7092C83.3851 83.1093 83.1656 83.4206 82.8227 83.52ZM73.0514 86.3509C72.7085 86.4502 72.3401 86.2473 72.2407 85.9044C72.1414 85.5615 72.3443 85.193 72.6871 85.0936C73.03 84.9943 73.3985 85.1973 73.4978 85.5402C73.5566 85.9568 73.3942 86.2516 73.0514 86.3509ZM63.2229 89.1984C62.8801 89.2977 62.5116 89.0947 62.4122 88.7518C62.3129 88.409 62.5158 88.0405 62.8587 87.9411C63.2015 87.8418 63.57 88.0448 63.6694 88.3876C63.7852 88.7877 63.5658 89.099 63.2229 89.1984ZM53.4516 92.0293C53.1087 92.1286 52.7402 91.9257 52.6408 91.5828C52.5415 91.2399 52.7445 90.8714 53.0873 90.772C53.4302 90.6727 53.7987 90.8757 53.898 91.2186C54.0139 91.6186 53.7944 91.93 53.4516 92.0293ZM43.623 94.8768C43.2802 94.9761 42.9117 94.7731 42.8124 94.4303C42.713 94.0874 42.9159 93.7189 43.2588 93.6195C43.6016 93.5202 43.9701 93.7232 44.0695 94.0661C44.1854 94.4661 43.9659 94.7774 43.623 94.8768ZM33.8517 97.7077C33.5088 97.807 33.1404 97.6041 33.041 97.2612C32.9417 96.9183 33.1446 96.5498 33.4875 96.4505C33.8303 96.3511 34.1988 96.5541 34.2981 96.897C34.414 97.297 34.1946 97.6084 33.8517 97.7077ZM24.0804 100.539C23.7375 100.638 23.369 100.435 23.2696 100.092C23.1703 99.7492 23.3733 99.3807 23.7161 99.2814C24.059 99.1821 24.4274 99.385 24.5268 99.7279C24.5855 100.144 24.4232 100.439 24.0804 100.539Z" fill="#231F20"/>
<path d="M10.9902 92.1281C10.8188 92.1778 10.6879 92.1537 10.5405 92.0726C10.3931 91.9914 10.2863 91.8365 10.2366 91.665C10.1869 91.4936 10.1944 91.3056 10.2921 91.2153C10.3733 91.0679 10.5282 90.9611 10.6996 90.9115C10.8711 90.8618 11.059 90.8693 11.2065 90.9505C11.3539 91.0316 11.4441 91.1294 11.5104 91.358C11.56 91.5294 11.5525 91.7174 11.4714 91.8648C11.3165 91.9716 11.1616 92.0784 10.9902 92.1281Z" fill="#231F20"/>
<path d="M69.7898 75.0929C69.4469 75.1922 69.0784 74.9892 68.9791 74.6463C68.8797 74.3034 69.0827 73.9349 69.4255 73.8356C69.7684 73.7363 70.1368 73.9392 70.2362 74.2821C70.2784 74.6416 70.1326 74.9935 69.7898 75.0929ZM59.9613 77.9403C59.6184 78.0397 59.25 77.8367 59.1506 77.4938C59.0513 77.1509 59.2542 76.7824 59.597 76.6831C59.9399 76.5837 60.3084 76.7867 60.4077 77.1296C60.5071 77.4725 60.3041 77.841 59.9613 77.9403ZM50.19 80.7712C49.8471 80.8706 49.4786 80.6676 49.3792 80.3247C49.2799 79.9819 49.4829 79.6133 49.8257 79.514C50.1686 79.4147 50.5371 79.6176 50.6364 79.9605C50.7357 80.3034 50.5328 80.6719 50.19 80.7712ZM40.3614 83.6187C40.0186 83.7181 39.6501 83.5151 39.5508 83.1722C39.4514 82.8293 39.6543 82.4608 39.9972 82.3615C40.34 82.2622 40.7085 82.4651 40.8079 82.808C40.9072 83.1509 40.7043 83.5194 40.3614 83.6187ZM30.5901 86.4497C30.2472 86.549 29.8788 86.346 29.7794 86.0031C29.6801 85.6603 29.883 85.2917 30.2258 85.1924C30.5687 85.0931 30.9372 85.296 31.0365 85.6389C31.1359 85.9818 30.9329 86.3503 30.5901 86.4497ZM20.8188 89.2806C20.4759 89.3799 20.1074 89.177 20.0081 88.8341C19.9087 88.4912 20.1117 88.1227 20.4545 88.0233C20.7974 87.924 21.1659 88.127 21.2652 88.4699C21.3074 88.8293 21.1616 89.1812 20.8188 89.2806Z" fill="#231F20"/>
<path d="M7.71199 80.8129C7.54055 80.8626 7.4097 80.8386 7.26229 80.7574C7.11489 80.6762 7.00808 80.5213 6.95841 80.3499C6.90874 80.1784 6.91621 79.9904 7.01395 79.9002C7.09512 79.7528 7.25 79.6459 7.42143 79.5963C7.59287 79.5466 7.72372 79.5706 7.87113 79.6518C8.01853 79.733 8.12534 79.8879 8.17501 80.0593C8.22468 80.2308 8.21721 80.4188 8.11948 80.509C8.0383 80.6564 7.88343 80.7632 7.71199 80.8129Z" fill="#231F20"/>
<path d="M46.9117 69.4561C46.5689 69.5554 46.2003 69.3524 46.101 69.0096C46.0016 68.6667 46.2046 68.2982 46.5475 68.1988C46.8903 68.0995 47.2588 68.3025 47.3582 68.6453C47.4741 69.0454 47.2546 69.3567 46.9117 69.4561ZM37.0832 72.3036C36.7404 72.4029 36.3719 72.1999 36.2725 71.857C36.1732 71.5141 36.3761 71.1456 36.719 71.0463C37.0618 70.947 37.4303 71.1499 37.5296 71.4928C37.6455 71.8929 37.4261 72.2042 37.0832 72.3036ZM27.3119 75.1345C26.969 75.2338 26.6005 75.0308 26.5012 74.688C26.4019 74.3451 26.6048 73.9766 26.9476 73.8772C27.2905 73.7779 27.659 73.9809 27.7583 74.3237C27.8742 74.7238 27.6547 75.0351 27.3119 75.1345ZM17.5406 77.9654C17.1977 78.0647 16.8292 77.8618 16.7299 77.5189C16.6305 77.176 16.8335 76.8075 17.1763 76.7081C17.5192 76.6088 17.8877 76.8118 17.987 77.1547C18.0457 77.5713 17.8834 77.8661 17.5406 77.9654Z" fill="#231F20"/>
<path d="M4.45041 69.5548C4.27898 69.6045 4.091 69.597 3.9436 69.5158C3.7962 69.4347 3.68936 69.2798 3.63969 69.1083C3.59002 68.9369 3.59752 68.7489 3.69525 68.6586C3.77642 68.5112 3.93129 68.4044 4.10272 68.3547C4.27416 68.3051 4.40501 68.3291 4.55241 68.4103C4.69981 68.4915 4.80661 68.6464 4.85628 68.8178C4.90595 68.9893 4.89849 69.1773 4.81731 69.3247C4.77673 69.3984 4.62184 69.5052 4.45041 69.5548Z" fill="#231F20"/>
<path d="M24.0502 63.8765C23.7074 63.9758 23.3389 63.7729 23.2396 63.43C23.1402 63.0871 23.3431 62.7186 23.686 62.6192C24.0289 62.5199 24.3973 62.7229 24.4967 63.0658C24.596 63.4086 24.3931 63.7772 24.0502 63.8765ZM14.279 66.7074C13.9361 66.8067 13.5676 66.6038 13.4683 66.2609C13.3689 65.918 13.5719 65.5495 13.9147 65.4502C14.2576 65.3508 14.626 65.5538 14.7254 65.8967C14.7676 66.2561 14.6218 66.6081 14.279 66.7074Z" fill="#231F20"/>
<path d="M1.17215 58.2397C1.00071 58.2894 0.869859 58.2653 0.722455 58.1841C0.57505 58.103 0.468242 57.9481 0.418573 57.7766C0.368903 57.6052 0.376372 57.4172 0.457549 57.2698C0.538727 57.1224 0.6936 57.0156 0.865036 56.9659C1.03647 56.9162 1.16733 56.9403 1.31473 57.0214C1.46214 57.1026 1.56894 57.2575 1.61861 57.429C1.66828 57.6004 1.66081 57.7884 1.56308 57.8787C1.49846 58.0832 1.34359 58.19 1.17215 58.2397Z" fill="#231F20"/>
</svg>
