<svg width="186" height="200" viewBox="0 0 186 200" fill="none" xmlns="http://www.w3.org/2000/svg">
<path d="M96.308 38.5299L177.137 156.964L185.774 158.984L184.764 155.498L101.388 33.4034L96.308 38.5299Z" fill="black"/>
<path d="M106.452 28.2196L178.439 133.668L172.131 111.895L111.458 23.0525L106.452 28.2196Z" fill="black"/>
<path d="M116.522 17.8688L165.806 90.0643L159.482 68.234L121.529 12.7017L116.522 17.8688Z" fill="black"/>
<path d="M126.592 7.51796L153.174 46.4609L146.866 24.6877L131.599 2.35082L126.592 7.51796Z" fill="black"/>
<path d="M107.59 55.0216L74.8712 132.577L81.8646 134.268L112.322 61.9509L107.59 55.0216Z" fill="black"/>
<path d="M117.072 68.9374L88.8413 135.901L95.8347 137.592L121.805 75.8668L117.072 68.9374Z" fill="black"/>
<path d="M126.554 82.8531L102.811 139.225L109.805 140.916L131.361 89.8231L126.554 82.8531Z" fill="black"/>
<path d="M136.093 96.7524L116.782 142.549L123.775 144.24L140.843 103.739L136.093 96.7524Z" fill="black"/>
<path d="M145.576 110.668L130.752 145.873L137.745 147.564L150.325 117.655L145.576 110.668Z" fill="black"/>
<path d="M155.058 124.584L144.722 149.197L151.658 150.904L159.807 131.57L155.058 124.584Z" fill="black"/>
<path d="M164.597 138.483L158.635 152.538L165.628 154.228L169.347 145.47L164.597 138.483Z" fill="black"/>
<path d="M88.9255 99.2059L29.6093 106.975L21.6229 115.112L85.7828 106.744L88.9255 99.2059Z" fill="black"/>
<path d="M82.5424 114.373L28.2986 121.478L47.6589 126.09L79.3997 121.912L82.5424 114.373Z" fill="black"/>
<path d="M95.3252 84.0957L45.5492 90.5878L37.5793 98.7815L92.1253 91.6508L95.3252 84.0957Z" fill="black"/>
<path d="M102 68.2246L62.3685 73.3881L54.3986 81.5819L98.8001 75.7797L102 68.2246Z" fill="black"/>
<path d="M70.8677 64.6693L105.427 60.17L107.589 55.0215L106.168 52.8937L78.8375 56.4757L70.8677 64.6693Z" fill="black"/>
</svg>
