<svg width="104" height="113" viewBox="0 0 104 113" fill="none" xmlns="http://www.w3.org/2000/svg">
<path d="M77.2975 2.22742L14.4856 67.6265L102.53 89.32L77.2975 2.22742Z" stroke="black" stroke-width="1.3578" stroke-miterlimit="10"/>
<path d="M76.2835 6.4237L18.5999 66.4346L99.4296 86.3157L76.2835 6.4237Z" stroke="black" stroke-width="1.3578" stroke-miterlimit="10"/>
<path d="M75.1957 10.5794L22.7713 65.2261L96.2888 83.3852L75.1957 10.5794Z" stroke="black" stroke-width="1.3578" stroke-miterlimit="10"/>
<path d="M74.1817 14.7756L26.8856 64.0341L93.1886 80.3808L74.1817 14.7756Z" stroke="black" stroke-width="1.3578" stroke-miterlimit="10"/>
<path d="M73.1676 18.9719L30.9998 62.8421L90.0885 77.3766L73.1676 18.9719Z" stroke="black" stroke-width="1.3578" stroke-miterlimit="10"/>
<path d="M72.137 23.111L35.1712 61.6336L87.0048 74.4294L72.137 23.111Z" stroke="black" stroke-width="1.3578" stroke-miterlimit="10"/>
<path d="M71.1229 27.3073L39.2855 60.4416L83.9046 71.4251L71.1229 27.3073Z" stroke="black" stroke-width="1.3578" stroke-miterlimit="10"/>
<path d="M70.0516 31.5201L43.4568 59.2331L80.7472 68.4374L70.0516 31.5201Z" stroke="black" stroke-width="1.3578" stroke-miterlimit="10"/>
<path d="M69.0376 35.7164L47.5711 58.0411L77.647 65.433L69.0376 35.7164Z" stroke="black" stroke-width="1.3578" stroke-miterlimit="10"/>
<path d="M68.007 39.8555L51.7424 56.8325L74.5634 62.4859L68.007 39.8555Z" stroke="black" stroke-width="1.3578" stroke-miterlimit="10"/>
<path d="M66.9929 44.0518L55.8567 55.6406L71.4632 59.4815L66.9929 44.0518Z" stroke="black" stroke-width="1.3578" stroke-miterlimit="10"/>
<path d="M59.971 54.4486L68.3059 56.4938L65.9217 48.2646L59.971 54.4486Z" stroke="black" stroke-width="1.3578" stroke-miterlimit="10"/>
</svg>
