<svg width="83" height="88" viewBox="0 0 83 88" fill="none" xmlns="http://www.w3.org/2000/svg">
<path d="M6.79102 19.4327L25.2516 83.1521L29.1757 79.1658L12.2549 20.7611L6.79102 19.4327Z" fill="#231F20"/>
<path d="M30.2737 25.0183L42.1116 65.8787L45.9785 61.909L35.6638 26.3061L30.2737 25.0183Z" fill="#231F20"/>
<path d="M42.9188 28.0448L51.1806 56.5614L53.5741 54.1335L46.2396 28.8172L42.9188 28.0448Z" fill="#231F20"/>
<path d="M13.4491 21.0347L30.0388 78.2964L30.6492 77.624L14.3079 21.2195L13.4491 21.0347Z" fill="#231F20"/>
<path d="M16.7125 21.8236L32.375 75.8851L34.7115 73.4737L19.9762 22.6125L16.7125 21.8236Z" fill="#231F20"/>
<path d="M24.5647 23.699L38.0086 70.1027L40.4021 67.6748L27.8854 24.4714L24.5647 23.699Z" fill="#231F20"/>
<path d="M21.2274 22.8694L35.6316 72.5876L37.1456 70.9721L23.354 23.3683L21.2274 22.8694Z" fill="#231F20"/>
<path d="M36.8745 26.6367L46.8416 61.0395L49.4711 58.3574L40.5306 27.4978L36.8745 26.6367Z" fill="#231F20"/>
<path d="M72.2007 35.0473L59.0321 31.9247L62.7408 44.7257L72.2007 35.0473Z" fill="#231F20"/>
<path d="M0.337646 17.8955L20.6194 87.9011L23.5422 84.9482L4.38626 18.8287L0.337646 17.8955Z" fill="#231F20"/>
<path d="M52.505 30.3469L58.068 49.5485L61.8778 45.5953L57.8214 31.5942L52.505 30.3469Z" fill="#231F20"/>
<path d="M47.4503 29.1477L54.4372 53.2639L57.205 50.4179L51.2943 30.0162L47.4503 29.1477Z" fill="#231F20"/>
</svg>
