<svg width="158" height="172" viewBox="0 0 158 172" fill="none" xmlns="http://www.w3.org/2000/svg">
<path d="M1.65649 36.4677L136.127 69.6121L40.2002 169.507L1.65649 36.4677Z" stroke="black" stroke-width="2.0736" stroke-miterlimit="10"/>
<path d="M6.38879 41.0432L129.785 71.4496L41.7536 163.11L6.38879 41.0432Z" stroke="black" stroke-width="2.0736" stroke-miterlimit="10"/>
<path d="M11.1782 45.6023L123.499 73.2707L43.3642 156.697L11.1782 45.6023Z" stroke="black" stroke-width="2.0736" stroke-miterlimit="10"/>
<path d="M15.9104 50.178L117.156 75.1084L44.9341 150.357L15.9104 50.178Z" stroke="black" stroke-width="2.0736" stroke-miterlimit="10"/>
<path d="M20.6261 54.6964L110.813 76.946L46.4875 143.961L20.6261 54.6964Z" stroke="black" stroke-width="2.0736" stroke-miterlimit="10"/>
<path d="M25.3584 59.2721L104.528 78.7672L48.0409 137.564L25.3584 59.2721Z" stroke="black" stroke-width="2.0736" stroke-miterlimit="10"/>
<path d="M30.1478 63.8311L98.185 80.6047L49.6515 131.151L30.1478 63.8311Z" stroke="black" stroke-width="2.0736" stroke-miterlimit="10"/>
<path d="M34.8801 68.4067L91.8993 82.4258L51.2215 124.811L34.8801 68.4067Z" stroke="black" stroke-width="2.0736" stroke-miterlimit="10"/>
<path d="M39.5957 72.9253L85.5564 84.2635L52.7747 118.415L39.5957 72.9253Z" stroke="black" stroke-width="2.0736" stroke-miterlimit="10"/>
<path d="M44.3851 77.4843L79.2708 86.0844L54.3853 112.001L44.3851 77.4843Z" stroke="black" stroke-width="2.0736" stroke-miterlimit="10"/>
<path d="M49.1174 82.0599L72.928 87.9221L55.9387 105.605L49.1174 82.0599Z" stroke="black" stroke-width="2.0736" stroke-miterlimit="10"/>
<path d="M66.5852 89.7597L57.4922 99.2079L53.8497 86.6355L66.5852 89.7597Z" stroke="black" stroke-width="2.0736" stroke-miterlimit="10"/>
</svg>
