<svg width="224" height="240" viewBox="0 0 224 240" fill="none" xmlns="http://www.w3.org/2000/svg">
<path d="M195.709 95.0941L192.372 94.2645L193.514 98.2077L195.908 95.7799L195.709 95.0941Z" fill="#231F20"/>
<path d="M181.739 91.77L185.878 106.057L188.271 103.629L185.059 92.5424L181.739 91.77Z" fill="#231F20"/>
<path d="M171.089 89.2184L178.242 113.906L180.635 111.478L174.41 89.9908L171.089 89.2184Z" fill="#231F20"/>
<path d="M160.44 86.6669L170.606 121.755L172.983 119.27L163.777 87.4964L160.44 86.6669Z" fill="#231F20"/>
<path d="M149.807 84.1725L162.953 129.547L165.346 127.12L153.128 84.9449L149.807 84.1725Z" fill="#231F20"/>
<path d="M139.158 81.6208L155.317 137.397L157.71 134.969L142.478 82.3932L139.158 81.6208Z" fill="#231F20"/>
<path d="M128.508 79.0692L147.681 145.246L150.074 142.818L131.829 79.8416L128.508 79.0692Z" fill="#231F20"/>
<path d="M117.859 76.5176L140.044 153.095L142.421 150.61L121.196 77.3471L117.859 76.5176Z" fill="#231F20"/>
<path d="M107.226 74.0232L132.392 160.887L134.785 158.459L110.547 74.7956L107.226 74.0232Z" fill="#231F20"/>
<path d="M96.5764 71.4717L124.756 168.737L127.149 166.309L99.8971 72.2441L96.5764 71.4717Z" fill="#231F20"/>
<path d="M85.9269 68.9199L117.119 176.586L119.496 174.101L89.2476 69.6923L85.9269 68.9199Z" fill="#231F20"/>
<path d="M75.2775 66.3684L109.483 184.435L111.86 181.95L78.6147 67.1979L75.2775 66.3684Z" fill="#231F20"/>
<path d="M64.6445 63.874L101.831 192.227L104.224 189.799L67.9652 64.6464L64.6445 63.874Z" fill="#231F20"/>
<path d="M53.9952 61.3224L94.1946 200.076L96.5881 197.648L57.3159 62.0948L53.9952 61.3224Z" fill="#231F20"/>
<path d="M43.3457 58.7708L86.5584 207.925L88.9353 205.441L46.6664 59.5431L43.3457 58.7708Z" fill="#231F20"/>
<path d="M32.6963 56.2192L78.9223 215.775L81.2993 213.29L36.0336 57.0488L32.6963 56.2192Z" fill="#231F20"/>
<path d="M22.0634 53.7247L71.2695 223.567L73.663 221.139L25.384 54.4971L22.0634 53.7247Z" fill="#231F20"/>
<path d="M11.4139 51.1732L63.6334 231.416L66.0269 228.988L14.7346 51.9456L11.4139 51.1732Z" fill="#231F20"/>
<path d="M0.764526 48.6216L55.9972 239.265L58.3742 236.78L4.10178 49.4511L0.764526 48.6216Z" fill="#231F20"/>
</svg>
