<svg width="177" height="191" viewBox="0 0 177 191" fill="none" xmlns="http://www.w3.org/2000/svg">
<path d="M171.34 135.995C171.225 135.595 170.921 135.188 170.552 134.985C170.184 134.782 169.677 134.743 169.277 134.859C168.877 134.974 168.469 135.278 168.266 135.647C167.82 136.458 168.135 137.543 168.929 137.933C169.297 138.136 169.804 138.175 170.204 138.059C170.604 137.943 171.012 137.639 171.214 137.271C171.401 136.845 171.456 136.395 171.34 135.995Z" fill="#231F20"/>
<path d="M164.883 137.866C165.148 138.78 164.604 139.681 163.747 139.93C162.833 140.194 161.932 139.65 161.683 138.793C161.418 137.879 161.963 136.978 162.82 136.729C163.718 136.407 164.618 136.952 164.883 137.866ZM158.483 139.72C158.748 140.634 158.204 141.535 157.347 141.784C156.433 142.049 155.532 141.504 155.283 140.647C155.019 139.733 155.563 138.832 156.42 138.583C157.26 138.278 158.219 138.806 158.483 139.72ZM152.026 141.591C152.291 142.505 151.747 143.406 150.89 143.654C149.976 143.919 149.075 143.375 148.826 142.518C148.561 141.604 149.106 140.703 149.963 140.454C150.803 140.149 151.761 140.676 152.026 141.591ZM145.569 143.462C145.834 144.376 145.29 145.277 144.433 145.525C143.519 145.79 142.618 145.246 142.369 144.389C142.104 143.474 142.649 142.573 143.506 142.325C144.403 142.003 145.304 142.547 145.569 143.462Z" fill="#231F20"/>
<path d="M169.188 128.566C169.072 128.166 168.768 127.758 168.4 127.555C168.031 127.353 167.525 127.314 167.125 127.429C166.725 127.545 166.317 127.849 166.114 128.218C165.668 129.028 165.982 130.114 166.776 130.504C167.145 130.707 167.652 130.746 168.052 130.63C168.452 130.514 168.859 130.21 169.062 129.841C169.249 129.416 169.304 128.966 169.188 128.566Z" fill="#231F20"/>
<path d="M162.731 130.437C162.996 131.351 162.452 132.252 161.595 132.501C160.68 132.765 159.779 132.221 159.531 131.364C159.266 130.45 159.81 129.549 160.667 129.3C161.565 128.978 162.466 129.522 162.731 130.437ZM156.331 132.291C156.596 133.205 156.052 134.106 155.195 134.355C154.28 134.62 153.379 134.075 153.131 133.218C152.866 132.304 153.41 131.403 154.267 131.154C155.108 130.849 156.066 131.377 156.331 132.291ZM149.874 134.162C150.139 135.076 149.595 135.977 148.738 136.225C147.823 136.49 146.922 135.946 146.674 135.089C146.409 134.174 146.953 133.273 147.81 133.025C148.651 132.72 149.609 133.247 149.874 134.162ZM143.417 136.032C143.682 136.947 143.138 137.848 142.28 138.096C141.366 138.361 140.465 137.817 140.217 136.96C139.952 136.045 140.496 135.144 141.353 134.896C142.251 134.574 143.152 135.118 143.417 136.032ZM137.017 137.887C137.282 138.801 136.738 139.702 135.881 139.95C134.966 140.215 134.065 139.671 133.817 138.814C133.552 137.899 134.096 136.998 134.953 136.75C135.794 136.445 136.752 136.972 137.017 137.887ZM130.56 139.757C130.825 140.672 130.281 141.573 129.423 141.821C128.509 142.086 127.608 141.542 127.36 140.684C127.095 139.77 127.639 138.869 128.496 138.621C129.337 138.315 130.295 138.843 130.56 139.757Z" fill="#231F20"/>
<path d="M167.036 121.137C166.92 120.737 166.616 120.329 166.247 120.126C165.879 119.923 165.372 119.884 164.972 120C164.572 120.116 164.165 120.42 163.962 120.788C163.499 121.542 163.83 122.685 164.624 123.074C164.992 123.277 165.499 123.316 165.899 123.2C166.299 123.085 166.707 122.781 166.91 122.412C167.113 122.044 167.152 121.537 167.036 121.137Z" fill="#231F20"/>
<path d="M160.579 123.008C160.844 123.922 160.299 124.823 159.442 125.071C158.528 125.336 157.627 124.792 157.379 123.935C157.114 123.02 157.658 122.119 158.515 121.871C159.413 121.549 160.314 122.093 160.579 123.008ZM154.179 124.862C154.444 125.776 153.899 126.677 153.042 126.925C152.128 127.19 151.227 126.646 150.979 125.789C150.714 124.874 151.258 123.973 152.115 123.725C152.956 123.42 153.914 123.947 154.179 124.862ZM147.722 126.732C147.987 127.647 147.442 128.548 146.585 128.796C145.671 129.061 144.77 128.517 144.522 127.66C144.257 126.745 144.801 125.844 145.658 125.596C146.499 125.29 147.457 125.818 147.722 126.732ZM141.265 128.603C141.529 129.518 140.985 130.419 140.128 130.667C139.214 130.932 138.313 130.387 138.065 129.53C137.8 128.616 138.344 127.715 139.201 127.467C140.099 127.145 141 127.689 141.265 128.603ZM134.865 130.457C135.129 131.372 134.585 132.273 133.728 132.521C132.814 132.786 131.913 132.242 131.665 131.384C131.4 130.47 131.944 129.569 132.801 129.321C133.642 129.015 134.6 129.543 134.865 130.457ZM128.407 132.328C128.672 133.242 128.128 134.143 127.271 134.392C126.357 134.657 125.456 134.112 125.208 133.255C124.943 132.341 125.487 131.44 126.344 131.192C127.185 130.886 128.143 131.414 128.407 132.328ZM121.95 134.199C122.215 135.113 121.671 136.014 120.814 136.263C119.9 136.527 118.999 135.983 118.75 135.126C118.486 134.212 119.03 133.311 119.887 133.062C120.727 132.757 121.686 133.284 121.95 134.199ZM115.493 136.07C115.758 136.984 115.214 137.885 114.357 138.133C113.443 138.398 112.542 137.854 112.293 136.997C112.028 136.082 112.573 135.181 113.43 134.933C114.287 134.685 115.228 135.155 115.493 136.07Z" fill="#231F20"/>
<path d="M164.883 113.708C164.767 113.308 164.464 112.9 164.095 112.697C163.727 112.494 163.22 112.455 162.82 112.571C162.42 112.687 162.012 112.991 161.809 113.359C161.346 114.113 161.677 115.256 162.472 115.645C162.84 115.848 163.347 115.887 163.747 115.771C164.147 115.656 164.554 115.352 164.757 114.983C164.96 114.615 164.999 114.108 164.883 113.708Z" fill="#231F20"/>
<path d="M158.426 115.578C158.691 116.493 158.147 117.394 157.29 117.642C156.376 117.907 155.475 117.363 155.226 116.506C154.961 115.591 155.505 114.69 156.363 114.442C157.26 114.12 158.161 114.664 158.426 115.578ZM152.026 117.433C152.291 118.347 151.747 119.248 150.89 119.496C149.976 119.761 149.075 119.217 148.826 118.36C148.561 117.445 149.106 116.544 149.963 116.296C150.803 115.991 151.761 116.518 152.026 117.433ZM145.569 119.303C145.834 120.218 145.29 121.119 144.433 121.367C143.518 121.632 142.618 121.088 142.369 120.23C142.104 119.316 142.648 118.415 143.506 118.167C144.346 117.861 145.304 118.389 145.569 119.303ZM139.112 121.174C139.377 122.088 138.833 122.989 137.976 123.238C137.061 123.503 136.16 122.958 135.912 122.101C135.647 121.187 136.191 120.286 137.049 120.037C137.946 119.715 138.847 120.26 139.112 121.174ZM132.712 123.028C132.977 123.943 132.433 124.844 131.576 125.092C130.661 125.357 129.761 124.813 129.512 123.955C129.247 123.041 129.791 122.14 130.649 121.892C131.489 121.586 132.447 122.114 132.712 123.028ZM126.255 124.899C126.52 125.813 125.976 126.714 125.119 126.963C124.204 127.228 123.303 126.683 123.055 125.826C122.79 124.912 123.334 124.011 124.191 123.762C125.032 123.457 125.99 123.985 126.255 124.899ZM119.798 126.77C120.063 127.684 119.519 128.585 118.662 128.833C117.747 129.098 116.846 128.554 116.598 127.697C116.333 126.782 116.877 125.881 117.734 125.633C118.575 125.328 119.533 125.855 119.798 126.77ZM113.341 128.64C113.606 129.555 113.062 130.456 112.204 130.704C111.29 130.969 110.389 130.425 110.141 129.568C109.876 128.653 110.42 127.752 111.277 127.504C112.134 127.256 113.076 127.726 113.341 128.64ZM106.941 130.495C107.206 131.409 106.662 132.31 105.805 132.558C104.89 132.823 103.989 132.279 103.741 131.422C103.476 130.507 104.02 129.606 104.877 129.358C105.718 129.053 106.676 129.58 106.941 130.495ZM100.484 132.365C100.749 133.28 100.205 134.181 99.3474 134.429C98.4331 134.694 97.5322 134.15 97.2838 133.292C97.0189 132.378 97.5631 131.477 98.4202 131.229C99.2608 130.923 100.219 131.451 100.484 132.365Z" fill="#231F20"/>
<path d="M175.629 150.796C175.513 150.396 175.209 149.989 174.84 149.786C174.472 149.583 173.965 149.544 173.565 149.66C173.165 149.776 172.758 150.08 172.555 150.448C172.108 151.259 172.423 152.345 173.217 152.734C173.585 152.937 174.092 152.976 174.492 152.86C174.892 152.744 175.3 152.44 175.503 152.072C175.706 151.703 175.761 151.254 175.629 150.796Z" fill="#231F20"/>
<path d="M173.476 143.367C173.36 142.967 173.056 142.56 172.688 142.357C172.319 142.154 171.813 142.115 171.413 142.231C171.013 142.347 170.605 142.65 170.402 143.019C169.939 143.773 170.27 144.915 171.064 145.305C171.433 145.508 171.94 145.547 172.34 145.431C172.74 145.315 173.147 145.011 173.35 144.643C173.553 144.274 173.609 143.824 173.476 143.367Z" fill="#231F20"/>
<path d="M167.019 145.238C167.284 146.152 166.74 147.053 165.883 147.302C164.968 147.566 164.067 147.022 163.819 146.165C163.554 145.251 164.098 144.35 164.956 144.101C165.87 143.836 166.771 144.381 167.019 145.238ZM160.619 147.092C160.884 148.006 160.34 148.907 159.483 149.156C158.568 149.421 157.667 148.876 157.419 148.019C157.154 147.105 157.698 146.204 158.556 145.956C159.413 145.707 160.371 146.235 160.619 147.092Z" fill="#231F20"/>
<path d="M162.731 106.279C162.615 105.879 162.311 105.471 161.943 105.268C161.574 105.065 161.068 105.026 160.668 105.142C160.268 105.258 159.86 105.562 159.657 105.93C159.211 106.741 159.525 107.827 160.319 108.216C160.688 108.419 161.195 108.458 161.595 108.342C161.995 108.226 162.402 107.922 162.605 107.554C162.808 107.185 162.847 106.679 162.731 106.279Z" fill="#231F20"/>
<path d="M156.274 108.149C156.539 109.064 155.995 109.965 155.138 110.213C154.223 110.478 153.322 109.934 153.074 109.076C152.809 108.162 153.353 107.261 154.21 107.013C155.125 106.748 156.009 107.235 156.274 108.149ZM149.874 110.003C150.139 110.918 149.595 111.819 148.738 112.067C147.823 112.332 146.922 111.788 146.674 110.931C146.409 110.016 146.953 109.115 147.81 108.867C148.668 108.619 149.609 109.089 149.874 110.003ZM143.417 111.874C143.682 112.789 143.138 113.69 142.28 113.938C141.366 114.203 140.465 113.658 140.217 112.801C139.952 111.887 140.496 110.986 141.353 110.738C142.21 110.489 143.152 110.96 143.417 111.874ZM136.96 113.745C137.225 114.659 136.681 115.56 135.823 115.809C134.909 116.073 134.008 115.529 133.76 114.672C133.495 113.758 134.039 112.857 134.896 112.608C135.811 112.343 136.695 112.831 136.96 113.745ZM130.56 115.599C130.825 116.513 130.281 117.414 129.423 117.663C128.509 117.928 127.608 117.383 127.36 116.526C127.095 115.612 127.639 114.711 128.496 114.463C129.353 114.214 130.295 114.685 130.56 115.599ZM124.103 117.47C124.368 118.384 123.823 119.285 122.966 119.534C122.052 119.798 121.151 119.254 120.903 118.397C120.638 117.483 121.182 116.582 122.039 116.333C122.896 116.085 123.838 116.555 124.103 117.47ZM117.646 119.341C117.911 120.255 117.366 121.156 116.509 121.404C115.595 121.669 114.694 121.125 114.446 120.268C114.181 119.353 114.725 118.452 115.582 118.204C116.439 117.956 117.381 118.426 117.646 119.341ZM111.189 121.211C111.453 122.126 110.909 123.027 110.052 123.275C109.138 123.54 108.237 122.996 107.989 122.138C107.724 121.224 108.268 120.323 109.125 120.075C109.982 119.826 110.924 120.297 111.189 121.211ZM104.789 123.065C105.054 123.98 104.509 124.881 103.652 125.129C102.738 125.394 101.837 124.85 101.589 123.993C101.324 123.078 101.868 122.177 102.725 121.929C103.582 121.681 104.524 122.151 104.789 123.065ZM98.3315 124.936C98.5964 125.851 98.0522 126.752 97.1951 127C96.2808 127.265 95.3799 126.72 95.1315 125.863C94.8666 124.949 95.4108 124.048 96.2679 123.8C97.1251 123.551 98.0666 124.022 98.3315 124.936ZM91.8744 126.807C92.1393 127.721 91.5952 128.622 90.738 128.871C89.8237 129.135 88.9228 128.591 88.6744 127.734C88.4095 126.82 88.9537 125.919 89.8109 125.67C90.668 125.422 91.6095 125.893 91.8744 126.807ZM85.4173 128.678C85.6822 129.592 85.1381 130.493 84.2809 130.741C83.3667 131.006 82.4657 130.462 82.2174 129.605C81.9525 128.69 82.4966 127.789 83.3538 127.541C84.2109 127.293 85.1524 127.763 85.4173 128.678Z" fill="#231F20"/>
<path d="M160.579 98.8493C160.463 98.4493 160.159 98.0418 159.79 97.8388C159.422 97.6358 158.915 97.5968 158.515 97.7127C158.115 97.8286 157.708 98.1325 157.505 98.501C157.058 99.3118 157.373 100.398 158.167 100.787C158.535 100.99 159.042 101.029 159.442 100.913C159.842 100.797 160.25 100.493 160.453 100.125C160.656 99.7562 160.711 99.3065 160.579 98.8493Z" fill="#231F20"/>
<path d="M154.122 100.72C154.386 101.634 153.842 102.536 152.985 102.784C152.071 103.049 151.17 102.504 150.922 101.647C150.657 100.733 151.201 99.8318 152.058 99.5835C152.972 99.3186 153.857 99.8057 154.122 100.72ZM147.722 102.574C147.987 103.489 147.442 104.39 146.585 104.638C145.671 104.903 144.77 104.359 144.522 103.501C144.257 102.587 144.801 101.686 145.658 101.438C146.515 101.189 147.457 101.66 147.722 102.574ZM141.265 104.445C141.529 105.359 140.985 106.26 140.128 106.509C139.214 106.774 138.313 106.229 138.065 105.372C137.8 104.458 138.344 103.557 139.201 103.308C140.058 103.06 141 103.531 141.265 104.445ZM134.807 106.316C135.072 107.23 134.528 108.131 133.671 108.379C132.757 108.644 131.856 108.1 131.607 107.243C131.343 106.328 131.887 105.427 132.744 105.179C133.658 104.914 134.543 105.401 134.807 106.316ZM128.407 108.17C128.672 109.084 128.128 109.985 127.271 110.234C126.357 110.499 125.456 109.954 125.208 109.097C124.943 108.183 125.487 107.282 126.344 107.033C127.201 106.785 128.143 107.256 128.407 108.17ZM121.95 110.041C122.215 110.955 121.671 111.856 120.814 112.104C119.9 112.369 118.999 111.825 118.75 110.968C118.486 110.053 119.03 109.152 119.887 108.904C120.744 108.656 121.685 109.126 121.95 110.041ZM115.493 111.911C115.758 112.826 115.214 113.727 114.357 113.975C113.443 114.24 112.542 113.696 112.293 112.838C112.028 111.924 112.573 111.023 113.43 110.775C114.287 110.526 115.228 110.997 115.493 111.911ZM109.036 113.782C109.301 114.696 108.757 115.598 107.9 115.846C106.986 116.111 106.085 115.566 105.836 114.709C105.571 113.795 106.115 112.894 106.973 112.645C107.83 112.397 108.771 112.868 109.036 113.782ZM102.636 115.636C102.901 116.551 102.357 117.452 101.5 117.7C100.586 117.965 99.6846 117.421 99.4363 116.563C99.1714 115.649 99.7156 114.748 100.573 114.5C101.43 114.251 102.371 114.722 102.636 115.636ZM96.1792 117.507C96.4441 118.421 95.8999 119.322 95.0428 119.571C94.1285 119.836 93.2276 119.291 92.9792 118.434C92.7143 117.52 93.2584 116.619 94.1156 116.37C94.9727 116.122 95.9143 116.593 96.1792 117.507ZM89.7221 119.378C89.987 120.292 89.4428 121.193 88.5857 121.441C87.6714 121.706 86.7705 121.162 86.5221 120.305C86.2572 119.39 86.8014 118.489 87.6585 118.241C88.5156 117.993 89.4572 118.463 89.7221 119.378ZM83.265 121.248C83.5299 122.163 82.9857 123.064 82.1286 123.312C81.2143 123.577 80.3134 123.033 80.065 122.176C79.8001 121.261 80.3443 120.36 81.2014 120.112C82.0585 119.864 83.0001 120.334 83.265 121.248ZM76.865 123.103C77.1299 124.017 76.5858 124.918 75.7287 125.166C74.8144 125.431 73.9134 124.887 73.6651 124.03C73.4002 123.115 73.9443 122.214 74.8015 121.966C75.6586 121.718 76.6001 122.188 76.865 123.103ZM70.4079 124.973C70.6729 125.888 70.1287 126.789 69.2716 127.037C68.3573 127.302 67.4563 126.758 67.208 125.9C66.9431 124.986 67.4872 124.085 68.3444 123.837C69.2015 123.588 70.143 124.059 70.4079 124.973Z" fill="#231F20"/>
<path d="M158.426 91.4202C158.31 91.0202 158.007 90.6127 157.638 90.4097C157.27 90.2068 156.763 90.1678 156.363 90.2837C155.963 90.3995 155.555 90.7034 155.352 91.0719C154.906 91.8827 155.22 92.9684 156.015 93.3578C156.383 93.5608 156.89 93.5998 157.29 93.4839C157.69 93.368 158.097 93.0641 158.3 92.6956C158.503 92.3271 158.559 91.8774 158.426 91.4202Z" fill="#231F20"/>
<path d="M151.969 93.291C152.234 94.2053 151.69 95.1063 150.833 95.3546C149.918 95.6195 149.018 95.0752 148.769 94.218C148.504 93.3037 149.048 92.4027 149.906 92.1544C150.82 91.8895 151.721 92.4338 151.969 93.291ZM145.569 95.1451C145.834 96.0595 145.29 96.9605 144.433 97.2088C143.519 97.4737 142.618 96.9294 142.369 96.0722C142.104 95.1579 142.649 94.2569 143.506 94.0086C144.363 93.7602 145.321 94.2879 145.569 95.1451ZM139.112 97.0159C139.377 97.9302 138.833 98.8312 137.976 99.0795C137.061 99.3444 136.16 98.8001 135.912 97.9429C135.647 97.0286 136.191 96.1276 137.049 95.8793C137.906 95.631 138.864 96.1587 139.112 97.0159ZM132.655 98.8866C132.92 99.8009 132.376 100.702 131.519 100.95C130.604 101.215 129.703 100.671 129.455 99.8137C129.19 98.8993 129.734 97.9984 130.591 97.75C131.506 97.4851 132.407 98.0294 132.655 98.8866ZM126.255 100.741C126.52 101.655 125.976 102.556 125.119 102.804C124.204 103.069 123.303 102.525 123.055 101.668C122.79 100.753 123.334 99.8525 124.192 99.6042C125.049 99.3559 126.007 99.8836 126.255 100.741ZM119.798 102.611C120.063 103.526 119.519 104.427 118.662 104.675C117.747 104.94 116.846 104.396 116.598 103.539C116.333 102.624 116.877 101.723 117.734 101.475C118.592 101.227 119.55 101.754 119.798 102.611ZM113.341 104.482C113.606 105.397 113.062 106.298 112.204 106.546C111.29 106.811 110.389 106.267 110.141 105.409C109.876 104.495 110.42 103.594 111.277 103.346C112.134 103.097 113.093 103.625 113.341 104.482ZM106.884 106.353C107.149 107.267 106.605 108.168 105.747 108.417C104.833 108.682 103.932 108.137 103.684 107.28C103.419 106.366 103.963 105.465 104.82 105.216C105.734 104.952 106.635 105.496 106.884 106.353ZM100.484 108.207C100.749 109.121 100.205 110.022 99.3474 110.271C98.4332 110.536 97.5322 109.991 97.2838 109.134C97.0189 108.22 97.5631 107.319 98.4203 107.071C99.2774 106.822 100.235 107.35 100.484 108.207ZM94.0268 110.078C94.2917 110.992 93.7475 111.893 92.8903 112.142C91.976 112.406 91.0751 111.862 90.8268 111.005C90.5619 110.091 91.106 109.19 91.9632 108.941C92.8203 108.693 93.7784 109.221 94.0268 110.078ZM87.5696 111.949C87.8345 112.863 87.2904 113.764 86.4332 114.012C85.519 114.277 84.618 113.733 84.3697 112.876C84.1048 111.961 84.6489 111.06 85.5061 110.812C86.3632 110.564 87.3213 111.091 87.5696 111.949ZM81.1125 113.819C81.3774 114.734 80.8333 115.635 79.9761 115.883C79.0619 116.148 78.1609 115.604 77.9126 114.746C77.6477 113.832 78.1918 112.931 79.049 112.683C79.9061 112.434 80.8642 112.962 81.1125 113.819ZM74.7126 115.673C74.9775 116.588 74.4333 117.489 73.5762 117.737C72.6619 118.002 71.761 117.458 71.5126 116.601C71.2477 115.686 71.7919 114.785 72.649 114.537C73.5062 114.289 74.4642 114.816 74.7126 115.673ZM68.2555 117.544C68.5204 118.459 67.9762 119.36 67.1191 119.608C66.2048 119.873 65.3039 119.329 65.0555 118.471C64.7906 117.557 65.3348 116.656 66.1919 116.408C67.0491 116.159 68.0071 116.687 68.2555 117.544ZM61.7984 119.415C62.0633 120.329 61.5191 121.23 60.662 121.479C59.7477 121.744 58.8468 121.199 58.5984 120.342C58.3335 119.428 58.8777 118.527 59.7348 118.278C60.592 118.03 61.5501 118.558 61.7984 119.415ZM55.3413 121.286C55.6062 122.2 55.0621 123.101 54.2049 123.349C53.2906 123.614 52.3897 123.07 52.1413 122.213C51.8764 121.298 52.4206 120.397 53.2778 120.149C54.192 119.884 55.093 120.428 55.3413 121.286Z" fill="#231F20"/>
<path d="M156.274 83.991C156.158 83.591 155.854 83.1835 155.486 82.9805C155.117 82.7776 154.61 82.7386 154.21 82.8545C153.81 82.9703 153.403 83.2742 153.2 83.6427C152.754 84.4535 153.068 85.5393 153.862 85.9287C154.231 86.1316 154.738 86.1706 155.138 86.0548C155.538 85.9389 155.945 85.635 156.148 85.2664C156.351 84.8979 156.406 84.4482 156.274 83.991Z" fill="#231F20"/>
<path d="M149.817 85.8617C150.082 86.7761 149.538 87.6771 148.68 87.9255C147.766 88.1903 146.865 87.646 146.617 86.7888C146.352 85.8745 146.896 84.9735 147.753 84.7251C148.668 84.4603 149.568 85.0045 149.817 85.8617ZM143.417 87.7159C143.682 88.6303 143.138 89.5313 142.28 89.7796C141.366 90.0445 140.465 89.5002 140.217 88.643C139.952 87.7286 140.496 86.8276 141.353 86.5793C142.21 86.331 143.168 86.8587 143.417 87.7159ZM136.96 89.5866C137.225 90.501 136.681 91.402 135.823 91.6504C134.909 91.9152 134.008 91.3709 133.76 90.5137C133.495 89.5994 134.039 88.6984 134.896 88.4501C135.753 88.2017 136.711 88.7294 136.96 89.5866ZM130.503 91.4574C130.768 92.3717 130.223 93.2728 129.366 93.5211C128.452 93.786 127.551 93.2417 127.303 92.3845C127.038 91.4701 127.582 90.5691 128.439 90.3208C129.353 90.0559 130.254 90.6002 130.503 91.4574ZM124.103 93.3115C124.368 94.2259 123.823 95.1269 122.966 95.3753C122.052 95.6401 121.151 95.0959 120.903 94.2386C120.638 93.3243 121.182 92.4233 122.039 92.175C122.896 91.9266 123.854 92.4543 124.103 93.3115ZM117.646 95.1823C117.911 96.0966 117.366 96.9977 116.509 97.246C115.595 97.5109 114.694 96.9666 114.446 96.1094C114.181 95.195 114.725 94.294 115.582 94.0457C116.439 93.7974 117.397 94.3251 117.646 95.1823ZM111.189 97.053C111.453 97.9674 110.909 98.8684 110.052 99.1167C109.138 99.3816 108.237 98.8373 107.989 97.9801C107.724 97.0657 108.268 96.1647 109.125 95.9164C109.982 95.6681 110.94 96.1958 111.189 97.053ZM104.731 98.9237C104.996 99.8381 104.452 100.739 103.595 100.987C102.681 101.252 101.78 100.708 101.531 99.8508C101.267 98.9365 101.811 98.0355 102.668 97.7871C103.525 97.5388 104.483 98.0665 104.731 98.9237ZM98.3315 100.778C98.5964 101.692 98.0522 102.593 97.1951 102.842C96.2808 103.107 95.3798 102.562 95.1315 101.705C94.8666 100.791 95.4108 99.8896 96.2679 99.6413C97.1251 99.393 98.0831 99.9207 98.3315 100.778ZM91.8744 102.649C92.1393 103.563 91.5951 104.464 90.738 104.712C89.8237 104.977 88.9228 104.433 88.6744 103.576C88.4095 102.661 88.9537 101.76 89.8108 101.512C90.6679 101.264 91.626 101.791 91.8744 102.649ZM85.4173 104.519C85.6822 105.434 85.138 106.335 84.2809 106.583C83.3666 106.848 82.4657 106.304 82.2173 105.446C81.9524 104.532 82.4966 103.631 83.3537 103.383C84.2108 103.134 85.1689 103.662 85.4173 104.519ZM78.9602 106.39C79.2251 107.304 78.6809 108.205 77.8238 108.454C76.9095 108.719 76.0086 108.174 75.7602 107.317C75.4953 106.403 76.0395 105.502 76.8966 105.254C77.7538 105.005 78.7118 105.533 78.9602 106.39ZM72.5602 108.244C72.8251 109.159 72.281 110.06 71.4238 110.308C70.5096 110.573 69.6086 110.029 69.3603 109.171C69.0954 108.257 69.6395 107.356 70.4967 107.108C71.3538 106.859 72.3119 107.387 72.5602 108.244ZM66.1031 110.115C66.368 111.029 65.8239 111.93 64.9668 112.179C64.0525 112.444 63.1515 111.899 62.9032 111.042C62.6383 110.128 63.1824 109.227 64.0396 108.978C64.8967 108.73 65.8548 109.258 66.1031 110.115ZM59.6461 111.986C59.911 112.9 59.3668 113.801 58.5097 114.049C57.5954 114.314 56.6944 113.77 56.4461 112.913C56.1812 111.998 56.7253 111.097 57.5825 110.849C58.4396 110.601 59.3977 111.129 59.6461 111.986ZM53.189 113.856C53.4539 114.771 52.9097 115.672 52.0526 115.92C51.1383 116.185 50.2373 115.641 49.989 114.784C49.7241 113.869 50.2683 112.968 51.1254 112.72C52.0397 112.455 52.9406 112.999 53.189 113.856ZM46.789 115.711C47.0539 116.625 46.5098 117.526 45.6526 117.774C44.7383 118.039 43.8374 117.495 43.589 116.638C43.3241 115.723 43.8683 114.822 44.7254 114.574C45.5826 114.326 46.5407 114.853 46.789 115.711ZM40.3319 117.581C40.5968 118.496 40.0527 119.397 39.1955 119.645C38.2813 119.91 37.3803 119.366 37.1319 118.508C36.867 117.594 37.4112 116.693 38.2684 116.445C39.1255 116.196 40.0836 116.724 40.3319 117.581Z" fill="#231F20"/>
<path d="M154.122 76.5619C154.006 76.1619 153.702 75.7544 153.333 75.5514C152.965 75.3485 152.458 75.3095 152.058 75.4254C151.658 75.5413 151.251 75.8451 151.048 76.2137C150.601 77.0244 150.916 78.1102 151.71 78.4995C152.078 78.7025 152.585 78.7415 152.985 78.6256C153.385 78.5097 153.793 78.2058 153.996 77.8373C154.199 77.4688 154.254 77.0191 154.122 76.5619Z" fill="#231F20"/>
<path d="M147.664 78.4326C147.929 79.347 147.385 80.248 146.528 80.4963C145.614 80.7612 144.713 80.2169 144.464 79.3597C144.2 78.4454 144.744 77.5444 145.601 77.2961C146.515 77.0312 147.416 77.5754 147.664 78.4326ZM141.264 80.2868C141.529 81.2012 140.985 82.1022 140.128 82.3505C139.214 82.6154 138.313 82.0711 138.065 81.2139C137.8 80.2995 138.344 79.3986 139.201 79.1502C140.058 78.9019 141.016 79.4296 141.264 80.2868ZM134.807 82.1575C135.072 83.0719 134.528 83.9729 133.671 84.2212C132.757 84.4861 131.856 83.9418 131.607 83.0846C131.343 82.1703 131.887 81.2693 132.744 81.021C133.601 80.7726 134.559 81.3003 134.807 82.1575ZM128.35 84.0283C128.615 84.9426 128.071 85.8436 127.214 86.0919C126.3 86.3568 125.399 85.8125 125.15 84.9553C124.885 84.041 125.43 83.14 126.287 82.8917C127.201 82.6268 128.102 83.1711 128.35 84.0283ZM121.95 85.8824C122.215 86.7968 121.671 87.6978 120.814 87.9461C119.9 88.211 118.999 87.6667 118.75 86.8095C118.485 85.8952 119.03 84.9942 119.887 84.7459C120.744 84.4975 121.702 85.0252 121.95 85.8824ZM115.493 87.7532C115.758 88.6675 115.214 89.5685 114.357 89.8168C113.443 90.0817 112.542 89.5375 112.293 88.6803C112.028 87.7659 112.573 86.8649 113.43 86.6166C114.287 86.3683 115.245 86.896 115.493 87.7532ZM109.036 89.6239C109.301 90.5382 108.757 91.4393 107.9 91.6876C106.986 91.9525 106.085 91.4082 105.836 90.551C105.571 89.6366 106.115 88.7357 106.973 88.4873C107.83 88.239 108.788 88.7667 109.036 89.6239ZM102.579 91.4946C102.844 92.409 102.3 93.31 101.443 93.5583C100.528 93.8232 99.6274 93.2789 99.3791 92.4217C99.1142 91.5074 99.6584 90.6064 100.515 90.3581C101.43 90.0932 102.331 90.6374 102.579 91.4946ZM96.1791 93.3488C96.444 94.2631 95.8999 95.1642 95.0427 95.4125C94.1285 95.6774 93.2275 95.1331 92.9791 94.2759C92.7142 93.3615 93.2584 92.4606 94.1156 92.2122C94.9727 91.9639 95.9308 92.4916 96.1791 93.3488ZM89.722 95.2195C89.9869 96.1339 89.4428 97.0349 88.5856 97.2832C87.6713 97.5481 86.7704 97.0038 86.522 96.1466C86.2571 95.2323 86.8013 94.3313 87.6584 94.083C88.5156 93.8346 89.4737 94.3623 89.722 95.2195ZM83.2649 97.0903C83.5298 98.0046 82.9857 98.9056 82.1285 99.1539C81.2142 99.4188 80.3133 98.8746 80.065 98.0173C79.8001 97.103 80.3442 96.202 81.2014 95.9537C82.0585 95.7054 83.0166 96.2331 83.2649 97.0903ZM76.8078 98.961C77.0727 99.8753 76.5286 100.776 75.6714 101.025C74.7572 101.29 73.8562 100.745 73.6079 99.8881C73.343 98.9737 73.8871 98.0728 74.7443 97.8244C75.6014 97.5761 76.5595 98.1038 76.8078 98.961ZM70.4079 100.815C70.6728 101.73 70.1286 102.631 69.2715 102.879C68.3572 103.144 67.4563 102.599 67.2079 101.742C66.943 100.828 67.4872 99.9269 68.3443 99.6786C69.2015 99.4303 70.1595 99.958 70.4079 100.815ZM63.9508 102.686C64.2157 103.6 63.6715 104.501 62.8144 104.75C61.9001 105.014 60.9992 104.47 60.7508 103.613C60.4859 102.699 61.0301 101.798 61.8872 101.549C62.7444 101.301 63.7024 101.829 63.9508 102.686ZM57.4937 104.557C57.7586 105.471 57.2144 106.372 56.3573 106.62C55.443 106.885 54.5421 106.341 54.2937 105.484C54.0288 104.569 54.573 103.668 55.4301 103.42C56.2873 103.172 57.2453 103.699 57.4937 104.557ZM51.0366 106.427C51.3015 107.342 50.7573 108.243 49.9002 108.491C48.9859 108.756 48.085 108.212 47.8366 107.354C47.5717 106.44 48.1159 105.539 48.973 105.291C49.8873 105.026 50.7883 105.57 51.0366 106.427ZM44.6366 108.282C44.9015 109.196 44.3574 110.097 43.5003 110.345C42.586 110.61 41.685 110.066 41.4367 109.209C41.1718 108.294 41.716 107.393 42.5731 107.145C43.4302 106.897 44.3883 107.424 44.6366 108.282ZM38.1796 110.152C38.4445 111.067 37.9003 111.968 37.0432 112.216C36.1289 112.481 35.2279 111.937 34.9796 111.079C34.7147 110.165 35.2589 109.264 36.116 109.016C36.9731 108.767 37.9312 109.295 38.1796 110.152ZM31.7225 112.023C31.9874 112.937 31.4432 113.838 30.586 114.087C29.6718 114.352 28.7708 113.807 28.5225 112.95C28.2576 112.036 28.8017 111.135 29.6589 110.886C30.516 110.638 31.4741 111.166 31.7225 112.023ZM25.2653 113.894C25.5302 114.808 24.9861 115.709 24.129 115.957C23.2147 116.222 22.3137 115.678 22.0654 114.821C21.8005 113.906 22.3447 113.005 23.2018 112.757C24.1161 112.492 25.017 113.037 25.2653 113.894Z" fill="#231F20"/>
<path d="M151.986 69.1899C151.87 68.7898 151.566 68.3823 151.197 68.1794C150.829 67.9764 150.322 67.9374 149.922 68.0533C149.522 68.1692 149.115 68.4731 148.912 68.8416C148.465 69.6523 148.78 70.7381 149.574 71.1275C149.943 71.3304 150.449 71.3694 150.849 71.2536C151.249 71.1377 151.657 70.8338 151.86 70.4653C152.046 70.0396 152.102 69.5899 151.986 69.1899Z" fill="#231F20"/>
<path d="M145.529 71.0606C145.794 71.975 145.249 72.876 144.392 73.1243C143.478 73.3892 142.577 72.8449 142.329 71.9877C142.064 71.0733 142.608 70.1724 143.465 69.924C144.363 69.602 145.264 70.1463 145.529 71.0606ZM139.129 72.9148C139.394 73.8292 138.849 74.7301 137.992 74.9785C137.078 75.2434 136.177 74.6991 135.929 73.8419C135.664 72.9275 136.208 72.0265 137.065 71.7782C137.906 71.4727 138.864 72.0004 139.129 72.9148ZM132.672 74.7855C132.936 75.6999 132.392 76.6009 131.535 76.8492C130.621 77.1141 129.72 76.5698 129.472 75.7126C129.207 74.7983 129.751 73.8973 130.608 73.6489C131.449 73.3435 132.407 73.8712 132.672 74.7855ZM126.215 76.6563C126.479 77.5706 125.935 78.4716 125.078 78.7199C124.164 78.9848 123.263 78.4406 123.015 77.5833C122.75 76.669 123.294 75.768 124.151 75.5197C125.049 75.1976 125.95 75.7419 126.215 76.6563ZM119.815 78.5104C120.079 79.4248 119.535 80.3258 118.678 80.5741C117.764 80.839 116.863 80.2947 116.615 79.4375C116.35 78.5232 116.894 77.6222 117.751 77.3738C118.592 77.0684 119.55 77.5961 119.815 78.5104ZM113.357 80.3812C113.622 81.2955 113.078 82.1965 112.221 82.4448C111.307 82.7097 110.406 82.1655 110.157 81.3082C109.893 80.3939 110.437 79.4929 111.294 79.2446C112.134 78.9391 113.093 79.4668 113.357 80.3812ZM106.9 82.2519C107.165 83.1663 106.621 84.0672 105.764 84.3156C104.85 84.5804 103.949 84.0362 103.7 83.179C103.435 82.2646 103.98 81.3636 104.837 81.1153C105.677 80.8098 106.635 81.3375 106.9 82.2519ZM100.443 84.1226C100.708 85.037 100.164 85.938 99.3068 86.1863C98.3926 86.4512 97.4916 85.9069 97.2433 85.0497C96.9784 84.1353 97.5225 83.2344 98.3797 82.986C99.2368 82.7377 100.178 83.2083 100.443 84.1226ZM94.0433 85.9768C94.3082 86.8912 93.7641 87.7921 92.9069 88.0405C91.9926 88.3054 91.0917 87.7611 90.8433 86.9039C90.5784 85.9895 91.1226 85.0885 91.9798 84.8402C92.8203 84.5347 93.7784 85.0624 94.0433 85.9768ZM87.5862 87.8475C87.8511 88.7619 87.3069 89.6629 86.4498 89.9112C85.5355 90.1761 84.6346 89.6318 84.3862 88.7746C84.1213 87.8603 84.6655 86.9593 85.5226 86.7109C86.3632 86.4055 87.3213 86.9332 87.5862 87.8475ZM81.1291 89.7183C81.394 90.6326 80.8498 91.5336 79.9927 91.7819C79.0784 92.0468 78.1775 91.5026 77.9291 90.6453C77.6642 89.731 78.2084 88.83 79.0655 88.5817C79.9061 88.2762 80.8642 88.8039 81.1291 89.7183ZM74.672 91.589C74.9369 92.5034 74.3928 93.4043 73.5356 93.6527C72.6213 93.9175 71.7204 93.3733 71.4721 92.5161C71.2072 91.6017 71.7513 90.7007 72.6085 90.4524C73.4656 90.2041 74.4071 90.6746 74.672 91.589ZM68.2721 93.4432C68.537 94.3575 67.9928 95.2585 67.1357 95.5068C66.2214 95.7717 65.3204 95.2275 65.0721 94.3702C64.8072 93.4559 65.3514 92.5549 66.2085 92.3066C67.0656 92.0583 68.0072 92.5288 68.2721 93.4432ZM61.815 95.3139C62.0799 96.2283 61.5357 97.1292 60.6786 97.3776C59.7643 97.6424 58.8634 97.0982 58.615 96.241C58.3501 95.3266 58.8943 94.4256 59.7514 94.1773C60.592 93.8718 61.5501 94.3995 61.815 95.3139ZM55.3579 97.1846C55.6228 98.099 55.0786 99 54.2215 99.2483C53.3072 99.5132 52.4063 98.9689 52.1579 98.1117C51.893 97.1973 52.4372 96.2964 53.2943 96.048C54.1349 95.7426 55.093 96.2703 55.3579 97.1846ZM48.9008 99.0554C49.1657 99.9697 48.6215 100.871 47.7644 101.119C46.8501 101.384 45.9492 100.84 45.7008 99.9824C45.4359 99.0681 45.9801 98.1671 46.8372 97.9188C47.735 97.5967 48.6359 98.141 48.9008 99.0554ZM42.5008 100.91C42.7657 101.824 42.2216 102.725 41.3644 102.973C40.4502 103.238 39.5492 102.694 39.3009 101.837C39.036 100.922 39.5801 100.021 40.4373 99.7729C41.2944 99.5246 42.2359 99.9952 42.5008 100.91ZM36.0438 102.78C36.3087 103.695 35.7645 104.596 34.9074 104.844C33.9931 105.109 33.0921 104.565 32.8438 103.707C32.5788 102.793 33.123 101.892 33.9802 101.644C34.8208 101.338 35.7788 101.866 36.0438 102.78Z" fill="#231F20"/>
<path d="M149.833 61.7608C149.718 61.3608 149.414 60.9533 149.045 60.7503C148.677 60.5473 148.17 60.5083 147.77 60.6242C147.37 60.7401 146.962 61.044 146.759 61.4125C146.313 62.2232 146.628 63.309 147.422 63.6984C147.79 63.9014 148.297 63.9404 148.697 63.8245C149.097 63.7086 149.504 63.4047 149.707 63.0362C149.894 62.6105 149.949 62.1608 149.833 61.7608Z" fill="#231F20"/>
<path d="M143.376 63.6315C143.641 64.5458 143.097 65.4468 142.24 65.6951C141.326 65.96 140.425 65.4158 140.176 64.5586C139.911 63.6442 140.456 62.7432 141.313 62.4949C142.21 62.1729 143.111 62.7171 143.376 63.6315ZM136.976 65.4857C137.241 66.4 136.697 67.301 135.84 67.5493C134.926 67.8142 134.025 67.2699 133.776 66.4127C133.511 65.4984 134.056 64.5974 134.913 64.3491C135.753 64.0436 136.711 64.5713 136.976 65.4857ZM130.519 67.3564C130.784 68.2707 130.24 69.1717 129.383 69.4201C128.469 69.6849 127.568 69.1407 127.319 68.2835C127.054 67.3691 127.599 66.4681 128.456 66.2198C129.296 65.9143 130.254 66.442 130.519 67.3564ZM124.062 69.2271C124.327 70.1415 123.783 71.0425 122.926 71.2908C122.012 71.5557 121.111 71.0114 120.862 70.1542C120.597 69.2398 121.141 68.3388 121.999 68.0905C122.896 67.7685 123.797 68.3127 124.062 69.2271ZM117.662 71.0813C117.927 71.9956 117.383 72.8966 116.526 73.145C115.612 73.4098 114.711 72.8656 114.462 72.0084C114.197 71.094 114.742 70.193 115.599 69.9447C116.439 69.6392 117.397 70.1669 117.662 71.0813ZM111.205 72.952C111.47 73.8664 110.926 74.7674 110.069 75.0157C109.154 75.2806 108.254 74.7363 108.005 73.8791C107.74 72.9647 108.284 72.0637 109.142 71.8154C109.982 71.5099 110.94 72.0376 111.205 72.952ZM104.748 74.8227C105.013 75.7371 104.469 76.6381 103.612 76.8864C102.697 77.1513 101.796 76.6071 101.548 75.7498C101.283 74.8355 101.827 73.9345 102.684 73.6862C103.525 73.3807 104.483 73.9084 104.748 74.8227ZM98.291 76.6935C98.5559 77.6078 98.0117 78.5088 97.1545 78.7572C96.2402 79.022 95.3393 78.4778 95.091 77.6206C94.826 76.7062 95.3702 75.8052 96.2274 75.5569C97.1251 75.2349 98.026 75.7791 98.291 76.6935ZM91.891 78.5476C92.1559 79.462 91.6117 80.363 90.7546 80.6113C89.8403 80.8762 88.9393 80.332 88.691 79.4747C88.4261 78.5604 88.9703 77.6594 89.8274 77.4111C90.668 77.1056 91.6261 77.6333 91.891 78.5476ZM85.4339 80.4184C85.6988 81.3327 85.1546 82.2337 84.2975 82.4821C83.3832 82.7469 82.4823 82.2027 82.2339 81.3455C81.969 80.4311 82.5132 79.5301 83.3703 79.2818C84.2109 78.9763 85.169 79.504 85.4339 80.4184ZM78.9768 82.2891C79.2417 83.2035 78.6975 84.1045 77.8404 84.3528C76.9261 84.6177 76.0252 84.0734 75.7768 83.2162C75.5119 82.3018 76.0561 81.4008 76.9132 81.1525C77.7538 80.847 78.7119 81.3747 78.9768 82.2891ZM72.5197 84.1598C72.7846 85.0742 72.2404 85.9752 71.3833 86.2235C70.469 86.4884 69.5681 85.9441 69.3197 85.0869C69.0548 84.1726 69.599 83.2716 70.4561 83.0233C71.3538 82.7012 72.2548 83.2455 72.5197 84.1598ZM66.1197 86.014C66.3846 86.9284 65.8405 87.8294 64.9833 88.0777C64.0691 88.3426 63.1681 87.7983 62.9198 86.9411C62.6549 86.0267 63.199 85.1258 64.0562 84.8774C64.9133 84.6291 65.8548 85.0997 66.1197 86.014ZM59.6626 87.8847C59.9275 88.7991 59.3834 89.7001 58.5262 89.9484C57.612 90.2133 56.711 89.669 56.4627 88.8118C56.1978 87.8975 56.7419 86.9965 57.5991 86.7482C58.4397 86.4427 59.3977 86.9704 59.6626 87.8847ZM53.2056 89.7555C53.4705 90.6698 52.9263 91.5708 52.0692 91.8191C51.1549 92.084 50.2539 91.5398 50.0056 90.6826C49.7407 89.7682 50.2848 88.8672 51.142 88.6189C51.9826 88.3134 52.9406 88.8411 53.2056 89.7555ZM46.7485 91.6262C47.0134 92.5406 46.4692 93.4415 45.6121 93.6899C44.6978 93.9548 43.7968 93.4105 43.5485 92.5533C43.2836 91.6389 43.8278 90.7379 44.6849 90.4896C45.5826 90.1676 46.4836 90.7118 46.7485 91.6262Z" fill="#231F20"/>
<path d="M147.681 54.3316C147.565 53.9316 147.261 53.5241 146.893 53.3211C146.524 53.1181 146.018 53.0791 145.618 53.195C145.218 53.3109 144.81 53.6148 144.607 53.9833C144.161 54.794 144.475 55.8798 145.269 56.2692C145.638 56.4722 146.145 56.5112 146.545 56.3953C146.945 56.2794 147.352 55.9755 147.555 55.607C147.742 55.1813 147.797 54.7316 147.681 54.3316Z" fill="#231F20"/>
<path d="M141.224 56.2023C141.489 57.1166 140.945 58.0176 140.088 58.2659C139.173 58.5308 138.272 57.9866 138.024 57.1294C137.759 56.215 138.303 55.314 139.16 55.0657C140.058 54.7437 140.959 55.2879 141.224 56.2023ZM134.824 58.0565C135.089 58.9708 134.545 59.8718 133.688 60.1201C132.773 60.385 131.872 59.8407 131.624 58.9835C131.359 58.0692 131.903 57.1682 132.761 56.9199C133.601 56.6144 134.559 57.1421 134.824 58.0565ZM128.367 59.9272C128.632 60.8415 128.088 61.7425 127.231 61.9908C126.316 62.2557 125.415 61.7115 125.167 60.8543C124.902 59.9399 125.446 59.0389 126.303 58.7906C127.144 58.4851 128.102 59.0128 128.367 59.9272ZM121.91 61.7979C122.175 62.7123 121.631 63.6132 120.774 63.8616C119.859 64.1265 118.958 63.5822 118.71 62.725C118.445 61.8106 118.989 60.9097 119.846 60.6613C120.744 60.3393 121.645 60.8836 121.91 61.7979ZM115.51 63.6521C115.775 64.5664 115.231 65.4674 114.374 65.7157C113.459 65.9806 112.558 65.4364 112.31 64.5792C112.045 63.6648 112.589 62.7638 113.446 62.5155C114.287 62.21 115.245 62.7377 115.51 63.6521ZM109.053 65.5228C109.318 66.4372 108.774 67.3381 107.916 67.5865C107.002 67.8514 106.101 67.3071 105.853 66.4499C105.588 65.5355 106.132 64.6346 106.989 64.3862C107.83 64.0808 108.788 64.6085 109.053 65.5228ZM102.596 67.3935C102.861 68.3079 102.317 69.2089 101.459 69.4572C100.545 69.7221 99.6441 69.1778 99.3958 68.3206C99.1309 67.4063 99.6751 66.5053 100.532 66.257C101.373 65.9515 102.331 66.4792 102.596 67.3935ZM96.1387 69.2643C96.4036 70.1786 95.8594 71.0796 95.0022 71.3279C94.088 71.5928 93.187 71.0486 92.9387 70.1914C92.6738 69.277 93.218 68.376 94.0751 68.1277C94.9322 67.8794 95.8738 68.3499 96.1387 69.2643ZM89.7387 71.1184C90.0036 72.0328 89.4595 72.9338 88.6023 73.1821C87.688 73.447 86.7871 72.9027 86.5387 72.0455C86.2738 71.1312 86.818 70.2302 87.6752 69.9819C88.5157 69.6764 89.4738 70.2041 89.7387 71.1184ZM83.2816 72.9892C83.5465 73.9035 83.0023 74.8045 82.1452 75.0528C81.2309 75.3177 80.33 74.7735 80.0816 73.9163C79.8167 73.0019 80.3609 72.1009 81.218 71.8526C82.0586 71.5471 83.0167 72.0748 83.2816 72.9892ZM76.8245 74.8599C77.0894 75.7743 76.5453 76.6752 75.6881 76.9236C74.7738 77.1885 73.8729 76.6442 73.6246 75.787C73.3597 74.8726 73.9038 73.9717 74.761 73.7233C75.6015 73.4179 76.5596 73.9456 76.8245 74.8599ZM70.3674 76.7306C70.6323 77.645 70.0882 78.546 69.231 78.7943C68.3168 79.0592 67.4158 78.5149 67.1675 77.6577C66.9026 76.7434 67.4467 75.8424 68.3039 75.5941C69.161 75.3457 70.1025 75.8163 70.3674 76.7306ZM63.9675 78.5848C64.2324 79.4992 63.6882 80.4001 62.8311 80.6485C61.9168 80.9134 61.0159 80.3691 60.7675 79.5119C60.5026 78.5975 61.0468 77.6966 61.9039 77.4482C62.761 77.1999 63.7026 77.6705 63.9675 78.5848ZM57.5104 80.4555C57.7753 81.3699 57.2311 82.2709 56.374 82.5192C55.4597 82.7841 54.5588 82.2398 54.3104 81.3826C54.0455 80.4683 54.5897 79.5673 55.4468 79.319C56.2874 79.0135 57.2455 79.5412 57.5104 80.4555Z" fill="#231F20"/>
<path d="M145.529 46.9024C145.413 46.5024 145.109 46.0949 144.74 45.8919C144.372 45.6889 143.865 45.6499 143.465 45.7658C143.065 45.8817 142.658 46.1856 142.455 46.5541C142.008 47.3648 142.323 48.4506 143.117 48.84C143.485 49.043 143.992 49.082 144.392 48.9661C144.792 48.8502 145.2 48.5463 145.403 48.1778C145.606 47.8093 145.645 47.3024 145.529 46.9024Z" fill="#231F20"/>
<path d="M139.072 48.7731C139.336 49.6875 138.792 50.5885 137.935 50.8368C137.021 51.1017 136.12 50.5574 135.872 49.7002C135.607 48.7859 136.151 47.8849 137.008 47.6366C137.906 47.3145 138.807 47.8588 139.072 48.7731ZM132.672 50.6273C132.937 51.5417 132.392 52.4427 131.535 52.691C130.621 52.9559 129.72 52.4116 129.472 51.5544C129.207 50.64 129.751 49.7391 130.608 49.4907C131.449 49.1853 132.407 49.713 132.672 50.6273ZM126.215 52.498C126.479 53.4124 125.935 54.3134 125.078 54.5617C124.164 54.8266 123.263 54.2823 123.015 53.4251C122.75 52.5108 123.294 51.6098 124.151 51.3615C124.992 51.056 125.95 51.5837 126.215 52.498ZM119.757 54.3688C120.022 55.2831 119.478 56.1841 118.621 56.4324C117.707 56.6973 116.806 56.1531 116.557 55.2959C116.293 54.3815 116.837 53.4805 117.694 53.2322C118.592 52.9102 119.493 53.4544 119.757 54.3688ZM113.358 56.223C113.622 57.1373 113.078 58.0383 112.221 58.2866C111.307 58.5515 110.406 58.0073 110.158 57.15C109.893 56.2357 110.437 55.3347 111.294 55.0864C112.135 54.7809 113.093 55.3086 113.358 56.223ZM106.9 58.0937C107.165 59.008 106.621 59.909 105.764 60.1574C104.85 60.4222 103.949 59.878 103.7 59.0208C103.436 58.1064 103.98 57.2054 104.837 56.9571C105.677 56.6516 106.636 57.1793 106.9 58.0937ZM100.443 59.9644C100.708 60.8788 100.164 61.7798 99.3069 62.0281C98.3926 62.293 97.4917 61.7487 97.2433 60.8915C96.9784 59.9771 97.5226 59.0761 98.3798 58.8278C99.2203 58.5223 100.178 59.05 100.443 59.9644ZM93.9862 61.8351C94.2511 62.7495 93.7069 63.6505 92.8498 63.8988C91.9355 64.1637 91.0346 63.6194 90.7862 62.7622C90.5213 61.8479 91.0655 60.9469 91.9226 60.6986C92.7798 60.4502 93.7213 60.9208 93.9862 61.8351ZM87.5863 63.6893C87.8512 64.6037 87.307 65.5047 86.4499 65.753C85.5356 66.0179 84.6346 65.4736 84.3863 64.6164C84.1214 63.702 84.6656 62.801 85.5227 62.5527C86.3633 62.2472 87.3214 62.7749 87.5863 63.6893ZM81.1292 65.56C81.3941 66.4744 80.8499 67.3754 79.9928 67.6237C79.0785 67.8886 78.1775 67.3443 77.9292 66.4871C77.6643 65.5728 78.2085 64.6718 79.0656 64.4235C79.9062 64.118 80.8643 64.6457 81.1292 65.56ZM74.6721 67.4308C74.937 68.3451 74.3928 69.2461 73.5357 69.4945C72.6214 69.7593 71.7205 69.2151 71.4721 68.3579C71.2072 67.4435 71.7514 66.5425 72.6085 66.2942C73.4491 65.9887 74.4072 66.5164 74.6721 67.4308ZM68.215 69.3015C68.4799 70.2159 67.9357 71.1169 67.0786 71.3652C66.1643 71.6301 65.2634 71.0858 65.015 70.2286C64.7501 69.3142 65.2943 68.4132 66.1514 68.1649C67.0491 67.8429 67.9501 68.3871 68.215 69.3015Z" fill="#231F20"/>
<path d="M143.377 39.4733C143.261 39.0733 142.957 38.6658 142.588 38.4628C142.22 38.2599 141.713 38.2209 141.313 38.3368C140.913 38.4526 140.505 38.7565 140.302 39.125C139.856 39.9358 140.171 41.0216 140.965 41.4109C141.333 41.6139 141.84 41.6529 142.24 41.537C142.64 41.4211 143.048 41.1172 143.25 40.7487C143.453 40.3802 143.492 39.8734 143.377 39.4733Z" fill="#231F20"/>
<path d="M136.919 41.344C137.184 42.2584 136.64 43.1594 135.783 43.4077C134.869 43.6726 133.968 43.1283 133.719 42.2711C133.454 41.3567 133.999 40.4558 134.856 40.2074C135.77 39.9426 136.654 40.4297 136.919 41.344ZM130.519 43.1982C130.784 44.1126 130.24 45.0135 129.383 45.2619C128.469 45.5267 127.568 44.9825 127.319 44.1253C127.054 43.2109 127.599 42.3099 128.456 42.0616C129.313 41.8133 130.254 42.2838 130.519 43.1982ZM124.062 45.0689C124.327 45.9833 123.783 46.8843 122.926 47.1326C122.012 47.3975 121.111 46.8532 120.862 45.996C120.597 45.0816 121.142 44.1807 121.999 43.9323C122.856 43.684 123.797 44.1546 124.062 45.0689ZM117.605 46.9397C117.87 47.854 117.326 48.755 116.469 49.0033C115.555 49.2682 114.654 48.7239 114.405 47.8667C114.14 46.9524 114.684 46.0514 115.542 45.8031C116.456 45.5382 117.34 46.0253 117.605 46.9397ZM111.205 48.7938C111.47 49.7082 110.926 50.6092 110.069 50.8575C109.155 51.1224 108.254 50.5781 108.005 49.7209C107.74 48.8066 108.285 47.9056 109.142 47.6572C109.999 47.4089 110.94 47.8795 111.205 48.7938ZM104.748 50.6646C105.013 51.5789 104.469 52.4799 103.612 52.7282C102.697 52.9931 101.797 52.4489 101.548 51.5916C101.283 50.6773 101.827 49.7763 102.685 49.528C103.542 49.2796 104.483 49.7502 104.748 50.6646ZM98.2911 52.5353C98.556 53.4496 98.0118 54.3506 97.1547 54.5989C96.2404 54.8638 95.3394 54.3196 95.0911 53.4624C94.8262 52.548 95.3704 51.647 96.2275 51.3987C97.0846 51.1504 98.0262 51.6209 98.2911 52.5353ZM91.834 54.406C92.0989 55.3204 91.5547 56.2214 90.6975 56.4697C89.7833 56.7346 88.8823 56.1903 88.634 55.3331C88.3691 54.4187 88.9132 53.5178 89.7704 53.2694C90.6275 53.0211 91.5691 53.4917 91.834 54.406ZM85.434 56.2602C85.6989 57.1745 85.1548 58.0755 84.2976 58.3239C83.3833 58.5887 82.4824 58.0445 82.234 57.1873C81.9691 56.2729 82.5133 55.3719 83.3705 55.1236C84.2276 54.8753 85.1691 55.3458 85.434 56.2602ZM78.9769 58.1309C79.2418 59.0453 78.6976 59.9463 77.8405 60.1946C76.9262 60.4595 76.0253 59.9152 75.7769 59.058C75.512 58.1436 76.0562 57.2427 76.9133 56.9943C77.7705 56.746 78.712 57.2166 78.9769 58.1309Z" fill="#231F20"/>
<path d="M141.224 32.044C141.108 31.644 140.804 31.2364 140.436 31.0335C140.067 30.8305 139.56 30.7915 139.16 30.9074C138.76 31.0233 138.353 31.3272 138.15 31.6957C137.704 32.5064 138.018 33.5922 138.812 33.9816C139.181 34.1845 139.688 34.2235 140.088 34.1076C140.488 33.9918 140.895 33.6879 141.098 33.3194C141.301 32.9509 141.34 32.444 141.224 32.044Z" fill="#231F20"/>
<path d="M134.767 33.9148C135.032 34.8291 134.488 35.7301 133.631 35.9784C132.716 36.2433 131.815 35.699 131.567 34.8418C131.302 33.9275 131.846 33.0265 132.703 32.7782C133.618 32.5133 134.502 33.0004 134.767 33.9148ZM128.367 35.7689C128.632 36.6833 128.088 37.5842 127.231 37.8326C126.316 38.0975 125.415 37.5532 125.167 36.696C124.902 35.7817 125.446 34.8807 126.303 34.6324C127.161 34.384 128.102 34.8546 128.367 35.7689ZM121.91 37.6396C122.175 38.554 121.631 39.455 120.774 39.7033C119.859 39.9682 118.958 39.4239 118.71 38.5667C118.445 37.6524 118.989 36.7514 119.846 36.5031C120.703 36.2548 121.645 36.7253 121.91 37.6396ZM115.453 39.5104C115.718 40.4247 115.174 41.3257 114.316 41.574C113.402 41.8389 112.501 41.2947 112.253 40.4375C111.988 39.5231 112.532 38.6221 113.389 38.3738C114.304 38.1089 115.188 38.596 115.453 39.5104ZM109.053 41.3646C109.318 42.2789 108.774 43.1799 107.916 43.4282C107.002 43.6931 106.101 43.1488 105.853 42.2916C105.588 41.3773 106.132 40.4763 106.989 40.228C107.846 39.9797 108.788 40.4502 109.053 41.3646ZM102.596 43.2353C102.861 44.1496 102.317 45.0506 101.459 45.2989C100.545 45.5638 99.6442 45.0196 99.3958 44.1624C99.1309 43.248 99.6751 42.347 100.532 42.0987C101.389 41.8504 102.331 42.3209 102.596 43.2353ZM96.1387 45.106C96.4036 46.0204 95.8595 46.9213 95.0023 47.1697C94.088 47.4345 93.1871 46.8903 92.9387 46.0331C92.6738 45.1187 93.218 44.2178 94.0752 43.9694C94.9323 43.7211 95.8738 44.1916 96.1387 45.106ZM89.6816 46.9767C89.9465 47.8911 89.4023 48.7921 88.5452 49.0404C87.6309 49.3053 86.73 48.761 86.4816 47.9038C86.2167 46.9895 86.7609 46.0885 87.618 45.8402C88.4752 45.5918 89.4167 46.0624 89.6816 46.9767Z" fill="#231F20"/>
<path d="M139.072 24.6149C138.956 24.2149 138.652 23.8074 138.283 23.6044C137.915 23.4015 137.408 23.3625 137.008 23.4784C136.608 23.5942 136.201 23.8981 135.998 24.2666C135.551 25.0774 135.866 26.1632 136.66 26.5525C137.028 26.7555 137.535 26.7945 137.935 26.6786C138.335 26.5627 138.743 26.2588 138.946 25.8903C139.149 25.5218 139.204 25.0721 139.072 24.6149Z" fill="#231F20"/>
<path d="M132.615 26.4857C132.88 27.4 132.335 28.301 131.478 28.5493C130.564 28.8142 129.663 28.27 129.415 27.4128C129.15 26.4984 129.694 25.5974 130.551 25.3491C131.465 25.0842 132.35 25.5713 132.615 26.4857ZM126.215 28.3398C126.48 29.2542 125.935 30.1552 125.078 30.4035C124.164 30.6684 123.263 30.1241 123.015 29.2669C122.75 28.3526 123.294 27.4516 124.151 27.2033C125.008 26.955 125.95 27.4255 126.215 28.3398ZM119.758 30.2106C120.022 31.1249 119.478 32.0259 118.621 32.2742C117.707 32.5391 116.806 31.9949 116.558 31.1377C116.293 30.2233 116.837 29.3223 117.694 29.074C118.551 28.8257 119.493 29.2962 119.758 30.2106ZM113.3 32.0813C113.565 32.9957 113.021 33.8966 112.164 34.145C111.25 34.4098 110.349 33.8656 110.101 33.0084C109.836 32.094 110.38 31.1931 111.237 30.9447C112.151 30.6799 113.036 31.1669 113.3 32.0813ZM106.901 33.9355C107.165 34.8498 106.621 35.7508 105.764 35.9991C104.85 36.264 103.949 35.7198 103.701 34.8626C103.436 33.9482 103.98 33.0472 104.837 32.7989C105.694 32.5506 106.636 33.0211 106.901 33.9355ZM100.443 35.8062C100.708 36.7206 100.164 37.6215 99.307 37.8699C98.3928 38.1347 97.4918 37.5905 97.2435 36.7333C96.9786 35.8189 97.5228 34.918 98.3799 34.6696C99.237 34.4213 100.179 34.8919 100.443 35.8062Z" fill="#231F20"/>
<path d="M136.919 17.1858C136.803 16.7858 136.5 16.3783 136.131 16.1753C135.763 15.9724 135.256 15.9334 134.856 16.0493C134.456 16.1652 134.048 16.469 133.845 16.8376C133.399 17.6483 133.713 18.7341 134.508 19.1234C134.876 19.3264 135.383 19.3654 135.783 19.2495C136.183 19.1336 136.59 18.8297 136.793 18.4612C136.996 18.0927 137.052 17.643 136.919 17.1858Z" fill="#231F20"/>
<path d="M130.462 19.0565C130.727 19.9709 130.183 20.8718 129.326 21.1202C128.411 21.385 127.511 20.8408 127.262 19.9836C126.997 19.0692 127.541 18.1683 128.399 17.9199C129.313 17.6551 130.214 18.1993 130.462 19.0565ZM124.062 20.9107C124.327 21.825 123.783 22.726 122.926 22.9743C122.012 23.2392 121.111 22.695 120.862 21.8378C120.597 20.9234 121.142 20.0225 121.999 19.7741C122.856 19.5258 123.814 20.0535 124.062 20.9107ZM117.605 22.7814C117.87 23.6958 117.326 24.5967 116.469 24.8451C115.554 25.11 114.654 24.5657 114.405 23.7085C114.14 22.7942 114.684 21.8932 115.542 21.6449C116.399 21.3965 117.357 21.9242 117.605 22.7814ZM111.148 24.6522C111.413 25.5665 110.869 26.4675 110.012 26.7158C109.097 26.9807 108.196 26.4364 107.948 25.5792C107.683 24.6649 108.227 23.7639 109.084 23.5156C109.999 23.2507 110.9 23.7949 111.148 24.6522Z" fill="#231F20"/>
<path d="M134.767 9.75665C134.651 9.35662 134.347 8.9491 133.979 8.74614C133.61 8.54318 133.103 8.50419 132.703 8.62008C132.303 8.73597 131.896 9.03984 131.693 9.40836C131.23 10.1619 131.561 11.3049 132.355 11.6943C132.724 11.8972 133.231 11.9362 133.631 11.8203C134.031 11.7044 134.438 11.4006 134.641 11.032C134.844 10.6635 134.899 10.2138 134.767 9.75665Z" fill="#231F20"/>
<path d="M128.31 11.6273C128.575 12.5417 128.031 13.4427 127.173 13.691C126.259 13.9559 125.358 13.4116 125.11 12.5544C124.845 11.6401 125.389 10.7391 126.246 10.4908C127.161 10.2259 128.061 10.7701 128.31 11.6273ZM121.91 13.4815C122.175 14.3959 121.631 15.2968 120.773 15.5452C119.859 15.8101 118.958 15.2658 118.71 14.4086C118.445 13.4942 118.989 12.5933 119.846 12.3449C120.703 12.0966 121.662 12.6243 121.91 13.4815Z" fill="#231F20"/>
<path d="M132.615 2.32745C132.499 1.92742 132.195 1.5199 131.826 1.31694C131.458 1.11398 130.951 1.07499 130.551 1.19088C130.151 1.30677 129.744 1.61065 129.541 1.97916C129.094 2.78989 129.409 3.8757 130.203 4.26506C130.571 4.46802 131.078 4.50701 131.478 4.39112C131.878 4.27524 132.286 3.97136 132.489 3.60284C132.692 3.23433 132.747 2.78463 132.615 2.32745Z" fill="#231F20"/>
</svg>
