<svg width="142" height="152" viewBox="0 0 142 152" fill="none" xmlns="http://www.w3.org/2000/svg">
<path d="M123.49 60.1762L121.421 59.6608L122.149 62.1753L123.623 60.6334L123.49 60.1762Z" fill="#231F20"/>
<path d="M114.632 58.0349L117.265 67.1214L118.795 65.5629L116.759 58.5338L114.632 58.0349Z" fill="#231F20"/>
<path d="M107.917 56.4495L112.454 72.1079L113.984 70.5494L110.044 56.9483L107.917 56.4495Z" fill="#231F20"/>
<path d="M101.185 54.807L107.626 77.0373L109.099 75.4955L103.255 55.3225L101.185 54.807Z" fill="#231F20"/>
<path d="M94.4132 53.2383L102.741 81.9834L104.288 80.4822L96.5398 53.7372L94.4132 53.2383Z" fill="#231F20"/>
<path d="M87.698 51.653L97.93 86.9701L99.4607 85.4116L89.8082 52.0946L87.698 51.653Z" fill="#231F20"/>
<path d="M80.9663 50.0105L93.1023 91.8996L94.5757 90.3577L83.0357 50.526L80.9663 50.0105Z" fill="#231F20"/>
<path d="M74.1941 48.4417L88.2341 96.9027L89.7647 95.3442L76.3207 48.9405L74.1941 48.4417Z" fill="#231F20"/>
<path d="M67.4625 46.7992L83.4065 101.832L84.937 100.274L69.589 47.2981L67.4625 46.7992Z" fill="#231F20"/>
<path d="M60.7473 45.2139L78.5953 106.819L80.0688 105.277L62.8168 45.7293L60.7473 45.2139Z" fill="#231F20"/>
<path d="M53.9586 43.5879L73.7106 111.765L75.241 110.206L56.085 44.0868L53.9586 43.5879Z" fill="#231F20"/>
<path d="M47.2434 42.0026L68.8994 116.751L70.3728 115.21L49.3128 42.518L47.2434 42.0026Z" fill="#231F20"/>
<path d="M40.4546 40.3766L64.0146 121.697L65.5451 120.139L42.5811 40.8756L40.4546 40.3766Z" fill="#231F20"/>
<path d="M33.7395 38.7913L59.2035 126.684L60.7341 125.126L35.8661 39.2902L33.7395 38.7913Z" fill="#231F20"/>
<path d="M27.0078 37.1488L54.3758 131.613L55.8492 130.072L29.0772 37.6643L27.0078 37.1488Z" fill="#231F20"/>
<path d="M20.2356 35.5801L49.5076 136.617L51.0382 135.058L22.3622 36.079L20.2356 35.5801Z" fill="#231F20"/>
<path d="M13.5039 33.9376L44.6799 141.546L46.2105 139.988L15.6305 34.4364L13.5039 33.9376Z" fill="#231F20"/>
<path d="M6.7887 32.3523L39.8687 146.533L41.3421 144.991L8.85811 32.8677L6.7887 32.3523Z" fill="#231F20"/>
<path d="M0 30.7263L34.984 151.479L36.5145 149.92L2.12651 31.2252L0 30.7263Z" fill="#231F20"/>
</svg>
