<svg width="143" height="124" viewBox="0 0 143 124" fill="none" xmlns="http://www.w3.org/2000/svg">
<g clip-path="url(#clip0)">
<path d="M94.7227 40.8731C87.2109 36.5464 79.7906 32.3118 72.004 27.801C72.004 30.8389 72.004 33.4165 72.004 36.1782C76.7676 38.9399 81.4396 41.7016 86.2032 44.4632C91.2416 47.4091 96.1885 50.3549 101.227 53.2086C102.876 54.1292 104.067 55.3259 104.983 57.075C106.907 60.6652 109.014 64.1633 111.579 68.582C106.265 66.4647 102.418 63.611 98.2954 61.2175C93.8983 58.732 89.5927 56.2465 85.1955 53.6689C80.9815 51.2754 76.7676 48.7899 72.1872 46.1203C71.4543 48.974 72.004 51.4595 71.7291 54.2212C74.3858 55.7862 76.9508 57.4432 79.6074 58.9161C91.9745 66.0965 104.433 73.2769 116.892 80.4573C117.716 80.9176 118.449 81.4699 119.09 82.0223C120.648 83.4031 125.595 92.7008 126.602 95.9228C108.281 85.6125 90.4172 75.2101 72.1872 64.6236C71.4543 67.4773 71.9124 69.9629 71.8207 72.8166C74.4774 74.3816 77.2256 76.0386 79.9739 77.6036C97.5626 87.8218 115.06 98.0401 132.648 108.166C134.297 109.087 135.58 110.192 136.496 111.941C138.511 115.715 140.71 119.397 143 123.356C140.343 124.368 137.778 123.724 135.305 123.816C132.923 123.908 130.45 123.816 127.427 123.816C129.167 121.054 132.19 120.962 133.931 118.845C131.549 117.464 129.442 116.175 127.06 114.886C122.846 117.372 118.724 119.673 114.693 122.067C112.678 123.264 110.663 124 108.189 123.908C104.158 123.724 100.036 123.908 95.1808 123.908C99.2115 120.87 103.059 119.029 106.632 116.82C110.296 114.518 114.052 112.585 117.991 110.284C116.342 107.798 113.502 107.43 111.212 105.681C106.723 108.258 102.326 110.744 98.0206 113.229C92.8906 116.175 87.6689 119.121 82.6305 122.251C80.7067 123.356 78.7829 124 76.5844 123.908C72.5536 123.816 68.4313 123.908 63.9425 123.908C66.5991 120.962 70.1718 119.857 73.1949 117.924C76.4011 115.899 79.7906 114.15 83.0885 112.217C86.2948 110.376 89.4095 108.535 92.5241 106.693C95.6388 104.852 98.7535 103.011 102.509 100.802C99.9444 99.2368 97.929 98.0401 95.6388 96.5672C94.2647 97.3036 92.8906 97.856 91.6081 98.5924C77.7753 106.601 63.9425 114.702 50.0181 122.711C49.3768 123.079 48.7355 123.448 48.0027 123.724C46.6286 124.184 34.8111 123.816 32.2461 123.264C50.3845 112.677 68.248 102.275 86.6612 91.5961C84.1878 90.0312 82.1724 88.8344 79.8822 87.3615C78.3249 88.19 76.676 88.8344 75.1186 89.755C56.797 100.434 38.4755 111.112 20.1539 121.791C17.6804 123.171 15.2986 124.092 12.3672 123.908C8.42804 123.724 4.4889 123.816 -0.183105 123.816C2.56513 118.937 5.03855 114.61 7.78679 109.731C8.79447 112.677 7.87839 115.255 8.61126 117.924C11.2679 117.464 13.0084 115.531 15.4819 114.334C15.4819 108.166 15.4819 102.091 15.4819 96.3831C18.2301 91.5041 20.7951 86.9933 24.0014 81.562C24.0014 91.32 24.0014 100.065 24.0014 109.363C26.7496 107.89 28.8566 106.693 31.0552 105.497C31.1468 104.3 31.33 103.103 31.33 101.906C31.33 91.9644 31.33 81.9302 31.33 71.9881C31.33 69.9629 31.6965 68.1217 32.7958 66.2806C34.9943 62.6904 37.0097 59.0082 39.6664 54.4974C40.8573 59.0082 40.216 62.6904 40.3992 66.1886C40.4908 69.8708 40.3992 73.5531 40.3992 77.2353C40.3992 80.9176 40.3992 84.5998 40.3992 88.2821C40.3992 91.9644 40.3992 95.5546 40.3992 99.8812C43.0558 98.4083 45.1628 97.3036 47.453 96.0148C47.5446 94.634 47.6362 93.3452 47.6362 91.9644C47.6362 76.1307 47.6362 60.389 47.6362 44.5553C47.6362 41.9777 48.0943 39.7684 49.3768 37.559C51.4838 34.245 53.3159 30.7468 55.6061 27.3408C56.2474 32.4959 56.0642 37.6511 56.0642 42.7142C56.0642 48.0535 56.0642 53.4848 56.0642 58.8241C56.0642 64.0713 56.0642 69.2264 56.0642 74.4736C56.0642 79.6288 56.0642 84.876 56.0642 90.8597C58.904 89.2027 61.011 87.9139 63.3012 86.533C63.3012 61.954 63.3012 37.6511 63.3012 13.3482C65.9578 9.02153 68.5229 4.51076 71.0879 0C73.3781 1.74907 77.134 7.91685 79.0578 13.3482C77.6837 12.6117 76.676 12.0594 75.6683 11.5071C74.6606 10.8627 73.6529 10.2183 72.1872 9.38975C71.4543 12.3356 71.8207 15.0052 72.004 17.7669C76.4011 20.3445 80.7067 22.922 85.1039 25.3155C86.7528 26.2361 88.0353 27.3408 88.9514 29.0898C90.9668 32.8641 93.1654 36.4543 95.364 40.2287C95.0892 40.5048 94.9059 40.6889 94.7227 40.8731Z" fill="white"/>
</g>
<defs>
<clipPath id="clip0">
<rect width="143" height="124" fill="white"/>
</clipPath>
</defs>
</svg>
