<svg width="141" height="122" viewBox="0 0 141 122" fill="none" xmlns="http://www.w3.org/2000/svg">
<g clip-path="url(#clip0)">
<path d="M141 122C93.4546 122 46.7273 122 0 122C0.545455 119.083 67.0909 3.83008 69.9091 0.000485767C70.0909 0.000485767 70.1818 -0.0906951 70.3636 0.000485767C70.5455 0.000485767 70.7273 0.0916666 70.7273 0.182847C94 40.576 117.273 80.8779 141 122ZM70.2727 30.6373C64.3636 39.2994 28.0909 103.035 27.1818 106.135C33.5455 106.864 109.909 106.591 113.545 105.77C99.1818 80.8779 84.8182 55.9855 70.2727 30.6373Z" fill="white"/>
<path d="M70.4545 61C76.1817 70.9387 81.909 80.8774 87.9999 91.3632C81.8181 91.7279 76.2726 91.8191 70.6363 91.8191C64.909 91.8191 59.1817 91.8191 53.0908 91.8191C53.2726 90.6338 53.2726 89.9043 53.5454 89.3573C58.8181 80.148 64.0908 70.9387 69.3635 61.7294C69.4545 61.5471 69.8181 61.4559 70.4545 61Z" fill="white"/>
</g>
<defs>
<clipPath id="clip0">
<rect width="141" height="122" fill="white"/>
</clipPath>
</defs>
</svg>
