<svg width="141" height="123" viewBox="0 0 141 123" fill="none" xmlns="http://www.w3.org/2000/svg">
<g clip-path="url(#clip0)">
<path d="M0 122.454C1.54645 119.811 3.0929 117.169 4.63935 114.436C7.18645 114.345 9.73355 114.071 12.2806 114.071C31.3839 114.162 50.3961 114.254 69.4994 114.345C83.6903 114.345 97.9723 114.345 112.163 114.345C119.441 114.345 126.627 114.254 133.905 114.071C135.451 114.071 136.543 114.345 137.361 115.711C138.635 117.898 139.817 120.176 141.091 122.454C137.361 123.182 4.45742 123.274 0 122.454Z" fill="white"/>
<path d="M129.902 102.955C131.448 105.688 132.813 108.148 134.268 110.7C130.903 111.428 13.2813 111.611 7.27747 110.882C7.27747 109.333 8.27811 108.148 9.00585 106.964C9.73359 105.688 10.5523 104.413 11.371 103.046C50.76 102.955 90.1491 102.955 129.902 102.955Z" fill="white"/>
<path d="M13.0084 99.9486C14.9187 96.6686 16.4652 94.0264 17.8297 91.5664C53.0342 91.5664 87.9658 91.5664 123.17 91.5664C124.717 94.2086 126.354 96.8508 128.083 99.9486C89.6942 99.9486 51.7607 99.9486 13.0084 99.9486Z" fill="white"/>
<path d="M19.3761 88.9244C21.2864 85.5533 22.8329 82.9111 24.3793 80.1777C55.2174 80.1777 85.6916 80.1777 116.712 80.1777C118.076 82.5466 119.532 85.0977 121.169 88.0133C120.077 88.2866 119.259 88.7422 118.531 88.7422C116.439 88.7422 114.346 88.4689 112.163 88.4689C86.1464 88.4689 60.1297 88.4689 34.0219 88.4689C31.2929 88.4689 28.5638 88.7422 25.9258 88.8333C24.1064 88.9244 22.1051 88.9244 19.3761 88.9244Z" fill="white"/>
<path d="M115.074 77.1714C85.1458 77.1714 55.9451 77.1714 26.3806 77.1714C27.4722 75.1669 28.2909 73.3447 29.2916 71.7047C29.8374 70.7936 30.4742 69.9736 31.2019 69.0625C57.5826 69.0625 83.9632 69.0625 110.435 69.0625C111.799 71.5225 113.164 73.9825 115.074 77.1714Z" fill="white"/>
<path d="M32.7484 65.5086C34.5678 62.4108 36.1142 59.8597 37.6607 57.3086C59.6749 57.3086 81.5071 57.3086 103.521 57.3086C105.068 59.9508 106.705 62.593 108.252 65.2353C107.797 65.5997 107.615 65.9641 107.342 65.9641C83.2355 65.9641 59.1291 66.0553 35.0226 66.0553C34.4768 66.1464 33.84 65.873 32.7484 65.5086Z" fill="white"/>
<path d="M39.2981 54.3938C40.9355 51.5693 42.391 49.0182 43.8465 46.376C61.5852 46.376 79.142 46.376 97.0626 46.376C98.5181 48.7449 100.065 51.296 101.52 53.756C101.338 54.1204 101.338 54.3026 101.247 54.3938C101.156 54.4849 100.974 54.6671 100.883 54.6671C81.0523 54.6671 61.1304 54.7582 41.2994 54.7582C40.7536 54.576 40.2078 54.4849 39.2981 54.3938Z" fill="white"/>
<path d="M45.7567 43.004C47.667 39.8151 49.1225 37.264 50.669 34.7129C64.0412 34.7129 77.1406 34.7129 90.5128 34.7129C91.9683 37.264 93.4238 39.8151 94.7883 42.0929C94.5154 42.6396 94.5154 42.8218 94.4245 42.9129C94.3335 43.004 94.1516 43.1862 94.0606 43.1862C78.778 43.2773 63.4954 43.3684 48.2128 43.3684C47.667 43.3684 47.0303 43.1862 45.7567 43.004Z" fill="white"/>
<path d="M57.4006 23.5068C66.3154 23.5068 74.9574 23.5068 84.0541 23.5068C85.4186 25.8757 86.9651 28.4268 88.5116 30.9779C85.2367 31.9802 59.7657 32.2535 52.7612 31.4335C53.9438 28.6091 55.3993 26.0579 57.4006 23.5068Z" fill="white"/>
<path d="M82.0528 19.9529C78.4141 20.864 63.3135 20.9552 59.3109 20.1352C59.4019 19.6796 59.4019 19.224 59.6748 18.8596C61.0393 16.4907 62.4038 14.2129 63.8593 11.7529C66.0425 11.7529 68.1348 11.7529 70.227 11.7529C72.5012 11.7529 74.7754 11.7529 77.2316 11.7529C78.869 14.4863 80.4154 17.2196 82.0528 19.9529Z" fill="white"/>
<path d="M70.5909 0C72.5012 3.37111 73.8658 5.92222 75.5032 8.83778C71.9554 8.83778 68.8625 8.83778 65.4058 8.83778C67.1341 5.92222 68.6806 3.37111 70.5909 0Z" fill="white"/>
</g>
<defs>
<clipPath id="clip0">
<rect width="141" height="123" fill="white"/>
</clipPath>
</defs>
</svg>
