<svg width="86" height="100" viewBox="0 0 86 100" fill="none" xmlns="http://www.w3.org/2000/svg">
<path d="M86 50C57.3547 66.6666 28.8376 83.2687 0 100.065C0 66.4728 0 33.2687 0 0.0645752C2.69151 0.775169 83.1803 47.739 86 50ZM38.1297 33.0749C34.9896 35.2067 31.7213 36.4341 28.9657 38.7597C32.1058 40.5038 34.9255 42.1188 38.1297 43.9276C38.1297 40.2454 38.1297 36.9509 38.1297 33.0749ZM19.0328 32.9457C18.9687 29.0051 19.2891 25.7106 18.8405 22.0284C15.7004 23.9018 12.8808 25.5168 9.67661 27.3902C12.9449 29.3281 15.7004 31.0077 19.0328 32.9457ZM19.0969 77.5839C18.9046 73.708 19.3532 70.3488 18.7765 66.7312C15.5723 68.6046 12.6885 70.3488 9.54843 72.1576C12.7526 73.9664 15.5723 75.646 19.0969 77.5839ZM9.54843 49.7416C12.5604 51.4858 15.1237 52.9715 17.687 54.4573C17.9434 54.5865 18.2638 54.5865 18.9046 54.7157C19.0969 52.9715 18.9687 51.292 18.9687 49.6124C18.9687 47.9328 18.9687 46.2532 18.9687 44.2506C15.7645 46.1886 12.8167 47.8682 9.54843 49.7416ZM48.0626 49.8062C51.2668 51.6149 54.0864 53.2299 56.9702 54.9095C57.6751 51.9379 57.611 47.2868 56.9061 44.7674C53.8942 46.0594 51.2027 47.9328 48.0626 49.8062ZM29.0939 61.1111C32.2981 62.9199 35.0536 64.5994 38.2578 66.4082C38.2578 64.2765 38.3219 62.5969 38.2578 60.9173C38.1937 59.3023 38.5142 57.6227 37.9374 55.6201C35.1818 57.1705 32.7466 58.5917 30.3115 60.0129C29.9911 60.2713 29.7347 60.5943 29.0939 61.1111Z" fill="black"/>
</svg>
