<svg width="87" height="101" viewBox="0 0 87 101" fill="none" xmlns="http://www.w3.org/2000/svg">
<path d="M68.0052 50.5649C45.2504 63.7416 22.9493 76.5938 0.713108 89.446C0.453793 89.3162 0.38897 89.3162 0.324142 89.2513C0.259313 89.1864 0.129654 89.0566 0.129654 88.9916C0.0648254 88.2127 -1.20448e-06 87.4987 -1.20448e-06 86.7198C-1.20448e-06 57.9647 -1.20448e-06 29.2095 -1.20448e-06 0C29.2377 16.8766 58.0864 33.5585 87 50.2404C85.4441 51.9929 72.0894 59.912 58.5402 67.4415C48.7511 72.894 39.0917 78.671 29.3674 84.2532C19.7727 89.8355 10.1133 95.3528 0.324142 101C-0.194487 98.9878 0.0648294 97.1054 0.194487 95.1581C25.737 80.4235 51.1498 65.6889 76.6923 50.9544C75.1364 49.2018 35.4613 25.964 5.51043 9.21722C4.538 9.93123 4.92697 10.9698 4.86215 11.8785C4.79732 14.3451 4.86215 16.8117 4.86215 19.2783C4.86215 38.1022 4.86215 56.9261 4.86215 75.75C4.86215 77.3078 4.9918 78.9306 5.12146 80.9428C22.69 70.8168 39.9344 60.8207 57.6326 50.5649C43.3055 42.2564 29.3674 34.2076 15.3644 26.0938C14.8457 28.4306 14.7161 59.1979 15.2347 63.8066C22.8197 59.4576 30.275 55.1086 38.1192 50.5649C33.5164 47.9036 29.3025 45.5019 24.7645 42.8406C24.7645 46.3458 24.7645 49.5913 24.7645 52.9017C23.079 53.8753 21.5879 54.7841 19.9672 55.7577C19.3189 53.0315 19.3189 36.9338 19.9672 34.1427C29.3025 39.5302 38.573 44.9177 47.9083 50.2404C45.8987 52.2526 23.5328 65.4942 10.3077 72.5045C10.2429 72.4396 10.1133 72.4396 10.0484 72.3747C9.98361 72.3098 9.85395 72.1799 9.85395 72.115C9.78912 54.9139 9.78912 37.7127 9.72429 20.5116C9.72429 19.5379 9.72429 18.6292 9.72429 17.5906C11.9933 18.045 24.6997 25.1851 38.8323 33.6883C48.2973 39.3355 57.892 44.723 68.0052 50.5649Z" fill="black"/>
</svg>
