<svg width="85" height="99" viewBox="0 0 85 99" fill="none" xmlns="http://www.w3.org/2000/svg">
<g clip-path="url(#clip0)">
<path d="M0.000333132 99C0.000333132 65.617 0.000333132 32.8085 0.000333132 0C2.03322 0.382979 82.3322 47.1064 85.0003 49.0851C85.0003 49.2128 85.0639 49.2766 85.0003 49.4043C85.0003 49.5319 84.9368 49.6596 84.8733 49.6596C56.7305 66 28.6513 82.3404 0.000333132 99ZM63.655 49.3404C57.6199 45.1915 13.2141 19.7234 11.0542 19.0851C10.5459 23.5532 10.7365 77.1702 11.3083 79.7234C28.6513 69.6383 45.9944 59.5532 63.655 49.3404Z" fill="black"/>
<path d="M42.5 49.4681C35.5755 53.4894 28.651 57.5107 21.3453 61.7873C21.0912 57.4468 21.0277 53.5532 21.0277 49.5958C21.0277 45.5745 21.0277 41.5532 21.0277 37.2766C21.8535 37.4043 22.3617 37.4043 22.7429 37.5958C29.1592 41.2979 35.5755 45 41.9918 48.7021C42.1188 48.766 42.1824 49.0213 42.5 49.4681Z" fill="black"/>
</g>
<defs>
<clipPath id="clip0">
<rect width="99" height="85" fill="white" transform="translate(85) rotate(90)"/>
</clipPath>
</defs>
</svg>
