<svg width="89" height="103" viewBox="0 0 89 103" fill="none" xmlns="http://www.w3.org/2000/svg">
<g clip-path="url(#clip0)">
<path d="M0.395563 0C2.30742 1.12968 4.21927 2.25935 6.19705 3.38903C6.26298 5.24968 6.46075 7.11032 6.46075 8.97097C6.39483 22.9258 6.3289 36.8142 6.26297 50.769C6.26297 61.1355 6.26297 71.5684 6.26297 81.9348C6.26297 87.251 6.3289 92.5006 6.46075 97.8168C6.46075 98.9464 6.26297 99.7439 5.27408 100.342C3.69186 101.272 2.04371 102.136 0.395563 103.066C-0.131845 100.342 -0.197771 3.25613 0.395563 0Z" fill="black"/>
<path d="M14.5037 94.8929C12.5259 96.0226 10.7459 97.0194 8.90001 98.0826C8.3726 95.6239 8.24075 9.70197 8.76816 5.31616C9.8889 5.31616 10.7459 6.04713 11.603 6.57874C12.5259 7.11036 13.4489 7.70842 14.4378 8.30648C14.5037 37.08 14.5037 65.8536 14.5037 94.8929Z" fill="black"/>
<path d="M16.6793 9.50256C19.0526 10.898 20.9644 12.0277 22.7444 13.0245C22.7444 38.7413 22.7444 64.2587 22.7444 89.9755C20.8326 91.1051 18.9207 92.3013 16.6793 93.5639C16.6793 65.5213 16.6793 37.811 16.6793 9.50256Z" fill="black"/>
<path d="M24.6563 14.1542C27.0956 15.5497 29.0074 16.6793 30.9852 17.809C30.9852 40.3361 30.9852 62.5974 30.9852 85.2574C29.2711 86.2542 27.4252 87.3174 25.3156 88.5135C25.1178 87.7161 24.7881 87.118 24.7881 86.5864C24.7881 85.058 24.9859 83.5297 24.9859 81.9348C24.9859 62.9297 24.9859 43.9245 24.9859 24.8529C24.9859 22.8593 24.7882 20.8658 24.7222 18.9387C24.6563 17.6097 24.6563 16.1477 24.6563 14.1542Z" fill="black"/>
<path d="M33.1608 84.0613C33.1608 62.1987 33.1608 40.8678 33.1608 19.271C34.6111 20.0684 35.9297 20.6665 37.1163 21.3974C37.7756 21.7962 38.3689 22.2613 39.0282 22.7929C39.0282 42.0639 39.0282 61.3349 39.0282 80.6723C37.2482 81.6691 35.4682 82.6658 33.1608 84.0613Z" fill="black"/>
<path d="M41.5993 23.9226C43.8407 25.2516 45.6867 26.3813 47.5326 27.511C47.5326 43.5923 47.5326 59.5407 47.5326 75.622C45.6207 76.7516 43.7089 77.9478 41.797 79.0774C41.5333 78.7452 41.2696 78.6123 41.2696 78.4129C41.2696 60.8033 41.2037 43.1936 41.2037 25.5839C41.1378 25.1852 41.3356 24.72 41.5993 23.9226Z" fill="black"/>
<path d="M49.6422 28.7072C51.6859 29.9033 53.5318 30.9665 55.4437 32.0297C55.4437 44.9878 55.4437 57.8129 55.4437 70.9039C53.7296 71.9671 51.8837 73.0968 50.1037 74.16C49.84 74.0271 49.7081 74.0271 49.6422 73.9607C49.5763 73.8942 49.4444 73.7613 49.4444 73.6949C49.4444 59.2084 49.3785 44.6555 49.3785 30.1691C49.5104 29.7704 49.5763 29.3717 49.6422 28.7072Z" fill="black"/>
<path d="M57.883 33.4252C60.1904 34.8207 62.0363 35.8839 63.8822 37.0136C63.8822 46.7819 63.8822 56.351 63.8822 66.1194C62.0363 67.1826 60.1904 68.2458 58.5422 69.2426C58.1467 69.0432 58.0148 69.0432 57.9489 68.9768C57.883 68.9103 57.7511 68.7774 57.7511 68.711C57.6852 57.5471 57.6193 46.3832 57.6193 35.2194C57.6193 34.8207 57.7511 34.3555 57.883 33.4252Z" fill="black"/>
<path d="M71.9911 41.931C71.9911 48.4433 71.9911 54.7562 71.9911 61.4013C70.277 62.3981 68.4311 63.5278 66.5852 64.6575C65.86 62.2652 65.6622 43.6588 66.2556 38.542C68.2993 39.4059 70.1452 40.4691 71.9911 41.931Z" fill="black"/>
<path d="M74.5622 59.9393C73.903 57.2813 73.837 46.2503 74.4304 43.3264C74.76 43.3929 75.0896 43.3929 75.3533 43.5922C77.0674 44.589 78.7155 45.5858 80.4955 46.649C80.4955 48.2438 80.4955 49.7722 80.4955 51.3006C80.4955 52.9619 80.4955 54.6232 80.4955 56.4174C78.5178 57.6135 76.54 58.7432 74.5622 59.9393Z" fill="black"/>
<path d="M89 51.5664C86.5607 52.9619 84.7148 53.9587 82.6052 55.1548C82.6052 52.5632 82.6052 50.3038 82.6052 47.7787C84.7148 49.0413 86.5607 50.1709 89 51.5664Z" fill="black"/>
</g>
<defs>
<clipPath id="clip0">
<rect width="103" height="89" fill="white" transform="translate(89) rotate(90)"/>
</clipPath>
</defs>
</svg>
