<svg width="92" height="106" viewBox="0 0 92 106" fill="none" xmlns="http://www.w3.org/2000/svg">
<g clip-path="url(#clip0)">
<path d="M86.1945 55.1146C76.0178 58.1841 65.8411 61.2536 55.6644 64.3231C39.1359 69.3025 22.539 74.2819 6.01038 79.3295C4.23459 79.8752 2.3905 80.3527 0.546394 80.8983C-0.068306 78.1699 -0.204903 66.4376 0.341492 62.5496C29.8471 59.4119 59.4892 56.4106 89.0631 53.3411C89.0631 53.2047 89.0631 53.0682 89.0631 52.8636C59.4892 49.7941 29.9837 46.7928 0.478088 43.7233C-0.068306 41.0631 -0.204903 29.8083 0.341492 25.4427C0.956192 25.5792 1.57089 25.6474 2.18559 25.7838C26.0906 33.0142 50.0638 40.1763 73.9688 47.4067C77.7936 48.5663 81.5501 49.7259 85.3066 50.9537C86.0579 51.2265 86.8092 51.5676 87.4239 50.6808C88.9265 51.363 90.3608 52.0451 92 52.8636C91.4536 53.955 90.634 54.2278 89.8144 54.1596C88.8582 54.1596 89.268 55.9331 88.0386 55.3874C87.4239 55.251 86.8092 55.1828 86.1945 55.1146Z" fill="black"/>
<path d="M86.1945 55.1145C86.8092 55.1827 87.4239 55.3191 87.9703 55.3873C85.1017 57.1608 82.3014 59.0025 79.4328 60.7078C62.4261 70.5302 45.4195 80.2844 28.4128 90.0386C20.1485 94.8133 11.8842 99.5881 3.68819 104.363C2.73199 104.909 1.70749 105.386 0.478088 106C-0.273209 103.954 0.204887 102.044 0.0682831 100.202C-1.52588e-05 98.3603 0.0682831 96.5868 0.0682831 94.4723C3.75648 92.767 7.44469 91.0617 11.1329 89.3565C19.124 85.8095 27.1151 82.2625 35.0379 78.6473C48.971 72.5083 62.8359 66.2329 76.7008 60.0257C79.2962 58.8661 81.8916 57.7065 84.4187 56.4787C85.1017 56.2059 85.5798 55.592 86.1945 55.1145Z" fill="black"/>
<path d="M87.4239 50.6126C85.853 50.0669 84.2138 49.5894 82.7112 48.9073C70.4172 43.3822 58.1232 37.8571 45.8292 32.3321C31.2814 25.7838 16.6652 19.3037 2.11728 12.7555C1.50258 12.4826 0.887886 12.1416 0.204887 11.8005C0.204887 7.9807 0.204887 4.16088 0.204887 0C3.82478 2.04633 7.17147 3.88803 10.5182 5.79794C25.271 14.3243 40.0237 22.7825 54.7765 31.3089C65.1581 37.3115 75.608 43.314 85.9896 49.3166C86.536 49.5895 86.9458 50.2033 87.4239 50.6126Z" fill="black"/>
</g>
<defs>
<clipPath id="clip0">
<rect width="106" height="92" fill="white" transform="translate(92) rotate(90)"/>
</clipPath>
</defs>
</svg>
