<svg width="37" height="37" viewBox="0 0 37 37" fill="none" xmlns="http://www.w3.org/2000/svg">
<path fill-rule="evenodd" clip-rule="evenodd" d="M18.5 2.625C9.73248 2.625 2.625 9.73248 2.625 18.5C2.625 27.2675 9.73248 34.375 18.5 34.375C27.2675 34.375 34.375 27.2675 34.375 18.5C34.375 9.73248 27.2675 2.625 18.5 2.625ZM0.625 18.5C0.625 8.62791 8.62791 0.625 18.5 0.625C28.3721 0.625 36.375 8.62791 36.375 18.5C36.375 28.3721 28.3721 36.375 18.5 36.375C8.62791 36.375 0.625 28.3721 0.625 18.5Z" fill="#D8261E"/>
<path fill-rule="evenodd" clip-rule="evenodd" d="M14.4414 22.6367C15.7091 22.033 17.0957 21.7197 18.4998 21.7197C19.904 21.7197 21.2905 22.033 22.5583 22.6366C23.8261 23.2403 24.9433 24.1192 25.8284 25.2094C26.1765 25.6381 26.1112 26.2679 25.6824 26.616C25.2537 26.9641 24.6239 26.8988 24.2758 26.47C23.5782 25.6109 22.6977 24.9182 21.6985 24.4424C20.6993 23.9666 19.6066 23.7197 18.4999 23.7197C17.3932 23.7197 16.3004 23.9666 15.3012 24.4424C14.302 24.9182 13.4216 25.611 12.724 26.4701C12.3759 26.8989 11.7461 26.9643 11.3173 26.6161C10.8886 26.268 10.8232 25.6382 11.1713 25.2095C12.0564 24.1194 13.1736 23.2404 14.4414 22.6367Z" fill="#D8261E"/>
<path d="M12.1719 17.7969C13.7252 17.7969 14.9844 16.5377 14.9844 14.9844C14.9844 13.4311 13.7252 12.1719 12.1719 12.1719C10.6186 12.1719 9.35938 13.4311 9.35938 14.9844C9.35938 16.5377 10.6186 17.7969 12.1719 17.7969Z" fill="#D8261E"/>
<path d="M24.8281 17.7969C26.3814 17.7969 27.6406 16.5377 27.6406 14.9844C27.6406 13.4311 26.3814 12.1719 24.8281 12.1719C23.2748 12.1719 22.0156 13.4311 22.0156 14.9844C22.0156 16.5377 23.2748 17.7969 24.8281 17.7969Z" fill="#D8261E"/>
</svg>
