<svg width="31" height="38" viewBox="0 0 31 38" fill="none" xmlns="http://www.w3.org/2000/svg">
<path fill-rule="evenodd" clip-rule="evenodd" d="M7.46875 1.21875C7.46875 0.666465 7.91647 0.21875 8.46875 0.21875H22.5312C23.0835 0.21875 23.5312 0.666465 23.5312 1.21875V8.25C23.5312 8.80228 23.0835 9.25 22.5312 9.25H8.46875C7.91647 9.25 7.46875 8.80228 7.46875 8.25V1.21875ZM9.46875 2.21875V7.25H21.5312V2.21875H9.46875Z" fill="#D8261E"/>
<path fill-rule="evenodd" clip-rule="evenodd" d="M2.84375 5.03125C2.73601 5.03125 2.63268 5.07405 2.55649 5.15024C2.4803 5.22643 2.4375 5.32976 2.4375 5.4375V34.9688C2.4375 35.0765 2.4803 35.1798 2.55649 35.256C2.63267 35.3322 2.736 35.375 2.84375 35.375H28.1562C28.264 35.375 28.3673 35.3322 28.4435 35.256C28.5197 35.1798 28.5625 35.0765 28.5625 34.9688V5.4375C28.5625 5.32975 28.5197 5.22642 28.4435 5.15024C28.3673 5.07405 28.264 5.03125 28.1562 5.03125H22.5312C21.979 5.03125 21.5312 4.58353 21.5312 4.03125C21.5312 3.47897 21.979 3.03125 22.5312 3.03125H28.1562C28.7944 3.03125 29.4065 3.28476 29.8577 3.73602C30.309 4.18729 30.5625 4.79932 30.5625 5.4375V34.9688C30.5625 35.6069 30.309 36.219 29.8577 36.6702C29.4065 37.1215 28.7944 37.375 28.1562 37.375H2.84375C2.20557 37.375 1.59354 37.1215 1.14227 36.6702C0.691015 36.219 0.4375 35.6069 0.4375 34.9688V5.4375C0.4375 4.79932 0.691016 4.18728 1.14227 3.73602C1.59353 3.28477 2.20557 3.03125 2.84375 3.03125H8.46875C9.02103 3.03125 9.46875 3.47897 9.46875 4.03125C9.46875 4.58353 9.02103 5.03125 8.46875 5.03125H2.84375Z" fill="#D8261E"/>
<path fill-rule="evenodd" clip-rule="evenodd" d="M8.875 23.7188C8.875 23.1665 9.32272 22.7188 9.875 22.7188H21.125C21.6773 22.7188 22.125 23.1665 22.125 23.7188C22.125 24.271 21.6773 24.7188 21.125 24.7188H9.875C9.32272 24.7188 8.875 24.271 8.875 23.7188Z" fill="#D8261E"/>
<path fill-rule="evenodd" clip-rule="evenodd" d="M8.875 18.0938C8.875 17.5415 9.32272 17.0938 9.875 17.0938H21.125C21.6773 17.0938 22.125 17.5415 22.125 18.0938C22.125 18.646 21.6773 19.0938 21.125 19.0938H9.875C9.32272 19.0938 8.875 18.646 8.875 18.0938Z" fill="#D8261E"/>
</svg>
