<svg width="80" height="35" viewBox="0 0 80 35" fill="none" xmlns="http://www.w3.org/2000/svg">
<path d="M78.8297 8.58371H67.4392C67.2596 8.58371 66.9583 8.58371 66.7729 8.61166L66.1008 8.66754C65.9212 8.66754 65.6199 8.72342 65.4345 8.75695C65.2491 8.79048 64.9652 8.85754 64.7972 8.90225L64.1599 9.08108C63.9745 9.12578 63.6906 9.20402 63.5226 9.25432C63.3546 9.30461 63.0765 9.39403 62.9085 9.46109L62.3291 9.6958L61.7497 9.95845C61.5875 10.0423 61.321 10.1708 61.1703 10.2546C61.0197 10.3385 60.7706 10.4782 60.6199 10.5788C60.4693 10.6793 60.2375 10.8302 60.1043 10.9252C59.971 11.0202 59.7393 11.1935 59.5886 11.3108L59.073 11.6908C58.9066 11.8138 58.7533 11.9523 58.6153 12.1044C58.4994 12.2273 58.3082 12.4285 58.1866 12.5403C58.0649 12.652 57.8795 12.8476 57.7636 12.9762L57.3407 13.4512C57.198 13.6064 57.0664 13.7707 56.9467 13.9429C56.8424 14.0882 56.6918 14.3285 56.6107 14.4738C56.5295 14.6191 56.3789 14.8538 56.2746 14.9991C56.161 15.1785 56.0603 15.3652 55.9733 15.558L55.6953 16.1168C55.6141 16.2789 55.4925 16.5415 55.4229 16.6757C55.3534 16.8098 55.2665 17.1004 55.2144 17.2624C55.1622 17.4245 55.0811 17.6871 55.029 17.8213C54.9768 17.9554 54.9073 18.2404 54.861 18.3801C54.8146 18.5198 54.635 18.1566 54.4554 17.553L52.1727 9.88021C51.9988 9.27667 51.5064 8.76254 51.0892 8.76254H45.4056C44.971 8.76254 44.467 9.25991 44.2874 9.88021L40.0811 24.0355C39.9015 24.6391 39.7567 24.5944 39.7567 23.9908V9.96404C39.7477 9.66553 39.6187 9.38209 39.3971 9.17355C39.1755 8.96501 38.8785 8.84769 38.5689 8.84637H32.1958C31.5411 8.84637 31.0081 9.09784 31.0081 9.4052C31.0081 9.71256 31.0081 9.91933 30.9444 9.84668C30.8806 9.77403 30.8053 9.5505 30.7068 9.33814C30.6083 9.12578 30.4287 8.77931 30.3071 8.60607L29.8841 7.89635L29.4554 7.22574C29.3395 7.04692 29.1367 6.75632 29.0035 6.58308C28.8702 6.40984 28.6385 6.11366 28.4878 5.93483C28.3372 5.75601 28.0881 5.48218 27.9374 5.32011C27.7868 5.15805 27.5261 4.90658 27.3581 4.76128C27.19 4.61598 26.9351 4.36451 26.7787 4.20244C26.5935 3.99715 26.3878 3.80997 26.1645 3.64361C25.9849 3.51508 25.6952 3.30272 25.533 3.17419C25.3708 3.04565 25.0753 2.83888 24.8899 2.70476C24.7045 2.57064 24.3917 2.38064 24.1947 2.26887C23.9977 2.15711 23.6616 1.98387 23.4647 1.88886L22.7346 1.5368C22.5319 1.43621 22.2074 1.2965 22.0046 1.21267L21.2746 0.938844C21.0603 0.860607 20.6952 0.743251 20.4809 0.676191C20.2665 0.609131 19.9015 0.525306 19.6929 0.47501L18.905 0.296183C18.6906 0.251476 18.3256 0.178828 18.0823 0.150886C17.8389 0.122944 17.4392 0.0670604 17.219 0.0502953C16.9988 0.0335302 14.7856 0 14.7335 0H1.22248C0.895977 0.0169284 0.588272 0.152633 0.361408 0.379752C0.134543 0.606871 0.00539364 0.90851 0 1.22385V32.9378C0.00901463 33.2363 0.137937 33.5197 0.359548 33.7283C0.581159 33.9368 0.878114 34.0541 1.18772 34.0554H13.5226C14.1773 34.0554 16.9699 34.0554 17.2016 34.0554C17.4334 34.0554 17.8216 33.9996 18.0533 33.966L18.876 33.8487C19.1422 33.8069 19.4053 33.7491 19.664 33.6754L20.4519 33.4407L21.2746 33.206C21.5342 33.1237 21.7878 33.0248 22.0336 32.9098C22.2364 32.8148 22.5608 32.6695 22.7636 32.5913C23.004 32.4847 23.238 32.3653 23.4647 32.2336C23.6616 32.1219 23.9919 31.9319 24.1947 31.8257L24.8899 31.4121C25.0753 31.3004 25.365 31.0992 25.533 30.9707L26.1645 30.4733C26.3804 30.2987 26.5854 30.1121 26.7787 29.9145L27.3581 29.3556C27.5261 29.1936 27.781 28.9309 27.9374 28.7689C28.0939 28.6068 28.3372 28.333 28.4878 28.1541L29.0035 27.5394C29.1667 27.3337 29.3176 27.1191 29.4554 26.8968C29.5713 26.7012 29.7625 26.3826 29.8841 26.1926L30.3013 25.5276C30.4229 25.332 30.5968 25.0135 30.701 24.8235L30.9386 24.3429C31.0134 24.6768 31.0349 25.0198 31.0023 25.36V32.9937C31.0023 33.298 31.1273 33.59 31.3498 33.8057C31.5724 34.0214 31.8745 34.1434 32.19 34.1449H44.606C44.9395 34.1193 45.255 33.9883 45.5033 33.772C45.7516 33.5557 45.9189 33.2664 45.9791 32.9489L48.0533 21.7722C48.1692 21.1519 48.3546 21.1519 48.4705 21.7722L50.4925 32.9489C50.5638 33.2571 50.7389 33.5339 50.9905 33.7361C51.242 33.9383 51.5558 34.0545 51.883 34.0666L58.1981 34.1057C58.3431 34.1204 58.4896 34.0985 58.6231 34.0421C58.7566 33.9857 58.8726 33.8967 58.9597 33.784C59.0468 33.6712 59.102 33.5386 59.1198 33.399C59.1376 33.2595 59.1175 33.1178 59.0614 32.9881L58.5226 31.1718C58.3911 30.8548 58.3166 30.5184 58.3024 30.1771C58.3662 30.2386 58.511 30.3895 58.6269 30.518C58.7707 30.6716 58.9235 30.8172 59.0846 30.9539C59.2489 31.0916 59.421 31.2204 59.6002 31.3395C59.7509 31.4345 59.9768 31.591 60.1159 31.6916L60.6315 32.0436C60.7822 32.1386 61.0313 32.2839 61.1819 32.3678L61.7613 32.6584L62.3407 32.921L62.92 33.1557L63.5342 33.3904C63.7022 33.4519 63.9861 33.5469 64.1715 33.5916C64.3569 33.6363 64.6408 33.709 64.8088 33.7425L65.4461 33.8598C65.6315 33.8934 65.9328 33.9325 66.1124 33.9493L66.7845 34.0051C66.9699 34.0051 67.2943 34.0051 67.5145 34.0051H78.8412C79.1458 33.9967 79.4355 33.8762 79.6509 33.6684C79.8664 33.4606 79.9912 33.1812 80 32.8875V9.72933C80 9.42837 79.8773 9.1395 79.6583 8.92513C79.4393 8.71076 79.1416 8.58812 78.8297 8.58371ZM23.343 19.6822C23.343 19.8202 23.3148 19.9568 23.2601 20.0842C23.2053 20.2117 23.1251 20.3275 23.024 20.4251C22.9228 20.5226 22.8027 20.6 22.6706 20.6528C22.5384 20.7056 22.3968 20.7328 22.2538 20.7328H19.0267C18.7382 20.7343 18.4621 20.8454 18.2581 21.0421C18.0542 21.2388 17.9389 21.5052 17.9374 21.7834V24.8961C17.9374 25.1748 17.8227 25.442 17.6184 25.639C17.4141 25.836 17.1371 25.9467 16.8482 25.9467H11.4253C11.1374 25.9453 10.8618 25.8339 10.6588 25.6371C10.4558 25.4402 10.3418 25.1738 10.3418 24.8961V21.7834C10.3388 21.5047 10.2223 21.2383 10.0174 21.0418C9.81254 20.8452 9.53577 20.7343 9.24681 20.7328H5.99073C5.84769 20.7328 5.70605 20.7056 5.5739 20.6528C5.44175 20.6 5.32168 20.5226 5.22053 20.4251C5.11939 20.3275 5.03916 20.2117 4.98442 20.0842C4.92968 19.9568 4.90151 19.8202 4.90151 19.6822V14.4235C4.90151 14.1449 5.01626 13.8777 5.22053 13.6807C5.4248 13.4836 5.70185 13.3729 5.99073 13.3729H9.26999C9.55894 13.3715 9.83571 13.2605 10.0406 13.0639C10.2454 12.8674 10.362 12.601 10.365 12.3223V9.20961C10.3649 8.93575 10.4757 8.67267 10.6737 8.47642C10.8718 8.28018 11.1414 8.16628 11.4253 8.159H16.825C17.1139 8.159 17.391 8.26969 17.5952 8.46672C17.7995 8.66374 17.9143 8.93097 17.9143 9.20961V12.3223C17.9158 12.6005 18.031 12.8669 18.235 13.0636C18.4389 13.2603 18.7151 13.3715 19.0035 13.3729H22.2306C22.5195 13.3729 22.7965 13.4836 23.0008 13.6807C23.2051 13.8777 23.3198 14.1449 23.3198 14.4235L23.343 19.6822ZM72.1205 26.0529C72.1085 26.3168 71.9893 26.5655 71.7887 26.7453C71.5882 26.9252 71.3224 27.0217 71.0487 27.0141H69.5133C68.934 27.0141 68.3951 27.0141 68.3546 27.0141C68.2719 26.9952 68.1906 26.9709 68.1112 26.9415L67.9432 26.8912H67.8331L67.613 26.8185L67.3696 26.7179L67.1495 26.6229C67.073 26.5874 66.9994 26.5463 66.9293 26.5C66.8593 26.4537 66.7857 26.4126 66.7092 26.377C66.6329 26.3445 66.5609 26.3032 66.4948 26.2541L66.2688 26.1032L66.0487 25.9635C65.9907 25.9188 65.9038 25.8573 65.8575 25.8126C65.7971 25.7602 65.7333 25.7116 65.6663 25.6673L65.4751 25.522C65.4166 25.4683 65.3624 25.4103 65.3129 25.3488C65.2665 25.2929 65.1912 25.2202 65.1448 25.1755C65.0846 25.1218 65.0284 25.0639 64.9768 25.0023C64.9272 24.9425 64.8826 24.879 64.8436 24.8123C64.8033 24.7415 64.7568 24.6742 64.7045 24.6111L64.5655 24.4211C64.5286 24.3514 64.4839 24.2858 64.4322 24.2255C64.382 24.163 64.3355 24.0977 64.2932 24.0299L64.1831 23.8064C64.1831 23.7393 64.1193 23.6387 64.102 23.5829C64.0799 23.5086 64.0528 23.4358 64.0209 23.3649C63.9889 23.2941 63.9618 23.2213 63.9397 23.147C63.9397 23.0911 63.8992 22.9905 63.8818 22.929C63.8644 22.8675 63.8412 22.7446 63.8297 22.6775L63.7717 22.4372C63.7668 22.3628 63.7668 22.2881 63.7717 22.2137C63.7794 22.1413 63.7794 22.0682 63.7717 21.9958C63.7635 21.914 63.7635 21.8317 63.7717 21.7499V21.4816C63.7612 21.4 63.7612 21.3174 63.7717 21.2358C63.7812 21.1615 63.7812 21.0864 63.7717 21.0122C63.766 20.9322 63.766 20.8519 63.7717 20.7719C63.7717 20.7049 63.8123 20.5931 63.8297 20.526C63.847 20.459 63.8644 20.3472 63.8818 20.2801C63.8992 20.2131 63.9224 20.1125 63.9397 20.0566C63.9609 19.9839 63.9881 19.9129 64.0209 19.8443C64.052 19.7712 64.0791 19.6966 64.102 19.6207C64.1106 19.5395 64.1261 19.4592 64.1483 19.3804C64.1907 19.3106 64.2275 19.2377 64.2584 19.1625C64.2979 19.0859 64.3444 19.013 64.3974 18.9445C64.4465 18.8824 64.4911 18.817 64.5307 18.7489C64.5655 18.693 64.6292 18.6036 64.6698 18.5533C64.7206 18.4912 64.7671 18.4259 64.8088 18.3577C64.8451 18.2946 64.8899 18.2364 64.9421 18.1845C65.0023 18.1308 65.0585 18.0729 65.1101 18.0113L65.2781 17.8157C65.3277 17.7559 65.3819 17.6998 65.4403 17.648L65.6315 17.5027C65.6895 17.458 65.7822 17.391 65.8227 17.3518L66.0139 17.2065L66.2341 17.0612C66.3067 17.009 66.3821 16.9605 66.46 16.916C66.5274 16.8671 66.5992 16.8241 66.6744 16.7874L66.8946 16.6924L67.1147 16.5695C67.1827 16.5259 67.2568 16.492 67.3349 16.4689C67.4176 16.45 67.4989 16.4257 67.5782 16.3962C67.6548 16.372 67.7286 16.3402 67.7984 16.3012C67.8322 16.2792 67.8693 16.2623 67.9085 16.2509L68.0765 16.2006L68.3198 16.128C68.3835 16.128 68.8992 16.128 69.4786 16.128H71.0139C71.2871 16.1189 71.5529 16.2142 71.7536 16.3931C71.9543 16.5721 72.0737 16.8202 72.0857 17.0836L72.1205 26.0529Z" fill="#005092"/>
</svg>
