<svg width="21" height="21" viewBox="0 0 21 21" fill="none" xmlns="http://www.w3.org/2000/svg">
<path fill-rule="evenodd" clip-rule="evenodd" d="M10.5 2.125C5.87462 2.125 2.125 5.87462 2.125 10.5C2.125 15.1254 5.87462 18.875 10.5 18.875C15.1254 18.875 18.875 15.1254 18.875 10.5C18.875 5.87462 15.1254 2.125 10.5 2.125ZM0.125 10.5C0.125 4.77005 4.77005 0.125 10.5 0.125C16.23 0.125 20.875 4.77005 20.875 10.5C20.875 16.23 16.23 20.875 10.5 20.875C4.77005 20.875 0.125 16.23 0.125 10.5Z" fill="#565656"/>
<path fill-rule="evenodd" clip-rule="evenodd" d="M10.4794 6.57322C11.1064 5.94614 11.9569 5.59386 12.8438 5.59386H14.4062C14.9585 5.59386 15.4062 6.04157 15.4062 6.59386C15.4062 7.14614 14.9585 7.59386 14.4062 7.59386H12.8438C12.4874 7.59386 12.1456 7.73543 11.8936 7.98743C11.6416 8.23943 11.5 8.58122 11.5 8.93761V19.8751C11.5 20.4274 11.0523 20.8751 10.5 20.8751C9.94772 20.8751 9.5 20.4274 9.5 19.8751V8.93761C9.5 8.05079 9.85229 7.20029 10.4794 6.57322Z" fill="#565656"/>
<path fill-rule="evenodd" clip-rule="evenodd" d="M6.375 12.0626C6.375 11.5103 6.82272 11.0626 7.375 11.0626H13.625C14.1773 11.0626 14.625 11.5103 14.625 12.0626C14.625 12.6149 14.1773 13.0626 13.625 13.0626H7.375C6.82272 13.0626 6.375 12.6149 6.375 12.0626Z" fill="#565656"/>
</svg>
