<svg width="36" height="36" viewBox="0 0 36 36" fill="none" xmlns="http://www.w3.org/2000/svg">
<path fill-rule="evenodd" clip-rule="evenodd" d="M25.8321 10.1679C26.2226 10.5584 26.2226 11.1916 25.8321 11.5821L1.92586 35.4884C1.53533 35.8789 0.902167 35.8789 0.511643 35.4884C0.121119 35.0978 0.121119 34.4647 0.511643 34.0741L24.4179 10.1679C24.8084 9.77737 25.4416 9.77737 25.8321 10.1679Z" fill="#D8261E"/>
<path fill-rule="evenodd" clip-rule="evenodd" d="M32.9834 3.01666C29.3166 1.86699 25.4055 1.71953 21.6573 2.59418C17.7479 3.50646 14.1716 5.49432 11.333 8.33298C8.4943 11.1716 6.50645 14.7479 5.59416 18.6573C4.71952 22.4055 4.86698 26.3166 6.01665 29.9834C9.68346 31.1331 13.5946 31.2805 17.3427 30.4059C21.2522 29.4936 24.8284 27.5057 27.6671 24.6671C30.5057 21.8284 32.4936 18.2522 33.4059 14.3427C34.2805 10.5946 34.133 6.68348 32.9834 3.01666ZM5.22358 30.7765L4.90248 31.7235C9.05777 33.1324 13.5244 33.3506 17.7972 32.3535C22.0701 31.3565 25.9787 29.1838 29.0813 26.0813C32.1838 22.9787 34.3564 19.0701 35.3535 14.7972C36.3506 10.5244 36.1324 6.05778 34.7235 1.90249C34.6236 1.60783 34.3922 1.37646 34.0975 1.27655C29.9422 -0.132339 25.4757 -0.35058 21.2028 0.646506C16.93 1.64359 13.0213 3.81623 9.91875 6.91877C6.81622 10.0213 4.64358 13.93 3.64649 18.2028C2.6494 22.4757 2.86765 26.9423 4.27654 31.0976L5.22358 30.7765Z" fill="#D8261E"/>
</svg>
