<svg width="40" height="39" viewBox="0 0 40 39" fill="none" xmlns="http://www.w3.org/2000/svg">
<path fill-rule="evenodd" clip-rule="evenodd" d="M19.4988 8.95461C19.4988 8.40232 19.9465 7.95461 20.4988 7.95461C22.0151 7.95461 23.5166 8.25327 24.9176 8.83356C26.3185 9.41384 27.5914 10.2644 28.6636 11.3366C29.7359 12.4088 30.5864 13.6818 31.1667 15.0827C31.747 16.4836 32.0456 17.9851 32.0456 19.5015C32.0456 20.9554 31.9781 22.3933 31.8429 23.815C31.7906 24.3648 31.3025 24.7681 30.7527 24.7158C30.2029 24.6635 29.7996 24.1754 29.8519 23.6256C29.981 22.2681 30.0456 20.8934 30.0456 19.5015C30.0456 18.2478 29.7987 17.0063 29.3189 15.848C28.8392 14.6898 28.1359 13.6373 27.2494 12.7508C26.3629 11.8643 25.3105 11.1611 24.1522 10.6813C22.9939 10.2015 21.7525 9.95461 20.4988 9.95461C19.9465 9.95461 19.4988 9.50689 19.4988 8.95461ZM14.2132 10.9747C14.5809 11.3867 14.545 12.0189 14.133 12.3866C13.131 13.2809 12.3295 14.3771 11.7813 15.6031C11.2331 16.829 10.9504 18.157 10.9519 19.4999M14.2132 10.9747C13.8454 10.5626 13.2133 10.5267 12.8012 10.8945ZM12.8012 10.8945C11.5887 11.9766 10.6189 13.3031 9.95551 14.7867ZM9.95551 14.7867C9.29209 16.2703 8.95006 17.8774 8.9519 19.5026ZM20.4988 16.9859C20.1684 16.9859 19.8413 17.0509 19.5361 17.1773C19.2309 17.3038 18.9536 17.4891 18.72 17.7227C18.4864 17.9563 18.3011 18.2336 18.1746 18.5388C18.0482 18.844 17.9831 19.1711 17.9831 19.5015C17.9831 20.0538 17.5354 20.5015 16.9831 20.5015C16.4309 20.5015 15.9831 20.0538 15.9831 19.5015C15.9831 18.9085 16.0999 18.3213 16.3269 17.7734C16.5538 17.2256 16.8864 16.7278 17.3057 16.3085C17.7251 15.8891 18.2229 15.5565 18.7707 15.3296C19.3186 15.1027 19.9058 14.9859 20.4988 14.9859C21.0918 14.9859 21.679 15.1027 22.2268 15.3296C22.7747 15.5565 23.2725 15.8891 23.6918 16.3085C24.1111 16.7278 24.4437 17.2256 24.6707 17.7734C24.8974 18.3208 25.0142 18.9075 25.0144 19.5C25.024 25.7897 23.4764 31.9839 20.5096 37.5299C20.2491 38.0169 19.6431 38.2005 19.1561 37.94C18.6692 37.6795 18.4856 37.0736 18.7461 36.5866C21.5571 31.3316 23.0235 25.4625 23.0144 19.503L23.0144 19.5015C23.0144 19.1711 22.9493 18.844 22.8229 18.5388C22.6965 18.2336 22.5112 17.9563 22.2776 17.7227C22.044 17.4891 21.7667 17.3038 21.4615 17.1773C21.1563 17.0509 20.8291 16.9859 20.4988 16.9859ZM10.9519 19.5004C10.9582 23.6221 9.90724 27.6766 7.89939 31.2763C7.63035 31.7586 7.02125 31.9315 6.53893 31.6625C6.0566 31.3935 5.8837 30.7844 6.15273 30.302C7.994 27.001 8.95777 23.2829 8.9519 19.503L8.9519 19.5026M16.4685 25.5811C16.9652 25.7415 17.255 26.2569 17.134 26.7646C16.3808 29.9254 15.1361 32.9484 13.4455 35.7232C13.1739 36.169 12.6052 36.3309 12.1396 36.095C11.674 35.8591 11.4681 35.3049 11.6668 34.8222L15.2366 26.152C15.4353 25.6694 15.9718 25.4208 16.4685 25.5811ZM29.8577 29.7842C30.392 29.924 30.7117 30.4705 30.5719 31.0048C30.1552 32.5965 29.6514 34.1641 29.0629 35.7005C28.8653 36.2162 28.287 36.4742 27.7713 36.2766C27.2556 36.0791 26.9976 35.5008 27.1952 34.9851C27.7576 33.517 28.2389 32.0191 28.6371 30.4983C28.7769 29.964 29.3234 29.6443 29.8577 29.7842Z" fill="#D8261E"/>
<path fill-rule="evenodd" clip-rule="evenodd" d="M20.5011 2.9234C16.1043 2.9234 11.8876 4.67002 8.77862 7.77902C5.66962 10.888 3.923 15.1047 3.923 19.5015C3.923 19.5233 3.92229 19.5451 3.92087 19.5667C3.91539 21.5831 3.55412 23.5829 2.85352 25.474C2.66165 25.9919 2.08629 26.2562 1.5684 26.0643C1.05051 25.8724 0.786218 25.2971 0.978081 24.7792C1.60372 23.0904 1.923 21.3036 1.92093 19.5027C1.9209 19.4801 1.92164 19.4577 1.92312 19.4353C1.94057 14.532 3.89594 9.83327 7.36441 6.36481C10.8485 2.88073 15.5739 0.923401 20.5011 0.923401C25.4284 0.923401 30.1538 2.88073 33.6378 6.36481C37.1219 9.84888 39.0793 14.5743 39.0793 19.5015C39.0793 19.5231 39.0786 19.5446 39.0772 19.566C39.0747 23.4017 38.652 27.2257 37.8164 30.9695C37.6961 31.5085 37.1617 31.8479 36.6226 31.7276C36.0836 31.6073 35.7442 31.0728 35.8645 30.5338C36.6727 26.9123 37.0794 23.2127 37.0772 19.5021C37.0772 19.481 37.0778 19.4599 37.0791 19.4389C37.0626 15.0647 35.3179 10.8733 32.2236 7.77902C29.1146 4.67002 24.8979 2.9234 20.5011 2.9234Z" fill="#D8261E"/>
</svg>
