<svg width="17" height="22" viewBox="0 0 17 22" fill="#D8261E" xmlns="http://www.w3.org/2000/svg">
    <path d="M4.03809 1.34375C4.03809 1.03692 4.28682 0.788193 4.59364 0.788193H12.4061C12.713 0.788193 12.9617 1.03692 12.9617 1.34375V5.25C12.9617 5.55682 12.713 5.80555 12.4061 5.80555H4.59364C4.28682 5.80555 4.03809 5.55682 4.03809 5.25V1.34375ZM5.1492 1.8993V4.69444H11.8506V1.8993H5.1492Z"
          fill="#D8261E"/>
    <path d="M1.46864 3.4618C1.40878 3.4618 1.35138 3.48558 1.30905 3.52791C1.26673 3.57023 1.24295 3.62764 1.24295 3.6875V20.0937C1.24295 20.1536 1.26673 20.211 1.30905 20.2533C1.35138 20.2957 1.40878 20.3194 1.46864 20.3194H15.5311C15.591 20.3194 15.6484 20.2957 15.6907 20.2533C15.7331 20.211 15.7568 20.1536 15.7568 20.0937V3.6875C15.7568 3.62764 15.7331 3.57023 15.6907 3.52791C15.6484 3.48558 15.591 3.4618 15.5311 3.4618H12.4061C12.0993 3.4618 11.8506 3.21307 11.8506 2.90625C11.8506 2.59942 12.0993 2.35069 12.4061 2.35069H15.5311C15.8857 2.35069 16.2257 2.49153 16.4764 2.74223C16.7271 2.99293 16.8679 3.33296 16.8679 3.6875V20.0937C16.8679 20.4483 16.7271 20.7883 16.4764 21.039C16.2257 21.2897 15.8857 21.4306 15.5311 21.4306H1.46864C1.1141 21.4306 0.774078 21.2897 0.523377 21.039C0.272678 20.7883 0.131836 20.4483 0.131836 20.0937V3.6875C0.131836 3.33295 0.272678 2.99293 0.523377 2.74223C0.774077 2.49153 1.1141 2.35069 1.46864 2.35069H4.59364C4.90047 2.35069 5.1492 2.59942 5.1492 2.90625C5.1492 3.21307 4.90047 3.4618 4.59364 3.4618H1.46864Z"
          fill="#D8261E"/>
    <path d="M4.81934 13.8437C4.81934 13.5369 5.06807 13.2882 5.37489 13.2882H11.6249C11.9317 13.2882 12.1804 13.5369 12.1804 13.8437C12.1804 14.1506 11.9317 14.3993 11.6249 14.3993H5.37489C5.06807 14.3993 4.81934 14.1506 4.81934 13.8437Z"
          fill="#D8261E"/>
    <path d="M4.81934 10.7187C4.81934 10.4119 5.06807 10.1632 5.37489 10.1632H11.6249C11.9317 10.1632 12.1804 10.4119 12.1804 10.7187C12.1804 11.0256 11.9317 11.2743 11.6249 11.2743H5.37489C5.06807 11.2743 4.81934 11.0256 4.81934 10.7187Z"
          fill="#D8261E"/>
</svg>
