<svg width="37" height="37" viewBox="0 0 37 37" fill="none" xmlns="http://www.w3.org/2000/svg">
<path fill-rule="evenodd" clip-rule="evenodd" d="M18.5 7.65625C19.0523 7.65625 19.5 8.10397 19.5 8.65625V11.4688C19.5 12.021 19.0523 12.4688 18.5 12.4688C17.9477 12.4688 17.5 12.021 17.5 11.4688V8.65625C17.5 8.10397 17.9477 7.65625 18.5 7.65625Z" fill="#D8261E"/>
<path fill-rule="evenodd" clip-rule="evenodd" d="M18.5 24.5312C19.0523 24.5312 19.5 24.979 19.5 25.5312V28.3438C19.5 28.896 19.0523 29.3438 18.5 29.3438C17.9477 29.3438 17.5 28.896 17.5 28.3438V25.5312C17.5 24.979 17.9477 24.5312 18.5 24.5312Z" fill="#D8261E"/>
<path fill-rule="evenodd" clip-rule="evenodd" d="M18.5 2.625C9.73248 2.625 2.625 9.73248 2.625 18.5C2.625 27.2675 9.73248 34.375 18.5 34.375C27.2675 34.375 34.375 27.2675 34.375 18.5C34.375 9.73248 27.2675 2.625 18.5 2.625ZM0.625 18.5C0.625 8.62791 8.62791 0.625 18.5 0.625C28.3721 0.625 36.375 8.62791 36.375 18.5C36.375 28.3721 28.3721 36.375 18.5 36.375C8.62791 36.375 0.625 28.3721 0.625 18.5Z" fill="#D8261E"/>
<path fill-rule="evenodd" clip-rule="evenodd" d="M16.3906 12.4688C15.7234 12.4688 15.0836 12.7338 14.6118 13.2056C14.14 13.6773 13.875 14.3172 13.875 14.9844C13.875 15.6516 14.14 16.2914 14.6118 16.7632C15.0836 17.235 15.7234 17.5 16.3906 17.5H20.6094C21.807 17.5 22.9556 17.9758 23.8024 18.8226C24.6492 19.6694 25.125 20.818 25.125 22.0156C25.125 23.2132 24.6492 24.3618 23.8024 25.2087C22.9556 26.0555 21.807 26.5312 20.6094 26.5312H14.2812C13.729 26.5312 13.2812 26.0835 13.2812 25.5312C13.2812 24.979 13.729 24.5312 14.2812 24.5312H20.6094C21.2766 24.5312 21.9164 24.2662 22.3882 23.7944C22.86 23.3227 23.125 22.6828 23.125 22.0156C23.125 21.3484 22.86 20.7086 22.3882 20.2368C21.9164 19.765 21.2766 19.5 20.6094 19.5H16.3906C15.193 19.5 14.0444 19.0242 13.1976 18.1774C12.3508 17.3306 11.875 16.182 11.875 14.9844C11.875 13.7868 12.3508 12.6382 13.1976 11.7913C14.0444 10.9445 15.193 10.4688 16.3906 10.4688H22.7188C23.271 10.4688 23.7188 10.9165 23.7188 11.4688C23.7188 12.021 23.271 12.4688 22.7188 12.4688H16.3906Z" fill="#D8261E"/>
</svg>
