<svg width="31" height="43" viewBox="0 0 31 43" fill="none" xmlns="http://www.w3.org/2000/svg">
<path fill-rule="evenodd" clip-rule="evenodd" d="M15.499 2.8125C8.2848 2.8125 2.43652 8.66078 2.43652 15.875C2.43652 23.0892 8.2848 28.9375 15.499 28.9375C22.7132 28.9375 28.5615 23.0892 28.5615 15.875C28.5615 8.66078 22.7132 2.8125 15.499 2.8125ZM0.436523 15.875C0.436523 7.55621 7.18023 0.8125 15.499 0.8125C23.8178 0.8125 30.5615 7.55621 30.5615 15.875C30.5615 24.1938 23.8178 30.9375 15.499 30.9375C7.18023 30.9375 0.436523 24.1938 0.436523 15.875Z" fill="#D8261E"/>
<path fill-rule="evenodd" clip-rule="evenodd" d="M15.5 9.84375C12.169 9.84375 9.46875 12.544 9.46875 15.875C9.46875 19.206 12.169 21.9062 15.5 21.9062C18.831 21.9062 21.5312 19.206 21.5312 15.875C21.5312 12.544 18.831 9.84375 15.5 9.84375ZM7.46875 15.875C7.46875 11.4395 11.0645 7.84375 15.5 7.84375C19.9355 7.84375 23.5312 11.4395 23.5312 15.875C23.5312 20.3105 19.9355 23.9062 15.5 23.9062C11.0645 23.9062 7.46875 20.3105 7.46875 15.875Z" fill="#D8261E"/>
<path fill-rule="evenodd" clip-rule="evenodd" d="M23.9375 26.1241C24.4898 26.1241 24.9375 26.5718 24.9375 27.1241V41.1875C24.9375 41.5341 24.7581 41.8559 24.4633 42.0381C24.1685 42.2203 23.8003 42.2369 23.4903 42.082L15.4988 38.0868L7.50977 42.0819C7.19978 42.2369 6.83162 42.2204 6.53679 42.0382C6.24196 41.856 6.0625 41.5341 6.0625 41.1875V27.1254C6.0625 26.5731 6.51022 26.1254 7.0625 26.1254C7.61478 26.1254 8.0625 26.5731 8.0625 27.1254V39.5694L15.0515 36.0744C15.333 35.9336 15.6644 35.9336 15.9459 36.0743L22.9375 39.5696V27.1241C22.9375 26.5718 23.3852 26.1241 23.9375 26.1241Z" fill="#D8261E"/>
</svg>
