<svg width="40" height="40" viewBox="0 0 40 40" fill="none" xmlns="http://www.w3.org/2000/svg">
<path fill-rule="evenodd" clip-rule="evenodd" d="M36 2H4C2.89543 2 2 2.89543 2 4V36C2 37.1046 2.89543 38 4 38H36C37.1046 38 38 37.1046 38 36V4C38 2.89543 37.1046 2 36 2ZM4 0C1.79086 0 0 1.79086 0 4V36C0 38.2091 1.79086 40 4 40H36C38.2091 40 40 38.2091 40 36V4C40 1.79086 38.2091 0 36 0H4Z" fill="#D8261E"/>
<path fill-rule="evenodd" clip-rule="evenodd" d="M15.9229 11C15.9229 9.89543 16.8183 9 17.9229 9H22.0767C23.1813 9 24.0767 9.89543 24.0767 11V15.923L29 15.923C30.1046 15.923 31 16.8184 31 17.923V22.0768C31 23.1814 30.1046 24.0768 29 24.0768H24.0767V29C24.0767 30.1046 23.1813 31 22.0767 31H17.9229C16.8183 31 15.9229 30.1046 15.9229 29V24.0768H11C9.89543 24.0768 9 23.1814 9 22.0768V17.923C9 16.8184 9.89543 15.923 11 15.923L15.9229 15.923V11ZM22.0767 11L17.9229 11V15.923C17.9229 17.0275 17.0275 17.923 15.9229 17.923L11 17.923L11 22.0768H15.9229C17.0275 22.0768 17.9229 22.9722 17.9229 24.0768V29H22.0767V24.0768C22.0767 22.9722 22.9722 22.0768 24.0767 22.0768L29 22.0768L29 17.923H24.0767C22.9722 17.923 22.0767 17.0275 22.0767 15.923L22.0767 11Z" fill="#D8261E"/>
</svg>
