<svg width="110" height="20" viewBox="0 0 110 20" fill="none" xmlns="http://www.w3.org/2000/svg">
<g clip-path="url(#clip0)">
<path d="M55.029 9H50.6754V4.5H55.029V0H59.4406V4.47059H63.8522V8.97059H59.4696C59.4696 9 59.4406 9.02942 59.4406 9.05883C59.4406 10.2353 59.3535 11.4118 59.5857 12.5588C59.7889 13.5294 60.1372 14.4118 60.8918 15.0882C61.5883 15.6765 62.401 15.9118 63.3007 15.9706C63.4749 15.9706 63.649 15.9706 63.8522 15.9706V19.8529C63.2427 19.8235 62.6332 19.7941 62.0237 19.7059C60.7466 19.5588 59.5567 19.1471 58.4538 18.4706C56.8284 17.4118 55.8707 15.8529 55.3773 13.9706C55.1451 13.0588 55.058 12.1765 55.029 11.2353C55 10.5 55.029 9.7353 55.029 9Z" fill="#202020"/>
<path d="M91.6281 10.9412V19.5294H87.3616V11.6176C87.3616 9.20588 86.2877 8.08823 84.5753 8.08823C82.6597 8.08823 81.3246 9.32353 81.3246 12.0294V19.5588H77.0581V11.6176C77.0581 9.20588 76.0423 8.08823 74.2718 8.08823C72.3853 8.08823 71.0502 9.32353 71.0502 12.0294V19.5588H66.7837V4.55882H70.847V6.29412C71.9499 5 73.5753 4.35294 75.4618 4.35294C77.5225 4.35294 79.2639 5.14706 80.3088 6.79412C81.4697 5.2647 83.3853 4.35294 85.6201 4.35294C89.132 4.29412 91.6281 6.35294 91.6281 10.9412Z" fill="#202020"/>
<path d="M98.7388 10.7059H105.995C105.676 8.79413 104.311 7.58825 102.396 7.58825C100.422 7.58825 99.0581 8.79413 98.7388 10.7059ZM109.913 13.2353H98.7969C99.2032 15.1177 100.77 16.2353 103.005 16.2353C104.573 16.2353 105.676 15.7647 106.691 14.7941L108.955 17.2941C107.591 18.8824 105.53 19.7059 102.889 19.7059C97.8101 19.7059 94.5013 16.4412 94.5013 12C94.5013 7.50001 97.8681 4.29413 102.338 4.29413C106.662 4.29413 110 7.2353 110 12.0882C110 12.4118 109.942 12.8824 109.913 13.2353Z" fill="#202020"/>
<path d="M40.8945 4.5L34.6834 19.5H30.3008L24.1188 4.5H28.5304L32.5937 14.7059L36.8021 4.5H40.8945Z" fill="#202020"/>
<path d="M4.41162 11.0882V0.147064H8.82323V10.9118C8.82323 14.6177 10.3905 16.1471 13.0897 16.1471C15.7889 16.1471 17.3562 14.6177 17.3562 10.9118V0.147064H21.7388V11.0882C21.7388 16.8235 18.5172 20 13.0607 20C7.60424 20 4.41162 16.8235 4.41162 11.0882Z" fill="#202020"/>
<path d="M13.2348 4.52942H0V9.02942H13.2348V4.52942Z" fill="#202020"/>
<path d="M47.6861 4.52942H43.4196V19.5294H47.6861V4.52942Z" fill="#202020"/>
</g>
<defs>
<clipPath id="clip0">
<rect width="110" height="20" fill="white"/>
</clipPath>
</defs>
</svg>
