<svg width="38" height="36" viewBox="0 0 38 36" fill="none" xmlns="http://www.w3.org/2000/svg">
<path fill-rule="evenodd" clip-rule="evenodd" d="M22.9062 2.22131C22.2448 2.22131 21.5941 2.3886 21.0147 2.70761C20.4353 3.02661 19.946 3.48698 19.5923 4.04589C19.2385 4.60479 19.0319 5.24408 18.9916 5.90427C18.9513 6.56447 19.0787 7.22414 19.3618 7.82191C19.5085 8.1317 19.4864 8.49507 19.303 8.78473C19.1197 9.07438 18.8008 9.24996 18.458 9.24995L10.25 9.24986C10.1967 9.24986 10.1438 9.26037 10.0945 9.28078C10.0452 9.3012 10.0005 9.33112 9.96274 9.36885C9.92501 9.40657 9.89509 9.45136 9.87467 9.50065C9.85426 9.54993 9.84375 9.60276 9.84375 9.65611L9.84384 17.161C9.84384 17.5038 9.66827 17.8227 9.37861 18.006C9.08896 18.1894 8.72559 18.2115 8.4158 18.0648C7.81802 17.7817 7.15836 17.6544 6.49816 17.6946C5.83795 17.7349 5.19867 17.9415 4.63976 18.2953C4.08086 18.649 3.62049 19.1383 3.30148 19.7177C2.98247 20.2971 2.81519 20.9478 2.81519 21.6092C2.81519 22.2707 2.98247 22.9213 3.30148 23.5008C3.62049 24.0802 4.08086 24.5695 4.63976 24.9232C5.19867 25.2769 5.83796 25.4835 6.49816 25.5238C7.15836 25.5641 7.81802 25.4368 8.4158 25.1537C8.72559 25.0069 9.08896 25.0291 9.37861 25.2124C9.66827 25.3957 9.84384 25.7146 9.84384 26.0574L9.84375 33.5624C9.84375 33.6157 9.85425 33.6685 9.87467 33.7178C9.89509 33.7671 9.92501 33.8119 9.96273 33.8496C10.0005 33.8873 10.0452 33.9173 10.0945 33.9377C10.1438 33.9581 10.1967 33.9686 10.25 33.9686H35.5624C35.6702 33.9686 35.7735 33.9258 35.8497 33.8496C35.9259 33.7734 35.9687 33.6701 35.9687 33.5624L35.9688 27.4268C35.4873 27.5184 34.9944 27.5502 34.5013 27.5201C33.5044 27.4593 32.5391 27.1473 31.6952 26.6132C30.8512 26.0791 30.1561 25.3403 29.6744 24.4654C29.1927 23.5905 28.9401 22.608 28.9401 21.6092C28.9401 20.6105 29.1927 19.628 29.6744 18.7531C30.1561 17.8782 30.8512 17.1394 31.6952 16.6053C32.5391 16.0712 33.5044 15.7592 34.5013 15.6984C34.9944 15.6683 35.4873 15.7001 35.9688 15.7917L35.9687 9.6561C35.9687 9.54836 35.9259 9.44503 35.8497 9.36884C35.7735 9.29266 35.6702 9.24986 35.5624 9.24986L27.3544 9.24995C27.0116 9.24996 26.6927 9.07438 26.5094 8.78473C26.3261 8.49507 26.3039 8.1317 26.4506 7.82191C26.7338 7.22414 26.8611 6.56447 26.8208 5.90427C26.7805 5.24408 26.5739 4.60479 26.2202 4.04589C25.8665 3.48698 25.3772 3.02661 24.7977 2.70761C24.2183 2.3886 23.5676 2.22131 22.9062 2.22131ZM20.0501 0.955596C20.925 0.473906 21.9075 0.221313 22.9062 0.221313C23.9049 0.221313 24.8875 0.473906 25.7624 0.955596C26.6372 1.43729 27.3761 2.13242 27.9102 2.97635C28.4443 3.82027 28.7562 4.78557 28.8171 5.78244C28.8472 6.27554 28.8153 6.76844 28.7237 7.24994L35.5624 7.24986C36.2006 7.24985 36.8126 7.50336 37.2639 7.95461C37.7151 8.40587 37.9687 9.0179 37.9687 9.65608L37.9688 17.161C37.9688 17.5038 37.7932 17.8227 37.5035 18.006C37.2139 18.1894 36.8505 18.2115 36.5407 18.0648C35.943 17.7817 35.2833 17.6544 34.6231 17.6946C33.9629 17.7349 33.3236 17.9415 32.7647 18.2953C32.2058 18.649 31.7454 19.1383 31.4264 19.7177C31.1074 20.2971 30.9401 20.9478 30.9401 21.6092C30.9401 22.2707 31.1074 22.9213 31.4264 23.5008C31.7454 24.0802 32.2058 24.5695 32.7647 24.9232C33.3236 25.2769 33.9629 25.4835 34.6231 25.5238C35.2833 25.5641 35.943 25.4368 36.5407 25.1537C36.8505 25.0069 37.2139 25.0291 37.5035 25.2124C37.7932 25.3957 37.9688 25.7146 37.9688 26.0574L37.9687 33.5624C37.9687 34.2006 37.7152 34.8126 37.2639 35.2638C36.8126 35.7151 36.2006 35.9686 35.5624 35.9686H10.25C9.934 35.9686 9.6211 35.9064 9.32916 35.7854C9.03722 35.6645 8.77196 35.4873 8.54851 35.2638C8.32507 35.0404 8.14783 34.7751 8.0269 34.4832C7.90598 34.1912 7.84374 33.8783 7.84375 33.5623L7.84382 27.4268C7.36233 27.5184 6.86943 27.5502 6.37632 27.5201C5.37945 27.4593 4.41415 27.1473 3.57023 26.6132C2.7263 26.0791 2.03116 25.3403 1.54947 24.4654C1.06778 23.5905 0.815186 22.608 0.815186 21.6092C0.815186 20.6105 1.06778 19.628 1.54947 18.7531C2.03116 17.8782 2.7263 17.1394 3.57023 16.6053C4.41415 16.0712 5.37945 15.7592 6.37632 15.6984C6.86943 15.6683 7.36233 15.7001 7.84382 15.7917L7.84375 9.65614C7.84375 9.34014 7.90598 9.02724 8.02691 8.73529C8.14784 8.44334 8.32508 8.17808 8.54853 7.95463C8.77197 7.73119 9.03724 7.55394 9.32919 7.43302C9.62113 7.31209 9.93404 7.24985 10.25 7.24986L17.0887 7.24994C16.9971 6.76844 16.9653 6.27554 16.9954 5.78244C17.0562 4.78557 17.3682 3.82027 17.9023 2.97635C18.4363 2.13242 19.1752 1.43728 20.0501 0.955596Z" fill="#D8261E"/>
</svg>
