<svg width="39" height="33" viewBox="0 0 39 33" fill="none" xmlns="http://www.w3.org/2000/svg">
<path d="M2.625 16.5H9.65625L12.4688 12.2812L18.0938 20.7188L20.9062 16.5H25.125" stroke="#D8261E" stroke-width="2" stroke-linecap="round" stroke-linejoin="round"/>
<path d="M1.9458 9.50529C2.09606 7.45532 2.93274 5.51579 4.32078 3.99978C5.70883 2.48377 7.56724 1.47973 9.59605 1.14973C11.6249 0.819738 13.7057 1.18304 15.5026 2.181C17.2996 3.17895 18.7078 4.75333 19.5 6.65L19.5 6.65002C20.3142 4.70056 21.7784 3.09326 23.6438 2.10139C25.5091 1.10951 27.6604 0.79429 29.7319 1.20931C31.8034 1.62433 33.6672 2.74398 35.0065 4.37789C36.3457 6.01181 37.0778 8.05913 37.0781 10.1718C37.0781 22.1249 19.5 31.9687 19.5 31.9687C19.5 31.9687 13.5774 28.652 8.60785 23.5314" stroke="#D8261E" stroke-width="2" stroke-linecap="round" stroke-linejoin="round"/>
</svg>
