<svg width="40" height="29" viewBox="0 0 40 29" fill="none" xmlns="http://www.w3.org/2000/svg">
<path fill-rule="evenodd" clip-rule="evenodd" d="M31.6406 4.65625C31.6406 3.65523 30.8291 2.84375 29.8281 2.84375L3.81251 2.84375C2.81149 2.84375 2.00001 3.65523 2.00001 4.65625V24.3438C2.00001 25.3448 2.81149 26.1563 3.81251 26.1563L29.8281 26.1562C30.8291 26.1562 31.6406 25.3448 31.6406 24.3438V4.65625ZM29.8281 0.84375C31.9337 0.84375 33.6406 2.55066 33.6406 4.65625V24.3438C33.6406 26.4493 31.9337 28.1562 29.8281 28.1562L3.81251 28.1563C1.70692 28.1563 1.14441e-05 26.4493 1.14441e-05 24.3438V4.65625C1.14441e-05 2.55066 1.70692 0.84375 3.81251 0.84375L29.8281 0.84375Z" fill="#D8261E"/>
<path fill-rule="evenodd" clip-rule="evenodd" d="M7.32812 7.17188C7.88041 7.17188 8.32812 7.61959 8.32812 8.17188V20.8281C8.32812 21.3804 7.88041 21.8281 7.32812 21.8281C6.77584 21.8281 6.32812 21.3804 6.32812 20.8281V8.17188C6.32812 7.61959 6.77584 7.17188 7.32812 7.17188Z" fill="#D8261E"/>
<path fill-rule="evenodd" clip-rule="evenodd" d="M13.6562 7.17188C14.2085 7.17188 14.6562 7.61959 14.6562 8.17188V20.8281C14.6562 21.3804 14.2085 21.8281 13.6562 21.8281C13.104 21.8281 12.6562 21.3804 12.6562 20.8281V8.17188C12.6562 7.61959 13.104 7.17188 13.6562 7.17188Z" fill="#D8261E"/>
<path fill-rule="evenodd" clip-rule="evenodd" d="M19.9844 7.17188C20.5367 7.17188 20.9844 7.61959 20.9844 8.17188V20.8281C20.9844 21.3804 20.5367 21.8281 19.9844 21.8281C19.4321 21.8281 18.9844 21.3804 18.9844 20.8281V8.17188C18.9844 7.61959 19.4321 7.17188 19.9844 7.17188Z" fill="#D8261E"/>
<path fill-rule="evenodd" clip-rule="evenodd" d="M26.3125 7.17188C26.8648 7.17188 27.3125 7.61959 27.3125 8.17188V20.8281C27.3125 21.3804 26.8648 21.8281 26.3125 21.8281C25.7602 21.8281 25.3125 21.3804 25.3125 20.8281V8.17188C25.3125 7.61959 25.7602 7.17188 26.3125 7.17188Z" fill="#D8261E"/>
<path fill-rule="evenodd" clip-rule="evenodd" d="M38.9688 7.875C39.521 7.875 39.9688 8.32272 39.9688 8.875V20.125C39.9688 20.6773 39.521 21.125 38.9688 21.125C38.4165 21.125 37.9688 20.6773 37.9688 20.125V8.875C37.9688 8.32272 38.4165 7.875 38.9688 7.875Z" fill="#D8261E"/>
</svg>
