<svg width="20" height="20" viewBox="0 0 20 20" fill="none" xmlns="http://www.w3.org/2000/svg">
    <path d="M6.03089 10.189C6.84127 11.8458 8.18424 13.1826 9.84469 13.9855C9.96618 14.043 10.1006 14.068 10.2346 14.0578C10.3687 14.0477 10.4978 14.0028 10.6092 13.9276L13.0541 12.2973C13.1622 12.2252 13.2866 12.1812 13.4161 12.1693C13.5455 12.1574 13.6758 12.178 13.7953 12.2292L18.3692 14.1895C18.5246 14.2555 18.6543 14.3702 18.7388 14.5163C18.8233 14.6625 18.8581 14.8321 18.8378 14.9997C18.6932 16.1309 18.1413 17.1707 17.2853 17.9243C16.4293 18.6779 15.328 19.0937 14.1875 19.0937C10.6651 19.0937 7.28696 17.6945 4.79624 15.2038C2.30552 12.713 0.90625 9.3349 0.90625 5.81249C0.90631 4.67203 1.32206 3.5707 2.07567 2.71471C2.82927 1.85872 3.86904 1.30677 5.00029 1.1622C5.16788 1.14191 5.33753 1.17665 5.48366 1.26116C5.6298 1.34568 5.74451 1.4754 5.81052 1.63077L7.77248 6.20869C7.82323 6.3271 7.84391 6.45623 7.83267 6.58456C7.82144 6.7129 7.77864 6.83647 7.70809 6.94426L6.08345 9.42666C6.0095 9.53833 5.96579 9.66727 5.95658 9.80088C5.94736 9.9345 5.97297 10.0682 6.03089 10.189Z"
          stroke="#D8261E" stroke-width="1.5" stroke-linecap="round" stroke-linejoin="round"/>
</svg>
