<svg width="25" height="25" viewBox="0 0 25 25" fill="none" xmlns="http://www.w3.org/2000/svg">
<path fill-rule="evenodd" clip-rule="evenodd" d="M1.24602 23.754C0.855492 23.3635 0.855492 22.7303 1.24602 22.3398L22.3398 1.24602C22.7303 0.855494 23.3635 0.855493 23.754 1.24602C24.1445 1.63654 24.1445 2.26971 23.754 2.66023L2.66023 23.754C2.26971 24.1445 1.63654 24.1445 1.24602 23.754Z" fill="black"/>
<path fill-rule="evenodd" clip-rule="evenodd" d="M1.24602 1.24602C1.63654 0.855494 2.26971 0.855494 2.66023 1.24602L23.754 22.3398C24.1445 22.7303 24.1445 23.3635 23.754 23.754C23.3635 24.1445 22.7303 24.1445 22.3398 23.754L1.24602 2.66023C0.855492 2.26971 0.855492 1.63654 1.24602 1.24602Z" fill="black"/>
</svg>
