<svg width="33" height="35" viewBox="0 0 33 35" fill="none" xmlns="http://www.w3.org/2000/svg">
<path fill-rule="evenodd" clip-rule="evenodd" d="M2.4375 2.03125C2.32976 2.03125 2.22643 2.07405 2.15024 2.15024C2.07405 2.22643 2.03125 2.32976 2.03125 2.4375V12.75C2.03125 26.8044 13.9335 31.4796 16.3829 32.2917L16.3937 32.2953L16.3937 32.2954C16.4626 32.3191 16.5374 32.3191 16.6063 32.2954L16.617 32.2917L16.6171 32.2917C19.0665 31.4796 30.9688 26.8044 30.9688 12.75V2.4375C30.9688 2.32975 30.9259 2.22642 30.8498 2.15024C30.7736 2.07405 30.6702 2.03125 30.5625 2.03125H2.4375ZM0.736025 0.736025C1.18728 0.284766 1.79932 0.03125 2.4375 0.03125H30.5625C31.2007 0.03125 31.8127 0.284765 32.264 0.736025C32.7152 1.18729 32.9688 1.79932 32.9688 2.4375V12.75C32.9688 28.2223 19.8193 33.3361 17.2514 34.1885C16.7651 34.3544 16.2375 34.3547 15.7511 34.1893C13.189 33.3394 0.03125 28.2272 0.03125 12.75V2.4375C0.03125 1.79932 0.284766 1.18728 0.736025 0.736025Z" fill="#D8261E"/>
<path fill-rule="evenodd" clip-rule="evenodd" d="M24.9577 10.1845C25.3391 10.584 25.3244 11.217 24.9249 11.5984L14.6123 21.4421C14.2259 21.811 13.6178 21.811 13.2313 21.4421L8.07515 16.5202C7.67565 16.1389 7.66093 15.5059 8.04228 15.1064C8.42362 14.7069 9.05661 14.6922 9.45611 15.0735L13.9218 19.3363L23.5439 10.1516C23.9434 9.77031 24.5764 9.78503 24.9577 10.1845Z" fill="#D8261E"/>
</svg>
