<svg width="39" height="36" viewBox="0 0 39 36" fill="none" xmlns="http://www.w3.org/2000/svg">
<path fill-rule="evenodd" clip-rule="evenodd" d="M26.8495 13.3641C26.459 12.9735 25.8258 12.9735 25.4353 13.3641L19.0714 19.728L16.2429 16.8996C15.8524 16.5091 15.2192 16.5091 14.8287 16.8996C14.4382 17.2901 14.4382 17.9233 14.8287 18.3138L18.3643 21.8493C18.7548 22.2399 19.3879 22.2399 19.7785 21.8493L26.8495 14.7783C27.2401 14.3877 27.2401 13.7546 26.8495 13.3641Z" fill="#D8261E"/>
<path fill-rule="evenodd" clip-rule="evenodd" d="M19.5 5.03125C11.5091 5.03125 5.03125 11.5091 5.03125 19.5C5.03125 27.4909 11.5091 33.9688 19.5 33.9688C27.4909 33.9688 33.9688 27.4909 33.9688 19.5C33.9688 11.5091 27.4909 5.03125 19.5 5.03125ZM3.03125 19.5C3.03125 10.4046 10.4046 3.03125 19.5 3.03125C28.5954 3.03125 35.9688 10.4046 35.9688 19.5C35.9688 28.5954 28.5954 35.9688 19.5 35.9688C10.4046 35.9688 3.03125 28.5954 3.03125 19.5Z" fill="#D8261E"/>
<path fill-rule="evenodd" clip-rule="evenodd" d="M30.725 0.894318C31.1155 0.503794 31.7487 0.503794 32.1392 0.894318L38.1054 6.86051C38.496 7.25103 38.496 7.8842 38.1054 8.27472C37.7149 8.66525 37.0817 8.66525 36.6912 8.27472L30.725 2.30853C30.3345 1.91801 30.3345 1.28484 30.725 0.894318Z" fill="#D8261E"/>
<path fill-rule="evenodd" clip-rule="evenodd" d="M8.27486 0.894318C8.66538 1.28484 8.66538 1.91801 8.27486 2.30853L2.30867 8.27472C1.91815 8.66525 1.28498 8.66525 0.894456 8.27472C0.503931 7.8842 0.503931 7.25103 0.894456 6.86051L6.86065 0.894318C7.25117 0.503794 7.88434 0.503794 8.27486 0.894318Z" fill="#D8261E"/>
</svg>
