<svg width="29" height="43" viewBox="0 0 29 43" fill="none" xmlns="http://www.w3.org/2000/svg">
<path fill-rule="evenodd" clip-rule="evenodd" d="M14.5 9.84375C8.06243 9.84375 2.84375 15.0624 2.84375 21.5C2.84375 27.9376 8.06243 33.1562 14.5 33.1562C20.9376 33.1562 26.1562 27.9376 26.1562 21.5C26.1562 15.0624 20.9376 9.84375 14.5 9.84375ZM0.84375 21.5C0.84375 13.9579 6.95786 7.84375 14.5 7.84375C22.0421 7.84375 28.1562 13.9579 28.1562 21.5C28.1562 29.0421 22.0421 35.1562 14.5 35.1562C6.95786 35.1562 0.84375 29.0421 0.84375 21.5Z" fill="#D8261E"/>
<path fill-rule="evenodd" clip-rule="evenodd" d="M14.5 14.875C15.0523 14.875 15.5 15.3227 15.5 15.875V20.5H20.125C20.6773 20.5 21.125 20.9477 21.125 21.5C21.125 22.0523 20.6773 22.5 20.125 22.5H14.5C13.9477 22.5 13.5 22.0523 13.5 21.5V15.875C13.5 15.3227 13.9477 14.875 14.5 14.875Z" fill="#D8261E"/>
<path fill-rule="evenodd" clip-rule="evenodd" d="M10.0818 2.8125C9.98473 2.8125 9.89087 2.84725 9.81722 2.91047C9.74356 2.97368 9.69497 3.06118 9.68025 3.15712L8.45707 11.1273C8.3733 11.6732 7.86285 12.0478 7.31695 11.964C6.77106 11.8802 6.39644 11.3698 6.48022 10.8239L7.70339 2.85374C7.7906 2.28547 8.0784 1.76721 8.51467 1.39278C8.95095 1.01835 9.50687 0.8125 10.0818 0.8125H18.918C19.4929 0.812499 20.0488 1.01835 20.4851 1.39278C20.9214 1.76721 21.2092 2.28547 21.2964 2.85374L22.5196 10.8239C22.6034 11.3698 22.2287 11.8803 21.6828 11.9641C21.1369 12.0478 20.6265 11.6732 20.5427 11.1273L19.3195 3.15713C19.3048 3.06118 19.2562 2.97368 19.1826 2.91047C19.1089 2.84725 19.0151 2.8125 18.918 2.8125H10.0818ZM21.6828 31.0359C22.2287 31.1197 22.6034 31.6302 22.5196 32.1761L21.2964 40.1463C21.2092 40.7145 20.9214 41.2328 20.4851 41.6072C20.0488 41.9817 19.4929 42.1875 18.918 42.1875H10.0818C9.50688 42.1875 8.95095 41.9817 8.51467 41.6072C8.0784 41.2328 7.7906 40.7145 7.70339 40.1463L6.48022 32.1761C6.39644 31.6302 6.77106 31.1198 7.31695 31.036C7.86285 30.9522 8.3733 31.3268 8.45707 31.8727L9.68025 39.8429C9.69497 39.9388 9.74356 40.0263 9.81722 40.0895C9.89087 40.1527 9.98473 40.1875 10.0818 40.1875H18.918C19.0151 40.1875 19.1089 40.1527 19.1826 40.0895C19.2562 40.0263 19.3048 39.9388 19.3195 39.8429L20.5427 31.8727C20.6265 31.3268 21.1369 30.9522 21.6828 31.0359Z" fill="#D8261E"/>
</svg>
