<svg width="21" height="21" viewBox="0 0 21 21" fill="none" xmlns="http://www.w3.org/2000/svg">
<path fill-rule="evenodd" clip-rule="evenodd" d="M10.5 8.17969C9.21853 8.17969 8.17969 9.21853 8.17969 10.5C8.17969 11.7815 9.21853 12.8203 10.5 12.8203C11.7815 12.8203 12.8203 11.7815 12.8203 10.5C12.8203 9.21853 11.7815 8.17969 10.5 8.17969ZM6.17969 10.5C6.17969 8.11396 8.11396 6.17969 10.5 6.17969C12.886 6.17969 14.8203 8.11396 14.8203 10.5C14.8203 12.886 12.886 14.8203 10.5 14.8203C8.11396 14.8203 6.17969 12.886 6.17969 10.5Z" fill="white"/>
<path fill-rule="evenodd" clip-rule="evenodd" d="M5.8125 2.125C3.77595 2.125 2.125 3.77595 2.125 5.8125V15.1875C2.125 17.2241 3.77595 18.875 5.8125 18.875H15.1875C17.2241 18.875 18.875 17.2241 18.875 15.1875V5.8125C18.875 3.77595 17.2241 2.125 15.1875 2.125H5.8125ZM0.125 5.8125C0.125 2.67138 2.67138 0.125 5.8125 0.125H15.1875C18.3286 0.125 20.875 2.67138 20.875 5.8125V15.1875C20.875 18.3286 18.3286 20.875 15.1875 20.875H5.8125C2.67138 20.875 0.125 18.3286 0.125 15.1875V5.8125Z" fill="white"/>
<path d="M15.2656 6.35938C15.956 6.35938 16.5156 5.79973 16.5156 5.10938C16.5156 4.41902 15.956 3.85938 15.2656 3.85938C14.5753 3.85938 14.0156 4.41902 14.0156 5.10938C14.0156 5.79973 14.5753 6.35938 15.2656 6.35938Z" fill="white"/>
</svg>
