<svg width="21" height="17" viewBox="0 0 21 17" fill="none" xmlns="http://www.w3.org/2000/svg">
<path fill-rule="evenodd" clip-rule="evenodd" d="M0.375 1.46875C0.375 1.05454 0.710786 0.71875 1.125 0.71875H19.875C20.2892 0.71875 20.625 1.05454 20.625 1.46875V14.75C20.625 15.1561 20.4637 15.5456 20.1765 15.8328C19.8893 16.1199 19.4999 16.2812 19.0938 16.2812H1.90625C1.50014 16.2812 1.11066 16.1199 0.823493 15.8328C0.536328 15.5456 0.375 15.1561 0.375 14.75V1.46875ZM1.875 2.21875V14.75C1.875 14.7583 1.87829 14.7662 1.88415 14.7721C1.89001 14.778 1.89796 14.7812 1.90625 14.7812H19.0938C19.102 14.7812 19.11 14.778 19.1158 14.7721C19.1217 14.7662 19.125 14.7583 19.125 14.75V2.21875H1.875Z" fill="#D8261E"/>
<path fill-rule="evenodd" clip-rule="evenodd" d="M0.572139 0.961961C0.852033 0.656622 1.32646 0.635995 1.6318 0.915889L10.5 9.04508L19.3682 0.915889C19.6735 0.635995 20.148 0.656622 20.4279 0.961961C20.7078 1.2673 20.6871 1.74173 20.3818 2.02162L11.0068 10.6154C10.7201 10.8782 10.28 10.8782 9.99321 10.6154L0.618211 2.02162C0.312872 1.74173 0.292245 1.2673 0.572139 0.961961Z" fill="#D8261E"/>
</svg>
