<svg width="20" height="19" viewBox="0 0 20 19" fill="none" xmlns="http://www.w3.org/2000/svg">
    <path d="M5.01514 6.73789H1.10889V2.83163" stroke="#fff" stroke-width="1.5" stroke-linecap="round"
          stroke-linejoin="round"/>
    <path fill-rule="evenodd" clip-rule="evenodd"
          d="M8.67727 0.335807C10.4898 -0.0247236 12.3685 0.160314 14.0758 0.86752C15.7832 1.57473 17.2425 2.77234 18.2692 4.30891C19.2959 5.84548 19.8439 7.652 19.8439 9.50002C19.8439 11.348 19.2959 13.1546 18.2692 14.6911C17.2425 16.2277 15.7832 17.4253 14.0758 18.1325C12.3685 18.8397 10.4898 19.0248 8.67727 18.6642C6.86476 18.3037 5.19987 17.4138 3.89312 16.107C3.60023 15.8142 3.60023 15.3393 3.89312 15.0464C4.18601 14.7535 4.66089 14.7535 4.95378 15.0464C6.05075 16.1434 7.44837 16.8904 8.96991 17.1931C10.4914 17.4957 12.0686 17.3404 13.5018 16.7467C14.9351 16.153 16.1601 15.1477 17.022 13.8578C17.8839 12.5679 18.3439 11.0514 18.3439 9.50002C18.3439 7.94867 17.8839 6.43216 17.022 5.14227C16.1601 3.85237 14.9351 2.84701 13.5018 2.25334C12.0686 1.65966 10.4914 1.50433 8.96991 1.80698C7.44837 2.10964 6.05075 2.85668 4.95378 3.95365L1.63922 7.26821C1.34632 7.56111 0.87145 7.56111 0.578557 7.26821C0.285663 6.97532 0.285663 6.50045 0.578557 6.20755L3.89312 2.89299C5.19987 1.58624 6.86476 0.696338 8.67727 0.335807Z"
          fill="#fff"/>
</svg>
