<svg width="37" height="37" viewBox="0 0 37 37" fill="none" xmlns="http://www.w3.org/2000/svg">
<path fill-rule="evenodd" clip-rule="evenodd" d="M18.5 2.625C9.73248 2.625 2.625 9.73248 2.625 18.5C2.625 27.2675 9.73248 34.375 18.5 34.375C27.2675 34.375 34.375 27.2675 34.375 18.5C34.375 9.73248 27.2675 2.625 18.5 2.625ZM0.625 18.5C0.625 8.62791 8.62791 0.625 18.5 0.625C28.3721 0.625 36.375 8.62791 36.375 18.5C36.375 28.3721 28.3721 36.375 18.5 36.375C8.62791 36.375 0.625 28.3721 0.625 18.5Z" fill="#219653"/>
<path fill-rule="evenodd" clip-rule="evenodd" d="M26.3092 21.8523C26.7873 22.1288 26.9508 22.7405 26.6744 23.2186C25.8452 24.6526 24.6535 25.8434 23.2187 26.6712C21.7838 27.499 20.1565 27.9348 18.5 27.9348C16.8435 27.9348 15.2162 27.499 13.7814 26.6712C12.3466 25.8435 11.1548 24.6528 10.3256 23.2187C10.0492 22.7406 10.2127 22.1289 10.6908 21.8525C11.1689 21.576 11.7806 21.7395 12.057 22.2176C12.7106 23.3479 13.6499 24.2864 14.7808 24.9389C15.9117 25.5913 17.1944 25.9348 18.5 25.9348C19.8056 25.9348 21.0883 25.5913 22.2192 24.9388C23.3501 24.2863 24.2894 23.3478 24.9429 22.2175C25.2193 21.7394 25.831 21.5759 26.3092 21.8523Z" fill="#219653"/>
<path d="M12.1719 17.7969C13.7252 17.7969 14.9844 16.5377 14.9844 14.9844C14.9844 13.4311 13.7252 12.1719 12.1719 12.1719C10.6186 12.1719 9.35938 13.4311 9.35938 14.9844C9.35938 16.5377 10.6186 17.7969 12.1719 17.7969Z" fill="#219653"/>
<path d="M24.8281 17.7969C26.3814 17.7969 27.6406 16.5377 27.6406 14.9844C27.6406 13.4311 26.3814 12.1719 24.8281 12.1719C23.2748 12.1719 22.0156 13.4311 22.0156 14.9844C22.0156 16.5377 23.2748 17.7969 24.8281 17.7969Z" fill="#219653"/>
</svg>
