<svg width="68" height="54" viewBox="0 0 68 54" fill="none" xmlns="http://www.w3.org/2000/svg">
<path d="M49.3362 37.018C47.9462 37.018 46.3583 37.421 45.0679 38.3266C44.6709 38.6277 43.7774 39.231 43.5783 39.4326C41.296 41.2438 38.516 42.3498 35.339 42.3498H32.559C29.4816 42.3498 26.6032 41.2438 24.3197 39.4326C24.1218 39.231 23.2271 38.6277 22.8314 38.3266C21.5409 37.421 20.0513 37.018 18.563 37.018C14.0955 37.018 10.5216 40.6405 10.5216 45.1662C10.5216 49.6944 14.0955 53.3145 18.5618 53.3145C19.9518 53.3145 21.5409 52.9126 22.8314 52.007C23.2283 51.7047 24.1218 51.1014 24.3197 50.8998C26.6032 49.0898 29.382 47.9827 32.559 47.9827H35.339C38.4165 47.9827 41.2948 49.0898 43.5783 50.8998C43.7774 51.1014 44.6709 51.7047 45.0679 52.007C46.3583 52.9126 47.8479 53.3145 49.3362 53.3145C53.8037 53.3145 57.3777 49.6932 57.3777 45.1662C57.3777 40.74 53.8037 37.018 49.3362 37.018ZM49.3362 0C47.9462 0 46.3571 0.401828 45.0667 1.30746C44.6697 1.60974 43.7762 2.21309 43.5783 2.41461C41.2948 4.22466 38.516 5.33181 35.339 5.33181H32.559C29.4816 5.33181 26.6032 4.22466 24.3197 2.41461C24.1206 2.21309 23.2271 1.60974 22.8301 1.30746C21.6392 0.401828 20.1497 0 18.7609 0C14.2934 0 10.7195 3.62131 10.7195 8.14825C10.7195 12.6752 14.2934 16.2965 18.7609 16.2965C20.1497 16.2965 21.7388 15.8935 23.0292 14.989C23.4262 14.6855 24.3197 14.0834 24.5176 13.8819C26.8011 12.0706 29.5799 10.9647 32.7581 10.9647H35.5381C38.6143 10.9647 41.4927 12.0718 43.7762 13.8819C43.9753 14.0834 44.8688 14.6868 45.2658 14.989C46.5562 15.8935 48.0458 16.2965 49.5341 16.2965C54.0016 16.2965 57.5755 12.6752 57.5755 8.14825C57.3764 3.62131 53.8025 0 49.3362 0ZM59.9598 18.5096C58.5698 18.5096 56.9807 18.9114 55.6902 19.817C55.2932 20.1193 54.3998 20.7227 54.2019 20.923C51.9184 22.7342 49.1396 23.8414 45.9626 23.8414H22.0374C18.9612 23.8414 16.0816 22.7342 13.7981 20.923C13.6002 20.7227 12.7055 20.1193 12.3098 19.817C11.0193 18.9114 9.52976 18.5096 8.04142 18.5096C3.57396 18.5096 0 22.1309 0 26.6578C0 31.1848 3.57396 34.8061 8.04142 34.8061C9.43021 34.8061 11.0193 34.403 12.3098 33.4974C12.7068 33.1963 13.6002 32.593 13.7981 32.3915C16.0816 30.5802 18.8604 29.4743 22.0374 29.4743H45.9626C49.04 29.4743 51.9184 30.5802 54.2019 32.3915C54.3998 32.593 58.4702 34.8061 59.9586 34.8061C64.426 34.8061 68 31.1848 68 26.6578C68 22.2317 64.426 18.5096 59.9598 18.5096Z" fill="#2D5EFF"/>
</svg>
