<svg width="527" height="413" viewBox="0 0 527 413" fill="none" xmlns="http://www.w3.org/2000/svg">
<path d="M382.183 286.759C371.415 286.759 359.115 289.881 349.118 296.897C346.043 299.229 339.122 303.903 337.579 305.464C319.9 319.495 298.364 328.062 273.754 328.062H252.218C228.379 328.062 206.082 319.495 188.393 305.464C186.86 303.903 179.929 299.229 176.863 296.897C166.867 289.881 155.328 286.759 143.798 286.759C109.191 286.759 81.5054 314.821 81.5054 349.88C81.5054 384.957 109.191 413 143.789 413C154.557 413 166.867 409.887 176.863 402.872C179.938 400.53 186.86 395.856 188.393 394.295C206.082 380.274 227.608 371.697 252.218 371.697H273.754C297.593 371.697 319.89 380.274 337.579 394.295C339.122 395.856 346.043 400.53 349.118 402.872C359.115 409.887 370.654 413 382.183 413C416.79 413 444.476 384.948 444.476 349.88C444.476 315.592 416.79 286.759 382.183 286.759Z" fill="url(#paint0_linear)"/>
<path d="M464.479 143.384C453.711 143.384 441.401 146.497 431.404 153.512C428.329 155.854 421.408 160.528 419.875 162.079C402.186 176.11 380.66 184.687 356.049 184.687H170.713C146.883 184.687 124.576 176.11 106.887 162.079C105.354 160.528 98.4235 155.854 95.3577 153.512C85.3612 146.497 73.8223 143.384 62.2929 143.384C27.6857 143.384 0 171.436 0 206.504C0 241.572 27.6857 269.625 62.2929 269.625C73.0512 269.625 85.3612 266.502 95.3577 259.487C98.4329 257.155 105.354 252.481 106.887 250.92C124.576 236.889 146.102 228.322 170.713 228.322H356.049C379.889 228.322 402.186 236.889 419.875 250.92C421.408 252.481 452.94 269.625 464.469 269.625C499.076 269.625 526.762 241.572 526.762 206.504C526.762 172.217 499.077 143.384 464.479 143.384Z" fill="url(#paint1_linear)"/>
<path d="M382.183 0C371.416 0 359.106 3.11276 349.109 10.1282C346.034 12.4699 339.112 17.1437 337.58 18.7048C319.89 32.7263 298.364 41.3029 273.754 41.3029H252.218C228.379 41.3029 206.082 32.7263 188.393 18.7048C186.85 17.1437 179.929 12.4699 176.854 10.1282C167.628 3.11276 156.09 0 145.331 0C110.724 0 83.0383 28.0525 83.0383 63.1204C83.0383 98.1884 110.724 126.241 145.331 126.241C156.09 126.241 168.4 123.119 178.396 116.113C181.471 113.762 188.393 109.097 189.926 107.536C207.615 93.5051 229.141 84.938 253.761 84.938H275.296C299.126 84.938 321.423 93.5145 339.112 107.536C340.655 109.097 347.576 113.771 350.651 116.113C360.648 123.119 372.187 126.241 383.716 126.241C418.323 126.241 446.009 98.1884 446.009 63.1204C444.467 28.0525 416.781 0 382.183 0Z" fill="url(#paint2_linear)"/>
<defs>
<linearGradient id="paint0_linear" x1="262.991" y1="286.759" x2="262.991" y2="413" gradientUnits="userSpaceOnUse">
<stop stop-color="#78CAF7"/>
<stop offset="0.5" stop-color="#5192FB"/>
<stop offset="1" stop-color="#2D5FFF"/>
</linearGradient>
<linearGradient id="paint1_linear" x1="263.381" y1="143.384" x2="263.381" y2="269.625" gradientUnits="userSpaceOnUse">
<stop stop-color="#78CAF7"/>
<stop offset="0.5" stop-color="#5192FB"/>
<stop offset="1" stop-color="#2D5FFF"/>
</linearGradient>
<linearGradient id="paint2_linear" x1="264.524" y1="0" x2="264.524" y2="126.241" gradientUnits="userSpaceOnUse">
<stop stop-color="#78CAF7"/>
<stop offset="0.5" stop-color="#5192FB"/>
<stop offset="1" stop-color="#2D5FFF"/>
</linearGradient>
</defs>
</svg>
