<svg width="180" height="44" viewBox="0 0 180 44" fill="none" xmlns="http://www.w3.org/2000/svg">
<path d="M40.64 30.493C39.495 30.493 38.187 30.825 37.124 31.571C36.797 31.819 36.061 32.316 35.897 32.482C34.017 33.974 31.727 34.885 29.11 34.885H26.82C24.285 34.885 21.914 33.974 20.033 32.482C19.87 32.316 19.133 31.819 18.807 31.571C17.744 30.825 16.517 30.493 15.291 30.493C11.611 30.493 8.667 33.477 8.667 37.205C8.667 40.935 11.611 43.917 15.29 43.917C16.435 43.917 17.744 43.586 18.807 42.84C19.134 42.591 19.87 42.094 20.033 41.928C21.914 40.437 24.203 39.525 26.82 39.525H29.11C31.645 39.525 34.016 40.437 35.897 41.928C36.061 42.094 36.797 42.591 37.124 42.84C38.187 43.586 39.414 43.917 40.64 43.917C44.32 43.917 47.264 40.934 47.264 37.205C47.264 33.559 44.32 30.493 40.64 30.493ZM40.64 0C39.495 0 38.186 0.331 37.123 1.077C36.796 1.326 36.06 1.823 35.897 1.989C34.016 3.48 31.727 4.392 29.11 4.392H26.82C24.285 4.392 21.914 3.48 20.033 1.989C19.869 1.823 19.133 1.326 18.806 1.077C17.825 0.331 16.598 0 15.454 0C11.774 0 8.83 2.983 8.83 6.712C8.83 10.441 11.774 13.424 15.454 13.424C16.598 13.424 17.907 13.092 18.97 12.347C19.297 12.097 20.033 11.601 20.196 11.435C22.077 9.943 24.366 9.032 26.984 9.032H29.274C31.808 9.032 34.179 9.944 36.06 11.435C36.224 11.601 36.96 12.098 37.287 12.347C38.35 13.092 39.577 13.424 40.803 13.424C44.483 13.424 47.427 10.441 47.427 6.712C47.263 2.983 44.319 0 40.64 0ZM49.391 15.247C48.246 15.247 46.937 15.578 45.874 16.324C45.547 16.573 44.811 17.07 44.648 17.235C42.767 18.727 40.478 19.639 37.861 19.639H18.153C15.619 19.639 13.247 18.727 11.366 17.235C11.203 17.07 10.466 16.573 10.14 16.324C9.077 15.578 7.85 15.247 6.624 15.247C2.944 15.247 0 18.23 0 21.959C0 25.688 2.944 28.671 6.624 28.671C7.768 28.671 9.077 28.339 10.14 27.593C10.467 27.345 11.203 26.848 11.366 26.682C13.247 25.19 15.536 24.279 18.153 24.279H37.861C40.396 24.279 42.767 25.19 44.648 26.682C44.811 26.848 48.164 28.671 49.39 28.671C53.07 28.671 56.014 25.688 56.014 21.959C56.014 18.313 53.07 15.247 49.391 15.247Z" fill="#2D5EFF"/>
<path d="M67.625 13.104V12.11L71.55 2H73.267L77.192 11.944V13.104H75.639L74.576 10.37H70.078L69.015 13.104H67.625ZM72.368 4.404L70.731 8.795H74.084L72.367 4.404H72.368ZM78.091 11.53H78.255C79.155 11.447 79.4 10.95 79.482 9.541L79.564 5.647H84.961V13.021H83.161V7.138H81.035V9.79C80.954 11.696 80.381 13.104 78.665 13.104H78.092V11.53H78.091ZM87.005 5.647H88.804V8.05H90.112C92.156 8.05 93.138 9.127 93.138 10.536C93.138 11.944 92.157 13.104 90.03 13.104H87.005V5.647ZM89.949 11.696C90.849 11.696 91.339 11.364 91.339 10.536C91.339 9.79 90.849 9.458 89.949 9.458H88.804V11.778H89.949V11.696ZM97.717 10.452L95.427 13.104H94.119V12.11L95.919 10.204C94.855 9.872 94.283 9.21 94.283 8.132C94.283 6.807 95.183 5.729 97.308 5.729H100.416V13.104H98.616V10.453H97.717V10.452ZM98.535 9.21V7.055H97.308C96.49 7.055 96 7.387 96 8.215C96 8.961 96.49 9.292 97.308 9.292H98.535V9.21ZM102.296 5.647H104.095V8.547H107.202V5.647H109.001V13.021H107.202V9.955H104.095V13.021H102.296V5.647ZM110.556 9.375C110.556 7.221 111.946 5.481 114.317 5.481C116.689 5.481 117.179 6.972 117.179 6.972V7.967H115.953C115.953 7.967 115.707 6.972 114.317 6.972C112.927 6.972 112.355 8.05 112.355 9.292C112.355 10.618 113.009 11.612 114.317 11.612C115.789 11.612 115.953 10.618 115.953 10.618H117.179V11.613C117.179 11.613 116.607 13.104 114.317 13.104C111.782 13.27 110.556 11.53 110.556 9.375ZM122.412 5.647H125.846C127.4 5.647 128.463 6.31 128.463 7.635C128.463 8.381 128.054 8.878 127.4 9.21C128.3 9.458 128.79 10.121 128.79 10.95C128.79 12.441 127.645 13.187 126.092 13.187H122.494V5.647H122.412ZM125.683 8.547C126.337 8.547 126.664 8.298 126.664 7.718C126.664 7.138 126.255 6.972 125.683 6.972H124.129V8.547H125.683ZM125.765 11.778C126.501 11.778 126.91 11.53 126.91 10.867C126.91 10.287 126.501 9.955 125.765 9.955H124.129V11.778H125.765ZM133.534 9.375C133.534 7.221 134.924 5.481 137.296 5.481C139.667 5.481 140.158 6.972 140.158 6.972V7.967H138.931C138.931 7.967 138.686 6.972 137.296 6.972C135.906 6.972 135.333 8.05 135.333 9.292C135.333 10.618 135.987 11.612 137.296 11.612C138.768 11.612 138.931 10.618 138.931 10.618H140.158V11.613C140.158 11.613 139.585 13.104 137.296 13.104C134.761 13.27 133.534 11.53 133.534 9.375ZM145.227 13.187C142.855 13.104 141.302 11.447 141.302 9.375C141.302 7.304 142.855 5.647 145.227 5.564V2.829H147.026V5.482C149.315 5.565 150.951 7.222 150.951 9.293C150.951 11.448 149.397 13.023 147.026 13.105V16.668H145.227V13.188V13.187ZM145.227 7.138C143.918 7.138 143.101 8.132 143.101 9.375C143.101 10.618 143.918 11.613 145.227 11.613V7.138ZM149.07 9.375C149.07 8.132 148.252 7.138 146.944 7.138V11.696C148.252 11.613 149.07 10.618 149.07 9.376V9.375ZM152.014 9.375C152.014 7.221 153.322 5.481 155.693 5.481C158.065 5.481 159.128 6.89 159.128 8.795C159.128 9.293 159.046 9.707 159.046 9.707H153.813C153.894 10.95 154.63 11.778 155.939 11.778C157.492 11.778 157.819 10.95 157.819 10.95H159.128V11.944C159.128 11.944 158.392 13.27 156.02 13.27C153.322 13.27 152.014 11.613 152.014 9.375ZM157.492 8.547C157.492 7.718 156.92 6.972 155.775 6.972C154.63 6.972 154.058 7.635 153.894 8.547H157.492ZM160.846 5.647H162.481L162.645 6.807C163.135 5.978 164.035 5.481 165.18 5.481C167.306 5.481 168.532 7.221 168.532 9.375C168.532 11.53 167.306 13.27 165.18 13.27C164.035 13.27 163.217 12.773 162.726 12.027V16.833H160.927V5.647H160.846ZM166.651 9.375C166.651 8.132 165.997 7.055 164.607 7.055C163.381 7.055 162.563 8.05 162.563 9.375C162.563 10.701 163.381 11.695 164.607 11.695C165.997 11.695 166.651 10.618 166.651 9.375ZM169.677 9.375C169.677 7.221 170.985 5.481 173.356 5.481C175.728 5.481 176.791 6.89 176.791 8.795C176.791 9.293 176.709 9.707 176.709 9.707H171.394C171.476 10.95 172.212 11.778 173.52 11.778C175.074 11.778 175.401 10.95 175.401 10.95H176.709V11.944C176.709 11.944 175.973 13.27 173.602 13.27C170.985 13.27 169.677 11.613 169.677 9.375ZM175.074 8.547C175.074 7.718 174.501 6.972 173.356 6.972C172.212 6.972 171.639 7.635 171.476 8.547H175.074ZM68.361 19.733H70.159V24.623L73.512 19.733H75.147V27.108H73.348V22.219L69.996 27.108H68.36V19.733H68.361ZM76.783 23.379C76.783 21.225 78.173 19.484 80.545 19.484C82.916 19.484 83.407 20.976 83.407 20.976V21.97H82.18C82.18 21.97 81.935 20.976 80.545 20.976C79.155 20.976 78.582 22.053 78.582 23.296C78.582 24.622 79.236 25.616 80.545 25.616C82.017 25.616 82.18 24.622 82.18 24.622H83.407V25.616C83.407 25.616 82.834 27.108 80.545 27.108C78.01 27.274 76.783 25.533 76.783 23.379ZM85.124 19.733H86.923V22.965L89.949 19.733H91.257V20.728L88.804 23.296L91.502 26.114V27.108H90.031L86.924 23.711V27.108H85.125V19.733H85.124ZM92.974 30.837V29.842L95.019 26.196L92.32 20.81V19.816H93.71L96 24.456L98.29 19.816H99.598V20.81L94.365 30.92H92.975V30.837H92.974ZM100.252 23.379C100.252 21.225 101.642 19.484 104.013 19.484C106.385 19.484 106.875 20.976 106.875 20.976V21.97H105.649C105.649 21.97 105.404 20.976 104.013 20.976C102.623 20.976 102.051 22.053 102.051 23.296C102.051 24.622 102.705 25.616 104.013 25.616C105.485 25.616 105.649 24.622 105.649 24.622H106.875V25.616C106.875 25.616 106.303 27.108 104.013 27.108C101.478 27.274 100.252 25.533 100.252 23.379ZM108.102 23.379C108.102 21.225 109.493 19.484 111.864 19.484C114.235 19.484 114.726 20.976 114.726 20.976V21.97H113.499C113.499 21.97 113.254 20.976 111.864 20.976C110.474 20.976 109.901 22.053 109.901 23.296C109.901 24.622 110.556 25.616 111.864 25.616C113.336 25.616 113.499 24.622 113.499 24.622H114.726V25.616C114.726 25.616 114.154 27.108 111.864 27.108C109.329 27.274 108.102 25.533 108.102 23.379ZM118.079 21.225H115.871V19.732H122.086V21.224H119.878V27.107H118.079V21.224V21.225ZM123.312 19.65H126.747C128.301 19.65 129.364 20.313 129.364 21.639C129.364 22.385 128.955 22.882 128.301 23.213C129.2 23.462 129.691 24.125 129.691 24.953C129.691 26.445 128.546 27.191 126.992 27.191H123.394V19.651H123.312V19.65ZM126.583 22.633C127.238 22.633 127.565 22.385 127.565 21.805C127.565 21.225 127.156 21.059 126.583 21.059H125.03V22.633H126.583ZM126.665 25.783C127.401 25.783 127.81 25.533 127.81 24.871C127.81 24.291 127.401 23.959 126.665 23.959H125.03V25.782H126.665V25.783ZM130.835 23.379C130.835 21.225 132.143 19.484 134.515 19.484C136.886 19.484 137.949 20.894 137.949 22.799C137.949 23.296 137.867 23.711 137.867 23.711H132.552C132.634 24.953 133.37 25.782 134.678 25.782C136.232 25.782 136.559 24.953 136.559 24.953H137.867V25.948C137.867 25.948 137.131 27.274 134.76 27.274C132.143 27.274 130.835 25.616 130.835 23.379ZM136.232 22.55C136.232 21.722 135.659 20.976 134.515 20.976C133.37 20.976 132.797 21.639 132.634 22.55H136.232ZM139.667 19.733H141.466V22.633H144.573V19.733H146.372V27.108H144.573V24.042H141.466V27.108H139.667V19.733ZM148.334 19.733H150.133V22.633H153.24V19.733H155.039V27.108H153.24V24.042H150.133V27.108H148.334V19.733ZM156.594 23.379C156.594 21.225 157.984 19.484 160.355 19.484C162.727 19.484 164.117 21.224 164.117 23.379C164.117 25.533 162.727 27.274 160.355 27.274C157.984 27.274 156.594 25.534 156.594 23.379ZM162.318 23.379C162.318 22.136 161.664 21.059 160.355 21.059C159.047 21.059 158.311 22.136 158.311 23.379C158.311 24.705 158.965 25.699 160.355 25.699C161.745 25.699 162.318 24.705 162.318 23.379ZM165.67 19.733H170.74V21.225H167.469V27.108H165.67V19.733ZM171.558 23.379C171.558 21.225 172.948 19.484 175.319 19.484C177.691 19.484 179.081 21.224 179.081 23.379C179.081 25.533 177.691 27.274 175.319 27.274C172.948 27.274 171.558 25.534 171.558 23.379ZM177.363 23.379C177.363 22.136 176.709 21.059 175.401 21.059C174.093 21.059 173.357 22.136 173.357 23.379C173.357 24.705 174.011 25.699 175.401 25.699C176.791 25.699 177.363 24.705 177.363 23.379ZM68.361 33.737H70.159V38.626L73.512 33.736H75.147V41.112H73.348V36.222L69.996 41.112H68.36V33.737H68.361ZM77.192 33.737H78.992V36.637H82.099V33.737H83.898V41.112H82.098V38.046H78.991V41.112H77.192V33.737ZM87.414 35.228H85.124V33.737H91.339V35.229H89.131V41.112H87.331V35.229H87.414V35.228ZM92.156 37.466C92.156 35.311 93.465 33.571 95.836 33.571C98.207 33.571 99.27 34.98 99.27 36.886C99.27 37.383 99.189 37.797 99.189 37.797H93.873C93.955 39.04 94.691 39.869 95.999 39.869C97.553 39.869 97.88 39.04 97.88 39.04H99.189V40.034C99.189 40.034 98.453 41.36 96.081 41.36C93.465 41.277 92.156 39.703 92.156 37.466ZM97.635 36.554C97.635 35.726 97.062 34.98 95.918 34.98C94.773 34.98 94.2 35.643 94.037 36.554H97.635ZM100.334 39.62H100.497C101.397 39.537 101.642 39.04 101.724 37.631L101.806 33.737H107.203V41.112H105.404V35.146H103.277L103.196 37.797C103.114 39.703 102.542 41.112 100.824 41.112H100.252V39.62H100.334ZM108.511 39.62H108.675C109.574 39.537 109.82 39.04 109.902 37.631L109.983 33.737H115.38V41.112H113.581V35.146H111.455L111.373 37.797C111.292 39.703 110.719 41.112 109.002 41.112H108.43V39.62H108.511ZM117.016 37.466C117.016 35.311 118.324 33.571 120.695 33.571C123.067 33.571 124.13 34.98 124.13 36.886C124.13 37.383 124.048 37.797 124.048 37.797H118.733C118.815 39.04 119.551 39.869 120.859 39.869C122.413 39.869 122.74 39.04 122.74 39.04H124.048V40.034C124.048 40.034 123.312 41.36 120.941 41.36C118.324 41.277 117.016 39.703 117.016 37.466ZM122.494 36.554C122.494 35.726 121.922 34.98 120.777 34.98C119.632 34.98 119.06 35.643 118.896 36.554H122.494ZM125.847 33.737H127.646V36.969L130.671 33.737H131.98V34.731L129.526 37.3L132.225 40.117V41.112H130.753L127.646 37.714V41.112H125.847V33.737ZM135.251 35.228H133.043V33.737H139.258V35.229H137.05V41.112H135.251V35.229V35.228ZM140.075 39.04C140.075 37.714 140.975 36.803 143.101 36.803C143.918 36.803 144.654 36.969 144.654 36.969V36.554C144.654 35.56 144.246 35.063 143.264 35.063C142.119 35.063 141.792 35.891 141.792 35.891H140.566V34.897C140.566 34.897 141.22 33.571 143.346 33.571C145.39 33.571 146.453 34.566 146.453 36.637V41.194H144.9L144.736 40.2C144.409 40.78 143.673 41.36 142.528 41.36C140.893 41.277 140.075 40.283 140.075 39.04ZM144.654 38.46V38.129C144.654 38.129 144.082 37.963 143.182 37.963C142.119 37.963 141.792 38.46 141.792 38.957C141.792 39.62 142.201 39.952 142.937 39.952C144.082 39.869 144.654 39.123 144.654 38.46Z" fill="black"/>
</svg>
