<svg width="58" height="71" viewBox="0 0 58 71" fill="none" xmlns="http://www.w3.org/2000/svg">
<path d="M21.7062 47.4846H16.9903V55.8807C16.9903 56.6021 17.5752 57.187 18.2967 57.187H20.3998C21.1213 57.187 21.7062 56.6021 21.7062 55.8807V47.4846Z" fill="#FDA9A4"/>
<path d="M30.3244 54.1894C30.3244 53.9133 30.1006 53.6894 29.8244 53.6894C29.5483 53.6894 29.3244 53.9133 29.3244 54.1894H30.3244ZM29.3244 54.8642C29.3244 55.1403 29.5483 55.3642 29.8244 55.3642C30.1006 55.3642 30.3244 55.1403 30.3244 54.8642H29.3244ZM37.499 58.2348C37.499 57.9586 37.2752 57.7348 36.999 57.7348C36.7229 57.7348 36.499 57.9586 36.499 58.2348H37.499ZM36.499 58.9888C36.499 59.265 36.7229 59.4888 36.999 59.4888C37.2752 59.4888 37.499 59.265 37.499 58.9888H36.499ZM41.1268 50.0972V64.2767H42.1268V50.0972H41.1268ZM39.0142 66.3894H15.9408V67.3894H39.0142V66.3894ZM13.8281 64.2767V50.0972H12.8281V64.2767H13.8281ZM15.9408 66.3894C14.774 66.3894 13.8281 65.4435 13.8281 64.2767H12.8281C12.8281 65.9958 14.2217 67.3894 15.9408 67.3894V66.3894ZM41.1268 64.2767C41.1268 65.4435 40.181 66.3894 39.0142 66.3894V67.3894C40.7333 67.3894 42.1268 65.9958 42.1268 64.2767H41.1268ZM39.0142 47.9846C40.181 47.9846 41.1268 48.9304 41.1268 50.0972H42.1268C42.1268 48.3781 40.7333 46.9846 39.0142 46.9846V47.9846ZM15.9408 46.9846C14.2217 46.9846 12.8281 48.3782 12.8281 50.0972H13.8281C13.8281 48.9304 14.774 47.9846 15.9408 47.9846V46.9846ZM16.9903 47.9846H21.7062V46.9846H16.9903V47.9846ZM21.2062 47.4846V55.8807H22.2062V47.4846H21.2062ZM20.3998 56.687H18.2967V57.687H20.3998V56.687ZM17.4903 55.8807V47.4846H16.4903V55.8807H17.4903ZM18.2967 56.687C17.8514 56.687 17.4903 56.326 17.4903 55.8807H16.4903C16.4903 56.8783 17.2991 57.687 18.2967 57.687V56.687ZM21.2062 55.8807C21.2062 56.326 20.8451 56.687 20.3998 56.687V57.687C21.3974 57.687 22.2062 56.8783 22.2062 55.8807H21.2062ZM24.0098 47.4846V66.8894H25.0098V47.4846H24.0098ZM29.3244 57.1869V66.4462H30.3244V57.1869H29.3244ZM29.3244 54.1894V54.8642H30.3244V54.1894H29.3244ZM36.499 58.2348V58.9888H37.499V58.2348H36.499ZM15.9408 47.9846H16.9903V46.9846H15.9408V47.9846ZM39.0142 46.9846H36.999V47.9846H39.0142V46.9846ZM36.999 46.9846H24.5098V47.9846H36.999V46.9846ZM24.5098 46.9846H21.7062V47.9846H24.5098V46.9846ZM36.499 47.4541V47.4846H37.499V47.4541H36.499ZM36.499 47.4846V56.7134H37.499V47.4846H36.499ZM21.7062 47.9846H36.999V46.9846H21.7062V47.9846ZM15.9408 47.9846H36.999V46.9846H15.9408V47.9846ZM15.9408 67.3894H24.5098V66.3894H15.9408V67.3894ZM24.5098 67.3894H39.0142V66.3894H24.5098V67.3894Z" fill="#383838"/>
<path d="M11 53L9.14142 51.1414C9.06332 51.0633 9.06332 50.9367 9.14142 50.8586L10.8586 49.1414C10.9367 49.0633 10.9367 48.9367 10.8586 48.8586L9.14142 47.1414C9.06332 47.0633 9.06332 46.9367 9.14142 46.8586L11 45" stroke="#383838" stroke-linecap="round" stroke-linejoin="round"/>
<path d="M43 7L44.8586 5.14142C44.9367 5.06332 44.9367 4.93668 44.8586 4.85858L43.1414 3.14142C43.0633 3.06332 43.0633 2.93668 43.1414 2.85858L45 1" stroke="#383838" stroke-linecap="round" stroke-linejoin="round"/>
<path d="M21.0283 47.4541C21.1143 44.7165 24.1244 43.0919 26.4601 44.5224L27.5186 45.1706L28.5771 44.5224C30.9128 43.0919 33.9228 44.7165 34.0089 47.4541" stroke="#383838"/>
<path d="M27.4771 44.989L7.3501 26.4244" stroke="#383838"/>
<path d="M27.6406 44.989L47.7676 26.4244" stroke="#383838"/>
<path d="M27.6403 44.9891L35.7168 25.5671" stroke="#383838"/>
<path d="M27.4773 44.9891L19.3823 25.7184" stroke="#383838"/>
<path fill-rule="evenodd" clip-rule="evenodd" d="M27.6904 27.863C27.6813 27.8634 27.6723 27.8636 27.6632 27.8638C27.6555 27.8639 27.6478 27.864 27.6401 27.864C27.6318 27.864 27.6235 27.8639 27.6152 27.8638C27.6402 27.8642 27.6653 27.864 27.6904 27.863Z" fill="#FDA9A4"/>
<path d="M25.5257 6.95963C15.0889 7.96301 6.79977 16.3171 5.89721 26.7831C5.8438 27.4024 6.60196 27.6739 6.98404 27.1836L7.15003 26.9706C9.24207 24.2858 13.3015 24.2858 15.3935 26.9706L15.6975 27.3606C15.9178 27.6434 16.2256 27.8071 16.547 27.8516C16.6438 21.2316 18.7296 15.2058 22.9764 10.09L25.901 6.92681C25.7756 6.93669 25.6505 6.94764 25.5257 6.95963Z" fill="#FDA9A4"/>
<path d="M28.6706 27.3606L28.9745 26.9706C31.0665 24.2858 35.126 24.2858 37.218 26.9706L37.5219 27.3606C37.8476 27.7785 38.364 27.9362 38.8335 27.8337C38.7353 21.2207 36.6912 15.2012 32.4482 10.09L29.3793 6.92672C28.8219 6.88277 28.2587 6.85986 27.6904 6.85858V27.863C28.0579 27.8491 28.4205 27.6816 28.6706 27.3606Z" fill="#FDA9A4"/>
<path d="M27.6401 6.85852C27.0547 6.85852 26.4747 6.88157 25.901 6.92681M27.6401 6.85852C27.6569 6.85852 27.6736 6.85854 27.6904 6.85858M27.6401 6.85852C26.9268 6.85852 26.2215 6.89274 25.5257 6.95963M27.6401 6.85852C29.4795 6.85852 31.2657 7.08602 32.9721 7.51448M28.6706 27.3606L28.9745 26.9706C31.0665 24.2858 35.126 24.2858 37.218 26.9706L37.5219 27.3606C37.8476 27.7785 38.364 27.9362 38.8335 27.8337M28.6706 27.3606C28.4205 27.6816 28.0579 27.8491 27.6904 27.863M28.6706 27.3606C28.4143 27.6895 28.0399 27.8572 27.6632 27.8638M27.6904 27.863V6.85858M27.6904 27.863C27.6813 27.8634 27.6723 27.8636 27.6632 27.8638M27.6904 27.863C27.6653 27.864 27.6402 27.8642 27.6152 27.8638M27.6904 6.85858C28.2587 6.85986 28.8219 6.88277 29.3793 6.92672M27.6904 6.85858C29.512 6.86268 31.2812 7.08993 32.9721 7.51448M25.901 6.92681L22.9764 10.09C18.7296 15.2058 16.6438 21.2316 16.547 27.8516M25.901 6.92681C25.7756 6.93669 25.6505 6.94764 25.5257 6.95963M29.3793 6.92672L32.4482 10.09C36.6912 15.2012 38.7353 21.2207 38.8335 27.8337M29.3793 6.92672C30.6083 7.02362 31.8088 7.2224 32.9721 7.51448M16.547 27.8516C16.2256 27.8071 15.9178 27.6434 15.6975 27.3606L15.3935 26.9706C13.3015 24.2858 9.24207 24.2858 7.15003 26.9706L6.98404 27.1836C6.60196 27.6739 5.8438 27.4024 5.89721 26.7831C6.79977 16.3171 15.0889 7.96301 25.5257 6.95963M16.547 27.8516C16.9884 27.9126 17.4557 27.749 17.7583 27.3606L18.0623 26.9706C20.1543 24.2858 24.2137 24.2858 26.3058 26.9706L26.6097 27.3606C26.8655 27.6889 27.2391 27.8567 27.6152 27.8638M38.8335 27.8337C39.1181 27.7716 39.3855 27.6139 39.5828 27.3606L39.8868 26.9706C41.9788 24.2858 46.0382 24.2858 48.1302 26.9706L48.2962 27.1836C48.6783 27.6739 49.4365 27.4024 49.3831 26.7831C48.9264 21.4875 46.5786 16.7326 43.0185 13.197C42.8315 13.0114 42.6412 12.829 42.4476 12.6502C41.7774 12.0308 41.0682 11.453 40.3242 10.9207C40.1775 10.8158 40.0294 10.7126 39.8801 10.6113C38.74 9.83763 37.5229 9.16901 36.2426 8.61935C35.1924 8.16846 34.0997 7.79759 32.9721 7.51448M27.6632 27.8638C27.6555 27.8639 27.6478 27.864 27.6401 27.864C27.6318 27.864 27.6235 27.8639 27.6152 27.8638" stroke="#383838"/>
<circle cx="5.89471" cy="38.7509" r="2.10663" fill="#FDA9A4" stroke="#383838"/>
<circle cx="50.9982" cy="59.7784" r="2.10663" fill="#FDA9A4" stroke="#383838"/>
<circle cx="1.58006" cy="63.5348" r="0.511703" fill="#FDA9A4" stroke="#383838"/>
<circle cx="1.58006" cy="10.2617" r="0.511703" fill="#FDA9A4" stroke="#383838"/>
<circle cx="29.8779" cy="30.3608" r="0.511703" fill="#FDA9A4" stroke="#383838"/>
<circle cx="56.2158" cy="28.3374" r="0.511703" fill="#FDA9A4" stroke="#383838"/>
<circle cx="48.7793" cy="8.23827" r="0.511703" fill="#FDA9A4" stroke="#383838"/>
<circle cx="42.6387" cy="41.2265" r="0.511703" fill="#FDA9A4" stroke="#383838"/>
<circle cx="43.6504" cy="69.8777" r="0.511703" fill="#FDA9A4" stroke="#383838"/>
</svg>
