<svg width="59" height="78" viewBox="0 0 59 78" fill="none" xmlns="http://www.w3.org/2000/svg">
<circle cx="17.3832" cy="29.1915" r="10.1164" fill="white" stroke="#383838"/>
<circle cx="2.60602" cy="66.4168" r="2.10663" transform="rotate(-180 2.60602 66.4168)" stroke="#383838"/>
<circle cx="56.201" cy="19.6066" r="2.10663" transform="rotate(-180 56.201 19.6066)" stroke="#383838"/>
<circle cx="50.2012" cy="30.0117" r="0.511703" transform="rotate(-180 50.2012 30.0117)" fill="#FDA9A4" stroke="#383838"/>
<circle cx="6.20094" cy="7.01173" r="0.511703" transform="rotate(-180 6.20094 7.01173)" fill="#FDA9A4" stroke="#383838"/>
<circle cx="56.2012" cy="61.0117" r="0.511703" transform="rotate(-180 56.2012 61.0117)" fill="#FDA9A4" stroke="#383838"/>
<circle cx="30.2012" cy="76.0117" r="0.511703" transform="rotate(-180 30.2012 76.0117)" fill="#FDA9A4" stroke="#383838"/>
<path d="M18.9597 23.2409L19.9486 27.0904C20.0182 27.3611 20.202 27.5881 20.4523 27.7124L24.0121 29.4801L20.6566 31.6102L20.9245 32.0323L20.6566 31.6102C20.4206 31.7599 20.2615 32.0049 20.2207 32.2814L19.6396 36.2132L16.5768 33.6801C16.3615 33.502 16.0793 33.4264 15.8037 33.473L11.8848 34.1353L13.3474 30.4397C13.4503 30.1799 13.435 29.8881 13.3055 29.6405L11.4646 26.118L15.4313 26.367C15.7102 26.3846 15.983 26.2799 16.1785 26.0802L18.9597 23.2409ZM18.9427 23.1749L18.9428 23.1749C18.9428 23.1749 18.9428 23.1749 18.9427 23.1749L18.98 23.1653L18.9427 23.1749Z" fill="#FDA9A4" stroke="#383838"/>
<path d="M48.7323 45.8085C48.7323 55.4511 40.5071 63.3102 30.3074 63.3102C20.1078 63.3102 11.8826 55.4511 11.8826 45.8085C11.8826 36.1658 20.1078 28.3068 30.3074 28.3068C40.5071 28.3068 48.7323 36.1658 48.7323 45.8085Z" fill="#FDA9A4" stroke="#383838"/>
<path d="M45.5396 45.8084C45.5396 42.006 43.9608 38.55 41.3853 35.9874C39.7053 34.3156 37.6011 33.0241 35.2344 32.2645M30.3074 31.4994C31.4161 31.4994 32.4971 31.6107 33.5384 31.822" stroke="#383838" stroke-linecap="round"/>
<path d="M49.4199 9L47.5613 7.14142C47.4832 7.06332 47.4832 6.93668 47.5613 6.85858L49.2785 5.14142C49.3566 5.06332 49.3566 4.93668 49.2785 4.85858L47.5613 3.14142C47.4832 3.06332 47.4832 2.93668 47.5613 2.85858L49.4199 1" stroke="#383838" stroke-linecap="round" stroke-linejoin="round"/>
<path d="M6.99976 58L5.14118 56.1414C5.06307 56.0633 5.06307 55.9367 5.14118 55.8586L6.85833 54.1414C6.93644 54.0633 6.93644 53.9367 6.85833 53.8586L4.99976 52" stroke="#383838" stroke-linecap="round" stroke-linejoin="round"/>
<circle cx="35.8463" cy="18.1136" r="6.42373" fill="#FDA9A4" stroke="#383838"/>
<path d="M25.9754 35.7183C26.2261 34.6825 27.5237 34.3348 28.2588 35.1065L31.5399 38.5512C32.0261 39.0616 32.7159 39.3264 33.4186 39.2724L38.162 38.9079C39.2246 38.8263 39.9562 39.953 39.4495 40.8905L37.1873 45.0756C36.8521 45.6956 36.8134 46.4335 37.0819 47.0852L38.8943 51.4837C39.3003 52.4691 38.4549 53.5131 37.4066 53.3209L32.7273 52.4626C32.0341 52.3355 31.3204 52.5267 30.7836 52.9835L27.1603 56.0664C26.3487 56.757 25.0944 56.2755 24.9534 55.2192L24.3236 50.5037C24.2303 49.8051 23.8279 49.1854 23.2276 48.816L19.176 46.3228C18.2683 45.7643 18.3386 44.4227 19.2997 43.9621L23.5898 41.906C24.2254 41.6014 24.6904 41.0272 24.8562 40.3421L25.9754 35.7183Z" fill="white" stroke="#383838"/>
<path d="M37.156 14.7929L37.6332 16.6503C37.7027 16.9209 37.8866 17.1479 38.1369 17.2722L39.8545 18.1251L38.2354 19.1529C37.9995 19.3027 37.8404 19.5477 37.7995 19.8241L38.2942 19.8972L37.7995 19.8241L37.5191 21.7212L36.0414 20.499C35.826 20.3209 35.5439 20.2453 35.2683 20.2919L33.3774 20.6114L34.0831 18.8283C34.186 18.5685 34.1707 18.2767 34.0413 18.0291L33.153 16.3295L35.0669 16.4497C35.3458 16.4672 35.6186 16.3625 35.8141 16.1628L37.156 14.7929ZM37.5717 21.7647L37.5716 21.7646L37.5717 21.7647Z" fill="#FDA9A4" stroke="#383838"/>
</svg>
