<svg width="62" height="62" viewBox="0 0 62 62" fill="none" xmlns="http://www.w3.org/2000/svg">
<path d="M32.2244 24.4212C33.0096 24.4866 33.7583 24.6959 34.4836 25.0017C35.4519 25.4099 36.2787 26.0217 36.968 26.8139C37.7779 27.7443 38.3406 28.8144 38.5738 30.0398C38.6692 30.5403 38.7519 31.0527 38.7533 31.5598C38.7566 32.5073 38.565 33.4245 38.2074 34.3076C37.8457 35.202 37.3293 35.9918 36.6549 36.6642C35.8997 37.4171 35.0154 37.9782 34.0106 38.3447C32.9642 38.7258 31.8842 38.848 30.7873 38.7661C29.7255 38.687 28.7394 38.3186 27.8365 37.7556C27.4051 37.4871 26.9906 37.1756 26.6186 36.828C25.7563 36.0231 25.1446 35.0429 24.738 33.925C24.3739 32.9244 24.2935 31.8856 24.3833 30.8472C24.4959 29.5441 24.9805 28.3603 25.761 27.3091C26.5008 26.3129 27.4336 25.5529 28.5399 25.0164C29.1128 24.7385 29.7208 24.5458 30.3546 24.4818C30.9121 24.4255 31.4739 24.4155 32.0338 24.3848C32.0973 24.3966 32.1604 24.4084 32.224 24.4203L32.2244 24.4212ZM29.325 35.2683C29.5129 35.2839 29.7003 35.2991 29.8882 35.3147C29.9858 35.578 30.0662 35.8493 30.1845 36.1031C30.4677 36.7111 30.9617 37.142 31.4449 37.5776C31.4828 37.6117 31.5982 37.6183 31.6323 37.5871C32.2857 36.9862 32.8965 36.3517 33.1101 35.4416C33.1465 35.2868 33.2236 35.2508 33.368 35.2527C33.905 35.2598 34.4425 35.2555 34.9795 35.2555C35.0538 35.2555 35.1281 35.2555 35.201 35.2555V26.3295C35.1463 26.3385 35.1019 26.3328 35.0739 26.3517C34.6032 26.6671 34.1976 27.0501 33.8578 27.5104C33.3288 28.2263 33.2166 29.0692 33.1119 29.9172C33.054 30.3855 33.0063 30.8557 32.9287 31.3207C32.861 31.7269 32.8951 31.8534 33.1582 31.9078C33.4928 31.977 33.641 32.1649 33.6241 32.4983C33.6106 32.7606 33.4166 32.9874 33.1559 33.0452C32.9133 33.0992 32.7857 33.0272 32.6455 32.7284C32.5062 32.431 32.366 32.1323 32.2525 31.8245C32.0394 31.2463 31.8865 30.6521 31.8954 30.0285C31.902 29.5895 31.9314 29.1506 31.9356 28.7112C31.9436 27.9067 31.9473 27.1022 31.938 26.2977C31.9337 25.9582 31.7893 25.667 31.5468 25.4028C31.3154 25.7196 31.1009 26.0217 31.1042 26.4137C31.1103 27.1884 31.1294 27.9626 31.143 28.7372C31.1449 28.8007 31.1463 28.8641 31.1481 28.9271C31.1486 29.3059 31.1491 29.6852 31.15 30.064C31.136 30.1596 31.122 30.2553 31.1079 30.3505C31.0462 31.2004 30.7766 31.9798 30.3835 32.7308C30.2588 32.9694 30.0901 33.031 29.883 33.039C29.6741 33.0471 29.3965 32.6995 29.3755 32.4533C29.3605 32.2724 29.5563 31.9893 29.7484 31.9263C29.8826 31.8823 30.0204 31.8505 30.162 31.8117C30.1302 31.645 30.0943 31.4978 30.0756 31.3481C29.9798 30.5735 29.9176 29.7936 29.7886 29.0251C29.5895 27.8361 28.9394 26.9516 27.8902 26.3295V35.2688C28.3796 35.2688 28.8525 35.2688 29.3255 35.2688L29.325 35.2683Z" fill="#494949"/>
<path d="M50.1537 25.5171V37.5669C49.8789 37.52 49.6116 37.4911 49.3522 37.4281C48.0334 37.108 46.7159 36.7799 45.3985 36.4532C44.5339 36.2387 43.6702 36.0194 42.8051 35.8078C41.8644 35.5777 40.9208 35.3575 39.98 35.1274C39.5566 35.0237 39.136 34.9072 38.6836 34.7888C39.6421 32.6315 39.5814 30.4913 38.6925 28.3202C42.5154 27.3855 46.3187 26.4551 50.1542 25.5176L50.1537 25.5171Z" fill="#494949"/>
<path d="M25.5371 50.1545C25.6544 49.6355 25.7619 49.1332 25.882 48.6341C26.1063 47.7013 26.3381 46.7704 26.5662 45.8385C26.8747 44.5799 27.1854 43.3223 27.4906 42.0632C27.7481 40.9997 28.0005 39.9348 28.2477 38.869C28.2786 38.7369 28.3183 38.726 28.4342 38.7728C29.1474 39.0603 29.8811 39.2667 30.648 39.3444C31.5556 39.4362 32.4571 39.4358 33.3409 39.1744C33.7802 39.0446 34.2125 38.8898 34.6518 38.7591C34.6999 38.7449 34.8168 38.8065 34.828 38.851C35.0257 39.6616 35.2075 40.4765 35.4024 41.2881C35.5585 41.9382 35.7286 42.5855 35.8908 43.2342C36.0987 44.0647 36.3104 44.8948 36.5119 45.7267C36.8413 47.0914 37.1643 48.4579 37.4886 49.8235C37.5129 49.9263 37.5265 50.0323 37.548 50.1545H25.5371Z" fill="#494949"/>
<path d="M25.5522 13H37.5533C37.3453 13.8769 37.1448 14.7373 36.9359 15.5962C36.7415 16.395 36.5368 17.1915 36.34 17.9898C36.0152 19.3076 35.6914 20.6258 35.3712 21.945C35.1918 22.6841 35.0198 23.4256 34.8478 24.1667C34.7931 24.403 34.7506 24.4247 34.5206 24.3357C33.8028 24.0568 33.0658 23.8523 32.2937 23.8153C31.7605 23.7898 31.2193 23.7211 30.694 23.7827C30.1117 23.8513 29.5429 24.0417 28.9709 24.1899C28.8125 24.2306 28.6666 24.3187 28.5096 24.3665C28.3717 24.4086 28.2792 24.3996 28.24 24.1984C28.1423 23.7017 27.9988 23.2149 27.8801 22.7225C27.6277 21.6732 27.3838 20.6215 27.1291 19.5727C26.8482 18.416 26.5594 17.2606 26.2738 16.1052C26.0331 15.1317 25.792 14.1582 25.5536 13.1842C25.5396 13.1278 25.5518 13.0644 25.5518 13H25.5522Z" fill="#494949"/>
<path d="M13.0578 25.5542C13.9622 25.7796 14.866 26.0069 15.7713 26.2294C16.8083 26.4842 17.8472 26.7309 18.8843 26.9866C19.7956 27.211 20.7055 27.4425 21.6155 27.6717C22.3333 27.8526 23.0502 28.0382 23.7695 28.2129C23.9802 28.2641 24.198 28.2844 24.4336 28.3228C24.0438 29.2456 23.7854 30.1467 23.7597 31.1042C23.7597 31.4205 23.7597 31.7363 23.7597 32.0526C23.7868 32.9958 24.0522 33.8798 24.4424 34.7918C20.6265 35.7256 16.8284 36.6551 13.0125 37.5888C13.0074 37.4899 13.0004 37.4202 13.0004 37.3506C12.9999 33.4925 12.9999 29.6344 13.0004 25.7763C13.0004 25.7213 13.0083 25.6669 13.0125 25.612C13.0275 25.5926 13.0424 25.5736 13.0574 25.5542H13.0578Z" fill="#494949"/>
<path d="M34.5856 32.1305H34.2716C34.2842 32.1177 34.2968 32.1054 34.3094 32.0926C34.1136 31.8701 33.9155 31.6494 33.7234 31.4235C33.6795 31.3719 33.6215 31.2976 33.6285 31.2408C33.6944 30.683 33.7921 30.1285 33.8416 29.5693C33.8907 29.0205 34.0482 28.5162 34.3239 28.0465C34.387 27.939 34.4637 27.8401 34.5342 27.7373C34.5515 27.7458 34.5684 27.7544 34.5856 27.7633V32.13V32.1305Z" fill="#494949"/>
<path d="M28.5816 27.7852C28.9775 28.2975 29.1607 28.8889 29.2336 29.5277C29.2981 30.0925 29.3911 30.6537 29.4579 31.2181C29.4658 31.2853 29.3985 31.3705 29.349 31.434C29.1878 31.6419 29.0298 31.8549 28.8471 32.042C28.7742 32.1168 28.6391 32.1286 28.4961 32.1831V27.7956C28.5246 27.7923 28.5531 27.7885 28.5816 27.7852Z" fill="#494949"/>
<path d="M33.1377 33.7342C33.6812 33.6229 34.0873 33.3753 34.2547 32.8213H34.5823V34.5595H33.2667C33.2237 34.283 33.1812 34.0117 33.1377 33.7342Z" fill="#494949"/>
<path d="M28.5039 32.8351C28.7717 32.8119 28.8904 32.9497 29.0012 33.1556C29.1923 33.5122 29.5377 33.6556 29.9368 33.7229C29.919 33.9582 29.9097 34.1902 29.8784 34.4194C29.8704 34.4758 29.7924 34.5653 29.7442 34.5662C29.3344 34.578 28.9245 34.5728 28.5039 34.5728V32.8346V32.8351Z" fill="#494949"/>
<path d="M30.8838 33.27C31.1062 32.7567 31.3198 32.2633 31.5413 31.752C31.7708 32.2799 31.9905 32.7856 32.2148 33.3022C32.0386 33.4083 31.8507 33.5143 31.6699 33.6318C31.5371 33.7179 31.4231 33.6981 31.3077 33.6048C31.1651 33.4897 31.0203 33.3775 30.8843 33.27H30.8838Z" fill="#494949"/>
<path d="M31.2405 36.4664C30.905 36.1165 30.7096 35.7599 30.6152 35.3262H31.2405V36.4664Z" fill="#494949"/>
<path d="M31.8965 36.4032C31.8951 36.1058 31.9036 35.8075 31.8895 35.5106C31.8811 35.3283 31.9325 35.2459 32.1223 35.2682C32.2284 35.281 32.3368 35.2706 32.4676 35.2706C32.3943 35.7138 32.2031 36.076 31.9409 36.406C31.926 36.407 31.9115 36.406 31.8965 36.4032Z" fill="#494949"/>
<path d="M30.8467 34.6097C30.5375 34.6125 30.4179 34.6755 30.5384 34.2297C30.5659 34.1284 30.5972 34.0285 30.6267 33.9277C30.7448 33.9812 30.8873 34.0096 30.9742 34.0957C31.0718 34.1932 31.1274 34.3395 31.1816 34.4724C31.1923 34.4989 31.1227 34.5879 31.076 34.6031C31.0059 34.6258 30.9237 34.6092 30.8467 34.6092V34.6097Z" fill="#494949"/>
<path d="M32.6044 34.5561H31.9234C31.8748 34.2456 32.1593 33.9148 32.4923 33.9077C32.5283 34.1164 32.5647 34.3265 32.604 34.5561H32.6044Z" fill="#494949"/>
</svg>
