<svg width="56" height="56" viewBox="0 0 56 56" fill="none" xmlns="http://www.w3.org/2000/svg">
<g clip-path="url(#clip0_801_520)">
<path fill-rule="evenodd" clip-rule="evenodd" d="M28 5.047C35.476 5.047 36.3627 5.075 39.3167 5.21033C46.9047 5.55567 50.449 9.156 50.7943 16.688C50.9297 19.6397 50.9553 20.5263 50.9553 28.0023C50.9553 35.4807 50.9273 36.365 50.7943 39.3167C50.4467 46.8417 46.9117 50.449 39.3167 50.7943C36.3627 50.9297 35.4807 50.9577 28 50.9577C20.524 50.9577 19.6373 50.9297 16.6857 50.7943C9.079 50.4467 5.55333 46.83 5.208 39.3143C5.07267 36.3627 5.04467 35.4783 5.04467 28C5.04467 20.524 5.075 19.6397 5.208 16.6857C5.55567 9.156 9.09067 5.55333 16.6857 5.208C19.6397 5.075 20.524 5.047 28 5.047ZM13.622 28C13.622 20.0597 20.0597 13.622 28 13.622C35.9403 13.622 42.378 20.0597 42.378 28C42.378 35.9427 35.9403 42.3803 28 42.3803C20.0597 42.3803 13.622 35.9403 13.622 28ZM39.585 13.055C39.585 11.2 41.09 9.695 42.9473 9.695C44.8023 9.695 46.305 11.2 46.305 13.055C46.305 14.91 44.8023 16.415 42.9473 16.415C41.09 16.415 39.585 14.91 39.585 13.055Z" fill="black"/>
<path fill-rule="evenodd" clip-rule="evenodd" d="M28 13.622C20.0597 13.622 13.622 20.0597 13.622 28C13.622 35.9403 20.0597 42.3803 28 42.3803C35.9403 42.3803 42.378 35.9427 42.378 28C42.378 20.0597 35.9403 13.622 28 13.622ZM28 37.3333C22.8457 37.3333 18.6667 33.1567 18.6667 28C18.6667 22.8457 22.8457 18.6667 28 18.6667C33.1543 18.6667 37.3333 22.8457 37.3333 28C37.3333 33.1567 33.1543 37.3333 28 37.3333Z" fill="black"/>
</g>
<defs>
<clipPath id="clip0_801_520">
<rect width="56" height="56" fill="white"/>
</clipPath>
</defs>
</svg>
