<svg width="210" height="98" viewBox="0 0 210 98" fill="none" xmlns="http://www.w3.org/2000/svg">
<path d="M97.3468 0.399902L125.595 45.288L112.643 67.5999L84.4052 22.7118L97.3468 0.399902Z" fill="#00443C"/>
<mask id="mask0_380_1827" style="mask-type:alpha" maskUnits="userSpaceOnUse" x="0" y="0" width="210" height="68">
<path d="M210 33.9952L190.158 0.399902H111.659L85.1484 45.288H33.0248L26.3562 33.9952L33.0248 22.7118H84.4053L97.347 0.399902H19.8419L0 33.9952L19.8419 67.5999H98.3313L124.852 22.7118H176.975L183.644 33.9952L176.975 45.288H125.595L112.643 67.5999H190.158L210 33.9952Z" fill="url(#paint0_angular_380_1827)"/>
</mask>
<g mask="url(#mask0_380_1827)">
<rect y="-7.59961" width="6061.44" height="82.32" fill="url(#paint1_linear_380_1827)"/>
</g>
<path d="M84.4054 22.7118H33.0249L19.842 0.399902H97.347L84.4054 22.7118Z" fill="url(#paint2_linear_380_1827)"/>
<path d="M125.595 45.288H176.975L190.158 67.5999H112.643L125.595 45.288Z" fill="url(#paint3_linear_380_1827)"/>
<path d="M3 82.0967H15.361C19.71 82.0967 22.1333 83.9956 22.1333 87.4228C22.1145 90.7575 19.6912 92.6008 15.3235 92.6008H8.59816V97.2322H3V82.1059V82.0967ZM13.5013 89.4884C15.455 89.4884 16.5258 88.7289 16.5258 87.3302C16.5258 85.9315 15.455 85.1997 13.5013 85.1997H8.59816V89.4884H13.5013Z" fill="white"/>
<path d="M28.3045 82.0967H33.8932V87.4599H42.3562V82.0967H47.945V97.2229H42.3562V91.2021H33.8932V97.2229H28.3045V82.0967Z" fill="white"/>
<path d="M54.802 82.0967H70.9766V85.5239H60.2217V88.062H70.1218V90.9983H60.2217V93.8049H71.1926V97.2322H54.802V82.1059V82.0967Z" fill="white"/>
<path d="M77.4012 82.0967H84.1266L92.3735 91.9616H92.3923V82.0967H97.6617V97.2229H90.9552L82.6894 87.2283H82.6707V97.2229H77.4012V82.0967Z" fill="white"/>
<path d="M104.162 89.6636C104.162 84.8006 108.661 81.5679 115.386 81.5679C122.112 81.5679 126.629 84.8006 126.629 89.6636C126.629 94.5266 122.13 97.7594 115.386 97.7594C108.642 97.7594 104.162 94.5266 104.162 89.6636ZM121.041 89.6636C121.041 87.1534 118.749 85.4583 115.386 85.4583C112.024 85.4583 109.75 87.1441 109.75 89.6636C109.75 92.1831 112.024 93.869 115.386 93.869C118.749 93.869 121.041 92.1831 121.041 89.6636Z" fill="white"/>
<path d="M133.111 82.0967H140.352L145.669 92.3692H145.716L150.966 82.0967H158.293V97.2229H153.023V87.7378H152.976L148.177 97.2229H143.396L138.427 87.7378H138.38V97.2229H133.111V82.0967Z" fill="white"/>
<path d="M165.131 82.0967H181.306V85.5239H170.551V88.062H180.451V90.9983H170.551V93.8049H181.522V97.2322H165.131V82.1059V82.0967Z" fill="white"/>
<path d="M187.74 82.0967H194.465L202.712 91.9616H202.731V82.0967H208V97.2229H201.293L193.028 87.2283H193.009V97.2229H187.74V82.0967Z" fill="white"/>
<defs>
<radialGradient id="paint0_angular_380_1827" cx="0" cy="0" r="1" gradientUnits="userSpaceOnUse" gradientTransform="translate(96.7195 -27.7936) rotate(103.215) scale(103.917 323.98)">
<stop offset="0.108762" stop-color="#00C5A5"/>
<stop offset="0.638512" stop-color="#029564"/>
<stop offset="0.89851" stop-color="#0EF11A"/>
<stop offset="0.966116" stop-color="#029965"/>
</radialGradient>
<linearGradient id="paint1_linear_380_1827" x1="4.03037e-05" y1="32.7204" x2="6061.44" y2="32.7233" gradientUnits="userSpaceOnUse">
<stop stop-color="#0EEC1F"/>
<stop offset="0.0694134" stop-color="#06B44F"/>
<stop offset="0.119185" stop-color="#023E58"/>
<stop offset="0.17235" stop-color="#06B44F"/>
<stop offset="0.211941" stop-color="#11F443"/>
<stop offset="0.262844" stop-color="#2DCC6D"/>
<stop offset="0.304698" stop-color="#2EE72A"/>
<stop offset="0.340895" stop-color="#06B48A"/>
<stop offset="0.378224" stop-color="#06B44F"/>
<stop offset="0.421209" stop-color="#02582F"/>
<stop offset="0.4608" stop-color="#06B44F"/>
<stop offset="0.517359" stop-color="#025839"/>
<stop offset="0.552425" stop-color="#0EEC1F"/>
<stop offset="0.601066" stop-color="#025839"/>
<stop offset="0.647444" stop-color="#023E58"/>
<stop offset="0.72097" stop-color="#06B48A"/>
<stop offset="0.77866" stop-color="#2DCC6D"/>
<stop offset="0.870285" stop-color="#06B44F"/>
<stop offset="0.922319" stop-color="#0EEC1F"/>
<stop offset="1" stop-color="#0EEC1F"/>
</linearGradient>
<linearGradient id="paint2_linear_380_1827" x1="26.0401" y1="33.9999" x2="181.44" y2="33.9999" gradientUnits="userSpaceOnUse">
<stop stop-color="#08CF4A" stop-opacity="0"/>
<stop offset="0.341129" stop-color="#00443C"/>
<stop offset="0.444258" stop-color="#00443C"/>
<stop offset="0.564091" stop-color="#00443C"/>
<stop offset="0.657906" stop-color="#00443C"/>
<stop offset="1" stop-color="#0ACE39" stop-opacity="0"/>
</linearGradient>
<linearGradient id="paint3_linear_380_1827" x1="26.0401" y1="33.9999" x2="181.44" y2="33.9999" gradientUnits="userSpaceOnUse">
<stop stop-color="#08CF4A" stop-opacity="0"/>
<stop offset="0.341129" stop-color="#00443C"/>
<stop offset="0.444258" stop-color="#00443C"/>
<stop offset="0.564091" stop-color="#00443C"/>
<stop offset="0.657906" stop-color="#00443C"/>
<stop offset="1" stop-color="#0ACE39" stop-opacity="0"/>
</linearGradient>
</defs>
</svg>
