<svg width="62" height="62" viewBox="0 0 62 62" fill="none" xmlns="http://www.w3.org/2000/svg">
<g clip-path="url(#clip0_454_6159)">
<path d="M31.4945 20.4975C31.377 20.7745 31.3791 21.0787 31.3896 21.362C31.4127 22.0732 31.2595 22.7593 31.1986 23.458C31.1273 24.2637 31.2049 25.0714 31.4273 25.8561C31.4777 26.0303 31.5637 26.196 31.698 26.3261C31.8197 26.4415 31.954 26.4961 32.1239 26.4101C32.2897 26.3261 32.3421 26.1981 32.3232 26.0261C32.2582 25.4575 32.0043 24.9686 31.698 24.4987C31.6518 24.4294 31.5721 24.377 31.5889 24.2469C31.8596 24.2972 32.0547 24.4651 32.2435 24.635C32.9569 25.2771 33.5108 26.0408 33.9745 26.8737C34.1318 27.1549 34.329 27.3899 34.6521 27.4885C34.8284 27.543 35.0046 27.585 35.1851 27.4948C35.2354 27.4696 35.311 27.4318 35.3445 27.5095C35.3844 27.6018 35.2774 27.5892 35.2354 27.6207C35.1053 27.7214 34.969 27.8179 34.8326 27.9102C34.1696 28.3613 33.4457 28.4662 32.6652 28.3089C31.8218 28.1389 31.0287 28.3949 30.2419 28.6529C30.2293 28.6571 30.223 28.6802 30.2062 28.7075C30.3006 28.7746 30.4076 28.7557 30.5 28.7348C31.4106 28.5292 32.3064 28.5669 33.2086 28.804C33.5506 28.8942 33.9178 28.9131 34.2367 28.676C34.3521 28.59 34.4549 28.6697 34.5472 28.7306C35.4809 29.3432 36.3852 29.9978 37.0566 30.9084C37.6084 31.6575 38.3427 32.1988 39.0603 32.7632C39.7023 33.2688 40.359 33.7577 40.9025 34.3766C40.9234 34.3997 40.9423 34.4249 40.999 34.4983C40.1597 34.3808 39.5785 34.7816 38.9911 35.2683C39.1295 35.3229 39.1862 35.2389 39.2554 35.2075C39.675 35.0124 40.0968 34.8214 40.5772 34.8928C40.8752 34.9368 41.1039 35.0837 41.2654 35.3543C41.6389 35.9796 42.0627 36.5775 42.3376 37.2594C42.5054 37.6749 42.5453 38.1008 42.4341 38.5372C42.3439 38.8897 42.218 38.9253 41.9536 38.6841C41.492 38.2581 40.9675 37.9141 40.4744 37.528C40.3863 37.4588 40.2919 37.3916 40.1282 37.442C40.3129 37.6077 40.4744 37.7672 40.6507 37.9057C41.385 38.4805 42.0396 39.1415 42.7278 39.7667C42.9922 40.0059 43.2502 40.2535 43.5209 40.4842C43.6615 40.6038 43.7118 40.7129 43.609 40.885C43.5482 40.9857 43.4999 41.1032 43.5587 41.2459C43.7202 41.1368 43.7223 40.9416 43.823 40.8095C43.865 40.7549 43.8902 40.6878 43.93 40.6311C44.1378 40.3374 44.2301 40.3458 44.379 40.671C44.4063 40.7318 44.4168 40.8053 44.5133 40.843C44.549 40.4696 44.4818 40.094 44.6329 39.7436C44.6749 39.6492 44.6959 39.5443 44.7378 39.4499C44.998 38.8666 45.4092 38.7722 45.8792 39.2149C46.3806 39.687 46.5842 40.3017 46.6198 40.971C46.6408 41.3697 46.6303 41.7704 46.624 42.1711C46.6198 42.4313 46.7142 42.6369 46.901 42.8195C47.136 43.0482 47.3835 43.2685 47.5367 43.5727C47.6374 43.772 47.6416 43.9482 47.5451 44.1413C47.3898 44.456 47.1255 44.6553 46.8171 44.7854C46.5632 44.8924 46.3555 44.7539 46.2107 44.5483C46.0722 44.3532 45.9631 44.1371 45.8183 43.8916C45.7554 44.1392 45.7995 44.349 45.8309 44.6092C45.4239 44.3112 45.0337 44.0636 44.7567 43.6965C44.6161 43.5118 44.4567 43.4132 44.2406 43.3985C44.0937 43.3881 44.0266 43.3335 44.0098 43.1824C43.9888 42.9768 43.8902 42.8404 43.6552 42.8048C43.5251 42.7859 43.4013 42.6978 43.2796 42.6285C42.2473 42.0369 41.1773 41.506 40.2038 40.8137C40.1408 40.7696 40.0758 40.7192 39.9856 40.7633C40.0149 40.8913 40.1261 40.9584 40.1996 41.0486C40.5332 41.4557 40.5479 41.5123 40.273 41.9676C39.9583 42.4901 39.6541 43.0146 39.4778 43.6021C39.4568 43.6692 39.4338 43.7342 39.4191 43.8014C39.3855 43.9482 39.3729 44.0783 39.5974 44.0007C39.738 43.9503 39.7569 44.0175 39.7464 44.1434C39.7212 44.5147 39.7317 44.884 39.6268 45.2533C39.5597 45.4904 39.7065 45.7254 39.8156 45.9394C40.0317 46.3611 40.3171 46.7325 40.6738 47.0451C40.7388 47.1017 40.8038 47.1626 40.8626 47.2234C41.1605 47.5339 41.0934 47.8738 40.6926 48.0459C40.2877 48.22 39.6499 48.1927 39.3205 47.7396C39.0288 47.3367 38.7708 46.915 38.5085 46.4954C38.2211 46.038 37.8707 45.6897 37.3545 45.4547C36.4796 45.0603 36.0159 44.3301 35.9467 43.3629C35.932 43.1447 36.0222 42.9873 36.209 42.8971C36.4817 42.7649 36.765 42.6495 37.044 42.5299C37.1615 42.4796 37.2307 42.5215 37.2874 42.6411C37.4699 43.0167 37.793 43.2328 38.1812 43.4195C38.1497 43.2517 38.0406 43.174 37.9609 43.0775C37.8875 42.9915 37.8077 42.9118 37.7385 42.8216C37.5203 42.5404 37.428 42.2677 37.6671 41.9299C37.9945 41.4662 38.2253 40.95 38.3239 40.3835C38.3448 40.266 38.4099 40.1884 38.5106 40.1506C38.7183 40.0688 38.6533 39.9786 38.5316 39.88C38.219 39.6303 37.9 39.389 37.5916 39.1352C36.8321 38.512 36.1712 37.807 35.6886 36.9405C35.3718 36.3698 34.7948 36.2691 34.2094 36.2104C34.0374 36.1936 33.8633 36.1663 33.6891 36.1621C33.5234 36.1579 33.4541 36.074 33.4415 35.925C33.3786 35.1844 33.3828 34.4522 33.6744 33.7472C34.0311 32.887 34.7088 32.6583 35.4935 33.1555C35.6404 33.2478 35.7872 33.3401 35.9257 33.4451C36.0348 33.5269 36.0894 33.5982 35.911 33.701C35.5271 33.9213 35.2102 34.1983 35.3445 34.7186C35.4452 34.7123 35.4368 34.6242 35.4599 34.5675C35.697 33.9654 36.1292 33.7493 36.6999 34.0325C37.2958 34.3284 37.7532 34.7899 38.0049 35.4257C38.1371 35.7635 38.0868 36.0656 37.8644 36.353C37.5643 36.7349 37.2517 37.1105 37.0671 37.5679C37.0377 37.6392 36.9811 37.7021 37.0209 37.8029C37.2077 37.6623 37.2832 37.4462 37.4133 37.2741C37.7259 36.8629 38.0595 36.4768 38.5358 36.2439C38.5861 36.2209 38.7015 36.1915 38.605 36.1013C38.3281 35.8474 38.2441 35.4991 38.1119 35.1697C37.8979 34.6326 37.4615 34.2738 37.0146 33.9381C36.5006 33.5521 35.9949 33.1534 35.4536 32.803C35.2396 32.6646 35.0718 32.4715 34.9291 32.2617C34.6459 31.8484 34.2388 31.5819 33.8381 31.3029C33.7814 31.263 33.7164 31.1938 33.5947 31.2693C33.7751 31.4602 34.0143 31.5735 34.1738 31.7729C34.3416 31.9806 34.5766 32.1295 34.7067 32.3729C34.7675 32.4862 34.7801 32.5701 34.627 32.6037C33.5276 32.8408 33.0576 33.9927 33.024 34.7711C33.003 35.2578 33.0009 35.7446 33.1121 36.223C33.1415 36.351 33.1457 36.4622 32.9569 36.4034C31.3581 35.9103 29.7656 35.411 28.4333 34.3347C27.4955 33.5751 26.8387 32.6394 26.608 31.4434C26.5135 30.9588 26.8115 30.6 27.1409 30.2895C27.5269 29.9286 28.0221 29.8174 28.5256 29.7419C28.5655 29.7356 28.6054 29.7251 28.6515 29.7146C28.6075 29.6454 28.5466 29.637 28.4858 29.6265C27.9654 29.553 27.443 29.5572 26.9248 29.6433C26.5072 29.7146 26.1904 29.937 25.989 30.3902C25.9995 29.1397 25.6701 28.0969 24.7427 27.2871C25.8191 27.8473 26.8933 28.397 28.0955 28.6152C27.9382 28.4284 27.7346 28.3235 27.529 28.2165C26.1338 27.4864 24.877 26.5863 23.9454 25.2897C23.7398 25.0043 23.5699 24.698 23.465 24.3518C23.5867 24.5029 23.7083 24.656 23.8321 24.8071C24.0231 25.0358 24.2455 25.2288 24.5035 25.3799C24.6966 25.4932 24.8665 25.4722 25.026 25.319C25.1896 25.1617 25.154 24.9875 25.0595 24.8176C24.9546 24.6287 24.8329 24.4462 24.6798 24.2909C24.1888 23.7895 23.637 23.372 22.9845 23.0992C22.8083 23.0258 22.6593 23.0363 22.4935 23.1391C22.1935 23.33 21.9627 23.5881 21.7487 23.8629C21.2577 24.4966 20.6745 25.0169 19.9674 25.4051C19.5415 25.64 19.1386 25.9149 18.7295 26.1793C18.5994 26.2632 18.4379 26.3366 18.3749 26.4793C18.2406 26.7814 18.0749 26.6786 17.8987 26.5422C17.6007 26.3093 17.3573 26.0282 17.179 25.6925C17.1454 25.6295 17.114 25.5163 17.0216 25.554C16.9314 25.5939 16.9923 25.6925 17.0132 25.7617C17.1328 26.1625 17.2503 26.5653 17.5462 26.88C17.6742 27.0164 17.5692 27.0647 17.479 27.1381C16.665 27.8095 15.7208 28.2522 14.7704 28.6865C13.7045 29.1754 12.5673 29.5006 11.5413 30.0776C11.1763 30.2832 10.8175 30.4951 10.5405 30.8161C10.4797 30.8853 10.4084 30.9189 10.3181 30.9378C9.87753 31.028 9.4684 30.9504 9.09703 30.7028C8.9019 30.5727 8.70258 30.5434 8.47808 30.5853C8.15078 30.6483 7.82137 30.6525 7.49197 30.5853C7.43112 30.5727 7.3451 30.5182 7.31153 30.6084C7.27376 30.7091 7.37657 30.7385 7.44161 30.772C7.77731 30.942 8.14029 30.9777 8.50746 30.9735C8.77812 30.9714 9.0236 31.0511 9.27117 31.1728C8.69419 31.1518 8.2347 31.5001 7.70807 31.6218C7.52973 31.6637 7.35349 31.7099 7.16676 31.6721C6.92547 31.6239 6.68839 31.6029 6.45759 31.7246C6.30653 31.8043 6.24358 31.7372 6.18274 31.5756C6.0002 31.0931 6.17015 30.7469 6.53732 30.4342C7.10172 29.9538 7.76682 29.7251 8.48228 29.6202C8.80119 29.574 9.12221 29.5467 9.44322 29.5279C10.4084 29.4733 11.1826 29.0306 11.8582 28.3739C12.6827 27.5745 13.5367 26.8066 14.4745 26.1373C14.6088 26.0429 14.7578 25.9652 14.9046 25.8918C15.2739 25.7072 15.6495 25.5855 16.046 25.8289C16.111 25.7156 16.088 25.6107 16.0712 25.5142C15.9894 25.0169 16.1929 24.6329 16.5391 24.3056C16.9671 23.9007 17.4727 23.6133 17.9952 23.351C18.3057 23.1957 18.6099 23.0237 18.933 22.8978C19.4618 22.6922 19.831 22.3229 20.1331 21.8592C20.5171 21.2697 20.8675 20.6507 21.5053 20.2793C21.9417 20.0255 22.3886 19.7863 22.8607 19.61C23.3055 19.4443 23.6055 19.1778 23.6895 18.6995C23.6958 18.6617 23.7251 18.626 23.7545 18.5652C24.2581 19.1464 24.8099 19.6415 25.454 20.0297C25.5967 20.1157 25.5778 20.1996 25.4162 20.2584C25.2106 20.3339 25.0469 20.4703 24.9085 20.6444C25.305 20.592 25.6785 20.4619 26.0205 20.2688C26.159 20.1912 26.0037 20.1157 25.9408 20.0674C25.5694 19.7926 25.1917 19.5303 24.8245 19.2534C24.5161 19.0184 24.2623 18.733 24.1301 18.3617C24.0315 18.0847 24.1657 17.8371 24.4448 17.7574C24.5896 17.7154 24.663 17.7511 24.6567 17.9127C24.6525 18.026 24.6525 18.1393 24.6567 18.2526C24.6609 18.3533 24.6378 18.4582 24.6882 18.5568C24.9756 18.3344 25.0931 17.7553 24.919 17.4637C24.7364 17.1594 24.6861 16.8468 24.8959 16.5321C25.0889 16.2426 25.5211 16.0915 25.8967 16.1775C26.4443 16.3034 26.8555 16.5804 26.9793 17.2077C27.271 16.9643 27.5794 16.8153 27.9214 16.7356C28.0326 16.7104 27.9612 16.6391 27.934 16.5992C27.7682 16.358 27.6948 16.081 27.6276 15.8019C27.6004 15.6845 27.5353 15.5879 27.4136 15.5607C26.8807 15.439 26.3541 15.29 25.8023 15.4977C25.4099 15.6446 25.0595 15.8355 24.8245 16.1964C24.7931 16.2468 24.7679 16.3055 24.663 16.3055C24.642 15.8523 24.7511 15.4201 24.8665 14.9921C25.091 14.157 25.7645 13.4206 26.8094 13.322C27.7032 13.238 28.5005 13.3723 29.1949 13.9787C29.5999 14.3333 30.0699 14.5745 30.6154 14.6438C30.6993 14.6543 30.779 14.6627 30.7706 14.7718C30.7622 14.8683 30.6762 14.8494 30.6112 14.8662C30.2146 14.9669 29.8181 14.8704 29.4215 14.8578C29.4215 14.9522 29.4845 14.99 29.5348 15.0005C29.8789 15.0781 29.9167 15.3404 29.9146 15.6215C29.9125 15.9173 29.8663 16.2153 29.8894 16.5069C29.9167 16.8468 29.9293 17.1426 29.7048 17.4553C29.5558 17.6651 29.6901 17.9777 29.7845 18.2337C29.8349 18.3721 29.8936 18.5043 29.8894 18.6596C29.8852 18.8023 29.8307 18.8547 29.6964 18.8065C29.5747 18.7624 29.4551 18.712 29.3355 18.6617C29.2558 18.6281 29.1802 18.6092 29.1383 18.7057C29.1026 18.7855 29.1551 18.8295 29.2222 18.8715C29.5139 19.0498 29.5201 19.0561 29.325 19.3373C29.2516 19.4422 29.2579 19.5492 29.2558 19.6604C29.2558 19.8094 29.1991 19.8933 29.0376 19.8681C28.8299 19.8366 28.7313 19.9164 28.6851 20.1325C28.5949 20.5563 28.4942 20.5878 28.1165 20.3654C27.9549 20.2709 27.7955 20.1723 27.6171 20.0947C27.7766 20.4598 27.9591 20.806 28.3347 20.9927C28.5319 21.0913 28.6893 20.9906 28.8131 20.8395C28.8802 20.7556 28.9327 20.6612 29.0292 20.5122C28.9348 21.1878 28.6599 21.6452 28.0137 21.8403C28.4312 22.0019 29.1991 21.7019 29.4887 21.278C29.8894 20.6885 30.0279 20.0234 30.0824 19.3352C30.1097 18.989 30.0887 18.6407 30.095 18.2924C30.1013 17.9609 30.1538 17.8896 30.4727 17.8413C30.7496 17.7973 31.0287 17.7049 31.2763 17.9672C31.3686 18.0637 31.549 18.0113 31.6812 17.9903C32.5393 17.8539 33.3345 18.1183 34.136 18.3533C34.2346 18.3826 34.3332 18.4267 34.4214 18.4771C34.7424 18.6596 34.8641 18.9135 34.8116 19.2785C34.7927 19.4149 34.7675 19.5492 34.7382 19.7275C34.9564 19.6205 34.992 19.4296 35.0361 19.2743C35.1032 19.0331 35.2438 19.0016 35.4494 19.0624C35.7495 19.1526 36.0306 19.2597 36.2677 19.4925C36.574 19.7968 36.9916 19.8492 37.3923 19.7611C38.3532 19.5492 39.2932 19.6667 40.2394 19.845C41.1983 20.0276 42.1718 20.1031 43.1453 20.1576C43.9468 20.2017 44.7189 20.0318 45.4785 19.7968C46.0135 19.631 46.559 19.6289 47.1087 19.6751C47.1444 19.6772 47.1926 19.6667 47.2115 19.6856C47.5094 19.9814 47.9563 19.9478 48.2836 20.1744C48.3802 20.2416 48.5459 20.3255 48.4872 20.4409C48.42 20.5731 48.227 20.5248 48.1137 20.4724C47.5241 20.2101 47.0772 20.5164 46.624 20.8165C46.5947 20.8353 46.5716 20.8626 46.5485 20.8878C46.5443 20.892 46.5485 20.9025 46.5569 20.9402C46.7919 20.9025 47.0248 20.8626 47.2598 20.827C47.3458 20.8144 47.4339 20.7955 47.5178 20.8039C47.6458 20.8165 47.7151 20.9151 47.7381 21.0305C47.7612 21.1438 47.6584 21.1689 47.5808 21.2046C47.5661 21.2109 47.5493 21.2193 47.5325 21.2235C46.9325 21.362 46.3345 21.5088 45.7323 21.6368C45.5183 21.6809 45.298 21.6494 45.0945 21.5571C44.4126 21.2445 43.6951 21.2655 42.9691 21.299C41.8487 21.3515 40.7871 21.7333 39.6855 21.876C38.7351 21.9998 37.7825 22.1131 36.8741 21.6536C36.6957 21.5634 36.4922 21.5382 36.2887 21.5424C35.8103 21.5508 35.3298 21.5487 34.8515 21.5655C34.4088 21.5802 34.0143 21.4438 33.6325 21.2403C33.4499 21.1417 33.4793 21.0535 33.6367 20.9717C33.8318 20.871 34.0122 20.7514 34.1738 20.6045C34.2388 20.5458 34.3878 20.4996 34.3039 20.3947C34.2262 20.2982 34.1339 20.4283 34.0689 20.4766C33.3828 20.978 32.6107 21.2759 31.7861 21.4606C31.5889 21.5046 31.5385 21.4606 31.549 21.2697C31.5616 21.0137 31.5532 20.7556 31.5532 20.4996C31.5301 20.4996 31.505 20.4954 31.4819 20.4954L31.4945 20.4975Z" fill="#494949"/>
<path d="M52.8472 34.5846C54.4669 34.4902 56.1727 35.8875 56.2357 37.8409C56.2986 39.7376 54.7586 41.2881 53.0171 41.3447C51.2442 41.4035 49.4797 40.1173 49.4524 38.0066C49.4294 36.2694 50.7931 34.5133 52.8472 34.5825V34.5846ZM52.3416 41.1433C53.057 41.2734 53.6822 41.1223 54.2865 40.8475C54.5467 40.73 54.8236 40.6146 54.8089 40.2453C54.8089 40.2034 54.8551 40.153 54.8866 40.1131C55.1362 39.7963 55.3335 39.4501 55.4342 39.0578C55.4698 38.9214 55.5349 38.8417 55.6881 38.8627C55.9063 38.8941 55.9818 38.7682 56.0049 38.5773C56.2503 36.5778 55.153 35.1972 53.3507 34.7482C53.2836 34.7315 53.206 34.7168 53.1535 34.7776C53.0507 34.8993 52.9416 34.8573 52.822 34.8133C52.6647 34.7545 52.4989 34.744 52.3332 34.7671C51.7415 34.8469 51.2107 35.0651 50.7575 35.4595C50.5421 35.6469 50.5148 35.8526 50.6756 36.0764C50.9631 36.475 50.9631 36.5358 50.6798 36.9429C50.5456 37.1359 50.4071 37.3331 50.3441 37.5576C50.2665 37.8346 50.1532 37.9773 49.8406 37.8723C49.6371 37.8031 49.5573 37.9038 49.5867 38.1178C49.6245 38.3864 49.679 38.6507 49.7651 38.9046C49.9812 39.5404 50.3357 40.0796 50.9211 40.4887C50.9379 40.1908 50.9568 39.9264 50.9652 39.662C50.9715 39.4963 51.0155 39.4124 51.2128 39.425C51.6387 39.4501 52.0646 39.4732 52.4884 39.3956C52.5744 39.3788 52.6542 39.3893 52.6647 39.4942C52.6919 39.8005 52.9038 40.0082 53.0717 40.2348C53.3025 40.5433 53.2983 40.5642 52.95 40.7405C52.7444 40.8454 52.5241 40.9293 52.3395 41.1433H52.3416Z" fill="#494949"/>
<path d="M53.2438 38.1263C53.2333 37.4906 52.9585 37.0122 52.5808 36.5821C52.4843 36.473 52.434 36.4394 52.6144 36.3555C52.9732 36.1918 53.29 35.9631 53.397 35.5477C53.4243 35.4428 53.4473 35.4323 53.5271 35.5037C53.8691 35.8079 54.2782 35.9967 54.6978 36.1646C54.8657 36.2317 54.9202 36.3135 54.9034 36.515C54.8699 36.901 54.8909 37.2955 54.9055 37.6836C54.9097 37.8137 54.9286 37.8598 54.7545 37.8389C54.4544 37.8032 54.1481 37.8179 53.8439 37.8263C53.6173 37.8326 53.4536 37.9962 53.2459 38.1242L53.2438 38.1263Z" fill="#494949"/>
</g>
<defs>
<clipPath id="clip0_454_6159">
<rect width="50.1115" height="34.833" fill="white" transform="translate(6.12646 13.3096)"/>
</clipPath>
</defs>
</svg>
