<svg width="56" height="56" viewBox="0 0 56 56" fill="none" xmlns="http://www.w3.org/2000/svg">
<path fill-rule="evenodd" clip-rule="evenodd" d="M38.3 48.5363C38.9708 49.0151 39.8353 49.1348 40.6062 48.8408C41.377 48.5447 41.9436 47.8811 42.1145 47.0768C43.9248 38.5003 48.3164 16.7926 49.9643 8.99111C50.0893 8.40311 49.8809 7.79201 49.4226 7.39931C48.9643 7.00661 48.3289 6.89321 47.7622 7.10531C39.027 10.3645 12.1256 20.539 1.12997 24.6403C0.432069 24.9007 -0.0220873 25.5769 0.000828843 26.3182C0.0258283 27.0616 0.52165 27.7063 1.23622 27.9226C6.16736 29.4094 12.6401 31.4779 12.6401 31.4779C12.6401 31.4779 15.6651 40.6864 17.2421 45.3695C17.44 45.9575 17.8963 46.4195 18.4983 46.5791C19.0983 46.7366 19.74 46.5707 20.1879 46.1444C22.7211 43.7336 26.6377 40.006 26.6377 40.006C26.6377 40.006 34.0792 45.506 38.3 48.5363ZM15.363 30.3145L18.8608 41.9443L19.6379 34.5796C19.6379 34.5796 33.1522 22.2925 40.8562 15.289C41.0812 15.0832 41.1124 14.7388 40.9249 14.4973C40.7395 14.2558 40.3978 14.1991 40.1416 14.3629C31.2126 20.1106 15.363 30.3145 15.363 30.3145Z" fill="black"/>
</svg>
