<svg width="62" height="62" viewBox="0 0 62 62" fill="none" xmlns="http://www.w3.org/2000/svg">
<path fill-rule="evenodd" clip-rule="evenodd" d="M25.0472 42.573C25.0472 42.573 25.0472 42.6758 25.0472 42.7216H27.4567V42.5274C27.4506 42.4743 27.4506 42.4207 27.4567 42.3675C27.4859 41.7357 27.5546 41.1065 27.6622 40.4834C27.7912 39.1724 28.1884 37.902 28.8287 36.7509C29.4691 35.5998 30.3391 34.5926 31.3848 33.7917C33.4088 35.5204 34.7425 37.9202 35.1418 40.5518C35.2443 41.1757 35.313 41.8048 35.3474 42.4361V42.7216H37.7568V42.573C37.7717 39.3136 36.5471 36.1704 34.3311 33.7802C33.0647 30.743 32.5589 27.4424 32.858 24.1653C32.995 21.0136 33.0978 16.9369 33.2234 13.7737C33.3459 12.0663 32.8062 10.3775 31.7161 9.05764C31.607 8.9381 31.4886 8.82741 31.362 8.72656C31.362 8.72656 31.0766 8.97778 31.008 9.05764C29.9164 10.3816 29.3728 12.0732 29.4894 13.7852C29.615 16.9369 29.7177 21.0136 29.8547 24.1767C30.1912 27.4537 29.6883 30.7627 28.393 33.7917C26.1977 36.1981 25.0014 39.3503 25.0472 42.6073V42.573ZM45.0194 13.2372H44.8596L44.5398 13.4084C43.1268 14.2655 41.8778 15.3674 40.8514 16.6629C38.8559 19.2267 37.6887 22.3375 37.5056 25.5812C37.3572 27.3398 37.1059 29.087 36.9118 30.8455C36.809 31.7362 36.7176 32.627 36.6263 33.5175C37.013 33.4559 37.4088 33.488 37.7804 33.6113C38.152 33.7345 38.4885 33.9452 38.7618 34.2256C39.1486 34.5577 39.3902 35.0278 39.4349 35.5356C39.4799 36.0435 39.3243 36.5487 39.0015 36.9434C38.6491 37.3151 38.2359 37.6242 37.7797 37.8569C38.0342 38.5781 38.229 39.3191 38.362 40.0723H38.4991C39.3608 39.8199 40.1292 39.3193 40.7081 38.6329C41.2869 37.9465 41.6505 37.1046 41.7536 36.2125C41.8377 35.3484 41.6661 34.4786 41.26 33.7112C40.854 32.9439 40.2314 32.3126 39.4697 31.8961C39.3529 31.85 39.2564 31.7638 39.1977 31.6528C39.1391 31.5417 39.1221 31.4133 39.1499 31.2908C39.3898 29.3382 39.6411 27.3855 39.8237 25.4328C39.9898 23.6481 40.4856 21.9096 41.2853 20.3055C41.7149 19.5187 42.1877 18.7564 42.7014 18.0218V43.6464H33.4518V45.7134H35.0049C34.6557 47.4475 33.7968 49.0379 32.5383 50.281V43.2696C32.6491 42.8539 32.8751 42.4779 33.1903 42.1849C33.5054 41.892 33.8968 41.6939 34.3196 41.6139L34.5024 41.5567C34.5024 41.2256 34.4224 40.9516 34.4109 40.8145C34.3537 40.3721 34.2699 39.9336 34.1597 39.5013L33.6345 39.6725C32.811 40.0736 32.0432 40.5803 31.3507 41.1798C30.6551 40.5842 29.8879 40.0779 29.0668 39.6725L28.6215 39.5013C28.5096 39.9485 28.4257 40.4024 28.3702 40.8602C28.3702 40.9972 28.3132 41.2713 28.2789 41.6024L28.4616 41.6595C28.8781 41.7388 29.2643 41.9327 29.5768 42.219C29.8893 42.5053 30.1161 42.8731 30.2316 43.2811V50.3038C28.9891 49.0504 28.1364 47.4639 27.7765 45.7362H29.3295V43.6464H20.0684V17.9875C20.0684 17.9875 21.1076 19.5176 21.4844 20.2712C22.2754 21.8787 22.7706 23.6156 22.9461 25.3986C23.1175 27.3512 23.3687 29.3039 23.6084 31.2566C23.6394 31.3778 23.6253 31.506 23.5686 31.6173C23.5118 31.7288 23.4164 31.8158 23.3001 31.8618C22.5344 32.2737 21.9084 32.9041 21.5018 33.6727C21.0951 34.4412 20.926 35.3134 21.0162 36.1783C21.1194 37.0703 21.4829 37.9122 22.0618 38.5986C22.6406 39.285 23.409 39.7857 24.2707 40.038H24.3963C24.5211 39.2617 24.7122 38.4978 24.9673 37.7541C24.5147 37.5155 24.1025 37.2072 23.7455 36.8406C23.4269 36.4434 23.2751 35.938 23.322 35.431C23.3687 34.924 23.6107 34.4548 23.9967 34.1228C24.2665 33.8409 24.6008 33.629 24.9709 33.5057C25.341 33.3824 25.7357 33.3511 26.1206 33.4149C26.0065 32.6498 26.0065 31.7477 25.8581 30.857C25.6639 29.0984 25.4012 27.3512 25.2643 25.5927C25.0834 22.3449 23.916 19.2298 21.9184 16.6629C20.8926 15.3712 19.6481 14.2696 18.2414 13.4084L17.9103 13.2372H17.7617V45.7134H25.2984C25.7098 47.3834 26.463 48.95 27.5107 50.314C28.5583 51.6781 29.8775 52.8101 31.3848 53.6382C32.9125 52.8334 34.2489 51.709 35.3031 50.3415C36.3572 48.974 37.1046 47.3955 37.4942 45.7134H45.0194V13.2372Z" fill="#494949"/>
</svg>
