<svg width="48" height="48" viewBox="0 0 48 48" fill="none" xmlns="http://www.w3.org/2000/svg">
<path d="M48 24C48 30.2982 45.5243 36.344 41.1068 40.8332C36.6894 45.3225 30.6843 47.8953 24.3869 47.9969C18.0896 48.0984 12.0046 45.7205 7.44476 41.376C2.88489 37.0315 0.215521 31.0686 0.0124753 24.7737C-0.19057 18.4788 2.08898 12.3564 6.3594 7.72704C10.6298 3.09772 16.5488 0.332569 22.8397 0.0280664C29.1305 -0.276436 35.2889 1.90411 39.9865 6.09935C44.684 10.2946 47.5442 16.1683 47.9501 22.4533L40.7599 22.9177C40.4759 18.5195 38.4744 14.4091 35.1871 11.4734C31.8998 8.53762 27.5902 7.0117 23.188 7.22479C18.7858 7.43787 14.6437 9.37289 11.6554 12.6124C8.66698 15.852 7.07179 20.1364 7.21388 24.5414C7.35597 28.9465 9.22395 33.1192 12.4149 36.1594C15.6058 39.1997 19.864 40.8637 24.2708 40.7927C28.6776 40.7216 32.8798 38.9211 35.9711 35.7796C39.0624 32.6381 40.7949 28.4074 40.7949 24L48 24Z" fill="#298AB1"/>
</svg>
