<svg width="18" height="16" viewBox="0 0 18 16" fill="none" xmlns="http://www.w3.org/2000/svg">
<path fill-rule="evenodd" clip-rule="evenodd" d="M0.492188 1.80457C0.492188 1.25228 0.939903 0.804565 1.49219 0.804565H16.6388C17.1911 0.804565 17.6388 1.25228 17.6388 1.80457C17.6388 2.35685 17.1911 2.80457 16.6388 2.80457H1.49219C0.939903 2.80457 0.492188 2.35685 0.492188 1.80457Z" fill="white"/>
<path fill-rule="evenodd" clip-rule="evenodd" d="M0.492188 8.02869C0.492188 7.4764 0.939903 7.02869 1.49219 7.02869H16.6388C17.1911 7.02869 17.6388 7.4764 17.6388 8.02869C17.6388 8.58097 17.1911 9.02869 16.6388 9.02869H1.49219C0.939903 9.02869 0.492188 8.58097 0.492188 8.02869Z" fill="white"/>
<path fill-rule="evenodd" clip-rule="evenodd" d="M0.492188 14.2528C0.492188 13.7005 0.939903 13.2528 1.49219 13.2528H16.6388C17.1911 13.2528 17.6388 13.7005 17.6388 14.2528C17.6388 14.8051 17.1911 15.2528 16.6388 15.2528H1.49219C0.939903 15.2528 0.492188 14.8051 0.492188 14.2528Z" fill="white"/>
</svg>
