<svg width="17" height="16" viewBox="0 0 17 16" fill="none" xmlns="http://www.w3.org/2000/svg">
<path d="M11.0549 7.84333C11.0549 9.25963 9.89976 10.4148 8.48347 10.4148C7.06717 10.4148 5.91204 9.25963 5.91204 7.84333C5.91204 6.42704 7.06717 5.2719 8.48347 5.2719C9.89976 5.2719 11.0549 6.42704 11.0549 7.84333ZM12.4411 7.84333C12.4411 5.6536 10.6732 3.88574 8.48347 3.88574C6.29374 3.88574 4.52588 5.6536 4.52588 7.84333C4.52588 10.0331 6.29374 11.8009 8.48347 11.8009C10.6732 11.8009 12.4411 10.0331 12.4411 7.84333ZM13.5259 3.72503C13.5259 3.21275 13.114 2.80092 12.6018 2.80092C12.0895 2.80092 11.6777 3.21275 11.6777 3.72503C11.6777 4.2373 12.0895 4.64914 12.6018 4.64914C13.114 4.64914 13.5259 4.2373 13.5259 3.72503ZM8.48347 1.51521C9.60847 1.51521 12.0192 1.4248 13.0337 1.82659C13.3853 1.96722 13.6464 2.13797 13.9176 2.40918C14.1888 2.68039 14.3596 2.94155 14.5002 3.29311C14.902 4.30762 14.8116 6.71833 14.8116 7.84333C14.8116 8.96833 14.902 11.379 14.5002 12.3936C14.3596 12.7451 14.1888 13.0063 13.9176 13.2775C13.6464 13.5487 13.3853 13.7194 13.0337 13.8601C12.0192 14.2619 9.60847 14.1715 8.48347 14.1715C7.35847 14.1715 4.94775 14.2619 3.93325 13.8601C3.58168 13.7194 3.32052 13.5487 3.04932 13.2775C2.77811 13.0063 2.60735 12.7451 2.46673 12.3936C2.06494 11.379 2.15534 8.96833 2.15534 7.84333C2.15534 6.71833 2.06494 4.30762 2.46673 3.29311C2.60735 2.94155 2.77811 2.68039 3.04932 2.40918C3.32052 2.13797 3.58168 1.96722 3.93325 1.82659C4.94775 1.4248 7.35847 1.51521 8.48347 1.51521ZM16.1978 7.84333C16.1978 6.7786 16.2078 5.72391 16.1475 4.65918C16.0873 3.42369 15.806 2.32882 14.902 1.4248C13.998 0.520787 12.9031 0.239537 11.6676 0.17927C10.6029 0.119001 9.5482 0.129046 8.48347 0.129046C7.41874 0.129046 6.36405 0.119001 5.29932 0.17927C4.06383 0.239537 2.96896 0.520787 2.06494 1.4248C1.16092 2.32882 0.879674 3.42369 0.819406 4.65918C0.759138 5.72391 0.769182 6.7786 0.769182 7.84333C0.769182 8.90806 0.759138 9.96275 0.819406 11.0275C0.879674 12.263 1.16092 13.3578 2.06494 14.2619C2.96896 15.1659 4.06383 15.4471 5.29932 15.5074C6.36405 15.5677 7.41874 15.5576 8.48347 15.5576C9.5482 15.5576 10.6029 15.5677 11.6676 15.5074C12.9031 15.4471 13.998 15.1659 14.902 14.2619C15.806 13.3578 16.0873 12.263 16.1475 11.0275C16.2078 9.96275 16.1978 8.90806 16.1978 7.84333Z" fill="white"/>
</svg>
