<svg width="134" height="36" viewBox="0 0 134 36" fill="none" xmlns="http://www.w3.org/2000/svg">
<path fill-rule="evenodd" clip-rule="evenodd" d="M9.39424 2.8552C8.92611 2.8552 8.4626 3.22527 8.35897 3.68179L8.00904 5.22325C7.90293 5.69071 7.48739 6.02248 7.00804 6.02248C6.34943 6.02248 5.86123 5.41103 6.00703 4.76877L6.35696 3.22731C6.67283 1.83587 7.9674 0.802246 9.39424 0.802246H126.995C129.464 0.802246 131.639 1.79186 133.044 3.55057C133.327 3.90559 133.573 4.28432 133.78 4.68254C134.115 5.32453 133.593 6.02248 132.869 6.02248C132.429 6.02248 132.042 5.75144 131.816 5.37387C130.896 3.83796 129.175 2.8552 126.995 2.8552H9.39424ZM1.69553 29.3826C2.12025 29.3826 2.43509 29.7769 2.34106 30.1911C2.2964 30.3879 2.42374 30.5474 2.6255 30.5474H16.4023C16.7945 30.5474 17.0484 30.9799 16.9616 31.3624C16.8598 31.8109 16.8808 32.2327 17.0028 32.6003C17.269 33.4028 18.0163 33.947 19.0171 33.947C20.4763 33.947 21.922 32.7899 22.246 31.3624C22.2694 31.2595 22.2863 31.1579 22.297 31.0581C22.3261 30.7868 22.5359 30.5474 22.8087 30.5474H27.6733C28.0655 30.5474 28.3194 30.9799 28.2326 31.3624C28.1308 31.8109 28.1518 32.2327 28.2738 32.6003C28.54 33.4028 29.2873 33.947 30.2881 33.947C31.7473 33.947 33.193 32.7899 33.517 31.3624C33.5404 31.2595 33.5573 31.1579 33.568 31.0581C33.5971 30.7868 33.8069 30.5474 34.0797 30.5474H109.75C110.143 30.5474 110.397 30.9799 110.31 31.3624C110.208 31.8109 110.229 32.2327 110.351 32.6003C110.617 33.4028 111.364 33.947 112.365 33.947C113.824 33.947 115.27 32.7899 115.594 31.3624C115.618 31.2594 115.634 31.1579 115.645 31.058C115.674 30.7868 115.884 30.5474 116.157 30.5474H127.425C127.537 30.5474 127.648 30.4588 127.673 30.3495L127.711 30.1819C127.817 29.7144 128.233 29.3826 128.712 29.3826C129.371 29.3826 129.859 29.9941 129.713 30.6363L129.675 30.8039C129.438 31.8482 128.496 32.6003 127.425 32.6003H123.73C119.869 32.6003 116.226 36 112.365 36C111.075 36 109.862 35.4745 109.062 34.4679C108.323 33.5387 107.371 32.6003 106.184 32.6003H41.6526C37.7919 32.6003 34.1488 36 30.2881 36C28.9983 36 27.7853 35.4745 26.9848 34.4679C26.8062 34.2433 26.6555 34.004 26.5324 33.7539C26.2235 33.1264 25.6531 32.6003 24.9536 32.6003C24.3766 32.6003 23.8707 32.9593 23.5588 33.4448C22.5824 34.9641 20.842 36 19.0171 36C17.7273 36 16.5143 35.4745 15.7138 34.4679C14.9748 33.5387 14.023 32.6003 12.8358 32.6003H2.6255C1.96683 32.6003 1.26729 32.3261 0.786548 31.724C0.305807 31.1218 0.193237 30.379 0.339048 29.7367C0.386053 29.5296 0.570112 29.3826 0.782443 29.3826H1.69553Z" fill="url(#paint0_angular)"/>
<defs>
<radialGradient id="paint0_angular" cx="0" cy="0" r="1" gradientUnits="userSpaceOnUse" gradientTransform="translate(53.2325 55.5656) rotate(35.2857) scale(89.0669 174.941)">
<stop offset="0.05825" stop-color="#FF006B"/>
<stop offset="0.490696" stop-color="#0079E9"/>
<stop offset="0.945178" stop-color="#ED0047"/>
<stop offset="0.954218" stop-color="#E37D66"/>
</radialGradient>
</defs>
</svg>
