<svg width="15" height="10" viewBox="0 0 15 10" fill="none" xmlns="http://www.w3.org/2000/svg">
<g opacity="0.5">
<path d="M9.3252 4.86317L14.045 7.82573V1.77551L9.3252 4.86317Z" fill="white"/>
<path d="M0.0449219 1.77551V7.82573L4.76465 4.86317L0.0449219 1.77551Z" fill="white"/>
<path d="M13.1703 0.0136719H0.920284C0.483658 0.0136719 0.137158 0.33686 0.0715332 0.753007L7.04529 5.31499L14.019 0.753007C13.9534 0.33686 13.6069 0.0136719 13.1703 0.0136719Z" fill="white"/>
<path d="M8.52397 5.38795L7.28585 6.19766C7.21235 6.24544 7.12923 6.2689 7.04523 6.2689C6.96123 6.2689 6.8781 6.24544 6.8046 6.19766L5.56648 5.38708L0.0732422 8.83703C0.140617 9.2497 0.485366 9.57028 0.92024 9.57028H13.1702C13.6051 9.57028 13.9498 9.2497 14.0172 8.83703L8.52397 5.38795Z" fill="white"/>
</g>
</svg>
