<svg width="17" height="17" viewBox="0 0 17 17" fill="none" xmlns="http://www.w3.org/2000/svg">
<path d="M16.1739 0.179392C16.0846 0.116892 15.9685 0.0811768 15.8524 0.0811768C15.7542 0.0811768 15.656 0.107963 15.5667 0.161534L0.709571 8.73296C0.522071 8.84011 0.414928 9.04546 0.423857 9.25975C0.441714 9.48296 0.575643 9.67046 0.781 9.75082L4.30779 11.1972L13.8524 2.93832L6.13814 12.3937V15.5098C6.13814 15.7508 6.28993 15.9651 6.51314 16.0455C6.57564 16.0722 6.64707 16.0812 6.70957 16.0812C6.87921 16.0812 7.03993 16.0097 7.14707 15.8758L9.30779 13.2419L13.3524 14.8937C13.4239 14.9205 13.4953 14.9383 13.5667 14.9383C13.6649 14.9383 13.7631 14.9115 13.8435 14.8669C13.9953 14.7776 14.1024 14.6347 14.1292 14.4651L16.4149 0.75082C16.4506 0.527606 16.3614 0.31332 16.1739 0.179392Z" fill="white"/>
</svg>
