<svg width="18" height="20" viewBox="0 0 18 20" fill="none" xmlns="http://www.w3.org/2000/svg">
<path fill-rule="evenodd" clip-rule="evenodd" d="M4.00006 14H11.0001V16H4.00006V14ZM4.00006 9.99997H14.0001V12H4.00006V9.99997ZM4.00006 5.99996H14.0001V7.99996H4.00006V5.99996ZM16 2H11.82C11.4 0.84 10.3 0 9 0C7.7 0 6.6 0.84 6.18 2H2C1.86 2 1.73 2.01 1.6 2.04C1.21 2.12 0.86 2.32 0.59 2.59C0.41 2.77 0.26 2.99 0.16 3.23C0.06 3.46 0 3.72 0 4V18C0 18.27 0.06 18.54 0.16 18.78C0.26 19.02 0.41 19.23 0.59 19.42C0.86 19.69 1.21 19.89 1.6 19.97C1.73 19.99 1.86 20 2 20H16C17.1 20 18 19.1 18 18V4C18 2.9 17.1 2 16 2ZM9.00003 1.75002C9.41003 1.75002 9.75003 2.09002 9.75003 2.50002C9.75003 2.91002 9.41003 3.25002 9.00003 3.25002C8.59003 3.25002 8.25003 2.91002 8.25003 2.50002C8.25003 2.09002 8.59003 1.75002 9.00003 1.75002ZM16 18H2.00003V4.00001H16V18Z" fill="#1D1D1D"/>
</svg>
