<svg width="91" height="10" viewBox="0 0 91 10" fill="none" xmlns="http://www.w3.org/2000/svg">
<path fill-rule="evenodd" clip-rule="evenodd" d="M32.1598 9.81135H29.8513L34.3901 0.199341H34.7854L39.3145 9.81135H37.006L36.3984 8.51315H32.7747L32.1598 9.81135ZM33.6727 6.60735H35.498L34.5853 4.67226L33.6727 6.60735Z" fill="#E5D7C3"/>
<path fill-rule="evenodd" clip-rule="evenodd" d="M70.681 9.81135H64.6635V0.199341H67.0012V7.92018H70.681V9.81135Z" fill="#E5D7C3"/>
<path fill-rule="evenodd" clip-rule="evenodd" d="M74.9589 9.81135V2.09051H72.2942V0.199341H79.9613V2.09051H77.2966V9.81135H74.9589Z" fill="#E5D7C3"/>
<path d="M58.2407 0.199341V5.96313C58.2407 6.41616 58.0608 6.85064 57.7404 7.17098C57.4201 7.49132 56.9856 7.67128 56.5326 7.67128C56.0795 7.67128 55.6451 7.49132 55.3247 7.17098C55.0044 6.85064 54.8244 6.41616 54.8244 5.96313V0.199341H52.494V5.96313C52.5199 7.01543 52.9561 8.01592 53.7095 8.75102C54.4629 9.48613 55.4739 9.8976 56.5265 9.8976C57.5791 9.8976 58.59 9.48613 59.3434 8.75102C60.0968 8.01592 60.533 7.01543 60.5589 5.96313V0.199341H58.2407Z" fill="#E5D7C3"/>
<path fill-rule="evenodd" clip-rule="evenodd" d="M12.838 9.81137H10.5295L15.066 0.199341H15.4662L19.9952 9.81137H17.6868L17.0743 8.51317H13.4505L12.838 9.81137ZM14.351 6.60736H16.1763L15.2636 4.67227L14.351 6.60736Z" fill="#E5D7C3"/>
<path fill-rule="evenodd" clip-rule="evenodd" d="M83.5902 9.81135H81.2793L85.8181 0.199341H86.2183L90.7473 9.81135H88.4389L87.824 8.51315H84.2002L83.5902 9.81135ZM85.1007 6.60735H86.926L86.0133 4.67226L85.1007 6.60735Z" fill="#E5D7C3"/>
<path fill-rule="evenodd" clip-rule="evenodd" d="M23.4994 9.81135V2.09051H20.8323V0.199341H28.5019V2.09051H25.8372V9.81135H23.4994Z" fill="#E5D7C3"/>
<path d="M7.07931 6.69766C6.72921 7.12716 6.25476 7.4378 5.72109 7.58692C5.18741 7.73604 4.62066 7.71635 4.09863 7.53054C3.57659 7.34473 3.12485 7.00191 2.80541 6.54914C2.48597 6.09636 2.31448 5.55582 2.31448 5.00171C2.31448 4.44759 2.48597 3.90705 2.80541 3.45428C3.12485 3.00151 3.57659 2.65869 4.09863 2.47288C4.62066 2.28708 5.18741 2.26738 5.72109 2.4165C6.25476 2.56563 6.72921 2.87626 7.07931 3.30576L7.13788 3.37897L8.61664 1.54636L8.56784 1.49756C7.87229 0.789119 6.98158 0.303785 6.00919 0.103397C5.03681 -0.096992 4.02678 -0.00336217 3.10781 0.372358C2.18883 0.748078 1.40251 1.38888 0.849038 2.2131C0.295566 3.03733 0 4.00768 0 5.00049C0 5.99331 0.295566 6.96365 0.849038 7.78788C1.40251 8.6121 2.18883 9.2529 3.10781 9.62862C4.02678 10.0043 5.03681 10.098 6.00919 9.89758C6.98158 9.69719 7.87229 9.21186 8.56784 8.50342L8.61664 8.45462L7.13788 6.62445L7.07931 6.69766Z" fill="#E5D7C3"/>
<path fill-rule="evenodd" clip-rule="evenodd" d="M46.1346 0.199337H42.0253V9.81135H44.363V7.02462H46.1346C47.0406 7.02462 47.9096 6.66469 48.5503 6.02401C49.191 5.38333 49.5509 4.51438 49.5509 3.60832C49.5509 2.70226 49.191 1.83331 48.5503 1.19263C47.9096 0.551948 47.0406 0.192017 46.1346 0.192017V0.199337ZM45.8906 5.13345H44.3679V2.11247H45.8906C46.2856 2.11505 46.6634 2.27428 46.9411 2.55519C47.2188 2.83611 47.3737 3.21575 47.3718 3.61076C47.375 4.00928 47.2207 4.39295 46.9423 4.67817C46.664 4.96338 46.2842 5.12703 45.8857 5.13345H45.8906Z" fill="#E5D7C3"/>
</svg>
