<svg width="39" height="39" viewBox="0 0 39 39" fill="none" xmlns="http://www.w3.org/2000/svg">
<path d="M19.3664 9.29199C13.9004 9.29199 9.37134 13.7429 9.37134 19.2871C9.37134 24.8313 13.8223 29.2822 19.3664 29.2822C24.9106 29.2822 29.3616 24.7532 29.3616 19.2871C29.3616 13.821 24.8325 9.29199 19.3664 9.29199ZM19.3664 25.6902C15.8525 25.6902 12.9633 22.801 12.9633 19.2871C12.9633 15.7732 15.8525 12.884 19.3664 12.884C22.8804 12.884 25.7696 15.7732 25.7696 19.2871C25.7696 22.801 22.8804 25.6902 19.3664 25.6902Z" fill="#242E45"/>
<path d="M29.7513 11.3222C31.002 11.3222 32.0159 10.3084 32.0159 9.05773C32.0159 7.80707 31.002 6.79321 29.7513 6.79321C28.5007 6.79321 27.4868 7.80707 27.4868 9.05773C27.4868 10.3084 28.5007 11.3222 29.7513 11.3222Z" fill="#242E45"/>
<path d="M35.6076 3.20156C33.5773 1.09321 30.6881 0 27.4085 0H11.3226C4.52903 0 0 4.52903 0 11.3226V27.3304C0 30.6881 1.09321 33.5773 3.27964 35.6857C5.38799 37.7159 8.19911 38.731 11.4007 38.731H27.3304C30.6881 38.731 33.4992 37.6378 35.5295 35.6857C37.6378 33.6554 38.731 30.7662 38.731 27.4085V11.3226C38.731 8.04294 37.6378 5.23181 35.6076 3.20156ZM35.2952 27.4085C35.2952 29.8291 34.4363 31.7813 33.0307 33.1088C31.6251 34.4363 29.673 35.139 27.3304 35.139H11.4007C9.05807 35.139 7.1059 34.4363 5.70033 33.1088C4.29477 31.7032 3.59199 29.7511 3.59199 27.3304V11.3226C3.59199 8.97998 4.29477 7.02781 5.70033 5.62225C7.02781 4.29477 9.05807 3.59199 11.4007 3.59199H27.4865C29.8291 3.59199 31.7813 4.29477 33.1869 5.70033C34.5144 7.1059 35.2952 9.05806 35.2952 11.3226V27.4085Z" fill="#242E45"/>
</svg>
