<svg width="60" height="68" viewBox="0 0 60 68" fill="none" xmlns="http://www.w3.org/2000/svg">
<mask id="path-1-inside-1" fill="white">
<path fill-rule="evenodd" clip-rule="evenodd" d="M60 0H0V60H21.5147L29.4853 67.9706L37.4558 60H60V0Z"/>
</mask>
<path fill-rule="evenodd" clip-rule="evenodd" d="M60 0H0V60H21.5147L29.4853 67.9706L37.4558 60H60V0Z" fill="white"/>
<path d="M0 0V-3H-3V0H0ZM60 0H63V-3H60V0ZM0 60H-3V63H0V60ZM21.5147 60L23.636 57.8787L22.7574 57H21.5147V60ZM29.4853 67.9706L27.364 70.0919L29.4853 72.2132L31.6066 70.0919L29.4853 67.9706ZM37.4558 60V57H36.2132L35.3345 57.8787L37.4558 60ZM60 60V63H63V60H60ZM0 3H60V-3H0V3ZM3 60V0H-3V60H3ZM21.5147 57H0V63H21.5147V57ZM31.6066 65.8492L23.636 57.8787L19.3934 62.1213L27.364 70.0919L31.6066 65.8492ZM35.3345 57.8787L27.364 65.8492L31.6066 70.0919L39.5772 62.1213L35.3345 57.8787ZM60 57H37.4558V63H60V57ZM57 0V60H63V0H57Z" fill="#232323" mask="url(#path-1-inside-1)"/>
<path d="M26.6971 19H27.5377C28.5254 19.0777 29.5532 19.3482 30.2912 20.0445C31.0818 20.7713 31.4286 21.8658 31.4341 22.9186C31.4424 24.7565 31.4341 26.5944 31.4369 28.4323C31.4563 29.6904 31.4522 31.047 30.7447 32.1442C30.1372 33.1305 28.9803 33.6174 27.8651 33.7172C26.5834 33.8337 25.163 33.7158 24.1227 32.8822C23.0948 32.0569 22.7661 30.6684 22.7605 29.4075C22.7578 27.2297 22.755 25.0506 22.7619 22.8728C22.7689 21.8311 23.1253 20.7505 23.9132 20.0376C24.665 19.344 25.6998 19.0749 26.6971 19ZM26.5376 21.734C26.1687 21.9185 25.98 22.3374 25.9869 22.7383C25.9828 25.1407 25.9814 27.5446 25.9883 29.9471C25.9634 30.5421 26.4183 31.1428 27.0425 31.1538C27.7 31.2038 28.2382 30.581 28.2063 29.9457C28.2202 27.6389 28.2049 25.3322 28.2133 23.024C28.2105 22.7147 28.216 22.3818 28.0454 22.1085C27.75 21.605 27.037 21.4649 26.5376 21.734Z" fill="#232323"/>
<path d="M47.4587 19H48.0302C49.0636 19.0596 50.1455 19.3454 50.9071 20.0875C51.5881 20.7367 51.9141 21.6716 52.0001 22.5926V29.7862C51.9196 30.8348 51.645 31.9473 50.8599 32.7005C50.0318 33.5105 48.8208 33.7547 47.7001 33.7561C46.5404 33.7658 45.2851 33.5092 44.4404 32.6575C43.6012 31.8072 43.3362 30.5629 43.3307 29.4047C43.3307 27.2311 43.3293 25.0575 43.3321 22.8839C43.3334 21.8491 43.6844 20.7741 44.4598 20.0584C45.2615 19.3107 46.3865 19.0319 47.4587 19ZM47.2992 21.6563C46.8234 21.7798 46.5321 22.2736 46.5571 22.7494C46.5557 25.1532 46.5529 27.5571 46.5585 29.9609C46.5293 30.5851 47.0509 31.1968 47.6973 31.1538C48.3159 31.1511 48.7903 30.5629 48.7723 29.9665C48.7792 27.607 48.7709 25.2462 48.7765 22.8853C48.7792 22.6204 48.757 22.3429 48.6156 22.1113C48.3589 21.6688 47.7708 21.501 47.2992 21.6563Z" fill="#232323"/>
<path d="M9 19.2782C10.4967 19.2782 11.992 19.2768 13.4887 19.2782C13.8216 21.112 14.1559 22.9457 14.4916 24.7795C14.7884 26.3455 14.8272 27.9449 15.0353 29.522C15.2337 27.7964 15.3044 26.0528 15.6429 24.3453C15.9508 22.6572 16.2587 20.9677 16.5653 19.2796C18.0634 19.2768 19.5614 19.2782 21.0595 19.2782C21.0609 23.9819 21.0595 28.687 21.0595 33.392C20.0331 33.392 19.008 33.392 17.9815 33.392C17.9552 29.6787 17.9996 25.9655 18.1161 22.2549C17.5141 25.9752 16.7942 29.6774 16.1492 33.3906C15.4015 33.3934 14.6539 33.392 13.9062 33.3906C13.3028 30.0255 12.6994 26.6604 12.0946 23.2953C12.0378 22.9568 12.0017 22.6142 11.9601 22.2744C11.9171 23.1593 11.9892 24.0429 12.0086 24.9279C12.1016 27.7479 12.0738 30.5707 12.078 33.392C11.0515 33.392 10.0265 33.392 9 33.392V19.2782Z" fill="#232323"/>
<path d="M33.154 19.2792C34.9073 19.282 36.6606 19.2709 38.4139 19.2847C39.4958 19.3028 40.6194 19.7924 41.1964 20.7398C41.8636 21.8204 41.8165 23.1728 41.5959 24.3768C41.4336 25.2868 40.7748 26.0427 39.9356 26.4048C40.8178 26.66 41.4711 27.4659 41.5529 28.38C41.6472 29.5882 41.5404 30.8033 41.6112 32.0128C41.6348 32.3915 41.7554 32.8423 42.166 32.9658C42.1674 33.0726 42.1688 33.2862 42.1702 33.393C41.1534 33.3778 40.1339 33.4235 39.1172 33.3708C38.6136 33.2918 38.4347 32.7328 38.4 32.293C38.3085 31.1681 38.4083 30.0362 38.3445 28.9113C38.3223 28.5589 38.1684 28.1789 37.8271 28.0263C37.3722 27.8279 36.8603 27.9056 36.379 27.8876C36.379 29.7227 36.379 31.5579 36.379 33.393C35.3026 33.393 34.2276 33.393 33.1526 33.393C33.154 28.6879 33.1512 23.9829 33.154 19.2792ZM36.3776 25.3464C36.8936 25.3228 37.4734 25.4477 37.9298 25.1411C38.3862 24.8179 38.4943 24.2145 38.511 23.6916C38.5179 23.1423 38.4541 22.5167 38.0324 22.1186C37.5858 21.7066 36.9311 21.8453 36.379 21.819C36.3762 22.9953 36.3804 24.1701 36.3776 25.3464Z" fill="#232323"/>
<path d="M16.288 35.0211C16.7139 34.6508 17.3714 34.8463 17.6363 35.3138C17.6308 35.1876 17.6266 35.0614 17.6224 34.9351C17.9553 34.9337 18.2896 34.9337 18.6225 34.9351C18.6087 36.3278 18.6544 37.7232 18.6017 39.1145C18.5795 39.6707 18.0719 40.0536 17.5434 40.0841H17.0551C16.4254 40.0757 15.8996 39.5875 15.926 38.9411C16.2714 38.9397 16.6154 38.9397 16.9608 38.9383C16.9802 39.0188 17.0204 39.1811 17.0398 39.2629C17.2118 39.2823 17.5461 39.3753 17.5614 39.102C17.5961 38.8315 17.585 38.5583 17.5947 38.2864C17.2604 38.6221 16.6903 38.8232 16.2866 38.4847C15.8012 38.0478 15.9773 37.3293 15.9426 36.7522C15.9843 36.1766 15.7817 35.4484 16.288 35.0211ZM17.069 35.809C16.8887 36.325 16.9982 36.9076 16.9899 37.4486C16.9219 37.8023 17.499 37.9341 17.56 37.5776C17.6002 37.0324 17.5989 36.479 17.56 35.9338C17.5337 35.7105 17.2049 35.6315 17.069 35.809Z" fill="#232323"/>
<path d="M23.8019 35.4498C23.9683 35.1294 24.2166 34.8243 24.6078 34.8021C24.6147 35.2043 24.6147 35.6066 24.6161 36.0088C24.3151 36.0324 23.9336 36.1309 23.899 36.4902C23.8296 37.2517 23.8865 38.0188 23.8684 38.7831C23.5244 38.7845 23.1804 38.7845 22.8364 38.7831C22.8364 37.5 22.8364 36.2183 22.8364 34.9352C23.161 34.9338 23.4842 34.9338 23.8088 34.9338C23.8074 35.0628 23.8032 35.3208 23.8019 35.4498Z" fill="#232323"/>
<path d="M29.3197 34.9184C29.876 34.7478 30.6167 34.7741 30.987 35.2874C31.3504 35.8408 31.2201 36.5385 31.2478 37.1627C31.2603 37.7259 31.2048 38.4319 30.6444 38.7302C30.0688 38.9909 29.2393 38.9701 28.8301 38.4264C28.4278 37.8091 28.604 37.0296 28.5679 36.3374C28.5443 35.7839 28.733 35.1056 29.3197 34.9184ZM29.6831 35.7715C29.5361 36.1723 29.636 36.6148 29.6069 37.0351C29.629 37.3431 29.5403 37.6871 29.6998 37.9686C29.8787 38.167 30.22 38.0033 30.195 37.7453C30.2075 37.1364 30.2255 36.5247 30.1853 35.9157C30.1728 35.6702 29.8357 35.6092 29.6831 35.7715Z" fill="#232323"/>
<path d="M43.1547 35.3497C43.385 35.0668 43.6901 34.7658 44.0924 34.8296C44.564 34.8615 44.8567 35.3331 44.883 35.7686C44.9177 36.4719 44.9024 37.1766 44.8941 37.8812C44.8997 38.3889 44.496 38.9229 43.9523 38.8882C43.6596 38.891 43.4599 38.6566 43.2629 38.4763C43.2754 39.0117 43.2684 39.5485 43.2698 40.0839H42.2295C42.2295 38.3667 42.2295 36.6508 42.2295 34.935C42.543 34.9336 42.8565 34.935 43.17 34.935C43.1658 35.039 43.1589 35.2457 43.1547 35.3497ZM43.335 35.8408C43.1991 36.3623 43.299 36.9186 43.2698 37.454C43.2698 37.6509 43.2573 38.0005 43.5348 38.0116C43.7817 38.0754 43.8788 37.7744 43.8621 37.5858C43.8621 37.0337 43.9037 36.4747 43.8316 35.9268C43.7886 35.6896 43.4571 35.6424 43.335 35.8408Z" fill="#232323"/>
<path d="M35.4092 38.238C35.3926 37.1339 35.3842 36.027 35.4148 34.9229C35.756 34.9367 36.0972 34.9367 36.4384 34.9353C36.4468 35.8689 36.426 36.8038 36.4482 37.7387C36.4052 38.0494 36.9253 38.1271 36.9642 37.8164C37.0127 36.8579 36.9697 35.8952 36.985 34.9353C37.329 34.9339 37.673 34.9339 38.017 34.9353C38.017 36.217 38.0156 37.5001 38.017 38.7832C37.691 38.7846 37.3664 38.7846 37.0418 38.7832C37.046 38.6736 37.0543 38.4558 37.0571 38.3462C36.8185 39.0953 35.4508 39.0897 35.4092 38.238Z" fill="#232323"/>
</svg>
