<svg width="74" height="36" viewBox="0 0 74 36" fill="none" xmlns="http://www.w3.org/2000/svg">
<path d="M30.2169 0H31.6521C33.3385 0.132632 35.0935 0.594474 36.3535 1.78342C37.7035 3.02447 38.2956 4.89316 38.305 6.69079C38.3192 9.82895 38.305 12.9671 38.3098 16.1053C38.3429 18.2534 38.3358 20.5697 37.1279 22.4432C36.0906 24.1271 34.1153 24.9584 32.2111 25.1289C30.0227 25.3279 27.5974 25.1266 25.8211 23.7032C24.0661 22.2939 23.5048 19.9232 23.4953 17.7703C23.4906 14.0518 23.4858 10.3311 23.4977 6.61263C23.5095 4.83395 24.1182 2.98895 25.4635 1.77158C26.7471 0.587368 28.514 0.127895 30.2169 0ZM29.9445 4.66816C29.3145 4.98316 28.9924 5.69842 29.0042 6.38289C28.9971 10.485 28.9948 14.5895 29.0066 18.6916C28.964 19.7076 29.7408 20.7332 30.8066 20.7521C31.9292 20.8374 32.8482 19.7739 32.7937 18.6892C32.8174 14.7505 32.7914 10.8118 32.8056 6.87079C32.8008 6.34263 32.8103 5.77421 32.519 5.30763C32.0145 4.44789 30.7971 4.20868 29.9445 4.66816Z" fill="#232323"/>
<path d="M65.6662 0H66.642C68.4065 0.101842 70.2538 0.589737 71.5541 1.85684C72.717 2.96526 73.2736 4.56158 73.4204 6.13421V18.4168C73.283 20.2074 72.8141 22.1068 71.4736 23.3929C70.0596 24.7761 67.992 25.1929 66.0783 25.1953C64.0983 25.2118 61.9549 24.7737 60.5125 23.3195C59.0796 21.8676 58.6273 19.7432 58.6178 17.7655C58.6178 14.0542 58.6154 10.3429 58.6201 6.63158C58.6225 4.86474 59.2217 3.02921 60.5457 1.80711C61.9146 0.530526 63.8354 0.0544737 65.6662 0ZM65.3938 4.53553C64.5815 4.74632 64.0841 5.58947 64.1267 6.40184C64.1244 10.5063 64.1196 14.6108 64.1291 18.7153C64.0794 19.7811 64.9699 20.8255 66.0736 20.7521C67.1299 20.7474 67.9399 19.7432 67.9091 18.7247C67.9209 14.6961 67.9067 10.665 67.9162 6.63395C67.9209 6.18158 67.883 5.70789 67.6415 5.31237C67.2033 4.55684 66.1991 4.27026 65.3938 4.53553Z" fill="#232323"/>
<path d="M0 0.475174C2.55553 0.475174 5.10868 0.472805 7.66421 0.475174C8.23263 3.60623 8.80342 6.73728 9.37658 9.86833C9.88342 12.5423 9.94974 15.2731 10.305 17.966C10.6437 15.0196 10.7645 12.0425 11.3424 9.12702C11.8682 6.24465 12.3939 3.35991 12.9174 0.477542C15.4753 0.472805 18.0332 0.475174 20.5911 0.475174C20.5934 8.50649 20.5911 16.5402 20.5911 24.5739C18.8384 24.5739 17.0882 24.5739 15.3355 24.5739C15.2905 18.2336 15.3663 11.8933 15.5653 5.55781C14.5374 11.9099 13.3082 18.2312 12.2068 24.5715C10.9303 24.5762 9.65368 24.5739 8.3771 24.5715C7.34684 18.8257 6.31658 13.0799 5.28395 7.33412C5.18684 6.75623 5.12526 6.17123 5.05421 5.59096C4.98079 7.10202 5.10395 8.6107 5.1371 10.1218C5.29579 14.9368 5.24842 19.7565 5.25553 24.5739C3.50289 24.5739 1.75263 24.5739 0 24.5739V0.475174Z" fill="#232323"/>
<path d="M41.2419 0.476851C44.2356 0.481588 47.2292 0.462641 50.2229 0.486325C52.0703 0.517114 53.9887 1.35317 54.974 2.9708C56.1132 4.8158 56.0327 7.12501 55.6561 9.1808C55.379 10.7345 54.254 12.0253 52.8211 12.6434C54.3274 13.0792 55.4429 14.4553 55.5827 16.0161C55.7437 18.079 55.5613 20.1537 55.6821 22.219C55.7224 22.8655 55.9285 23.6353 56.6295 23.8461C56.6319 24.0284 56.6342 24.3932 56.6366 24.5755C54.9006 24.5495 53.1598 24.6276 51.4237 24.5376C50.564 24.4026 50.2585 23.4482 50.1992 22.6974C50.0429 20.7766 50.2135 18.844 50.1045 16.9232C50.0666 16.3216 49.8037 15.6726 49.2211 15.4121C48.4442 15.0734 47.5703 15.2061 46.7485 15.1753C46.7485 18.3087 46.7485 21.4421 46.7485 24.5755C44.9106 24.5755 43.075 24.5755 41.2395 24.5755C41.2419 16.5419 41.2371 8.50817 41.2419 0.476851ZM46.7461 10.8363C47.6271 10.7961 48.6171 11.0092 49.3963 10.4858C50.1756 9.93396 50.3603 8.90369 50.3887 8.0108C50.4006 7.0729 50.2916 6.00475 49.5716 5.32501C48.809 4.62159 47.6911 4.85843 46.7485 4.81343C46.7437 6.82185 46.7508 8.8279 46.7461 10.8363Z" fill="#232323"/>
<path d="M12.444 27.3553C13.1711 26.723 14.2937 27.0569 14.7461 27.8551C14.7366 27.6396 14.7295 27.424 14.7224 27.2085C15.2908 27.2061 15.8616 27.2061 16.4301 27.2085C16.4064 29.5864 16.4845 31.969 16.3945 34.3446C16.3566 35.2943 15.4898 35.948 14.5874 36.0001H13.7537C12.6785 35.9859 11.7808 35.1522 11.8258 34.0485C12.4156 34.0461 13.0029 34.0461 13.5927 34.0438C13.6258 34.1811 13.6945 34.4582 13.7277 34.598C14.0214 34.6311 14.5922 34.7898 14.6182 34.3232C14.6774 33.8614 14.6585 33.3948 14.6751 32.9306C14.1043 33.5038 13.1308 33.8472 12.4416 33.2693C11.6127 32.5232 11.9135 31.2964 11.8543 30.3111C11.9253 29.3282 11.5795 28.0848 12.444 27.3553ZM13.7774 28.7006C13.4695 29.5817 13.6566 30.5764 13.6424 31.5001C13.5264 32.104 14.5116 32.329 14.6158 31.7203C14.6845 30.7896 14.6822 29.8446 14.6158 28.9138C14.5708 28.5324 14.0095 28.3974 13.7774 28.7006Z" fill="#232323"/>
<path d="M25.2734 28.0873C25.5576 27.5401 25.9816 27.0191 26.6495 26.9812C26.6613 27.668 26.6613 28.3549 26.6637 29.0417C26.1497 29.082 25.4984 29.2501 25.4392 29.8636C25.3208 31.1638 25.4179 32.4736 25.3871 33.7786C24.7997 33.7809 24.2124 33.7809 23.625 33.7786C23.625 31.5878 23.625 29.3994 23.625 27.2086C24.1792 27.2062 24.7311 27.2062 25.2853 27.2062C25.2829 27.4265 25.2758 27.867 25.2734 28.0873Z" fill="#232323"/>
<path d="M34.6951 27.1799C35.6449 26.8886 36.9096 26.9336 37.542 27.8099C38.1625 28.7549 37.9399 29.9462 37.9872 31.012C38.0086 31.9736 37.9138 33.1791 36.957 33.6883C35.9741 34.1336 34.5578 34.0981 33.8591 33.1696C33.1722 32.1157 33.473 30.7846 33.4115 29.6028C33.3712 28.6578 33.6933 27.4996 34.6951 27.1799ZM35.3157 28.6365C35.0646 29.3209 35.2351 30.0765 35.1854 30.7941C35.2233 31.3199 35.0717 31.9073 35.3441 32.3881C35.6496 32.7267 36.2322 32.4473 36.1896 32.0067C36.2109 30.967 36.2417 29.9225 36.173 28.8828C36.1517 28.4636 35.5762 28.3594 35.3157 28.6365Z" fill="#232323"/>
<path d="M58.3173 27.9163C58.7104 27.4332 59.2315 26.9192 59.9183 27.0282C60.7236 27.0827 61.2233 27.8879 61.2683 28.6316C61.3275 29.8324 61.3015 31.0356 61.2873 32.2387C61.2968 33.1056 60.6075 34.0174 59.6791 33.9582C59.1794 33.9629 58.8383 33.5627 58.502 33.2548C58.5233 34.169 58.5115 35.0856 58.5139 35.9998H56.7375C56.7375 33.0677 56.7375 30.1379 56.7375 27.2082C57.2728 27.2058 57.8081 27.2082 58.3433 27.2082C58.3362 27.3858 58.3244 27.7387 58.3173 27.9163ZM58.6252 28.7548C58.3931 29.6453 58.5636 30.595 58.5139 31.5092C58.5139 31.8456 58.4925 32.4424 58.9662 32.4613C59.3878 32.5703 59.5536 32.0563 59.5252 31.7342C59.5252 30.7916 59.5962 29.8371 59.4731 28.9016C59.3997 28.4966 58.8336 28.4161 58.6252 28.7548Z" fill="#232323"/>
<path d="M45.0924 32.848C45.064 30.9628 45.0497 29.0728 45.1019 27.1875C45.6845 27.2112 46.2671 27.2112 46.8497 27.2088C46.864 28.8028 46.8284 30.3991 46.8663 31.9954C46.7929 32.5259 47.6811 32.6586 47.7474 32.128C47.8303 30.4914 47.7569 28.8478 47.7829 27.2088C48.3703 27.2064 48.9576 27.2064 49.545 27.2088C49.545 29.3972 49.5426 31.588 49.545 33.7788C48.9884 33.7812 48.4342 33.7812 47.88 33.7788C47.8871 33.5917 47.9013 33.2199 47.9061 33.0328C47.4987 34.3117 45.1634 34.3022 45.0924 32.848Z" fill="#232323"/>
</svg>
