<svg width="60" height="69" viewBox="0 0 60 69" fill="none" xmlns="http://www.w3.org/2000/svg">
<mask id="path-1-inside-1" fill="white">
<path fill-rule="evenodd" clip-rule="evenodd" d="M60 0.294922H0V60.2949H21.5147L29.4853 68.2655L37.4558 60.2949H60V0.294922Z"/>
</mask>
<path fill-rule="evenodd" clip-rule="evenodd" d="M60 0.294922H0V60.2949H21.5147L29.4853 68.2655L37.4558 60.2949H60V0.294922Z" fill="white"/>
<path d="M0 0.294922V-2.70508H-3V0.294922H0ZM60 0.294922H63V-2.70508H60V0.294922ZM0 60.2949H-3V63.2949H0V60.2949ZM21.5147 60.2949L23.636 58.1736L22.7574 57.2949H21.5147V60.2949ZM29.4853 68.2655L27.364 70.3868L29.4853 72.5081L31.6066 70.3868L29.4853 68.2655ZM37.4558 60.2949V57.2949H36.2132L35.3345 58.1736L37.4558 60.2949ZM60 60.2949V63.2949H63V60.2949H60ZM0 3.29492H60V-2.70508H0V3.29492ZM3 60.2949V0.294922H-3V60.2949H3ZM21.5147 57.2949H0V63.2949H21.5147V57.2949ZM31.6066 66.1442L23.636 58.1736L19.3934 62.4162L27.364 70.3868L31.6066 66.1442ZM35.3345 58.1736L27.364 66.1442L31.6066 70.3868L39.5772 62.4162L35.3345 58.1736ZM60 57.2949H37.4558V63.2949H60V57.2949ZM57 0.294922V60.2949H63V0.294922H57Z" fill="#232323" mask="url(#path-1-inside-1)"/>
<path d="M26.6969 19.2949H27.5375C28.5251 19.3726 29.553 19.6431 30.2909 20.3394C31.0816 21.0663 31.4283 22.1607 31.4339 23.2135C31.4422 25.0514 31.4339 26.8893 31.4367 28.7273C31.4561 29.9854 31.4519 31.342 30.7445 32.4392C30.1369 33.4254 28.9801 33.9123 27.8649 34.0121C26.5832 34.1287 25.1628 34.0108 24.1224 33.1771C23.0946 32.3518 22.7658 30.9633 22.7603 29.7024C22.7575 27.5246 22.7547 25.3455 22.7617 23.1677C22.7686 22.126 23.1251 21.0455 23.913 20.3325C24.6648 19.6389 25.6996 19.3698 26.6969 19.2949ZM26.5374 22.0289C26.1684 22.2134 25.9798 22.6323 25.9867 23.0332C25.9825 25.4357 25.9812 27.8395 25.9881 30.242C25.9631 30.8371 26.4181 31.4377 27.0423 31.4488C27.6998 31.4987 28.238 30.8759 28.2061 30.2406C28.22 27.9338 28.2047 25.6271 28.213 23.3189C28.2102 23.0096 28.2158 22.6767 28.0452 22.4034C27.7497 21.8999 27.0367 21.7598 26.5374 22.0289Z" fill="#232323"/>
<path d="M47.4585 19.2949H48.03C49.0633 19.3546 50.1453 19.6403 50.9068 20.3824C51.5879 21.0316 51.9139 21.9665 51.9999 22.8875V30.0811C51.9194 31.1297 51.6448 32.2422 50.8597 32.9954C50.0315 33.8055 48.8206 34.0496 47.6998 34.051C46.5402 34.0607 45.2849 33.8041 44.4401 32.9524C43.6009 32.1021 43.336 30.8579 43.3304 29.6996C43.3304 27.526 43.329 25.3524 43.3318 23.1788C43.3332 22.144 43.6841 21.069 44.4595 20.3533C45.2613 19.6056 46.3862 19.3268 47.4585 19.2949ZM47.2989 21.9512C46.8232 22.0747 46.5319 22.5685 46.5568 23.0443C46.5555 25.4481 46.5527 27.852 46.5582 30.2559C46.5291 30.8801 47.0507 31.4918 47.697 31.4488C48.3157 31.446 48.7901 30.8579 48.7721 30.2614C48.779 27.9019 48.7707 25.5411 48.7762 23.1802C48.779 22.9153 48.7568 22.6379 48.6153 22.4062C48.3587 21.9637 47.7706 21.7959 47.2989 21.9512Z" fill="#232323"/>
<path d="M9 19.5734C10.4967 19.5734 11.992 19.572 13.4887 19.5734C13.8216 21.4071 14.1559 23.2409 14.4916 25.0746C14.7884 26.6407 14.8272 28.24 15.0353 29.8172C15.2337 28.0916 15.3044 26.348 15.6429 24.6405C15.9508 22.9524 16.2587 21.2629 16.5653 19.5748C18.0634 19.572 19.5614 19.5734 21.0595 19.5734C21.0609 24.2771 21.0595 28.9821 21.0595 33.6872C20.0331 33.6872 19.008 33.6872 17.9815 33.6872C17.9552 29.9739 17.9996 26.2606 18.1161 22.5501C17.5141 26.2703 16.7942 29.9725 16.1492 33.6858C15.4015 33.6886 14.6539 33.6872 13.9062 33.6858C13.3028 30.3207 12.6994 26.9556 12.0946 23.5904C12.0378 23.252 12.0017 22.9094 11.9601 22.5695C11.9171 23.4545 11.9892 24.3381 12.0086 25.2231C12.1016 28.0431 12.0738 30.8658 12.078 33.6872C11.0515 33.6872 10.0265 33.6872 9 33.6872V19.5734Z" fill="#232323"/>
<path d="M33.1542 19.5744C34.9075 19.5771 36.6608 19.566 38.4141 19.5799C39.4961 19.5979 40.6196 20.0876 41.1967 21.035C41.8639 22.1155 41.8167 23.468 41.5962 24.672C41.4339 25.5819 40.775 26.3379 39.9358 26.6999C40.818 26.9552 41.4713 27.7611 41.5532 28.6752C41.6475 29.8833 41.5407 31.0985 41.6114 32.308C41.635 32.6867 41.7557 33.1375 42.1663 33.261C42.1677 33.3678 42.169 33.5814 42.1704 33.6882C41.1537 33.6729 40.1342 33.7187 39.1174 33.666C38.6139 33.5869 38.4349 33.0279 38.4003 32.5882C38.3087 31.4633 38.4086 30.3314 38.3448 29.2064C38.3226 28.8541 38.1686 28.474 37.8274 28.3215C37.3724 28.1231 36.8606 28.2008 36.3792 28.1828C36.3792 30.0179 36.3792 31.853 36.3792 33.6882C35.3029 33.6882 34.2278 33.6882 33.1528 33.6882C33.1542 28.9831 33.1514 24.278 33.1542 19.5744ZM36.3779 25.6416C36.8939 25.618 37.4737 25.7428 37.93 25.4363C38.3864 25.1131 38.4946 24.5097 38.5112 23.9867C38.5182 23.4375 38.4544 22.8119 38.0327 22.4138C37.586 22.0018 36.9313 22.1405 36.3792 22.1141C36.3765 23.2904 36.3806 24.4653 36.3779 25.6416Z" fill="#232323"/>
<path d="M16.2883 35.3162C16.7141 34.9459 17.3716 35.1415 17.6365 35.6089C17.631 35.4827 17.6268 35.3565 17.6227 35.2302C17.9556 35.2288 18.2899 35.2288 18.6228 35.2302C18.6089 36.6229 18.6547 38.0183 18.602 39.4096C18.5798 39.9658 18.0721 40.3487 17.5436 40.3792H17.0553C16.4256 40.3709 15.8999 39.8826 15.9262 39.2362C16.2716 39.2348 16.6156 39.2348 16.961 39.2334C16.9804 39.3139 17.0207 39.4762 17.0401 39.558C17.2121 39.5774 17.5464 39.6704 17.5616 39.3971C17.5963 39.1266 17.5852 38.8534 17.5949 38.5815C17.2606 38.9172 16.6905 39.1183 16.2869 38.7798C15.8014 38.3429 15.9776 37.6244 15.9429 37.0473C15.9845 36.4717 15.782 35.7435 16.2883 35.3162ZM17.0692 36.1041C16.8889 36.6201 16.9985 37.2027 16.9902 37.7437C16.9222 38.0974 17.4992 38.2292 17.5603 37.8727C17.6005 37.3275 17.5991 36.7741 17.5603 36.2289C17.5339 36.0056 17.2052 35.9266 17.0692 36.1041Z" fill="#232323"/>
<path d="M23.8019 35.7449C23.9683 35.4245 24.2166 35.1194 24.6078 35.0972C24.6147 35.4994 24.6147 35.9017 24.6161 36.304C24.3151 36.3275 23.9336 36.426 23.899 36.7853C23.8296 37.5468 23.8865 38.3139 23.8684 39.0782C23.5244 39.0796 23.1804 39.0796 22.8364 39.0782C22.8364 37.7951 22.8364 36.5134 22.8364 35.2303C23.161 35.2289 23.4842 35.2289 23.8088 35.2289C23.8074 35.3579 23.8032 35.6159 23.8019 35.7449Z" fill="#232323"/>
<path d="M29.3197 35.2135C29.876 35.0429 30.6167 35.0692 30.987 35.5825C31.3504 36.1359 31.2201 36.8336 31.2478 37.4578C31.2603 38.021 31.2048 38.727 30.6444 39.0253C30.0688 39.286 29.2393 39.2652 28.8301 38.7215C28.4278 38.1042 28.604 37.3247 28.5679 36.6325C28.5443 36.079 28.733 35.4007 29.3197 35.2135ZM29.6831 36.0666C29.5361 36.4674 29.636 36.9099 29.6069 37.3302C29.629 37.6382 29.5403 37.9822 29.6998 38.2637C29.8787 38.4621 30.22 38.2984 30.195 38.0404C30.2075 37.4315 30.2255 36.8198 30.1853 36.2108C30.1728 35.9653 29.8357 35.9043 29.6831 36.0666Z" fill="#232323"/>
<path d="M43.1547 35.6445C43.385 35.3616 43.6901 35.0606 44.0924 35.1244C44.564 35.1563 44.8567 35.6279 44.883 36.0634C44.9177 36.7667 44.9024 37.4714 44.8941 38.176C44.8997 38.6837 44.496 39.2177 43.9523 39.183C43.6596 39.1858 43.4599 38.9514 43.2629 38.7711C43.2754 39.3065 43.2684 39.8433 43.2698 40.3787H42.2295C42.2295 38.6615 42.2295 36.9456 42.2295 35.2298C42.543 35.2284 42.8565 35.2298 43.17 35.2298C43.1658 35.3338 43.1589 35.5405 43.1547 35.6445ZM43.335 36.1356C43.1991 36.6571 43.299 37.2134 43.2698 37.7488C43.2698 37.9457 43.2573 38.2953 43.5348 38.3064C43.7817 38.3702 43.8788 38.0692 43.8621 37.8806C43.8621 37.3285 43.9037 36.7695 43.8316 36.2216C43.7886 35.9844 43.4571 35.9372 43.335 36.1356Z" fill="#232323"/>
<path d="M35.409 38.533C35.3923 37.4288 35.384 36.3219 35.4145 35.2178C35.7557 35.2316 36.097 35.2316 36.4382 35.2303C36.4465 36.1638 36.4257 37.0987 36.4479 38.0336C36.4049 38.3443 36.9251 38.422 36.9639 38.1113C37.0125 37.1528 36.9695 36.1901 36.9847 35.2303C37.3287 35.2289 37.6727 35.2289 38.0167 35.2303C38.0167 36.5119 38.0153 37.795 38.0167 39.0781C37.6908 39.0795 37.3662 39.0795 37.0416 39.0781C37.0458 38.9685 37.0541 38.7507 37.0569 38.6412C36.8183 39.3902 35.4506 39.3846 35.409 38.533Z" fill="#232323"/>
</svg>
