<svg width="13" height="13" viewBox="0 0 13 13" fill="none" xmlns="http://www.w3.org/2000/svg">
<path fill-rule="evenodd" clip-rule="evenodd" d="M2.81527 5.50392L6.53407 9.22826L10.2556 5.5067L10.2712 5.49173C10.6138 5.16363 10.8254 4.70344 10.8254 4.18803C10.8254 3.19279 10.0187 2.38599 9.02335 2.38599C8.57084 2.38599 8.16175 2.55017 7.84469 2.82488L6.53503 3.95961L5.22537 2.82488C4.90836 2.55021 4.49918 2.38599 4.04662 2.38599C3.05143 2.38599 2.24463 3.19275 2.24463 4.18803C2.24463 4.69954 2.45514 5.1585 2.79968 5.48897L2.81527 5.50392ZM6.53303 12.0577L1.41526 6.93236C0.693815 6.24039 0.244629 5.26668 0.244629 4.18803C0.244629 2.0882 1.94684 0.385986 4.04662 0.385986C4.99822 0.385986 5.86822 0.735581 6.53503 1.31333C7.20184 0.735581 8.07175 0.385986 9.02335 0.385986C11.1232 0.385986 12.8254 2.0882 12.8254 4.18803C12.8254 5.26774 12.3773 6.24409 11.6545 6.93622L6.53303 12.0577Z" fill="#FDA9A4"/>
</svg>
