<svg width="23" height="20" viewBox="0 0 23 20" fill="none" xmlns="http://www.w3.org/2000/svg">
<path d="M2.68551e-05 5.39708C-0.0022646 5.13438 0.142018 4.87064 0.458554 4.76743L14.6774 0.130839C15.5457 -0.152284 16.4985 0.0307307 17.2 0.615373L22.3279 4.88856C22.4956 5.02829 22.5695 5.21483 22.568 5.39801L2.68551e-05 5.39708ZM22.5667 18.0089C22.5667 19.1085 21.6752 20 20.5756 20H13.9346C13.9372 19.9449 13.9385 19.8895 13.9385 19.8341C13.9385 17.9097 12.3784 16.3496 10.454 16.3496C8.5296 16.3496 6.96955 17.9097 6.96955 19.8341C6.96955 19.8895 6.97084 19.9449 6.97344 20H1.99174C0.892071 20 0.000614243 19.1085 0.000614243 18.0089V6.72585H22.5667V10.3848C20.8969 10.5062 19.58 11.8993 19.58 13.6C19.58 15.3007 20.8969 16.6938 22.5667 16.8151V18.0089ZM13.2748 13.6948C14.741 13.6948 15.9296 12.5062 15.9296 11.0399C15.9296 9.57372 14.741 8.38512 13.2748 8.38512C11.8085 8.38512 10.6199 9.57372 10.6199 11.0399C10.6199 12.5062 11.8085 13.6948 13.2748 13.6948ZM4.31472 15.354C5.41438 15.354 6.30584 14.4626 6.30584 13.3629C6.30584 12.2633 5.41438 11.3718 4.31472 11.3718C3.21505 11.3718 2.32359 12.2633 2.32359 13.3629C2.32359 14.4626 3.21505 15.354 4.31472 15.354ZM20.9074 13.6C20.9074 12.6329 21.6313 11.835 22.5667 11.7183V15.4816C21.6313 15.365 20.9074 14.567 20.9074 13.6ZM8.30322 20C8.29906 19.9451 8.29696 19.8897 8.29696 19.8341C8.29696 18.6428 9.26271 17.677 10.454 17.677C11.6453 17.677 12.6111 18.6428 12.6111 19.8341C12.6111 19.8897 12.609 19.9451 12.6048 20H8.30322ZM13.2748 12.3674C12.5417 12.3674 11.9474 11.7731 11.9474 11.0399C11.9474 10.3068 12.5417 9.71253 13.2748 9.71253C14.0079 9.71253 14.6022 10.3068 14.6022 11.0399C14.6022 11.7731 14.0079 12.3674 13.2748 12.3674ZM4.31472 14.0266C3.94816 14.0266 3.65101 13.7295 3.65101 13.3629C3.65101 12.9964 3.94816 12.6992 4.31472 12.6992C4.68127 12.6992 4.97842 12.9964 4.97842 13.3629C4.97842 13.7295 4.68127 14.0266 4.31472 14.0266Z" fill="#242E45"/>
</svg>
