<svg width="16" height="16" viewBox="0 0 16 16" fill="none" xmlns="http://www.w3.org/2000/svg">
  <path d="M3.70549 8.39048C3.83947 8.40455 5.47922 8.61146 6.32709 10.317C7.00899 11.691 7.30495 15.9338 8.62474 15.998C10.8764 16.1105 10.8604 11.3636 10.1245 10.0016C10.7404 9.96945 14.7418 9.82682 14.9878 9.72236C15.0238 9.79869 16.0276 9.10564 15.9996 8.19362C15.9836 7.6231 15.5597 7.16508 15.1777 6.86375C15.3697 6.67693 15.5517 6.40171 15.6617 6.00195C15.8836 5.20243 15.2377 4.68816 14.7198 4.41294C14.8458 4.22612 14.9638 3.9951 15.0198 3.72591C15.1358 3.16544 14.5678 2.69135 14.1199 2.41011C14.2419 2.21525 14.3579 1.95611 14.4179 1.61661C14.6058 0.559952 13.518 0.0436745 13.514 0.041666C13.444 0.00751495 13.37 -0.00453758 13.298 0.00148869L5.10328 0.294782C5.02729 0.296791 4.9553 0.320897 4.89531 0.359065L3.54952 1.21484C3.41754 1.29921 3.34955 1.44385 3.35555 1.58849L3.32155 7.97063C3.31955 8.19161 3.48953 8.3724 3.70549 8.39048Z" fill="#242E45"/>
  <path d="M0.419936 8.29199H2.43763C2.66759 8.29199 2.85556 8.10517 2.85556 7.87214V1.76521C2.85556 1.53219 2.66759 1.34335 2.43763 1.34335H0.419936C0.187971 1.34335 0 1.53219 0 1.76521V7.87214C0 8.10517 0.187971 8.29199 0.419936 8.29199Z" fill="#242E45"/>
</svg>
