<svg width="24" height="22" viewBox="0 0 24 22" fill="none" xmlns="http://www.w3.org/2000/svg">
<path d="M15.54 0.560059C14.22 0.740059 12.78 1.16006 11.46 1.88006C7.25996 2.78006 3.29996 5.30006 3.95996 5.54006C4.37996 5.66006 6.35996 4.52006 7.13996 5.66006C4.97996 8.66006 4.13996 11.9001 3.83996 14.0001C1.55996 14.9601 0.419957 19.8801 0.539957 19.8801C0.479957 20.0601 2.57996 18.1401 3.71996 16.4601C2.99996 18.8001 3.77996 21.7401 3.83996 21.5001C3.83996 21.5601 5.57996 17.0001 5.45996 15.2601C6.89996 14.1801 9.29995 12.9201 11.88 11.6601C12.72 12.6801 11.88 14.3001 12.06 14.7201C12.12 14.8401 12.36 14.7801 12.42 14.6601C13.38 12.9801 14.46 11.2401 15.78 9.62006C16.8 9.02006 17.7 8.36006 18.54 7.70006C13.86 6.80006 12.96 3.38006 15.54 0.560059Z" fill="#242E45"/>
<path d="M22.02 2.83992C22.44 2.59992 22.8 2.35992 23.22 2.11992C22.56 1.45992 19.56 0.319922 16.56 0.439922C13.62 2.95992 14.52 6.61992 19.2 7.21992C19.92 6.61992 23.22 3.85992 23.46 3.19992C22.98 3.07992 22.5 2.95992 22.02 2.83992ZM18.72 2.83992C18.24 2.95992 17.76 2.83992 17.64 2.47992C17.52 2.11992 17.76 1.69992 18.24 1.51992C18.72 1.33992 19.2 1.51992 19.32 1.93992C19.5 2.29992 19.2 2.71992 18.72 2.83992Z" fill="#242E45"/>
<path d="M18.3599 1.81981C18.1199 1.87981 17.9399 2.11981 17.9999 2.35981C18.0599 2.5398 18.3599 2.6598 18.5999 2.5998C18.8399 2.5398 19.0199 2.29981 18.9599 2.05981C18.8999 1.87981 18.6599 1.75981 18.3599 1.81981Z" fill="#242E45"/>
</svg>
