<svg width="16" height="16" viewBox="0 0 16 16" fill="none" xmlns="http://www.w3.org/2000/svg">
<path d="M3.70549 7.60952C3.83947 7.59545 5.47922 7.38854 6.32709 5.68302C7.00899 4.30896 7.30495 0.0662497 8.62474 0.0019662C10.8764 -0.11053 10.8604 4.6364 10.1245 5.99841C10.7404 6.03055 14.7418 6.17318 14.9878 6.27764C15.0238 6.20131 16.0276 6.89436 15.9996 7.80638C15.9836 8.3769 15.5597 8.83492 15.1777 9.13625C15.3697 9.32307 15.5517 9.59829 15.6617 9.99805C15.8836 10.7976 15.2377 11.3118 14.7198 11.5871C14.8458 11.7739 14.9638 12.0049 15.0198 12.2741C15.1358 12.8346 14.5678 13.3086 14.1199 13.5899C14.2419 13.7847 14.3579 14.0439 14.4179 14.3834C14.6058 15.44 13.518 15.9563 13.514 15.9583C13.444 15.9925 13.37 16.0045 13.298 15.9985L5.10328 15.7052C5.02729 15.7032 4.9553 15.6791 4.89531 15.6409L3.54952 14.7852C3.41754 14.7008 3.34955 14.5562 3.35555 14.4115L3.32155 8.02937C3.31955 7.80839 3.48953 7.6276 3.70549 7.60952Z" fill="#242E45"/>
<path d="M0.419936 7.70801H2.43763C2.66759 7.70801 2.85556 7.89483 2.85556 8.12786V14.2348C2.85556 14.4678 2.66759 14.6566 2.43763 14.6566H0.419936C0.187971 14.6566 0 14.4678 0 14.2348V8.12786C0 7.89483 0.187971 7.70801 0.419936 7.70801Z" fill="#242E45"/>
</svg>
