<svg width="26" height="22" viewBox="0 0 26 22" fill="none" xmlns="http://www.w3.org/2000/svg">
<path d="M25.4806 13.6845C24.9232 11.7696 20.6215 11.3829 20.7808 8.6829C20.9404 5.9829 18.9241 4.0392 16.3954 2.481C16.3954 2.481 14.0029 0.716701 11.4421 0.564001C8.88098 0.411301 5.99558 2.4711 3.39488 8.1171C0.793875 13.7625 0.585675 16.7982 0.736875 17.8833L0.737175 17.8827C0.732975 18.3714 0.812175 18.8694 1.03028 19.3323C1.92428 21.2277 7.63058 22.1226 15.2863 21.0192C22.9417 19.9149 26.0383 15.5988 25.4806 13.6845ZM14.8324 19.9002C12.847 20.1867 11.0125 20.3187 9.39488 20.3187C5.59178 20.3187 2.98838 19.5909 2.44298 18.435C1.66598 16.7874 2.90948 14.6229 2.90948 14.6229C2.90948 14.6229 6.88928 7.6023 8.27528 5.8398C9.30338 4.5318 11.737 3.291 13.8217 3.2907H13.822C14.5468 3.2907 15.2293 3.4407 15.796 3.7902C17.9935 5.1444 19.7461 6.8337 19.6078 9.18C19.4689 11.5269 23.2069 11.8626 23.6917 13.5267C24.1762 15.1905 21.4849 18.9411 14.8324 19.9002Z" fill="#222B40"/>
<path d="M8.78725 6.24163C7.44715 7.94623 3.51535 14.8741 3.47575 14.9437C3.46345 14.9647 2.41135 16.8421 3.03145 18.157C3.37465 18.8848 5.51215 19.6669 9.39475 19.6669C11.0486 19.6669 12.8469 19.5292 14.739 19.2562C20.1507 18.4756 22.1414 15.9772 22.6223 15.2302C23.0726 14.5306 23.1467 13.9858 23.0664 13.7086C22.9305 13.2427 22.2036 12.8215 21.5007 12.4138C20.3217 11.7301 18.8544 10.8793 18.957 9.14143C19.0596 7.40443 17.9463 5.87983 15.4536 4.34413C15.0204 4.07683 14.4713 3.94153 13.8212 3.94153V3.29053L13.8209 3.94153C11.8913 3.94183 9.65965 5.13133 8.78725 6.24163ZM16.0905 10.9648C16.0905 10.9648 16.3686 11.3725 16.4703 11.7034C16.572 12.0334 16.2923 12.3895 17.2844 12.6697C18.2762 12.9493 18.861 14.836 18.861 15.1009C18.861 15.3652 18.3777 15.7717 17.9964 15.2632C17.6151 14.7547 17.742 13.9162 16.7754 13.5088C15.8091 13.1017 15.6203 11.7925 15.2442 11.2648C13.646 9.01993 11.0651 13.7854 9.81115 14.6614C8.55655 15.538 8.19205 14.9656 8.98045 14.1463C9.76945 13.3273 12.0405 10.9036 12.7394 10.4398C13.4388 9.97633 13.5732 9.44293 13.1267 8.79163C12.68 8.14033 11.6807 5.76193 12.8168 6.15913C12.8168 6.15913 14.7284 9.76123 16.0905 10.9648Z" fill="#222B40"/>
</svg>
