<svg width="16" height="16" viewBox="0 0 16 16" fill="none" xmlns="http://www.w3.org/2000/svg">
  <path fill-rule="evenodd" clip-rule="evenodd" d="M4.57143 0H11.4286C13.9533 0 16 2.0467 16 4.57143V11.4286C16 13.9533 13.9533 16 11.4286 16H4.57143C2.0467 16 0 13.9533 0 11.4286V4.57143C0 2.0467 2.0467 0 4.57143 0ZM4.57143 1.52381H11.4286C13.1117 1.52381 14.4762 2.88827 14.4762 4.57143V11.4286C14.4762 13.1117 13.1117 14.4762 11.4286 14.4762H4.57143C2.88827 14.4762 1.52381 13.1117 1.52381 11.4286V4.57143C1.52381 2.88827 2.88827 1.52381 4.57143 1.52381ZM12.1905 8C12.1905 5.68566 10.3143 3.80952 8 3.80952C5.71907 3.88825 3.88825 5.71907 3.80952 8C3.80952 10.3143 5.68566 12.1905 8 12.1905C10.3143 12.1905 12.1905 10.3143 12.1905 8ZM8.06104 5.33333C8.75238 5.33293 9.41555 5.60728 9.90454 6.09599C10.3935 6.5847 10.6683 7.24771 10.6683 7.93905C10.6263 9.42081 9.4339 10.6116 7.95209 10.6514C7.26081 10.6518 6.59773 10.3775 6.10885 9.88873C5.61998 9.39999 5.34541 8.73699 5.34561 8.04572C5.3879 6.5644 6.57968 5.37396 8.06104 5.33333ZM12.9524 3.80952C12.9524 3.38874 12.6113 3.04762 12.1905 3.04762C11.7697 3.04762 11.4286 3.38874 11.4286 3.80952C11.4286 4.23031 11.7697 4.57143 12.1905 4.57143C12.6113 4.57143 12.9524 4.23031 12.9524 3.80952Z" fill="#242E45"/>
</svg>
