<svg width="16" height="9" viewBox="0 0 16 9" fill="none" xmlns="http://www.w3.org/2000/svg">
<path d="M15.3722 0.366966H12.7758C12.6698 0.366966 12.5658 0.393402 12.4749 0.44346C12.3839 0.493519 12.3094 0.565327 12.2593 0.651243C12.2593 0.651243 11.2238 2.40596 10.8912 2.99698C9.99633 4.58691 9.41686 4.08777 9.41686 3.34988V0.8056C9.41686 0.592992 9.32506 0.389092 9.16167 0.238756C8.99828 0.0884191 8.77667 0.00396092 8.5456 0.00396092H6.59346C6.32762 -0.0142259 6.06113 0.0304221 5.81931 0.133664C5.57749 0.236907 5.36837 0.395315 5.21182 0.593845C5.21182 0.593845 6.20308 0.446378 6.20308 1.6753C6.20308 1.98003 6.22014 2.85668 6.23569 3.59197C6.23862 3.70032 6.20535 3.80689 6.14036 3.89729C6.07537 3.98769 5.98181 4.05757 5.87229 4.09749C5.76277 4.13741 5.64258 4.14545 5.52794 4.12052C5.41329 4.09559 5.30973 4.0389 5.23121 3.9581C4.43218 2.93558 3.7703 1.82799 3.25998 0.659404C3.21616 0.571987 3.146 0.497971 3.05783 0.446137C2.96966 0.394303 2.86718 0.366826 2.76255 0.366966C2.19948 0.366966 1.07272 0.366966 0.40357 0.366966C0.338683 0.36656 0.274658 0.380654 0.216997 0.408037C0.159335 0.435421 0.109761 0.475274 0.0725324 0.524175C0.0353042 0.573076 0.0115351 0.629561 0.0032672 0.688779C-0.00500069 0.747997 0.00247979 0.808176 0.025066 0.864146C0.741367 2.67196 3.82696 8.35309 7.34886 8.35309H8.83123C8.98655 8.35309 9.1355 8.29632 9.24533 8.19526C9.35516 8.09421 9.41686 7.95716 9.41686 7.81425V6.99067C9.41686 6.88735 9.44971 6.7863 9.51136 6.69995C9.57302 6.6136 9.66079 6.54573 9.76385 6.50471C9.86691 6.4637 9.98076 6.45131 10.0914 6.4691C10.202 6.48688 10.3045 6.53405 10.3864 6.6048L12.1606 8.13864C12.32 8.27639 12.5304 8.35308 12.7491 8.35309H15.079C16.2027 8.35309 16.2027 7.63562 15.5901 7.08044C15.1589 6.68972 13.603 5.18073 13.603 5.18073C13.4697 5.05373 13.3902 4.88706 13.3789 4.71084C13.3676 4.53463 13.4251 4.36049 13.5411 4.21991C14.044 3.61096 14.8666 2.61415 15.2155 2.18713C15.6924 1.60346 16.5554 0.366966 15.3722 0.366966Z" fill="#242E45"/>
</svg>
