<svg width="18" height="18" viewBox="0 0 18 18" fill="none" xmlns="http://www.w3.org/2000/svg">
<path fill-rule="evenodd" clip-rule="evenodd" d="M7.72233 12.6324H3.38202C2.82974 12.6324 2.38202 12.1847 2.38202 11.6324V3.66895C2.38202 3.11666 2.82973 2.66895 3.38202 2.66895H14.0626C14.6149 2.66895 15.0626 3.11666 15.0626 3.66895V11.6324C15.0626 12.1847 14.6149 12.6324 14.0626 12.6324H12.4776V15.9634L7.72233 12.6324ZM14.4776 14.604C15.938 14.4019 17.0626 13.1485 17.0626 11.6324V3.66895C17.0626 2.01209 15.7195 0.668945 14.0626 0.668945H3.38202C1.72516 0.668945 0.382019 2.01209 0.382019 3.66895V11.6324C0.382019 13.2893 1.72517 14.6324 3.38202 14.6324H7.09152L11.3301 17.6015C11.941 18.0294 12.7393 18.0818 13.4009 17.7375C14.0625 17.3931 14.4776 16.7093 14.4776 15.9634V14.604Z" fill="#FDA9A4"/>
</svg>
