<svg width="24" height="17" viewBox="0 0 24 17" fill="none" xmlns="http://www.w3.org/2000/svg">
<path fill-rule="evenodd" clip-rule="evenodd" d="M0.958984 2.36182C0.958984 1.25725 1.85441 0.361816 2.95898 0.361816H21.6964C22.801 0.361816 23.6964 1.25725 23.6964 2.36182V14.615C23.6964 15.7196 22.801 16.615 21.6964 16.615H2.95898C1.85441 16.615 0.958984 15.7196 0.958984 14.615V2.36182ZM2.95898 2.36182V14.615H21.6964V2.36182H2.95898Z" fill="#FDA9A4"/>
<path fill-rule="evenodd" clip-rule="evenodd" d="M7.3187 12.3765H3.75244V10.3765H7.3187V12.3765Z" fill="#FDA9A4"/>
<path fill-rule="evenodd" clip-rule="evenodd" d="M7.3187 5.64429H3.75244V3.64429H7.3187V5.64429Z" fill="#FDA9A4"/>
<path fill-rule="evenodd" clip-rule="evenodd" d="M11.7376 12.3765H8.17139V10.3765H11.7376V12.3765Z" fill="#FDA9A4"/>
<path fill-rule="evenodd" clip-rule="evenodd" d="M16.1571 12.3765H12.5908V10.3765H16.1571V12.3765Z" fill="#FDA9A4"/>
<path fill-rule="evenodd" clip-rule="evenodd" d="M20.576 12.3765H17.0098V10.3765H20.576V12.3765Z" fill="#FDA9A4"/>
</svg>
