<svg width="19" height="18" viewBox="0 0 19 18" fill="none" xmlns="http://www.w3.org/2000/svg">
<path d="M9.38518 0.911258L9.38517 0.911264L1.23897 4.52275C1.01871 4.62039 0.867249 4.82201 0.840668 5.05455M9.38518 0.911258L0.989698 5.07158M9.38518 0.911258C9.56947 0.829581 9.78177 0.829581 9.96605 0.911258L9.96607 0.911264L18.1123 4.52275L18.1123 4.52275C18.3325 4.6204 18.4839 4.82197 18.5106 5.05452M9.38518 0.911258L18.3615 5.07158M0.840668 5.05455L0.989698 5.07158M0.840668 5.05455C0.8407 5.05425 0.840734 5.05397 0.840767 5.05371L0.989698 5.07158M0.840668 5.05455C0.839819 5.06225 0.838776 5.07971 0.838211 5.08911L0.838108 5.09083L0.837988 5.09282C0.837406 5.10241 0.836304 5.12059 0.836304 5.1274V13.8981C0.836304 14.1751 1.0135 14.4183 1.27441 14.5174L1.32725 14.3783L1.27443 14.5174L9.42054 17.6129M0.989698 5.07158C0.989256 5.07526 0.986303 5.12469 0.986303 5.1274V13.8981C0.986303 14.1091 1.1215 14.2988 1.3277 14.3772L9.4739 17.4727C9.53863 17.4973 9.60712 17.5096 9.67559 17.5096C9.74405 17.5096 9.81254 17.4973 9.87727 17.4727L18.0235 14.3772C18.2297 14.2988 18.3649 14.1091 18.3649 13.8981V5.1274C18.3649 5.12469 18.362 5.07529 18.3615 5.07158M9.42054 17.6129L9.47367 17.4733L9.42062 17.6129L9.42054 17.6129ZM9.42054 17.6129C9.50263 17.6441 9.58923 17.6596 9.67559 17.6596C9.76198 17.6596 9.84856 17.6441 9.93055 17.6129L18.0767 14.5174L18.0239 14.3783L18.0768 14.5174C18.3377 14.4183 18.5149 14.1751 18.5149 13.8981V5.1274C18.5149 5.12069 18.5138 5.10261 18.5132 5.09297L18.5131 5.09103L18.513 5.08917C18.5124 5.07968 18.5114 5.06213 18.5106 5.05452M18.5106 5.05452L18.3615 5.07158M18.5106 5.05452C18.5105 5.05429 18.5105 5.05407 18.5105 5.05386L18.3615 5.07158M12.0289 3.29263L9.67559 2.24932L3.28996 5.08029L5.50482 5.92195L12.0289 3.29263ZM16.0612 5.08029L13.7354 4.04919L7.34939 6.62287L9.67558 7.50681L16.0612 5.08029ZM17.1287 13.4454V6.10689L10.3687 8.67571V16.0142L17.1287 13.4454ZM2.22246 13.4454L8.98251 16.0142V8.67571L2.22246 6.10689V13.4454Z" fill="#FDA9A4" stroke="#FDA9A4" stroke-width="0.3"/>
</svg>
